<svg width="955" height="314" viewBox="0 0 955 314" fill="none" xmlns="http://www.w3.org/2000/svg">
<path d="M452.717 214.037L377.97 271.827V312.961H339.275V96.1792H377.97V221.881L541.642 96.1792H606.339L483.734 190.203L610.466 312.961H554.334L452.717 214.037Z" fill="white"/>
<path d="M696.833 306.105C674.731 301.206 654.465 294.35 635.995 285.216C617.525 276.082 602.316 264.004 591.089 249.304C579.491 234.604 573.713 218.615 573.713 200.648C573.713 177.481 583.495 157.236 602.687 139.592C621.88 121.969 645.777 108.902 674.401 100.413C702.653 91.9243 732.721 87.6905 764.234 87.6905C795.746 87.6905 825.794 91.9243 854.417 100.413C882.669 108.902 906.567 121.969 925.759 139.592C944.952 157.215 954.734 177.459 954.734 200.648C954.734 218.615 948.935 234.604 937.708 249.304C926.11 264.004 911.272 276.082 892.802 285.216C874.332 294.35 853.695 301.206 831.593 306.105C809.49 311.005 787.037 313.606 764.234 313.606C741.388 313.627 718.915 311.005 696.833 306.105ZM830.107 265.96C850.744 261.06 868.492 252.571 883.35 241.138C897.837 229.704 905.081 216.315 905.081 200.648C905.081 185.304 897.837 171.914 883.701 160.481C869.214 149.048 851.466 140.903 830.829 135.68C809.821 130.458 787.739 127.836 764.192 127.836C740.645 127.836 718.564 130.458 697.906 135.68C676.898 140.903 659.15 149.069 645.034 160.481C630.547 171.914 623.304 185.304 623.304 200.648C623.304 216.315 630.547 229.704 645.406 241.138C660.264 252.571 678.012 261.06 698.649 265.96C719.286 270.86 741.017 273.46 764.213 273.46C787.368 273.46 809.47 270.86 830.107 265.96Z" fill="white"/>
<path d="M36.0528 132.757V182.058H89.6677V218.615H36.0528V276.404H104.712V312.961H0V96.1792H104.712V132.736H36.0528V132.757Z" fill="white"/>
<path d="M206.768 221.236L163.513 273.482V312.982H125.252V96.1792H163.492V213.715L260.053 96.1792H309.272L231.512 190.526L312.388 312.961H266.615L206.768 221.236Z" fill="white"/>
<path d="M144.729 60.2677C138.662 57.1945 134.906 53.0037 133.379 47.8888L143.924 42.6664C144.461 45.9331 146.793 48.6195 150.982 50.6611C155.089 52.8103 160.64 53.8204 167.698 53.8204C174.57 53.8204 179.936 53.1756 183.609 51.7787C187.283 50.3818 189.058 48.512 189.058 46.105C189.058 44.1493 187.634 42.559 184.765 41.3555C181.814 40.2379 176.015 39.0344 167.347 37.7234C156.183 35.9612 148.217 33.6186 143.408 30.6528C138.497 27.773 136.082 23.4963 136.082 17.9945C136.082 12.6002 138.951 8.32349 144.667 5.25025C150.26 2.1985 157.689 0.608154 166.893 0.608154C176.015 0.608154 183.341 2.09105 188.975 5.16429C194.609 8.23753 197.993 12.3209 199.335 17.6292L188.707 23.0235C188.604 15.5016 181.546 11.7836 167.513 11.7836C161.342 11.7836 156.616 12.4283 153.129 13.6318C149.641 14.9428 147.866 16.6191 147.866 18.5748C147.866 20.4445 149.29 21.9274 152.159 22.9375C155.027 24.055 160.64 25.2586 169.143 26.5695C180.844 28.3318 188.975 30.6743 193.722 33.4467C198.365 36.3265 200.697 40.6248 200.697 46.2984C200.697 52.3375 197.746 57.001 191.761 60.1603C185.776 63.4269 177.645 64.9958 167.451 64.9958C158.391 65.0173 150.797 63.4269 144.729 60.2677Z" fill="white"/>
<path d="M270.183 13.1805H243.458V63.7923H232.108V13.1805H205.486V2.00507H270.183V13.1805Z" fill="white"/>
<path d="M297.564 61.7506C292.384 59.6015 288.174 56.3563 284.955 51.9721C281.736 47.5879 280.126 42.387 280.126 36.434V2.00507H291.476V35.2305C291.476 41.0976 293.705 45.6537 298.183 48.9203C302.558 52.187 308.11 53.8633 314.796 53.8633C321.503 53.8633 327.034 52.187 331.512 48.9203C335.99 45.6752 338.219 41.0976 338.219 35.2305V2.00507H349.569V36.434C349.569 42.387 347.96 47.6094 344.74 51.9721C341.438 56.3348 337.229 59.6015 332.049 61.7506C326.786 63.8997 321.049 65.0173 314.796 65.0173C308.461 65.0173 302.744 63.8997 297.564 61.7506Z" fill="white"/>
<path d="M397.862 2.37035C401.7 3.01509 405.291 4.04666 408.758 5.52956C412.246 7.1199 415.197 8.96815 417.694 11.3107C420.109 13.6317 422.069 16.5116 423.493 20.0576C424.917 23.6896 425.639 27.687 425.639 32.2431C425.639 38.1102 424.566 43.2251 422.337 47.5019C420.109 51.8646 417.075 55.2172 413.216 57.5597C409.377 59.8808 405.167 61.6646 400.607 62.6746C396.046 63.7922 390.949 64.351 385.5 64.351C380.052 64.351 375.223 64.265 371.034 64.1575C366.824 64.0716 363.976 64.0716 362.552 63.9641L360.323 63.7707V2.005C364.698 1.63965 373.098 1.44623 385.521 1.44623C389.917 1.44623 394.023 1.72561 397.862 2.37035ZM407.066 48.0606C411.627 44.622 413.856 39.3997 413.856 32.2431C413.856 25.5379 411.627 20.6164 407.066 17.3497C402.505 14.1905 395.365 12.6002 385.521 12.6002C383.478 12.6002 380.878 12.6002 377.844 12.6002C374.728 12.6861 372.664 12.6861 371.674 12.6861V53.0681C372.664 53.0681 374.707 53.0681 377.844 53.0681C380.878 53.154 383.478 53.154 385.521 53.154C395.365 53.197 402.505 51.5207 407.066 48.0606Z" fill="white"/>
<path d="M436.27 2.00507H447.62V63.7923H436.27V2.00507Z" fill="white"/>
<path d="M481.769 63.0616C477.559 61.8581 473.721 59.9883 470.151 57.4739C466.58 55.0454 463.712 51.6927 461.566 47.416C459.337 43.1392 458.264 38.3037 458.264 32.802C458.264 27.5796 459.337 22.8515 461.483 18.6608C463.547 14.47 466.395 11.0314 469.882 8.43095C473.37 5.91648 477.312 3.96078 481.501 2.56385C485.69 1.25289 490.065 0.608154 494.626 0.608154C499.187 0.608154 503.562 1.25289 507.772 2.56385C511.982 3.96078 515.903 5.91648 519.473 8.43095C522.961 11.0314 525.829 14.47 527.955 18.6608C530.019 22.8515 531.092 27.6011 531.092 32.802C531.092 37.1647 530.369 41.2695 528.945 44.9015C527.418 48.5335 525.54 51.6068 523.146 54.0138C520.732 56.4423 517.967 58.484 514.83 60.1603C511.61 61.9225 508.308 63.1475 505.007 63.8782C501.601 64.6304 498.134 64.9958 494.647 64.9958C490.251 65.0173 485.959 64.351 481.769 63.0616ZM503.376 52.6383C506.142 51.8862 508.824 50.6826 511.239 49.0923C513.653 47.5019 515.614 45.3743 517.141 42.5805C518.565 39.7866 519.287 36.5414 519.287 32.802C519.287 26.0107 516.873 20.7884 511.961 17.1564C507.05 13.5244 501.23 11.7621 494.626 11.7621C488.022 11.7621 482.285 13.5244 477.374 17.1564C472.462 20.7884 469.944 25.9893 469.944 32.802C469.944 36.434 470.667 39.6792 472.173 42.473C473.597 45.3528 475.578 47.5019 478.075 49.0708C480.49 50.6612 483.173 51.8647 485.938 52.6169C488.703 53.455 491.572 53.8204 494.605 53.8204C497.66 53.8419 500.611 53.4765 503.376 52.6383Z" fill="white"/>
</svg>
