<svg width="170" height="13" viewBox="0 0 170 13" fill="none" xmlns="http://www.w3.org/2000/svg">
<path d="M30.172 6.92754C29.3884 7.59922 28.045 8.27089 26.2539 8.83061H31.1795V10.2859H22.7836L22.5597 8.83061C23.9031 8.38283 25.0225 8.047 26.03 7.59922C27.0375 7.15143 27.8212 6.8156 28.2689 6.47976C28.8287 6.14393 29.1645 5.80809 29.5003 5.5842C29.7242 5.36031 29.8362 5.02447 29.8362 4.91253C29.8362 4.57669 29.6123 4.24086 29.0525 3.90502C28.4928 3.56919 27.8212 3.45724 26.9256 3.45724C26.03 3.45724 25.2464 3.56919 24.5747 3.90502C23.9031 4.24086 23.6792 4.57669 23.6792 5.02447C23.6792 5.24836 23.9031 5.5842 24.2389 5.92004L23.3433 7.15143C22.4478 6.59171 22 5.92004 22 5.13642C22 4.24086 22.4478 3.56919 23.4553 2.89752C24.3508 2.33779 25.5822 2.00195 26.9256 2.00195C28.157 2.00195 29.2764 2.22584 30.172 2.78557C31.0676 3.3453 31.5153 4.01697 31.5153 4.91253C31.4034 5.5842 31.0676 6.36782 30.172 6.92754Z" fill="#A7A7A7"/>
<path d="M35.7708 10.2839C35.2111 10.172 34.6514 9.83617 34.2036 9.50033C33.7558 9.1645 33.308 8.71671 32.9722 8.15699C32.6364 7.59726 32.5244 6.92559 32.5244 6.25392C32.5244 5.58225 32.6364 4.91058 32.9722 4.35085C33.308 3.79112 33.6439 3.34334 34.0916 3.00751C34.5394 2.67167 35.0992 2.44778 35.6589 2.22389C36.2186 2 36.8903 2 37.45 2C38.1217 2 38.6814 2.11195 39.2411 2.22389C39.8009 2.44778 40.3606 2.67167 40.8084 3.00751C41.2561 3.34334 41.7039 3.79112 41.9278 4.35085C42.2636 4.91058 42.3756 5.58225 42.3756 6.25392C42.3756 6.81364 42.2637 7.37337 42.0398 7.82115C41.8159 8.26893 41.592 8.71671 41.2561 9.05255C40.9203 9.38839 40.5845 9.61228 40.1367 9.83617C39.6889 10.0601 39.2411 10.2839 38.7933 10.2839C38.4575 10.3959 38.0097 10.5078 37.45 10.5078C36.8903 10.5078 36.3306 10.3959 35.7708 10.2839ZM38.6814 8.82866C39.0172 8.71671 39.465 8.60477 39.8009 8.38088C40.1367 8.15699 40.3606 7.9331 40.5845 7.48532C40.8084 7.14948 40.9203 6.7017 40.9203 6.14197C40.9203 5.4703 40.6964 5.02252 40.3606 4.57474C40.0247 4.12696 39.577 3.79112 39.1292 3.67918C38.6814 3.45529 38.1217 3.45529 37.562 3.45529C37.0022 3.45529 36.4425 3.56723 35.9947 3.67918C35.5469 3.90307 35.0992 4.12696 34.7633 4.57474C34.4275 5.02252 34.2036 5.58225 34.2036 6.14197C34.2036 6.58975 34.3155 7.03754 34.5394 7.48532C34.7633 7.82115 34.9872 8.15699 35.323 8.38088C35.6589 8.60477 35.9947 8.71671 36.4425 8.82866C36.7783 8.9406 37.2261 8.9406 37.6739 8.9406C37.8978 9.05255 38.3456 8.9406 38.6814 8.82866Z" fill="#A7A7A7"/>
<path d="M51.6658 6.92559C50.8822 7.59726 49.5388 8.26893 47.7477 8.82866H52.6733V10.2839H44.2774L43.9416 8.82866C45.2849 8.38088 46.4044 8.04504 47.4119 7.59726C48.4194 7.14948 49.203 6.81365 49.6508 6.47781C50.2105 6.14197 50.5463 5.80614 50.8822 5.58225C51.1061 5.35836 51.218 5.02252 51.218 4.91058C51.218 4.57474 50.9941 4.2389 50.4344 3.90307C49.8747 3.56723 49.203 3.45529 48.3074 3.45529C47.4119 3.45529 46.6283 3.56723 45.9566 3.90307C45.2849 4.2389 45.061 4.57474 45.061 5.02252C45.061 5.24641 45.2849 5.58225 45.6207 5.91808L44.7252 7.14948C43.8296 6.58975 43.3818 5.91808 43.3818 5.13447C43.3818 4.2389 43.8296 3.56723 44.8371 2.89556C45.7327 2.33584 46.9641 2 48.3074 2C49.5388 2 50.6583 2.22389 51.5538 2.78362C52.4494 3.34334 52.8972 4.01501 52.8972 4.91058C52.8972 5.58225 52.4494 6.36586 51.6658 6.92559Z" fill="#A7A7A7"/>
<path d="M62.2839 6.92559C61.5003 7.59726 60.157 8.26893 58.3659 8.82866H63.2915V10.2839H54.8956L54.5597 8.82866C55.9031 8.38088 57.0225 8.04504 58.03 7.59726C59.0375 7.14948 59.8212 6.81365 60.2689 6.47781C60.8287 6.14197 61.1645 5.80614 61.5003 5.58225C61.7242 5.35836 61.8362 5.02252 61.8362 4.91058C61.8362 4.57474 61.6123 4.2389 61.0526 3.90307C60.4928 3.56723 59.8212 3.45529 58.9256 3.45529C58.03 3.45529 57.2464 3.56723 56.5747 3.90307C55.9031 4.2389 55.6792 4.57474 55.6792 5.02252C55.6792 5.24641 55.9031 5.58225 56.2389 5.91808L55.3433 7.14948C54.4478 6.58975 54 5.91808 54 5.13447C54 4.2389 54.4478 3.56723 55.4553 2.89556C56.3509 2.33584 57.5822 2 58.9256 2C60.157 2 61.2764 2.22389 62.172 2.78362C63.0676 3.34334 63.5153 4.01501 63.5153 4.91058C63.5153 5.58225 63.0676 6.36586 62.2839 6.92559Z" fill="#A7A7A7"/>
<path d="M72.3377 9.83617C71.5541 9.38839 70.9944 8.82866 70.7705 8.15699L72.2258 7.48532C72.3377 7.9331 72.6736 8.26893 73.2333 8.49282C73.793 8.82866 74.5766 8.94061 75.5842 8.94061C76.4797 8.94061 77.2633 8.82866 77.8231 8.71671C78.3828 8.60477 78.6067 8.26893 78.6067 7.9331C78.6067 7.70921 78.3828 7.48532 78.0469 7.26143C77.5992 7.14948 76.8156 6.92559 75.6961 6.81365C74.1289 6.58976 73.0094 6.25392 72.4497 5.91808C71.5541 5.58225 71.2183 5.02252 71.2183 4.2389C71.2183 3.56723 71.6661 3.00751 72.4497 2.55973C73.2333 2.11195 74.2408 2 75.4722 2C76.7036 2 77.7111 2.22389 78.4947 2.55973C79.2783 3.00751 79.7261 3.45529 79.95 4.2389L78.3828 4.91058C78.3828 3.90307 77.3753 3.45529 75.4722 3.45529C74.5766 3.45529 74.0169 3.56723 73.4572 3.67918C73.0094 3.90307 72.6736 4.12696 72.6736 4.35085C72.6736 4.57474 72.8975 4.79863 73.2333 4.91058C73.6811 5.02252 74.3528 5.24641 75.5842 5.35836C77.1514 5.58225 78.2708 5.91808 78.9425 6.25392C79.6142 6.58976 79.95 7.14948 79.95 7.9331C79.95 8.71671 79.5022 9.38839 78.7186 9.72422C77.935 10.172 76.8156 10.3959 75.3603 10.3959C74.2408 10.5078 73.2333 10.2839 72.3377 9.83617Z" fill="#A7A7A7"/>
<path d="M89.69 3.68051H85.9958V10.3972H84.4286V3.68051H80.7344V2.11328H89.69V3.68051Z" fill="#A7A7A7"/>
<path d="M93.1601 10.0614C92.3764 9.8375 91.8167 9.38972 91.3689 8.71805C90.9212 8.15832 90.6973 7.48665 90.6973 6.70304V2.11328H92.2645V6.47915C92.2645 7.26276 92.6003 7.82249 93.1601 8.27027C93.7198 8.71805 94.5034 8.94194 95.399 8.94194C96.2945 8.94194 97.0781 8.71805 97.7498 8.27027C98.3095 7.82249 98.6454 7.26276 98.6454 6.47915V2.11328H100.325V6.70304C100.325 7.48665 100.101 8.15832 99.6529 8.71805C99.2051 9.38972 98.5334 9.8375 97.8618 10.0614C97.1901 10.3972 96.4065 10.5092 95.5109 10.5092C94.6153 10.5092 93.8317 10.3972 93.1601 10.0614Z" fill="#A7A7A7"/>
<path d="M107.265 2.22389C107.825 2.33584 108.273 2.44778 108.721 2.67167C109.168 2.89556 109.616 3.11945 109.952 3.45529C110.288 3.79112 110.512 4.12696 110.736 4.57474C110.96 5.02252 111.071 5.58225 111.071 6.14197C111.071 6.92559 110.96 7.59726 110.624 8.15699C110.288 8.71671 109.952 9.1645 109.392 9.50033C108.833 9.83617 108.273 10.0601 107.601 10.172C106.929 10.2839 106.258 10.3959 105.474 10.3959C104.691 10.3959 104.019 10.3959 103.459 10.3959C102.899 10.3959 102.452 10.3959 102.34 10.3959H102.004V2.11195C102.564 2.11195 103.795 2 105.474 2C106.146 2.11195 106.706 2.11195 107.265 2.22389ZM108.497 8.26893C109.168 7.82115 109.392 7.14948 109.392 6.14197C109.392 5.24641 109.056 4.57474 108.497 4.12696C107.825 3.67918 106.929 3.45529 105.474 3.45529C105.138 3.45529 104.803 3.45529 104.467 3.45529C104.019 3.45529 103.795 3.45529 103.571 3.45529V8.82866C103.683 8.82866 104.019 8.82866 104.467 8.82866C104.914 8.82866 105.25 8.82866 105.474 8.82866C106.929 8.9406 107.937 8.71671 108.497 8.26893Z" fill="#A7A7A7"/>
<path d="M112.527 2.11328H114.095V10.2853H112.527V2.11328Z" fill="#A7A7A7"/>
<path d="M118.794 10.2839C118.235 10.172 117.675 9.83617 117.227 9.50033C116.779 9.1645 116.331 8.71671 115.996 8.15699C115.66 7.59726 115.548 6.92559 115.548 6.25392C115.548 5.58225 115.66 4.91058 115.996 4.35085C116.331 3.79112 116.667 3.34334 117.115 3.00751C117.563 2.67167 118.123 2.44778 118.682 2.22389C119.242 2 119.914 2 120.473 2C121.033 2 121.705 2.11195 122.265 2.22389C122.824 2.44778 123.384 2.67167 123.832 3.00751C124.28 3.34334 124.727 3.79112 124.951 4.35085C125.287 4.91058 125.399 5.58225 125.399 6.25392C125.399 6.81364 125.287 7.37337 125.063 7.82115C124.839 8.26893 124.615 8.71671 124.28 9.05255C123.944 9.38839 123.608 9.61228 123.16 9.83617C122.712 10.0601 122.265 10.2839 121.817 10.2839C121.593 10.3959 121.033 10.5078 120.585 10.5078C120.026 10.5078 119.354 10.3959 118.794 10.2839ZM121.817 8.82866C122.153 8.71671 122.6 8.60477 122.936 8.38088C123.272 8.15699 123.496 7.9331 123.72 7.48532C123.944 7.14948 124.056 6.7017 124.056 6.14197C124.056 5.24641 123.72 4.57474 123.048 4.12696C122.377 3.67918 121.593 3.45529 120.697 3.45529C119.802 3.45529 119.018 3.67918 118.346 4.12696C117.675 4.57474 117.339 5.24641 117.339 6.14197C117.339 6.58975 117.451 7.03754 117.675 7.37337C117.899 7.70921 118.123 8.04504 118.458 8.26893C118.794 8.49282 119.13 8.60477 119.578 8.71671C119.914 8.82866 120.362 8.82866 120.809 8.82866C121.033 9.05255 121.369 8.9406 121.817 8.82866Z" fill="#A7A7A7"/>
<path d="M132.565 3.68051V5.35969H138.051V6.81498H132.565V8.82999H138.946V10.2853H130.998V2.11328H138.946V3.56857H132.565V3.68051Z" fill="#A7A7A7"/>
<path d="M144.431 6.81498L142.08 8.94194V10.2853H140.513V2.11328H142.08V6.92693L147.229 2.11328H149.468L145.55 5.69553L149.58 10.2853H147.565L144.431 6.81498Z" fill="#A7A7A7"/>
<path d="M154.394 6.81498L152.043 8.94194V10.2853H150.476V2.11328H152.043V6.92693L157.192 2.11328H159.431L155.513 5.69553L159.543 10.2853H157.528L154.394 6.81498Z" fill="#A7A7A7"/>
<path d="M162.567 10.2839C162.007 10.172 161.447 9.83617 160.999 9.50033C160.552 9.1645 160.104 8.71671 159.768 8.15699C159.432 7.59726 159.32 6.92559 159.32 6.25392C159.32 5.58225 159.432 4.91058 159.768 4.35085C160.104 3.79112 160.44 3.34334 160.888 3.00751C161.335 2.67167 161.895 2.44778 162.455 2.22389C163.015 2 163.686 2 164.246 2C164.806 2 165.477 2.11195 166.037 2.22389C166.597 2.44778 167.156 2.67167 167.604 3.00751C168.052 3.34334 168.5 3.79112 168.724 4.35085C169.06 4.91058 169.171 5.58225 169.171 6.25392C169.171 6.81364 169.06 7.37337 168.836 7.82115C168.612 8.26893 168.388 8.71671 168.052 9.05255C167.716 9.38839 167.38 9.61228 166.933 9.83617C166.485 10.0601 166.037 10.2839 165.589 10.2839C165.253 10.3959 164.806 10.5078 164.358 10.5078C163.686 10.5078 163.126 10.3959 162.567 10.2839ZM165.477 8.82866C165.813 8.71671 166.261 8.60477 166.597 8.38088C166.933 8.15699 167.156 7.9331 167.38 7.48532C167.604 7.14948 167.716 6.7017 167.716 6.14197C167.716 5.24641 167.38 4.57474 166.709 4.12696C166.037 3.67918 165.253 3.45529 164.358 3.45529C163.462 3.45529 162.679 3.67918 162.007 4.12696C161.335 4.57474 160.999 5.24641 160.999 6.14197C160.999 6.58975 161.111 7.03754 161.335 7.37337C161.559 7.70921 161.783 8.04504 162.119 8.26893C162.455 8.49282 162.791 8.60477 163.238 8.71671C163.574 8.82866 164.022 8.82866 164.47 8.82866C164.694 9.05255 165.141 8.9406 165.477 8.82866Z" fill="#A7A7A7"/>
<path d="M4.92559 11.7336C4.03003 11.5097 3.24641 11.1739 2.4628 10.7261C1.79112 10.2783 1.11945 9.60663 0.671671 8.93496C0.22389 8.15134 0 7.25578 0 6.36022C0 5.12882 0.335836 4.12131 1.11945 3.22575C1.90307 2.33019 2.91058 1.65851 4.03003 1.21073C5.14948 0.762953 6.38088 0.539062 7.72422 0.539062C9.06756 0.539062 10.187 0.762953 11.4184 1.21073C12.5379 1.65851 13.5454 2.33019 14.329 3.22575C15.1126 4.12131 15.4484 5.24076 15.4484 6.36022C15.4484 7.25578 15.2246 8.15134 14.7768 8.93496C14.329 9.71857 13.7693 10.2783 12.9856 10.7261C12.202 11.1739 11.4184 11.5097 10.5229 11.7336C9.62729 11.9575 8.73173 12.0694 7.83617 12.0694C6.9406 12.0694 5.82115 12.0694 4.92559 11.7336ZM10.0751 10.95C10.8587 10.7261 11.5304 10.3902 12.202 10.0544C12.8737 9.71857 13.4334 9.15885 13.7693 8.48717C14.217 7.8155 14.329 7.14383 14.329 6.24827C14.329 5.24076 13.9932 4.3452 13.3215 3.56158C12.6498 2.77797 11.7543 2.21824 10.7467 1.88241C9.85118 1.54657 8.84367 1.43462 7.72422 1.43462C6.60477 1.43462 5.48532 1.65851 4.47781 1.99435C3.35836 2.33019 2.57474 2.88991 1.90307 3.67353C1.2314 4.45715 0.895562 5.35271 0.895562 6.36022C0.895562 7.14383 1.11945 7.92745 1.56723 8.59912C2.01501 9.27079 2.4628 9.71857 3.13447 10.1664C3.69419 10.3902 4.47781 10.7261 5.26143 10.95C6.04504 11.1739 6.82866 11.2858 7.72422 11.2858C8.61978 11.2858 9.29145 11.1739 10.0751 10.95ZM6.38088 9.71857C5.82115 9.60663 5.37337 9.38274 4.92559 9.15885C4.47781 8.82301 4.14197 8.48717 3.91808 7.92745C3.69419 7.47967 3.58225 6.91994 3.58225 6.36022C3.58225 5.5766 3.80614 4.90493 4.25392 4.3452C4.7017 3.78547 5.26143 3.33769 5.82115 3.1138C6.38088 2.77797 7.16449 2.66602 7.83617 2.66602C8.50784 2.66602 9.17951 2.77797 9.85118 3.00186C10.5229 3.22575 10.9706 3.56158 11.3065 4.00937L10.4109 5.12882C10.187 4.79298 9.85118 4.56909 9.4034 4.3452C8.95562 4.12131 8.39589 4.00937 7.83617 4.00937C7.05255 4.00937 6.38088 4.23326 5.82115 4.56909C5.26143 5.01687 4.92559 5.5766 4.92559 6.36022C4.92559 7.14383 5.26143 7.70356 5.82115 8.15134C6.38088 8.48718 7.05255 8.71107 7.83617 8.71107C8.95562 8.71107 9.85118 8.37523 10.299 7.70356L11.3065 8.59912C10.9706 9.0469 10.4109 9.38274 9.85118 9.60663C9.17951 9.83052 8.50784 9.94246 7.83617 9.94246C7.38839 9.94246 6.82866 9.94246 6.38088 9.71857Z" fill="#A7A7A7"/>
</svg>
