<svg width="271" height="11" viewBox="0 0 271 11" fill="none" xmlns="http://www.w3.org/2000/svg">
<path d="M11.093 1.58398V9.23432H9.63942V4.03209L6.42628 9.23432H4.6667L1.45356 4.03209V9.23432H0V1.58398H1.68307L5.50824 7.85726L9.33341 1.58398H11.093Z" fill="#A7A7A7"/>
<path d="M19.1285 7.78076H14.3853L13.6202 9.23432H12.0137L15.8388 1.58398H17.6749L21.5001 9.23432H19.8935L19.1285 7.78076ZM18.5165 6.40369L16.8334 3.03755L15.1503 6.40369H18.5165Z" fill="#A7A7A7"/>
<path d="M27.3116 1.66082C27.7706 1.73732 28.2296 1.89033 28.6886 2.04334C29.1476 2.27285 29.5302 2.50236 29.8362 2.73187C30.1422 3.03788 30.3717 3.4204 30.6012 3.80291C30.7542 4.26193 30.9072 4.72095 30.9072 5.33298C30.9072 6.02151 30.7542 6.71004 30.4482 7.24556C30.1422 7.78109 29.7597 8.1636 29.3007 8.46962C28.8416 8.77563 28.3061 9.00514 27.6941 9.08164C27.0821 9.23465 26.47 9.31115 25.7815 9.31115C25.093 9.31115 24.4809 9.31115 23.9454 9.31115C23.4099 9.31115 23.0274 9.31115 22.8744 9.31115H22.5684V1.66082C23.0274 1.58432 24.0984 1.50781 25.705 1.50781C26.2405 1.50781 26.776 1.58432 27.3116 1.66082ZM28.4591 7.32207C29.0711 6.86305 29.3772 6.25102 29.3772 5.33298C29.3772 4.49144 29.0711 3.87942 28.5356 3.4969C27.9236 3.11438 27.0056 2.88487 25.7815 2.88487C25.552 2.88487 25.1695 2.88487 24.787 2.88487C24.4044 2.88487 24.0984 2.88487 24.0219 2.88487V7.85759C24.1749 7.85759 24.4044 7.85759 24.787 7.85759C25.1695 7.85759 25.4755 7.85759 25.7815 7.85759C26.9291 7.93409 27.8471 7.70458 28.4591 7.32207Z" fill="#A7A7A7"/>
<path d="M33.6606 2.96104V4.56761H38.7863V5.94467H33.6606V7.85726H39.6279V9.23432H32.207V1.58398H39.6279V2.96104H33.6606Z" fill="#A7A7A7"/>
<path d="M56.5372 1.58398L53.8596 9.23432H51.947L49.8814 3.19055L47.8158 9.23432H45.9032L43.2256 1.58398H44.7557L46.8212 7.62775L48.9633 1.58398H50.8759L52.9415 7.62775L55.0071 1.58398H56.5372Z" fill="#A7A7A7"/>
<path d="M57.5312 1.58398H58.9848V9.23432H57.5312V1.58398Z" fill="#A7A7A7"/>
<path d="M68.3926 2.96104H64.9499V9.23432H63.4964V2.96104H60.0537V1.58398H68.3926V2.96104Z" fill="#A7A7A7"/>
<path d="M77.8799 1.58398V9.23432H76.4263V5.94467H70.9946V9.23432H69.541V1.58398H70.9946V4.56761H76.4263V1.58398H77.8799Z" fill="#A7A7A7"/>
<path d="M110.393 7.01572C110.393 7.78076 110.087 8.31628 109.475 8.69879C108.863 9.08131 107.945 9.31082 106.721 9.31082C105.803 9.31082 104.961 9.31082 104.12 9.31082C103.278 9.31082 102.666 9.31082 102.284 9.31082H101.748V1.66049C103.202 1.58398 104.808 1.58398 106.568 1.58398C108.863 1.58398 110.01 2.27251 110.01 3.64957C110.01 4.41461 109.704 4.95013 109.016 5.25615C110.01 5.56216 110.393 6.17418 110.393 7.01572ZM108.098 3.11405C107.792 2.96104 107.256 2.88454 106.568 2.88454C106.185 2.88454 105.114 2.88454 103.278 2.88454V4.56761H106.568C107.256 4.56761 107.792 4.49111 108.098 4.3381C108.404 4.1851 108.557 3.95559 108.557 3.64957C108.557 3.42006 108.404 3.26706 108.098 3.11405ZM108.404 7.62775C108.786 7.47474 108.939 7.24523 108.939 6.86272C108.939 6.25069 108.251 5.94467 106.95 5.94467H103.278V7.85726C104.196 7.85726 105.42 7.85726 106.874 7.85726C107.486 7.93376 108.021 7.85726 108.404 7.62775Z" fill="#A7A7A7"/>
<path d="M116.515 6.70938V9.23399H115.061V6.70938L110.624 1.66016H112.46L115.75 5.48532L119.039 1.66016H120.875L116.515 6.70938Z" fill="#A7A7A7"/>
<path d="M126.154 8.77401C125.389 8.39149 124.853 7.85597 124.7 7.24394L126.077 6.63191C126.154 7.01443 126.46 7.39695 126.995 7.62646C127.531 7.85597 128.219 8.00897 129.137 8.00897C130.055 8.00897 130.744 7.93247 131.203 7.77946C131.662 7.62646 131.892 7.39695 131.892 7.09093C131.892 6.86142 131.739 6.63191 131.356 6.47891C130.973 6.3259 130.208 6.17289 129.137 6.01989C127.684 5.79038 126.689 5.48436 126.077 5.17835C125.465 4.79583 125.159 4.26031 125.159 3.64828C125.159 2.95975 125.542 2.42423 126.23 2.04171C126.919 1.6592 127.913 1.42969 129.061 1.42969C130.208 1.42969 131.203 1.58269 131.892 1.96521C132.58 2.34773 133.039 2.88325 133.192 3.49528L131.815 4.18381C131.815 3.26577 130.897 2.80675 129.061 2.80675C128.296 2.80675 127.684 2.88325 127.225 3.03626C126.766 3.18926 126.536 3.41877 126.536 3.64828C126.536 3.87779 126.689 4.0308 127.072 4.18381C127.454 4.33681 128.143 4.48982 129.214 4.64283C130.744 4.87234 131.739 5.17835 132.351 5.48436C132.963 5.86688 133.269 6.4024 133.269 7.09093C133.269 7.85597 132.886 8.39149 132.121 8.77401C131.356 9.15652 130.285 9.38603 128.984 9.38603C127.913 9.38603 126.995 9.15652 126.154 8.77401Z" fill="#A7A7A7"/>
<path d="M142.298 2.96104H138.855V9.23432H137.402V2.96104H133.959V1.58398H142.298V2.96104Z" fill="#A7A7A7"/>
<path d="M145.512 9.00481C144.823 8.7753 144.288 8.31628 143.905 7.78076C143.522 7.24523 143.293 6.6332 143.293 5.86817V1.58398H144.747V5.71517C144.747 6.4037 145.053 7.01572 145.588 7.39824C146.124 7.78076 146.889 8.01026 147.73 8.01026C148.572 8.01026 149.337 7.78076 149.872 7.39824C150.484 7.01572 150.714 6.4037 150.714 5.71517V1.58398H152.167V5.79167C152.167 6.5567 151.938 7.16873 151.555 7.70425C151.096 8.23978 150.561 8.62229 149.949 8.92831C149.26 9.15782 148.572 9.31082 147.73 9.31082C146.889 9.38733 146.2 9.23432 145.512 9.00481Z" fill="#A7A7A7"/>
<path d="M158.669 1.65897C159.128 1.73548 159.587 1.88848 160.046 2.04149C160.505 2.271 160.888 2.50051 161.194 2.73002C161.5 3.03603 161.729 3.34205 161.959 3.80107C162.112 4.26009 162.265 4.71911 162.265 5.33113C162.265 6.01966 162.112 6.70819 161.806 7.24372C161.5 7.77924 161.117 8.16176 160.658 8.46777C160.199 8.77379 159.664 9.00329 159.052 9.0798C158.439 9.2328 157.827 9.30931 157.139 9.30931C156.45 9.30931 155.838 9.30931 155.303 9.30931C154.767 9.30931 154.385 9.30931 154.232 9.30931H153.926V1.65897C154.461 1.58247 155.532 1.58247 157.139 1.58247C157.674 1.50597 158.21 1.58247 158.669 1.65897ZM159.893 7.32022C160.505 6.8612 160.735 6.24917 160.735 5.40764C160.735 4.5661 160.429 3.95407 159.893 3.57156C159.281 3.18904 158.363 2.95953 157.139 2.95953C156.909 2.95953 156.527 2.95953 156.144 2.95953C155.762 2.95953 155.456 2.95953 155.379 2.95953V7.93225C155.532 7.93225 155.762 7.93225 156.144 7.93225C156.527 7.93225 156.833 7.93225 157.139 7.93225C158.363 7.93225 159.281 7.70274 159.893 7.32022Z" fill="#A7A7A7"/>
<path d="M163.643 1.58398H165.096V9.23432H163.643V1.58398Z" fill="#A7A7A7"/>
<path d="M169.455 9.15653C168.919 9.00352 168.46 8.77401 167.925 8.468C167.466 8.16198 167.083 7.77946 166.854 7.24394C166.548 6.70842 166.395 6.09639 166.395 5.40786C166.395 4.79583 166.548 4.18381 166.777 3.64828C167.007 3.11276 167.389 2.73024 167.848 2.34773C168.307 2.04171 168.766 1.8122 169.378 1.6592C169.914 1.50619 170.449 1.42969 171.061 1.42969C171.673 1.42969 172.209 1.50619 172.744 1.6592C173.28 1.8122 173.815 2.04171 174.274 2.34773C174.733 2.65374 175.116 3.11276 175.345 3.64828C175.575 4.18381 175.728 4.71933 175.728 5.40786C175.728 5.94338 175.651 6.47891 175.422 6.93793C175.192 7.39695 174.963 7.77947 174.657 8.08548C174.351 8.39149 173.968 8.621 173.586 8.85051C173.203 9.08002 172.744 9.23303 172.285 9.30953C171.826 9.38604 171.367 9.46254 170.985 9.46254C170.526 9.38603 169.99 9.30953 169.455 9.15653ZM172.209 7.85597C172.591 7.77947 172.897 7.62646 173.203 7.39695C173.509 7.16744 173.739 6.93793 173.968 6.63191C174.121 6.2494 174.274 5.86688 174.274 5.40786C174.274 4.56632 173.968 3.9543 173.356 3.49528C172.744 3.03626 171.979 2.80675 171.138 2.80675C170.296 2.80675 169.531 3.03626 168.919 3.49528C168.307 3.9543 168.001 4.56632 168.001 5.40786C168.001 5.86688 168.078 6.2494 168.307 6.63191C168.46 7.01443 168.766 7.24394 169.072 7.47345C169.378 7.70296 169.761 7.85597 170.067 7.93247C170.449 8.00898 170.755 8.08548 171.214 8.08548C171.52 8.00898 171.903 7.93247 172.209 7.85597Z" fill="#A7A7A7"/>
<path d="M182.002 8.77401C181.237 8.39149 180.702 7.85597 180.549 7.24394L181.926 6.63191C182.002 7.01443 182.308 7.39695 182.844 7.62646C183.379 7.85597 184.068 8.00897 184.986 8.00897C185.904 8.00897 186.593 7.93247 187.052 7.77946C187.511 7.62646 187.74 7.39695 187.74 7.09093C187.74 6.86142 187.587 6.63191 187.205 6.47891C186.822 6.3259 186.057 6.17289 184.986 6.01989C183.532 5.79038 182.538 5.48436 181.926 5.17835C181.314 4.79583 181.008 4.26031 181.008 3.64828C181.008 2.95975 181.39 2.42423 182.079 2.04171C182.767 1.6592 183.762 1.42969 184.91 1.42969C186.057 1.42969 187.052 1.58269 187.74 1.96521C188.429 2.34773 188.888 2.88325 189.041 3.49528L187.664 4.18381C187.664 3.26577 186.746 2.80675 184.91 2.80675C184.144 2.80675 183.532 2.88325 183.073 3.03626C182.614 3.18926 182.385 3.41877 182.385 3.64828C182.385 3.87779 182.538 4.0308 182.92 4.18381C183.303 4.33681 183.991 4.48982 185.063 4.64283C186.593 4.87234 187.587 5.17835 188.199 5.48436C188.811 5.86688 189.117 6.4024 189.117 7.09093C189.117 7.85597 188.735 8.39149 187.97 8.77401C187.205 9.15652 186.134 9.38603 184.833 9.38603C183.762 9.38603 182.767 9.15652 182.002 8.77401Z" fill="#A7A7A7"/>
<path d="M199.828 1.58398V9.23432H198.144L192.177 3.34356V9.23432H190.724V1.58398H192.483L198.45 7.47474V1.58398H199.828Z" fill="#A7A7A7"/>
<path d="M204.264 9.15653C203.729 9.00352 203.27 8.77401 202.734 8.468C202.275 8.16198 201.893 7.77946 201.663 7.24394C201.357 6.70842 201.204 6.09639 201.204 5.40786C201.204 4.79583 201.357 4.18381 201.587 3.64828C201.816 3.11276 202.199 2.73024 202.658 2.34773C203.117 2.04171 203.576 1.8122 204.188 1.6592C204.723 1.50619 205.259 1.42969 205.871 1.42969C206.483 1.42969 207.018 1.50619 207.554 1.6592C208.089 1.8122 208.625 2.04171 209.084 2.34773C209.543 2.65374 209.925 3.11276 210.155 3.64828C210.385 4.18381 210.538 4.71933 210.538 5.40786C210.538 5.94338 210.461 6.47891 210.231 6.93793C210.002 7.39695 209.772 7.77947 209.466 8.08548C209.16 8.39149 208.778 8.621 208.395 8.85051C208.013 9.08002 207.554 9.23303 207.095 9.30953C206.636 9.38604 206.177 9.46254 205.794 9.46254C205.335 9.38603 204.8 9.30953 204.264 9.15653ZM207.018 7.85597C207.401 7.77947 207.707 7.62646 208.013 7.39695C208.319 7.16744 208.548 6.93793 208.778 6.63191C208.931 6.2494 209.084 5.86688 209.084 5.40786C209.084 4.56632 208.778 3.9543 208.166 3.49528C207.554 3.03626 206.789 2.80675 205.947 2.80675C205.106 2.80675 204.341 3.03626 203.729 3.49528C203.04 3.9543 202.734 4.56632 202.734 5.40786C202.734 5.86688 202.811 6.2494 203.04 6.63191C203.193 7.01443 203.499 7.24394 203.805 7.47345C204.111 7.70296 204.494 7.85597 204.8 7.93247C205.182 8.00898 205.488 8.08548 205.947 8.08548C206.253 8.00898 206.636 7.93247 207.018 7.85597Z" fill="#A7A7A7"/>
<path d="M224.307 1.58398L221.629 9.23432H219.717L217.651 3.19055L215.585 9.23432H213.673L210.995 1.58398H212.525L214.591 7.62775L216.656 1.58398H218.569L220.635 7.62775L222.7 1.58398H224.307Z" fill="#A7A7A7"/>
<path d="M229.51 8.77401C228.745 8.39149 228.21 7.85597 228.057 7.24394L229.434 6.63191C229.51 7.01443 229.816 7.39695 230.352 7.62646C230.887 7.85597 231.576 8.00897 232.494 8.00897C233.412 8.00897 234.1 7.93247 234.559 7.77946C235.018 7.62646 235.248 7.39695 235.248 7.09093C235.248 6.86142 235.095 6.63191 234.712 6.47891C234.33 6.3259 233.565 6.17289 232.494 6.01989C231.04 5.79038 230.046 5.48436 229.434 5.17835C228.822 4.79583 228.516 4.26031 228.516 3.64828C228.516 2.95975 228.898 2.42423 229.587 2.04171C230.275 1.6592 231.27 1.42969 232.417 1.42969C233.565 1.42969 234.559 1.58269 235.248 1.96521C235.936 2.34773 236.396 2.88325 236.549 3.49528L235.171 4.18381C235.171 3.26577 234.253 2.80675 232.417 2.80675C231.652 2.80675 231.04 2.88325 230.581 3.03626C230.122 3.18926 229.893 3.41877 229.893 3.64828C229.893 3.87779 230.046 4.0308 230.428 4.18381C230.811 4.33681 231.499 4.48982 232.57 4.64283C234.1 4.87234 235.095 5.17835 235.707 5.48436C236.319 5.86688 236.625 6.4024 236.625 7.09093C236.625 7.85597 236.242 8.39149 235.477 8.77401C234.712 9.15652 233.641 9.38603 232.341 9.38603C231.193 9.38603 230.275 9.15652 229.51 8.77401Z" fill="#A7A7A7"/>
<path d="M246.492 1.58398V9.23432H245.039V5.94467H239.607V9.23432H238.153V1.58398H239.607V4.56761H245.039V1.58398H246.492Z" fill="#A7A7A7"/>
<path d="M250.931 9.15653C250.396 9.00352 249.937 8.77401 249.478 8.468C249.019 8.16198 248.636 7.77946 248.407 7.24394C248.024 6.70842 247.871 6.09639 247.871 5.40786C247.871 4.79583 248.024 4.18381 248.254 3.64828C248.483 3.11276 248.866 2.73024 249.325 2.34773C249.784 2.04171 250.243 1.8122 250.778 1.6592C251.314 1.50619 251.849 1.42969 252.461 1.42969C253.073 1.42969 253.609 1.50619 254.144 1.6592C254.68 1.8122 255.215 2.04171 255.674 2.34773C256.133 2.65374 256.516 3.11276 256.745 3.64828C256.975 4.18381 257.128 4.71933 257.128 5.40786C257.128 5.94338 257.052 6.47891 256.822 6.93793C256.592 7.39695 256.363 7.77947 256.057 8.08548C255.751 8.39149 255.368 8.621 254.986 8.85051C254.603 9.08002 254.144 9.23303 253.685 9.30953C253.226 9.38604 252.767 9.46254 252.385 9.46254C252.002 9.38603 251.467 9.30953 250.931 9.15653ZM253.685 7.85597C254.068 7.77947 254.374 7.62646 254.68 7.39695C254.986 7.16744 255.215 6.93793 255.445 6.63191C255.598 6.2494 255.751 5.86688 255.751 5.40786C255.751 4.56632 255.445 3.9543 254.833 3.49528C254.221 3.03626 253.456 2.80675 252.614 2.80675C251.773 2.80675 250.931 3.03626 250.319 3.49528C249.707 3.9543 249.401 4.56632 249.401 5.40786C249.401 5.86688 249.478 6.2494 249.707 6.63191C249.86 7.01443 250.166 7.24394 250.472 7.47345C250.778 7.70296 251.161 7.85597 251.467 7.93247C251.849 8.00898 252.155 8.08548 252.614 8.08548C253.073 8.08548 253.303 7.93247 253.685 7.85597Z" fill="#A7A7A7"/>
<path d="M270.976 1.58398L268.298 9.23432H266.385L264.32 3.19055L262.254 9.23432H260.342L257.664 1.58398H259.194L261.26 7.62775L263.325 1.58398H265.238L267.303 7.62775L269.369 1.58398H270.976Z" fill="#A7A7A7"/>
<path d="M89.8147 10.8399C91.2683 8.62131 93.8694 7.93278 95.7054 6.2497C99.6836 2.65405 93.5634 -3.16021 89.8147 2.11852C86.066 -3.16021 79.9458 2.73055 83.9239 6.2497C85.76 7.85628 88.3611 8.62131 89.8147 10.8399Z" fill="#A7A7A7"/>
</svg>
