<svg width="78" height="49" viewBox="0 0 78 49" fill="none" xmlns="http://www.w3.org/2000/svg">
<g filter="url(#filter0_d_1096_1069)">
<path d="M26.5315 39.0529L26.5316 39.0529C30.5093 39.9334 34.5548 40.4038 38.665 40.4H38.6655C42.7688 40.4 46.8108 39.9333 50.7921 39.0529C54.7763 38.1719 58.484 36.9419 61.7933 35.3096C65.076 33.6904 67.7037 31.5551 69.7561 28.9615C71.7237 26.3903 72.7273 23.616 72.7273 20.5C72.7273 16.4861 71.0389 12.9654 67.6501 9.8617C64.2341 6.73313 59.9694 4.40248 54.9032 2.884C49.7538 1.36086 44.3446 0.6 38.6655 0.6C32.9856 0.6 27.573 1.36109 22.4926 2.88372L22.4905 2.88434C17.3573 4.40279 13.0931 6.73323 9.67743 9.86145L26.5315 39.0529ZM26.5315 39.0529C22.5495 38.1724 18.9089 36.9428 15.5978 35.3096C12.3082 33.687 9.61725 31.5504 7.63805 28.9655L7.63811 28.9655M26.5315 39.0529L7.63811 28.9655M7.63811 28.9655L7.63223 28.958M7.63811 28.9655L7.63223 28.958M7.63223 28.958C5.60038 26.3894 4.6 23.6171 4.6 20.5C4.6 16.4903 6.28818 12.9694 9.67717 9.8617L9.27192 9.41923C5.77984 12.6214 4 16.2955 4 20.5C4 23.7606 5.05139 26.6625 7.16166 29.3303C9.20434 31.9981 11.9717 34.19 15.3324 35.8477C18.693 37.5053 22.3804 38.7495 26.4019 39.6388C30.4197 40.528 34.5088 41.0039 38.6655 41L7.63223 28.958Z" fill="white" stroke="#D23A3D" stroke-width="1.2"/>
<path d="M46.1478 17.2661C48.5398 19.167 52.0507 20.1175 56.6419 20.1175V20.8779C52.0507 20.8779 48.5398 21.8284 46.1478 23.7293C43.7557 25.6303 42.5469 28.4057 42.5469 32.0556H41.7752C41.7752 26.2006 44.6303 22.4747 50.3403 20.8779H20.6841V20.1175H50.3146C44.6045 18.5207 41.7495 14.7948 41.7495 8.93982H42.5469C42.5469 12.5897 43.7172 15.3651 46.1478 17.2661Z" fill="#D23A3D" stroke="#D23A3D" stroke-width="1.2"/>
</g>
<defs>
<filter id="filter0_d_1096_1069" x="0" y="0" width="77.3271" height="49" filterUnits="userSpaceOnUse" color-interpolation-filters="sRGB">
<feFlood flood-opacity="0" result="BackgroundImageFix"/>
<feColorMatrix in="SourceAlpha" type="matrix" values="0 0 0 0 0 0 0 0 0 0 0 0 0 0 0 0 0 0 127 0" result="hardAlpha"/>
<feOffset dy="4"/>
<feGaussianBlur stdDeviation="2"/>
<feComposite in2="hardAlpha" operator="out"/>
<feColorMatrix type="matrix" values="0 0 0 0 0 0 0 0 0 0 0 0 0 0 0 0 0 0 0.25 0"/>
<feBlend mode="normal" in2="BackgroundImageFix" result="effect1_dropShadow_1096_1069"/>
<feBlend mode="normal" in="SourceGraphic" in2="effect1_dropShadow_1096_1069" result="shape"/>
</filter>
</defs>
</svg>
