<?xml version="1.0" encoding="utf-8"?>
<!-- Generator: Adobe Illustrator 26.0.3, SVG Export Plug-In . SVG Version: 6.00 Build 0)  -->
<svg version="1.1" id="Layer_1" xmlns="http://www.w3.org/2000/svg" xmlns:xlink="http://www.w3.org/1999/xlink" x="0px" y="0px"
	 viewBox="0 0 87 52" style="enable-background:new 0 0 87 52;" xml:space="preserve">
<style type="text/css">
	.st0{fill:#D23A3D;}
</style>
<g>
	<path class="st0" d="M80.4,11.8c-4.4-4-9.8-7-16.3-8.9C57.6,1,50.7,0,43.5,0C36.3,0,29.4,1,23,2.9l0,0c-6.2,1.9-11.6,4.7-15.8,8.5
		l0,0l-0.5,0.4c-0.1,0.1-0.1,0.1-0.2,0.2l-0.1,0.1l0,0C2.1,16.1,0,20.7,0,25.7c0,4.1,1.3,7.7,4,11.1l0,0c2.5,3.3,6,6.1,10.3,8.2
		c4.2,2.1,8.7,3.6,13.9,4.8c5.1,1.1,10.3,1.7,15.3,1.7c0,0,0,0,0.1,0c5.1,0,10.3-0.6,15.4-1.7c5.2-1.2,9.9-2.8,14-4.8
		c4.1-2,7.6-4.8,10.3-8.2c2.6-3.4,3.9-7,3.9-11.1C87,20.5,84.8,15.8,80.4,11.8z M7.1,12.3l0.3,0.4L7.1,12.3L7.1,12.3z M82.2,36.1
		c-2.6,3.3-5.9,5.9-9.8,7.8c-4,2-8.6,3.5-13.7,4.7c-5,1.1-10.1,1.7-15.1,1.7c0,0,0,0-0.1,0c-5,0-10-0.6-15.1-1.7
		c-5.1-1.1-9.5-2.6-13.6-4.7c-4.1-2-7.4-4.7-9.8-7.8l-0.4,0.3h0l0.4-0.3c-2.5-3.2-3.7-6.5-3.7-10.3c0-4.9,2-9.2,6.2-13h0
		C11.7,8.8,17,5.9,23.3,4l0.1,0c6.3-1.9,13.1-2.8,20.1-2.8c7,0,13.9,1,20.2,2.8c6.3,1.9,11.6,4.8,15.8,8.7c4.2,3.8,6.2,8.1,6.2,13
		C85.8,29.5,84.6,32.9,82.2,36.1z"/>
	<path class="st0" d="M53.3,21.2L53.3,21.2c-2.9-2.3-4.3-5.5-4.3-10v-0.6h-2.2v0.6c0,6.4,2.7,10.9,8,13.4H20.3v2.2h34.4
		c-5.3,2.5-8,7-8,13.4v0.6H49v-0.6c0-4.4,1.4-7.7,4.3-10c2.9-2.3,7.2-3.4,12.8-3.4h0.6v-2.2h-0.6C60.4,24.6,56.1,23.5,53.3,21.2z"/>
</g>
</svg>
