<svg width="271" height="11" viewBox="0 0 271 11" fill="none" xmlns="http://www.w3.org/2000/svg">
<path d="M11.093 1.58301V9.23334H9.63942V4.03112L6.42628 9.23334H4.6667L1.45356 4.03112V9.23334H0V1.58301H1.68307L5.50824 7.85628L9.33341 1.58301H11.093Z" fill="#A7A7A7"/>
<path d="M19.1304 7.77978H14.3872L13.6222 9.23334H12.0156L15.8408 1.58301H17.6769L21.502 9.23334H19.8955L19.1304 7.77978ZM18.5184 6.40272L16.8353 3.03657L15.1523 6.40272H18.5184Z" fill="#A7A7A7"/>
<path d="M27.3096 1.65887C27.7686 1.73537 28.2277 1.88838 28.6867 2.04138C29.1457 2.27089 29.5282 2.5004 29.8342 2.72991C30.1402 3.03593 30.3697 3.41844 30.5993 3.80096C30.7523 4.25998 30.9053 4.719 30.9053 5.33103C30.9053 6.01956 30.7523 6.70809 30.4463 7.24361C30.1402 7.77913 29.7577 8.16165 29.2987 8.46766C28.8397 8.77368 28.3042 9.00319 27.6921 9.07969C27.0801 9.2327 26.4681 9.3092 25.7795 9.3092C25.091 9.3092 24.479 9.3092 23.9435 9.3092C23.4079 9.3092 23.0254 9.3092 22.8724 9.3092H22.5664V1.65887C23.0254 1.58236 24.0965 1.50586 25.703 1.50586C26.2386 1.50586 26.7741 1.58236 27.3096 1.65887ZM28.4572 7.32011C29.0692 6.86109 29.3752 6.24907 29.3752 5.33103C29.3752 4.48949 29.0692 3.87746 28.5337 3.49495C27.9216 3.11243 27.0036 2.88292 25.7795 2.88292C25.55 2.88292 25.1675 2.88292 24.785 2.88292C24.4025 2.88292 24.0965 2.88292 24.02 2.88292V7.85564C24.173 7.85564 24.4025 7.85564 24.785 7.85564C25.1675 7.85564 25.4735 7.85564 25.7795 7.85564C26.9271 7.93214 27.8451 7.70263 28.4572 7.32011Z" fill="#A7A7A7"/>
<path d="M33.6606 2.96007V4.56664H38.7863V5.9437H33.6606V7.85628H39.6279V9.23334H32.207V1.58301H39.6279V2.96007H33.6606Z" fill="#A7A7A7"/>
<path d="M56.5381 1.58301L53.8605 9.23334H51.9479L49.8824 3.18958L47.8168 9.23334H45.9042L43.2266 1.58301H44.7566L46.8222 7.62677L48.9643 1.58301H50.8769L52.9425 7.62677L55.0081 1.58301H56.5381Z" fill="#A7A7A7"/>
<path d="M57.5312 1.58301H58.9848V9.23334H57.5312V1.58301Z" fill="#A7A7A7"/>
<path d="M68.3936 2.96007H64.9509V9.23334H63.4973V2.96007H60.0547V1.58301H68.3936V2.96007Z" fill="#A7A7A7"/>
<path d="M77.8779 1.58301V9.23334H76.4244V5.9437H70.9926V9.23334H69.5391V1.58301H70.9926V4.56664H76.4244V1.58301H77.8779Z" fill="#A7A7A7"/>
<path d="M110.395 7.01475C110.395 7.77978 110.089 8.3153 109.477 8.69782C108.865 9.08033 107.947 9.30985 106.723 9.30985C105.805 9.30985 104.963 9.30985 104.122 9.30985C103.28 9.30985 102.668 9.30985 102.286 9.30985H101.75V1.65951C103.204 1.58301 104.81 1.58301 106.57 1.58301C108.865 1.58301 110.012 2.27154 110.012 3.6486C110.012 4.41363 109.706 4.94916 109.018 5.25517C110.012 5.56118 110.395 6.17321 110.395 7.01475ZM108.1 3.11307C107.794 2.96007 107.258 2.88356 106.57 2.88356C106.187 2.88356 105.116 2.88356 103.28 2.88356V4.56664H106.57C107.258 4.56664 107.794 4.49013 108.1 4.33713C108.406 4.18412 108.559 3.95461 108.559 3.6486C108.559 3.41909 108.406 3.26608 108.1 3.11307ZM108.406 7.62677C108.788 7.47377 108.941 7.24426 108.941 6.86174C108.941 6.24971 108.253 5.9437 106.952 5.9437H103.28V7.85628C104.198 7.85628 105.422 7.85628 106.876 7.85628C107.488 7.93279 108.023 7.85628 108.406 7.62677Z" fill="#A7A7A7"/>
<path d="M116.516 6.70742V9.23203H115.062V6.70742L110.625 1.6582H112.461L115.751 5.48337L119.04 1.6582H120.876L116.516 6.70742Z" fill="#A7A7A7"/>
<path d="M126.153 8.77303C125.388 8.39051 124.852 7.85499 124.699 7.24296L126.076 6.63094C126.153 7.01345 126.459 7.39597 126.994 7.62548C127.53 7.85499 128.218 8.008 129.136 8.008C130.054 8.008 130.743 7.93149 131.202 7.77849C131.661 7.62548 131.891 7.39597 131.891 7.08996C131.891 6.86045 131.738 6.63094 131.355 6.47793C130.972 6.32492 130.207 6.17192 129.136 6.01891C127.683 5.7894 126.688 5.48339 126.076 5.17737C125.464 4.79486 125.158 4.25933 125.158 3.64731C125.158 2.95878 125.541 2.42325 126.229 2.04074C126.918 1.65822 127.912 1.42871 129.06 1.42871C130.207 1.42871 131.202 1.58172 131.891 1.96423C132.579 2.34675 133.038 2.88227 133.191 3.4943L131.814 4.18283C131.814 3.26479 130.896 2.80577 129.06 2.80577C128.295 2.80577 127.683 2.88227 127.224 3.03528C126.765 3.18829 126.535 3.4178 126.535 3.64731C126.535 3.87682 126.688 4.02982 127.071 4.18283C127.453 4.33584 128.142 4.48884 129.213 4.64185C130.743 4.87136 131.738 5.17737 132.35 5.48339C132.962 5.8659 133.268 6.40143 133.268 7.08996C133.268 7.85499 132.885 8.39051 132.12 8.77303C131.355 9.15555 130.284 9.38506 128.983 9.38506C127.912 9.38506 126.994 9.15555 126.153 8.77303Z" fill="#A7A7A7"/>
<path d="M142.3 2.96007H138.857V9.23334H137.404V2.96007H133.961V1.58301H142.3V2.96007Z" fill="#A7A7A7"/>
<path d="M145.512 9.00383C144.823 8.77432 144.288 8.3153 143.905 7.77978C143.522 7.24426 143.293 6.63223 143.293 5.8672V1.58301H144.747V5.71419C144.747 6.40272 145.053 7.01475 145.588 7.39726C146.124 7.77978 146.889 8.00929 147.73 8.00929C148.572 8.00929 149.337 7.77978 149.872 7.39726C150.484 7.01475 150.714 6.40272 150.714 5.71419V1.58301H152.167V5.79069C152.167 6.55573 151.938 7.16775 151.555 7.70328C151.096 8.2388 150.561 8.62132 149.949 8.92733C149.26 9.15684 148.572 9.30985 147.73 9.30985C146.889 9.38635 146.2 9.23334 145.512 9.00383Z" fill="#A7A7A7"/>
<path d="M158.669 1.658C159.128 1.7345 159.587 1.88751 160.046 2.04051C160.505 2.27002 160.888 2.49953 161.194 2.72904C161.5 3.03506 161.729 3.34107 161.959 3.80009C162.112 4.25911 162.265 4.71813 162.265 5.33016C162.265 6.01869 162.112 6.70722 161.806 7.24274C161.5 7.77826 161.117 8.16078 160.658 8.46679C160.199 8.77281 159.664 9.00232 159.052 9.07882C158.439 9.23183 157.827 9.30833 157.139 9.30833C156.45 9.30833 155.838 9.30833 155.303 9.30833C154.767 9.30833 154.385 9.30833 154.232 9.30833H153.926V1.658C154.461 1.58149 155.532 1.58149 157.139 1.58149C157.674 1.50499 158.21 1.58149 158.669 1.658ZM159.893 7.31924C160.505 6.86022 160.735 6.2482 160.735 5.40666C160.735 4.56512 160.429 3.9531 159.893 3.57058C159.281 3.18806 158.363 2.95855 157.139 2.95855C156.909 2.95855 156.527 2.95855 156.144 2.95855C155.762 2.95855 155.456 2.95855 155.379 2.95855V7.93127C155.532 7.93127 155.762 7.93127 156.144 7.93127C156.527 7.93127 156.833 7.93127 157.139 7.93127C158.363 7.93127 159.281 7.70176 159.893 7.31924Z" fill="#A7A7A7"/>
<path d="M163.641 1.58301H165.094V9.23334H163.641V1.58301Z" fill="#A7A7A7"/>
<path d="M169.455 9.15555C168.919 9.00254 168.46 8.77303 167.925 8.46702C167.466 8.16101 167.083 7.77849 166.854 7.24296C166.548 6.70744 166.395 6.09541 166.395 5.40688C166.395 4.79486 166.548 4.18283 166.777 3.64731C167.007 3.11178 167.389 2.72927 167.848 2.34675C168.307 2.04074 168.766 1.81123 169.378 1.65822C169.914 1.50521 170.449 1.42871 171.061 1.42871C171.673 1.42871 172.209 1.50521 172.744 1.65822C173.28 1.81123 173.815 2.04074 174.274 2.34675C174.733 2.65276 175.116 3.11178 175.345 3.64731C175.575 4.18283 175.728 4.71835 175.728 5.40688C175.728 5.94241 175.651 6.47793 175.422 6.93695C175.192 7.39597 174.963 7.77849 174.657 8.0845C174.351 8.39052 173.968 8.62003 173.586 8.84954C173.203 9.07905 172.744 9.23205 172.285 9.30856C171.826 9.38506 171.367 9.46156 170.985 9.46156C170.526 9.38506 169.99 9.30856 169.455 9.15555ZM172.209 7.85499C172.591 7.77849 172.897 7.62548 173.203 7.39597C173.509 7.16646 173.739 6.93695 173.968 6.63094C174.121 6.24842 174.274 5.8659 174.274 5.40688C174.274 4.56535 173.968 3.95332 173.356 3.4943C172.744 3.03528 171.979 2.80577 171.138 2.80577C170.296 2.80577 169.531 3.03528 168.919 3.4943C168.307 3.95332 168.001 4.56535 168.001 5.40688C168.001 5.8659 168.078 6.24842 168.307 6.63094C168.46 7.01345 168.766 7.24297 169.072 7.47248C169.378 7.70198 169.761 7.85499 170.067 7.9315C170.449 8.008 170.755 8.0845 171.214 8.0845C171.52 8.008 171.903 7.9315 172.209 7.85499Z" fill="#A7A7A7"/>
<path d="M182 8.77303C181.235 8.39051 180.7 7.85499 180.547 7.24296L181.924 6.63094C182 7.01345 182.306 7.39597 182.842 7.62548C183.377 7.85499 184.066 8.008 184.984 8.008C185.902 8.008 186.591 7.93149 187.05 7.77849C187.509 7.62548 187.738 7.39597 187.738 7.08996C187.738 6.86045 187.585 6.63094 187.203 6.47793C186.82 6.32492 186.055 6.17192 184.984 6.01891C183.531 5.7894 182.536 5.48339 181.924 5.17737C181.312 4.79486 181.006 4.25933 181.006 3.64731C181.006 2.95878 181.388 2.42325 182.077 2.04074C182.765 1.65822 183.76 1.42871 184.908 1.42871C186.055 1.42871 187.05 1.58172 187.738 1.96423C188.427 2.34675 188.886 2.88227 189.039 3.4943L187.662 4.18283C187.662 3.26479 186.744 2.80577 184.908 2.80577C184.143 2.80577 183.531 2.88227 183.071 3.03528C182.612 3.18829 182.383 3.4178 182.383 3.64731C182.383 3.87682 182.536 4.02982 182.918 4.18283C183.301 4.33584 183.99 4.48884 185.061 4.64185C186.591 4.87136 187.585 5.17737 188.197 5.48339C188.809 5.8659 189.115 6.40143 189.115 7.08996C189.115 7.85499 188.733 8.39051 187.968 8.77303C187.203 9.15555 186.132 9.38506 184.831 9.38506C183.76 9.38506 182.765 9.15555 182 8.77303Z" fill="#A7A7A7"/>
<path d="M199.827 1.58301V9.23334H198.143L192.176 3.34258V9.23334H190.723V1.58301H192.482L198.449 7.47377V1.58301H199.827Z" fill="#A7A7A7"/>
<path d="M204.263 9.15555C203.728 9.00254 203.269 8.77303 202.733 8.46702C202.274 8.16101 201.892 7.77849 201.662 7.24296C201.356 6.70744 201.203 6.09541 201.203 5.40688C201.203 4.79486 201.356 4.18283 201.586 3.64731C201.815 3.11178 202.198 2.72927 202.657 2.34675C203.116 2.04074 203.575 1.81123 204.187 1.65822C204.722 1.50521 205.258 1.42871 205.87 1.42871C206.482 1.42871 207.017 1.50521 207.553 1.65822C208.088 1.81123 208.624 2.04074 209.083 2.34675C209.542 2.65276 209.925 3.11178 210.154 3.64731C210.384 4.18283 210.537 4.71835 210.537 5.40688C210.537 5.94241 210.46 6.47793 210.231 6.93695C210.001 7.39597 209.771 7.77849 209.465 8.0845C209.159 8.39052 208.777 8.62003 208.394 8.84954C208.012 9.07905 207.553 9.23205 207.094 9.30856C206.635 9.38506 206.176 9.46156 205.793 9.46156C205.334 9.38506 204.799 9.30856 204.263 9.15555ZM207.017 7.85499C207.4 7.77849 207.706 7.62548 208.012 7.39597C208.318 7.16646 208.547 6.93695 208.777 6.63094C208.93 6.24842 209.083 5.8659 209.083 5.40688C209.083 4.56535 208.777 3.95332 208.165 3.4943C207.553 3.03528 206.788 2.80577 205.946 2.80577C205.105 2.80577 204.34 3.03528 203.728 3.4943C203.039 3.95332 202.733 4.56535 202.733 5.40688C202.733 5.8659 202.81 6.24842 203.039 6.63094C203.192 7.01345 203.498 7.24297 203.804 7.47248C204.11 7.70198 204.493 7.85499 204.799 7.9315C205.181 8.008 205.487 8.0845 205.946 8.0845C206.252 8.008 206.635 7.9315 207.017 7.85499Z" fill="#A7A7A7"/>
<path d="M224.308 1.58301L221.63 9.23334H219.717L217.652 3.18958L215.586 9.23334H213.674L210.996 1.58301H212.526L214.592 7.62677L216.657 1.58301H218.57L220.636 7.62677L222.701 1.58301H224.308Z" fill="#A7A7A7"/>
<path d="M229.512 8.77303C228.747 8.39051 228.212 7.85499 228.059 7.24296L229.436 6.63094C229.512 7.01345 229.818 7.39597 230.354 7.62548C230.889 7.85499 231.578 8.008 232.496 8.008C233.414 8.008 234.102 7.93149 234.561 7.77849C235.02 7.62548 235.25 7.39597 235.25 7.08996C235.25 6.86045 235.097 6.63094 234.714 6.47793C234.332 6.32492 233.567 6.17192 232.496 6.01891C231.042 5.7894 230.048 5.48339 229.436 5.17737C228.824 4.79486 228.518 4.25933 228.518 3.64731C228.518 2.95878 228.9 2.42325 229.589 2.04074C230.277 1.65822 231.272 1.42871 232.419 1.42871C233.567 1.42871 234.561 1.58172 235.25 1.96423C235.938 2.34675 236.397 2.88227 236.55 3.4943L235.173 4.18283C235.173 3.26479 234.255 2.80577 232.419 2.80577C231.654 2.80577 231.042 2.88227 230.583 3.03528C230.124 3.18829 229.895 3.4178 229.895 3.64731C229.895 3.87682 230.048 4.02982 230.43 4.18283C230.813 4.33584 231.501 4.48884 232.572 4.64185C234.102 4.87136 235.097 5.17737 235.709 5.48339C236.321 5.8659 236.627 6.40143 236.627 7.08996C236.627 7.85499 236.244 8.39051 235.479 8.77303C234.714 9.15555 233.643 9.38506 232.343 9.38506C231.195 9.38506 230.277 9.15555 229.512 8.77303Z" fill="#A7A7A7"/>
<path d="M246.491 1.58301V9.23334H245.038V5.9437H239.606V9.23334H238.152V1.58301H239.606V4.56664H245.038V1.58301H246.491Z" fill="#A7A7A7"/>
<path d="M250.931 9.15555C250.396 9.00254 249.937 8.77303 249.478 8.46702C249.019 8.16101 248.636 7.77849 248.407 7.24296C248.024 6.70744 247.871 6.09541 247.871 5.40688C247.871 4.79486 248.024 4.18283 248.254 3.64731C248.483 3.11178 248.866 2.72927 249.325 2.34675C249.784 2.04074 250.243 1.81123 250.778 1.65822C251.314 1.50521 251.849 1.42871 252.461 1.42871C253.073 1.42871 253.609 1.50521 254.144 1.65822C254.68 1.81123 255.215 2.04074 255.674 2.34675C256.133 2.65276 256.516 3.11178 256.745 3.64731C256.975 4.18283 257.128 4.71835 257.128 5.40688C257.128 5.94241 257.052 6.47793 256.822 6.93695C256.592 7.39597 256.363 7.77849 256.057 8.0845C255.751 8.39052 255.368 8.62003 254.986 8.84954C254.603 9.07905 254.144 9.23205 253.685 9.30856C253.226 9.38506 252.767 9.46156 252.385 9.46156C252.002 9.38506 251.467 9.30856 250.931 9.15555ZM253.685 7.85499C254.068 7.77849 254.374 7.62548 254.68 7.39597C254.986 7.16646 255.215 6.93695 255.445 6.63094C255.598 6.24842 255.751 5.8659 255.751 5.40688C255.751 4.56535 255.445 3.95332 254.833 3.4943C254.221 3.03528 253.456 2.80577 252.614 2.80577C251.773 2.80577 250.931 3.03528 250.319 3.4943C249.707 3.95332 249.401 4.56535 249.401 5.40688C249.401 5.8659 249.478 6.24842 249.707 6.63094C249.86 7.01345 250.166 7.24297 250.472 7.47248C250.778 7.70198 251.161 7.85499 251.467 7.9315C251.849 8.008 252.155 8.0845 252.614 8.0845C253.073 8.0845 253.303 7.9315 253.685 7.85499Z" fill="#A7A7A7"/>
<path d="M270.976 1.58301L268.298 9.23334H266.385L264.32 3.18958L262.254 9.23334H260.342L257.664 1.58301H259.194L261.26 7.62677L263.325 1.58301H265.238L267.303 7.62677L269.369 1.58301H270.976Z" fill="#A7A7A7"/>
<path d="M89.8137 10.8399C91.2673 8.62131 93.8684 7.93278 95.7045 6.2497C99.6826 2.65405 93.5624 -3.16021 89.8137 2.11852C86.065 -3.16021 79.9448 2.73055 83.923 6.2497C85.759 7.85628 88.3601 8.62131 89.8137 10.8399Z" fill="#A7A7A7"/>
</svg>
