<svg width="164" height="12" viewBox="0 0 164 12" fill="none" xmlns="http://www.w3.org/2000/svg">
<path d="M30.0001 6.49395C29.2165 7.16562 27.8732 7.83729 26.082 8.39702H31.0076V9.85231H22.6117L22.3879 8.39702C23.7312 7.94924 24.8506 7.6134 25.8582 7.16562C26.8657 6.71784 27.6493 6.382 28.0971 6.04617C28.6568 5.71033 28.9926 5.3745 29.3285 5.15061C29.5523 4.92672 29.6643 4.59088 29.6643 4.47894C29.6643 4.1431 29.4404 3.80726 28.8807 3.47143C28.3209 3.13559 27.6493 3.02365 26.7537 3.02365C25.8582 3.02365 25.0745 3.13559 24.4029 3.47143C23.7312 3.80726 23.5073 4.1431 23.5073 4.59088C23.5073 4.81477 23.7312 5.15061 24.067 5.48644L23.1715 6.71784C22.2759 6.15811 21.8281 5.48644 21.8281 4.70283C21.8281 3.80726 22.2759 3.13559 23.2834 2.46392C24.179 1.9042 25.4104 1.56836 26.7537 1.56836C27.9851 1.56836 29.1046 1.79225 30.0001 2.35198C30.8957 2.9117 31.3435 3.58337 31.3435 4.47894C31.2315 5.15061 30.8957 5.93422 30.0001 6.49395Z" fill="#A7A7A7"/>
<path d="M35.598 9.85035C35.0382 9.73841 34.4785 9.40257 34.0307 9.06674C33.583 8.7309 33.1352 8.28312 32.7993 7.72339C32.4635 7.16367 32.3516 6.492 32.3516 5.82032C32.3516 5.14865 32.4635 4.47698 32.7993 3.91726C33.1352 3.35753 33.471 2.90975 33.9188 2.57391C34.3666 2.23808 34.9263 2.01419 35.486 1.7903C36.0458 1.56641 36.7174 1.56641 37.2772 1.56641C37.9488 1.56641 38.5086 1.67835 39.0683 1.7903C39.628 2.01419 40.1877 2.23808 40.6355 2.57391C41.0833 2.90975 41.5311 3.35753 41.755 3.91726C42.0908 4.47698 42.2027 5.14865 42.2027 5.82032C42.2027 6.38005 42.0908 6.93978 41.8669 7.38756C41.643 7.83534 41.4191 8.28312 41.0833 8.61896C40.7475 8.95479 40.4116 9.17868 39.9638 9.40257C39.5161 9.62646 39.0683 9.85035 38.6205 9.85035C38.2847 9.9623 37.8369 10.0742 37.2772 10.0742C36.7174 10.0742 36.1577 9.9623 35.598 9.85035ZM38.5086 8.39507C38.8444 8.28312 39.2922 8.17118 39.628 7.94728C39.9638 7.72339 40.1877 7.4995 40.4116 7.05172C40.6355 6.71589 40.7475 6.26811 40.7475 5.70838C40.7475 5.03671 40.5236 4.58893 40.1877 4.14115C39.8519 3.69337 39.4041 3.35753 38.9563 3.24558C38.5086 3.02169 37.9488 3.02169 37.3891 3.02169C36.8294 3.02169 36.2696 3.13364 35.8219 3.24558C35.3741 3.46948 34.9263 3.69337 34.5905 4.14115C34.2546 4.58893 34.0307 5.14865 34.0307 5.70838C34.0307 6.15616 34.1427 6.60394 34.3666 7.05172C34.5905 7.38756 34.8144 7.72339 35.1502 7.94728C35.486 8.17118 35.8219 8.28312 36.2696 8.39507C36.6055 8.50701 37.0533 8.50701 37.501 8.50701C37.7249 8.61896 38.1727 8.50701 38.5086 8.39507Z" fill="#A7A7A7"/>
<path d="M51.4949 6.492C50.7113 7.16367 49.3679 7.83534 47.5768 8.39507H52.5024V9.85035H44.1065L43.7707 8.39507C45.114 7.94728 46.2335 7.61145 47.241 7.16367C48.2485 6.71589 49.0321 6.38005 49.4799 6.04422C50.0396 5.70838 50.3754 5.37254 50.7113 5.14865C50.9352 4.92476 51.0471 4.58893 51.0471 4.47698C51.0471 4.14115 50.8232 3.80531 50.2635 3.46948C49.7038 3.13364 49.0321 3.02169 48.1365 3.02169C47.241 3.02169 46.4574 3.13364 45.7857 3.46948C45.114 3.80531 44.8901 4.14115 44.8901 4.58893C44.8901 4.81282 45.114 5.14865 45.4498 5.48449L44.5543 6.71589C43.6587 6.15616 43.2109 5.48449 43.2109 4.70087C43.2109 3.80531 43.6587 3.13364 44.6662 2.46197C45.5618 1.90224 46.7932 1.56641 48.1365 1.56641C49.3679 1.56641 50.4874 1.7903 51.3829 2.35002C52.2785 2.90975 52.7263 3.58142 52.7263 4.47698C52.7263 5.14865 52.2785 5.93227 51.4949 6.492Z" fill="#A7A7A7"/>
<path d="M60.0019 1.67871V9.85071H58.4346V4.70123C57.4271 5.82068 55.9718 6.6043 54.0688 6.94014L53.2852 5.3729C54.7404 5.26096 55.8599 4.81318 56.8674 4.25345C57.763 3.58178 58.3227 2.79816 58.4346 1.79066H60.0019V1.67871Z" fill="#A7A7A7"/>
<path d="M67.1649 9.40257C66.3813 8.95479 65.8215 8.39507 65.5977 7.72339L67.0529 7.05172C67.1649 7.4995 67.5007 7.83534 68.0605 8.05923C68.6202 8.39507 69.4038 8.50701 70.4113 8.50701C71.3069 8.50701 72.0905 8.39507 72.6502 8.28312C73.2099 8.17118 73.4338 7.83534 73.4338 7.4995C73.4338 7.27561 73.2099 7.05172 72.8741 6.82783C72.4263 6.71589 71.6427 6.492 70.5232 6.38005C68.956 6.15616 67.8366 5.82033 67.2768 5.48449C66.3813 5.14865 66.0454 4.58893 66.0454 3.80531C66.0454 3.13364 66.4932 2.57391 67.2768 2.12613C68.0605 1.67835 69.068 1.56641 70.2994 1.56641C71.5308 1.56641 72.5383 1.7903 73.3219 2.12613C74.1055 2.57391 74.5533 3.02169 74.7772 3.80531L73.2099 4.47698C73.2099 3.46948 72.2024 3.02169 70.2994 3.02169C69.4038 3.02169 68.8441 3.13364 68.2843 3.24559C67.8366 3.46948 67.5007 3.69337 67.5007 3.91726C67.5007 4.14115 67.7246 4.36504 68.0605 4.47698C68.5082 4.58893 69.1799 4.81282 70.4113 4.92476C71.9785 5.14865 73.098 5.48449 73.7697 5.82033C74.4413 6.15616 74.7772 6.71589 74.7772 7.4995C74.7772 8.28312 74.3294 8.95479 73.5458 9.29063C72.7621 9.73841 71.6427 9.9623 70.1874 9.9623C69.068 10.0742 68.0605 9.85035 67.1649 9.40257Z" fill="#A7A7A7"/>
<path d="M84.5181 3.24594H80.8239V9.96266H79.2567V3.24594H75.5625V1.67871H84.5181V3.24594Z" fill="#A7A7A7"/>
<path d="M87.9901 9.62682C87.2065 9.40293 86.6468 8.95515 86.199 8.28348C85.7512 7.72375 85.5273 7.05208 85.5273 6.26847V1.67871H87.0946V6.04457C87.0946 6.82819 87.4304 7.38792 87.9901 7.8357C88.5499 8.28348 89.3335 8.50737 90.229 8.50737C91.1246 8.50737 91.9082 8.28348 92.5799 7.8357C93.1396 7.38792 93.4755 6.82819 93.4755 6.04457V1.67871H95.1546V6.26847C95.1546 7.05208 94.9307 7.72375 94.483 8.28348C94.0352 8.95515 93.3635 9.40293 92.6918 9.62682C92.0202 9.96266 91.2365 10.0746 90.341 10.0746C89.4454 10.0746 88.6618 9.96266 87.9901 9.62682Z" fill="#A7A7A7"/>
<path d="M102.093 1.7903C102.653 1.90224 103.101 2.01419 103.549 2.23808C103.997 2.46197 104.444 2.68586 104.78 3.02169C105.116 3.35753 105.34 3.69337 105.564 4.14115C105.788 4.58893 105.9 5.14865 105.9 5.70838C105.9 6.492 105.788 7.16367 105.452 7.72339C105.116 8.28312 104.78 8.7309 104.22 9.06674C103.661 9.40257 103.101 9.62646 102.429 9.73841C101.758 9.85035 101.086 9.9623 100.302 9.9623C99.5187 9.9623 98.847 9.9623 98.2873 9.9623C97.7276 9.9623 97.2798 9.9623 97.1679 9.9623H96.832V1.67835C97.3918 1.67835 98.6232 1.56641 100.302 1.56641C100.974 1.67835 101.534 1.67835 102.093 1.7903ZM103.325 7.83534C103.997 7.38756 104.22 6.71589 104.22 5.70838C104.22 4.81282 103.885 4.14115 103.325 3.69337C102.653 3.24558 101.758 3.02169 100.302 3.02169C99.9665 3.02169 99.6307 3.02169 99.2948 3.02169C98.847 3.02169 98.6232 3.02169 98.3993 3.02169V8.39507C98.5112 8.39507 98.847 8.39507 99.2948 8.39507C99.7426 8.39507 100.078 8.39507 100.302 8.39507C101.758 8.50701 102.765 8.28312 103.325 7.83534Z" fill="#A7A7A7"/>
<path d="M107.355 1.67871H108.923V9.85071H107.355V1.67871Z" fill="#A7A7A7"/>
<path d="M113.621 9.85035C113.062 9.73841 112.502 9.40257 112.054 9.06674C111.606 8.7309 111.159 8.28312 110.823 7.72339C110.487 7.16367 110.375 6.492 110.375 5.82032C110.375 5.14865 110.487 4.47698 110.823 3.91726C111.159 3.35753 111.494 2.90975 111.942 2.57391C112.39 2.23808 112.95 2.01419 113.509 1.7903C114.069 1.56641 114.741 1.56641 115.301 1.56641C115.86 1.56641 116.532 1.67835 117.092 1.7903C117.651 2.01419 118.211 2.23808 118.659 2.57391C119.107 2.90975 119.555 3.35753 119.778 3.91726C120.114 4.47698 120.226 5.14865 120.226 5.82032C120.226 6.38005 120.114 6.93978 119.89 7.38756C119.666 7.83534 119.443 8.28312 119.107 8.61896C118.771 8.95479 118.435 9.17868 117.987 9.40257C117.539 9.62646 117.092 9.85035 116.644 9.85035C116.42 9.9623 115.86 10.0742 115.413 10.0742C114.853 10.0742 114.181 9.9623 113.621 9.85035ZM116.644 8.39507C116.98 8.28312 117.428 8.17118 117.763 7.94728C118.099 7.72339 118.323 7.4995 118.547 7.05172C118.771 6.71589 118.883 6.26811 118.883 5.70838C118.883 4.81282 118.547 4.14115 117.875 3.69337C117.204 3.24558 116.42 3.02169 115.524 3.02169C114.629 3.02169 113.845 3.24558 113.174 3.69337C112.502 4.14115 112.166 4.81282 112.166 5.70838C112.166 6.15616 112.278 6.60394 112.502 6.93978C112.726 7.27561 112.95 7.61145 113.286 7.83534C113.621 8.05923 113.957 8.17118 114.405 8.28312C114.741 8.39507 115.189 8.39507 115.636 8.39507C115.86 8.61896 116.196 8.50701 116.644 8.39507Z" fill="#A7A7A7"/>
<path d="M127.391 3.24594V4.92512H132.877V6.38041H127.391V8.39542H133.772V9.85071H125.824V1.67871H133.772V3.134H127.391V3.24594Z" fill="#A7A7A7"/>
<path d="M139.258 6.38041L136.907 8.50737V9.85071H135.34V1.67871H136.907V6.49236L142.057 1.67871H144.295L140.377 5.26096L144.407 9.85071H142.392L139.258 6.38041Z" fill="#A7A7A7"/>
<path d="M149.223 6.38041L146.872 8.50737V9.85071H145.305V1.67871H146.872V6.49236L152.021 1.67871H154.26L150.342 5.26096L154.372 9.85071H152.357L149.223 6.38041Z" fill="#A7A7A7"/>
<path d="M157.395 9.85035C156.835 9.73841 156.275 9.40257 155.828 9.06674C155.38 8.7309 154.932 8.28312 154.596 7.72339C154.26 7.16367 154.148 6.492 154.148 5.82032C154.148 5.14865 154.26 4.47698 154.596 3.91726C154.932 3.35753 155.268 2.90975 155.716 2.57391C156.163 2.23808 156.723 2.01419 157.283 1.7903C157.843 1.56641 158.514 1.56641 159.074 1.56641C159.634 1.56641 160.305 1.67835 160.865 1.7903C161.425 2.01419 161.985 2.23808 162.432 2.57391C162.88 2.90975 163.328 3.35753 163.552 3.91726C163.888 4.47698 164 5.14865 164 5.82032C164 6.38005 163.888 6.93978 163.664 7.38756C163.44 7.83534 163.216 8.28312 162.88 8.61896C162.544 8.95479 162.208 9.17868 161.761 9.40257C161.313 9.62646 160.865 9.85035 160.417 9.85035C160.082 9.9623 159.634 10.0742 159.186 10.0742C158.514 10.0742 157.955 9.9623 157.395 9.85035ZM160.305 8.39507C160.641 8.28312 161.089 8.17118 161.425 7.94728C161.761 7.72339 161.985 7.4995 162.208 7.05172C162.432 6.71589 162.544 6.26811 162.544 5.70838C162.544 4.81282 162.209 4.14115 161.537 3.69337C160.865 3.24558 160.082 3.02169 159.186 3.02169C158.29 3.02169 157.507 3.24558 156.835 3.69337C156.163 4.14115 155.828 4.81282 155.828 5.70838C155.828 6.15616 155.94 6.60394 156.163 6.93978C156.387 7.27561 156.611 7.61145 156.947 7.83534C157.283 8.05923 157.619 8.17118 158.067 8.28312C158.402 8.39507 158.85 8.39507 159.298 8.39507C159.522 8.61896 159.97 8.50701 160.305 8.39507Z" fill="#A7A7A7"/>
<path d="M4.92559 11.1945C4.03003 10.9706 3.24641 10.6348 2.4628 10.187C1.79112 9.73924 1.11945 9.06756 0.671671 8.39589C0.22389 7.61228 0 6.71671 0 5.82115C0 4.58976 0.335836 3.58225 1.11945 2.68669C1.90307 1.79112 2.91058 1.11945 4.03003 0.671672C5.14948 0.223891 6.38088 0 7.72422 0C9.06756 0 10.187 0.223891 11.4184 0.671672C12.5379 1.11945 13.5454 1.79112 14.329 2.68669C15.1126 3.58225 15.4484 4.7017 15.4484 5.82115C15.4484 6.71671 15.2246 7.61228 14.7768 8.39589C14.329 9.17951 13.7693 9.73924 12.9856 10.187C12.202 10.6348 11.4184 10.9706 10.5229 11.1945C9.62729 11.4184 8.73173 11.5304 7.83617 11.5304C6.9406 11.5304 5.82115 11.5304 4.92559 11.1945ZM10.0751 10.4109C10.8587 10.187 11.5304 9.85118 12.202 9.51535C12.8737 9.17951 13.4334 8.61978 13.7693 7.94811C14.217 7.27644 14.329 6.60477 14.329 5.70921C14.329 4.7017 13.9932 3.80614 13.3215 3.02252C12.6498 2.2389 11.7543 1.67918 10.7467 1.34334C9.85118 1.00751 8.84367 0.895562 7.72422 0.895562C6.60477 0.895562 5.48532 1.11945 4.47781 1.45529C3.35836 1.79112 2.57474 2.35085 1.90307 3.13447C1.2314 3.91808 0.895562 4.81365 0.895562 5.82115C0.895562 6.60477 1.11945 7.38839 1.56723 8.06006C2.01501 8.73173 2.4628 9.17951 3.13447 9.62729C3.69419 9.85118 4.47781 10.187 5.26143 10.4109C6.04504 10.6348 6.82866 10.7467 7.72422 10.7467C8.61978 10.7467 9.29145 10.6348 10.0751 10.4109ZM6.38088 9.17951C5.82115 9.06756 5.37337 8.84367 4.92559 8.61978C4.47781 8.28395 4.14197 7.94811 3.91808 7.38839C3.69419 6.94061 3.58225 6.38088 3.58225 5.82115C3.58225 5.03754 3.80614 4.36586 4.25392 3.80614C4.7017 3.24641 5.26143 2.79863 5.82115 2.57474C6.38088 2.2389 7.16449 2.12696 7.83617 2.12696C8.50784 2.12696 9.17951 2.2389 9.85118 2.4628C10.5229 2.68669 10.9706 3.02252 11.3065 3.4703L10.4109 4.58976C10.187 4.25392 9.85118 4.03003 9.4034 3.80614C8.95562 3.58225 8.39589 3.4703 7.83617 3.4703C7.05255 3.4703 6.38088 3.69419 5.82115 4.03003C5.26143 4.47781 4.92559 5.03754 4.92559 5.82115C4.92559 6.60477 5.26143 7.1645 5.82115 7.61228C6.38088 7.94811 7.05255 8.172 7.83617 8.172C8.95562 8.172 9.85118 7.83617 10.299 7.1645L11.3065 8.06006C10.9706 8.50784 10.4109 8.84367 9.85118 9.06757C9.17951 9.29146 8.50784 9.4034 7.83617 9.4034C7.38839 9.4034 6.82866 9.4034 6.38088 9.17951Z" fill="#A7A7A7"/>
</svg>
