<?xml version="1.0" encoding="utf-8"?>
<!-- Generator: Adobe Illustrator 26.0.3, SVG Export Plug-In . SVG Version: 6.00 Build 0)  -->
<svg version="1.1" id="Layer_1" xmlns="http://www.w3.org/2000/svg" xmlns:xlink="http://www.w3.org/1999/xlink" x="0px" y="0px"
	 viewBox="0 0 64 39" style="enable-background:new 0 0 64 39;" xml:space="preserve">
<style type="text/css">
	.st0{fill:#D23A3D;}
</style>
<g>
	<path class="st0" d="M58.5,9C46-2.6,17.4-2.6,4.8,9c-5.6,4.9-6.4,12.6-1.9,18.2C7.3,33,15,35.3,20.5,36.6c3.3,0.8,7.1,1.2,11.1,1.2
		c3.5,0,7-0.3,10.4-1c5.9-1.1,13.9-3.7,18.6-9.7C64.9,21.5,64.1,13.8,58.5,9z M59.6,26.4c-8,10-27.7,11.7-38.8,9
		c-5.2-1.2-12.7-3.5-16.9-9c-4.1-5.1-3.3-12.1,1.8-16.6c6.1-5.6,16.1-8.4,26-8.4c10,0,19.9,2.8,26,8.4l0,0
		C62.8,14.3,63.6,21.3,59.6,26.4z"/>
	<path class="st0" d="M42.6,6.8c-2.9,2.9-5.6,4.5-8.3,4.8l0,0c-2.6,0.3-5-0.6-7.2-2.9l-0.4-0.4l-1.4,1.4l0.4,0.4
		c3.2,3.2,6.7,4.2,10.5,3.1L19,30.4l1.3,1.3l17.4-17.4c-1.1,3.8-0.1,7.4,3.1,10.5l0.4,0.4l1.3-1.3l-0.4-0.4
		c-2.2-2.2-3.2-4.6-2.9-7.2c0.3-2.6,1.9-5.4,4.8-8.3l0.4-0.4L43,6.4L42.6,6.8z"/>
</g>
</svg>
