<?xml version="1.0" encoding="utf-8"?>
<!-- Generator: Adobe Illustrator 26.0.3, SVG Export Plug-In . SVG Version: 6.00 Build 0)  -->
<svg version="1.1" id="Layer_1" xmlns="http://www.w3.org/2000/svg" xmlns:xlink="http://www.w3.org/1999/xlink" x="0px" y="0px"
	 viewBox="0 0 64 38" style="enable-background:new 0 0 64 38;" xml:space="preserve">
<style type="text/css">
	.st0{fill:#D23A3D;}
</style>
<g>
	<path class="st0" d="M38.9,15.3L38.9,15.3c-2.1-1.6-3.1-3.9-3.1-7.1V7.6h-1.9v0.6c0,4.5,1.8,7.7,5.3,9.6H14.6v1.9h24.6
		c-3.5,1.9-5.3,5.1-5.3,9.6v0.6h1.9v-0.6c0-3.1,1-5.5,3.1-7.1c2.1-1.6,5.2-2.5,9.2-2.5h0.6v-1.9h-0.6C44,17.8,40.9,16.9,38.9,15.3z"
		/>
	<path class="st0" d="M58.5,9C46-2.6,17.4-2.6,4.8,9c-5.6,4.9-6.4,12.6-1.9,18.2C7.3,33,15,35.3,20.5,36.6c3.3,0.8,7.1,1.2,11.1,1.2
		c3.5,0,7-0.3,10.4-1c5.9-1.1,13.9-3.7,18.6-9.7C64.9,21.5,64.1,13.8,58.5,9z M59.6,26.4c-8,10-27.7,11.7-38.8,9
		c-5.2-1.2-12.7-3.5-16.9-9c-4.1-5.1-3.3-12.1,1.8-16.6c6.1-5.6,16.1-8.4,26-8.4c10,0,19.9,2.8,26,8.4l0,0
		C62.8,14.3,63.6,21.3,59.6,26.4z"/>
</g>
</svg>
