<svg width="127" height="42" viewBox="0 0 127 42" fill="none" xmlns="http://www.w3.org/2000/svg">
<path d="M60.223 28.3905L50.28 36.0778V41.5496H45.1328V12.7129H50.28V29.434L72.052 12.7129H80.6581L64.349 25.2201L81.2071 41.5496H73.7402L60.223 28.3905Z" fill="black"/>
<path d="M92.6941 40.6379C89.754 39.9861 87.0583 39.0742 84.6013 37.8592C82.1444 36.6442 80.1212 35.0376 78.6278 33.0821C77.0851 31.1267 76.3164 28.9998 76.3164 26.6098C76.3164 23.528 77.6176 20.8351 80.1706 18.488C82.7236 16.1438 85.9025 14.4056 89.7101 13.2764C93.4682 12.1472 97.4679 11.584 101.66 11.584C105.852 11.584 109.849 12.1472 113.656 13.2764C117.414 14.4056 120.593 16.1438 123.146 18.488C125.699 20.8322 127 23.5252 127 26.6098C127 28.9998 126.229 31.1267 124.736 33.0821C123.193 35.0376 121.219 36.6442 118.762 37.8592C116.305 39.0742 113.56 39.9861 110.62 40.6379C107.68 41.2897 104.693 41.6357 101.66 41.6357C98.6209 41.6385 95.6314 41.2897 92.6941 40.6379ZM110.422 35.2977C113.168 34.6459 115.528 33.5167 117.505 31.9958C119.432 30.4749 120.396 28.6939 120.396 26.6098C120.396 24.5686 119.432 22.7876 117.552 21.2667C115.624 19.7458 113.264 18.6624 110.518 17.9677C107.724 17.273 104.787 16.9242 101.654 16.9242C98.5221 16.9242 95.5847 17.273 92.8368 17.9677C90.0423 18.6624 87.6814 19.7487 85.8037 21.2667C83.8766 22.7876 82.913 24.5686 82.913 26.6098C82.913 28.6939 83.8766 30.4749 85.8531 31.9958C87.8296 33.5167 90.1905 34.6459 92.9357 35.2977C95.6808 35.9495 98.5715 36.2954 101.657 36.2954C104.737 36.2954 107.677 35.9495 110.422 35.2977Z" fill="black"/>
<path d="M4.79581 17.5786V24.1366H11.9278V28.9995H4.79581V36.6868H13.929V41.5496H0V12.7129H13.929V17.5757H4.79581V17.5786Z" fill="black"/>
<path d="M27.5036 29.3482L21.7497 36.298V41.5524H16.6602V12.7129H21.747V28.3477L34.5916 12.7129H41.1388L30.795 25.263L41.5534 41.5496H35.4646L27.5036 29.3482Z" fill="black"/>
<path d="M19.252 7.93602C18.445 7.52721 17.9453 6.96975 17.7422 6.28935L19.145 5.59467C19.2163 6.0292 19.5266 6.38655 20.0838 6.65814C20.6301 6.94402 21.3686 7.07838 22.3074 7.07838C23.2215 7.07838 23.9353 6.99262 24.4239 6.8068C24.9126 6.62097 25.1487 6.37226 25.1487 6.05207C25.1487 5.79192 24.9592 5.58037 24.5777 5.42028C24.1851 5.27162 23.4137 5.11153 22.2607 4.93714C20.7756 4.70272 19.716 4.39111 19.0763 3.9966C18.423 3.61352 18.1018 3.04462 18.1018 2.31277C18.1018 1.59521 18.4834 1.02631 19.2438 0.6175C19.9877 0.211551 20.976 0 22.2003 0C23.4137 0 24.3882 0.197257 25.1377 0.606065C25.8871 1.01487 26.3373 1.55804 26.5158 2.26417L25.102 2.98173C25.0883 1.98115 24.1494 1.48657 22.2827 1.48657C21.4619 1.48657 20.8332 1.57234 20.3693 1.73243C19.9054 1.90682 19.6693 2.1298 19.6693 2.38995C19.6693 2.63867 19.8587 2.83593 20.2403 2.97029C20.6219 3.11895 21.3686 3.27904 22.4996 3.45343C24.0561 3.68785 25.1377 3.99946 25.7691 4.36824C26.3867 4.75132 26.6969 5.32308 26.6969 6.0778C26.6969 6.88112 26.3044 7.50148 25.5083 7.92173C24.7122 8.35626 23.6306 8.56496 22.2745 8.56496C21.0693 8.56781 20.0591 8.35626 19.252 7.93602Z" fill="black"/>
<path d="M35.942 1.67212H32.387V8.40459H30.8772V1.67212H27.3359V0.185547H35.942V1.67212Z" fill="black"/>
<path d="M39.5853 8.133C38.8963 7.84712 38.3362 7.41545 37.908 6.83225C37.4797 6.24906 37.2656 5.55723 37.2656 4.76534V0.185547H38.7755V4.60525C38.7755 5.3857 39.0719 5.99176 39.6676 6.4263C40.2496 6.86084 40.9881 7.08383 41.8775 7.08383C42.7697 7.08383 43.5054 6.86084 44.1011 6.4263C44.6968 5.99462 44.9933 5.3857 44.9933 4.60525V0.185547H46.5031V4.76534C46.5031 5.55723 46.289 6.25191 45.8608 6.83225C45.4215 7.41259 44.8615 7.84712 44.1725 8.133C43.4725 8.41888 42.7093 8.56754 41.8775 8.56754C41.0347 8.56754 40.2743 8.41888 39.5853 8.133Z" fill="black"/>
<path d="M52.9231 0.234256C53.4337 0.32002 53.9114 0.457243 54.3726 0.6545C54.8365 0.866051 55.2291 1.11191 55.5613 1.42352C55.8824 1.73227 56.1432 2.11535 56.3327 2.58705C56.5221 3.07018 56.6181 3.60192 56.6181 4.20798C56.6181 4.98844 56.4754 5.66883 56.1789 6.23773C55.8824 6.81807 55.4789 7.26404 54.9656 7.57565C54.455 7.8844 53.8949 8.12168 53.2883 8.25604C52.6816 8.4047 52.0035 8.47903 51.2788 8.47903C50.5541 8.47903 49.9117 8.46759 49.3544 8.4533C48.7944 8.44186 48.4156 8.44186 48.2262 8.42757L47.9297 8.40184V0.185657C48.5117 0.137057 49.6289 0.111328 51.2815 0.111328C51.8663 0.111328 52.4125 0.148492 52.9231 0.234256ZM54.1475 6.31206C54.7542 5.85465 55.0507 5.15996 55.0507 4.20798C55.0507 3.31604 54.7542 2.66138 54.1475 2.22684C53.5408 1.80659 52.591 1.59504 51.2815 1.59504C51.0098 1.59504 50.6639 1.59504 50.2603 1.59504C49.8458 1.60648 49.5713 1.60648 49.4395 1.60648V6.97816C49.5713 6.97816 49.8431 6.97816 50.2603 6.97816C50.6639 6.98959 51.0098 6.98959 51.2815 6.98959C52.591 6.99531 53.5408 6.77233 54.1475 6.31206Z" fill="black"/>
<path d="M58.0312 0.185547H59.5411V8.40459H58.0312V0.185547Z" fill="black"/>
<path d="M64.0838 8.30766C63.5238 8.14757 63.0132 7.89886 62.5383 7.56438C62.0633 7.24133 61.6818 6.79536 61.3963 6.22646C61.0998 5.65756 60.957 5.01433 60.957 4.28248C60.957 3.58779 61.0998 2.95886 61.3853 2.40139C61.6598 1.84392 62.0386 1.38652 62.5026 1.0406C62.9665 0.706123 63.4908 0.445972 64.0481 0.260151C64.6054 0.0857639 65.1873 0 65.794 0C66.4007 0 66.9827 0.0857639 67.5427 0.260151C68.1027 0.445972 68.6243 0.706123 69.0992 1.0406C69.5631 1.38652 69.9447 1.84392 70.2275 2.40139C70.502 2.95886 70.6447 3.59065 70.6447 4.28248C70.6447 4.86281 70.5487 5.40884 70.3592 5.89198C70.1561 6.37512 69.9063 6.78393 69.5879 7.10411C69.2667 7.42716 68.8988 7.69874 68.4816 7.92173C68.0533 8.15615 67.6141 8.3191 67.1748 8.4163C66.7219 8.51636 66.2607 8.56496 65.7968 8.56496C65.2121 8.56781 64.6411 8.47919 64.0838 8.30766ZM66.958 6.92115C67.3258 6.82109 67.6827 6.661 68.0039 6.44945C68.3251 6.2379 68.5859 5.95487 68.789 5.58323C68.9784 5.21159 69.0745 4.77991 69.0745 4.28248C69.0745 3.3791 68.7533 2.68441 68.1 2.20127C67.4466 1.71814 66.6725 1.48372 65.794 1.48372C64.9156 1.48372 64.1524 1.71814 63.4991 2.20127C62.8457 2.68441 62.5108 3.37624 62.5108 4.28248C62.5108 4.76561 62.6069 5.19729 62.8073 5.56894C62.9967 5.95202 63.2602 6.2379 63.5924 6.44659C63.9136 6.65814 64.2705 6.81823 64.6383 6.91829C65.0062 7.02978 65.3877 7.07838 65.7913 7.07838C66.1976 7.08124 66.5901 7.03264 66.958 6.92115Z" fill="black"/>
</svg>
