<svg width="127" height="42" viewBox="0 0 127 42" fill="none" xmlns="http://www.w3.org/2000/svg">
<path d="M60.2211 28.3907L50.2781 36.078V41.5497H45.1309V12.713H50.2781V29.4341L72.05 12.713H80.6561L64.3471 25.2203L81.2052 41.5497H73.7383L60.2211 28.3907Z" fill="#D23A3D"/>
<path d="M92.6941 40.6378C89.754 39.986 87.0583 39.0741 84.6013 37.8591C82.1444 36.6441 80.1212 35.0374 78.6278 33.082C77.0851 31.1266 76.3164 28.9997 76.3164 26.6097C76.3164 23.5279 77.6176 20.8349 80.1706 18.4879C82.7236 16.1436 85.9025 14.4055 89.7101 13.2763C93.4682 12.147 97.4679 11.5839 101.66 11.5839C105.852 11.5839 109.849 12.147 113.656 13.2763C117.414 14.4055 120.593 16.1436 123.146 18.4879C125.699 20.8321 127 23.5251 127 26.6097C127 28.9997 126.229 31.1266 124.736 33.082C123.193 35.0374 121.219 36.6441 118.762 37.8591C116.305 39.0741 113.56 39.986 110.62 40.6378C107.68 41.2896 104.693 41.6355 101.66 41.6355C98.6209 41.6384 95.6314 41.2896 92.6941 40.6378ZM110.422 35.2976C113.168 34.6458 115.528 33.5166 117.505 31.9957C119.432 30.4748 120.396 28.6938 120.396 26.6097C120.396 24.5685 119.432 22.7875 117.552 21.2666C115.624 19.7457 113.264 18.6622 110.518 17.9676C107.724 17.2729 104.787 16.9241 101.654 16.9241C98.5221 16.9241 95.5847 17.2729 92.8368 17.9676C90.0423 18.6622 87.6814 19.7486 85.8037 21.2666C83.8766 22.7875 82.913 24.5685 82.913 26.6097C82.913 28.6938 83.8766 30.4748 85.8531 31.9957C87.8296 33.5166 90.1905 34.6458 92.9357 35.2976C95.6808 35.9494 98.5715 36.2953 101.657 36.2953C104.737 36.2953 107.677 35.9494 110.422 35.2976Z" fill="#D23A3D"/>
<path d="M4.79581 17.5787V24.1368H11.9278V28.9996H4.79581V36.6869H13.929V41.5497H0V12.713H13.929V17.5759H4.79581V17.5787Z" fill="#D23A3D"/>
<path d="M27.5046 29.3484L21.7507 36.2981V41.5526H16.6611V12.713H21.7479V28.3478L34.5926 12.713H41.1398L30.796 25.2632L41.5543 41.5497H35.4655L27.5046 29.3484Z" fill="#D23A3D"/>
<path d="M19.252 7.93602C18.445 7.52721 17.9453 6.96975 17.7422 6.28935L19.145 5.59467C19.2163 6.0292 19.5266 6.38655 20.0838 6.65814C20.6301 6.94402 21.3686 7.07838 22.3074 7.07838C23.2215 7.07838 23.9353 6.99262 24.4239 6.8068C24.9126 6.62097 25.1487 6.37226 25.1487 6.05207C25.1487 5.79192 24.9592 5.58037 24.5777 5.42028C24.1851 5.27162 23.4137 5.11153 22.2607 4.93714C20.7756 4.70272 19.716 4.39111 19.0763 3.9966C18.423 3.61352 18.1018 3.04462 18.1018 2.31277C18.1018 1.59521 18.4834 1.02631 19.2438 0.6175C19.9877 0.211551 20.976 0 22.2003 0C23.4137 0 24.3882 0.197257 25.1377 0.606065C25.8871 1.01487 26.3373 1.55804 26.5158 2.26417L25.102 2.98173C25.0883 1.98115 24.1494 1.48657 22.2827 1.48657C21.4619 1.48657 20.8332 1.57234 20.3693 1.73243C19.9054 1.90682 19.6693 2.1298 19.6693 2.38995C19.6693 2.63867 19.8587 2.83593 20.2403 2.97029C20.6219 3.11895 21.3686 3.27904 22.4996 3.45343C24.0561 3.68785 25.1377 3.99946 25.7691 4.36824C26.3867 4.75132 26.6969 5.32308 26.6969 6.0778C26.6969 6.88112 26.3044 7.50148 25.5083 7.92173C24.7122 8.35626 23.6306 8.56496 22.2745 8.56496C21.0693 8.56781 20.0591 8.35626 19.252 7.93602Z" fill="#D23A3D"/>
<path d="M35.9401 1.6724H32.3851V8.40486H30.8753V1.6724H27.334V0.185822H35.9401V1.6724Z" fill="#D23A3D"/>
<path d="M39.5833 8.13328C38.8943 7.8474 38.3343 7.41572 37.906 6.83253C37.4778 6.24933 37.2637 5.5575 37.2637 4.76561V0.185822H38.7735V4.60552C38.7735 5.38597 39.07 5.99204 39.6657 6.42658C40.2477 6.86111 40.9861 7.0841 41.8756 7.0841C42.7677 7.0841 43.5034 6.86111 44.0991 6.42658C44.6948 5.9949 44.9913 5.38597 44.9913 4.60552V0.185822H46.5012V4.76561C46.5012 5.5575 46.287 6.25219 45.8588 6.83253C45.4196 7.41286 44.8596 7.8474 44.1705 8.13328C43.4705 8.41916 42.7073 8.56781 41.8756 8.56781C41.0328 8.56781 40.2724 8.41916 39.5833 8.13328Z" fill="#D23A3D"/>
<path d="M52.9241 0.234409C53.4347 0.320173 53.9124 0.457395 54.3736 0.654652C54.8375 0.866203 55.2301 1.11206 55.5622 1.42367C55.8834 1.73242 56.1442 2.1155 56.3336 2.5872C56.523 3.07034 56.6191 3.60207 56.6191 4.20814C56.6191 4.98859 56.4764 5.66898 56.1799 6.23788C55.8834 6.81822 55.4799 7.26419 54.9665 7.5758C54.4559 7.88455 53.8959 8.12183 53.2892 8.25619C52.6825 8.40485 52.0045 8.47918 51.2798 8.47918C50.555 8.47918 49.9127 8.46775 49.3554 8.45345C48.7954 8.44202 48.4166 8.44202 48.2271 8.42772L47.9307 8.40199V0.185809C48.5126 0.13721 49.6299 0.111481 51.2825 0.111481C51.8672 0.111481 52.4135 0.148645 52.9241 0.234409ZM54.1485 6.31221C54.7552 5.8548 55.0516 5.16012 55.0516 4.20814C55.0516 3.31619 54.7552 2.66153 54.1485 2.22699C53.5418 1.80675 52.592 1.5952 51.2825 1.5952C51.0107 1.5952 50.6649 1.5952 50.2613 1.5952C49.8468 1.60663 49.5723 1.60663 49.4405 1.60663V6.97831C49.5723 6.97831 49.844 6.97831 50.2613 6.97831C50.6649 6.98975 51.0107 6.98975 51.2825 6.98975C52.592 6.99546 53.5418 6.77248 54.1485 6.31221Z" fill="#D23A3D"/>
<path d="M58.0332 0.185822H59.5431V8.40486H58.0332V0.185822Z" fill="#D23A3D"/>
<path d="M64.0857 8.30766C63.5257 8.14757 63.0151 7.89886 62.5402 7.56438C62.0653 7.24133 61.6837 6.79536 61.3982 6.22646C61.1017 5.65756 60.959 5.01433 60.959 4.28248C60.959 3.58779 61.1017 2.95886 61.3872 2.40139C61.6617 1.84392 62.0406 1.38652 62.5045 1.0406C62.9685 0.706123 63.4928 0.445972 64.0501 0.260151C64.6073 0.0857639 65.1893 0 65.796 0C66.4027 0 66.9846 0.0857639 67.5447 0.260151C68.1047 0.445972 68.6263 0.706123 69.1012 1.0406C69.5651 1.38652 69.9467 1.84392 70.2294 2.40139C70.504 2.95886 70.6467 3.59065 70.6467 4.28248C70.6467 4.86281 70.5506 5.40884 70.3612 5.89198C70.1581 6.37512 69.9082 6.78393 69.5898 7.10411C69.2686 7.42716 68.9008 7.69874 68.4835 7.92173C68.0553 8.15615 67.616 8.3191 67.1768 8.4163C66.7238 8.51636 66.2627 8.56496 65.7987 8.56496C65.214 8.56781 64.643 8.47919 64.0857 8.30766ZM66.9599 6.92115C67.3278 6.82109 67.6847 6.661 68.0058 6.44945C68.327 6.2379 68.5878 5.95487 68.791 5.58323C68.9804 5.21159 69.0765 4.77991 69.0765 4.28248C69.0765 3.3791 68.7553 2.68441 68.1019 2.20127C67.4486 1.71814 66.6744 1.48372 65.796 1.48372C64.9175 1.48372 64.1544 1.71814 63.501 2.20127C62.8477 2.68441 62.5128 3.37624 62.5128 4.28248C62.5128 4.76561 62.6088 5.19729 62.8092 5.56894C62.9986 5.95202 63.2622 6.2379 63.5944 6.44659C63.9155 6.65814 64.2724 6.81823 64.6403 6.91829C65.0081 7.02978 65.3897 7.07838 65.7932 7.07838C66.1995 7.08124 66.5921 7.03264 66.9599 6.92115Z" fill="#D23A3D"/>
</svg>
