<svg width="64" height="38" viewBox="0 0 64 38" fill="none" xmlns="http://www.w3.org/2000/svg">
<path d="M20.5927 35.6223L20.5928 35.6224C24.2228 36.4258 27.9143 36.8551 31.6648 36.8516H31.6654C35.4096 36.8516 39.0979 36.4258 42.7312 35.6223C46.3674 34.8183 49.7501 33.6959 52.7686 32.2071C55.7602 30.7315 58.1543 28.7859 60.024 26.4234C61.8149 24.083 62.7273 21.5597 62.7273 18.7258C62.7273 15.0762 61.193 11.8734 58.1064 9.0465C54.9926 6.19473 51.1042 4.06931 46.4829 2.68416C41.7843 1.29436 36.8482 0.6 31.6654 0.6C26.4817 0.6 21.5426 1.2946 16.907 2.68389L16.905 2.6845C12.2225 4.06962 8.33466 6.19483 5.22117 9.04626L20.5927 35.6223ZM20.5927 35.6223C16.9588 34.8188 13.6373 33.6968 10.617 32.2071C7.61825 30.728 5.16684 28.7811 3.36442 26.4271L3.36448 26.427M20.5927 35.6223L3.36448 26.427M3.36448 26.427L3.3586 26.4196M3.36448 26.427L3.3586 26.4196M3.3586 26.4196C1.50938 24.0818 0.6 21.5607 0.6 18.7258C0.6 15.0799 2.13414 11.8771 5.2209 9.0465L4.81566 8.60403C1.6258 11.529 0 14.8852 0 18.7258C0 21.7043 0.960392 24.3549 2.88803 26.7919C4.75392 29.2288 7.28179 31.231 10.3516 32.7452C13.4214 34.2594 16.7896 35.3959 20.4631 36.2082C24.1332 37.0205 27.8684 37.4552 31.6654 37.4516L3.3586 26.4196Z" fill="black" stroke="#D23A3D" stroke-width="1.2"/>
<path d="M38.5011 15.7716C40.6862 17.5081 43.8932 18.3763 48.087 18.3763V19.0709C43.8932 19.0709 40.6862 19.9391 38.5011 21.6756C36.3161 23.412 35.2119 25.9472 35.2119 29.2812H34.507C34.507 23.9329 37.1149 20.5295 42.3308 19.0709H15.2412V18.3763H42.3073C37.0914 16.9177 34.4835 13.5143 34.4835 8.16602H35.2119C35.2119 11.5 36.2809 14.0352 38.5011 15.7716Z" fill="#D23A3D" stroke="#D23A3D" stroke-width="1.2"/>
</svg>
