<?xml version="1.0" standalone="no"?>
<!DOCTYPE svg PUBLIC "-//W3C//DTD SVG 1.1//EN" "http://www.w3.org/Graphics/SVG/1.1/DTD/svg11.dtd" >
<svg xmlns="http://www.w3.org/2000/svg" xmlns:xlink="http://www.w3.org/1999/xlink" version="1.1">
<metadata>
Created by FontForge 20190801 at Thu Sep  5 00:00:00 2019
 By www-data
Copyright (c) 2019 by schoener. All rights reserved.
</metadata>
<defs>
<font id="ZoomProNormalRegular" horiz-adv-x="889" >
  <font-face 
    font-family="ZoomProNormalRegular"
    font-weight="400"
    font-stretch="normal"
    units-per-em="1000"
    panose-1="2 0 5 4 0 0 0 0 0 0"
    ascent="800"
    descent="-200"
    x-height="474"
    cap-height="664"
    bbox="-648 -246 1609 904"
    underline-thickness="50"
    underline-position="-200"
    unicode-range="U+0020-1F5CE"
  />
<missing-glyph horiz-adv-x="819" 
d="M734 690h35v-716h-719v716h35l1 1l1 -1h645l1 1zM682 640h-545l273 -272zM100 607v-548l274 274zM719 59v548l-274 -274zM136 24h547l-273 274z" />
    <glyph glyph-name="fi" unicode="fi" horiz-adv-x="558" 
d="M498 474v-474h-85v390h-179v-390h-85v390h-121v84h121v53q0 69 46 111q47 41 115 41q46 0 86 -23q38 -23 58 -62l-73 -45q-8 20 -26 33q-19 13 -45 13q-76 0 -76 -78v-43h264z" />
    <glyph glyph-name="fl" unicode="fl" horiz-adv-x="558" 
d="M413 664h85v-664h-85v390h-179v-390h-85v390h-121v84h121v53q0 69 49 111q49 41 121 41q53 0 94 -25v10zM234 474h179v74q-7 20 -32 34q-23 13 -55 13q-92 0 -92 -88v-33z" />
    <glyph glyph-name="f_f" unicode="ff" horiz-adv-x="713" 
d="M498 474h161v-84h-161v-390h-85v390h-179v-390h-85v390h-121v84h121v53q0 69 49 111q49 41 121 41q79 0 129 -53q47 53 126 53q46 0 86 -23q38 -23 58 -62l-73 -45q-8 20 -26 33q-19 13 -45 13q-76 0 -76 -78v-43zM413 474v53q0 16 1 20q-8 21 -33 35q-23 13 -55 13
q-92 0 -92 -88v-33h179z" />
    <glyph glyph-name="f_f_i" unicode="ffi" horiz-adv-x="822" 
d="M762 474v-474h-85v390h-179v-390h-85v390h-179v-390h-85v390h-121v84h121v53q0 69 49 111q49 41 121 41q79 0 129 -53q47 53 126 53q46 0 86 -23q38 -23 58 -62l-73 -45q-8 20 -26 33q-19 13 -45 13q-76 0 -76 -78v-43h264zM413 474v53q0 16 1 20q-8 21 -33 35
q-23 13 -55 13q-92 0 -92 -88v-33h179z" />
    <glyph glyph-name="f_f_l" unicode="ffl" horiz-adv-x="822" 
d="M677 664h85v-664h-85v390h-179v-390h-85v390h-179v-390h-85v390h-121v84h121v53q0 69 49 111q49 41 121 41q79 0 130 -54q48 54 134 54q53 0 94 -25v10zM413 474v53q0 17 1 22l-1 -1q-7 20 -32 34q-23 13 -55 13q-92 0 -92 -88v-33h179zM677 474v74q-7 20 -32 34
q-23 13 -55 13q-92 0 -92 -88v-33h179z" />
    <glyph glyph-name=".notdef" horiz-adv-x="819" 
d="M734 690h35v-716h-719v716h35l1 1l1 -1h645l1 1zM682 640h-545l273 -272zM100 607v-548l274 274zM719 59v548l-274 -274zM136 24h547l-273 274z" />
    <glyph glyph-name=".null" horiz-adv-x="0" 
 />
    <glyph glyph-name="nonmarkingreturn" horiz-adv-x="333" 
 />
    <glyph glyph-name="space" unicode=" " horiz-adv-x="277" 
 />
    <glyph glyph-name="exclam" unicode="!" horiz-adv-x="214" 
d="M76 162l-25 502h112l-25 -502h-62zM107 -8q-27 0 -46 16t-19 40q0 23 20 40q19 16 45 16q27 0 46 -16t19 -40t-19 -40t-46 -16z" />
    <glyph glyph-name="quotedbl" unicode="&#x22;" horiz-adv-x="348" 
d="M34 483v42q55 0 76 36q-25 -6 -51 11t-26 44q0 23 20 40q19 16 45 16t46 -18q19 -19 18 -50q-2 -57 -35 -88q-35 -33 -93 -33zM187 483v42q55 0 76 36q-25 -6 -51 11t-26 44q0 23 20 40q19 16 45 16q27 0 46 -18q19 -19 18 -50q-2 -57 -35 -88q-34 -33 -93 -33z" />
    <glyph glyph-name="numbersign" unicode="#" horiz-adv-x="818" 
d="M750 411h-167l-16 -158h166l-9 -86h-166l-18 -167h-87l18 167h-157l-18 -167h-87l18 167h-167l9 86h167l16 158h-166l8 86h167l18 167h87l-18 -167h157l18 167h87l-18 -167h166zM480 253l16 158h-157l-16 -158h157z" />
    <glyph glyph-name="dollar" unicode="$" horiz-adv-x="644" 
d="M618 177q0 -87 -74 -137q-76 -52 -200 -53l-9 -129h-87l10 135q-87 13 -147 61q-59 47 -74 114l83 40q5 -53 43 -84q39 -33 101 -45l17 238q-122 35 -172 77q-53 44 -53 111q0 73 71 121q72 48 179 52l7 93h87l-7 -96q87 -13 143 -60q53 -46 67 -121l-84 -40
q-1 56 -36 90q-33 33 -96 44l-15 -207q133 -36 190 -81q56 -45 56 -123zM145 499q0 -52 142 -95l13 188q-68 -4 -112 -31q-43 -25 -43 -62zM350 73q87 3 133 31q46 27 46 73q0 39 -35 65q-36 27 -128 52z" />
    <glyph glyph-name="percent" unicode="%" horiz-adv-x="833" 
d="M197 292q-73 0 -121 55q-48 54 -48 137q0 84 48 139q48 54 121 54t121 -54q47 -56 47 -139q0 -82 -47 -137q-48 -55 -121 -55zM251 0l260 664h72l-261 -664h-71zM197 366q41 0 68 35q26 35 26 82q0 50 -26 85q-27 35 -68 35t-68 -35q-27 -34 -27 -85q0 -47 27 -82t68 -35
zM637 -13q-73 0 -121 54t-48 137q0 84 48 139t121 55t121 -54q47 -56 47 -140q0 -82 -47 -137q-48 -54 -121 -54zM637 64q41 0 68 34q26 35 26 83q0 50 -26 85q-27 35 -68 35t-68 -35t-27 -85q0 -47 27 -82t68 -35z" />
    <glyph glyph-name="ampersand" unicode="&#x26;" horiz-adv-x="687" 
d="M669 301q-69 -124 -150 -202q79 -46 141 -46v-86q-98 0 -213 75q-90 -57 -192 -57q-101 0 -165 51q-64 49 -64 127q0 62 38 106t108 80q-42 83 -42 150q0 75 60 127q58 51 154 51q83 0 136 -41q52 -42 52 -106q0 -32 -15 -60q-18 -32 -37 -49q-21 -19 -57 -42
q-34 -20 -63 -34q-14 -8 -67 -31q64 -91 152 -163q78 68 151 194zM343 591q-54 0 -89 -29t-35 -73q0 -43 32 -105l49 21q4 1 9.5 4t15 7.5t17.5 7.5q28 13 42 23q9 6 29 22q18 14 24 26q6 13 6 28q0 31 -28 50q-29 18 -72 18zM256 71q54 0 114 29q-94 82 -157 177
q-99 -53 -99 -114q0 -41 40 -66q40 -26 102 -26z" />
    <glyph glyph-name="quotesingle" unicode="'" horiz-adv-x="195" 
d="M34 483v42q55 0 76 36q-25 -6 -51 11t-26 44q0 23 20 40q19 16 45 16t46 -18q19 -19 18 -50q-2 -57 -35 -88q-35 -33 -93 -33z" />
    <glyph glyph-name="parenleft" unicode="(" horiz-adv-x="299" 
d="M224 -100q-88 78 -139 193q-50 114 -50 246t49 240q49 109 140 185l57 -65q-78 -64 -118 -156q-41 -94 -41 -204q0 -113 42 -210q41 -98 119 -167z" />
    <glyph glyph-name="parenright" unicode=")" horiz-adv-x="299" 
d="M75 -100l-59 62q78 69 120 166q41 99 41 211q0 110 -41 204q-40 93 -117 156l56 65q91 -76 140 -185q49 -108 49 -240q0 -135 -49 -246q-50 -113 -140 -193z" />
    <glyph glyph-name="asterisk" unicode="*" horiz-adv-x="594" 
d="M547 561l-177 -58l140 -192l-58 -43l-109 149l-141 -194l-57 44l108 149l-226 73l22 71l178 -58v239h71v-184l227 74z" />
    <glyph glyph-name="plus" unicode="+" horiz-adv-x="631" 
d="M577 304v-86h-218v-218h-87v218h-217v86h217v218h87v-218h218z" />
    <glyph glyph-name="comma" unicode="," horiz-adv-x="213" 
d="M43 -85v42q55 0 76 36q-25 -6 -51 11t-26 44q0 23 20 40q19 16 45 16q27 0 46 -18q19 -19 18 -50q-2 -57 -35 -88q-34 -33 -93 -33z" />
    <glyph glyph-name="hyphen" unicode="-" horiz-adv-x="369" 
d="M55 218v86h260v-86h-260z" />
    <glyph glyph-name="period" unicode="." horiz-adv-x="214" 
d="M107 -8q-27 0 -46 16t-19 40q0 23 20 40q19 16 45 16q27 0 46 -16t19 -40t-19 -40t-46 -16z" />
    <glyph glyph-name="slash" unicode="/" horiz-adv-x="342" 
d="M122 -142h-88l186 913h88z" />
    <glyph glyph-name="zero" unicode="0" horiz-adv-x="722" 
d="M361 -13q-57 0 -114 20t-103 60q-49 41 -77 109q-29 70 -29 157q0 82 29 151q29 68 75 110q47 41 103 63q54 22 116 22q61 0 117 -22q57 -23 103 -63q46 -42 75 -110q28 -66 28 -151q0 -87 -29 -157q-28 -67 -76 -109q-48 -41 -103 -60q-57 -20 -115 -20zM361 73
q43 0 83 15q38 13 75 43q33 27 55 82q21 53 21 120q0 126 -70 193t-164 67t-164 -67t-70 -193q0 -67 21 -120t56 -82q37 -31 74 -43q40 -15 83 -15z" />
    <glyph glyph-name="one" unicode="1" horiz-adv-x="513" 
d="M355 664h87v-664h-87v467q-97 -144 -305 -181l-45 87q146 15 241 93q94 76 109 198z" />
    <glyph glyph-name="two" unicode="2" horiz-adv-x="646" 
d="M610 453q0 -90 -89 -176q-85 -82 -286 -191h355v-86h-514l-18 86q463 223 463 367q0 59 -54 100q-55 40 -141 40q-88 0 -146 -39q-60 -40 -60 -94q0 -42 53 -89l-53 -69q-89 75 -89 158q0 94 88 157q88 62 207 62q118 0 201 -63t83 -163z" />
    <glyph glyph-name="three" unicode="3" horiz-adv-x="665" 
d="M464 354q163 -52 163 -179q0 -85 -87 -136q-88 -52 -208 -52q-43 0 -89 8q-42 7 -86 27q-44 18 -77 54t-48 86l86 19q37 -108 214 -108q84 0 146 32q60 31 60 81q0 55 -70 88t-199 33h-30l-15 83h39q107 0 176 32q66 32 66 80q0 40 -48 65q-50 26 -126 26q-79 0 -130 -25
q-53 -26 -68 -74l-84 32q23 74 102 114q79 39 180 39q109 0 186 -46q77 -47 77 -121q0 -109 -130 -158z" />
    <glyph glyph-name="four" unicode="4" horiz-adv-x="674" 
d="M656 206v-86h-161v-120h-87v120h-391v86q120 46 184 178q62 129 64 306l85 -46q-4 -141 -54 -255q-51 -115 -135 -183h247v276h87v-276h161z" />
    <glyph glyph-name="five" unicode="5" horiz-adv-x="662" 
d="M369 464q115 0 188 -61t73 -163q0 -111 -86 -182t-217 -71q-99 0 -179 40q-82 39 -122 103l76 45q31 -48 91 -74q59 -28 134 -28q96 0 155 47t59 120q0 64 -53 102q-52 37 -129 37q-139 0 -218 -108l-84 26l57 367h477v-86h-402l-31 -202q91 88 211 88z" />
    <glyph glyph-name="six" unicode="6" horiz-adv-x="682" 
d="M397 424q102 0 178 -54q76 -55 76 -151q0 -102 -84 -166q-84 -66 -205 -66q-62 0 -116 19q-57 20 -104 58t-76 107q-28 66 -28 158q0 86 29 156t75 110q47 41 104 62t118 21q79 0 147 -34q69 -35 99 -100l-83 -35q-16 38 -60 61q-43 22 -103 22q-107 0 -172 -71
q-65 -73 -65 -192v-21q110 116 270 116zM362 73q87 0 144 42q56 41 56 104q0 56 -53 88q-53 31 -137 31q-144 0 -227 -123q51 -142 217 -142z" />
    <glyph glyph-name="seven" unicode="7" horiz-adv-x="642" 
d="M15 664h612v-86q-86 -25 -155 -73t-123 -121q-53 -73 -77 -171q-25 -98 -14 -213h-92q-17 191 59 341q77 152 214 237h-424v86z" />
    <glyph glyph-name="eight" unicode="8" horiz-adv-x="691" 
d="M503 360q73 -29 113 -75t40 -105q0 -82 -91 -137q-92 -56 -219 -56t-219 56t-92 137q0 58 41 105t112 75q-58 24 -89 63q-32 38 -32 85q0 72 82 121q82 50 197 50q114 0 197 -50q81 -49 81 -121q0 -47 -32 -85q-31 -39 -89 -63zM156 498q0 -43 56 -70q55 -27 134 -27
q78 0 133 27q56 27 56 70q0 41 -55 68t-134 27q-78 0 -134 -27t-56 -68zM346 73q96 0 158 34q63 35 63 87q0 54 -66 88q-67 35 -155 35t-155 -35q-67 -34 -67 -88q0 -53 64 -87q62 -34 158 -34z" />
    <glyph glyph-name="nine" unicode="9" horiz-adv-x="684" 
d="M324 679q63 0 117 -19q56 -20 103 -58q47 -40 76 -108q28 -66 28 -158q0 -91 -27 -160q-28 -69 -75 -110q-44 -38 -103 -59q-58 -20 -121 -20q-79 0 -147 34q-69 35 -99 100l84 30q18 -37 62 -57q44 -21 100 -21q113 0 175 68t62 195q0 19 -1 24q-104 -119 -259 -119
q-110 0 -186 55q-78 54 -78 150q0 101 84 167t205 66zM314 327q144 0 227 123q-51 143 -217 143q-88 0 -143 -42q-57 -42 -57 -105q0 -56 54 -87q53 -32 136 -32z" />
    <glyph glyph-name="colon" unicode=":" horiz-adv-x="240" 
d="M120 370q-27 0 -46 16t-19 40q0 23 20 40q19 16 45 16q27 0 46 -16t19 -40t-19 -40t-46 -16zM120 -8q-27 0 -46 16t-19 40q0 23 20 40q19 16 45 16q27 0 46 -16t19 -40t-19 -40t-46 -16z" />
    <glyph glyph-name="semicolon" unicode=";" horiz-adv-x="240" 
d="M120 370q-27 0 -46 16t-19 40q0 23 20 40q19 16 45 16q27 0 46 -16t19 -40t-19 -40t-46 -16zM56 -85v42q55 0 76 36q-25 -6 -51 11t-26 44q0 23 20 40q19 16 45 16t46 -18q19 -19 18 -50q-2 -57 -35 -88q-35 -33 -93 -33z" />
    <glyph glyph-name="less" unicode="&#x3c;" horiz-adv-x="627" 
d="M567 -13l-544 275l544 273v-97l-355 -176l355 -179v-96z" />
    <glyph glyph-name="equal" unicode="=" horiz-adv-x="631" 
d="M55 304v86h522v-86h-522zM55 132v86h522v-86h-522z" />
    <glyph glyph-name="greater" unicode="&#x3e;" horiz-adv-x="627" 
d="M60 534l544 -275l-544 -273v97l355 176l-355 179v96z" />
    <glyph glyph-name="question" unicode="?" horiz-adv-x="408" 
d="M51 664q337 0 337 -181q0 -81 -64 -130q-64 -51 -179 -64l-7 -127h-62l-11 199q114 2 173 32q61 30 61 79q0 106 -242 106zM107 104q27 0 46 -16t19 -40t-19 -40t-46 -16t-46 16t-19 40q0 23 20 40q19 16 45 16z" />
    <glyph glyph-name="at" unicode="@" horiz-adv-x="929" 
d="M464 679q80 0 155 -27q78 -30 137 -80q63 -54 100 -136q37 -83 37 -188q0 -78 -18 -139q-18 -63 -45 -94q-26 -31 -53 -49q-28 -17 -50 -17q-82 0 -88 122q-39 -42 -89 -62q-51 -22 -107 -22q-46 0 -87 16q-41 14 -79 44q-35 27 -59 79q-23 51 -23 111q0 81 39 140
q38 59 93 84q55 26 116 26q54 0 106 -21q51 -20 89 -63v71h85v-366q0 -58 7 -79q8 -23 24 -23q36 0 68 74q31 72 31 168q0 172 -109 281t-280 109q-169 0 -278 -109q-110 -110 -110 -281q0 -176 107 -283q107 -108 281 -108q101 0 184 44l19 -36q-94 -49 -203 -49
q-62 0 -121 15q-62 16 -116 49q-58 36 -98 83q-41 49 -67 123q-26 75 -26 162q0 103 38 188q37 83 99 136q60 51 136 80q75 27 155 27zM460 71q80 0 129 46q49 45 49 120t-49 121q-49 45 -129 45q-78 0 -128 -45q-50 -47 -50 -121q0 -75 50 -120q49 -46 128 -46z" />
    <glyph glyph-name="A" unicode="A" horiz-adv-x="672" 
d="M573 0l-60 146h-354l-60 -146h-93l273 664h114l273 -664h-93zM195 232h282l-141 343z" />
    <glyph glyph-name="B" unicode="B" horiz-adv-x="686" 
d="M538 354q113 -47 113 -157q0 -98 -79 -150t-213 -52q-146 0 -288 5v664q108 7 298 7q117 0 187 -46t70 -131q0 -97 -88 -140zM537 493q0 92 -178 92q-51 0 -201 -3v-189h223q156 0 156 100zM359 81q203 0 203 116q0 52 -44 81q-46 29 -130 29h-230v-224q200 -2 201 -2z
" />
    <glyph glyph-name="C" unicode="C" horiz-adv-x="667" 
d="M364 -13q-58 0 -115 20q-57 19 -105 60q-50 41 -78 109q-30 69 -30 157q0 82 29 151q29 68 75 110q46 40 105 63q57 22 120 22q83 0 155 -39q73 -39 110 -111l-67 -65q-26 66 -79 97q-55 32 -122 32q-105 0 -171 -72t-66 -188q0 -119 66 -189q65 -71 173 -71q67 0 122 31
q57 31 85 86l72 -52q-44 -76 -120 -113q-78 -38 -159 -38z" />
    <glyph glyph-name="D" unicode="D" horiz-adv-x="685" 
d="M297 670q70 0 133 -20q62 -20 112 -59q51 -40 79 -105t28 -151q0 -76 -19 -133q-20 -59 -53 -97q-32 -38 -78 -64q-47 -25 -96 -36q-52 -11 -106 -11t-128 2q-14 0 -32.5 0.5t-28.5 1t-16 0.5l-21 2v664q64 6 226 6zM297 80q263 0 263 255q0 120 -68 185q-68 64 -195 64
q-49 0 -139 -2v-500q90 -2 139 -2z" />
    <glyph glyph-name="E" unicode="E" horiz-adv-x="614" 
d="M578 578h-420v-185h356v-86h-356v-221h420v-86h-507v664h507v-86z" />
    <glyph glyph-name="F" unicode="F" horiz-adv-x="596" 
d="M578 578h-420v-185h356v-86h-356v-307h-87v664h507v-86z" />
    <glyph glyph-name="G" unicode="G" horiz-adv-x="713" 
d="M309 363h344v-363h-82v119q-31 -66 -92 -99t-138 -33q-50 0 -104 20q-51 19 -98 60q-45 39 -74 109t-29 157q0 82 29 151q29 68 75 110q46 40 105 63q57 22 120 22q83 0 155 -39q73 -39 110 -111l-67 -65q-26 66 -79 97q-55 32 -122 32q-105 0 -171 -72t-66 -188
q0 -127 67 -193q67 -67 167 -67q78 0 134 55t74 150h-258v85z" />
    <glyph glyph-name="H" unicode="H" horiz-adv-x="713" 
d="M555 664h87v-664h-87v307h-397v-307h-87v664h87v-271h397v271z" />
    <glyph glyph-name="I" unicode="I" horiz-adv-x="229" 
d="M71 0v664h87v-664h-87z" />
    <glyph glyph-name="J" unicode="J" horiz-adv-x="638" 
d="M277 -13q-83 0 -155 39q-72 38 -110 110l67 65q26 -63 80 -95q54 -33 118 -33q101 0 156 54q56 54 56 157v380h87v-385q0 -144 -82 -217q-82 -75 -217 -75z" />
    <glyph glyph-name="K" unicode="K" horiz-adv-x="655" 
d="M554 0l-224 308l-172 -189v-119h-87v664h87v-416l377 416h115l-261 -289l271 -375h-106z" />
    <glyph glyph-name="L" unicode="L" horiz-adv-x="571" 
d="M158 86h398v-86h-485v664h87v-578z" />
    <glyph glyph-name="M" unicode="M" horiz-adv-x="928" 
d="M743 664h114v-664h-87v524l-261 -524h-90l-261 523v-523h-87v664h114l279 -561z" />
    <glyph glyph-name="N" unicode="N" horiz-adv-x="775" 
d="M617 664h87v-664h-100l-446 542v-542h-87v664h100l446 -543v543z" />
    <glyph glyph-name="O" unicode="O" horiz-adv-x="718" 
d="M359 -13q-57 0 -114 20t-103 60q-49 41 -77 109q-29 70 -29 157q0 82 29 151q29 68 75 110q47 41 103 63q54 22 116 22q61 0 117 -22q57 -23 103 -63q46 -42 75 -110q28 -66 28 -151q0 -87 -29 -157q-28 -67 -76 -109q-48 -41 -103 -60q-57 -20 -115 -20zM359 73
q93 0 164 66q70 66 70 194q0 123 -70 192q-71 68 -164 68q-92 0 -163 -68q-71 -69 -71 -192q0 -128 71 -194q70 -66 163 -66z" />
    <glyph glyph-name="P" unicode="P" horiz-adv-x="652" 
d="M324 670q308 0 308 -212q0 -208 -308 -208h-166v-250h-87v664q74 6 253 6zM324 336q120 0 170 30q49 30 49 92q0 64 -49 95t-170 31q-62 0 -166 -2v-246h166z" />
    <glyph glyph-name="Q" unicode="Q" horiz-adv-x="717" 
d="M717 0l-63 -59l-109 102q-83 -56 -186 -56q-57 0 -114 20t-103 60q-49 41 -77 109q-29 70 -29 157q0 82 29 151q29 68 75 110q47 41 103 63q54 22 116 22q61 0 117 -22q57 -23 103 -63q46 -42 75 -110q28 -66 28 -151q0 -141 -73 -232zM359 73q65 0 120 32l-152 143
l64 56l152 -141q50 68 50 170q0 123 -70 192q-71 68 -164 68q-92 0 -163 -68q-71 -69 -71 -192q0 -128 71 -194q70 -66 163 -66z" />
    <glyph glyph-name="R" unicode="R" horiz-adv-x="665" 
d="M641 0h-106l-179 251q-7 -1 -32 -1h-166v-250h-87v664q74 6 253 6q308 0 308 -212q0 -158 -179 -196zM158 582v-246h166q120 0 170 30q49 30 49 92q0 64 -49 95t-170 31q-62 0 -166 -2z" />
    <glyph glyph-name="S" unicode="S" horiz-adv-x="652" 
d="M333 -13q-117 0 -197 50q-81 50 -99 131l83 40q6 -65 65 -100t148 -35q95 0 145 28q51 28 51 76q0 41 -42 70q-45 28 -156 56q-147 38 -211 82q-64 45 -64 120q0 77 79 126q78 48 194 48q113 0 187 -48q72 -50 87 -137l-84 -40q-2 70 -52 104q-53 35 -138 35
q-81 0 -132 -27q-52 -27 -52 -67q0 -31 48 -58q44 -26 160 -55q144 -38 205 -82q60 -46 60 -127q0 -89 -78 -139q-78 -51 -207 -51z" />
    <glyph glyph-name="T" unicode="T" horiz-adv-x="595" 
d="M580 664v-86h-239v-578h-87v578h-239v86h565z" />
    <glyph glyph-name="U" unicode="U" horiz-adv-x="723" 
d="M362 -13q-134 0 -217 75q-83 74 -83 217v385h87v-380q0 -103 56 -157q55 -54 157 -54q100 0 156 54t56 157v380h87v-385q0 -144 -82 -217q-83 -75 -217 -75z" />
    <glyph glyph-name="V" unicode="V" horiz-adv-x="672" 
d="M573 664h93l-273 -664h-114l-273 664h93l237 -575z" />
    <glyph glyph-name="W" unicode="W" horiz-adv-x="966" 
d="M868 664h90l-201 -664h-109l-165 556l-166 -556h-109l-200 664h91l164 -549l164 549h111l165 -549z" />
    <glyph glyph-name="X" unicode="X" horiz-adv-x="629" 
d="M638 0h-108l-215 281l-216 -281h-108l269 352l-238 312h107l186 -240l185 240h107l-237 -312z" />
    <glyph glyph-name="Y" unicode="Y" horiz-adv-x="700" 
d="M690 664l-296 -424v-240h-87v239l-297 425h105l235 -338l235 338h105z" />
    <glyph glyph-name="Z" unicode="Z" horiz-adv-x="587" 
d="M554 664v-86l-409 -494l401 2v-86h-513v84l410 494h-404v86h515z" />
    <glyph glyph-name="bracketleft" unicode="[" horiz-adv-x="307" 
d="M275 673h-117v-682h117v-86h-204v854h204v-86z" />
    <glyph glyph-name="backslash" unicode="\" horiz-adv-x="342" 
d="M220 -142l-186 913h88l186 -913h-88z" />
    <glyph glyph-name="bracketright" unicode="]" horiz-adv-x="307" 
d="M236 759v-854h-204v86h117v682h-117v86h204z" />
    <glyph glyph-name="asciicircum" unicode="^" horiz-adv-x="780" 
d="M92 155l-69 50l367 485l367 -485l-70 -50l-297 389z" />
    <glyph glyph-name="underscore" unicode="_" horiz-adv-x="500" 
d="M0 -86v86h500v-86h-500z" />
    <glyph glyph-name="grave" unicode="`" horiz-adv-x="85" 
d="M85 711h-85l-97 135h103z" />
    <glyph glyph-name="a" unicode="a" horiz-adv-x="619" 
d="M474 474h85v-474h-85v71q-36 -42 -88 -63t-107 -21q-46 0 -87 16q-41 14 -79 44q-35 27 -59 79q-23 51 -23 111q0 81 39 140q38 59 93 84q55 26 116 26q53 0 106 -21q51 -20 89 -63v71zM296 71q80 0 129 46q49 45 49 120t-49 121q-49 45 -129 45q-78 0 -128 -45
q-50 -47 -50 -121q0 -75 50 -120q49 -46 128 -46z" />
    <glyph glyph-name="b" unicode="b" horiz-adv-x="619" 
d="M340 487q60 0 117 -26q54 -25 93 -84q38 -59 38 -140q0 -63 -22 -111q-23 -50 -59 -79q-39 -30 -79 -44q-42 -16 -88 -16q-54 0 -107 21q-52 21 -88 63v-71h-85v664h85v-261q38 43 89 63q53 21 106 21zM323 71q80 0 129 46q49 45 49 120t-49 121q-50 45 -129 45
q-78 0 -128 -45q-50 -47 -50 -121q0 -75 50 -120q49 -46 128 -46z" />
    <glyph glyph-name="c" unicode="c" horiz-adv-x="546" 
d="M296 -13q-67 0 -124 25q-58 26 -99 84q-42 58 -42 141q0 121 80 186q79 64 185 64q63 0 124 -26q57 -25 96 -76l-64 -61q-24 40 -66 59q-45 20 -90 20q-72 0 -124 -42q-54 -43 -54 -124t54 -123q53 -43 124 -43q50 0 93 21t66 63l71 -49q-34 -57 -98 -88
q-62 -31 -132 -31z" />
    <glyph glyph-name="d" unicode="d" horiz-adv-x="619" 
d="M474 664h85v-664h-85v71q-36 -42 -88 -63t-107 -21q-46 0 -87 16q-41 14 -79 44q-35 27 -59 79q-23 51 -23 111q0 81 39 140q38 59 93 84q55 26 116 26q53 0 106 -21q51 -20 89 -63v261zM296 71q80 0 129 46q49 45 49 120t-49 121q-49 45 -129 45q-78 0 -128 -45
q-50 -47 -50 -121q0 -75 50 -120q49 -46 128 -46z" />
    <glyph glyph-name="e" unicode="e" horiz-adv-x="591" 
d="M296 487q128 0 201 -79q73 -78 62 -206h-438q12 -65 63 -98q50 -34 112 -34q49 0 92 22q44 21 67 62l71 -49q-34 -57 -98 -88q-63 -30 -132 -30q-67 0 -124 25q-58 26 -99 84q-42 58 -42 141q0 121 80 186q79 64 185 64zM296 404q-57 0 -107 -30q-49 -31 -65 -89h344
q-16 58 -65 89q-49 30 -107 30z" />
    <glyph glyph-name="f" unicode="f" horiz-adv-x="449" 
d="M234 517v-43h161v-84h-161v-390h-85v390h-121v84h121v53q0 69 46 111q47 41 115 41q46 0 86 -23q38 -23 58 -62l-73 -45q-8 20 -26 33q-19 13 -45 13q-76 0 -76 -78z" />
    <glyph glyph-name="g" unicode="g" horiz-adv-x="619" 
d="M474 474h85v-448q0 -113 -77 -169q-78 -57 -199 -57q-84 0 -147 29q-62 29 -85 79l70 55q20 -80 168 -80q85 0 135 36q50 35 50 107v45q-36 -42 -88 -63t-107 -21q-46 0 -87 16q-41 14 -79 44q-35 27 -59 79q-23 51 -23 111q0 81 39 140q38 59 93 84q55 26 116 26
q53 0 106 -21q51 -20 89 -63v71zM296 71q80 0 129 46q49 45 49 120t-49 121q-49 45 -129 45q-78 0 -128 -45q-50 -47 -50 -121q0 -75 50 -120q49 -46 128 -46z" />
    <glyph glyph-name="h" unicode="h" horiz-adv-x="623" 
d="M349 488q96 0 159 -54q62 -54 62 -158v-275l-85 -1v245q0 159 -151 159q-76 0 -132 -55q-57 -55 -57 -154v-195h-85v664h85v-276q36 50 90 75q53 25 114 25z" />
    <glyph glyph-name="i" unicode="i" horiz-adv-x="205" 
d="M103 521q-27 0 -46 16t-19 40q0 23 20 40q19 16 45 16q27 0 46 -16t19 -40t-19 -40t-46 -16zM60 0v474h85v-474h-85z" />
    <glyph glyph-name="j" unicode="j" horiz-adv-x="205" 
d="M103 521q-27 0 -46 16t-19 40q0 23 20 40q19 16 45 16q27 0 46 -16t19 -40t-19 -40t-46 -16zM-16 -200q-47 0 -86 24q-38 22 -58 61l73 45q7 -20 27 -33q19 -13 44 -13q76 0 76 78v512h85v-522q0 -70 -46 -110q-46 -42 -115 -42z" />
    <glyph glyph-name="k" unicode="k" horiz-adv-x="566" 
d="M462 0l-191 227l-126 -107v-120h-85v664h85v-435l290 245h129l-229 -193l236 -281h-109z" />
    <glyph glyph-name="l" unicode="l" horiz-adv-x="205" 
d="M60 0v664h85v-664h-85z" />
    <glyph glyph-name="m" unicode="m" horiz-adv-x="876" 
d="M641 487q80 0 131 -52q51 -53 51 -143v-292h-85v274q0 61 -28 95t-81 34q-65 0 -105 -45q-40 -44 -40 -125v-233h-85v274q0 61 -28 95t-81 34q-64 0 -105 -45q-40 -44 -40 -125v-233h-85v474h85v-75q55 88 162 88q53 0 97 -24q43 -25 64 -72q60 96 173 96z" />
    <glyph glyph-name="n" unicode="n" horiz-adv-x="623" 
d="M349 488q96 0 159 -54q62 -54 62 -158v-275l-85 -1v245q0 159 -151 159q-76 0 -132 -55q-57 -55 -57 -154v-195h-85v474h85v-86q36 50 90 75q53 25 114 25z" />
    <glyph glyph-name="o" unicode="o" horiz-adv-x="592" 
d="M296 -13q-67 0 -124 25q-58 26 -99 84q-42 58 -42 141q0 121 80 186q79 64 185 64t185 -64q80 -65 80 -186q0 -82 -41 -141q-42 -59 -100 -84q-57 -25 -124 -25zM296 71q71 0 124 43q54 42 54 123q0 80 -53 124q-54 42 -125 42q-72 0 -124 -42q-54 -43 -54 -124t54 -123
q53 -43 124 -43z" />
    <glyph glyph-name="p" unicode="p" horiz-adv-x="619" 
d="M340 487q60 0 117 -26q54 -25 93 -84q38 -59 38 -140q0 -63 -22 -111q-23 -50 -59 -79q-39 -30 -79 -44q-42 -16 -88 -16q-54 0 -107 21q-52 21 -88 63v-256h-85v659h85v-71q38 43 89 63q53 21 106 21zM323 71q80 0 129 46q49 45 49 120t-49 121q-50 45 -129 45
q-78 0 -128 -45q-50 -47 -50 -121q0 -75 50 -120q49 -46 128 -46z" />
    <glyph glyph-name="q" unicode="q" horiz-adv-x="619" 
d="M474 474h85v-659h-85v256q-36 -42 -88 -63t-107 -21q-46 0 -87 16q-41 14 -79 44q-35 27 -59 79q-23 51 -23 111q0 81 39 140q38 59 93 84q55 26 116 26q53 0 106 -21q51 -20 89 -63v71zM296 71q80 0 129 46q49 45 49 120t-49 121q-49 45 -129 45q-78 0 -128 -45
q-50 -47 -50 -121q0 -75 50 -120q49 -46 128 -46z" />
    <glyph glyph-name="r" unicode="r" horiz-adv-x="573" 
d="M345 486q91 0 149 -51q57 -51 56 -135l-85 -43q7 66 -34 106q-43 39 -108 39q-73 0 -126 -50q-52 -49 -52 -139v-213h-85v474h85v-86q39 48 91 73q53 25 109 25z" />
    <glyph glyph-name="s" unicode="s" horiz-adv-x="555" 
d="M286 -13q-98 0 -173 39q-75 38 -89 98l78 34q4 -39 59 -63q53 -25 125 -25q70 0 113 18q44 18 44 44q0 17 -10 27t-48 22q-37 12 -110 24q-126 21 -180 52q-56 32 -56 95q0 64 69 100q70 35 167 35q94 0 160 -36q65 -37 78 -99l-79 -34q-2 41 -46 64q-44 22 -113 22
q-63 0 -107 -15t-44 -36q0 -20 40 -35q37 -16 148 -34q115 -19 166 -52q50 -32 50 -89q0 -81 -67 -118q-68 -38 -175 -38z" />
    <glyph glyph-name="t" unicode="t" horiz-adv-x="449" 
d="M381 117l73 -45q-20 -39 -58 -61q-39 -24 -86 -24q-68 0 -115 42q-46 40 -46 110v251h-121v84h121v98l85 51v-149h161v-84h-161v-241q0 -78 76 -78q26 0 45 13q18 13 26 33z" />
    <glyph glyph-name="u" unicode="u" horiz-adv-x="623" 
d="M478 474h85v-474h-85v84q-36 -45 -90 -71t-108 -26q-101 0 -163 58q-63 59 -63 183v246h85v-246q0 -80 44 -118q43 -39 109 -39q80 0 133 50t53 139v214z" />
    <glyph glyph-name="v" unicode="v" horiz-adv-x="585" 
d="M493 474h93l-238 -474h-110l-239 474h94l200 -398z" />
    <glyph glyph-name="w" unicode="w" horiz-adv-x="902" 
d="M813 474h90l-190 -474h-110l-151 371l-152 -371h-110l-191 474h91l155 -391l157 391h99l157 -391z" />
    <glyph glyph-name="x" unicode="x" horiz-adv-x="545" 
d="M549 0h-112l-164 184l-165 -184h-112l221 246l-204 228h112l148 -165l148 165h112l-204 -228z" />
    <glyph glyph-name="y" unicode="y" horiz-adv-x="590" 
d="M497 474h94l-337 -659h-94l95 185l-256 474h95l207 -383z" />
    <glyph glyph-name="z" unicode="z" horiz-adv-x="537" 
d="M505 474v-84l-346 -306h341v-84h-468v84l347 306h-338v84h464z" />
    <glyph glyph-name="braceleft" unicode="{" horiz-adv-x="333" 
d="M301 -100q-207 0 -212 143q-1 42 33 115q34 72 34 94q0 50 -101 50v98q5 0 16 0.5t15 1.5q20 3 28 5q18 5 26 14q8 10 8 24q0 17 -28 76q-27 58 -29 105q-1 70 49 105q50 33 161 33v-86q-62 0 -91 -15q-29 -17 -29 -57q0 -33 31 -94q31 -62 31 -91q0 -30 -25 -43
q-28 -15 -59 -16v-20q33 -1 62 -23q29 -21 29 -54q0 -29 -36 -99q-36 -73 -35 -105q2 -43 31 -59q29 -17 91 -17v-85z" />
    <glyph glyph-name="bar" unicode="|" horiz-adv-x="229" 
d="M71 -142v832h87v-832h-87z" />
    <glyph glyph-name="braceright" unicode="}" horiz-adv-x="331" 
d="M31 -100v85q61 0 92 17q28 16 30 59q1 32 -35 105q-36 70 -36 99q0 33 29 54q29 22 62 23v20q-31 1 -59 16q-25 13 -25 43q0 29 31 91q31 61 31 94q0 41 -28 57q-29 15 -92 15v86q111 0 161 -33q50 -35 49 -105q-2 -47 -29 -105q-28 -59 -28 -76q0 -15 9 -24q6 -9 25 -14
q9 -3 29 -5q4 -1 14.5 -1.5t15.5 -0.5v-98q-101 0 -101 -50q0 -22 34 -94q34 -73 33 -115q-5 -143 -212 -143z" />
    <glyph glyph-name="asciitilde" unicode="~" horiz-adv-x="773" 
d="M549 146q-37 0 -76 14q-34 12 -65 35q-27 19 -56 41q-34 23 -59 34q-33 14 -63 14q-38 0 -70 -20q-31 -21 -31 -50h-74q0 68 49 116q49 47 120 47q47 0 94 -21q44 -22 76 -48q31 -26 71 -47q40 -22 78 -22q43 0 72 20t29 51h75q0 -70 -47 -117q-49 -47 -123 -47z" />
    <glyph glyph-name="uni00A0" unicode="&#xa0;" horiz-adv-x="277" 
 />
    <glyph glyph-name="exclamdown" unicode="&#xa1;" horiz-adv-x="240" 
d="M120 482q27 0 46 -16t19 -40q0 -23 -19 -39q-20 -17 -46 -17q-25 0 -45 17t-20 39q0 24 19 40t46 16zM89 312h62l25 -502h-112z" />
    <glyph glyph-name="cent" unicode="&#xa2;" horiz-adv-x="667" 
d="M643 138q-44 -75 -119 -112q-77 -38 -158 -39l-9 -129h-87l10 139q-105 25 -174 111q-70 83 -70 225q0 150 86 241q85 90 206 103l7 94h87l-7 -96q71 -11 126 -47q58 -38 89 -99l-67 -65q-42 106 -154 125l-37 -516q64 1 118 33q52 30 81 84zM125 333q0 -95 43 -160
q44 -67 118 -89l36 506q-89 -14 -143 -83q-54 -71 -54 -174z" />
    <glyph glyph-name="sterling" unicode="&#xa3;" horiz-adv-x="648" 
d="M218 86h399v-86h-572v86h84q20 51 20 102q0 56 -31 130h-73v84h38q-20 51 -20 88q0 88 79 137q79 50 200 50q96 0 166 -33q70 -34 93 -96l-82 -29q-10 31 -59 52q-49 20 -118 20q-88 0 -138 -29q-49 -30 -51 -80q0 -14 23 -80h241v-84h-212q31 -97 31 -130
q0 -52 -18 -102z" />
    <glyph glyph-name="currency" unicode="&#xa4;" horiz-adv-x="592" 
d="M518 491q43 -64 43 -159t-43 -159l43 -43l-57 -59l-42 41q-72 -54 -166 -54t-166 54l-42 -41l-57 59l43 43q-43 64 -43 159t43 159l-43 43l57 59l42 -41q72 54 166 54t166 -54l42 41l57 -59zM296 142q71 0 124 49q54 48 54 141q0 92 -53 142q-54 48 -125 48
q-72 0 -124 -48q-54 -50 -54 -142q0 -93 54 -141q53 -49 124 -49z" />
    <glyph glyph-name="yen" unicode="&#xa5;" horiz-adv-x="700" 
d="M690 664l-247 -354h112v-85h-161v-47h161v-84h-161v-94h-87v94h-162v84h162v47h-162v85h112l-247 354h105l235 -338l235 338h105z" />
    <glyph glyph-name="brokenbar" unicode="&#xa6;" horiz-adv-x="229" 
d="M71 360v330h87v-330h-87zM71 -142v330h87v-330h-87z" />
    <glyph glyph-name="section" unicode="&#xa7;" horiz-adv-x="654" 
d="M523 113q77 -50 77 -128q0 -77 -78 -124q-80 -48 -196 -48t-189 50q-73 49 -85 140l83 39q-1 -68 50 -106q49 -37 143 -37q83 0 135 26q50 26 50 66q0 35 -46 59q-47 24 -165 54q-146 38 -205 82q-60 45 -60 127q0 100 97 151q-76 48 -76 128q0 77 79 125q79 47 194 47
q116 0 190 -50q71 -49 85 -140l-83 -39q1 68 -49 106q-50 37 -145 37q-84 0 -133 -25q-51 -25 -51 -67q0 -35 46 -59q47 -24 164 -54q146 -38 205 -82q60 -45 60 -127q0 -100 -97 -151zM124 314q0 -43 43 -70q42 -29 157 -57q53 -13 78 -22q63 7 98 35q33 26 33 63
q0 43 -42 71q-45 28 -158 56q-4 1 -79 22q-61 -7 -96 -34q-34 -27 -34 -64z" />
    <glyph glyph-name="dieresis" unicode="&#xa8;" horiz-adv-x="398" 
d="M114 703q-27 0 -46 16t-19 40q0 23 20 40q19 16 45 16q27 0 46 -16t19 -40t-19 -40t-46 -16zM284 703q-27 0 -46 16t-19 40q0 23 20 40q19 16 45 16q27 0 46 -16t19 -40t-19 -40t-46 -16z" />
    <glyph glyph-name="copyright" unicode="&#xa9;" 
d="M445 -13q-73 0 -145 20q-70 19 -130 60q-61 40 -97 109q-37 68 -37 157q0 83 36 151q35 66 95 109q58 40 131 63q69 22 147 22q77 0 147 -22q72 -23 130 -63q60 -43 95 -109q36 -68 36 -151q0 -88 -36 -157q-37 -69 -97 -109q-62 -41 -131 -60q-72 -20 -144 -20zM445 29
q67 0 131 18q60 16 117 52q54 35 87 96q33 60 33 138q0 74 -32 133q-33 58 -86 96q-51 35 -117 55q-63 19 -133 19q-69 0 -132 -19q-68 -20 -118 -55q-55 -38 -86 -96q-33 -60 -33 -133q0 -78 33 -138q33 -62 88 -96q57 -36 118 -52q63 -18 130 -18zM453 115q-81 0 -143 56
q-63 55 -63 162q0 101 62 160q61 57 145 57q55 0 99 -25q46 -26 68 -70l-44 -43q-15 39 -49 61q-34 21 -76 21q-63 0 -105 -43t-42 -118q0 -77 42 -119t106 -42q41 0 75 19q35 20 54 55l48 -35q-29 -48 -76 -71q-49 -25 -101 -25z" />
    <glyph glyph-name="ordfeminine" unicode="&#xaa;" horiz-adv-x="494" 
d="M369 669h65v-398h-65v60q-55 -70 -149 -70q-73 0 -131 55q-58 54 -58 154q0 99 58 154q56 55 131 55q92 0 149 -71v61zM232 325q56 0 96 37q41 38 41 108t-41 108q-40 37 -96 37t-95 -39q-40 -40 -40 -106q0 -67 40 -106q39 -39 95 -39z" />
    <glyph glyph-name="guillemotleft" unicode="&#xab;" horiz-adv-x="592" 
d="M273 -13l-250 250l250 250l62 -60l-192 -190l192 -190zM493 -13l-250 250l250 250l62 -60l-192 -190l192 -190z" />
    <glyph glyph-name="logicalnot" unicode="&#xac;" horiz-adv-x="637" 
d="M577 304v-304h-87v218h-435v86h522z" />
    <glyph glyph-name="uni00AD" unicode="&#xad;" horiz-adv-x="369" 
d="M55 218v86h260v-86h-260z" />
    <glyph glyph-name="registered" unicode="&#xae;" 
d="M445 -13q-73 0 -145 20q-70 19 -130 60q-61 40 -97 109q-37 68 -37 157q0 83 36 151t95 110q58 40 131 63q69 22 147 22q77 0 147 -22q72 -23 130 -63q59 -42 95 -110t36 -151q0 -88 -36 -157q-37 -69 -97 -109q-62 -41 -131 -60q-72 -20 -144 -20zM445 29q67 0 131 18
q60 16 117 52q54 35 87 96q33 60 33 138q0 97 -56 168t-138 104q-84 32 -174 32q-69 0 -132 -19q-65 -20 -118 -56q-54 -36 -86 -95q-33 -60 -33 -134q0 -78 33 -138q33 -62 88 -96q57 -36 118 -52q63 -18 130 -18zM283 122v417q36 4 153 4q201 0 201 -134q0 -96 -113 -119
l123 -168h-69l-114 156q-6 -1 -28 -1h-96v-155h-57zM340 334h108q130 0 130 75q0 78 -130 78h-48q-17 -1 -41 -1q-11 -1 -19 -1v-151z" />
    <glyph glyph-name="macron" unicode="&#xaf;" horiz-adv-x="262" 
d="M5 711v72h252v-72h-252z" />
    <glyph glyph-name="degree" unicode="&#xb0;" horiz-adv-x="436" 
d="M219 320q-74 0 -129 53q-54 53 -54 126q0 74 55 126q53 52 128 52t128 -52q54 -53 54 -126t-53 -126q-55 -53 -129 -53zM219 387q43 0 74 33q31 32 31 79q0 46 -31 78q-31 33 -74 33t-74 -33q-32 -34 -32 -78q0 -45 32 -79q31 -33 74 -33z" />
    <glyph glyph-name="plusminus" unicode="&#xb1;" horiz-adv-x="586" 
d="M337 464h217v-85h-217v-200h-87v200h-218v85h218v200h87v-200zM32 0v86h522v-86h-522z" />
    <glyph glyph-name="uni00B2" unicode="&#xb2;" horiz-adv-x="515" 
d="M484 638q0 -70 -69 -138q-71 -68 -225 -150h278v-68h-404l-14 68q364 174 364 288q0 49 -43 80t-111 31q-69 0 -115 -31q-47 -32 -47 -74q0 -32 42 -70l-42 -54q-70 58 -70 124q0 74 69 123q67 49 163 49q94 0 159 -49q65 -50 65 -129z" />
    <glyph glyph-name="uni00B3" unicode="&#xb3;" horiz-adv-x="527" 
d="M368 559q130 -40 130 -142q0 -67 -69 -107q-71 -41 -165 -41q-48 0 -94 11q-45 11 -86 43q-42 33 -57 84l68 15q31 -85 169 -85q68 0 115 25q48 26 48 64q0 43 -55 70q-57 26 -157 26h-24l-12 65h31q85 0 139 26q52 25 52 63q0 31 -38 52q-38 20 -99 20q-60 0 -103 -20
q-42 -19 -54 -58l-66 25q18 59 81 90q61 31 142 31q86 0 147 -36q61 -37 61 -96q0 -87 -104 -125z" />
    <glyph glyph-name="acute" unicode="&#xb4;" horiz-adv-x="85" 
d="M0 711l79 135h103l-97 -135h-85z" />
    <glyph glyph-name="uni00B5" unicode="&#xb5;" horiz-adv-x="623" 
d="M478 474h85v-474h-85v84q-36 -45 -90 -71t-108 -26q-86 0 -141 39v-198h-85v646h85v-246q0 -80 44 -118q43 -39 109 -39q80 0 133 50t53 139v214z" />
    <glyph glyph-name="paragraph" unicode="&#xb6;" horiz-adv-x="608" 
d="M340 662v2h40v-664h-40v285q-40 -15 -78 -15q-84 0 -142 60q-60 58 -60 142q0 85 60 145q59 60 142 60q42 0 78 -15zM452 664h85v-664h-85v664z" />
    <glyph glyph-name="periodcentered" unicode="&#xb7;" horiz-adv-x="228" 
d="M115 225q-27 0 -46 16t-19 40q0 23 20 40q19 16 45 16q27 0 46 -16t19 -40t-19 -40t-46 -16z" />
    <glyph glyph-name="cedilla" unicode="&#xb8;" horiz-adv-x="325" 
d="M54 -179l-13 53q128 0 128 23q0 9 -32 15q-29 6 -65 4l38 84h58l-24 -45q57 0 93 -15q36 -16 36 -47q0 -36 -50 -54q-49 -18 -169 -18z" />
    <glyph glyph-name="uni00B9" unicode="&#xb9;" horiz-adv-x="564" 
d="M366 346h177v-68h-419l-16 68h190v299q-77 -114 -240 -142l-35 68q116 12 189 73q74 62 86 156h68v-454z" />
    <glyph glyph-name="ordmasculine" unicode="&#xba;" horiz-adv-x="467" 
d="M233 261q-79 0 -141 54q-61 52 -61 155q0 102 61 156q62 53 141 53q80 0 142 -53q61 -54 61 -156q0 -103 -61 -155q-61 -54 -142 -54zM233 325q55 0 95 37q41 38 41 108t-41 108q-40 37 -95 37q-54 0 -94 -37q-41 -38 -41 -108t41 -108q40 -37 94 -37z" />
    <glyph glyph-name="guillemotright" unicode="&#xbb;" horiz-adv-x="592" 
d="M99 -13l-62 60l192 190l-192 190l62 60l250 -250zM319 -13l-62 60l192 190l-192 190l62 60l250 -250z" />
    <glyph glyph-name="onequarter" unicode="&#xbc;" horiz-adv-x="1316" 
d="M543 210v-68h-419l-16 68h190v299q-77 -114 -240 -142l-35 68q116 12 189 73q74 62 86 156h68v-454h177zM784 664h72l-261 -664h-71zM1300 163v-68h-128v-95h-68v95h-310v68q95 36 146 140q50 103 51 243l67 -37q-5 -113 -43 -202q-41 -91 -106 -144h195v218h68v-218h128
z" />
    <glyph glyph-name="onehalf" unicode="&#xbd;" horiz-adv-x="1331" 
d="M543 210v-68h-419l-16 68h190v299q-77 -114 -240 -142l-35 68q116 12 189 73q74 62 86 156h68v-454h177zM784 664h72l-261 -664h-71zM1300 357q0 -71 -69 -138q-71 -67 -225 -150h278v-68h-404l-14 68q364 174 364 288q0 49 -43 80t-111 31q-69 0 -115 -31
q-47 -32 -47 -74q0 -33 42 -70l-42 -54q-70 58 -70 124q0 73 69 123q67 49 163 49q94 0 159 -49q65 -50 65 -129z" />
    <glyph glyph-name="threequarters" unicode="&#xbe;" horiz-adv-x="1279" 
d="M368 422q130 -40 130 -142q0 -66 -69 -107q-71 -41 -165 -41q-48 0 -94 11q-45 11 -86 43q-42 33 -57 84l68 15q31 -85 169 -85q68 0 115 25q48 25 48 64q0 43 -55 70q-57 26 -157 26h-24l-12 65h31q85 0 139 26q52 25 52 63q0 31 -38 52q-38 20 -99 20q-60 0 -103 -20
q-42 -19 -54 -58l-66 25q18 58 81 90q61 31 142 31q86 0 147 -36q61 -37 61 -96q0 -87 -104 -125zM747 664h72l-261 -664h-71zM1263 163v-68h-128v-95h-68v95h-310v68q95 36 146 140q49 103 51 243l67 -37q-5 -113 -43 -202q-41 -91 -106 -144h195v218h68v-218h128z" />
    <glyph glyph-name="questiondown" unicode="&#xbf;" horiz-adv-x="421" 
d="M301 370q-25 0 -45 17t-20 39q0 23 20 40q19 16 45 16q27 0 46 -16t19 -40q0 -23 -19 -39q-20 -17 -46 -17zM109 2q0 -106 242 -106l6 -86q-337 0 -337 181q0 80 64 131q65 50 179 63l7 127h62l11 -199q-112 -2 -172 -31q-62 -32 -62 -80z" />
    <glyph glyph-name="Agrave" unicode="&#xc0;" horiz-adv-x="672" 
d="M378 711h-85l-97 135h103zM573 0l-60 146h-354l-60 -146h-93l273 664h114l273 -664h-93zM195 232h282l-141 343z" />
    <glyph glyph-name="Aacute" unicode="&#xc1;" horiz-adv-x="672" 
d="M475 846l-97 -135h-85l79 135h103zM573 0l-60 146h-354l-60 -146h-93l273 664h114l273 -664h-93zM195 232h282l-141 343z" />
    <glyph glyph-name="Acircumflex" unicode="&#xc2;" horiz-adv-x="672" 
d="M335 791l-47 -80h-103l97 135h106l97 -135h-103zM573 0l-60 146h-354l-60 -146h-93l273 664h114l273 -664h-93zM195 232h282l-141 343z" />
    <glyph glyph-name="Atilde" unicode="&#xc3;" horiz-adv-x="672" 
d="M282 777q-7 2 -9 1q-5 -2 -6 -9q-2 -6 -4 -21q-1 -9 -1 -37h-87q0 63 29 103q29 38 68 38q34 0 75 -34q40 -34 44 -36q14 -6 18 16q2 18 2 48h87q0 -65 -28 -102q-29 -38 -69 -38q-33 0 -74 35q-42 35 -45 36zM573 0l-60 146h-354l-60 -146h-93l273 664h114l273 -664h-93
zM195 232h282l-141 343z" />
    <glyph glyph-name="Adieresis" unicode="&#xc4;" horiz-adv-x="672" 
d="M236 703q-27 0 -46 16t-19 40q0 23 20 40q19 16 45 16q27 0 46 -16t19 -40t-19 -40t-46 -16zM406 703q-27 0 -46 16t-19 40q0 23 20 40q19 16 45 16q27 0 46 -16t19 -40t-19 -40t-46 -16zM573 0l-60 146h-354l-60 -146h-93l273 664h114l273 -664h-93zM195 232h282
l-141 343z" />
    <glyph glyph-name="Aring" unicode="&#xc5;" horiz-adv-x="672" 
d="M334 707q-60 0 -105 21t-45 51q0 28 46 49q45 21 104 21q60 0 106 -20q44 -21 44 -50q0 -30 -44 -51t-106 -21zM334 815q-21 0 -35 -11q-15 -10 -15 -25t15 -26q14 -12 35 -12q22 0 35 12q14 11 14 26t-14 26q-13 10 -35 10zM573 0l-60 146h-354l-60 -146h-93l273 664
h114l273 -664h-93zM195 232h282l-141 343z" />
    <glyph glyph-name="AE" unicode="&#xc6;" horiz-adv-x="1112" 
d="M1076 578h-653l76 -185h513v-86h-477l91 -221h450v-86h-508l-60 146h-354l-60 -146h-93l273 664h802v-86zM190 232h282l-141 343z" />
    <glyph glyph-name="Ccedilla" unicode="&#xc7;" horiz-adv-x="667" 
d="M643 138q-40 -70 -112 -108q-70 -37 -149 -42l-17 -33q57 0 93 -15q36 -16 36 -47q0 -36 -50 -54q-49 -18 -169 -18l-13 53q128 0 128 23q0 9 -32 15q-29 6 -65 4l33 73q-54 6 -105 29q-48 22 -92 64q-42 39 -68 105q-25 63 -25 146q0 82 29 151q29 68 75 110
q46 40 105 63q57 22 120 22q83 0 155 -39q73 -39 110 -111l-67 -65q-26 66 -79 97q-55 32 -122 32q-105 0 -171 -72t-66 -188q0 -119 66 -189q65 -71 173 -71q67 0 122 31q57 31 85 86z" />
    <glyph glyph-name="Egrave" unicode="&#xc8;" horiz-adv-x="614" 
d="M367 711h-85l-97 135h103zM578 578h-420v-185h356v-86h-356v-221h420v-86h-507v664h507v-86z" />
    <glyph glyph-name="Eacute" unicode="&#xc9;" horiz-adv-x="614" 
d="M464 846l-97 -135h-85l79 135h103zM578 578h-420v-185h356v-86h-356v-221h420v-86h-507v664h507v-86z" />
    <glyph glyph-name="Ecircumflex" unicode="&#xca;" horiz-adv-x="614" 
d="M324 791l-47 -80h-103l97 135h106l97 -135h-103zM578 578h-420v-185h356v-86h-356v-221h420v-86h-507v664h507v-86z" />
    <glyph glyph-name="Edieresis" unicode="&#xcb;" horiz-adv-x="614" 
d="M225 703q-27 0 -46 16t-19 40q0 23 20 40q19 16 45 16q27 0 46 -16t19 -40t-19 -40t-46 -16zM395 703q-27 0 -46 16t-19 40q0 23 20 40q19 16 45 16q27 0 46 -16t19 -40t-19 -40t-46 -16zM578 578h-420v-185h356v-86h-356v-221h420v-86h-507v664h507v-86z" />
    <glyph glyph-name="Igrave" unicode="&#xcc;" horiz-adv-x="229" 
d="M157 711h-85l-97 135h103zM71 0v664h87v-664h-87z" />
    <glyph glyph-name="Iacute" unicode="&#xcd;" horiz-adv-x="229" 
d="M72 711l79 135h103l-97 -135h-85zM71 0v664h87v-664h-87z" />
    <glyph glyph-name="Icircumflex" unicode="&#xce;" horiz-adv-x="229" 
d="M167 846l97 -135h-103l-47 80l-47 -80h-103l97 135h106zM71 0v664h87v-664h-87z" />
    <glyph glyph-name="Idieresis" unicode="&#xcf;" horiz-adv-x="229" 
d="M15 703q-27 0 -46 16t-19 40q0 23 20 40q19 16 45 16q27 0 46 -16t19 -40t-19 -40t-46 -16zM185 703q-27 0 -46 16t-19 40q0 23 20 40q19 16 45 16q27 0 46 -16t19 -40t-19 -40t-46 -16zM71 0v664h87v-664h-87z" />
    <glyph glyph-name="Eth" unicode="&#xd0;" horiz-adv-x="685" 
d="M297 670q70 0 133 -20q62 -20 112 -59q51 -40 79 -105t28 -151q0 -76 -19 -133q-20 -59 -53 -97q-32 -38 -78 -64q-47 -25 -96 -36q-52 -11 -106 -11t-128 2q-14 0 -32.5 0.5t-28.5 1t-16 0.5l-21 2v309h-66v82h66v273q64 6 226 6zM297 80q263 0 263 255q0 120 -68 185
q-68 64 -195 64q-49 0 -139 -2v-191h124v-82h-124v-227q90 -2 139 -2z" />
    <glyph glyph-name="Ntilde" unicode="&#xd1;" horiz-adv-x="775" 
d="M334 777q-7 2 -9 1q-5 -2 -6 -9q-2 -6 -4 -21q-1 -9 -1 -37h-87q0 63 29 103q29 38 68 38q34 0 75 -34q40 -34 44 -36q14 -6 18 16q2 18 2 48h87q0 -65 -28 -102q-29 -38 -69 -38q-33 0 -74 35q-42 35 -45 36zM617 664h87v-664h-100l-446 542v-542h-87v664h100l446 -543
v543z" />
    <glyph glyph-name="Ograve" unicode="&#xd2;" horiz-adv-x="718" 
d="M401 711h-85l-97 135h103zM359 -13q-57 0 -114 20t-103 60q-49 41 -77 109q-29 70 -29 157q0 82 29 151q29 68 75 110q47 41 103 63q54 22 116 22q61 0 117 -22q57 -23 103 -63q46 -42 75 -110q28 -66 28 -151q0 -87 -29 -157q-28 -67 -76 -109q-48 -41 -103 -60
q-57 -20 -115 -20zM359 73q93 0 164 66q70 66 70 194q0 123 -70 192q-71 68 -164 68q-92 0 -163 -68q-71 -69 -71 -192q0 -128 71 -194q70 -66 163 -66z" />
    <glyph glyph-name="Oacute" unicode="&#xd3;" horiz-adv-x="718" 
d="M316 711l79 135h103l-97 -135h-85zM359 -13q-57 0 -114 20t-103 60q-49 41 -77 109q-29 70 -29 157q0 82 29 151q29 68 75 110q47 41 103 63q54 22 116 22q61 0 117 -22q57 -23 103 -63q46 -42 75 -110q28 -66 28 -151q0 -87 -29 -157q-28 -67 -76 -109q-48 -41 -103 -60
q-57 -20 -115 -20zM359 73q93 0 164 66q70 66 70 194q0 123 -70 192q-71 68 -164 68q-92 0 -163 -68q-71 -69 -71 -192q0 -128 71 -194q70 -66 163 -66z" />
    <glyph glyph-name="Ocircumflex" unicode="&#xd4;" horiz-adv-x="718" 
d="M358 791l-47 -80h-103l97 135h106l97 -135h-103zM359 679q61 0 117 -22q57 -23 103 -63q46 -42 75 -110q28 -66 28 -151q0 -87 -29 -157q-28 -67 -76 -109q-48 -41 -103 -60q-57 -20 -115 -20q-57 0 -114 20t-103 60q-49 41 -77 109q-29 70 -29 157q0 82 29 151
q29 68 75 110q47 41 103 63q54 22 116 22zM359 73q93 0 164 66q70 66 70 194q0 123 -70 192q-71 68 -164 68q-92 0 -163 -68q-71 -69 -71 -192q0 -128 71 -194q70 -66 163 -66z" />
    <glyph glyph-name="Otilde" unicode="&#xd5;" horiz-adv-x="718" 
d="M424 706q-33 0 -74 35q-42 35 -45 36q-7 2 -9 1q-4 -2 -6 -9q-2 -6 -4 -21q-1 -9 -1 -37h-87q0 63 29 103q29 38 68 38q34 0 75 -34q40 -34 44 -36q14 -6 18 16q2 18 2 48h87q0 -65 -28 -102q-29 -38 -69 -38zM359 -13q-57 0 -114 20t-103 60q-49 41 -77 109
q-29 70 -29 157q0 82 29 151q29 68 75 110q47 41 103 63q54 22 116 22q61 0 117 -22q57 -23 103 -63q46 -42 75 -110q28 -66 28 -151q0 -87 -29 -157q-28 -67 -76 -109q-48 -41 -103 -60q-57 -20 -115 -20zM359 73q93 0 164 66q70 66 70 194q0 123 -70 192q-71 68 -164 68
q-92 0 -163 -68q-71 -69 -71 -192q0 -128 71 -194q70 -66 163 -66z" />
    <glyph glyph-name="Odieresis" unicode="&#xd6;" horiz-adv-x="718" 
d="M259 703q-27 0 -46 16t-19 40q0 23 20 40q19 16 45 16q27 0 46 -16t19 -40t-19 -40t-46 -16zM429 703q-27 0 -46 16t-19 40q0 23 20 40q19 16 45 16q27 0 46 -16t19 -40t-19 -40t-46 -16zM359 -13q-57 0 -114 20t-103 60q-49 41 -77 109q-29 70 -29 157q0 82 29 151
q29 68 75 110q47 41 103 63q54 22 116 22q61 0 117 -22q57 -23 103 -63q46 -42 75 -110q28 -66 28 -151q0 -87 -29 -157q-28 -67 -76 -109q-48 -41 -103 -60q-57 -20 -115 -20zM359 73q93 0 164 66q70 66 70 194q0 123 -70 192q-71 68 -164 68q-92 0 -163 -68
q-71 -69 -71 -192q0 -128 71 -194q70 -66 163 -66z" />
    <glyph glyph-name="multiply" unicode="&#xd7;" horiz-adv-x="624" 
d="M564 426l-191 -189l191 -190l-62 -60l-190 188l-190 -188l-62 60l191 190l-191 189l62 60l190 -188l190 188z" />
    <glyph glyph-name="Oslash" unicode="&#xd8;" horiz-adv-x="718" 
d="M682 606l-61 -62q61 -86 61 -211q0 -87 -29 -157q-28 -67 -76 -109q-48 -41 -103 -60q-57 -20 -115 -20q-123 0 -208 72l-57 -58l-58 59l59 61q-59 88 -59 212q0 82 29 151q29 68 75 110q47 41 103 63q54 22 116 22q117 0 206 -74l58 60zM125 333q0 -85 34 -146l344 355
q-63 51 -144 51q-92 0 -163 -68q-71 -69 -71 -192zM593 333q0 84 -36 145l-344 -355q64 -50 146 -50q93 0 164 66q70 66 70 194z" />
    <glyph glyph-name="Ugrave" unicode="&#xd9;" horiz-adv-x="723" 
d="M403 711h-85l-97 135h103zM362 -13q-134 0 -217 75q-83 74 -83 217v385h87v-380q0 -103 56 -157q55 -54 157 -54q100 0 156 54t56 157v380h87v-385q0 -144 -82 -217q-83 -75 -217 -75z" />
    <glyph glyph-name="Uacute" unicode="&#xda;" horiz-adv-x="723" 
d="M318 711l79 135h103l-97 -135h-85zM362 -13q-134 0 -217 75q-83 74 -83 217v385h87v-380q0 -103 56 -157q55 -54 157 -54q100 0 156 54t56 157v380h87v-385q0 -144 -82 -217q-83 -75 -217 -75z" />
    <glyph glyph-name="Ucircumflex" unicode="&#xdb;" horiz-adv-x="723" 
d="M360 791l-47 -80h-103l97 135h106l97 -135h-103zM574 664h87v-385q0 -144 -82 -217q-83 -75 -217 -75t-217 75q-83 74 -83 217v385h87v-380q0 -103 56 -157q55 -54 157 -54q100 0 156 54t56 157v380z" />
    <glyph glyph-name="Udieresis" unicode="&#xdc;" horiz-adv-x="723" 
d="M261 703q-27 0 -46 16t-19 40q0 23 20 40q19 16 45 16q27 0 46 -16t19 -40t-19 -40t-46 -16zM431 703q-27 0 -46 16t-19 40q0 23 20 40q19 16 45 16q27 0 46 -16t19 -40t-19 -40t-46 -16zM362 -13q-134 0 -217 75q-83 74 -83 217v385h87v-380q0 -103 56 -157
q55 -54 157 -54q100 0 156 54t56 157v380h87v-385q0 -144 -82 -217q-83 -75 -217 -75z" />
    <glyph glyph-name="Yacute" unicode="&#xdd;" horiz-adv-x="700" 
d="M489 846l-97 -135h-85l79 135h103zM690 664l-296 -424v-240h-87v239l-297 425h105l235 -338l235 338h105z" />
    <glyph glyph-name="Thorn" unicode="&#xde;" horiz-adv-x="663" 
d="M324 535q308 0 308 -212q0 -208 -308 -208h-166v-115h-87v664h87v-131q106 2 166 2zM324 201q120 0 170 30q49 30 49 92q0 64 -49 95t-170 31q-62 0 -166 -2v-246h166z" />
    <glyph glyph-name="germandbls" unicode="&#xdf;" horiz-adv-x="652" 
d="M444 355q177 -51 177 -179q0 -86 -87 -137q-88 -52 -207 -52q-48 0 -75 6l-23 87q43 -9 98 -9q85 0 146 34q61 33 61 83q0 54 -70 87q-71 33 -196 33h-17v83h22q99 0 164 33q65 32 65 78q0 40 -42 67q-44 26 -110 26q-84 0 -145 -44q-60 -45 -60 -117v-434h-85v434
q0 114 88 180q89 65 202 65q98 0 168 -46q71 -47 71 -120q0 -53 -38 -94q-39 -42 -107 -64z" />
    <glyph glyph-name="agrave" unicode="&#xe0;" horiz-adv-x="619" 
d="M331 529h-85l-97 135h103zM474 474h85v-474h-85v71q-36 -42 -88 -63t-107 -21q-46 0 -87 16q-41 14 -79 44q-35 27 -59 79q-23 51 -23 111q0 81 39 140q38 59 93 84q55 26 116 26q53 0 106 -21q51 -20 89 -63v71zM296 71q80 0 129 46q49 45 49 120t-49 121
q-49 45 -129 45q-78 0 -128 -45q-50 -47 -50 -121q0 -75 50 -120q49 -46 128 -46z" />
    <glyph glyph-name="aacute" unicode="&#xe1;" horiz-adv-x="619" 
d="M428 664l-97 -135h-85l79 135h103zM474 474h85v-474h-85v71q-36 -42 -88 -63t-107 -21q-46 0 -87 16q-41 14 -79 44q-35 27 -59 79q-23 51 -23 111q0 81 39 140q38 59 93 84q55 26 116 26q53 0 106 -21q51 -20 89 -63v71zM296 71q80 0 129 46q49 45 49 120t-49 121
q-49 45 -129 45q-78 0 -128 -45q-50 -47 -50 -121q0 -75 50 -120q49 -46 128 -46z" />
    <glyph glyph-name="acircumflex" unicode="&#xe2;" horiz-adv-x="619" 
d="M288 609l-47 -80h-103l97 135h106l97 -135h-103zM474 474h85v-474h-85v71q-36 -42 -88 -63t-107 -21q-46 0 -87 16q-41 14 -79 44q-35 27 -59 79q-23 51 -23 111q0 81 39 140q38 59 93 84q55 26 116 26q53 0 106 -21q51 -20 89 -63v71zM296 71q80 0 129 46q49 45 49 120
t-49 121q-49 45 -129 45q-78 0 -128 -45q-50 -47 -50 -121q0 -75 50 -120q49 -46 128 -46z" />
    <glyph glyph-name="atilde" unicode="&#xe3;" horiz-adv-x="619" 
d="M235 595q-7 2 -9 1q-4 -2 -6 -9q-2 -6 -4 -21q-1 -9 -1 -37h-87q0 63 29 103q29 38 68 38q34 0 75 -34q40 -34 44 -36q14 -6 18 16q2 18 2 48h87q0 -65 -28 -102q-29 -38 -69 -38q-33 0 -74 35q-42 35 -45 36zM474 474h85v-474h-85v71q-36 -42 -88 -63t-107 -21
q-46 0 -87 16q-41 14 -79 44q-35 27 -59 79q-23 51 -23 111q0 81 39 140q38 59 93 84q55 26 116 26q53 0 106 -21q51 -20 89 -63v71zM296 71q80 0 129 46q49 45 49 120t-49 121q-49 45 -129 45q-78 0 -128 -45q-50 -47 -50 -121q0 -75 50 -120q49 -46 128 -46z" />
    <glyph glyph-name="adieresis" unicode="&#xe4;" horiz-adv-x="619" 
d="M204 521q-27 0 -46 16t-19 40q0 23 20 40q19 16 45 16q27 0 46 -16t19 -40t-19 -40t-46 -16zM374 521q-27 0 -46 16t-19 40q0 23 20 40q19 16 45 16q27 0 46 -16t19 -40t-19 -40t-46 -16zM474 474h85v-474h-85v71q-36 -42 -88 -63t-107 -21q-46 0 -87 16q-41 14 -79 44
q-35 27 -59 79q-23 51 -23 111q0 81 39 140q38 59 93 84q55 26 116 26q53 0 106 -21q51 -20 89 -63v71zM296 71q80 0 129 46q49 45 49 120t-49 121q-49 45 -129 45q-78 0 -128 -45q-50 -47 -50 -121q0 -75 50 -120q49 -46 128 -46z" />
    <glyph glyph-name="aring" unicode="&#xe5;" horiz-adv-x="619" 
d="M289 525q-60 0 -105 21t-45 51q0 28 46 49q45 21 104 21q60 0 106 -20q44 -21 44 -50q0 -30 -44 -51q-43 -21 -106 -21zM289 633q-21 0 -35 -11q-15 -10 -15 -25t15 -26q14 -12 35 -12t35 12q14 11 14 26t-14 26q-13 10 -35 10zM474 474h85v-474h-85v71q-36 -42 -88 -63
t-107 -21q-46 0 -87 16q-41 14 -79 44q-35 27 -59 79q-23 51 -23 111q0 81 39 140q38 59 93 84q55 26 116 26q53 0 106 -21q51 -20 89 -63v71zM296 71q80 0 129 46q49 45 49 120t-49 121q-49 45 -129 45q-78 0 -128 -45q-50 -47 -50 -121q0 -75 50 -120q49 -46 128 -46z" />
    <glyph glyph-name="ae" unicode="&#xe6;" horiz-adv-x="1061" 
d="M766 487q128 0 201 -79q73 -78 62 -206h-438q12 -65 63 -98q50 -34 112 -34q49 0 92 22q44 21 67 62l71 -49q-34 -57 -98 -88q-63 -30 -132 -30q-59 0 -113 22q-58 22 -94 64v-73h-85v71q-36 -42 -88 -63t-107 -21q-46 0 -87 16q-41 14 -79 44q-35 27 -59 79
q-23 51 -23 111q0 81 39 140q38 59 93 84q55 26 116 26q53 0 106 -21q51 -20 89 -63v71h85v-73q77 86 207 86zM766 404q-58 0 -107 -30q-49 -31 -65 -89h344q-16 58 -65 89q-49 30 -107 30zM296 71q80 0 129 46q49 45 49 120t-49 121q-49 45 -129 45q-78 0 -128 -45
q-50 -47 -50 -121q0 -75 50 -120q49 -46 128 -46z" />
    <glyph glyph-name="ccedilla" unicode="&#xe7;" horiz-adv-x="546" 
d="M526 106q-32 -52 -83 -81q-53 -30 -114 -36l-18 -34q57 0 93 -15q36 -16 36 -47q0 -36 -50 -54t-169 -18l-13 53q128 0 128 23q0 9 -32 15q-29 6 -65 4l33 72q-99 8 -169 72q-72 63 -72 177q0 121 80 186q79 64 185 64q63 0 124 -26q57 -25 96 -76l-64 -61q-24 40 -66 59
q-45 20 -90 20q-72 0 -124 -42q-54 -43 -54 -124t54 -123q53 -43 124 -43q50 0 93 21t66 63z" />
    <glyph glyph-name="egrave" unicode="&#xe8;" horiz-adv-x="591" 
d="M338 529h-85l-97 135h103zM296 487q128 0 201 -79q73 -78 62 -206h-438q12 -65 63 -98q50 -34 112 -34q49 0 92 22q44 21 67 62l71 -49q-34 -57 -98 -88q-63 -30 -132 -30q-67 0 -124 25q-58 26 -99 84q-42 58 -42 141q0 121 80 186q79 64 185 64zM296 404
q-57 0 -107 -30q-49 -31 -65 -89h344q-16 58 -65 89q-49 30 -107 30z" />
    <glyph glyph-name="eacute" unicode="&#xe9;" horiz-adv-x="591" 
d="M435 664l-97 -135h-85l79 135h103zM296 487q128 0 201 -79q73 -78 62 -206h-438q12 -65 63 -98q50 -34 112 -34q49 0 92 22q44 21 67 62l71 -49q-34 -57 -98 -88q-63 -30 -132 -30q-67 0 -124 25q-58 26 -99 84q-42 58 -42 141q0 121 80 186q79 64 185 64zM296 404
q-57 0 -107 -30q-49 -31 -65 -89h344q-16 58 -65 89q-49 30 -107 30z" />
    <glyph glyph-name="ecircumflex" unicode="&#xea;" horiz-adv-x="591" 
d="M295 609l-47 -80h-103l97 135h106l97 -135h-103zM296 487q128 0 201 -79q73 -78 62 -206h-438q12 -65 63 -98q50 -34 112 -34q49 0 92 22q44 21 67 62l71 -49q-34 -57 -98 -88q-63 -30 -132 -30q-67 0 -124 25q-58 26 -99 84q-42 58 -42 141q0 121 80 186q79 64 185 64z
M296 404q-57 0 -107 -30q-49 -31 -65 -89h344q-16 58 -65 89q-49 30 -107 30z" />
    <glyph glyph-name="edieresis" unicode="&#xeb;" horiz-adv-x="591" 
d="M211 521q-27 0 -46 16t-19 40q0 23 20 40q19 16 45 16q27 0 46 -16t19 -40t-19 -40t-46 -16zM381 521q-27 0 -46 16t-19 40q0 23 20 40q19 16 45 16q27 0 46 -16t19 -40t-19 -40t-46 -16zM296 487q128 0 201 -79q73 -78 62 -206h-438q12 -65 63 -98q50 -34 112 -34
q49 0 92 22q44 21 67 62l71 -49q-34 -57 -98 -88q-63 -30 -132 -30q-67 0 -124 25q-58 26 -99 84q-42 58 -42 141q0 121 80 186q79 64 185 64zM296 404q-57 0 -107 -30q-49 -31 -65 -89h344q-16 58 -65 89q-49 30 -107 30z" />
    <glyph glyph-name="igrave" unicode="&#xec;" horiz-adv-x="205" 
d="M145 529h-85l-97 135h103zM60 0v474h85v-474h-85z" />
    <glyph glyph-name="iacute" unicode="&#xed;" horiz-adv-x="205" 
d="M60 529l79 135h103l-97 -135h-85zM60 0v474h85v-474h-85z" />
    <glyph glyph-name="icircumflex" unicode="&#xee;" horiz-adv-x="205" 
d="M155 664l97 -135h-103l-47 80l-47 -80h-103l97 135h106zM60 0v474h85v-474h-85z" />
    <glyph glyph-name="idieresis" unicode="&#xef;" horiz-adv-x="205" 
d="M18 521q-27 0 -46 16t-19 40q0 23 20 40q19 16 45 16q27 0 46 -16t19 -40t-19 -40t-46 -16zM188 521q-27 0 -46 16t-19 40q0 23 20 40q19 16 45 16q27 0 46 -16t19 -40t-19 -40t-46 -16zM60 0v474h85v-474h-85z" />
    <glyph glyph-name="eth" unicode="&#xf0;" horiz-adv-x="592" 
d="M561 238v-1q0 -82 -41 -141q-42 -59 -100 -84q-57 -25 -124 -25t-124 25q-58 26 -99 84q-42 58 -42 141q0 121 80 186q79 64 185 64q70 0 130 -29q-69 95 -198 139l-152 -93l-45 72l77 47q-29 4 -77 4v84q93 0 181 -24l95 58l108 -34l-103 -63q114 -56 182 -158
q67 -103 67 -252zM296 71q71 0 124 43q54 42 54 123q0 80 -53 124q-54 42 -125 42q-72 0 -124 -42q-54 -43 -54 -124t54 -123q53 -43 124 -43z" />
    <glyph glyph-name="ntilde" unicode="&#xf1;" horiz-adv-x="623" 
d="M289 595q-7 2 -9 1q-4 -2 -6 -9q-2 -6 -4 -21q-1 -9 -1 -37h-87q0 63 29 103q29 38 68 38q34 0 75 -34q40 -34 44 -36q14 -6 18 16q2 18 2 48h87q0 -65 -28 -102q-29 -38 -69 -38q-33 0 -74 35q-42 35 -45 36zM349 488q96 0 159 -54q62 -54 62 -158v-275l-85 -1v245
q0 159 -151 159q-76 0 -132 -55q-57 -55 -57 -154v-195h-85v474h85v-86q36 50 90 75q53 25 114 25z" />
    <glyph glyph-name="ograve" unicode="&#xf2;" horiz-adv-x="592" 
d="M338 529h-85l-97 135h103zM296 -13q-67 0 -124 25q-58 26 -99 84q-42 58 -42 141q0 121 80 186q79 64 185 64t185 -64q80 -65 80 -186q0 -82 -41 -141q-42 -59 -100 -84q-57 -25 -124 -25zM296 71q71 0 124 43q54 42 54 123q0 80 -53 124q-54 42 -125 42q-72 0 -124 -42
q-54 -43 -54 -124t54 -123q53 -43 124 -43z" />
    <glyph glyph-name="oacute" unicode="&#xf3;" horiz-adv-x="592" 
d="M253 529l79 135h103l-97 -135h-85zM296 -13q-67 0 -124 25q-58 26 -99 84q-42 58 -42 141q0 121 80 186q79 64 185 64t185 -64q80 -65 80 -186q0 -82 -41 -141q-42 -59 -100 -84q-57 -25 -124 -25zM296 71q71 0 124 43q54 42 54 123q0 80 -53 124q-54 42 -125 42
q-72 0 -124 -42q-54 -43 -54 -124t54 -123q53 -43 124 -43z" />
    <glyph glyph-name="ocircumflex" unicode="&#xf4;" horiz-adv-x="592" 
d="M295 609l-47 -80h-103l97 135h106l97 -135h-103zM296 487q106 0 185 -64q80 -65 80 -186q0 -82 -41 -141q-42 -59 -100 -84q-57 -25 -124 -25t-124 25q-58 26 -99 84q-42 58 -42 141q0 121 80 186q79 64 185 64zM296 71q71 0 124 43q54 42 54 123q0 80 -53 124
q-54 42 -125 42q-72 0 -124 -42q-54 -43 -54 -124t54 -123q53 -43 124 -43z" />
    <glyph glyph-name="otilde" unicode="&#xf5;" horiz-adv-x="592" 
d="M361 524q-33 0 -74 35q-42 35 -45 36q-7 2 -9 1q-5 -2 -6 -9q-2 -6 -4 -21q-1 -9 -1 -37h-87q0 63 29 103q29 38 68 38q34 0 75 -34q40 -34 44 -36q14 -6 18 16q2 18 2 48h87q0 -65 -28 -102q-29 -38 -69 -38zM296 -13q-67 0 -124 25q-58 26 -99 84q-42 58 -42 141
q0 121 80 186q79 64 185 64t185 -64q80 -65 80 -186q0 -82 -41 -141q-42 -59 -100 -84q-57 -25 -124 -25zM296 71q71 0 124 43q54 42 54 123q0 80 -53 124q-54 42 -125 42q-72 0 -124 -42q-54 -43 -54 -124t54 -123q53 -43 124 -43z" />
    <glyph glyph-name="odieresis" unicode="&#xf6;" horiz-adv-x="592" 
d="M211 521q-27 0 -46 16t-19 40q0 23 20 40q19 16 45 16q27 0 46 -16t19 -40t-19 -40t-46 -16zM381 521q-27 0 -46 16t-19 40q0 23 20 40q19 16 45 16q27 0 46 -16t19 -40t-19 -40t-46 -16zM296 -13q-67 0 -124 25q-58 26 -99 84q-42 58 -42 141q0 121 80 186q79 64 185 64
t185 -64q80 -65 80 -186q0 -82 -41 -141q-42 -59 -100 -84q-57 -25 -124 -25zM296 71q71 0 124 43q54 42 54 123q0 80 -53 124q-54 42 -125 42q-72 0 -124 -42q-54 -43 -54 -124t54 -123q53 -43 124 -43z" />
    <glyph glyph-name="divide" unicode="&#xf7;" horiz-adv-x="631" 
d="M316 370q-27 0 -46 16t-19 39q0 25 19 41t46 16t46 -16t19 -41q0 -23 -19 -39t-46 -16zM55 195v84h522v-84h-522zM316 -8q-27 0 -46 16t-19 40q0 23 20 40q19 16 45 16q27 0 46 -16t19 -40t-19 -40t-46 -16z" />
    <glyph glyph-name="oslash" unicode="&#xf8;" horiz-adv-x="592" 
d="M565 427l-47 -44q43 -62 43 -146q0 -82 -41 -141q-42 -59 -100 -84q-57 -25 -124 -25q-86 0 -154 42l-59 -55l-57 59l54 51q-49 61 -49 153q0 121 80 186q79 64 185 64q92 0 163 -47l50 47zM118 237q0 -53 26 -93l250 235q-45 24 -98 24q-72 0 -124 -42q-54 -43 -54 -124
zM474 237q0 47 -21 85l-246 -231q42 -20 89 -20q71 0 124 43q54 42 54 123z" />
    <glyph glyph-name="ugrave" unicode="&#xf9;" horiz-adv-x="623" 
d="M350 529h-85l-97 135h103zM478 474h85v-474h-85v84q-36 -45 -90 -71t-108 -26q-101 0 -163 58q-63 59 -63 183v246h85v-246q0 -80 44 -118q43 -39 109 -39q80 0 133 50t53 139v214z" />
    <glyph glyph-name="uacute" unicode="&#xfa;" horiz-adv-x="623" 
d="M447 664l-97 -135h-85l79 135h103zM478 474h85v-474h-85v84q-36 -45 -90 -71t-108 -26q-101 0 -163 58q-63 59 -63 183v246h85v-246q0 -80 44 -118q43 -39 109 -39q80 0 133 50t53 139v214z" />
    <glyph glyph-name="ucircumflex" unicode="&#xfb;" horiz-adv-x="623" 
d="M307 609l-47 -80h-103l97 135h106l97 -135h-103zM478 474h85v-474h-85v84q-36 -45 -90 -71t-108 -26q-101 0 -163 58q-63 59 -63 183v246h85v-246q0 -80 44 -118q43 -39 109 -39q80 0 133 50t53 139v214z" />
    <glyph glyph-name="udieresis" unicode="&#xfc;" horiz-adv-x="623" 
d="M223 521q-27 0 -46 16t-19 40q0 23 20 40q19 16 45 16q27 0 46 -16t19 -40t-19 -40t-46 -16zM393 521q-27 0 -46 16t-19 40q0 23 20 40q19 16 45 16q27 0 46 -16t19 -40t-19 -40t-46 -16zM478 474h85v-474h-85v84q-36 -45 -90 -71t-108 -26q-101 0 -163 58
q-63 59 -63 183v246h85v-246q0 -80 44 -118q43 -39 109 -39q80 0 133 50t53 139v214z" />
    <glyph glyph-name="yacute" unicode="&#xfd;" horiz-adv-x="590" 
d="M434 664l-97 -135h-85l79 135h103zM497 474h94l-337 -659h-94l95 185l-256 474h95l207 -383z" />
    <glyph glyph-name="thorn" unicode="&#xfe;" horiz-adv-x="619" 
d="M340 487q60 0 117 -26q54 -25 93 -84q38 -59 38 -140q0 -63 -22 -111q-23 -50 -59 -79q-39 -30 -79 -44q-42 -16 -88 -16q-54 0 -107 21q-52 21 -88 63v-256h-85v849h85v-261q38 43 89 63q53 21 106 21zM323 71q80 0 129 46q49 45 49 120t-49 121q-50 45 -129 45
q-78 0 -128 -45q-50 -47 -50 -121q0 -75 50 -120q49 -46 128 -46z" />
    <glyph glyph-name="ydieresis" unicode="&#xff;" horiz-adv-x="590" 
d="M210 521q-27 0 -46 16t-19 40q0 23 20 40q19 16 45 16q27 0 46 -16t19 -40t-19 -40t-46 -16zM380 521q-27 0 -46 16t-19 40q0 23 20 40q19 16 45 16q27 0 46 -16t19 -40t-19 -40t-46 -16zM497 474h94l-337 -659h-94l95 185l-256 474h95l207 -383z" />
    <glyph glyph-name="Amacron" unicode="&#x100;" horiz-adv-x="672" 
d="M462 783v-72h-252v72h252zM573 0l-60 146h-354l-60 -146h-93l273 664h114l273 -664h-93zM195 232h282l-141 343z" />
    <glyph glyph-name="amacron" unicode="&#x101;" horiz-adv-x="619" 
d="M415 601v-72h-252v72h252zM474 474h85v-474h-85v71q-36 -42 -88 -63t-107 -21q-46 0 -87 16q-41 14 -79 44q-35 27 -59 79q-23 51 -23 111q0 81 39 140q38 59 93 84q55 26 116 26q53 0 106 -21q51 -20 89 -63v71zM296 71q80 0 129 46q49 45 49 120t-49 121
q-49 45 -129 45q-78 0 -128 -45q-50 -47 -50 -121q0 -75 50 -120q49 -46 128 -46z" />
    <glyph glyph-name="Abreve" unicode="&#x102;" horiz-adv-x="672" 
d="M336 706q-62 0 -106 41q-45 41 -45 99h96q0 -33 17 -56t38 -23q22 0 39 23q16 22 16 56h96q0 -58 -45 -99q-46 -41 -106 -41zM573 0l-60 146h-354l-60 -146h-93l273 664h114l273 -664h-93zM195 232h282l-141 343z" />
    <glyph glyph-name="abreve" unicode="&#x103;" horiz-adv-x="619" 
d="M290 524q-62 0 -106 41q-45 41 -45 99h96q0 -33 17 -56t38 -23q22 0 39 23q16 22 16 56h96q0 -58 -45 -99q-46 -41 -106 -41zM474 474h85v-474h-85v71q-36 -42 -88 -63t-107 -21q-46 0 -87 16q-41 14 -79 44q-35 27 -59 79q-23 51 -23 111q0 81 39 140q38 59 93 84
q55 26 116 26q53 0 106 -21q51 -20 89 -63v71zM296 71q80 0 129 46q49 45 49 120t-49 121q-49 45 -129 45q-78 0 -128 -45q-50 -47 -50 -121q0 -75 50 -120q49 -46 128 -46z" />
    <glyph glyph-name="Aogonek" unicode="&#x104;" horiz-adv-x="672" 
d="M553 -87q0 -50 113 -50l-14 -42q-111 0 -162 16q-54 17 -54 56q0 35 40 63q38 28 96 46l-59 144h-354l-60 -146h-93l273 664h114l273 -664q-43 -8 -77 -34q-36 -28 -36 -53zM195 232h282l-141 343z" />
    <glyph glyph-name="aogonek" unicode="&#x105;" horiz-adv-x="619" 
d="M559 0q-43 -8 -77 -34q-36 -28 -36 -53q0 -50 113 -50l-14 -42q-111 0 -162 16q-54 17 -54 56q0 35 43 65q43 29 102 47v66q-36 -42 -88 -63t-107 -21q-46 0 -87 16q-41 14 -79 44q-35 27 -59 79q-23 51 -23 111q0 81 39 140q38 59 93 84q55 26 116 26q53 0 106 -21
q51 -20 89 -63v71h85v-474zM296 71q80 0 129 46q49 45 49 120t-49 121q-49 45 -129 45q-78 0 -128 -45q-50 -47 -50 -121q0 -75 50 -120q49 -46 128 -46z" />
    <glyph glyph-name="Cacute" unicode="&#x106;" horiz-adv-x="667" 
d="M322 711l79 135h103l-97 -135h-85zM364 -13q-58 0 -115 20q-57 19 -105 60q-50 41 -78 109q-30 69 -30 157q0 82 29 151q29 68 75 110q46 40 105 63q57 22 120 22q83 0 155 -39q73 -39 110 -111l-67 -65q-26 66 -79 97q-55 32 -122 32q-105 0 -171 -72t-66 -188
q0 -119 66 -189q65 -71 173 -71q67 0 122 31q57 31 85 86l72 -52q-44 -76 -120 -113q-78 -38 -159 -38z" />
    <glyph glyph-name="cacute" unicode="&#x107;" horiz-adv-x="546" 
d="M253 529l79 135h103l-97 -135h-85zM296 -13q-67 0 -124 25q-58 26 -99 84q-42 58 -42 141q0 121 80 186q79 64 185 64q63 0 124 -26q57 -25 96 -76l-64 -61q-24 40 -66 59q-45 20 -90 20q-72 0 -124 -42q-54 -43 -54 -124t54 -123q53 -43 124 -43q50 0 93 21t66 63
l71 -49q-34 -57 -98 -88q-62 -31 -132 -31z" />
    <glyph glyph-name="Ccircumflex" unicode="&#x108;" horiz-adv-x="667" 
d="M364 791l-47 -80h-103l97 135h106l97 -135h-103zM571 190l72 -52q-44 -76 -120 -113q-78 -38 -159 -38q-58 0 -115 20q-57 19 -105 60q-50 41 -78 109q-30 69 -30 157q0 82 29 151q29 68 75 110q46 40 105 63q57 22 120 22q83 0 155 -39q73 -39 110 -111l-67 -65
q-26 66 -79 97q-55 32 -122 32q-105 0 -171 -72t-66 -188q0 -119 66 -189q65 -71 173 -71q67 0 122 31q57 31 85 86z" />
    <glyph glyph-name="ccircumflex" unicode="&#x109;" horiz-adv-x="546" 
d="M295 609l-47 -80h-103l97 135h106l97 -135h-103zM455 155l71 -49q-34 -57 -98 -88q-62 -31 -132 -31q-67 0 -124 25q-58 26 -99 84q-42 58 -42 141q0 121 80 186q79 64 185 64q63 0 124 -26q57 -25 96 -76l-64 -61q-24 40 -66 59q-45 20 -90 20q-72 0 -124 -42
q-54 -43 -54 -124t54 -123q53 -43 124 -43q50 0 93 21t66 63z" />
    <glyph glyph-name="Cdotaccent" unicode="&#x10a;" horiz-adv-x="667" 
d="M365 703q-27 0 -46 16t-19 40q0 23 20 40q19 16 45 16q27 0 46 -16t19 -40t-19 -40t-46 -16zM364 -13q-58 0 -115 20q-57 19 -105 60q-50 41 -78 109q-30 69 -30 157q0 82 29 151q29 68 75 110q46 40 105 63q57 22 120 22q83 0 155 -39q73 -39 110 -111l-67 -65
q-26 66 -79 97q-55 32 -122 32q-105 0 -171 -72t-66 -188q0 -119 66 -189q65 -71 173 -71q67 0 122 31q57 31 85 86l72 -52q-44 -76 -120 -113q-78 -38 -159 -38z" />
    <glyph glyph-name="cdotaccent" unicode="&#x10b;" horiz-adv-x="546" 
d="M296 521q-27 0 -46 16t-19 40q0 23 20 40q19 16 45 16q27 0 46 -16t19 -40t-19 -40t-46 -16zM296 -13q-67 0 -124 25q-58 26 -99 84q-42 58 -42 141q0 121 80 186q79 64 185 64q63 0 124 -26q57 -25 96 -76l-64 -61q-24 40 -66 59q-45 20 -90 20q-72 0 -124 -42
q-54 -43 -54 -124t54 -123q53 -43 124 -43q50 0 93 21t66 63l71 -49q-34 -57 -98 -88q-62 -31 -132 -31z" />
    <glyph glyph-name="Ccaron" unicode="&#x10c;" horiz-adv-x="667" 
d="M417 711h-106l-97 135h103l47 -80l47 80h103zM571 190l72 -52q-44 -76 -120 -113q-78 -38 -159 -38q-58 0 -115 20q-57 19 -105 60q-50 41 -78 109q-30 69 -30 157q0 82 29 151q29 68 75 110q46 40 105 63q57 22 120 22q83 0 155 -39q73 -39 110 -111l-67 -65
q-26 66 -79 97q-55 32 -122 32q-105 0 -171 -72t-66 -188q0 -119 66 -189q65 -71 173 -71q67 0 122 31q57 31 85 86z" />
    <glyph glyph-name="ccaron" unicode="&#x10d;" horiz-adv-x="546" 
d="M347 529h-106l-97 135h103l47 -80l47 80h103zM455 155l71 -49q-34 -57 -98 -88q-62 -31 -132 -31q-67 0 -124 25q-58 26 -99 84q-42 58 -42 141q0 121 80 186q79 64 185 64q63 0 124 -26q57 -25 96 -76l-64 -61q-24 40 -66 59q-45 20 -90 20q-72 0 -124 -42
q-54 -43 -54 -124t54 -123q53 -43 124 -43q50 0 93 21t66 63z" />
    <glyph glyph-name="Dcaron" unicode="&#x10e;" horiz-adv-x="685" 
d="M347 711h-106l-97 135h103l47 -80l47 80h103zM297 670q70 0 133 -20q62 -20 112 -59q51 -40 79 -105t28 -151q0 -76 -19 -133q-20 -59 -53 -97q-32 -38 -78 -64q-47 -25 -96 -36q-52 -11 -106 -11t-128 2q-14 0 -32.5 0.5t-28.5 1t-16 0.5l-21 2v664q64 6 226 6zM297 80
q263 0 263 255q0 120 -68 185q-68 64 -195 64q-49 0 -139 -2v-500q90 -2 139 -2z" />
    <glyph glyph-name="dcaron" unicode="&#x10f;" horiz-adv-x="814" 
d="M717 672q27 0 46 -18q19 -19 18 -50q-2 -57 -35 -88q-34 -33 -93 -33v42q55 0 76 36q-25 -6 -51 11t-26 44q0 23 20 40q19 16 45 16zM474 403v261h85v-664h-85v71q-36 -42 -88 -63t-107 -21q-46 0 -87 16q-41 14 -79 44q-35 27 -59 79q-23 51 -23 111q0 81 39 140
q38 59 93 84q55 26 116 26q53 0 106 -21q51 -20 89 -63zM296 71q80 0 129 46q49 45 49 120t-49 121q-49 45 -129 45q-78 0 -128 -45q-50 -47 -50 -121q0 -75 50 -120q49 -46 128 -46z" />
    <glyph glyph-name="Dcroat" unicode="&#x110;" horiz-adv-x="685" 
d="M297 670q70 0 133 -20q62 -20 112 -59q51 -40 79 -105t28 -151q0 -76 -19 -133q-20 -59 -53 -97q-32 -38 -78 -64q-47 -25 -96 -36q-52 -11 -106 -11t-128 2q-14 0 -32.5 0.5t-28.5 1t-16 0.5l-21 2v309h-66v82h66v273q64 6 226 6zM297 80q263 0 263 255q0 120 -68 185
q-68 64 -195 64q-49 0 -139 -2v-191h124v-82h-124v-227q90 -2 139 -2z" />
    <glyph glyph-name="dcroat" unicode="&#x111;" horiz-adv-x="619" 
d="M619 617v-82h-60v-535h-85v71q-36 -42 -88 -63t-107 -21q-46 0 -87 16q-41 14 -79 44q-35 27 -59 79q-23 51 -23 111q0 81 39 140q38 59 93 84q55 26 116 26q53 0 106 -21q51 -20 89 -63v132h-143v82h143v47h85v-47h60zM296 71q80 0 129 46q49 45 49 120t-49 121
q-49 45 -129 45q-78 0 -128 -45q-50 -47 -50 -121q0 -75 50 -120q49 -46 128 -46z" />
    <glyph glyph-name="Emacron" unicode="&#x112;" horiz-adv-x="614" 
d="M451 783v-72h-252v72h252zM578 578h-420v-185h356v-86h-356v-221h420v-86h-507v664h507v-86z" />
    <glyph glyph-name="emacron" unicode="&#x113;" horiz-adv-x="591" 
d="M422 601v-72h-252v72h252zM296 487q128 0 201 -79q73 -78 62 -206h-438q12 -65 63 -98q50 -34 112 -34q49 0 92 22q44 21 67 62l71 -49q-34 -57 -98 -88q-63 -30 -132 -30q-67 0 -124 25q-58 26 -99 84q-42 58 -42 141q0 121 80 186q79 64 185 64zM296 404
q-57 0 -107 -30q-49 -31 -65 -89h344q-16 58 -65 89q-49 30 -107 30z" />
    <glyph glyph-name="Ebreve" unicode="&#x114;" horiz-adv-x="614" 
d="M325 706q-62 0 -106 41q-45 41 -45 99h96q0 -33 17 -56t38 -23q22 0 39 23q16 22 16 56h96q0 -58 -45 -99q-46 -41 -106 -41zM578 578h-420v-185h356v-86h-356v-221h420v-86h-507v664h507v-86z" />
    <glyph glyph-name="ebreve" unicode="&#x115;" horiz-adv-x="591" 
d="M297 524q-62 0 -106 41q-45 41 -45 99h96q0 -33 17 -56t38 -23q22 0 39 23q16 22 16 56h96q0 -58 -45 -99q-46 -41 -106 -41zM296 487q128 0 201 -79q73 -78 62 -206h-438q12 -65 63 -98q50 -34 112 -34q49 0 92 22q44 21 67 62l71 -49q-34 -57 -98 -88q-63 -30 -132 -30
q-67 0 -124 25q-58 26 -99 84q-42 58 -42 141q0 121 80 186q79 64 185 64zM296 404q-57 0 -107 -30q-49 -31 -65 -89h344q-16 58 -65 89q-49 30 -107 30z" />
    <glyph glyph-name="Edotaccent" unicode="&#x116;" horiz-adv-x="614" 
d="M325 703q-27 0 -46 16t-19 40q0 23 20 40q19 16 45 16q27 0 46 -16t19 -40t-19 -40t-46 -16zM578 578h-420v-185h356v-86h-356v-221h420v-86h-507v664h507v-86z" />
    <glyph glyph-name="edotaccent" unicode="&#x117;" horiz-adv-x="591" 
d="M296 521q-27 0 -46 16t-19 40q0 23 20 40q19 16 45 16q27 0 46 -16t19 -40t-19 -40t-46 -16zM296 487q128 0 201 -79q73 -78 62 -206h-438q12 -65 63 -98q50 -34 112 -34q49 0 92 22q44 21 67 62l71 -49q-34 -57 -98 -88q-63 -30 -132 -30q-67 0 -124 25q-58 26 -99 84
q-42 58 -42 141q0 121 80 186q79 64 185 64zM296 404q-57 0 -107 -30q-49 -31 -65 -89h344q-16 58 -65 89q-49 30 -107 30z" />
    <glyph glyph-name="Eogonek" unicode="&#x118;" horiz-adv-x="614" 
d="M465 -87q0 -50 120 -50l-14 -42q-116 0 -168 16q-55 16 -55 56q0 33 37 61q35 28 91 46h-405v664h507v-86h-420v-185h356v-86h-356v-221h420v-86q-43 -8 -77 -34q-36 -28 -36 -53z" />
    <glyph glyph-name="eogonek" unicode="&#x119;" horiz-adv-x="588" 
d="M296 487q128 0 201 -79q73 -78 62 -206h-438q12 -65 63 -98q50 -34 112 -34q49 0 92 22q44 21 67 62l71 -49q-47 -78 -144 -106q-38 -19 -64 -42q-25 -24 -25 -44q0 -50 120 -50l-14 -42q-116 0 -168 16q-55 16 -55 56q0 53 97 95q-98 8 -170 72q-72 63 -72 177
q0 121 80 186q79 64 185 64zM296 404q-57 0 -107 -30q-49 -31 -65 -89h344q-16 58 -65 89q-49 30 -107 30z" />
    <glyph glyph-name="Ecaron" unicode="&#x11a;" horiz-adv-x="614" 
d="M377 711h-106l-97 135h103l47 -80l47 80h103zM578 578h-420v-185h356v-86h-356v-221h420v-86h-507v664h507v-86z" />
    <glyph glyph-name="ecaron" unicode="&#x11b;" horiz-adv-x="591" 
d="M347 529h-106l-97 135h103l47 -80l47 80h103zM296 487q128 0 201 -79q73 -78 62 -206h-438q12 -65 63 -98q50 -34 112 -34q49 0 92 22q44 21 67 62l71 -49q-34 -57 -98 -88q-63 -30 -132 -30q-67 0 -124 25q-58 26 -99 84q-42 58 -42 141q0 121 80 186q79 64 185 64z
M296 404q-57 0 -107 -30q-49 -31 -65 -89h344q-16 58 -65 89q-49 30 -107 30z" />
    <glyph glyph-name="Gcircumflex" unicode="&#x11c;" horiz-adv-x="713" 
d="M364 791l-47 -80h-103l97 135h106l97 -135h-103zM309 363h344v-363h-82v119q-31 -66 -92 -99t-138 -33q-50 0 -104 20q-51 19 -98 60q-45 39 -74 109t-29 157q0 82 29 151q29 68 75 110q46 40 105 63q57 22 120 22q83 0 155 -39q73 -39 110 -111l-67 -65q-26 66 -79 97
q-55 32 -122 32q-105 0 -171 -72t-66 -188q0 -127 67 -193q67 -67 167 -67q78 0 134 55t74 150h-258v85z" />
    <glyph glyph-name="gcircumflex" unicode="&#x11d;" horiz-adv-x="619" 
d="M278 609l-47 -80h-103l97 135h106l97 -135h-103zM474 474h85v-448q0 -113 -77 -169q-78 -57 -199 -57q-84 0 -147 29q-62 29 -85 79l70 55q20 -80 168 -80q85 0 135 36q50 35 50 107v45q-36 -42 -88 -63t-107 -21q-46 0 -87 16q-41 14 -79 44q-35 27 -59 79
q-23 51 -23 111q0 81 39 140q38 59 93 84q55 26 116 26q53 0 106 -21q51 -20 89 -63v71zM296 71q80 0 129 46q49 45 49 120t-49 121q-49 45 -129 45q-78 0 -128 -45q-50 -47 -50 -121q0 -75 50 -120q49 -46 128 -46z" />
    <glyph glyph-name="Gbreve" unicode="&#x11e;" horiz-adv-x="713" 
d="M365 706q-62 0 -106 41q-45 41 -45 99h96q0 -33 17 -56t38 -23q22 0 39 23q16 22 16 56h96q0 -58 -45 -99q-46 -41 -106 -41zM309 363h344v-363h-82v119q-31 -66 -92 -99t-138 -33q-50 0 -104 20q-51 19 -98 60q-45 39 -74 109t-29 157q0 82 29 151q29 68 75 110
q46 40 105 63q57 22 120 22q83 0 155 -39q73 -39 110 -111l-67 -65q-26 66 -79 97q-55 32 -122 32q-105 0 -171 -72t-66 -188q0 -127 67 -193q67 -67 167 -67q78 0 134 55t74 150h-258v85z" />
    <glyph glyph-name="gbreve" unicode="&#x11f;" horiz-adv-x="619" 
d="M280 524q-62 0 -106 41q-45 41 -45 99h96q0 -33 17 -56t38 -23q22 0 39 23q16 22 16 56h96q0 -58 -45 -99q-46 -41 -106 -41zM474 474h85v-448q0 -113 -77 -169q-78 -57 -199 -57q-84 0 -147 29q-62 29 -85 79l70 55q20 -80 168 -80q85 0 135 36q50 35 50 107v45
q-36 -42 -88 -63t-107 -21q-46 0 -87 16q-41 14 -79 44q-35 27 -59 79q-23 51 -23 111q0 81 39 140q38 59 93 84q55 26 116 26q53 0 106 -21q51 -20 89 -63v71zM296 71q80 0 129 46q49 45 49 120t-49 121q-49 45 -129 45q-78 0 -128 -45q-50 -47 -50 -121q0 -75 50 -120
q49 -46 128 -46z" />
    <glyph glyph-name="Gdotaccent" unicode="&#x120;" horiz-adv-x="713" 
d="M365 703q-27 0 -46 16t-19 40q0 23 20 40q19 16 45 16q27 0 46 -16t19 -40t-19 -40t-46 -16zM309 363h344v-363h-82v119q-31 -66 -92 -99t-138 -33q-50 0 -104 20q-51 19 -98 60q-45 39 -74 109t-29 157q0 82 29 151q29 68 75 110q46 40 105 63q57 22 120 22
q83 0 155 -39q73 -39 110 -111l-67 -65q-26 66 -79 97q-55 32 -122 32q-105 0 -171 -72t-66 -188q0 -127 67 -193q67 -67 167 -67q78 0 134 55t74 150h-258v85z" />
    <glyph glyph-name="gdotaccent" unicode="&#x121;" horiz-adv-x="619" 
d="M279 521q-27 0 -46 16t-19 40q0 23 20 40q19 16 45 16q27 0 46 -16t19 -40t-19 -40t-46 -16zM474 474h85v-448q0 -113 -77 -169q-78 -57 -199 -57q-84 0 -147 29q-62 29 -85 79l70 55q20 -80 168 -80q85 0 135 36q50 35 50 107v45q-36 -42 -88 -63t-107 -21q-46 0 -87 16
q-41 14 -79 44q-35 27 -59 79q-23 51 -23 111q0 81 39 140q38 59 93 84q55 26 116 26q53 0 106 -21q51 -20 89 -63v71zM296 71q80 0 129 46q49 45 49 120t-49 121q-49 45 -129 45q-78 0 -128 -45q-50 -47 -50 -121q0 -75 50 -120q49 -46 128 -46z" />
    <glyph glyph-name="Gcommaaccent" unicode="&#x122;" horiz-adv-x="713" 
d="M309 363h344v-363h-82v119q-31 -66 -92 -99t-138 -33q-50 0 -104 20q-51 19 -98 60q-45 39 -74 109t-29 157q0 82 29 151q29 68 75 110q46 40 105 63q57 22 120 22q83 0 155 -39q73 -39 110 -111l-67 -65q-26 66 -79 97q-55 32 -122 32q-105 0 -171 -72t-66 -188
q0 -127 67 -193q67 -67 167 -67q78 0 134 55t74 150h-258v85zM342 -47q26 0 46 -18q19 -19 18 -50q-2 -57 -35 -88q-35 -33 -93 -33v42q55 0 76 36q-25 -6 -51 11t-26 44q0 23 20 40q19 16 45 16z" />
    <glyph glyph-name="gcommaaccent" unicode="&#x123;" horiz-adv-x="612" 
d="M272 521q-27 0 -46 19q-19 18 -18 49q2 57 35 89q35 32 93 32v-42q-55 0 -76 -36q26 6 52 -11q25 -16 25 -44q0 -23 -19 -39q-20 -17 -46 -17zM474 474h85v-448q0 -113 -77 -169q-78 -57 -199 -57q-84 0 -147 29q-62 29 -85 79l70 55q20 -80 168 -80q85 0 135 36
q50 35 50 107v45q-36 -42 -88 -63t-107 -21q-46 0 -87 16q-41 14 -79 44q-35 27 -59 79q-23 51 -23 111q0 81 39 140q38 59 93 84q55 26 116 26q53 0 106 -21q51 -20 89 -63v71zM296 71q80 0 129 46q49 45 49 120t-49 121q-49 45 -129 45q-78 0 -128 -45q-50 -47 -50 -121
q0 -75 50 -120q49 -46 128 -46z" />
    <glyph glyph-name="Hcircumflex" unicode="&#x124;" horiz-adv-x="713" 
d="M356 791l-47 -80h-103l97 135h106l97 -135h-103zM555 664h87v-664h-87v307h-397v-307h-87v664h87v-271h397v271z" />
    <glyph glyph-name="hcircumflex" unicode="&#x125;" horiz-adv-x="623" 
d="M147 711l-47 80l-47 -80h-103l97 135h106l97 -135h-103zM349 488q96 0 159 -54q62 -54 62 -158v-275l-85 -1v245q0 159 -151 159q-76 0 -132 -55q-57 -55 -57 -154v-195h-85v664h85v-276q36 50 90 75q53 25 114 25z" />
    <glyph glyph-name="Hbar" unicode="&#x126;" horiz-adv-x="713" 
d="M713 563v-82h-71v-481h-87v307h-397v-307h-87v481h-71v82h71v101h87v-101h397v101h87v-101h71zM555 393v88h-397v-88h397z" />
    <glyph glyph-name="hbar" unicode="&#x127;" horiz-adv-x="623" 
d="M349 488q96 0 159 -54q62 -54 62 -158v-275l-85 -1v245q0 159 -151 159q-76 0 -132 -55q-57 -55 -57 -154v-195h-85v535h-60v82h60v47h85v-47h143v-82h-143v-147q36 50 90 75q53 25 114 25z" />
    <glyph glyph-name="Itilde" unicode="&#x128;" horiz-adv-x="229" 
d="M180 706q-33 0 -74 35q-42 35 -45 36q-7 2 -9 1q-4 -2 -6 -9q-2 -6 -4 -21q-1 -9 -1 -37h-87q0 63 29 103q29 38 68 38q34 0 75 -34q40 -34 44 -36q14 -6 18 16q2 18 2 48h87q0 -65 -28 -102q-29 -38 -69 -38zM71 0v664h87v-664h-87z" />
    <glyph glyph-name="itilde" unicode="&#x129;" horiz-adv-x="205" 
d="M168 524q-33 0 -74 35q-42 35 -45 36q-7 2 -9 1q-4 -2 -6 -9q-2 -6 -4 -21q-1 -9 -1 -37h-87q0 63 29 103q29 38 68 38q34 0 75 -34q40 -34 44 -36q14 -6 18 16q2 18 2 48h87q0 -65 -28 -102q-29 -38 -69 -38zM60 0v474h85v-474h-85z" />
    <glyph glyph-name="Imacron" unicode="&#x12a;" horiz-adv-x="229" 
d="M-11 711v72h252v-72h-252zM71 0v664h87v-664h-87z" />
    <glyph glyph-name="imacron" unicode="&#x12b;" horiz-adv-x="205" 
d="M-23 529v72h252v-72h-252zM60 0v474h85v-474h-85z" />
    <glyph glyph-name="Ibreve" unicode="&#x12c;" horiz-adv-x="229" 
d="M115 706q-62 0 -106 41q-45 41 -45 99h96q0 -33 17 -56t38 -23q22 0 39 23q16 22 16 56h96q0 -58 -45 -99q-46 -41 -106 -41zM71 0v664h87v-664h-87z" />
    <glyph glyph-name="ibreve" unicode="&#x12d;" horiz-adv-x="205" 
d="M104 524q-62 0 -106 41q-45 41 -45 99h96q0 -33 17 -56t38 -23q22 0 39 23q16 22 16 56h96q0 -58 -45 -99q-46 -41 -106 -41zM60 0v474h85v-474h-85z" />
    <glyph glyph-name="Iogonek" unicode="&#x12e;" horiz-adv-x="229" 
d="M158 0q-43 -8 -77 -34q-36 -28 -36 -53q0 -50 113 -50l-14 -42q-111 0 -162 16q-54 17 -54 56q0 35 42 65q43 29 101 47v659h87v-664z" />
    <glyph glyph-name="iogonek" unicode="&#x12f;" horiz-adv-x="205" 
d="M103 633q27 0 46 -16t19 -40t-19 -40t-46 -16t-46 16t-19 40q0 23 20 40q19 16 45 16zM60 5v469h85v-474q-43 -8 -77 -34q-36 -28 -36 -53q0 -50 113 -50l-14 -42q-111 0 -162 16q-54 17 -54 56q0 35 43 65q43 29 102 47z" />
    <glyph glyph-name="Idot" unicode="&#x130;" horiz-adv-x="229" 
d="M115 703q-27 0 -46 16t-19 40q0 23 20 40q19 16 45 16q27 0 46 -16t19 -40t-19 -40t-46 -16zM71 0v664h87v-664h-87z" />
    <glyph glyph-name="dotlessi" unicode="&#x131;" horiz-adv-x="205" 
d="M60 0v474h85v-474h-85z" />
    <glyph glyph-name="IJ" unicode="&#x132;" horiz-adv-x="867" 
d="M71 0v664h87v-664h-87zM506 -13q-83 0 -155 39q-72 38 -110 110l67 65q26 -63 80 -95q54 -33 118 -33q100 0 156 54t56 157v380h87v-385q0 -144 -82 -217q-83 -75 -217 -75z" />
    <glyph glyph-name="ij" unicode="&#x133;" horiz-adv-x="410" 
d="M103 521q-27 0 -46 16t-19 40q0 23 20 40q19 16 45 16q27 0 46 -16t19 -40t-19 -40t-46 -16zM308 521q-27 0 -46 16t-19 40q0 23 20 40q19 16 45 16q27 0 46 -16t19 -40t-19 -40t-46 -16zM60 0v474h85v-474h-85zM189 -200q-4 0 -26 2l26 82q76 0 76 78v512h85v-522
q0 -70 -46 -110q-46 -42 -115 -42z" />
    <glyph glyph-name="Jcircumflex" unicode="&#x134;" horiz-adv-x="638" 
d="M584 846l97 -135h-103l-47 80l-47 -80h-103l97 135h106zM489 284v380h87v-385q0 -144 -82 -217q-82 -75 -217 -75q-83 0 -155 39q-72 38 -110 110l67 65q26 -63 80 -95q54 -33 118 -33q101 0 156 54q56 54 56 157z" />
    <glyph glyph-name="jcircumflex" unicode="&#x135;" horiz-adv-x="205" 
d="M155 664l97 -135h-103l-47 80l-47 -80h-103l97 135h106zM60 -38v512h85v-522q0 -70 -46 -110q-46 -42 -115 -42q-47 0 -86 24q-38 22 -58 61l73 45q7 -20 27 -33q19 -13 44 -13q76 0 76 78z" />
    <glyph glyph-name="Kcommaaccent" unicode="&#x136;" horiz-adv-x="655" 
d="M389 375l271 -375h-106l-224 308l-172 -189v-119h-87v664h87v-416l377 416h115zM357 -47q27 0 46 -18q19 -19 18 -50q-2 -57 -35 -88q-34 -33 -93 -33v42q55 0 76 36q-25 -6 -51 11t-26 44q0 23 20 40q19 16 45 16z" />
    <glyph glyph-name="kcommaaccent" unicode="&#x137;" horiz-adv-x="566" 
d="M335 281l236 -281h-109l-191 227l-126 -107v-120h-85v664h85v-435l290 245h129zM307 -47q27 0 46 -18q19 -19 18 -50q-2 -57 -35 -88q-34 -33 -93 -33v42q55 0 76 36q-25 -6 -51 11t-26 44q0 23 20 40q19 16 45 16z" />
    <glyph glyph-name="kgreenlandic" unicode="&#x138;" horiz-adv-x="566" 
d="M462 0l-191 227l-126 -107v-120h-85v474h85v-245l290 245h129l-229 -193l236 -281h-109z" />
    <glyph glyph-name="Lacute" unicode="&#x139;" horiz-adv-x="571" 
d="M254 846l-97 -135h-85l79 135h103zM158 86h398v-86h-485v664h87v-578z" />
    <glyph glyph-name="lacute" unicode="&#x13a;" horiz-adv-x="205" 
d="M60 710l79 135h103l-97 -135h-85zM60 0v664h85v-664h-85z" />
    <glyph glyph-name="Lcommaaccent" unicode="&#x13b;" horiz-adv-x="571" 
d="M158 86h398v-86h-485v664h87v-578zM315 -47q27 0 46 -18q19 -19 18 -50q-2 -57 -35 -88q-34 -33 -93 -33v42q55 0 76 36q-25 -6 -51 11t-26 44q0 23 20 40q19 16 45 16z" />
    <glyph glyph-name="lcommaaccent" unicode="&#x13c;" horiz-adv-x="205" 
d="M60 0v664h85v-664h-85zM40 -236v42q55 0 76 36q-25 -6 -51 11t-26 44q0 23 20 40q19 16 45 16t46 -18q19 -19 18 -50q-2 -57 -35 -88q-35 -33 -93 -33z" />
    <glyph glyph-name="Lcaron" unicode="&#x13d;" horiz-adv-x="571" 
d="M264 846l-97 -135h-106l-97 135h103l47 -80l47 80h103zM158 86h398v-86h-485v664h87v-578z" />
    <glyph glyph-name="lcaron" unicode="&#x13e;" horiz-adv-x="400" 
d="M239 483v42q55 0 76 36q-25 -6 -51 11t-26 44q0 23 20 40q19 16 45 16q27 0 46 -18q19 -19 18 -50q-2 -57 -35 -88q-34 -33 -93 -33zM60 0v664h85v-664h-85z" />
    <glyph glyph-name="Ldot" unicode="&#x13f;" horiz-adv-x="570" 
d="M158 86h398v-86h-485v664h87v-578zM406 225q-27 0 -46 16t-19 40q0 23 20 40q19 16 45 16q27 0 46 -16t19 -40t-19 -40t-46 -16z" />
    <glyph glyph-name="ldot" unicode="&#x140;" horiz-adv-x="433" 
d="M60 0v664h85v-664h-85zM320 369q-27 0 -46 16t-19 40q0 23 20 40q19 16 45 16q27 0 46 -16t19 -40t-19 -40t-46 -16z" />
    <glyph glyph-name="Lslash" unicode="&#x141;" horiz-adv-x="571" 
d="M158 86h398v-86h-485v291l-71 -45v99l71 45v274h87v-219l143 90v-99l-143 -90v-260z" />
    <glyph glyph-name="lslash" unicode="&#x142;" horiz-adv-x="324" 
d="M301 487v-98l-156 -74v-315h-85v275l-60 -29v98l60 29v291h85v-251z" />
    <glyph glyph-name="Nacute" unicode="&#x143;" horiz-adv-x="775" 
d="M527 846l-97 -135h-85l79 135h103zM617 664h87v-664h-100l-446 542v-542h-87v664h100l446 -543v543z" />
    <glyph glyph-name="nacute" unicode="&#x144;" horiz-adv-x="623" 
d="M485 664l-97 -135h-85l79 135h103zM349 488q96 0 159 -54q62 -54 62 -158v-275l-85 -1v245q0 159 -151 159q-76 0 -132 -55q-57 -55 -57 -154v-195h-85v474h85v-86q36 50 90 75q53 25 114 25z" />
    <glyph glyph-name="Ncommaaccent" unicode="&#x145;" horiz-adv-x="775" 
d="M617 664h87v-664h-100l-446 542v-542h-87v664h100l446 -543v543zM389 -47q27 0 46 -18q19 -19 18 -50q-2 -57 -35 -88q-34 -33 -93 -33v42q55 0 76 36q-25 -6 -51 11t-26 44q0 23 20 40q19 16 45 16z" />
    <glyph glyph-name="ncommaaccent" unicode="&#x146;" horiz-adv-x="623" 
d="M349 488q96 0 159 -54q62 -54 62 -158v-275l-85 -1v245q0 159 -151 159q-76 0 -132 -55q-57 -55 -57 -154v-195h-85v474h85v-86q36 50 90 75q53 25 114 25zM319 -47q27 0 46 -18q19 -19 18 -50q-2 -57 -35 -88q-34 -33 -93 -33v42q55 0 76 36q-25 -6 -51 11t-26 44
q0 23 20 40q19 16 45 16z" />
    <glyph glyph-name="Ncaron" unicode="&#x147;" horiz-adv-x="775" 
d="M440 711h-106l-97 135h103l47 -80l47 80h103zM617 664h87v-664h-100l-446 542v-542h-87v664h100l446 -543v543z" />
    <glyph glyph-name="ncaron" unicode="&#x148;" horiz-adv-x="623" 
d="M397 529h-106l-97 135h103l47 -80l47 80h103zM349 488q96 0 159 -54q62 -54 62 -158v-275l-85 -1v245q0 159 -151 159q-76 0 -132 -55q-57 -55 -57 -154v-195h-85v474h85v-86q36 50 90 75q53 25 114 25z" />
    <glyph glyph-name="napostrophe" unicode="&#x149;" horiz-adv-x="788" 
d="M98 672q26 0 46 -18q19 -19 18 -50q-2 -57 -35 -88q-35 -33 -93 -33v42q55 0 76 36q-25 -6 -51 11t-26 44q0 23 20 40q19 16 45 16zM514 488q96 0 159 -54q62 -54 62 -158v-275l-85 -1v245q0 159 -151 159q-76 0 -132 -55q-57 -55 -57 -154v-195h-85v474h85v-86
q36 50 90 75q53 25 114 25z" />
    <glyph glyph-name="Eng" unicode="&#x14a;" horiz-adv-x="775" 
d="M617 664h87v-712q0 -70 -46 -110q-46 -42 -115 -42q-4 0 -26 2l26 82q76 0 76 78v38h-15l-446 542v-542h-87v664h100l446 -543v543z" />
    <glyph glyph-name="eng" unicode="&#x14b;" horiz-adv-x="623" 
d="M349 488q96 0 159 -54q62 -54 62 -158v-324q0 -70 -46 -110q-46 -42 -115 -42q-4 0 -26 2l26 82q76 0 76 78v283q0 159 -151 159q-76 0 -132 -55q-57 -55 -57 -154v-195h-85v474h85v-86q36 50 90 75q53 25 114 25z" />
    <glyph glyph-name="Omacron" unicode="&#x14c;" horiz-adv-x="718" 
d="M233 711v72h252v-72h-252zM359 -13q-57 0 -114 20t-103 60q-49 41 -77 109q-29 70 -29 157q0 82 29 151q29 68 75 110q47 41 103 63q54 22 116 22q61 0 117 -22q57 -23 103 -63q46 -42 75 -110q28 -66 28 -151q0 -87 -29 -157q-28 -67 -76 -109q-48 -41 -103 -60
q-57 -20 -115 -20zM359 73q93 0 164 66q70 66 70 194q0 123 -70 192q-71 68 -164 68q-92 0 -163 -68q-71 -69 -71 -192q0 -128 71 -194q70 -66 163 -66z" />
    <glyph glyph-name="omacron" unicode="&#x14d;" horiz-adv-x="592" 
d="M170 529v72h252v-72h-252zM296 -13q-67 0 -124 25q-58 26 -99 84q-42 58 -42 141q0 121 80 186q79 64 185 64t185 -64q80 -65 80 -186q0 -82 -41 -141q-42 -59 -100 -84q-57 -25 -124 -25zM296 71q71 0 124 43q54 42 54 123q0 80 -53 124q-54 42 -125 42q-72 0 -124 -42
q-54 -43 -54 -124t54 -123q53 -43 124 -43z" />
    <glyph glyph-name="Obreve" unicode="&#x14e;" horiz-adv-x="718" 
d="M359 706q-62 0 -106 41q-45 41 -45 99h96q0 -33 17 -56t38 -23q22 0 39 23q16 22 16 56h96q0 -58 -45 -99q-46 -41 -106 -41zM359 -13q-57 0 -114 20t-103 60q-49 41 -77 109q-29 70 -29 157q0 82 29 151q29 68 75 110q47 41 103 63q54 22 116 22q61 0 117 -22
q57 -23 103 -63q46 -42 75 -110q28 -66 28 -151q0 -87 -29 -157q-28 -67 -76 -109q-48 -41 -103 -60q-57 -20 -115 -20zM359 73q93 0 164 66q70 66 70 194q0 123 -70 192q-71 68 -164 68q-92 0 -163 -68q-71 -69 -71 -192q0 -128 71 -194q70 -66 163 -66z" />
    <glyph glyph-name="obreve" unicode="&#x14f;" horiz-adv-x="592" 
d="M297 524q-62 0 -106 41q-45 41 -45 99h96q0 -33 17 -56t38 -23q22 0 39 23q16 22 16 56h96q0 -58 -45 -99q-46 -41 -106 -41zM296 -13q-67 0 -124 25q-58 26 -99 84q-42 58 -42 141q0 121 80 186q79 64 185 64t185 -64q80 -65 80 -186q0 -82 -41 -141q-42 -59 -100 -84
q-57 -25 -124 -25zM296 71q71 0 124 43q54 42 54 123q0 80 -53 124q-54 42 -125 42q-72 0 -124 -42q-54 -43 -54 -124t54 -123q53 -43 124 -43z" />
    <glyph glyph-name="Ohungarumlaut" unicode="&#x150;" horiz-adv-x="718" 
d="M260 711l79 135h82l-96 -135h-65zM394 711l78 135h83l-97 -135h-64zM359 -13q-57 0 -114 20t-103 60q-49 41 -77 109q-29 70 -29 157q0 82 29 151q29 68 75 110q47 41 103 63q54 22 116 22q61 0 117 -22q57 -23 103 -63q46 -42 75 -110q28 -66 28 -151q0 -87 -29 -157
q-28 -67 -76 -109q-48 -41 -103 -60q-57 -20 -115 -20zM359 73q93 0 164 66q70 66 70 194q0 123 -70 192q-71 68 -164 68q-92 0 -163 -68q-71 -69 -71 -192q0 -128 71 -194q70 -66 163 -66z" />
    <glyph glyph-name="ohungarumlaut" unicode="&#x151;" horiz-adv-x="592" 
d="M197 529l79 135h82l-96 -135h-65zM331 529l78 135h83l-97 -135h-64zM296 -13q-67 0 -124 25q-58 26 -99 84q-42 58 -42 141q0 121 80 186q79 64 185 64t185 -64q80 -65 80 -186q0 -82 -41 -141q-42 -59 -100 -84q-57 -25 -124 -25zM296 71q71 0 124 43q54 42 54 123
q0 80 -53 124q-54 42 -125 42q-72 0 -124 -42q-54 -43 -54 -124t54 -123q53 -43 124 -43z" />
    <glyph glyph-name="OE" unicode="&#x152;" horiz-adv-x="1136" 
d="M1100 578h-506q67 -75 84 -185h358v-86h-355q-7 -136 -85 -221h504v-86h-647q-43 -13 -94 -13q-57 0 -114 20t-103 60q-49 41 -77 109q-29 70 -29 157q0 82 29 151q29 68 75 110q47 41 103 63q54 22 116 22q51 0 97 -15h644v-86zM125 333q0 -128 71 -194q70 -66 163 -66
t164 66q70 66 70 194q0 123 -70 192q-71 68 -164 68q-92 0 -163 -68q-71 -69 -71 -192z" />
    <glyph glyph-name="oe" unicode="&#x153;" horiz-adv-x="1034" 
d="M739 487q128 0 201 -79q73 -78 62 -206h-438q12 -65 63 -98q50 -34 112 -34q49 0 92 22q44 21 67 62l71 -49q-34 -57 -98 -88q-63 -30 -132 -30q-65 0 -125 27q-59 25 -96 77q-38 -52 -97 -77q-60 -27 -125 -27q-67 0 -124 25q-58 26 -99 84q-42 58 -42 141q0 121 80 186
q79 64 185 64q64 0 125 -26q59 -27 97 -78q38 51 97 78q60 26 124 26zM739 404q-57 0 -107 -30q-49 -31 -65 -89h344q-16 58 -65 89q-50 30 -107 30zM296 71q71 0 124 43q54 42 54 123q0 80 -53 124q-54 42 -125 42q-72 0 -124 -42q-54 -43 -54 -124t54 -123q53 -43 124 -43
z" />
    <glyph glyph-name="Racute" unicode="&#x154;" horiz-adv-x="665" 
d="M464 846l-97 -135h-85l79 135h103zM641 0h-106l-179 251q-7 -1 -32 -1h-166v-250h-87v664q74 6 253 6q308 0 308 -212q0 -158 -179 -196zM158 582v-246h166q120 0 170 30q49 30 49 92q0 64 -49 95t-170 31q-62 0 -166 -2z" />
    <glyph glyph-name="racute" unicode="&#x155;" horiz-adv-x="573" 
d="M484 664l-97 -135h-85l79 135h103zM345 486q91 0 149 -51q57 -51 56 -135l-85 -43q7 66 -34 106q-43 39 -108 39q-73 0 -126 -50q-52 -49 -52 -139v-213h-85v474h85v-86q39 48 91 73q53 25 109 25z" />
    <glyph glyph-name="Rcommaaccent" unicode="&#x156;" horiz-adv-x="665" 
d="M453 262l188 -262h-106l-179 251q-7 -1 -32 -1h-166v-250h-87v664q74 6 253 6q308 0 308 -212q0 -158 -179 -196zM158 582v-246h166q120 0 170 30q49 30 49 92q0 64 -49 95t-170 31q-62 0 -166 -2zM348 -47q26 0 46 -18q19 -19 18 -50q-2 -57 -35 -88q-35 -33 -93 -33v42
q55 0 76 36q-25 -6 -51 11t-26 44q0 23 20 40q19 16 45 16z" />
    <glyph glyph-name="rcommaaccent" unicode="&#x157;" horiz-adv-x="573" 
d="M345 486q91 0 149 -51q57 -51 56 -135l-85 -43q7 66 -34 106q-43 39 -108 39q-73 0 -126 -50q-52 -49 -52 -139v-213h-85v474h85v-86q39 48 91 73q53 25 109 25zM306 -47q26 0 46 -18q19 -19 18 -50q-2 -57 -35 -88q-35 -33 -93 -33v42q55 0 76 36q-25 -6 -51 11t-26 44
q0 23 20 40q19 16 45 16z" />
    <glyph glyph-name="Rcaron" unicode="&#x158;" horiz-adv-x="665" 
d="M377 711h-106l-97 135h103l47 -80l47 80h103zM641 0h-106l-179 251q-7 -1 -32 -1h-166v-250h-87v664q74 6 253 6q308 0 308 -212q0 -158 -179 -196zM158 582v-246h166q120 0 170 30q49 30 49 92q0 64 -49 95t-170 31q-62 0 -166 -2z" />
    <glyph glyph-name="rcaron" unicode="&#x159;" horiz-adv-x="573" 
d="M396 529h-106l-97 135h103l47 -80l47 80h103zM345 486q91 0 149 -51q57 -51 56 -135l-85 -43q7 66 -34 106q-43 39 -108 39q-73 0 -126 -50q-52 -49 -52 -139v-213h-85v474h85v-86q39 48 91 73q53 25 109 25z" />
    <glyph glyph-name="Sacute" unicode="&#x15a;" horiz-adv-x="652" 
d="M286 711l79 135h103l-97 -135h-85zM333 -13q-117 0 -197 50q-81 50 -99 131l83 40q6 -65 65 -100t148 -35q95 0 145 28q51 28 51 76q0 41 -42 70q-45 28 -156 56q-147 38 -211 82q-64 45 -64 120q0 77 79 126q78 48 194 48q113 0 187 -48q72 -50 87 -137l-84 -40
q-2 70 -52 104q-53 35 -138 35q-81 0 -132 -27q-52 -27 -52 -67q0 -31 48 -58q44 -26 160 -55q144 -38 205 -82q60 -46 60 -127q0 -89 -78 -139q-78 -51 -207 -51z" />
    <glyph glyph-name="sacute" unicode="&#x15b;" horiz-adv-x="555" 
d="M232 529l79 135h103l-97 -135h-85zM286 -13q-98 0 -173 39q-75 38 -89 98l78 34q4 -39 59 -63q53 -25 125 -25q70 0 113 18q44 18 44 44q0 17 -10 27t-48 22q-37 12 -110 24q-126 21 -180 52q-56 32 -56 95q0 64 69 100q70 35 167 35q94 0 160 -36q65 -37 78 -99l-79 -34
q-2 41 -46 64q-44 22 -113 22q-63 0 -107 -15t-44 -36q0 -20 40 -35q37 -16 148 -34q115 -19 166 -52q50 -32 50 -89q0 -81 -67 -118q-68 -38 -175 -38z" />
    <glyph glyph-name="Scircumflex" unicode="&#x15c;" horiz-adv-x="652" 
d="M328 791l-47 -80h-103l97 135h106l97 -135h-103zM353 386q144 -38 205 -82q60 -46 60 -127q0 -89 -78 -139q-78 -51 -207 -51q-117 0 -197 50q-81 50 -99 131l83 40q6 -65 65 -100t148 -35q95 0 145 28q51 28 51 76q0 41 -42 70q-45 28 -156 56q-147 38 -211 82
q-64 45 -64 120q0 77 79 126q78 48 194 48q113 0 187 -48q72 -50 87 -137l-84 -40q-2 70 -52 104q-53 35 -138 35q-81 0 -132 -27q-52 -27 -52 -67q0 -31 48 -58q44 -26 160 -55z" />
    <glyph glyph-name="scircumflex" unicode="&#x15d;" horiz-adv-x="555" 
d="M274 609l-47 -80h-103l97 135h106l97 -135h-103zM312 284q115 -19 166 -52q50 -32 50 -89q0 -81 -67 -118q-68 -38 -175 -38q-98 0 -173 39q-75 38 -89 98l78 34q4 -39 59 -63q53 -25 125 -25q70 0 113 18q44 18 44 44q0 17 -10 27t-48 22q-37 12 -110 24
q-126 21 -180 52q-56 32 -56 95q0 64 69 100q70 35 167 35q94 0 160 -36q65 -37 78 -99l-79 -34q-2 41 -46 64q-44 22 -113 22q-63 0 -107 -15t-44 -36q0 -20 40 -35q37 -16 148 -34z" />
    <glyph glyph-name="Scedilla" unicode="&#x15e;" horiz-adv-x="652" 
d="M618 177q0 -83 -69 -133q-70 -50 -186 -56l-17 -33q57 0 93 -15q36 -16 36 -47q0 -36 -50 -54q-49 -18 -169 -18l-13 53q128 0 128 23q0 9 -32 15q-29 6 -65 4l32 72q-107 5 -179 54q-73 50 -90 126l83 40q6 -65 65 -100t148 -35q95 0 145 28q51 28 51 76q0 41 -42 70
q-45 28 -156 56q-147 38 -211 82q-64 45 -64 120q0 77 79 126q78 48 194 48q113 0 187 -48q72 -50 87 -137l-84 -40q-2 70 -52 104q-53 35 -138 35q-81 0 -132 -27q-52 -27 -52 -67q0 -31 48 -58q44 -26 160 -55q144 -38 205 -82q60 -46 60 -127z" />
    <glyph glyph-name="scedilla" unicode="&#x15f;" horiz-adv-x="555" 
d="M528 143q0 -75 -60 -113t-156 -42l-21 -40q57 0 93 -15q36 -17 36 -47q0 -36 -50 -54q-49 -18 -169 -18l-13 53q128 0 128 23q0 9 -32 15q-29 6 -65 4l36 79q-88 6 -153 44t-78 92l78 34q4 -39 59 -63q53 -25 125 -25q70 0 113 18q44 18 44 44q0 17 -10 27t-48 22
q-37 12 -110 24q-126 21 -180 52q-56 32 -56 95q0 64 69 100q70 35 167 35q94 0 160 -36q65 -37 78 -99l-79 -34q-2 41 -46 64q-44 22 -113 22q-63 0 -107 -15t-44 -36q0 -20 40 -35q37 -16 148 -34q115 -19 166 -52q50 -32 50 -89z" />
    <glyph glyph-name="Scaron" unicode="&#x160;" horiz-adv-x="652" 
d="M381 711h-106l-97 135h103l47 -80l47 80h103zM353 386q144 -38 205 -82q60 -46 60 -127q0 -89 -78 -139q-78 -51 -207 -51q-117 0 -197 50q-81 50 -99 131l83 40q6 -65 65 -100t148 -35q95 0 145 28q51 28 51 76q0 41 -42 70q-45 28 -156 56q-147 38 -211 82
q-64 45 -64 120q0 77 79 126q78 48 194 48q113 0 187 -48q72 -50 87 -137l-84 -40q-2 70 -52 104q-53 35 -138 35q-81 0 -132 -27q-52 -27 -52 -67q0 -31 48 -58q44 -26 160 -55z" />
    <glyph glyph-name="scaron" unicode="&#x161;" horiz-adv-x="555" 
d="M326 529h-106l-97 135h103l47 -80l47 80h103zM312 284q115 -19 166 -52q50 -32 50 -89q0 -81 -67 -118q-68 -38 -175 -38q-98 0 -173 39q-75 38 -89 98l78 34q4 -39 59 -63q53 -25 125 -25q70 0 113 18q44 18 44 44q0 17 -10 27t-48 22q-37 12 -110 24q-126 21 -180 52
q-56 32 -56 95q0 64 69 100q70 35 167 35q94 0 160 -36q65 -37 78 -99l-79 -34q-2 41 -46 64q-44 22 -113 22q-63 0 -107 -15t-44 -36q0 -20 40 -35q37 -16 148 -34z" />
    <glyph glyph-name="uni0162" unicode="&#x162;" horiz-adv-x="595" 
d="M341 0h-4l-24 -45q57 0 93 -15q36 -16 36 -47q0 -36 -50 -54q-49 -18 -169 -18l-13 53q128 0 128 23q0 9 -32 15q-29 6 -65 4l38 84h-25v578h-239v86h565v-86h-239v-578z" />
    <glyph glyph-name="uni0163" unicode="&#x163;" horiz-adv-x="449" 
d="M325 -45q57 0 93 -15q36 -16 36 -47q0 -36 -50 -54t-169 -18l-13 53q128 0 128 23q0 9 -32 15q-29 6 -65 4l33 72q-61 8 -98 48q-39 40 -39 103v251h-121v84h121v98l85 51v-149h161v-84h-161v-241q0 -78 76 -78q26 0 45 13q18 13 26 33l73 -45q-31 -65 -110 -82z" />
    <glyph glyph-name="Tcaron" unicode="&#x164;" horiz-adv-x="595" 
d="M350 711h-106l-97 135h103l47 -80l47 80h103zM580 664v-86h-239v-578h-87v578h-239v86h565z" />
    <glyph glyph-name="tcaron" unicode="&#x165;" horiz-adv-x="644" 
d="M547 672q26 0 46 -18q19 -19 18 -50q-2 -57 -35 -88q-34 -33 -93 -33v42q55 0 76 36q-25 -6 -51 11t-26 44q0 23 20 40q19 16 45 16zM310 71q26 0 45 13q18 13 26 33l73 -45q-20 -39 -58 -61q-39 -24 -86 -24q-68 0 -115 42q-46 40 -46 110v251h-121v84h121v98l85 51
v-149h161v-84h-161v-241q0 -78 76 -78z" />
    <glyph glyph-name="Tbar" unicode="&#x166;" horiz-adv-x="595" 
d="M580 578h-239v-187h101v-82h-101v-309h-87v309h-100v82h100v187h-239v86h565v-86z" />
    <glyph glyph-name="tbar" unicode="&#x167;" horiz-adv-x="449" 
d="M381 117l73 -45q-20 -39 -58 -61q-39 -24 -86 -24q-68 0 -115 42q-46 40 -46 110v118h-81v82h81v51h-121v84h121v98l85 51v-149h161v-84h-161v-51h122v-82h-122v-108q0 -78 76 -78q26 0 45 13q18 13 26 33z" />
    <glyph glyph-name="Utilde" unicode="&#x168;" horiz-adv-x="723" 
d="M426 706q-33 0 -74 35q-42 35 -45 36q-7 2 -9 1q-4 -2 -6 -9q-2 -6 -4 -21q-1 -9 -1 -37h-87q0 63 29 103q29 38 68 38q34 0 75 -34q40 -34 44 -36q14 -6 18 16q2 18 2 48h87q0 -65 -28 -102q-29 -38 -69 -38zM362 -13q-134 0 -217 75q-83 74 -83 217v385h87v-380
q0 -103 56 -157q55 -54 157 -54q100 0 156 54t56 157v380h87v-385q0 -144 -82 -217q-83 -75 -217 -75z" />
    <glyph glyph-name="utilde" unicode="&#x169;" horiz-adv-x="623" 
d="M254 595q-7 2 -9 1q-5 -2 -6 -9q-2 -6 -4 -21q-1 -9 -1 -37h-87q0 63 29 103q29 38 68 38q34 0 75 -34q40 -34 44 -36q14 -6 18 16q2 18 2 48h87q0 -65 -28 -102q-29 -38 -69 -38q-33 0 -74 35q-42 35 -45 36zM478 474h85v-474h-85v84q-36 -45 -90 -71t-108 -26
q-101 0 -163 58q-63 59 -63 183v246h85v-246q0 -80 44 -118q43 -39 109 -39q80 0 133 50t53 139v214z" />
    <glyph glyph-name="Umacron" unicode="&#x16a;" horiz-adv-x="723" 
d="M235 711v72h252v-72h-252zM362 -13q-134 0 -217 75q-83 74 -83 217v385h87v-380q0 -103 56 -157q55 -54 157 -54q100 0 156 54t56 157v380h87v-385q0 -144 -82 -217q-83 -75 -217 -75z" />
    <glyph glyph-name="umacron" unicode="&#x16b;" horiz-adv-x="623" 
d="M434 601v-72h-252v72h252zM478 474h85v-474h-85v84q-36 -45 -90 -71t-108 -26q-101 0 -163 58q-63 59 -63 183v246h85v-246q0 -80 44 -118q43 -39 109 -39q80 0 133 50t53 139v214z" />
    <glyph glyph-name="Ubreve" unicode="&#x16c;" horiz-adv-x="723" 
d="M361 706q-62 0 -106 41q-45 41 -45 99h96q0 -33 17 -56t38 -23q22 0 39 23q16 22 16 56h96q0 -58 -45 -99q-46 -41 -106 -41zM362 -13q-134 0 -217 75q-83 74 -83 217v385h87v-380q0 -103 56 -157q55 -54 157 -54q100 0 156 54t56 157v380h87v-385q0 -144 -82 -217
q-83 -75 -217 -75z" />
    <glyph glyph-name="ubreve" unicode="&#x16d;" horiz-adv-x="623" 
d="M309 524q-62 0 -106 41q-45 41 -45 99h96q0 -33 17 -56t38 -23q22 0 39 23q16 22 16 56h96q0 -58 -45 -99q-46 -41 -106 -41zM478 474h85v-474h-85v84q-36 -45 -90 -71t-108 -26q-101 0 -163 58q-63 59 -63 183v246h85v-246q0 -80 44 -118q43 -39 109 -39q80 0 133 50
t53 139v214z" />
    <glyph glyph-name="Uring" unicode="&#x16e;" horiz-adv-x="723" 
d="M361 707q-60 0 -105 21t-45 51q0 28 46 49q45 21 104 21q60 0 106 -20q44 -21 44 -50q0 -30 -44 -51t-106 -21zM361 741q21 0 35 12q14 11 14 26t-14 26q-13 10 -35 10q-21 0 -35 -11q-15 -10 -15 -25t15 -26q14 -12 35 -12zM362 -13q-134 0 -217 75q-83 74 -83 217v385
h87v-380q0 -103 56 -157q55 -54 157 -54q100 0 156 54t56 157v380h87v-385q0 -144 -82 -217q-83 -75 -217 -75z" />
    <glyph glyph-name="uring" unicode="&#x16f;" horiz-adv-x="623" 
d="M308 525q-60 0 -105 21t-45 51q0 28 46 49q45 21 104 21q60 0 106 -20q44 -21 44 -50q0 -30 -44 -51t-106 -21zM308 633q-21 0 -35 -11q-15 -10 -15 -25t15 -26q13 -12 35 -12t35 12q14 11 14 26t-14 26q-13 10 -35 10zM478 474h85v-474h-85v84q-36 -45 -90 -71t-108 -26
q-101 0 -163 58q-63 59 -63 183v246h85v-246q0 -80 44 -118q43 -39 109 -39q80 0 133 50t53 139v214z" />
    <glyph glyph-name="Uhungarumlaut" unicode="&#x170;" horiz-adv-x="723" 
d="M262 711l79 135h82l-96 -135h-65zM396 711l78 135h83l-97 -135h-64zM362 -13q-134 0 -217 75q-83 74 -83 217v385h87v-380q0 -103 56 -157q55 -54 157 -54q100 0 156 54t56 157v380h87v-385q0 -144 -82 -217q-83 -75 -217 -75z" />
    <glyph glyph-name="uhungarumlaut" unicode="&#x171;" horiz-adv-x="623" 
d="M370 664l-96 -135h-65l79 135h82zM407 529h-64l78 135h83zM478 474h85v-474h-85v84q-36 -45 -90 -71t-108 -26q-101 0 -163 58q-63 59 -63 183v246h85v-246q0 -80 44 -118q43 -39 109 -39q80 0 133 50t53 139v214z" />
    <glyph glyph-name="Uogonek" unicode="&#x172;" horiz-adv-x="723" 
d="M574 664h87v-385q0 -109 -49 -179t-136 -97q-42 -15 -75 -41q-31 -25 -31 -49q0 -50 120 -50l-14 -42q-116 0 -168 16q-55 16 -55 56q0 52 95 94q-130 5 -207 79q-79 73 -79 213v385h87v-380q0 -103 56 -157q55 -54 157 -54q100 0 156 54t56 157v380z" />
    <glyph glyph-name="uogonek" unicode="&#x173;" horiz-adv-x="623" 
d="M563 0q-43 -8 -77 -34q-36 -28 -36 -53q0 -50 113 -50l-14 -42q-111 0 -162 16q-54 17 -54 56q0 35 43 65q43 29 102 47v79q-36 -45 -90 -71t-108 -26q-101 0 -163 58q-63 59 -63 183v246h85v-246q0 -80 44 -118q43 -39 109 -39q80 0 133 50t53 139v214h85v-474z" />
    <glyph glyph-name="Wcircumflex" unicode="&#x174;" horiz-adv-x="966" 
d="M482 791l-47 -80h-103l97 135h106l97 -135h-103zM868 664h90l-201 -664h-109l-165 556l-166 -556h-109l-200 664h91l164 -549l164 549h111l165 -549z" />
    <glyph glyph-name="wcircumflex" unicode="&#x175;" horiz-adv-x="902" 
d="M450 609l-47 -80h-103l97 135h106l97 -135h-103zM813 474h90l-190 -474h-110l-151 371l-152 -371h-110l-191 474h91l155 -391l157 391h99l157 -391z" />
    <glyph glyph-name="Ycircumflex" unicode="&#x176;" horiz-adv-x="700" 
d="M349 791l-47 -80h-103l97 135h106l97 -135h-103zM690 664l-296 -424v-240h-87v239l-297 425h105l235 -338l235 338h105z" />
    <glyph glyph-name="ycircumflex" unicode="&#x177;" horiz-adv-x="590" 
d="M294 609l-47 -80h-103l97 135h106l97 -135h-103zM497 474h94l-337 -659h-94l95 185l-256 474h95l207 -383z" />
    <glyph glyph-name="Ydieresis" unicode="&#x178;" horiz-adv-x="700" 
d="M250 703q-27 0 -46 16t-19 40q0 23 20 40q19 16 45 16q27 0 46 -16t19 -40t-19 -40t-46 -16zM420 703q-27 0 -46 16t-19 40q0 23 20 40q19 16 45 16q27 0 46 -16t19 -40t-19 -40t-46 -16zM690 664l-296 -424v-240h-87v239l-297 425h105l235 -338l235 338h105z" />
    <glyph glyph-name="Zacute" unicode="&#x179;" horiz-adv-x="587" 
d="M433 846l-97 -135h-85l79 135h103zM554 664v-86l-409 -494l401 2v-86h-513v84l410 494h-404v86h515z" />
    <glyph glyph-name="zacute" unicode="&#x17a;" horiz-adv-x="537" 
d="M407 664l-97 -135h-85l79 135h103zM505 474v-84l-346 -306h341v-84h-468v84l347 306h-338v84h464z" />
    <glyph glyph-name="Zdotaccent" unicode="&#x17b;" horiz-adv-x="587" 
d="M294 703q-27 0 -46 16t-19 40q0 23 20 40q19 16 45 16q27 0 46 -16t19 -40t-19 -40t-46 -16zM554 664v-86l-409 -494l401 2v-86h-513v84l410 494h-404v86h515z" />
    <glyph glyph-name="zdotaccent" unicode="&#x17c;" horiz-adv-x="537" 
d="M268 521q-27 0 -46 16t-19 40q0 23 20 40q19 16 45 16q27 0 46 -16t19 -40t-19 -40t-46 -16zM505 474v-84l-346 -306h341v-84h-468v84l347 306h-338v84h464z" />
    <glyph glyph-name="Zcaron" unicode="&#x17d;" horiz-adv-x="587" 
d="M346 711h-106l-97 135h103l47 -80l47 80h103zM554 664v-86l-409 -494l401 2v-86h-513v84l410 494h-404v86h515z" />
    <glyph glyph-name="zcaron" unicode="&#x17e;" horiz-adv-x="537" 
d="M319 529h-106l-97 135h103l47 -80l47 80h103zM505 474v-84l-346 -306h341v-84h-468v84l347 306h-338v84h464z" />
    <glyph glyph-name="longs" unicode="&#x17f;" horiz-adv-x="449" 
d="M310 679q46 0 86 -23q38 -23 58 -62l-73 -45q-8 20 -26 33q-19 13 -45 13q-76 0 -76 -78v-517h-85v390h-121v84h121v53q0 69 46 111q47 41 115 41z" />
    <glyph glyph-name="uni018F" unicode="&#x18f;" horiz-adv-x="717" 
d="M359 678q62 0 116 -22q57 -23 103 -63q47 -42 75 -109q28 -66 28 -151q0 -87 -29 -157q-28 -67 -76 -109q-48 -41 -103 -60q-57 -20 -114 -20t-114 20t-103 60q-49 41 -77 109q-29 70 -29 157q0 28 5 53h547q-15 100 -81 153q-67 53 -148 53q-64 0 -120 -29
q-57 -31 -86 -88l-73 52q44 75 121 113q78 38 158 38zM359 73q87 0 155 56q66 55 77 171h-465q10 -116 78 -171q68 -56 155 -56z" />
    <glyph glyph-name="florin" unicode="&#x192;" horiz-adv-x="566" 
d="M521 590q-69 0 -118 -39t-57 -104l-5 -51l-2 -23h134v-82h-143l-1 -12l-14 -135l-9 -84q-11 -96 -90 -154q-80 -59 -180 -59l9 87q70 2 119 40q49 39 57 104l22 213h-150v82h159l9 92q11 96 90 154q80 59 179 59z" />
    <glyph glyph-name="uni019D" unicode="&#x19d;" horiz-adv-x="764" 
d="M606 664h87v-664h-100l-446 542v-590q0 -69 -47 -110q-47 -42 -116 -42q-4 0 -26 2l26 82q76 0 76 78v702h100l446 -543v543z" />
    <glyph glyph-name="uni01CD" unicode="&#x1cd;" horiz-adv-x="672" 
d="M388 711h-106l-97 135h103l47 -80l47 80h103zM573 0l-60 146h-354l-60 -146h-93l273 664h114l273 -664h-93zM195 232h282l-141 343z" />
    <glyph glyph-name="uni01CE" unicode="&#x1ce;" horiz-adv-x="619" 
d="M340 529h-106l-97 135h103l47 -80l47 80h103zM474 474h85v-474h-85v71q-36 -42 -88 -63t-107 -21q-46 0 -87 16q-41 14 -79 44q-35 27 -59 79q-23 51 -23 111q0 81 39 140q38 59 93 84q55 26 116 26q53 0 106 -21q51 -20 89 -63v71zM296 71q80 0 129 46q49 45 49 120
t-49 121q-49 45 -129 45q-78 0 -128 -45q-50 -47 -50 -121q0 -75 50 -120q49 -46 128 -46z" />
    <glyph glyph-name="uni01CF" unicode="&#x1cf;" horiz-adv-x="229" 
d="M161 846h103l-97 -135h-106l-97 135h103l47 -80zM71 0v664h87v-664h-87z" />
    <glyph glyph-name="uni01D0" unicode="&#x1d0;" horiz-adv-x="205" 
d="M148 664h103l-97 -135h-106l-97 135h103l47 -80zM60 0v474h85v-474h-85z" />
    <glyph glyph-name="uni01D1" unicode="&#x1d1;" horiz-adv-x="718" 
d="M411 711h-106l-97 135h103l47 -80l47 80h103zM359 679q61 0 117 -22q57 -23 103 -63q46 -42 75 -110q28 -66 28 -151q0 -87 -29 -157q-28 -67 -76 -109q-48 -41 -103 -60q-57 -20 -115 -20q-57 0 -114 20t-103 60q-49 41 -77 109q-29 70 -29 157q0 82 29 151
q29 68 75 110q47 41 103 63q54 22 116 22zM359 73q93 0 164 66q70 66 70 194q0 123 -70 192q-71 68 -164 68q-92 0 -163 -68q-71 -69 -71 -192q0 -128 71 -194q70 -66 163 -66z" />
    <glyph glyph-name="uni01D2" unicode="&#x1d2;" horiz-adv-x="592" 
d="M347 529h-106l-97 135h103l47 -80l47 80h103zM296 487q106 0 185 -64q80 -65 80 -186q0 -82 -41 -141q-42 -59 -100 -84q-57 -25 -124 -25t-124 25q-58 26 -99 84q-42 58 -42 141q0 121 80 186q79 64 185 64zM296 71q71 0 124 43q54 42 54 123q0 80 -53 124
q-54 42 -125 42q-72 0 -124 -42q-54 -43 -54 -124t54 -123q53 -43 124 -43z" />
    <glyph glyph-name="uni01D3" unicode="&#x1d3;" horiz-adv-x="723" 
d="M413 711h-106l-97 135h103l47 -80l47 80h103zM574 664h87v-385q0 -144 -82 -217q-83 -75 -217 -75t-217 75q-83 74 -83 217v385h87v-380q0 -103 56 -157q55 -54 157 -54q100 0 156 54t56 157v380z" />
    <glyph glyph-name="uni01D4" unicode="&#x1d4;" horiz-adv-x="623" 
d="M359 529h-106l-97 135h103l47 -80l47 80h103zM478 474h85v-474h-85v84q-36 -45 -90 -71t-108 -26q-101 0 -163 58q-63 59 -63 183v246h85v-246q0 -80 44 -118q43 -39 109 -39q80 0 133 50t53 139v214z" />
    <glyph glyph-name="uni01E2" unicode="&#x1e2;" horiz-adv-x="1112" 
d="M825 783v-72h-252v72h252zM1076 578h-653l76 -185h513v-86h-477l91 -221h450v-86h-508l-60 146h-354l-60 -146h-93l273 664h802v-86zM190 232h282l-141 343z" />
    <glyph glyph-name="uni01E3" unicode="&#x1e3;" horiz-adv-x="1061" 
d="M643 601v-72h-252v72h252zM766 487q128 0 201 -79q73 -78 62 -206h-438q12 -65 63 -98q50 -34 112 -34q49 0 92 22q44 21 67 62l71 -49q-34 -57 -98 -88q-63 -30 -132 -30q-59 0 -113 22q-58 22 -94 64v-73h-85v71q-36 -42 -88 -63t-107 -21q-46 0 -87 16q-41 14 -79 44
q-35 27 -59 79q-23 51 -23 111q0 81 39 140q38 59 93 84q55 26 116 26q53 0 106 -21q51 -20 89 -63v71h85v-73q77 86 207 86zM766 404q-58 0 -107 -30q-49 -31 -65 -89h344q-16 58 -65 89q-49 30 -107 30zM296 71q80 0 129 46q49 45 49 120t-49 121q-49 45 -129 45
q-78 0 -128 -45q-50 -47 -50 -121q0 -75 50 -120q49 -46 128 -46z" />
    <glyph glyph-name="Gcaron" unicode="&#x1e6;" horiz-adv-x="713" 
d="M417 711h-106l-97 135h103l47 -80l47 80h103zM309 363h344v-363h-82v119q-31 -66 -92 -99t-138 -33q-50 0 -104 20q-51 19 -98 60q-45 39 -74 109t-29 157q0 82 29 151q29 68 75 110q46 40 105 63q57 22 120 22q83 0 155 -39q73 -39 110 -111l-67 -65q-26 66 -79 97
q-55 32 -122 32q-105 0 -171 -72t-66 -188q0 -127 67 -193q67 -67 167 -67q78 0 134 55t74 150h-258v85z" />
    <glyph glyph-name="gcaron" unicode="&#x1e7;" horiz-adv-x="619" 
d="M330 529h-106l-97 135h103l47 -80l47 80h103zM474 474h85v-448q0 -113 -77 -169q-78 -57 -199 -57q-84 0 -147 29q-62 29 -85 79l70 55q20 -80 168 -80q85 0 135 36q50 35 50 107v45q-36 -42 -88 -63t-107 -21q-46 0 -87 16q-41 14 -79 44q-35 27 -59 79q-23 51 -23 111
q0 81 39 140q38 59 93 84q55 26 116 26q53 0 106 -21q51 -20 89 -63v71zM296 71q80 0 129 46q49 45 49 120t-49 121q-49 45 -129 45q-78 0 -128 -45q-50 -47 -50 -121q0 -75 50 -120q49 -46 128 -46z" />
    <glyph glyph-name="uni01EA" unicode="&#x1ea;" horiz-adv-x="718" 
d="M682 333q0 -134 -61 -216t-158 -114q-42 -15 -75 -41q-31 -25 -31 -49q0 -50 120 -50l-14 -42q-116 0 -168 16q-55 16 -55 56q0 53 96 95q-60 5 -108 26q-52 21 -96 62q-46 42 -70 107q-26 67 -26 150q0 82 29 151q29 68 75 110q47 41 103 63q54 22 116 22q61 0 117 -22
q57 -23 103 -63q46 -42 75 -110q28 -66 28 -151zM359 73q93 0 164 66q70 66 70 194q0 123 -70 192q-71 68 -164 68q-92 0 -163 -68q-71 -69 -71 -192q0 -128 71 -194q70 -66 163 -66z" />
    <glyph glyph-name="uni01EB" unicode="&#x1eb;" horiz-adv-x="591" 
d="M381 -1q-39 -19 -63 -42q-25 -24 -25 -44q0 -50 120 -50l-14 -42q-116 0 -168 16q-55 16 -55 56q0 53 97 95q-98 8 -170 72q-72 63 -72 177q0 121 80 186q79 64 185 64t185 -64q80 -65 80 -186q0 -95 -51 -155q-50 -60 -129 -83zM118 237q0 -81 54 -123q53 -43 124 -43
t124 43q54 42 54 123q0 80 -53 124q-54 42 -125 42q-72 0 -124 -42q-54 -43 -54 -124z" />
    <glyph glyph-name="Aringacute" unicode="&#x1fa;" horiz-adv-x="672" 
d="M336 707q-60 0 -105 21t-45 51q0 28 46 49q45 21 104 21q21 0 27 -1l33 56h103l-55 -77q42 -19 42 -48q0 -30 -44 -51t-106 -21zM336 815q-21 0 -35 -11q-15 -10 -15 -25t15 -26q13 -12 35 -12t35 12q14 11 14 26t-14 26q-13 10 -35 10zM573 0l-60 146h-354l-60 -146h-93
l273 664h114l273 -664h-93zM195 232h282l-141 343z" />
    <glyph glyph-name="aringacute" unicode="&#x1fb;" horiz-adv-x="619" 
d="M289 525q-60 0 -105 21t-45 51q0 28 46 49q45 21 104 21q21 0 27 -1l33 56h103l-55 -77q42 -19 42 -48q0 -30 -44 -51q-43 -21 -106 -21zM289 633q-21 0 -35 -11q-15 -10 -15 -25t15 -26q14 -12 35 -12t35 12q14 11 14 26t-14 26q-13 10 -35 10zM474 474h85v-474h-85v71
q-36 -42 -88 -63t-107 -21q-46 0 -87 16q-41 14 -79 44q-35 27 -59 79q-23 51 -23 111q0 81 39 140q38 59 93 84q55 26 116 26q53 0 106 -21q51 -20 89 -63v71zM296 71q80 0 129 46q49 45 49 120t-49 121q-49 45 -129 45q-78 0 -128 -45q-50 -47 -50 -121q0 -75 50 -120
q49 -46 128 -46z" />
    <glyph glyph-name="AEacute" unicode="&#x1fc;" horiz-adv-x="1112" 
d="M838 846l-97 -135h-85l79 135h103zM1076 578h-653l76 -185h513v-86h-477l91 -221h450v-86h-508l-60 146h-354l-60 -146h-93l273 664h802v-86zM190 232h282l-141 343z" />
    <glyph glyph-name="aeacute" unicode="&#x1fd;" horiz-adv-x="1061" 
d="M905 664l-97 -135h-85l79 135h103zM766 487q128 0 201 -79q73 -78 62 -206h-438q12 -65 63 -98q50 -34 112 -34q49 0 92 22q44 21 67 62l71 -49q-34 -57 -98 -88q-63 -30 -132 -30q-59 0 -113 22q-58 22 -94 64v-73h-85v71q-36 -42 -88 -63t-107 -21q-46 0 -87 16
q-41 14 -79 44q-35 27 -59 79q-23 51 -23 111q0 81 39 140q38 59 93 84q55 26 116 26q53 0 106 -21q51 -20 89 -63v71h85v-73q77 86 207 86zM766 404q-58 0 -107 -30q-49 -31 -65 -89h344q-16 58 -65 89q-49 30 -107 30zM296 71q80 0 129 46q49 45 49 120t-49 121
q-49 45 -129 45q-78 0 -128 -45q-50 -47 -50 -121q0 -75 50 -120q49 -46 128 -46z" />
    <glyph glyph-name="Oslashacute" unicode="&#x1fe;" horiz-adv-x="718" 
d="M497 846l-97 -135h-85l79 135h103zM682 606l-61 -62q61 -86 61 -211q0 -87 -29 -157q-28 -67 -76 -109q-48 -41 -103 -60q-57 -20 -115 -20q-123 0 -208 72l-57 -58l-58 59l59 61q-59 88 -59 212q0 82 29 151q29 68 75 110q47 41 103 63q54 22 116 22q117 0 206 -74
l58 60zM125 333q0 -85 34 -146l344 355q-63 51 -144 51q-92 0 -163 -68q-71 -69 -71 -192zM593 333q0 84 -36 145l-344 -355q64 -50 146 -50q93 0 164 66q70 66 70 194z" />
    <glyph glyph-name="oslashacute" unicode="&#x1ff;" horiz-adv-x="592" 
d="M435 664l-97 -135h-85l79 135h103zM565 427l-47 -44q43 -62 43 -146q0 -82 -41 -141q-42 -59 -100 -84q-57 -25 -124 -25q-86 0 -154 42l-59 -55l-57 59l54 51q-49 61 -49 153q0 121 80 186q79 64 185 64q92 0 163 -47l50 47zM118 237q0 -53 26 -93l250 235
q-45 24 -98 24q-72 0 -124 -42q-54 -43 -54 -124zM474 237q0 47 -21 85l-246 -231q42 -20 89 -20q71 0 124 43q54 42 54 123z" />
    <glyph glyph-name="Scommaaccent" unicode="&#x218;" horiz-adv-x="652" 
d="M333 -13q-117 0 -197 50q-81 50 -99 131l83 40q6 -65 65 -100t148 -35q95 0 145 28q51 28 51 76q0 41 -42 70q-45 28 -156 56q-147 38 -211 82q-64 45 -64 120q0 77 79 126q78 48 194 48q113 0 187 -48q72 -50 87 -137l-84 -40q-2 70 -52 104q-53 35 -138 35
q-81 0 -132 -27q-52 -27 -52 -67q0 -31 48 -58q44 -26 160 -55q144 -38 205 -82q60 -46 60 -127q0 -89 -78 -139q-78 -51 -207 -51zM268 -236v42q55 0 76 36q-25 -6 -51 11t-26 44q0 23 20 40q19 16 45 16t46 -18q19 -19 18 -50q-2 -57 -35 -88q-35 -33 -93 -33z" />
    <glyph glyph-name="scommaaccent" unicode="&#x219;" horiz-adv-x="555" 
d="M286 -13q-98 0 -173 39q-75 38 -89 98l78 34q4 -39 59 -63q53 -25 125 -25q70 0 113 18q44 18 44 44q0 17 -10 27t-48 22q-37 12 -110 24q-126 21 -180 52q-56 32 -56 95q0 64 69 100q70 35 167 35q94 0 160 -36q65 -37 78 -99l-79 -34q-2 41 -46 64q-44 22 -113 22
q-63 0 -107 -15t-44 -36q0 -20 40 -35q37 -16 148 -34q115 -19 166 -52q50 -32 50 -89q0 -81 -67 -118q-68 -38 -175 -38zM213 -243v42q55 0 76 36q-25 -6 -51 11t-26 44q0 23 20 40q19 16 45 16q27 0 46 -18q19 -19 18 -50q-2 -57 -35 -88q-34 -33 -93 -33z" />
    <glyph glyph-name="uni021A" unicode="&#x21a;" horiz-adv-x="595" 
d="M15 664h565v-86h-239v-578h-87v578h-239v86zM299 -47q27 0 46 -18q19 -19 18 -50q-2 -57 -35 -88q-34 -33 -93 -33v42q55 0 76 36q-25 -6 -51 11t-26 44q0 23 20 40q19 16 45 16z" />
    <glyph glyph-name="uni021B" unicode="&#x21b;" horiz-adv-x="449" 
d="M381 117l73 -45q-20 -39 -58 -61q-39 -24 -86 -24q-68 0 -115 42q-46 40 -46 110v251h-121v84h121v98l85 51v-149h161v-84h-161v-241q0 -78 76 -78q26 0 45 13q18 13 26 33zM311 -47q27 0 46 -18q19 -19 18 -50q-2 -57 -35 -88q-34 -33 -93 -33v42q55 0 76 36
q-25 -6 -51 11t-26 44q0 23 20 40q19 16 45 16z" />
    <glyph glyph-name="uni0232" unicode="&#x232;" horiz-adv-x="700" 
d="M476 783v-72h-252v72h252zM690 664l-296 -424v-240h-87v239l-297 425h105l235 -338l235 338h105z" />
    <glyph glyph-name="uni0233" unicode="&#x233;" horiz-adv-x="590" 
d="M421 601v-72h-252v72h252zM497 474h94l-337 -659h-94l95 185l-256 474h95l207 -383z" />
    <glyph glyph-name="uni0237" unicode="&#x237;" horiz-adv-x="205" 
d="M-16 -200q-47 0 -86 24q-38 22 -58 61l73 45q7 -20 27 -33q19 -13 44 -13q76 0 76 78v512h85v-522q0 -70 -46 -110q-46 -42 -115 -42z" />
    <glyph glyph-name="uni0259" unicode="&#x259;" horiz-adv-x="591" 
d="M295 487q67 0 124 -25q59 -26 100 -83q41 -59 41 -142q0 -120 -80 -185t-185 -65q-127 0 -200 79t-63 206h438q-12 64 -63 99q-51 33 -112 33q-49 0 -92 -21q-45 -23 -67 -63l-71 49q34 57 98 88q63 30 132 30zM295 70q58 0 107 31q48 29 65 88h-344q17 -59 65 -88
q49 -31 107 -31z" />
    <glyph glyph-name="uni0272" unicode="&#x272;" horiz-adv-x="623" 
d="M349 488q96 0 159 -54q62 -54 62 -158v-275l-85 -1v245q0 159 -151 159q-76 0 -132 -55q-57 -55 -57 -154v-243q0 -70 -46 -110q-46 -42 -115 -42q-4 0 -26 2l26 82q76 0 76 78v512h85v-86q36 50 90 75q53 25 114 25z" />
    <glyph glyph-name="circumflex" unicode="&#x2c6;" horiz-adv-x="366" 
d="M333 711h-103l-47 80l-47 -80h-103l97 135h106z" />
    <glyph glyph-name="caron" unicode="&#x2c7;" horiz-adv-x="450" 
d="M271 846h103l-97 -135h-106l-97 135h103l47 -80z" />
    <glyph glyph-name="uni02C9" unicode="&#x2c9;" horiz-adv-x="252" 
d="M0 701v72h252v-72h-252z" />
    <glyph glyph-name="breve" unicode="&#x2d8;" horiz-adv-x="399" 
d="M200 706q-62 0 -106 41q-45 41 -45 99h96q0 -33 17 -56t38 -23q22 0 39 23q16 22 16 56h96q0 -58 -45 -99q-46 -41 -106 -41z" />
    <glyph glyph-name="dotaccent" unicode="&#x2d9;" horiz-adv-x="220" 
d="M110 703q-27 0 -46 16t-19 40q0 23 20 40q19 16 45 16q27 0 46 -16t19 -40t-19 -40t-46 -16z" />
    <glyph glyph-name="ring" unicode="&#x2da;" horiz-adv-x="383" 
d="M192 707q-60 0 -105 21t-45 51q0 28 46 49q45 21 104 21q60 0 106 -20q44 -21 44 -50q0 -30 -44 -51t-106 -21zM192 741q22 0 35 12q14 11 14 26t-14 26q-13 10 -35 10q-21 0 -35 -11q-15 -10 -15 -25t15 -26q13 -12 35 -12z" />
    <glyph glyph-name="ogonek" unicode="&#x2db;" horiz-adv-x="323" 
d="M265 -179q-116 0 -168 16q-55 16 -55 56q0 46 70 82q72 37 140 44l20 -19q-43 -8 -77 -34q-36 -28 -36 -53q0 -50 120 -50z" />
    <glyph glyph-name="tilde" unicode="&#x2dc;" horiz-adv-x="405" 
d="M267 706q-33 0 -74 35q-42 35 -45 36q-7 2 -9 1q-5 -2 -6 -9q-2 -6 -4 -21q-1 -9 -1 -37h-87q0 63 29 103q29 38 68 38q34 0 75 -34q40 -34 44 -36q14 -6 18 16q2 18 2 48h87q0 -65 -28 -102q-29 -38 -69 -38z" />
    <glyph glyph-name="hungarumlaut" unicode="&#x2dd;" horiz-adv-x="198" 
d="M0 711l79 135h82l-96 -135h-65zM134 711l78 135h83l-97 -135h-64z" />
    <glyph glyph-name="gravecomb" unicode="&#x300;" horiz-adv-x="0" 
d="M0 711h-85l-97 135h103z" />
    <glyph glyph-name="acutecomb" unicode="&#x301;" horiz-adv-x="0" 
d="M-85 711l79 135h103l-97 -135h-85z" />
    <glyph glyph-name="uni0302" unicode="&#x302;" horiz-adv-x="0" 
d="M-33 711h-103l-47 80l-47 -80h-103l97 135h106z" />
    <glyph glyph-name="tildecomb" unicode="&#x303;" horiz-adv-x="0" 
d="M-138 706q-33 0 -74 35q-42 35 -45 36q-7 2 -9 1q-4 -2 -6 -9q-2 -6 -4 -21q-1 -9 -1 -37h-87q0 63 29 103q29 38 68 38q34 0 75 -34q40 -34 44 -36q14 -6 18 16q2 18 2 48h87q0 -65 -28 -102q-29 -38 -69 -38z" />
    <glyph glyph-name="uni0304" unicode="&#x304;" horiz-adv-x="0" 
d="M-257 711v72h252v-72h-252z" />
    <glyph glyph-name="uni0306" unicode="&#x306;" horiz-adv-x="0" 
d="M-199 706q-62 0 -106 41q-45 41 -45 99h96q0 -33 17 -56t38 -23q22 0 39 23q16 22 16 56h96q0 -58 -45 -99q-46 -41 -106 -41z" />
    <glyph glyph-name="uni0307" unicode="&#x307;" horiz-adv-x="0" 
d="M-110 703q-27 0 -46 16t-19 40q0 23 20 40q19 16 45 16q27 0 46 -16t19 -40t-19 -40t-46 -16z" />
    <glyph glyph-name="uni0308" unicode="&#x308;" horiz-adv-x="0" 
d="M-284 703q-27 0 -46 16t-19 40q0 23 20 40q19 16 45 16q27 0 46 -16t19 -40t-19 -40t-46 -16zM-114 703q-27 0 -46 16t-19 40q0 23 20 40q19 16 45 16q27 0 46 -16t19 -40t-19 -40t-46 -16z" />
    <glyph glyph-name="uni030A" unicode="&#x30a;" horiz-adv-x="0" 
d="M-191 707q-60 0 -105 21t-45 51q0 28 46 49q45 21 104 21q60 0 106 -20q44 -21 44 -50q0 -30 -44 -51q-43 -21 -106 -21zM-191 741q21 0 35 12q14 11 14 26t-14 26q-13 10 -35 10q-21 0 -35 -11q-15 -10 -15 -25t15 -26q13 -12 35 -12z" />
    <glyph glyph-name="uni030B" unicode="&#x30b;" horiz-adv-x="0" 
d="M-198 711l79 135h82l-96 -135h-65zM-64 711l78 135h83l-97 -135h-64z" />
    <glyph glyph-name="uni030C" unicode="&#x30c;" horiz-adv-x="0" 
d="M-179 846h103l-97 -135h-106l-97 135h103l47 -80z" />
    <glyph glyph-name="uni0312" unicode="&#x312;" horiz-adv-x="0" 
d="M-56 885v-42q-55 0 -76 -36q26 6 52 -11q25 -16 25 -44q0 -23 -19 -39q-20 -17 -46 -17q-27 0 -46 19q-19 18 -18 49q2 57 35 89q35 32 93 32z" />
    <glyph glyph-name="dotbelowcomb" unicode="&#x323;" horiz-adv-x="0" 
d="M-109 -159q-27 0 -46 16t-19 40q0 23 20 40q19 16 45 16q27 0 46 -16t19 -40t-19 -40t-46 -16z" />
    <glyph glyph-name="uni0326" unicode="&#x326;" horiz-adv-x="0" 
d="M-181 -236v42q55 0 76 36q-25 -6 -51 11t-26 44q0 23 20 40q19 16 45 16q27 0 46 -18q19 -19 18 -50q-2 -57 -35 -88q-34 -33 -93 -33z" />
    <glyph glyph-name="uni0327" unicode="&#x327;" horiz-adv-x="0" 
d="M-270 -179l-13 53q128 0 128 23q0 9 -32 15q-29 6 -65 4l38 84h58l-24 -45q57 0 93 -15q36 -16 36 -47q0 -36 -50 -54q-49 -18 -169 -18z" />
    <glyph glyph-name="uni0328" unicode="&#x328;" horiz-adv-x="0" 
d="M-58 -179q-116 0 -168 16q-55 16 -55 56q0 46 70 82q72 37 140 44l20 -19q-43 -8 -77 -34q-36 -28 -36 -53q0 -50 120 -50z" />
    <glyph glyph-name="uni0335" unicode="&#x335;" horiz-adv-x="0" 
d="M-296 551v82h288v-82h-288z" />
    <glyph glyph-name="uni0336" unicode="&#x336;" horiz-adv-x="0" 
d="M-296 402h288v-40h-288v40z" />
    <glyph glyph-name="uni0337" unicode="&#x337;" horiz-adv-x="0" 
d="M-464 -26l-57 59l483 454l56 -60z" />
    <glyph glyph-name="uni0338" unicode="&#x338;" horiz-adv-x="0" 
d="M-590 0l-58 59l587 605l59 -59z" />
    <glyph glyph-name="uni03BC" unicode="&#x3bc;" horiz-adv-x="623" 
d="M478 474h85v-474h-85v84q-36 -45 -90 -71t-108 -26q-86 0 -141 39v-198h-85v646h85v-246q0 -80 44 -118q43 -39 109 -39q80 0 133 50t53 139v214z" />
    <glyph glyph-name="pi" unicode="&#x3c0;" horiz-adv-x="657" 
d="M625 388h-173l-1 -201q0 -54 46 -90q46 -37 115 -37v-86q-100 0 -173 60q-75 58 -75 153l1 201h-115v-388h-87v388h-131v86h593v-86z" />
    <glyph glyph-name="Wgrave" unicode="&#x1e80;" horiz-adv-x="966" 
d="M525 711h-85l-97 135h103zM868 664h90l-201 -664h-109l-165 556l-166 -556h-109l-200 664h91l164 -549l164 549h111l165 -549z" />
    <glyph glyph-name="wgrave" unicode="&#x1e81;" horiz-adv-x="902" 
d="M493 529h-85l-97 135h103zM813 474h90l-190 -474h-110l-151 371l-152 -371h-110l-191 474h91l155 -391l157 391h99l157 -391z" />
    <glyph glyph-name="Wacute" unicode="&#x1e82;" horiz-adv-x="966" 
d="M622 846l-97 -135h-85l79 135h103zM868 664h90l-201 -664h-109l-165 556l-166 -556h-109l-200 664h91l164 -549l164 549h111l165 -549z" />
    <glyph glyph-name="wacute" unicode="&#x1e83;" horiz-adv-x="902" 
d="M590 664l-97 -135h-85l79 135h103zM813 474h90l-190 -474h-110l-151 371l-152 -371h-110l-191 474h91l155 -391l157 391h99l157 -391z" />
    <glyph glyph-name="Wdieresis" unicode="&#x1e84;" horiz-adv-x="966" 
d="M383 703q-27 0 -46 16t-19 40q0 23 20 40q19 16 45 16q27 0 46 -16t19 -40t-19 -40t-46 -16zM553 703q-27 0 -46 16t-19 40q0 23 20 40q19 16 45 16q27 0 46 -16t19 -40t-19 -40t-46 -16zM868 664h90l-201 -664h-109l-165 556l-166 -556h-109l-200 664h91l164 -549
l164 549h111l165 -549z" />
    <glyph glyph-name="wdieresis" unicode="&#x1e85;" horiz-adv-x="902" 
d="M366 521q-27 0 -46 16t-19 40q0 23 20 40q19 16 45 16q27 0 46 -16t19 -40t-19 -40t-46 -16zM536 521q-27 0 -46 16t-19 40q0 23 20 40q19 16 45 16q27 0 46 -16t19 -40t-19 -40t-46 -16zM813 474h90l-190 -474h-110l-151 371l-152 -371h-110l-191 474h91l155 -391
l157 391h99l157 -391z" />
    <glyph glyph-name="uni1E8A" unicode="&#x1e8a;" horiz-adv-x="629" 
d="M315 703q-27 0 -46 16t-19 40q0 23 20 40q19 16 45 16q27 0 46 -16t19 -40t-19 -40t-46 -16zM638 0h-108l-215 281l-216 -281h-108l269 352l-238 312h107l186 -240l185 240h107l-237 -312z" />
    <glyph glyph-name="uni1E8B" unicode="&#x1e8b;" horiz-adv-x="545" 
d="M273 521q-27 0 -46 16t-19 40q0 23 20 40q19 16 45 16q27 0 46 -16t19 -40t-19 -40t-46 -16zM549 0h-112l-164 184l-165 -184h-112l221 246l-204 228h112l148 -165l148 165h112l-204 -228z" />
    <glyph glyph-name="uni1E9E" unicode="&#x1e9e;" horiz-adv-x="817" 
d="M581 383q96 -14 148 -66q53 -53 53 -127q0 -95 -83 -148q-83 -54 -212 -54q-217 0 -294 149l82 32q59 -95 212 -95q95 0 151 32q55 31 55 84q0 50 -48 81q-47 31 -138 31h-92l-25 86h93l122 190h-278q-75 0 -122 -39t-47 -105l1 -438h-87l-1 456q0 94 74 153t171 59h445z
" />
    <glyph glyph-name="uni1EA0" unicode="&#x1ea0;" horiz-adv-x="672" 
d="M666 0h-93l-60 146h-354l-60 -146h-93l273 664h114zM195 232h282l-141 343zM337 -47q27 0 46 -16t19 -40t-19 -40t-46 -16t-46 16t-19 40q0 23 20 40q19 16 45 16z" />
    <glyph glyph-name="uni1EA1" unicode="&#x1ea1;" horiz-adv-x="619" 
d="M474 474h85v-474h-85v71q-36 -42 -88 -63t-107 -21q-46 0 -87 16q-41 14 -79 44q-35 27 -59 79q-23 51 -23 111q0 81 39 140q38 59 93 84q55 26 116 26q53 0 106 -21q51 -20 89 -63v71zM296 71q80 0 129 46q49 45 49 120t-49 121q-49 45 -129 45q-78 0 -128 -45
q-50 -47 -50 -121q0 -75 50 -120q49 -46 128 -46zM280 -47q27 0 46 -16t19 -40t-19 -40t-46 -16t-46 16t-19 40q0 23 20 40q19 16 45 16z" />
    <glyph glyph-name="uni1EB8" unicode="&#x1eb8;" horiz-adv-x="614" 
d="M578 578h-420v-185h356v-86h-356v-221h420v-86h-507v664h507v-86zM326 -47q27 0 46 -16t19 -40t-19 -40t-46 -16t-46 16t-19 40q0 23 20 40q19 16 45 16z" />
    <glyph glyph-name="uni1EB9" unicode="&#x1eb9;" horiz-adv-x="591" 
d="M296 487q128 0 201 -79q73 -78 62 -206h-438q12 -65 63 -98q50 -34 112 -34q49 0 92 22q44 21 67 62l71 -49q-34 -57 -98 -88q-63 -30 -132 -30q-67 0 -124 25q-58 26 -99 84q-42 58 -42 141q0 121 80 186q79 64 185 64zM296 404q-57 0 -107 -30q-49 -31 -65 -89h344
q-16 58 -65 89q-49 30 -107 30zM297 -47q27 0 46 -16t19 -40t-19 -40t-46 -16t-46 16t-19 40q0 23 20 40q19 16 45 16z" />
    <glyph glyph-name="uni1EBC" unicode="&#x1ebc;" horiz-adv-x="614" 
d="M271 777q-7 2 -9 1q-4 -2 -6 -9q-2 -6 -4 -21q-1 -9 -1 -37h-87q0 63 29 103q29 38 68 38q34 0 75 -34q40 -34 44 -36q14 -6 18 16q2 18 2 48h87q0 -65 -28 -102q-29 -38 -69 -38q-33 0 -74 35q-42 35 -45 36zM578 578h-420v-185h356v-86h-356v-221h420v-86h-507v664h507
v-86z" />
    <glyph glyph-name="uni1EBD" unicode="&#x1ebd;" horiz-adv-x="591" 
d="M242 595q-7 2 -9 1q-5 -2 -6 -9q-2 -6 -4 -21q-1 -9 -1 -37h-87q0 63 29 103q29 38 68 38q34 0 75 -34q40 -34 44 -36q14 -6 18 16q2 18 2 48h87q0 -65 -28 -102q-29 -38 -69 -38q-33 0 -74 35q-42 35 -45 36zM296 487q128 0 201 -79q73 -78 62 -206h-438q12 -65 63 -98
q50 -34 112 -34q49 0 92 22q44 21 67 62l71 -49q-34 -57 -98 -88q-63 -30 -132 -30q-67 0 -124 25q-58 26 -99 84q-42 58 -42 141q0 121 80 186q79 64 185 64zM296 404q-57 0 -107 -30q-49 -31 -65 -89h344q-16 58 -65 89q-49 30 -107 30z" />
    <glyph glyph-name="uni1ECA" unicode="&#x1eca;" horiz-adv-x="229" 
d="M71 0v664h87v-664h-87zM116 -159q-27 0 -46 16t-19 40q0 23 20 40q19 16 45 16q27 0 46 -16t19 -40t-19 -40t-46 -16z" />
    <glyph glyph-name="uni1ECB" unicode="&#x1ecb;" horiz-adv-x="205" 
d="M103 521q-27 0 -46 16t-19 40q0 23 20 40q19 16 45 16q27 0 46 -16t19 -40t-19 -40t-46 -16zM60 0v474h85v-474h-85zM104 -159q-27 0 -46 16t-19 40q0 23 20 40q19 16 45 16q27 0 46 -16t19 -40t-19 -40t-46 -16z" />
    <glyph glyph-name="uni1ECC" unicode="&#x1ecc;" horiz-adv-x="718" 
d="M359 -13q-57 0 -114 20t-103 60q-49 41 -77 109q-29 70 -29 157q0 82 29 151q29 68 75 110q47 41 103 63q54 22 116 22q61 0 117 -22q57 -23 103 -63q46 -42 75 -110q28 -66 28 -151q0 -87 -29 -157q-28 -67 -76 -109q-48 -41 -103 -60q-57 -20 -115 -20zM359 73
q93 0 164 66q70 66 70 194q0 123 -70 192q-71 68 -164 68q-92 0 -163 -68q-71 -69 -71 -192q0 -128 71 -194q70 -66 163 -66zM360 -159q-27 0 -46 16t-19 40q0 23 20 40q19 16 45 16q27 0 46 -16t19 -40t-19 -40t-46 -16z" />
    <glyph glyph-name="uni1ECD" unicode="&#x1ecd;" horiz-adv-x="592" 
d="M296 -13q-67 0 -124 25q-58 26 -99 84q-42 58 -42 141q0 121 80 186q79 64 185 64t185 -64q80 -65 80 -186q0 -82 -41 -141q-42 -59 -100 -84q-57 -25 -124 -25zM296 71q71 0 124 43q54 42 54 123q0 80 -53 124q-54 42 -125 42q-72 0 -124 -42q-54 -43 -54 -124t54 -123
q53 -43 124 -43zM297 -159q-27 0 -46 16t-19 40q0 23 20 40q19 16 45 16q27 0 46 -16t19 -40t-19 -40t-46 -16z" />
    <glyph glyph-name="uni1EE4" unicode="&#x1ee4;" horiz-adv-x="723" 
d="M362 -13q-134 0 -217 75q-83 74 -83 217v385h87v-380q0 -103 56 -157q55 -54 157 -54q100 0 156 54t56 157v380h87v-385q0 -144 -82 -217q-83 -75 -217 -75zM362 -159q-27 0 -46 16t-19 40q0 23 20 40q19 16 45 16q27 0 46 -16t19 -40t-19 -40t-46 -16z" />
    <glyph glyph-name="uni1EE5" unicode="&#x1ee5;" horiz-adv-x="623" 
d="M478 474h85v-474h-85v84q-36 -45 -90 -71t-108 -26q-101 0 -163 58q-63 59 -63 183v246h85v-246q0 -80 44 -118q43 -39 109 -39q80 0 133 50t53 139v214zM310 -47q27 0 46 -16t19 -40t-19 -40t-46 -16t-46 16t-19 40q0 23 20 40q19 16 45 16z" />
    <glyph glyph-name="Ygrave" unicode="&#x1ef2;" horiz-adv-x="700" 
d="M392 711h-85l-97 135h103zM690 664l-296 -424v-240h-87v239l-297 425h105l235 -338l235 338h105z" />
    <glyph glyph-name="ygrave" unicode="&#x1ef3;" horiz-adv-x="590" 
d="M337 529h-85l-97 135h103zM497 474h94l-337 -659h-94l95 185l-256 474h95l207 -383z" />
    <glyph glyph-name="uni1EF8" unicode="&#x1ef8;" horiz-adv-x="700" 
d="M296 777q-7 2 -9 1q-5 -2 -6 -9q-2 -6 -4 -21q-1 -9 -1 -37h-87q0 63 29 103q29 38 68 38q34 0 75 -34q40 -34 44 -36q14 -6 18 16q2 18 2 48h87q0 -65 -28 -102q-29 -38 -69 -38q-33 0 -74 35q-42 35 -45 36zM690 664l-296 -424v-240h-87v239l-297 425h105l235 -338
l235 338h105z" />
    <glyph glyph-name="uni1EF9" unicode="&#x1ef9;" horiz-adv-x="590" 
d="M241 595q-7 2 -9 1q-4 -2 -6 -9q-2 -6 -4 -21q-1 -9 -1 -37h-87q0 63 29 103q29 38 68 38q34 0 75 -34q40 -34 44 -36q14 -6 18 16q2 18 2 48h87q0 -65 -28 -102q-29 -38 -69 -38q-33 0 -74 35q-42 35 -45 36zM497 474h94l-337 -659h-94l95 185l-256 474h95l207 -383z
" />
    <glyph glyph-name="endash" unicode="&#x2013;" horiz-adv-x="609" 
d="M55 218v86h500v-86h-500z" />
    <glyph glyph-name="emdash" unicode="&#x2014;" horiz-adv-x="1045" 
d="M55 218v86h936v-86h-936z" />
    <glyph glyph-name="quoteleft" unicode="&#x2018;" horiz-adv-x="195" 
d="M161 672v-42q-55 0 -76 -36q26 6 52 -11q25 -16 25 -44q0 -23 -19 -39q-20 -17 -46 -17q-27 0 -46 19q-19 18 -18 49q2 57 35 89q35 32 93 32z" />
    <glyph glyph-name="quoteright" unicode="&#x2019;" horiz-adv-x="195" 
d="M34 483v42q55 0 76 36q-25 -6 -51 11t-26 44q0 23 20 40q19 16 45 16t46 -18q19 -19 18 -50q-2 -57 -35 -88q-35 -33 -93 -33z" />
    <glyph glyph-name="quotesinglbase" unicode="&#x201a;" horiz-adv-x="213" 
d="M43 -85v42q55 0 76 36q-25 -6 -51 11t-26 44q0 23 20 40q19 16 45 16q27 0 46 -18q19 -19 18 -50q-2 -57 -35 -88q-34 -33 -93 -33z" />
    <glyph glyph-name="quotereversed" unicode="&#x201b;" horiz-adv-x="195" 
d="M161 483q-59 0 -93 33q-33 31 -35 88q-1 31 18 50q20 18 46 18q27 0 46 -16t19 -40q0 -28 -25 -44q-26 -17 -52 -11q21 -36 76 -36v-42z" />
    <glyph glyph-name="quotedblleft" unicode="&#x201c;" horiz-adv-x="348" 
d="M161 672v-42q-55 0 -76 -36q26 6 52 -11q25 -16 25 -44q0 -23 -19 -39q-20 -17 -46 -17q-27 0 -46 19q-19 18 -18 49q2 57 35 89q35 32 93 32zM314 672v-42q-55 0 -76 -36q26 6 52 -11q25 -16 25 -44q0 -23 -19 -39q-20 -17 -46 -17q-27 0 -46 19q-19 18 -18 49
q2 57 35 89q35 32 93 32z" />
    <glyph glyph-name="quotedblright" unicode="&#x201d;" horiz-adv-x="348" 
d="M34 483v42q55 0 76 36q-25 -6 -51 11t-26 44q0 23 20 40q19 16 45 16t46 -18q19 -19 18 -50q-2 -57 -35 -88q-35 -33 -93 -33zM187 483v42q55 0 76 36q-25 -6 -51 11t-26 44q0 23 20 40q19 16 45 16q27 0 46 -18q19 -19 18 -50q-2 -57 -35 -88q-34 -33 -93 -33z" />
    <glyph glyph-name="quotedblbase" unicode="&#x201e;" horiz-adv-x="366" 
d="M43 -85v42q55 0 76 36q-25 -6 -51 11t-26 44q0 23 20 40q19 16 45 16q27 0 46 -18q19 -19 18 -50q-2 -57 -35 -88q-34 -33 -93 -33zM196 -85v42q55 0 76 36q-25 -6 -51 11t-26 44q0 23 20 40q19 16 45 16t46 -18q19 -19 18 -50q-2 -57 -35 -88q-35 -33 -93 -33z" />
    <glyph glyph-name="uni201F" unicode="&#x201f;" horiz-adv-x="348" 
d="M161 483q-59 0 -93 33q-33 31 -35 88q-1 31 18 50q20 18 46 18q27 0 46 -16t19 -40q0 -28 -25 -44q-26 -17 -52 -11q21 -36 76 -36v-42zM314 483q-58 0 -93 33q-33 31 -35 88q-1 31 18 50q20 18 46 18q27 0 46 -16t19 -40q0 -28 -25 -44q-26 -17 -52 -11q21 -36 76 -36
v-42z" />
    <glyph glyph-name="dagger" unicode="&#x2020;" horiz-adv-x="606" 
d="M563 489v-87l-226 6l11 -408h-89l10 408l-225 -6v87l225 -6l-10 181h89l-11 -181z" />
    <glyph glyph-name="daggerdbl" unicode="&#x2021;" horiz-adv-x="606" 
d="M259 0l10 181l-225 -6v87l225 -6v152l-225 -6v87l225 -6l-10 181h89l-11 -181l226 6v-87l-226 6v-152l226 6v-87l-226 6l11 -181h-89z" />
    <glyph glyph-name="bullet" unicode="&#x2022;" horiz-adv-x="562" 
d="M279 -13q-102 0 -175 73t-73 175q0 106 73 179t175 73q106 0 179 -73t73 -179q0 -102 -73 -175t-179 -73z" />
    <glyph glyph-name="ellipsis" unicode="&#x2026;" horiz-adv-x="642" 
d="M107 -8q-27 0 -46 16t-19 40q0 23 20 40q19 16 45 16q27 0 46 -16t19 -40t-19 -40t-46 -16zM321 -8q-27 0 -46 16t-19 40q0 23 20 40q19 16 45 16q27 0 46 -16t19 -40t-19 -40t-46 -16zM535 -8q-27 0 -46 16t-19 40q0 23 20 40q19 16 45 16q27 0 46 -16t19 -40t-19 -40
t-46 -16z" />
    <glyph glyph-name="perthousand" unicode="&#x2030;" horiz-adv-x="1208" 
d="M197 292q-73 0 -121 55q-48 54 -48 137q0 84 48 139q48 54 121 54t121 -54q47 -56 47 -139q0 -82 -47 -137q-48 -55 -121 -55zM251 0l260 664h72l-261 -664h-71zM197 366q41 0 68 35q26 35 26 82q0 50 -26 85q-27 35 -68 35t-68 -35q-27 -34 -27 -85q0 -47 27 -82t68 -35
zM637 -13q-73 0 -121 54t-48 137q0 84 48 139t121 55t121 -54q47 -56 47 -140q0 -82 -47 -137q-48 -54 -121 -54zM1012 -13q-74 0 -120 54q-48 54 -48 137q0 84 48 139t120 55q73 0 121 -54q47 -56 47 -140q0 -82 -47 -137q-48 -54 -121 -54zM637 64q41 0 68 34q26 35 26 83
q0 50 -26 85q-27 35 -68 35t-68 -35t-27 -85q0 -47 27 -82t68 -35zM1012 64q41 0 68 34q26 35 26 83q0 50 -26 85q-27 35 -68 35t-67 -35q-27 -35 -27 -85q0 -47 27 -82q26 -35 67 -35z" />
    <glyph glyph-name="minute" unicode="&#x2032;" horiz-adv-x="168" 
d="M41 338l-8 326h102l-22 -326h-72z" />
    <glyph glyph-name="second" unicode="&#x2033;" horiz-adv-x="336" 
d="M41 338l-8 326h102l-22 -326h-72zM209 338l-8 326h102l-22 -326h-72z" />
    <glyph glyph-name="uni2034" unicode="&#x2034;" horiz-adv-x="504" 
d="M41 338l-8 326h102l-22 -326h-72zM209 338l-8 326h102l-22 -326h-72zM377 338l-8 326h102l-22 -326h-72z" />
    <glyph glyph-name="guilsinglleft" unicode="&#x2039;" horiz-adv-x="372" 
d="M273 -13l-250 250l250 250l62 -60l-192 -190l192 -190z" />
    <glyph glyph-name="guilsinglright" unicode="&#x203a;" horiz-adv-x="372" 
d="M99 -13l-62 60l192 190l-192 190l62 60l250 -250z" />
    <glyph glyph-name="fraction" unicode="&#x2044;" horiz-adv-x="252" 
d="M220 664h72l-261 -664h-71z" />
    <glyph glyph-name="Euro" unicode="&#x20ac;" horiz-adv-x="667" 
d="M571 190l72 -52q-44 -76 -120 -113q-78 -38 -159 -38q-104 0 -193 59t-121 175h-50v84h37q-1 6 -1 28q0 21 1 26h-37v84h50q32 114 120 175t195 61q83 0 155 -39q73 -39 110 -111l-67 -65q-26 66 -79 97q-55 32 -122 32q-78 0 -134 -40q-59 -41 -84 -110h292v-84h-310
q-1 -5 -1 -26q0 -22 1 -28h310v-84h-292q25 -70 84 -109q57 -39 136 -39q67 0 122 31q57 31 85 86z" />
    <glyph glyph-name="uni20BA" unicode="&#x20ba;" horiz-adv-x="516" 
d="M391 346h89q0 -87 -29 -157q-28 -67 -76 -109q-48 -41 -103 -60q-57 -20 -114 -20h-87v280l-71 -45v99l71 45v41l-71 -45v99l71 45v145h87v-90l143 90v-99l-143 -90v-41l143 90v-99l-143 -90v-249q42 0 83 15q38 13 74 43q35 29 56 82q20 54 20 120z" />
    <glyph glyph-name="uni20BD" unicode="&#x20bd;" horiz-adv-x="651" 
d="M158 250v-46h252v-85h-252v-119h-87v119h-71v85h71v46h-71v86h71v328q74 6 253 6q308 0 308 -212q0 -208 -308 -208h-166zM158 582v-246h166q120 0 170 30q49 30 49 92q0 64 -49 95t-170 31q-62 0 -166 -2z" />
    <glyph glyph-name="uni2116" unicode="&#x2116;" horiz-adv-x="1372" 
d="M1071 679q106 0 185 -64q80 -65 80 -186q0 -82 -41 -141q-42 -59 -100 -84q-57 -25 -124 -25t-124 25q-59 26 -99 84q-42 58 -42 141q0 121 80 186q79 64 185 64zM617 121v543h87v-664h-100l-446 542v-542h-87v664h100zM1071 263q71 0 124 43q54 42 54 123q0 80 -53 124
q-54 42 -125 42t-124 -42q-54 -43 -54 -124t54 -123q53 -43 124 -43zM1071 104q27 0 46 -16t19 -40t-19 -40t-46 -16t-46 16t-19 40q0 23 20 40q19 16 45 16z" />
    <glyph glyph-name="trademark" unicode="&#x2122;" horiz-adv-x="984" 
d="M15 582v82h354v-82h-134v-333h-85v333h-135zM811 664h102v-415h-85v269l-133 -269h-56l-133 269v-269h-85l1 415h101l144 -286z" />
    <glyph glyph-name="Omega" unicode="&#x2126;" horiz-adv-x="709" 
d="M673 354q0 -179 -128 -268h74v-86h-218v86q72 3 127 81q56 79 56 170q0 121 -66 188q-67 67 -164 67q-96 0 -162 -67q-67 -67 -67 -188q0 -91 56 -170q55 -78 128 -81v-86h-220v86h75q-128 87 -128 268q0 80 28 143q29 64 74 102q48 38 102 59q57 20 114 20q58 0 115 -20
q54 -21 102 -59q45 -38 74 -102q28 -63 28 -143z" />
    <glyph glyph-name="estimated" unicode="&#x212e;" horiz-adv-x="828" 
d="M414 -13q-169 0 -273 94q-105 95 -105 251q0 155 106 251q106 95 272 95q170 0 271 -92q99 -92 107 -264h-601q-8 0 -11 -3q-4 -3 -4 -14v-169q0 -34 71 -78t167 -44q70 0 133 31q64 30 107 79h70q-69 -77 -137 -107q-69 -30 -173 -30zM191 344h444q11 0 14 4q3 3 3 12
v166q0 42 -79 85t-160 43q-90 0 -163 -46q-74 -47 -74 -75v-180q0 -9 15 -9z" />
    <glyph glyph-name="uni2153" unicode="&#x2153;" horiz-adv-x="1343" 
d="M543 210v-68h-419l-16 68h190v299q-77 -114 -240 -142l-35 68q116 12 189 73q74 62 86 156h68v-454h177zM784 664h72l-261 -664h-71zM1184 277q130 -40 130 -142q0 -67 -69 -107q-71 -41 -165 -41q-48 0 -94 11q-45 11 -86 43q-42 33 -57 84l68 15q31 -85 169 -85
q68 0 115 25q48 25 48 64q0 43 -55 70q-57 26 -157 26h-24l-12 65h31q85 0 139 26q52 25 52 63q0 31 -38 52q-38 20 -99 20q-60 0 -103 -20q-42 -19 -54 -58l-66 25q18 59 81 90q61 31 142 31q86 0 147 -36q61 -37 61 -96q0 -87 -104 -125z" />
    <glyph glyph-name="uni2154" unicode="&#x2154;" horiz-adv-x="1294" 
d="M484 501q0 -71 -69 -138q-71 -67 -225 -150h278v-68h-404l-14 68q364 174 364 288q0 49 -43 80t-111 31q-69 0 -115 -31q-47 -32 -47 -74q0 -33 42 -70l-42 -54q-70 58 -70 124q0 73 69 123q67 49 163 49q94 0 159 -49q65 -50 65 -129zM735 664h72l-261 -664h-71z
M1135 277q130 -40 130 -142q0 -67 -69 -107q-71 -41 -165 -41q-48 0 -94 11q-45 11 -86 43q-42 33 -57 84l68 15q31 -85 169 -85q68 0 115 25q48 26 48 64q0 43 -55 70q-57 26 -157 26h-24l-12 65h31q85 0 139 26q52 25 52 63q0 31 -38 52q-38 20 -99 20q-60 0 -103 -20
q-42 -19 -54 -58l-66 25q18 58 80 90q61 31 143 31q85 0 147 -36q61 -37 61 -96q0 -87 -104 -125z" />
    <glyph glyph-name="oneeighth" unicode="&#x215b;" horiz-adv-x="1365" 
d="M543 210v-68h-419l-16 68h190v299q-77 -114 -240 -142l-35 68q116 12 189 73q74 62 86 156h68v-454h177zM784 664h72l-261 -664h-71zM1215 281q59 -23 89 -59q31 -37 31 -83q0 -63 -72 -107q-72 -45 -173 -45t-173 45q-72 44 -72 107q0 45 32 83q30 36 88 59
q-95 41 -95 117q0 55 65 96q64 39 155 39q92 0 156 -39q64 -40 64 -96q0 -76 -95 -117zM940 390q0 -34 45 -55q43 -21 105 -21q61 0 106 21q44 21 44 55q0 32 -43 54q-44 21 -107 21q-62 0 -106 -21q-44 -23 -44 -54zM1090 55q76 0 125 27q50 26 50 68t-52 70
q-53 27 -123 27q-69 0 -122 -27q-53 -29 -53 -70q0 -42 50 -68q50 -27 125 -27z" />
    <glyph glyph-name="threeeighths" unicode="&#x215c;" horiz-adv-x="1328" 
d="M368 422q130 -40 130 -142q0 -66 -69 -107q-71 -41 -165 -41q-48 0 -94 11q-45 11 -86 43q-42 33 -57 84l68 15q31 -85 169 -85q68 0 115 25q48 25 48 64q0 43 -55 70q-57 26 -157 26h-24l-12 65h31q85 0 139 26q52 25 52 63q0 31 -38 52q-38 20 -99 20q-60 0 -103 -20
q-42 -19 -54 -58l-66 25q18 58 81 90q61 31 142 31q86 0 147 -36q61 -37 61 -96q0 -87 -104 -125zM747 664h72l-261 -664h-71zM1178 281q59 -23 89 -59q31 -37 31 -83q0 -63 -72 -107q-72 -45 -173 -45t-173 45q-72 44 -72 107q0 45 32 83q30 36 88 59q-95 41 -95 117
q0 55 65 96q65 39 155 39q91 0 156 -39q64 -40 64 -96q0 -76 -95 -117zM903 390q0 -34 45 -55q44 -21 105 -21t106 21q44 21 44 55q0 32 -43 54q-44 21 -107 21t-106 -21q-44 -23 -44 -54zM1053 55q75 0 125 27q50 26 50 68t-52 70q-52 27 -123 27q-69 0 -122 -27
q-53 -29 -53 -70q0 -42 50 -68q50 -27 125 -27z" />
    <glyph glyph-name="fiveeighths" unicode="&#x215d;" horiz-adv-x="1329" 
d="M294 506q89 0 148 -48q58 -49 58 -129q0 -88 -68 -144t-172 -56q-78 0 -141 31q-65 32 -96 82l60 35q22 -37 71 -58q47 -22 106 -22q77 0 123 37q47 38 47 95q0 50 -42 80t-102 30q-110 0 -173 -86l-66 21l45 290h377v-68h-318l-25 -160q73 70 168 70zM748 664h72
l-261 -664h-71zM1179 281q59 -23 89 -59q31 -37 31 -83q0 -63 -72 -107q-72 -45 -173 -45t-173 45q-72 44 -72 107q0 45 32 83q30 36 88 59q-95 41 -95 117q0 55 65 96q65 39 155 39q92 0 156 -39q64 -40 64 -96q0 -76 -95 -117zM904 390q0 -34 45 -55q43 -21 105 -21
q61 0 106 21q44 21 44 55q0 32 -43 54q-43 21 -107 21q-62 0 -106 -21q-44 -23 -44 -54zM1054 55q76 0 125 27q50 26 50 68t-52 70q-53 27 -123 27t-122 -27q-53 -29 -53 -70q0 -42 50 -68q50 -27 125 -27z" />
    <glyph glyph-name="seveneighths" unicode="&#x215e;" horiz-adv-x="1206" 
d="M497 596q-138 -37 -223 -158t-67 -296h-73q-14 150 46 268q60 119 169 186h-333v68h481v-68zM625 664h72l-261 -664h-71zM1056 281q59 -23 89 -59q31 -37 31 -83q0 -63 -72 -107q-72 -45 -173 -45t-173 45q-72 44 -72 107q0 45 32 83q30 36 88 59q-95 41 -95 117
q0 55 65 96q64 39 155 39t156 -39q64 -40 64 -96q0 -76 -95 -117zM781 390q0 -34 45 -55q44 -21 105 -21t106 21q44 21 44 55q0 32 -43 54q-44 21 -107 21t-106 -21q-44 -23 -44 -54zM931 55q76 0 125 27q50 26 50 68t-52 70q-52 27 -123 27q-69 0 -122 -27q-53 -29 -53 -70
q0 -42 50 -68q50 -27 125 -27z" />
    <glyph glyph-name="uni2170" unicode="&#x2170;" horiz-adv-x="497" 
d="M466 578h-172v-492h172v-86h-434v86h175v492h-175v86h434v-86z" />
    <glyph glyph-name="uni2171" unicode="&#x2171;" horiz-adv-x="701" 
d="M669 578h-172v-492h172v-86h-637v86h175v492h-175v86h637v-86zM410 578h-116v-492h116v492z" />
    <glyph glyph-name="uni2172" unicode="&#x2172;" horiz-adv-x="904" 
d="M872 578h-172v-492h172v-86h-845v86h180v492h-180v86h845v-86zM410 578h-116v-492h116v492zM613 578h-116v-492h116v492z" />
    <glyph glyph-name="uni2173" unicode="&#x2173;" horiz-adv-x="1171" 
d="M1138 578h-155l-209 -492h364v-86h-1105v86h175v492h-175v86h1105v-86zM596 86l-209 492h-92v-492h301zM890 578h-410l205 -491z" />
    <glyph glyph-name="uni2174" unicode="&#x2174;" horiz-adv-x="959" 
d="M928 581h-142l-210 -498h352v-83l-896 1v82h363l-210 499h-153v83l896 -1v-83zM692 581l-413 1l207 -495z" />
    <glyph glyph-name="uni2175" unicode="&#x2175;" horiz-adv-x="1168" 
d="M1137 578h-174v-492h174v-86h-1105v86h362l-208 492h-154v86h1105v-86zM691 578h-411l206 -491zM876 578h-91l-208 -492h299v492z" />
    <glyph glyph-name="uni2176" unicode="&#x2176;" horiz-adv-x="1372" 
d="M1340 578h-175v-492h175v-86h-1308v86h362l-208 492h-154v86h1308v-86zM691 578h-411l206 -491zM876 578h-91l-208 -492h299v492zM1078 578h-115v-492h115v492z" />
    <glyph glyph-name="uni2177" unicode="&#x2177;" horiz-adv-x="1575" 
d="M1543 578h-175v-492h175v-86h-1511v86h362l-208 492h-154v86h1511v-86zM691 578h-411l206 -491zM876 578h-91l-208 -492h299v492zM1078 578h-115v-492h115v492zM1281 578h-116v-492h116v492z" />
    <glyph glyph-name="uni2178" unicode="&#x2178;" horiz-adv-x="1117" 
d="M943 578l-215 -230l245 -262h112v-86h-1053v86h175v492h-175v86h1053v-86h-142zM606 348l-216 230h-96v-492h66zM667 405l158 173h-316zM667 291l-188 -205h376z" />
    <glyph glyph-name="uni2179" unicode="&#x2179;" horiz-adv-x="901" 
d="M727 578l-215 -230l245 -262h113v-86h-838v86h114l246 262l-216 230h-144v86h838v-86h-143zM452 405l158 173h-316zM452 291l-188 -205h376z" />
    <glyph glyph-name="uni217A" unicode="&#x217a;" horiz-adv-x="1117" 
d="M1085 578h-175v-492h175v-86h-1053v86h112l245 262l-215 230h-142v86h1053v-86zM450 405l158 173h-316zM823 578h-96l-216 -230l246 -262h66v492zM450 291l-188 -205h376z" />
    <glyph glyph-name="uni217B" unicode="&#x217b;" horiz-adv-x="1320" 
d="M32 0v86h114l244 263l-214 229h-144v86h1257v-86h-176v-492h176v-86h-1257zM452 405l157 173h-315zM757 86h67v492h-97l-214 -229zM911 86h115v492h-115v-492zM264 86h375l-187 207z" />
    <glyph glyph-name="arrowleft" unicode="&#x2190;" horiz-adv-x="1041" 
d="M987 375v-85h-672q149 -87 149 -261h-84q0 117 -88 189t-237 72v85q149 0 237 72t87 189h84q1 -173 -148 -261h672z" />
    <glyph glyph-name="arrowup" unicode="&#x2191;" horiz-adv-x="731" 
d="M409 664q0 -148 72 -235q72 -88 190 -88v-87q-175 0 -262 151v-405h-87v405q-88 -151 -262 -150v87q117 -1 190 87q72 87 72 235h87z" />
    <glyph glyph-name="arrowright" unicode="&#x2192;" horiz-adv-x="1041" 
d="M663 636q-1 -117 87 -189t237 -72v-85q-149 0 -237 -72t-88 -189h-84q0 174 149 261h-672v85h672q-149 88 -148 261h84z" />
    <glyph glyph-name="arrowdown" unicode="&#x2193;" horiz-adv-x="731" 
d="M409 259q87 151 262 151v-87q-118 0 -190 -87q-72 -88 -72 -236h-87q0 148 -72 236q-74 87 -190 86v87q174 1 262 -150v405h87v-405z" />
    <glyph glyph-name="arrowboth" unicode="&#x2194;" horiz-adv-x="1404" 
d="M1025 636q0 -117 88 -189q87 -72 237 -72v-85q-151 0 -237 -73q-88 -73 -88 -190h-84q0 188 166 263h-810q167 -77 167 -263h-84q0 117 -88 190t-237 73v85q149 0 237 73q88 72 88 188h84q0 -186 -166 -261h809q-166 75 -166 261h84z" />
    <glyph glyph-name="uni2196" unicode="&#x2196;" horiz-adv-x="807" 
d="M747 56l-60 -63l-445 445q46 -172 -78 -296l-59 61q84 81 73 195q-12 114 -118 218l19 19l43 44q106 -104 220 -115q113 -11 194 72l60 -62q-122 -122 -288 -79z" />
    <glyph glyph-name="uni2197" unicode="&#x2197;" horiz-adv-x="807" 
d="M747 616q-106 -105 -117 -218q-12 -114 72 -195l-59 -61q-124 124 -78 296l-445 -445l-60 63l439 439q-166 -43 -288 79l60 62q81 -82 195 -72q113 11 219 115l43 -44z" />
    <glyph glyph-name="uni2198" unicode="&#x2198;" horiz-adv-x="807" 
d="M702 475q-84 -81 -72 -194q10 -114 117 -219l-19 -19l-43 -44q-107 106 -219 116q-113 10 -195 -73l-60 62q122 122 288 79l-439 439l60 63l445 -445q-46 172 78 296z" />
    <glyph glyph-name="uni2199" unicode="&#x2199;" horiz-adv-x="807" 
d="M308 183q166 43 288 -79l-60 -62q-82 83 -194 73q-113 -10 -220 -116l-43 44l-19 19q106 104 118 219q11 113 -73 194l59 61q124 -124 78 -296l445 445l60 -63z" />
    <glyph glyph-name="uni21B3" unicode="&#x21b3;" horiz-adv-x="1058" 
d="M680 636q-2 -117 87 -189t237 -72v-85q-148 0 -237 -72q-88 -72 -88 -189h-84q0 174 149 261h-672l-1 346h87v-261h586q-149 88 -148 261h84z" />
    <glyph glyph-name="partialdiff" unicode="&#x2202;" horiz-adv-x="715" 
d="M408 678q62 0 114 -21t93 -62q39 -39 56 -110q16 -68 1 -156q-17 -93 -56 -158q-41 -69 -94 -107q-54 -38 -114 -58q-57 -19 -120 -19q-121 0 -193 66q-73 64 -55 166q10 64 57 112q48 49 107 71q60 22 126 22q160 0 249 -116q1 2 1 6q1 3 1 5t1 5q0 4 1 5
q21 121 -31 192q-53 71 -160 71q-61 0 -106 -22q-49 -23 -71 -61l-77 35q40 65 117 100q74 34 153 34zM303 73q166 0 242 142q-61 123 -205 123q-84 0 -142 -31q-60 -31 -69 -88q-11 -64 38 -104q49 -42 136 -42z" />
    <glyph glyph-name="emptyset" unicode="&#x2205;" horiz-adv-x="611" 
d="M575 519l-47 -44q43 -62 43 -146q0 -82 -41 -141q-42 -59 -100 -84q-57 -25 -124 -25q-86 0 -154 42l-59 -55l-57 59l54 51q-49 61 -49 153q0 121 80 186q79 64 185 64q92 0 163 -47l50 47zM128 329q0 -53 26 -93l250 235q-45 24 -98 24q-72 0 -124 -42q-54 -44 -54 -124
zM484 329q0 47 -21 85l-246 -231q42 -20 89 -20q71 0 124 43q54 42 54 123z" />
    <glyph glyph-name="Delta" unicode="&#x2206;" horiz-adv-x="676" 
d="M6 0l332 664l332 -664h-664zM71 41h534l-267 532z" />
    <glyph glyph-name="product" unicode="&#x220f;" horiz-adv-x="642" 
d="M618 664v-86h-139v-720h-87v720h-141v-720h-87v720h-139v86h593z" />
    <glyph glyph-name="summation" unicode="&#x2211;" horiz-adv-x="515" 
d="M475 -142l-451 4l235 400l-228 402h444v-84h-298l182 -319l-188 -316l305 -3z" />
    <glyph glyph-name="minus" unicode="&#x2212;" horiz-adv-x="631" 
d="M55 218v86h522v-86h-522z" />
    <glyph glyph-name="uni2215" unicode="&#x2215;" horiz-adv-x="243" 
d="M72 -142h-88l186 913h88z" />
    <glyph glyph-name="uni2219" unicode="&#x2219;" horiz-adv-x="562" 
d="M279 -13q-102 0 -175 73t-73 175q0 106 73 179t175 73q106 0 179 -73t73 -179q0 -102 -73 -175t-179 -73z" />
    <glyph glyph-name="radical" unicode="&#x221a;" horiz-adv-x="641" 
d="M644 759v-86h-208l-73 -816h-117l-38 433h-153v86h223l26 -374l52 757h288z" />
    <glyph glyph-name="infinity" unicode="&#x221e;" horiz-adv-x="927" 
d="M679 395q85 0 140 -37q54 -38 54 -97q0 -58 -56 -96t-138 -38q-61 0 -110 21q-48 19 -105 59q-57 -39 -105 -59q-49 -21 -111 -21q-81 0 -137 38t-56 96q0 60 55 97q53 37 138 37q62 0 111 -21q48 -20 105 -59q57 39 105 59q49 21 110 21zM243 214q68 0 142 47
q-74 47 -142 47q-43 0 -68 -13t-25 -34q0 -20 25 -33q26 -14 68 -14zM684 214q43 0 69 14q25 13 25 33q0 21 -25 34t-69 13q-66 0 -142 -47q76 -47 142 -47z" />
    <glyph glyph-name="integral" unicode="&#x222b;" horiz-adv-x="405" 
d="M159 465q0 95 74 154t173 59v-88q-68 0 -114 -39t-46 -104l1 -303v-84q0 -95 -74 -154t-174 -59v87q69 2 115 40q46 39 46 104l-1 318v69z" />
    <glyph glyph-name="approxequal" unicode="&#x2248;" horiz-adv-x="773" 
d="M549 225q-37 0 -76 14q-34 12 -65 35q-27 19 -56 41q-34 23 -59 34q-33 14 -63 14q-38 0 -70 -21q-31 -21 -31 -49h-74q0 68 49 116q49 47 120 47q47 0 94 -21q44 -22 76 -48q31 -26 71 -47q40 -22 78 -22q43 0 72 20t29 51h75q0 -70 -47 -117q-49 -47 -123 -47zM549 67
q-37 0 -76 14q-34 12 -65 35q-27 19 -56 41q-34 23 -59 34q-33 14 -63 14q-38 0 -70 -20q-31 -21 -31 -50h-74q0 68 49 116q49 47 120 47q47 0 94 -21q44 -22 76 -48q31 -26 71 -47q40 -22 78 -22q43 0 72 20t29 51h75q0 -71 -48 -117q-49 -47 -122 -47z" />
    <glyph glyph-name="notequal" unicode="&#x2260;" horiz-adv-x="631" 
d="M577 304h-191l-42 -86h233v-86h-274l-82 -169l-80 37l64 132h-150v86h192l41 86h-233v86h275l82 169l79 -37l-64 -132h150v-86z" />
    <glyph glyph-name="lessequal" unicode="&#x2264;" horiz-adv-x="599" 
d="M565 129l-533 282l533 278v-95l-348 -184l348 -187v-94zM44 0v86h522v-86h-522z" />
    <glyph glyph-name="greaterequal" unicode="&#x2265;" horiz-adv-x="599" 
d="M34 129v94l348 187l-348 184v95l533 -278zM555 0h-522v86h522v-86z" />
    <glyph glyph-name="circleplus" unicode="&#x2295;" horiz-adv-x="764" 
d="M382 679q142 0 245 -101q101 -103 101 -245q0 -143 -101 -244q-102 -102 -245 -102q-144 0 -244 102q-102 101 -102 244t102 245q101 101 244 101zM382 28q126 0 217 89q89 89 89 216t-89 216q-91 89 -217 89q-127 0 -216 -89q-90 -89 -90 -216t90 -216q89 -89 216 -89z
M402 353h223v-40h-223v-222h-40v222h-223v40h223v222h40v-222z" />
    <glyph glyph-name="uni2296" unicode="&#x2296;" horiz-adv-x="764" 
d="M382 -13q-144 0 -244 102q-102 101 -102 244t102 245q101 101 244 101q142 0 245 -101q101 -103 101 -245q0 -143 -101 -244q-102 -102 -245 -102zM382 28q126 0 217 89q89 89 89 216t-89 216q-91 89 -217 89q-127 0 -216 -89q-90 -89 -90 -216t90 -216q89 -89 216 -89z
M139 313v40h486v-40h-486z" />
    <glyph glyph-name="circlemultiply" unicode="&#x2297;" horiz-adv-x="764" 
d="M382 679q142 0 245 -101q101 -103 101 -245q0 -143 -101 -244q-102 -102 -245 -102q-144 0 -244 102q-102 101 -102 244t102 245q101 101 244 101zM382 28q126 0 217 89q89 89 89 216t-89 216q-91 89 -217 89q-127 0 -216 -89q-90 -89 -90 -216t90 -216q89 -89 216 -89z
M540 518l28 -28l-158 -157l158 -157l-28 -28l-158 157l-158 -157l-28 28l158 157l-158 157l28 28l158 -157z" />
    <glyph glyph-name="uni24FF" unicode="&#x24ff;" 
d="M445 -13q-73 0 -145 20q-70 19 -130 60q-61 40 -97 109q-37 68 -37 157q0 83 36 151t95 110q58 40 131 63q69 22 147 22q77 0 147 -22q72 -23 130 -63q59 -42 95 -110t36 -151q0 -88 -36 -157q-37 -69 -97 -109q-62 -41 -131 -60q-72 -20 -144 -20zM445 124q77 0 136 53
t59 156q0 98 -59 154q-58 55 -136 55q-79 0 -137 -55q-59 -56 -59 -154q0 -103 59 -156t137 -53zM445 176q-57 0 -99 39q-43 39 -43 118q0 77 43 117q41 40 99 40t99 -40q42 -40 42 -117q0 -79 -42 -118q-44 -39 -99 -39z" />
    <glyph glyph-name="filledbox" unicode="&#x25a0;" horiz-adv-x="706" 
d="M71 50v564h564v-564h-564z" />
    <glyph glyph-name="uni25A1" unicode="&#x25a1;" horiz-adv-x="706" 
d="M71 50v564h564v-564h-564zM111 91h484v482h-484v-482z" />
    <glyph glyph-name="triagup" unicode="&#x25b2;" horiz-adv-x="676" 
d="M6 0l332 664l332 -664h-664z" />
    <glyph glyph-name="uni25B3" unicode="&#x25b3;" horiz-adv-x="676" 
d="M6 0l332 664l332 -664h-664zM71 41h534l-267 532z" />
    <glyph glyph-name="uni25B6" unicode="&#x25b6;" horiz-adv-x="758" 
d="M71 664l664 -332l-664 -332v664z" />
    <glyph glyph-name="uni25B7" unicode="&#x25b7;" horiz-adv-x="758" 
d="M71 0v664l664 -332zM111 66l534 266l-534 266v-532z" />
    <glyph glyph-name="triagdn" unicode="&#x25bc;" horiz-adv-x="676" 
d="M6 664h664l-332 -664z" />
    <glyph glyph-name="uni25BD" unicode="&#x25bd;" horiz-adv-x="676" 
d="M338 0l-332 664h664zM338 91l267 532h-534z" />
    <glyph glyph-name="uni25C0" unicode="&#x25c0;" horiz-adv-x="758" 
d="M687 664v-664l-664 332z" />
    <glyph glyph-name="uni25C1" unicode="&#x25c1;" horiz-adv-x="758" 
d="M687 0l-664 332l664 332v-664zM647 66v532l-534 -266z" />
    <glyph glyph-name="uni25C6" unicode="&#x25c6;" horiz-adv-x="761" 
d="M738 332l-359 -357l-356 357l357 358z" />
    <glyph glyph-name="uni25C7" unicode="&#x25c7;" horiz-adv-x="761" 
d="M379 -25l-356 357l357 358l358 -358zM379 33l302 299l-301 300l-301 -300z" />
    <glyph glyph-name="lozenge" unicode="&#x25ca;" horiz-adv-x="611" 
d="M286 -26l-263 358l263 358h40l262 -358l-262 -358h-40zM306 15l232 317l-232 317l-233 -317z" />
    <glyph glyph-name="circle" unicode="&#x25cb;" horiz-adv-x="762" 
d="M379 -13q-141 0 -242 101t-101 242q0 143 101 246q101 101 242 101q145 0 246 -101q101 -103 101 -246q0 -141 -101 -242q-103 -101 -246 -101zM379 28q129 0 218 88q89 89 89 214q0 126 -89 217q-91 89 -218 89q-125 0 -214 -89q-89 -91 -89 -217q0 -124 89 -213
t214 -89z" />
    <glyph glyph-name="uni25CF" unicode="&#x25cf;" horiz-adv-x="762" 
d="M379 -13q-141 0 -242 101t-101 242q0 143 101 246q101 101 242 101q145 0 246 -101q101 -103 101 -246q0 -141 -101 -242q-103 -101 -246 -101z" />
    <glyph glyph-name="uni2609" unicode="&#x2609;" horiz-adv-x="764" 
d="M728 353v-40h-272l235 -136l-20 -34l-235 135l136 -235l-34 -20l-136 235v-271h-40v271l-136 -235l-34 20l136 236l-236 -136l-20 34l235 136h-271v40h271l-235 136l20 34l236 -136l-136 236l34 20l136 -235v271h40v-271l136 235l34 -20l-136 -235l235 135l20 -34
l-235 -136h272z" />
    <glyph glyph-name="uni2610" unicode="&#x2610;" horiz-adv-x="878" 
d="M71 0v664h58v26h678v-648h-72v-42h-664zM114 42h581v580h-581v-580z" />
    <glyph glyph-name="uni2611" unicode="&#x2611;" horiz-adv-x="878" 
d="M71 0v664h60v26h676v-649h-72v-41h-664zM111 41h584v582h-584v-582zM319 95l-163 204l31 25l131 -163l291 381l32 -24z" />
    <glyph glyph-name="uni2612" unicode="&#x2612;" horiz-adv-x="878" 
d="M71 0v664h60v26h676v-649h-72v-41h-664zM403 360l264 263h-528zM111 69l264 263l-264 263v-526zM695 69v526l-264 -263zM139 41h528l-264 263z" />
    <glyph glyph-name="smileface" unicode="&#x263a;" horiz-adv-x="772" 
d="M384 677q145 0 249 -101q103 -102 103 -246q0 -142 -103 -242q-104 -101 -249 -101q-141 0 -245 101q-103 100 -103 242q0 143 103 245t245 102zM384 19q128 0 222 92q92 92 92 219q0 129 -92 223q-94 92 -222 92q-126 0 -218 -92q-92 -94 -92 -223q0 -127 92 -219
t218 -92zM307 333q-20 0 -34 29q-14 30 -14 70q0 39 14 69q13 28 34 28q20 0 35 -28q14 -30 14 -69q0 -40 -14 -70q-15 -29 -35 -29zM460 333q-20 0 -34 29q-14 30 -14 70q0 39 14 69q13 28 34 28q20 0 35 -28q14 -30 14 -69q0 -40 -14 -70q-15 -29 -35 -29zM577 299
q12 -7 19 -16q6 -9 3 -14q-5 -9 -28 0q-25 -67 -75 -108t-112 -41t-112 41t-75 108q-23 -9 -28 0q-3 5 4 14q5 8 18 16q12 7 24 9t14 -4q6 -11 -16 -26q20 -53 68 -81q48 -30 103 -30q54 0 104 30q47 28 67 81q-22 15 -16 26q2 6 14 4t24 -9z" />
    <glyph glyph-name="invsmileface" unicode="&#x263b;" horiz-adv-x="772" 
d="M384 -13q-141 0 -245 101q-103 100 -103 242q0 143 103 245t245 102q145 0 249 -101q103 -102 103 -246q0 -142 -103 -242q-104 -101 -249 -101zM307 333q20 0 35 29q14 30 14 70q0 39 -14 69q-15 28 -35 28q-21 0 -34 -28q-14 -30 -14 -69q0 -40 14 -70q14 -29 34 -29z
M460 333q20 0 35 29q14 30 14 70q0 39 -14 69q-15 28 -35 28q-21 0 -34 -28q-14 -30 -14 -69q0 -40 14 -70q14 -29 34 -29zM384 120q62 0 112 41t75 108q8 -4 18 -4q11 0 11 7q0 9 -17 23q-17 13 -33 13q-12 0 -12 -8q0 -11 17 -22q-20 -53 -67 -81q-50 -30 -104 -30
q-55 0 -103 30q-48 28 -68 81q17 12 17 22q0 8 -12 8q-17 0 -33 -13q-17 -14 -17 -23q0 -7 11 -7q10 0 18 4q25 -67 75 -108t112 -41z" />
    <glyph glyph-name="sun" unicode="&#x263c;" horiz-adv-x="764" 
d="M728 312h-156q-6 -57 -42 -100l110 -110l-28 -28l-110 110q-43 -36 -100 -42v-156h-40v156q-58 6 -101 42l-110 -110l-28 28l110 110q-36 43 -42 100h-155v40h155q6 58 42 101l-110 110l28 28l110 -110q43 36 101 42v155h40v-155q57 -6 100 -42l110 110l28 -28l-110 -110
q36 -43 42 -101h156v-40zM382 181q63 0 107 44t44 107q0 62 -44 108q-44 44 -107 44t-107 -44q-45 -45 -45 -108q0 -62 45 -106q43 -45 107 -45z" />
    <glyph glyph-name="uni263D" unicode="&#x263d;" horiz-adv-x="527" 
d="M145 -13q-59 0 -112 18q103 36 168 126q65 91 65 202t-65 202q-65 89 -168 125q54 19 112 19q144 0 245 -101q101 -103 101 -245q0 -143 -101 -244q-100 -102 -245 -102zM153 26q125 8 212 96q86 89 86 211q0 123 -86 212q-86 87 -212 95q71 -54 113 -136q40 -79 40 -171
q0 -91 -40 -170q-41 -81 -113 -137z" />
    <glyph glyph-name="uni2709" unicode="&#x2709;" horiz-adv-x="1110" 
d="M71 0v664h968v-664h-968zM555 246l412 377h-824zM111 68l283 271l-283 258v-529zM999 68v529l-283 -258zM140 41h830l-284 271l-131 -120l-131 120z" />
    <glyph glyph-name="uni270F" unicode="&#x270f;" horiz-adv-x="783" 
d="M33 -26l60 210l507 506l150 -151l-506 -506zM91 33l132 37l470 469l-93 93l-471 -469z" />
    <glyph glyph-name="uni2713" unicode="&#x2713;" horiz-adv-x="1059" 
d="M350 -15l-279 309l30 27l250 -276l608 634l29 -28z" />
    <glyph glyph-name="uni2715" unicode="&#x2715;" horiz-adv-x="832" 
d="M761 649l-316 -316l316 -317l-28 -29l-317 317l-317 -317l-28 29l317 317l-317 316l28 29l317 -317l317 317z" />
    <glyph glyph-name="uni2776" unicode="&#x2776;" 
d="M445 -13q-73 0 -145 20q-70 19 -130 60q-61 40 -97 109q-37 68 -37 157q0 83 36 151t95 110q58 40 131 63q69 22 147 22q77 0 147 -22q72 -23 130 -63q59 -42 95 -110t36 -151q0 -88 -36 -157q-37 -69 -97 -109q-62 -41 -131 -60q-72 -20 -144 -20zM323 134h320v51h-135
v348h-52q-9 -72 -65 -119q-58 -47 -145 -56l5 -51q137 13 205 101v-223h-145z" />
    <glyph glyph-name="uni2777" unicode="&#x2777;" 
d="M445 -13q-73 0 -145 20q-70 19 -130 60q-61 40 -97 109q-37 68 -37 157q0 83 36 151t95 110q58 40 131 63q69 22 147 22q77 0 147 -22q72 -23 130 -63q59 -42 95 -110t36 -151q0 -88 -36 -157q-37 -69 -97 -109q-62 -41 -131 -60q-72 -20 -144 -20zM618 406q0 62 -49 99
t-121 37t-124 -37q-53 -38 -53 -94q0 -51 53 -95l32 41q-32 29 -32 54q0 32 36 56t88 24t85 -24q32 -24 32 -61q0 -86 -278 -220l11 -52h308v52h-213q117 61 172 114q53 53 53 106z" />
    <glyph glyph-name="uni2778" unicode="&#x2778;" 
d="M445 -13q-73 0 -145 20q-70 19 -130 60q-61 40 -97 109q-37 68 -37 157q0 83 36 151t95 110q58 40 131 63q69 22 147 22q77 0 147 -22q72 -23 130 -63q59 -42 95 -110t36 -151q0 -88 -36 -157q-37 -69 -97 -109q-62 -41 -131 -60q-72 -20 -144 -20zM525 346q79 28 79 95
q0 44 -47 73q-46 28 -112 28q-61 0 -108 -24q-49 -24 -62 -69l51 -19q9 28 41 45q31 15 78 15q48 0 76 -15q29 -17 29 -40q0 -29 -40 -48q-42 -20 -106 -20h-23l9 -50h18q77 0 120 -20q42 -19 42 -53q0 -28 -36 -48q-38 -20 -88 -20q-105 0 -129 65l-52 -11q17 -57 69 -81
q50 -25 112 -25q73 0 125 31q53 32 53 83q0 76 -99 108z" />
    <glyph glyph-name="uni2779" unicode="&#x2779;" 
d="M445 -13q-73 0 -145 20q-70 19 -130 60q-61 40 -97 109q-37 68 -37 157q0 83 36 151t95 110q58 40 131 63q69 22 147 22q77 0 147 -22q72 -23 130 -63q59 -42 95 -110t36 -151q0 -88 -36 -157q-37 -69 -97 -109q-62 -41 -131 -60q-72 -20 -144 -20zM637 258h-97v167h-52
v-167h-150q50 40 82 110q30 69 33 155l-52 27q0 -104 -38 -185q-38 -78 -111 -107v-52h236v-72h52v72h97v52z" />
    <glyph glyph-name="uni277A" unicode="&#x277a;" 
d="M445 -13q-73 0 -145 20q-70 19 -130 60q-61 40 -97 109q-37 68 -37 157q0 83 36 151t95 110q58 40 131 63q69 22 147 22q77 0 147 -22q72 -23 130 -63q59 -42 95 -110t36 -151q0 -88 -36 -157q-37 -69 -97 -109q-62 -41 -131 -60q-72 -20 -144 -20zM469 412
q-71 0 -127 -53l19 122h242v52h-288l-34 -222l51 -16q47 65 131 65q47 0 78 -22q32 -23 32 -61q0 -44 -35 -73q-35 -28 -94 -28q-44 0 -81 17q-37 16 -55 45l-46 -27q24 -39 74 -63t108 -24q79 0 131 43t52 110q0 60 -44 98q-44 37 -114 37z" />
    <glyph glyph-name="uni277B" unicode="&#x277b;" 
d="M445 -13q-73 0 -145 20q-70 19 -130 60q-61 40 -97 109q-37 68 -37 157q0 83 36 151t95 110q58 40 131 63q69 22 147 22q77 0 147 -22q72 -23 130 -63q59 -42 95 -110t36 -151q0 -88 -36 -157q-37 -69 -97 -109q-62 -41 -131 -60q-72 -20 -144 -20zM476 388
q-96 0 -163 -70v13q0 73 39 116t104 43q37 0 63 -13q26 -14 36 -37l50 21q-18 40 -60 61q-43 20 -89 20q-80 0 -138 -54q-59 -56 -59 -157q0 -105 58 -156q59 -51 138 -51q74 0 124 40q51 40 51 101q0 57 -46 90t-108 33zM455 176q-99 0 -131 86q50 75 137 75q51 0 83 -19
q32 -20 32 -53q0 -38 -34 -63q-35 -26 -87 -26z" />
    <glyph glyph-name="uni277C" unicode="&#x277c;" 
d="M445 -13q-73 0 -145 20q-70 19 -130 60q-61 40 -97 109q-37 68 -37 157q0 83 36 151t95 110q58 40 131 63q69 22 147 22q77 0 147 -22q72 -23 130 -63q59 -42 95 -110t36 -151q0 -88 -36 -157q-37 -69 -97 -109q-62 -41 -131 -60q-72 -20 -144 -20zM261 533v-52h257
q-84 -52 -130 -142q-46 -91 -36 -205h55q-13 134 51 225q65 92 170 122v52h-367z" />
    <glyph glyph-name="uni277D" unicode="&#x277d;" 
d="M445 -13q-73 0 -145 20q-70 19 -130 60q-61 40 -97 109q-37 68 -37 157q0 83 36 151t95 110q58 40 131 63q69 22 147 22q77 0 147 -22q72 -23 130 -63q59 -42 95 -110t36 -151q0 -88 -36 -157q-37 -69 -97 -109q-62 -41 -131 -60q-72 -20 -144 -20zM540 349q72 30 72 89
q0 43 -49 73t-118 30t-119 -30q-49 -30 -49 -73q0 -59 73 -89q-44 -17 -68 -45q-25 -28 -25 -63q0 -49 55 -83t133 -34q77 0 132 34t55 83q0 35 -24 64q-25 28 -68 44zM445 490q45 0 81 -17q33 -17 33 -41q0 -26 -34 -42q-33 -16 -80 -16q-48 0 -81 16q-34 16 -34 42t34 42
q32 16 81 16zM445 176q-59 0 -96 21q-38 20 -38 52q0 30 41 53q40 21 93 21t93 -21q40 -22 40 -53q0 -32 -38 -52q-38 -21 -95 -21z" />
    <glyph glyph-name="uni277E" unicode="&#x277e;" 
d="M445 -13q-73 0 -145 20q-70 19 -130 60q-61 40 -97 109q-37 68 -37 157q0 83 36 151t95 110q58 40 131 63q69 22 147 22q77 0 147 -22q72 -23 130 -63q59 -42 95 -110t36 -151q0 -88 -36 -157q-37 -69 -97 -109q-62 -41 -131 -60q-72 -20 -144 -20zM434 542
q-74 0 -124 -40q-51 -40 -51 -101q0 -58 47 -90q47 -33 113 -33q94 0 157 72v-15q0 -78 -37 -118q-38 -41 -106 -41q-75 0 -98 47l-51 -18q18 -41 60 -60q42 -21 89 -21q82 0 140 53q57 53 57 158q0 104 -58 156q-58 51 -138 51zM428 329q-51 0 -82 19q-33 20 -33 53
q0 39 34 64t87 25q99 0 131 -86q-48 -75 -137 -75z" />
    <glyph glyph-name="uniE132" unicode="&#xe132;" horiz-adv-x="431" 
d="M60 529l79 135h103l-97 -135h-85zM286 529l79 135h103l-97 -135h-85zM60 0v474h85v-474h-85zM210 -200q-4 0 -26 2l26 82q76 0 76 78v512h85v-522q0 -70 -46 -110q-47 -42 -115 -42z" />
    <glyph glyph-name="uniE133" unicode="&#xe133;" horiz-adv-x="867" 
d="M72 711l79 135h103l-97 -135h-85zM718 711l79 135h103l-97 -135h-85zM71 0v664h87v-664h-87zM506 -13q-83 0 -155 39q-72 38 -110 110l67 65q26 -63 80 -95q54 -33 118 -33q100 0 156 54t56 157v380h87v-385q0 -144 -82 -217q-83 -75 -217 -75z" />
    <glyph glyph-name="u1F50D" unicode="&#x1f50d;" horiz-adv-x="740" 
d="M740 3l-28 -28l-141 141q-89 -81 -213 -81q-133 0 -228 95q-94 94 -94 227q0 134 94 228t228 94t228 -94t94 -228q0 -125 -81 -213zM358 76q118 0 200 82t82 199t-82 199t-200 82q-117 0 -199 -82q-83 -83 -83 -199t83 -199q82 -82 199 -82z" />
    <glyph glyph-name="u1F5B9" unicode="&#x1f5b9;" horiz-adv-x="634" 
d="M389 664l174 -174v-490h-492v664h318zM523 41v409h-174v173h-238v-582h412zM389 606v-116h117zM167 367v20h300v-20h-300zM167 279v20h300v-20h-300zM167 191v20h300v-20h-300zM167 104v20h300v-20h-300z" />
    <glyph glyph-name="u1F5CE" unicode="&#x1f5ce;" horiz-adv-x="634" 
d="M389 664l174 -174v-490h-492v664h318zM523 41v409h-174v173h-238v-582h412zM389 606v-116h117z" />
    <glyph glyph-name="CR" horiz-adv-x="277" 
 />
    <glyph glyph-name="A.ss10" horiz-adv-x="662" 
d="M565 0l-65 137h-338l-65 -137h-96l330 690l330 -690h-96zM203 223h256l-128 268z" />
    <glyph glyph-name="Aacute.ss10" horiz-adv-x="662" 
d="M470 846l-97 -135h-85l79 135h103zM565 0l-65 137h-338l-65 -137h-96l330 690l330 -690h-96zM203 223h256l-128 268z" />
    <glyph glyph-name="Abreve.ss10" horiz-adv-x="662" 
d="M331 706q-62 0 -106 41q-45 41 -45 99h96q0 -33 17 -56t38 -23q22 0 39 23q16 22 16 56h96q0 -58 -45 -99q-46 -41 -106 -41zM565 0l-65 137h-338l-65 -137h-96l330 690l330 -690h-96zM203 223h256l-128 268z" />
    <glyph glyph-name="uni01CD.ss10" horiz-adv-x="662" 
d="M383 711h-106l-97 135h103l47 -80l47 80h103zM565 0l-65 137h-338l-65 -137h-96l330 690l330 -690h-96zM203 223h256l-128 268z" />
    <glyph glyph-name="Acircumflex.ss10" horiz-adv-x="662" 
d="M330 791l-47 -80h-103l97 135h106l97 -135h-103zM565 0l-65 137h-338l-65 -137h-96l330 690l330 -690h-96zM203 223h256l-128 268z" />
    <glyph glyph-name="Adieresis.ss10" horiz-adv-x="662" 
d="M231 703q-27 0 -46 16t-19 40q0 23 20 40q19 16 45 16q27 0 46 -16t19 -40t-19 -40t-46 -16zM401 703q-27 0 -46 16t-19 40q0 23 20 40q19 16 45 16q27 0 46 -16t19 -40t-19 -40t-46 -16zM565 0l-65 137h-338l-65 -137h-96l330 690l330 -690h-96zM203 223h256l-128 268z
" />
    <glyph glyph-name="Adieresis.ss10.ss20" horiz-adv-x="662" 
d="M307 810v-99h-112v99h112zM467 810v-99h-112v99h112zM565 0l-65 137h-338l-65 -137h-96l330 690l330 -690h-96zM203 223h256l-128 268z" />
    <glyph glyph-name="Adieresis.ss20" horiz-adv-x="672" 
d="M312 810v-99h-112v99h112zM472 810v-99h-112v99h112zM573 0l-60 146h-354l-60 -146h-93l273 664h114l273 -664h-93zM195 232h282l-141 343z" />
    <glyph glyph-name="uni1EA0.ss10" horiz-adv-x="662" 
d="M661 0h-96l-65 137h-338l-65 -137h-96l330 690zM203 223h256l-128 268zM332 -47q27 0 46 -16t19 -40t-19 -40t-46 -16t-46 16t-19 40q0 23 20 40q19 16 45 16z" />
    <glyph glyph-name="uni1EA0.ss10.ss20" horiz-adv-x="662" 
d="M661 0h-96l-65 137h-338l-65 -137h-96l330 690zM203 223h256l-128 268zM275 -154v99h112v-99h-112z" />
    <glyph glyph-name="uni1EA0.ss20" horiz-adv-x="672" 
d="M666 0h-93l-60 146h-354l-60 -146h-93l273 664h114zM195 232h282l-141 343zM280 -154v99h112v-99h-112z" />
    <glyph glyph-name="Agrave.ss10" horiz-adv-x="662" 
d="M373 711h-85l-97 135h103zM565 0l-65 137h-338l-65 -137h-96l330 690l330 -690h-96zM203 223h256l-128 268z" />
    <glyph glyph-name="Amacron.ss10" horiz-adv-x="662" 
d="M457 783v-72h-252v72h252zM565 0l-65 137h-338l-65 -137h-96l330 690l330 -690h-96zM203 223h256l-128 268z" />
    <glyph glyph-name="Aogonek.ss10" horiz-adv-x="662" 
d="M548 -87q0 -50 113 -50l-14 -42q-111 0 -162 16q-54 17 -54 56q0 33 39 62q38 29 94 47l-64 135h-338l-65 -137h-96l330 690l330 -690q-43 -8 -77 -34q-36 -28 -36 -53zM203 223h256l-128 268z" />
    <glyph glyph-name="Aring.ss10" horiz-adv-x="662" 
d="M331 707q-60 0 -105 21t-45 51q0 28 46 49q45 21 104 21q60 0 106 -20q44 -21 44 -50q0 -30 -44 -51t-106 -21zM331 815q-21 0 -35 -11q-15 -10 -15 -25t15 -26q14 -12 35 -12t35 12q14 11 14 26t-14 26q-13 10 -35 10zM565 0l-65 137h-338l-65 -137h-96l330 690
l330 -690h-96zM203 223h256l-128 268z" />
    <glyph glyph-name="Aringacute.ss10" horiz-adv-x="662" 
d="M331 707q-60 0 -105 21t-45 51q0 28 46 49q45 21 104 21q21 0 27 -1l33 56h103l-55 -77q42 -19 42 -48q0 -30 -44 -51t-106 -21zM331 815q-21 0 -35 -11q-15 -10 -15 -25t15 -26q14 -12 35 -12t35 12q14 11 14 26t-14 26q-13 10 -35 10zM565 0l-65 137h-338l-65 -137h-96
l330 690l330 -690h-96zM203 223h256l-128 268z" />
    <glyph glyph-name="Atilde.ss10" horiz-adv-x="662" 
d="M277 777q-7 2 -9 1q-4 -2 -6 -9q-2 -6 -4 -21q-1 -9 -1 -37h-87q0 63 29 103q29 38 68 38q34 0 75 -34q40 -34 44 -36q14 -6 18 16q2 18 2 48h87q0 -65 -28 -102q-29 -38 -69 -38q-33 0 -74 35q-42 35 -45 36zM565 0l-65 137h-338l-65 -137h-96l330 690l330 -690h-96z
M203 223h256l-128 268z" />
    <glyph glyph-name="Cdotaccent.ss20" horiz-adv-x="667" 
d="M421 810v-99h-112v99h112zM364 -13q-58 0 -115 20q-57 19 -105 60q-50 41 -78 109q-30 69 -30 157q0 82 29 151q29 68 75 110q46 40 105 63q57 22 120 22q83 0 155 -39q73 -39 110 -111l-67 -65q-26 66 -79 97q-55 32 -122 32q-105 0 -171 -72t-66 -188q0 -119 66 -189
q65 -71 173 -71q67 0 122 31q57 31 85 86l72 -52q-44 -76 -120 -113q-78 -38 -159 -38z" />
    <glyph glyph-name="Edieresis.ss20" horiz-adv-x="614" 
d="M301 810v-99h-112v99h112zM461 810v-99h-112v99h112zM578 578h-420v-185h356v-86h-356v-221h420v-86h-507v664h507v-86z" />
    <glyph glyph-name="Edotaccent.ss20" horiz-adv-x="614" 
d="M381 810v-99h-112v99h112zM578 578h-420v-185h356v-86h-356v-221h420v-86h-507v664h507v-86z" />
    <glyph glyph-name="uni1EB8.ss20" horiz-adv-x="614" 
d="M578 578h-420v-185h356v-86h-356v-221h420v-86h-507v664h507v-86zM269 -154v99h112v-99h-112z" />
    <glyph glyph-name="Gcommaaccent.ss20" horiz-adv-x="713" 
d="M309 363h344v-363h-82v119q-31 -66 -92 -99t-138 -33q-50 0 -104 20q-51 19 -98 60q-45 39 -74 109t-29 157q0 82 29 151q29 68 75 110q46 40 105 63q57 22 120 22q83 0 155 -39q73 -39 110 -111l-67 -65q-26 66 -79 97q-55 32 -122 32q-105 0 -171 -72t-66 -188
q0 -127 67 -193q67 -67 167 -67q78 0 134 55t74 150h-258v85zM286 -239v184h120l-90 -184h-30z" />
    <glyph glyph-name="Gdotaccent.ss20" horiz-adv-x="713" 
d="M421 810v-99h-112v99h112zM309 363h344v-363h-82v119q-31 -66 -92 -99t-138 -33q-50 0 -104 20q-51 19 -98 60q-45 39 -74 109t-29 157q0 82 29 151q29 68 75 110q46 40 105 63q57 22 120 22q83 0 155 -39q73 -39 110 -111l-67 -65q-26 66 -79 97q-55 32 -122 32
q-105 0 -171 -72t-66 -188q0 -127 67 -193q67 -67 167 -67q78 0 134 55t74 150h-258v85z" />
    <glyph glyph-name="I.ss04" horiz-adv-x="516" 
d="M483 578h-181v-492h181v-86h-450v86h182v492h-182v86h450v-86z" />
    <glyph glyph-name="IJ.ss01" horiz-adv-x="602" 
d="M71 0v664h87v-664h-87zM252 -13l-11 86q98 0 156 50q56 50 56 136v405h87v-410q0 -126 -81 -196q-83 -71 -207 -71z" />
    <glyph glyph-name="Iacute.ss04" horiz-adv-x="516" 
d="M215 711l79 135h103l-97 -135h-85zM483 578h-181v-492h181v-86h-450v86h182v492h-182v86h450v-86z" />
    <glyph glyph-name="Ibreve.ss04" horiz-adv-x="516" 
d="M258 706q-62 0 -106 41q-45 41 -45 99h96q0 -33 17 -56t38 -23q22 0 39 23q16 22 16 56h96q0 -58 -45 -99q-46 -41 -106 -41zM483 578h-181v-492h181v-86h-450v86h182v492h-182v86h450v-86z" />
    <glyph glyph-name="uni01CF.ss04" horiz-adv-x="516" 
d="M310 711h-106l-97 135h103l47 -80l47 80h103zM483 578h-181v-492h181v-86h-450v86h182v492h-182v86h450v-86z" />
    <glyph glyph-name="Icircumflex.ss04" horiz-adv-x="516" 
d="M257 791l-47 -80h-103l97 135h106l97 -135h-103zM483 578h-181v-492h181v-86h-450v86h182v492h-182v86h450v-86z" />
    <glyph glyph-name="Idieresis.ss04" horiz-adv-x="516" 
d="M158 703q-27 0 -46 16t-19 40q0 23 20 40q19 16 45 16q27 0 46 -16t19 -40t-19 -40t-46 -16zM328 703q-27 0 -46 16t-19 40q0 23 20 40q19 16 45 16q27 0 46 -16t19 -40t-19 -40t-46 -16zM483 578h-181v-492h181v-86h-450v86h182v492h-182v86h450v-86z" />
    <glyph glyph-name="Idieresis.ss04.ss20" horiz-adv-x="516" 
d="M122 711v99h112v-99h-112zM282 711v99h112v-99h-112zM483 578h-181v-492h181v-86h-450v86h182v492h-182v86h450v-86z" />
    <glyph glyph-name="Idieresis.ss20" horiz-adv-x="229" 
d="M-21 711v99h112v-99h-112zM139 711v99h112v-99h-112zM71 0v664h87v-664h-87z" />
    <glyph glyph-name="Idotaccent.ss04" horiz-adv-x="516" 
d="M258 703q-27 0 -46 16t-19 40q0 23 20 40q19 16 45 16q27 0 46 -16t19 -40t-19 -40t-46 -16zM483 578h-181v-492h181v-86h-450v86h182v492h-182v86h450v-86z" />
    <glyph glyph-name="Idotaccent.ss04.ss20" horiz-adv-x="516" 
d="M314 810v-99h-112v99h112zM483 578h-181v-492h181v-86h-450v86h182v492h-182v86h450v-86z" />
    <glyph glyph-name="Idotaccent.ss20" horiz-adv-x="229" 
d="M171 810v-99h-112v99h112zM71 0v664h87v-664h-87z" />
    <glyph glyph-name="uni1ECA.ss04" horiz-adv-x="516" 
d="M483 578h-181v-492h181v-86h-450v86h182v492h-182v86h450v-86zM259 -159q-27 0 -46 16t-19 40q0 23 20 40q19 16 45 16q27 0 46 -16t19 -40t-19 -40t-46 -16z" />
    <glyph glyph-name="uni1ECA.ss04.ss20" horiz-adv-x="516" 
d="M483 578h-181v-492h181v-86h-450v86h182v492h-182v86h450v-86zM202 -154v99h112v-99h-112z" />
    <glyph glyph-name="uni1ECA.ss20" horiz-adv-x="229" 
d="M71 0v664h87v-664h-87zM59 -154v99h112v-99h-112z" />
    <glyph glyph-name="Igrave.ss04" horiz-adv-x="516" 
d="M300 711h-85l-97 135h103zM483 578h-181v-492h181v-86h-450v86h182v492h-182v86h450v-86z" />
    <glyph glyph-name="Imacron.ss04" horiz-adv-x="516" 
d="M132 711v72h252v-72h-252zM483 578h-181v-492h181v-86h-450v86h182v492h-182v86h450v-86z" />
    <glyph glyph-name="Iogonek.ss04" horiz-adv-x="516" 
d="M370 -87q0 -50 120 -50l-14 -42q-116 0 -168 16q-55 16 -55 56q0 33 37 61q35 28 91 46h-348v86h182v492h-182v86h450v-86h-181v-492h181v-86q-43 -8 -77 -34q-36 -28 -36 -53z" />
    <glyph glyph-name="Itilde.ss04" horiz-adv-x="516" 
d="M323 706q-33 0 -74 35q-42 35 -45 36q-7 2 -9 1q-5 -2 -6 -9q-2 -6 -4 -21q-1 -9 -1 -37h-87q0 63 29 103q29 38 68 38q34 0 75 -34q40 -34 44 -36q14 -6 18 16q2 18 2 48h87q0 -65 -28 -102q-29 -38 -69 -38zM483 578h-181v-492h181v-86h-450v86h182v492h-182v86h450
v-86z" />
    <glyph glyph-name="J.ss01" horiz-adv-x="373" 
d="M23 -13l-11 86q98 0 156 50q56 50 56 136v405h87v-410q0 -126 -81 -196q-83 -71 -207 -71z" />
    <glyph glyph-name="uni00A40301" horiz-adv-x="638" 
d="M489 711l79 135h103l-97 -135h-85zM277 -13q-83 0 -155 39q-72 38 -110 110l67 65q26 -63 80 -95q54 -33 118 -33q101 0 156 54q56 54 56 157v380h87v-385q0 -144 -82 -217q-82 -75 -217 -75z" />
    <glyph glyph-name="uni00A40301.ss01" horiz-adv-x="373" 
d="M224 711l79 135h103l-97 -135h-85zM23 -13l-11 86q98 0 156 50q56 50 56 136v405h87v-410q0 -126 -81 -196q-83 -71 -207 -71z" />
    <glyph glyph-name="Jcircumflex.ss01" horiz-adv-x="373" 
d="M319 846l97 -135h-103l-47 80l-47 -80h-103l97 135h106zM224 259v405h87v-410q0 -126 -81 -196q-83 -71 -207 -71l-11 86q98 0 156 50q56 50 56 136z" />
    <glyph glyph-name="Kcommaaccent.ss20" horiz-adv-x="655" 
d="M389 375l271 -375h-106l-224 308l-172 -189v-119h-87v664h87v-416l377 416h115zM301 -239v184h120l-90 -184h-30z" />
    <glyph glyph-name="Lcommaaccent.ss20" horiz-adv-x="571" 
d="M158 86h398v-86h-485v664h87v-578zM259 -239v184h120l-90 -184h-30z" />
    <glyph glyph-name="Ldot.ss20" horiz-adv-x="570" 
d="M158 86h398v-86h-485v664h87v-578zM468 329v-99h-108v99h108z" />
    <glyph glyph-name="M.ss10" horiz-adv-x="928" 
d="M464 126l393 564v-690h-87v412l-306 -438l-306 438v-412h-87v690z" />
    <glyph glyph-name="M.ss11" horiz-adv-x="928" 
d="M464 282l393 408v-690h-87v473l-306 -314l-306 314v-473h-87v690z" />
    <glyph glyph-name="N.ss10" horiz-adv-x="775" 
d="M704 664v-690l-546 513v-487h-87v690l546 -514v488h87z" />
    <glyph glyph-name="Nacute.ss10" horiz-adv-x="775" 
d="M527 846l-97 -135h-85l79 135h103zM704 664v-690l-546 513v-487h-87v690l546 -514v488h87z" />
    <glyph glyph-name="Ncaron.ss10" horiz-adv-x="775" 
d="M440 711h-106l-97 135h103l47 -80l47 80h103zM704 664v-690l-546 513v-487h-87v690l546 -514v488h87z" />
    <glyph glyph-name="Ncommaaccent.ss10" horiz-adv-x="775" 
d="M617 664h87v-690l-546 513v-487h-87v690l546 -514v488zM389 -47q27 0 46 -18q19 -19 18 -50q-2 -57 -35 -88q-34 -33 -93 -33v42q55 0 76 36q-25 -6 -51 11t-26 44q0 23 20 40q19 16 45 16z" />
    <glyph glyph-name="Ncommaaccent.ss10.ss20" horiz-adv-x="775" 
d="M617 664h87v-690l-546 513v-487h-87v690l546 -514v488zM333 -239v184h120l-90 -184h-30z" />
    <glyph glyph-name="Ncommaaccent.ss20" horiz-adv-x="775" 
d="M617 664h87v-664h-100l-446 542v-542h-87v664h100l446 -543v543zM333 -239v184h120l-90 -184h-30z" />
    <glyph glyph-name="Eng.ss10" horiz-adv-x="775" 
d="M617 664h87v-712q0 -70 -46 -110q-46 -42 -115 -42q-4 0 -26 2l26 82q76 0 76 78v92l-461 433v-487h-87v690l546 -514v488z" />
    <glyph glyph-name="uni019D.ss10" horiz-adv-x="764" 
d="M693 664v-690l-546 513v-535q0 -69 -47 -110q-47 -42 -116 -42q-4 0 -26 2l26 82q76 0 76 78v728l546 -514v488h87z" />
    <glyph glyph-name="Ntilde.ss10" horiz-adv-x="775" 
d="M334 777q-7 2 -9 1q-5 -2 -6 -9q-2 -6 -4 -21q-1 -9 -1 -37h-87q0 63 29 103q29 38 68 38q34 0 75 -34q40 -34 44 -36q14 -6 18 16q2 18 2 48h87q0 -65 -28 -102q-29 -38 -69 -38q-33 0 -74 35q-42 35 -45 36zM704 664v-690l-546 513v-487h-87v690l546 -514v488h87z" />
    <glyph glyph-name="Odieresis.ss20" horiz-adv-x="718" 
d="M223 711v99h112v-99h-112zM383 711v99h112v-99h-112zM359 -13q-57 0 -114 20t-103 60q-49 41 -77 109q-29 70 -29 157q0 82 29 151q29 68 75 110q47 41 103 63q54 22 116 22q61 0 117 -22q57 -23 103 -63q46 -42 75 -110q28 -66 28 -151q0 -87 -29 -157q-28 -67 -76 -109
q-48 -41 -103 -60q-57 -20 -115 -20zM359 73q93 0 164 66q70 66 70 194q0 123 -70 192q-71 68 -164 68q-92 0 -163 -68q-71 -69 -71 -192q0 -128 71 -194q70 -66 163 -66z" />
    <glyph glyph-name="uni1ECC.ss20" horiz-adv-x="718" 
d="M359 -13q-57 0 -114 20t-103 60q-49 41 -77 109q-29 70 -29 157q0 82 29 151q29 68 75 110q47 41 103 63q54 22 116 22q61 0 117 -22q57 -23 103 -63q46 -42 75 -110q28 -66 28 -151q0 -87 -29 -157q-28 -67 -76 -109q-48 -41 -103 -60q-57 -20 -115 -20zM359 73
q93 0 164 66q70 66 70 194q0 123 -70 192q-71 68 -164 68q-92 0 -163 -68q-71 -69 -71 -192q0 -128 71 -194q70 -66 163 -66zM303 -154v99h112v-99h-112z" />
    <glyph glyph-name="Q.ss07" horiz-adv-x="717" 
d="M717 0l-59 -61l-112 104q-85 -56 -187 -56q-57 0 -114 20t-103 60q-49 41 -77 109q-29 70 -29 157q0 82 29 151q29 68 75 110q47 41 103 63q54 22 116 22q61 0 117 -22q57 -23 103 -63q46 -42 75 -110q28 -66 28 -151q0 -141 -73 -232zM359 73q65 0 120 32l-179 167
l59 61l184 -171q50 68 50 171q0 123 -70 192q-71 68 -164 68q-92 0 -163 -68q-71 -69 -71 -192q0 -128 71 -194q70 -66 163 -66z" />
    <glyph glyph-name="Q.ss13" horiz-adv-x="718" 
d="M533 35q61 -59 102 -135l-85 -26q-50 81 -107 123q-39 -10 -84 -10q-57 0 -114 20t-103 60q-49 41 -77 109q-29 70 -29 157q0 82 29 151q29 68 75 110q47 41 103 63q54 22 116 22q61 0 117 -22q57 -23 103 -63q46 -42 75 -110q28 -66 28 -151q0 -109 -40 -182
q-40 -75 -109 -116zM125 333q0 -163 117 -230q94 52 211 -11q63 27 101 88q39 60 39 153q0 123 -70 192q-71 68 -164 68q-92 0 -163 -68q-71 -69 -71 -192z" />
    <glyph glyph-name="Q.ss15" horiz-adv-x="718" 
d="M682 333q0 -134 -61 -216t-158 -114l114 -10l-9 -85l-346 30l9 74q-87 34 -141 116q-54 79 -54 205q0 82 29 151q29 68 75 110q47 41 103 63q54 22 116 22q61 0 117 -22q57 -23 103 -63q46 -42 75 -110q28 -66 28 -151zM359 73q93 0 164 66q70 66 70 194q0 123 -70 192
q-71 68 -164 68q-92 0 -163 -68q-71 -69 -71 -192q0 -128 71 -194q70 -66 163 -66z" />
    <glyph glyph-name="R.ss03" horiz-adv-x="662" 
d="M437 259q21 -77 74 -124q52 -47 120 -49v-86q-95 1 -176 70t-106 180h-191v-250h-87v664q74 6 253 6q308 0 308 -212q0 -164 -195 -199zM158 336h166q120 0 170 30q49 30 49 92q0 64 -49 95t-170 31q-62 0 -166 -2v-246z" />
    <glyph glyph-name="R.ss05" horiz-adv-x="665" 
d="M632 458q0 -172 -211 -202l200 -168v-114l-316 276h-147v-250h-87v664q74 6 253 6q308 0 308 -212zM158 582v-246h166q120 0 170 30q49 30 49 92q0 64 -49 95t-170 31q-62 0 -166 -2z" />
    <glyph glyph-name="R.ss08" horiz-adv-x="664" 
d="M458 263q141 -92 181 -263h-94q-26 113 -107 182q-82 68 -189 68h-91v-250h-87v664q74 6 253 6q308 0 308 -212q0 -156 -174 -195zM158 336h166q120 0 170 30q49 30 49 92q0 64 -49 95t-170 31q-62 0 -166 -2v-246z" />
    <glyph glyph-name="Racute.ss03" horiz-adv-x="662" 
d="M464 846l-97 -135h-85l79 135h103zM437 259q21 -77 74 -124q52 -47 120 -49v-86q-95 1 -176 70t-106 180h-191v-250h-87v664q74 6 253 6q308 0 308 -212q0 -164 -195 -199zM158 336h166q120 0 170 30q49 30 49 92q0 64 -49 95t-170 31q-62 0 -166 -2v-246z" />
    <glyph glyph-name="Racute.ss05" horiz-adv-x="665" 
d="M464 846l-97 -135h-85l79 135h103zM632 458q0 -172 -211 -202l200 -168v-114l-316 276h-147v-250h-87v664q74 6 253 6q308 0 308 -212zM158 582v-246h166q120 0 170 30q49 30 49 92q0 64 -49 95t-170 31q-62 0 -166 -2z" />
    <glyph glyph-name="Racute.ss08" horiz-adv-x="664" 
d="M464 846l-97 -135h-85l79 135h103zM458 263q141 -92 181 -263h-94q-26 113 -107 182q-82 68 -189 68h-91v-250h-87v664q74 6 253 6q308 0 308 -212q0 -156 -174 -195zM158 336h166q120 0 170 30q49 30 49 92q0 64 -49 95t-170 31q-62 0 -166 -2v-246z" />
    <glyph glyph-name="Rcaron.ss03" horiz-adv-x="662" 
d="M377 711h-106l-97 135h103l47 -80l47 80h103zM437 259q21 -77 74 -124q52 -47 120 -49v-86q-95 1 -176 70t-106 180h-191v-250h-87v664q74 6 253 6q308 0 308 -212q0 -164 -195 -199zM158 336h166q120 0 170 30q49 30 49 92q0 64 -49 95t-170 31q-62 0 -166 -2v-246z" />
    <glyph glyph-name="Rcaron.ss05" horiz-adv-x="665" 
d="M377 711h-106l-97 135h103l47 -80l47 80h103zM632 458q0 -172 -211 -202l200 -168v-114l-316 276h-147v-250h-87v664q74 6 253 6q308 0 308 -212zM158 582v-246h166q120 0 170 30q49 30 49 92q0 64 -49 95t-170 31q-62 0 -166 -2z" />
    <glyph glyph-name="Rcaron.ss08" horiz-adv-x="664" 
d="M377 711h-106l-97 135h103l47 -80l47 80h103zM458 263q141 -92 181 -263h-94q-26 113 -107 182q-82 68 -189 68h-91v-250h-87v664q74 6 253 6q308 0 308 -212q0 -156 -174 -195zM158 336h166q120 0 170 30q49 30 49 92q0 64 -49 95t-170 31q-62 0 -166 -2v-246z" />
    <glyph glyph-name="Rcommaaccent.ss03" horiz-adv-x="662" 
d="M437 259q21 -77 74 -124q52 -47 120 -49v-86q-95 1 -176 70t-106 180h-191v-250h-87v664q74 6 253 6q308 0 308 -212q0 -164 -195 -199zM158 336h166q120 0 170 30q49 30 49 92q0 64 -49 95t-170 31q-62 0 -166 -2v-246zM326 -47q26 0 46 -18q19 -19 18 -50
q-2 -57 -35 -88q-35 -33 -93 -33v42q55 0 76 36q-25 -6 -51 11t-26 44q0 23 20 40q19 16 45 16z" />
    <glyph glyph-name="Rcommaaccent.ss03.ss20" horiz-adv-x="662" 
d="M437 259q21 -77 74 -124q52 -47 120 -49v-86q-95 1 -176 70t-106 180h-191v-250h-87v664q74 6 253 6q308 0 308 -212q0 -164 -195 -199zM158 336h166q120 0 170 30q49 30 49 92q0 64 -49 95t-170 31q-62 0 -166 -2v-246zM270 -239v184h120l-90 -184h-30z" />
    <glyph glyph-name="Rcommaaccent.ss05" horiz-adv-x="665" 
d="M632 458q0 -172 -211 -202l200 -168v-114l-316 276h-147v-250h-87v664q74 6 253 6q308 0 308 -212zM158 582v-246h166q120 0 170 30q49 30 49 92q0 64 -49 95t-170 31q-62 0 -166 -2zM348 -47q26 0 46 -18q19 -19 18 -50q-2 -57 -35 -88q-35 -33 -93 -33v42q55 0 76 36
q-25 -6 -51 11t-26 44q0 23 20 40q19 16 45 16z" />
    <glyph glyph-name="Rcommaaccent.ss05.ss20" horiz-adv-x="665" 
d="M632 458q0 -172 -211 -202l200 -168v-114l-316 276h-147v-250h-87v664q74 6 253 6q308 0 308 -212zM158 582v-246h166q120 0 170 30q49 30 49 92q0 64 -49 95t-170 31q-62 0 -166 -2zM292 -239v184h120l-90 -184h-30z" />
    <glyph glyph-name="Rcommaaccent.ss08" horiz-adv-x="664" 
d="M458 263q141 -92 181 -263h-94q-26 113 -107 182q-82 68 -189 68h-91v-250h-87v664q74 6 253 6q308 0 308 -212q0 -156 -174 -195zM158 336h166q120 0 170 30q49 30 49 92q0 64 -49 95t-170 31q-62 0 -166 -2v-246zM348 -47q26 0 46 -18q19 -19 18 -50q-2 -57 -35 -88
q-35 -33 -93 -33v42q55 0 76 36q-25 -6 -51 11t-26 44q0 23 20 40q19 16 45 16z" />
    <glyph glyph-name="Rcommaaccent.ss08.ss20" horiz-adv-x="664" 
d="M458 263q141 -92 181 -263h-94q-26 113 -107 182q-82 68 -189 68h-91v-250h-87v664q74 6 253 6q308 0 308 -212q0 -156 -174 -195zM158 336h166q120 0 170 30q49 30 49 92q0 64 -49 95t-170 31q-62 0 -166 -2v-246zM292 -239v184h120l-90 -184h-30z" />
    <glyph glyph-name="Rcommaaccent.ss20" horiz-adv-x="665" 
d="M453 262l188 -262h-106l-179 251q-7 -1 -32 -1h-166v-250h-87v664q74 6 253 6q308 0 308 -212q0 -158 -179 -196zM158 582v-246h166q120 0 170 30q49 30 49 92q0 64 -49 95t-170 31q-62 0 -166 -2zM292 -239v184h120l-90 -184h-30z" />
    <glyph glyph-name="Scommaaccent.ss20" horiz-adv-x="652" 
d="M333 -13q-117 0 -197 50q-81 50 -99 131l83 40q6 -65 65 -100t148 -35q95 0 145 28q51 28 51 76q0 41 -42 70q-45 28 -156 56q-147 38 -211 82q-64 45 -64 120q0 77 79 126q78 48 194 48q113 0 187 -48q72 -50 87 -137l-84 -40q-2 70 -52 104q-53 35 -138 35
q-81 0 -132 -27q-52 -27 -52 -67q0 -31 48 -58q44 -26 160 -55q144 -38 205 -82q60 -46 60 -127q0 -89 -78 -139q-78 -51 -207 -51zM276 -239v184h120l-90 -184h-30z" />
    <glyph glyph-name="uni021A.ss20" horiz-adv-x="595" 
d="M15 664h565v-86h-239v-578h-87v578h-239v86zM243 -239v184h120l-90 -184h-30z" />
    <glyph glyph-name="Udieresis.ss20" horiz-adv-x="723" 
d="M225 711v99h112v-99h-112zM385 711v99h112v-99h-112zM362 -13q-134 0 -217 75q-83 74 -83 217v385h87v-380q0 -103 56 -157q55 -54 157 -54q100 0 156 54t56 157v380h87v-385q0 -144 -82 -217q-83 -75 -217 -75z" />
    <glyph glyph-name="uni1EE4.ss20" horiz-adv-x="723" 
d="M362 -13q-134 0 -217 75q-83 74 -83 217v385h87v-380q0 -103 56 -157q55 -54 157 -54q100 0 156 54t56 157v380h87v-385q0 -144 -82 -217q-83 -75 -217 -75zM305 -154v99h112v-99h-112z" />
    <glyph glyph-name="V.ss10" horiz-adv-x="662" 
d="M565 664h96l-330 -690l-330 690h96l234 -488z" />
    <glyph glyph-name="W.ss07" horiz-adv-x="958" 
d="M859 664h93l-273 -664h-114l-86 209l-86 -209h-114l-273 664h93l237 -575l96 234l-140 341h93l94 -228l94 228h93l-140 -341l96 -234z" />
    <glyph glyph-name="W.ss07.ss10" horiz-adv-x="944" 
d="M943 664l-330 -690l-141 295l-141 -295l-330 690h96l234 -491l93 196l-141 295h96l93 -195l93 195h96l-141 -295l93 -196l234 491h96z" />
    <glyph glyph-name="W.ss10" horiz-adv-x="960" 
d="M955 664l-276 -690l-199 484l-199 -484l-276 690h93l185 -463l197 489l196 -489l185 463h94z" />
    <glyph glyph-name="Wacute.ss07" horiz-adv-x="958" 
d="M618 846l-97 -135h-85l79 135h103zM859 664h93l-273 -664h-114l-86 209l-86 -209h-114l-273 664h93l237 -575l96 234l-140 341h93l94 -228l94 228h93l-140 -341l96 -234z" />
    <glyph glyph-name="Wacute.ss07.ss10" horiz-adv-x="944" 
d="M611 846l-97 -135h-85l79 135h103zM943 664l-330 -690l-141 295l-141 -295l-330 690h96l234 -491l93 196l-141 295h96l93 -195l93 195h96l-141 -295l93 -196l234 491h96z" />
    <glyph glyph-name="Wacute.ss10" horiz-adv-x="960" 
d="M619 846l-97 -135h-85l79 135h103zM955 664l-276 -690l-199 484l-199 -484l-276 690h93l185 -463l197 489l196 -489l185 463h94z" />
    <glyph glyph-name="Wcircumflex.ss07" horiz-adv-x="958" 
d="M478 791l-47 -80h-103l97 135h106l97 -135h-103zM859 664h93l-273 -664h-114l-86 209l-86 -209h-114l-273 664h93l237 -575l96 234l-140 341h93l94 -228l94 228h93l-140 -341l96 -234z" />
    <glyph glyph-name="Wcircumflex.ss07.ss10" horiz-adv-x="944" 
d="M471 791l-47 -80h-103l97 135h106l97 -135h-103zM943 664l-330 -690l-141 295l-141 -295l-330 690h96l234 -491l93 196l-141 295h96l93 -195l93 195h96l-141 -295l93 -196l234 491h96z" />
    <glyph glyph-name="Wcircumflex.ss10" horiz-adv-x="960" 
d="M479 791l-47 -80h-103l97 135h106l97 -135h-103zM955 664l-276 -690l-199 484l-199 -484l-276 690h93l185 -463l197 489l196 -489l185 463h94z" />
    <glyph glyph-name="Wdieresis.ss07" horiz-adv-x="958" 
d="M379 703q-27 0 -46 16t-19 40q0 23 20 40q19 16 45 16q27 0 46 -16t19 -40t-19 -40t-46 -16zM549 703q-27 0 -46 16t-19 40q0 23 20 40q19 16 45 16q27 0 46 -16t19 -40t-19 -40t-46 -16zM859 664h93l-273 -664h-114l-86 209l-86 -209h-114l-273 664h93l237 -575l96 234
l-140 341h93l94 -228l94 228h93l-140 -341l96 -234z" />
    <glyph glyph-name="Wdieresis.ss07.ss10" horiz-adv-x="944" 
d="M372 703q-27 0 -46 16t-19 40q0 23 20 40q19 16 45 16q27 0 46 -16t19 -40t-19 -40t-46 -16zM542 703q-27 0 -46 16t-19 40q0 23 20 40q19 16 45 16q27 0 46 -16t19 -40t-19 -40t-46 -16zM943 664l-330 -690l-141 295l-141 -295l-330 690h96l234 -491l93 196l-141 295h96
l93 -195l93 195h96l-141 -295l93 -196l234 491h96z" />
    <glyph glyph-name="Wdieresis.ss07.ss10.ss20" horiz-adv-x="944" 
d="M448 810v-99h-112v99h112zM608 810v-99h-112v99h112zM943 664l-330 -690l-141 295l-141 -295l-330 690h96l234 -491l93 196l-141 295h96l93 -195l93 195h96l-141 -295l93 -196l234 491h96z" />
    <glyph glyph-name="Wdieresis.ss07.ss20" horiz-adv-x="958" 
d="M455 810v-99h-112v99h112zM615 810v-99h-112v99h112zM859 664h93l-273 -664h-114l-86 209l-86 -209h-114l-273 664h93l237 -575l96 234l-140 341h93l94 -228l94 228h93l-140 -341l96 -234z" />
    <glyph glyph-name="Wdieresis.ss10" horiz-adv-x="960" 
d="M380 703q-27 0 -46 16t-19 40q0 23 20 40q19 16 45 16q27 0 46 -16t19 -40t-19 -40t-46 -16zM550 703q-27 0 -46 16t-19 40q0 23 20 40q19 16 45 16q27 0 46 -16t19 -40t-19 -40t-46 -16zM955 664l-276 -690l-199 484l-199 -484l-276 690h93l185 -463l197 489l196 -489
l185 463h94z" />
    <glyph glyph-name="Wdieresis.ss10.ss20" horiz-adv-x="960" 
d="M456 810v-99h-112v99h112zM616 810v-99h-112v99h112zM955 664l-276 -690l-199 484l-199 -484l-276 690h93l185 -463l197 489l196 -489l185 463h94z" />
    <glyph glyph-name="Wdieresis.ss20" horiz-adv-x="966" 
d="M459 810v-99h-112v99h112zM619 810v-99h-112v99h112zM868 664h90l-201 -664h-109l-165 556l-166 -556h-109l-200 664h91l164 -549l164 549h111l165 -549z" />
    <glyph glyph-name="Wgrave.ss07" horiz-adv-x="958" 
d="M521 711h-85l-97 135h103zM859 664h93l-273 -664h-114l-86 209l-86 -209h-114l-273 664h93l237 -575l96 234l-140 341h93l94 -228l94 228h93l-140 -341l96 -234z" />
    <glyph glyph-name="Wgrave.ss07.ss10" horiz-adv-x="944" 
d="M514 711h-85l-97 135h103zM943 664l-330 -690l-141 295l-141 -295l-330 690h96l234 -491l93 196l-141 295h96l93 -195l93 195h96l-141 -295l93 -196l234 491h96z" />
    <glyph glyph-name="Wgrave.ss10" horiz-adv-x="960" 
d="M522 711h-85l-97 135h103zM955 664l-276 -690l-199 484l-199 -484l-276 690h93l185 -463l197 489l196 -489l185 463h94z" />
    <glyph glyph-name="uni1E8A.ss20" horiz-adv-x="629" 
d="M371 810v-99h-112v99h112zM638 0h-108l-215 281l-216 -281h-108l269 352l-238 312h107l186 -240l185 240h107l-237 -312z" />
    <glyph glyph-name="Y.ss03" horiz-adv-x="718" 
d="M569 664h87v-385q0 -144 -82 -217q-83 -75 -217 -75q-83 0 -155 39q-72 38 -110 110l67 65q26 -63 80 -95q54 -33 118 -33q101 0 156 54q56 54 56 157v58q-81 -108 -241 -108q-55 0 -108 17q-51 17 -94 49q-42 30 -68 89q-25 54 -25 129q0 86 37 161l82 -24
q-30 -59 -30 -128q0 -101 61 -153q61 -54 162 -54t163 53q61 52 61 155v136z" />
    <glyph glyph-name="Yacute.ss03" horiz-adv-x="718" 
d="M501 846l-97 -135h-85l79 135h103zM569 664h87v-385q0 -144 -82 -217q-83 -75 -217 -75q-83 0 -155 39q-72 38 -110 110l67 65q26 -63 80 -95q54 -33 118 -33q101 0 156 54q56 54 56 157v58q-81 -108 -241 -108q-55 0 -108 17q-51 17 -94 49q-42 30 -68 89
q-25 54 -25 129q0 86 37 161l82 -24q-30 -59 -30 -128q0 -101 61 -153q61 -54 162 -54t163 53q61 52 61 155v136z" />
    <glyph glyph-name="Ycircumflex.ss03" horiz-adv-x="718" 
d="M361 791l-47 -80h-103l97 135h106l97 -135h-103zM569 664h87v-385q0 -144 -82 -217q-83 -75 -217 -75q-83 0 -155 39q-72 38 -110 110l67 65q26 -63 80 -95q54 -33 118 -33q101 0 156 54q56 54 56 157v58q-81 -108 -241 -108q-55 0 -108 17q-51 17 -94 49q-42 30 -68 89
q-25 54 -25 129q0 86 37 161l82 -24q-30 -59 -30 -128q0 -101 61 -153q61 -54 162 -54t163 53q61 52 61 155v136z" />
    <glyph glyph-name="Ydieresis.ss03" horiz-adv-x="718" 
d="M262 703q-27 0 -46 16t-19 40q0 23 20 40q19 16 45 16q27 0 46 -16t19 -40t-19 -40t-46 -16zM432 703q-27 0 -46 16t-19 40q0 23 20 40q19 16 45 16q27 0 46 -16t19 -40t-19 -40t-46 -16zM569 664h87v-385q0 -144 -82 -217q-83 -75 -217 -75q-83 0 -155 39
q-72 38 -110 110l67 65q26 -63 80 -95q54 -33 118 -33q101 0 156 54q56 54 56 157v58q-81 -108 -241 -108q-55 0 -108 17q-51 17 -94 49q-42 30 -68 89q-25 54 -25 129q0 86 37 161l82 -24q-30 -59 -30 -128q0 -101 61 -153q61 -54 162 -54t163 53q61 52 61 155v136z" />
    <glyph glyph-name="Ydieresis.ss03.ss20" horiz-adv-x="718" 
d="M338 810v-99h-112v99h112zM498 810v-99h-112v99h112zM569 664h87v-385q0 -144 -82 -217q-83 -75 -217 -75q-83 0 -155 39q-72 38 -110 110l67 65q26 -63 80 -95q54 -33 118 -33q101 0 156 54q56 54 56 157v58q-81 -108 -241 -108q-55 0 -108 17q-51 17 -94 49
q-42 30 -68 89q-25 54 -25 129q0 86 37 161l82 -24q-30 -59 -30 -128q0 -101 61 -153q61 -54 162 -54t163 53q61 52 61 155v136z" />
    <glyph glyph-name="Ydieresis.ss20" horiz-adv-x="700" 
d="M326 810v-99h-112v99h112zM486 810v-99h-112v99h112zM690 664l-296 -424v-240h-87v239l-297 425h105l235 -338l235 338h105z" />
    <glyph glyph-name="Ygrave.ss03" horiz-adv-x="718" 
d="M404 711h-85l-97 135h103zM569 664h87v-385q0 -144 -82 -217q-83 -75 -217 -75q-83 0 -155 39q-72 38 -110 110l67 65q26 -63 80 -95q54 -33 118 -33q101 0 156 54q56 54 56 157v58q-81 -108 -241 -108q-55 0 -108 17q-51 17 -94 49q-42 30 -68 89q-25 54 -25 129
q0 86 37 161l82 -24q-30 -59 -30 -128q0 -101 61 -153q61 -54 162 -54t163 53q61 52 61 155v136z" />
    <glyph glyph-name="uni0232.ss03" horiz-adv-x="718" 
d="M488 783v-72h-252v72h252zM569 664h87v-385q0 -144 -82 -217q-83 -75 -217 -75q-83 0 -155 39q-72 38 -110 110l67 65q26 -63 80 -95q54 -33 118 -33q101 0 156 54q56 54 56 157v58q-81 -108 -241 -108q-55 0 -108 17q-51 17 -94 49q-42 30 -68 89q-25 54 -25 129
q0 86 37 161l82 -24q-30 -59 -30 -128q0 -101 61 -153q61 -54 162 -54t163 53q61 52 61 155v136z" />
    <glyph glyph-name="uni1EF8.ss03" horiz-adv-x="718" 
d="M308 777q-7 2 -9 1q-5 -2 -6 -9q-2 -6 -4 -21q-1 -9 -1 -37h-87q0 63 29 103q29 38 68 38q34 0 75 -34q40 -34 44 -36q14 -6 18 16q2 18 2 48h87q0 -65 -28 -102q-29 -38 -69 -38q-33 0 -74 35q-42 35 -45 36zM569 664h87v-385q0 -144 -82 -217q-83 -75 -217 -75
q-83 0 -155 39q-72 38 -110 110l67 65q26 -63 80 -95q54 -33 118 -33q101 0 156 54q56 54 56 157v58q-81 -108 -241 -108q-55 0 -108 17q-51 17 -94 49q-42 30 -68 89q-25 54 -25 129q0 86 37 161l82 -24q-30 -59 -30 -128q0 -101 61 -153q61 -54 162 -54t163 53
q61 52 61 155v136z" />
    <glyph glyph-name="Z.ss10" horiz-adv-x="575" 
d="M568 664l-397 -578h368v-86h-530l397 578h-374v86h536z" />
    <glyph glyph-name="Zacute.ss10" horiz-adv-x="575" 
d="M428 846l-97 -135h-85l79 135h103zM568 664l-397 -578h368v-86h-530l397 578h-374v86h536z" />
    <glyph glyph-name="Zcaron.ss10" horiz-adv-x="575" 
d="M341 711h-106l-97 135h103l47 -80l47 80h103zM568 664l-397 -578h368v-86h-530l397 578h-374v86h536z" />
    <glyph glyph-name="Zdotaccent.ss10" horiz-adv-x="575" 
d="M289 703q-27 0 -46 16t-19 40q0 23 20 40q19 16 45 16q27 0 46 -16t19 -40t-19 -40t-46 -16zM568 664l-397 -578h368v-86h-530l397 578h-374v86h536z" />
    <glyph glyph-name="Zdotaccent.ss10.ss20" horiz-adv-x="575" 
d="M345 810v-99h-112v99h112zM568 664l-397 -578h368v-86h-530l397 578h-374v86h536z" />
    <glyph glyph-name="Zdotaccent.ss20" horiz-adv-x="587" 
d="M350 810v-99h-112v99h112zM554 664v-86l-409 -494l401 2v-86h-513v84l410 494h-404v86h515z" />
    <glyph glyph-name="adieresis.ss20" horiz-adv-x="619" 
d="M265 628v-99h-112v99h112zM425 628v-99h-112v99h112zM474 474h85v-474h-85v71q-36 -42 -88 -63t-107 -21q-46 0 -87 16q-41 14 -79 44q-35 27 -59 79q-23 51 -23 111q0 81 39 140q38 59 93 84q55 26 116 26q53 0 106 -21q51 -20 89 -63v71zM296 71q80 0 129 46
q49 45 49 120t-49 121q-49 45 -129 45q-78 0 -128 -45q-50 -47 -50 -121q0 -75 50 -120q49 -46 128 -46z" />
    <glyph glyph-name="uni1EA1.ss20" horiz-adv-x="619" 
d="M474 474h85v-474h-85v71q-36 -42 -88 -63t-107 -21q-46 0 -87 16q-41 14 -79 44q-35 27 -59 79q-23 51 -23 111q0 81 39 140q38 59 93 84q55 26 116 26q53 0 106 -21q51 -20 89 -63v71zM296 71q80 0 129 46q49 45 49 120t-49 121q-49 45 -129 45q-78 0 -128 -45
q-50 -47 -50 -121q0 -75 50 -120q49 -46 128 -46zM223 -154v99h112v-99h-112z" />
    <glyph glyph-name="cdotaccent.ss20" horiz-adv-x="546" 
d="M352 628v-99h-112v99h112zM296 -13q-67 0 -124 25q-58 26 -99 84q-42 58 -42 141q0 121 80 186q79 64 185 64q63 0 124 -26q57 -25 96 -76l-64 -61q-24 40 -66 59q-45 20 -90 20q-72 0 -124 -42q-54 -43 -54 -124t54 -123q53 -43 124 -43q50 0 93 21t66 63l71 -49
q-34 -57 -98 -88q-62 -31 -132 -31z" />
    <glyph glyph-name="dcaron.ss20" horiz-adv-x="806" 
d="M474 403v261h85v-664h-85v71q-36 -42 -88 -63t-107 -21q-46 0 -87 16q-41 14 -79 44q-35 27 -59 79q-23 51 -23 111q0 81 39 140q38 59 93 84q55 26 116 26q53 0 106 -21q51 -20 89 -63zM674 664h120l-90 -184h-30v184zM296 71q80 0 129 46q49 45 49 120t-49 121
q-49 45 -129 45q-78 0 -128 -45q-50 -47 -50 -121q0 -75 50 -120q49 -46 128 -46z" />
    <glyph glyph-name="edieresis.ss20" horiz-adv-x="591" 
d="M272 628v-99h-112v99h112zM432 628v-99h-112v99h112zM296 487q128 0 201 -79q73 -78 62 -206h-438q12 -65 63 -98q50 -34 112 -34q49 0 92 22q44 21 67 62l71 -49q-34 -57 -98 -88q-63 -30 -132 -30q-67 0 -124 25q-58 26 -99 84q-42 58 -42 141q0 121 80 186
q79 64 185 64zM296 404q-57 0 -107 -30q-49 -31 -65 -89h344q-16 58 -65 89q-49 30 -107 30z" />
    <glyph glyph-name="edotaccent.ss20" horiz-adv-x="591" 
d="M352 628v-99h-112v99h112zM296 487q128 0 201 -79q73 -78 62 -206h-438q12 -65 63 -98q50 -34 112 -34q49 0 92 22q44 21 67 62l71 -49q-34 -57 -98 -88q-63 -30 -132 -30q-67 0 -124 25q-58 26 -99 84q-42 58 -42 141q0 121 80 186q79 64 185 64zM296 404
q-57 0 -107 -30q-49 -31 -65 -89h344q-16 58 -65 89q-49 30 -107 30z" />
    <glyph glyph-name="uni1EB9.ss20" horiz-adv-x="591" 
d="M296 487q128 0 201 -79q73 -78 62 -206h-438q12 -65 63 -98q50 -34 112 -34q49 0 92 22q44 21 67 62l71 -49q-34 -57 -98 -88q-63 -30 -132 -30q-67 0 -124 25q-58 26 -99 84q-42 58 -42 141q0 121 80 186q79 64 185 64zM296 404q-57 0 -107 -30q-49 -31 -65 -89h344
q-16 58 -65 89q-49 30 -107 30zM240 -154v99h112v-99h-112z" />
    <glyph glyph-name="f.ss16" horiz-adv-x="431" 
d="M175 534q0 -23 23 -41q22 -19 36 -19h161v-84h-161v-390h-85v390h-121v84h121q-16 0 -37 26q-22 25 -22 58q0 48 48 85q47 36 113 36q46 0 86 -23q38 -23 58 -62l-73 -45q-8 20 -26 33q-19 13 -45 13q-34 0 -54 -16q-22 -16 -22 -45z" />
    <glyph glyph-name="f.ss18" horiz-adv-x="431" 
d="M311 595q-43 0 -60 -18q-17 -19 -17 -56v-47h161v-84h-161v-390h-85v390h-121v84h121v47q0 83 46 120q46 38 115 38q46 0 85 -15v-85q-33 16 -84 16z" />
    <glyph glyph-name="gcommaaccent.ss20" horiz-adv-x="612" 
d="M327 713v-184h-120l90 184h30zM474 474h85v-448q0 -113 -77 -169q-78 -57 -199 -57q-84 0 -147 29q-62 29 -85 79l70 55q20 -80 168 -80q85 0 135 36q50 35 50 107v45q-36 -42 -88 -63t-107 -21q-46 0 -87 16q-41 14 -79 44q-35 27 -59 79q-23 51 -23 111q0 81 39 140
q38 59 93 84q55 26 116 26q53 0 106 -21q51 -20 89 -63v71zM296 71q80 0 129 46q49 45 49 120t-49 121q-49 45 -129 45q-78 0 -128 -45q-50 -47 -50 -121q0 -75 50 -120q49 -46 128 -46z" />
    <glyph glyph-name="gdotaccent.ss20" horiz-adv-x="619" 
d="M335 628v-99h-112v99h112zM474 474h85v-448q0 -113 -77 -169q-78 -57 -199 -57q-84 0 -147 29q-62 29 -85 79l70 55q20 -80 168 -80q85 0 135 36q50 35 50 107v45q-36 -42 -88 -63t-107 -21q-46 0 -87 16q-41 14 -79 44q-35 27 -59 79q-23 51 -23 111q0 81 39 140
q38 59 93 84q55 26 116 26q53 0 106 -21q51 -20 89 -63v71zM296 71q80 0 129 46q49 45 49 120t-49 121q-49 45 -129 45q-78 0 -128 -45q-50 -47 -50 -121q0 -75 50 -120q49 -46 128 -46z" />
    <glyph glyph-name="i.ss04" horiz-adv-x="502" 
d="M265 521q-27 0 -46 16t-19 40q0 23 20 40q19 16 45 16q27 0 46 -16t19 -40t-19 -40t-46 -16zM307 84h189v-84h-464v84h190v306h-190v84h275v-390z" />
    <glyph glyph-name="i.ss04.ss20" horiz-adv-x="502" 
d="M321 628v-99h-112v99h112zM307 84h189v-84h-464v84h190v306h-190v84h275v-390z" />
    <glyph glyph-name="i.ss20" horiz-adv-x="205" 
d="M159 628v-99h-112v99h112zM60 0v474h85v-474h-85z" />
    <glyph glyph-name="dotlessi.ss04" horiz-adv-x="502" 
d="M307 84h189v-84h-464v84h190v306h-190v84h275v-390z" />
    <glyph glyph-name="iacute.ss04" horiz-adv-x="502" 
d="M404 664l-97 -135h-85l79 135h103zM307 84h189v-84h-464v84h190v306h-190v84h275v-390z" />
    <glyph glyph-name="ibreve.ss04" horiz-adv-x="502" 
d="M266 524q-62 0 -106 41q-45 41 -45 99h96q0 -33 17 -56t38 -23q22 0 39 23q16 22 16 56h96q0 -58 -45 -99q-46 -41 -106 -41zM307 84h189v-84h-464v84h190v306h-190v84h275v-390z" />
    <glyph glyph-name="uni01D0.ss04" horiz-adv-x="502" 
d="M316 529h-106l-97 135h103l47 -80l47 80h103zM307 84h189v-84h-464v84h190v306h-190v84h275v-390z" />
    <glyph glyph-name="icircumflex.ss04" horiz-adv-x="502" 
d="M264 609l-47 -80h-103l97 135h106l97 -135h-103zM307 84h189v-84h-464v84h190v306h-190v84h275v-390z" />
    <glyph glyph-name="idieresis.ss04" horiz-adv-x="502" 
d="M180 521q-27 0 -46 16t-19 40q0 23 20 40q19 16 45 16q27 0 46 -16t19 -40t-19 -40t-46 -16zM350 521q-27 0 -46 16t-19 40q0 23 20 40q19 16 45 16q27 0 46 -16t19 -40t-19 -40t-46 -16zM307 84h189v-84h-464v84h190v306h-190v84h275v-390z" />
    <glyph glyph-name="idieresis.ss04.ss20" horiz-adv-x="502" 
d="M241 628v-99h-112v99h112zM401 628v-99h-112v99h112zM307 84h189v-84h-464v84h190v306h-190v84h275v-390z" />
    <glyph glyph-name="idieresis.ss20" horiz-adv-x="205" 
d="M-33 529v99h112v-99h-112zM127 529v99h112v-99h-112zM60 0v474h85v-474h-85z" />
    <glyph glyph-name="i.loclTRK" horiz-adv-x="205" 
d="M103 521q-27 0 -46 16t-19 40q0 23 20 40q19 16 45 16q27 0 46 -16t19 -40t-19 -40t-46 -16zM60 0v474h85v-474h-85z" />
    <glyph glyph-name="i.loclTRK.ss04" horiz-adv-x="502" 
d="M265 521q-27 0 -46 16t-19 40q0 23 20 40q19 16 45 16q27 0 46 -16t19 -40t-19 -40t-46 -16zM307 84h189v-84h-464v84h190v306h-190v84h275v-390z" />
    <glyph glyph-name="i.loclTRK.ss04.ss20" horiz-adv-x="502" 
d="M321 628v-99h-112v99h112zM307 84h189v-84h-464v84h190v306h-190v84h275v-390z" />
    <glyph glyph-name="i.loclTRK.ss20" horiz-adv-x="205" 
d="M159 628v-99h-112v99h112zM60 0v474h85v-474h-85z" />
    <glyph glyph-name="uni1ECB.ss04" horiz-adv-x="502" 
d="M265 521q-27 0 -46 16t-19 40q0 23 20 40q19 16 45 16q27 0 46 -16t19 -40t-19 -40t-46 -16zM307 84h189v-84h-464v84h190v306h-190v84h275v-390zM266 -47q27 0 46 -16t19 -40t-19 -40t-46 -16t-46 16t-19 40q0 23 20 40q19 16 45 16z" />
    <glyph glyph-name="uni1ECB.ss04.ss20" horiz-adv-x="502" 
d="M321 628v-99h-112v99h112zM307 84h189v-84h-464v84h190v306h-190v84h275v-390zM209 -154v99h112v-99h-112z" />
    <glyph glyph-name="uni1ECB.ss20" horiz-adv-x="205" 
d="M159 628v-99h-112v99h112zM60 0v474h85v-474h-85zM47 -154v99h112v-99h-112z" />
    <glyph glyph-name="igrave.ss04" horiz-adv-x="502" 
d="M307 529h-85l-97 135h103zM307 84h189v-84h-464v84h190v306h-190v84h275v-390z" />
    <glyph glyph-name="ij.ss18" horiz-adv-x="410" 
d="M103 521q-27 0 -46 16t-19 40q0 23 20 40q19 16 45 16q27 0 46 -16t19 -40t-19 -40t-46 -16zM308 521q-27 0 -46 16t-19 40q0 23 20 40q19 16 45 16q27 0 46 -16t19 -40t-19 -40t-46 -16zM60 0v474h85v-474h-85zM189 -200q-46 0 -85 15v85q33 -16 84 -16q44 0 60 18
q17 19 17 56v516h85v-516q0 -82 -45 -120q-47 -38 -116 -38z" />
    <glyph glyph-name="ij.ss18.ss20" horiz-adv-x="410" 
d="M159 628v-99h-112v99h112zM364 628v-99h-112v99h112zM60 0v474h85v-474h-85zM189 -200q-46 0 -85 15v85q33 -16 84 -16q44 0 60 18q17 19 17 56v516h85v-516q0 -82 -45 -120q-47 -38 -116 -38z" />
    <glyph glyph-name="ij.ss20" horiz-adv-x="410" 
d="M159 628v-99h-112v99h112zM364 628v-99h-112v99h112zM60 0v474h85v-474h-85zM189 -200q-4 0 -26 2l26 82q76 0 76 78v512h85v-522q0 -70 -46 -110q-46 -42 -115 -42z" />
    <glyph glyph-name="imacron.ss04" horiz-adv-x="502" 
d="M391 601v-72h-252v72h252zM307 84h189v-84h-464v84h190v306h-190v84h275v-390z" />
    <glyph glyph-name="iogonek.ss04" horiz-adv-x="502" 
d="M265 521q-27 0 -46 16t-19 40q0 23 20 40q19 16 45 16q27 0 46 -16t19 -40t-19 -40t-46 -16zM383 -87q0 -50 120 -50l-14 -42q-116 0 -168 16q-55 16 -55 56q0 33 37 61q35 28 91 46h-362v84h190v306h-190v84h275v-390h189v-84q-43 -8 -77 -34q-36 -28 -36 -53z" />
    <glyph glyph-name="iogonek.ss04.ss20" horiz-adv-x="502" 
d="M321 628v-99h-112v99h112zM383 -87q0 -50 120 -50l-14 -42q-116 0 -168 16q-55 16 -55 56q0 33 37 61q35 28 91 46h-362v84h190v306h-190v84h275v-390h189v-84q-43 -8 -77 -34q-36 -28 -36 -53z" />
    <glyph glyph-name="iogonek.ss20" horiz-adv-x="205" 
d="M47 628h112v-99h-112v99zM60 5v469h85v-474q-43 -8 -77 -34q-36 -28 -36 -53q0 -50 113 -50l-14 -42q-111 0 -162 16q-54 17 -54 56q0 35 43 65q43 29 102 47z" />
    <glyph glyph-name="itilde.ss04" horiz-adv-x="502" 
d="M211 595q-7 2 -9 1q-4 -2 -6 -9q-2 -6 -4 -21q-1 -9 -1 -37h-87q0 63 29 103q29 38 68 38q34 0 75 -34q40 -34 44 -36q14 -6 18 16q2 18 2 48h87q0 -65 -28 -102q-29 -38 -69 -38q-33 0 -74 35q-42 35 -45 36zM307 84h189v-84h-464v84h190v306h-190v84h275v-390z" />
    <glyph glyph-name="j.alt" horiz-adv-x="205" 
d="M103 521q-27 0 -46 16t-19 40q0 23 20 40q19 16 45 16q27 0 46 -16t19 -40t-19 -40t-46 -16zM-16 -200q-4 0 -26 2l26 82q76 0 76 78v512h85v-522q0 -70 -46 -110q-46 -42 -115 -42z" />
    <glyph glyph-name="j.alt.ss20" horiz-adv-x="205" 
d="M159 628v-99h-112v99h112zM-16 -200q-4 0 -26 2l26 82q76 0 76 78v512h85v-522q0 -70 -46 -110q-46 -42 -115 -42z" />
    <glyph glyph-name="j.ss18" horiz-adv-x="205" 
d="M103 521q-27 0 -46 16t-19 40q0 23 20 40q19 16 45 16q27 0 46 -16t19 -40t-19 -40t-46 -16zM-16 -200q-46 0 -85 15v85q33 -16 84 -16q43 0 60 18q17 19 17 56v516h85v-516q0 -82 -45 -120q-47 -38 -116 -38z" />
    <glyph glyph-name="j.ss18.ss20" horiz-adv-x="205" 
d="M159 628v-99h-112v99h112zM-16 -200q-46 0 -85 15v85q33 -16 84 -16q43 0 60 18q17 19 17 56v516h85v-516q0 -82 -45 -120q-47 -38 -116 -38z" />
    <glyph glyph-name="j.ss20" horiz-adv-x="205" 
d="M159 628v-99h-112v99h112zM-16 -200q-47 0 -86 24q-38 22 -58 61l73 45q7 -20 27 -33q19 -13 44 -13q76 0 76 78v512h85v-522q0 -70 -46 -110q-46 -42 -115 -42z" />
    <glyph glyph-name="uni0237.alt" horiz-adv-x="205" 
d="M-16 -200q-4 0 -26 2l26 82q76 0 76 78v512h85v-522q0 -70 -46 -110q-46 -42 -115 -42z" />
    <glyph glyph-name="uni0237.ss18" horiz-adv-x="205" 
d="M-16 -200q-46 0 -85 15v85q33 -16 84 -16q43 0 60 18q17 19 17 56v516h85v-516q0 -82 -45 -120q-47 -38 -116 -38z" />
    <glyph glyph-name="uni006A0301" horiz-adv-x="205" 
d="M60 529l79 135h103l-97 -135h-85zM-16 -200q-47 0 -86 24q-38 22 -58 61l73 45q7 -20 27 -33q19 -13 44 -13q76 0 76 78v512h85v-522q0 -70 -46 -110q-46 -42 -115 -42z" />
    <glyph glyph-name="uni006A0301.alt" horiz-adv-x="205" 
d="M60 529l79 135h103l-97 -135h-85zM-16 -200q-4 0 -26 2l26 82q76 0 76 78v512h85v-522q0 -70 -46 -110q-46 -42 -115 -42z" />
    <glyph glyph-name="uni006A0301.ss18" horiz-adv-x="205" 
d="M60 529l79 135h103l-97 -135h-85zM-16 -200q-46 0 -85 15v85q33 -16 84 -16q43 0 60 18q17 19 17 56v516h85v-516q0 -82 -45 -120q-47 -38 -116 -38z" />
    <glyph glyph-name="jcircumflex.alt" horiz-adv-x="205" 
d="M155 664l97 -135h-103l-47 80l-47 -80h-103l97 135h106zM60 -38v512h85v-522q0 -70 -46 -110q-46 -42 -115 -42q-4 0 -26 2l26 82q76 0 76 78z" />
    <glyph glyph-name="jcircumflex.ss18" horiz-adv-x="205" 
d="M155 664l97 -135h-103l-47 80l-47 -80h-103l97 135h106zM60 -42v516h85v-516q0 -82 -45 -120q-47 -38 -116 -38q-46 0 -85 15v85q33 -16 84 -16q43 0 60 18q17 19 17 56z" />
    <glyph glyph-name="kcommaaccent.ss20" horiz-adv-x="566" 
d="M335 281l236 -281h-109l-191 227l-126 -107v-120h-85v664h85v-435l290 245h129zM251 -239v184h120l-90 -184h-30z" />
    <glyph glyph-name="l.ss09" horiz-adv-x="354" 
d="M215 -13q-69 0 -115 42q-46 40 -46 110v525h85v-515q0 -78 76 -78q26 0 45 13q18 13 26 33l73 -45q-20 -39 -58 -61q-39 -24 -86 -24z" />
    <glyph glyph-name="lacute.ss09" horiz-adv-x="354" 
d="M54 711l79 135h103l-97 -135h-85zM215 -13q-69 0 -115 42q-46 40 -46 110v525h85v-515q0 -78 76 -78q26 0 45 13q18 13 26 33l73 -45q-20 -39 -58 -61q-39 -24 -86 -24z" />
    <glyph glyph-name="lcaron.ss09" horiz-adv-x="434" 
d="M273 483v42q55 0 76 36q-25 -6 -51 11t-26 44q0 23 20 40q19 16 45 16q27 0 46 -18q19 -19 18 -50q-2 -57 -35 -88q-34 -33 -93 -33zM215 -13q-69 0 -115 42q-46 40 -46 110v525h85v-515q0 -78 76 -78q26 0 45 13q18 13 26 33l73 -45q-20 -39 -58 -61q-39 -24 -86 -24z
" />
    <glyph glyph-name="lcaron.ss09.ss20" horiz-adv-x="404" 
d="M215 -13q-69 0 -115 42q-46 40 -46 110v525h85v-515q0 -78 76 -78q26 0 45 13q18 13 26 33l73 -45q-20 -39 -58 -61q-39 -24 -86 -24zM272 480v184h120l-90 -184h-30z" />
    <glyph glyph-name="lcaron.ss20" horiz-adv-x="392" 
d="M60 0v664h85v-664h-85zM260 480v184h120l-90 -184h-30z" />
    <glyph glyph-name="lcommaaccent.ss09" horiz-adv-x="354" 
d="M215 -13q-69 0 -115 42q-46 40 -46 110v525h85v-515q0 -78 76 -78q26 0 45 13q18 13 26 33l73 -45q-20 -39 -58 -61q-39 -24 -86 -24zM152 -236v42q55 0 76 36q-25 -6 -51 11t-26 44q0 23 20 40q19 16 45 16t46 -18q19 -19 18 -50q-2 -57 -35 -88q-35 -33 -93 -33z" />
    <glyph glyph-name="lcommaaccent.ss09.ss20" horiz-adv-x="354" 
d="M215 -13q-69 0 -115 42q-46 40 -46 110v525h85v-515q0 -78 76 -78q26 0 45 13q18 13 26 33l73 -45q-20 -39 -58 -61q-39 -24 -86 -24zM160 -239v184h120l-90 -184h-30z" />
    <glyph glyph-name="lcommaaccent.ss20" horiz-adv-x="205" 
d="M60 0v664h85v-664h-85zM48 -239v184h120l-90 -184h-30z" />
    <glyph glyph-name="ldot.ss09" horiz-adv-x="354" 
d="M215 -13q-69 0 -115 42q-46 40 -46 110v525h85v-515q0 -78 76 -78q26 0 45 13q18 13 26 33l73 -45q-20 -39 -58 -61q-39 -24 -86 -24zM275 369q-27 0 -46 16t-19 40q0 23 20 40q19 16 45 16q27 0 46 -16t19 -40t-19 -40t-46 -16z" />
    <glyph glyph-name="ldot.ss09.ss20" horiz-adv-x="354" 
d="M215 -13q-69 0 -115 42q-46 40 -46 110v525h85v-515q0 -78 76 -78q26 0 45 13q18 13 26 33l73 -45q-20 -39 -58 -61q-39 -24 -86 -24zM219 374v99h112v-99h-112z" />
    <glyph glyph-name="ldot.ss20" horiz-adv-x="440" 
d="M60 0v664h85v-664h-85zM267 374v99h112v-99h-112z" />
    <glyph glyph-name="lslash.ss09" horiz-adv-x="354" 
d="M286 117l73 -45q-20 -39 -58 -61q-39 -24 -86 -24q-69 0 -115 42q-46 40 -46 110v93l-54 -34v99l54 34v333h85v-279l162 102v-99l-162 -102v-137q0 -78 76 -78q26 0 45 13q18 13 26 33z" />
    <glyph glyph-name="napostrophe.ss20" horiz-adv-x="770" 
d="M55 480v184h120l-90 -184h-30zM496 488q96 0 159 -54q62 -54 62 -158v-275l-85 -1v245q0 159 -151 159q-76 0 -132 -55q-57 -55 -57 -154v-195h-85v474h85v-86q36 50 90 75q53 25 114 25z" />
    </font>
</defs>
</svg>
