<?xml version="1.0" standalone="no"?>
<!DOCTYPE svg PUBLIC "-//W3C//DTD SVG 1.1//EN" "http://www.w3.org/Graphics/SVG/1.1/DTD/svg11.dtd" >
<svg xmlns="http://www.w3.org/2000/svg" xmlns:xlink="http://www.w3.org/1999/xlink" version="1.1">
<metadata>
Created by FontForge 20190801 at Thu Sep  5 00:00:00 2019
 By www-data
Copyright (c) 2019 by schoener. All rights reserved.
</metadata>
<defs>
<font id="ZoomProExtendedMedium" horiz-adv-x="1138" >
  <font-face 
    font-family="ZoomProExtendedMedium"
    font-weight="500"
    font-stretch="expanded"
    units-per-em="1000"
    panose-1="2 0 6 5 0 0 0 0 0 0"
    ascent="800"
    descent="-200"
    x-height="474"
    cap-height="664"
    bbox="-1013 -273 2587 930"
    underline-thickness="50"
    underline-position="-200"
    unicode-range="U+0020-1F5CE"
  />
<missing-glyph horiz-adv-x="820" 
d="M50 690h720v-716h-720v716zM685 638h-551l276 -274zM440 333l280 -280v560zM379 333l-279 279v-558zM134 26h551l-275 276z" />
    <glyph glyph-name="fi" unicode="fi" horiz-adv-x="782" 
d="M704 474v-474h-128v354h-243v-354h-128v354h-162v120h162v36q0 76 63 123q61 46 159 46q123 0 185 -72l-94 -83q-23 35 -91 35q-43 0 -68 -19q-26 -20 -26 -51v-15h371z" />
    <glyph glyph-name="fl" unicode="fl" horiz-adv-x="782" 
d="M576 664h128v-664h-128v354h-243v-354h-128v354h-162v120h162v31q0 81 70 127q70 47 179 47q67 0 122 -20v5zM333 474h243v33q-11 23 -42 38q-33 14 -77 14q-59 0 -90 -22q-32 -22 -34 -63z" />
    <glyph glyph-name="f_f" unicode="ff" horiz-adv-x="985" 
d="M704 474h234v-120h-234v-354h-128v354h-243v-354h-128v354h-162v120h162v31q0 81 70 127q70 47 179 47t180 -50q62 50 164 50q124 0 185 -72l-94 -83q-23 35 -91 35q-43 0 -68 -19q-26 -20 -26 -51v-15zM576 474v34q-32 51 -119 51q-59 0 -90 -22q-32 -22 -34 -63h243z
" />
    <glyph glyph-name="f_f_i" unicode="ffi" horiz-adv-x="1153" 
d="M1075 474v-474h-128v354h-243v-354h-128v354h-243v-354h-128v354h-162v120h162v31q0 81 70 127q70 47 179 47t180 -50q62 50 164 50q124 0 185 -72l-94 -83q-23 35 -91 35q-43 0 -68 -19q-26 -20 -26 -51v-15h371zM576 474v34q-32 51 -119 51q-59 0 -90 -22
q-32 -22 -34 -63h243z" />
    <glyph glyph-name="f_f_l" unicode="ffl" horiz-adv-x="1153" 
d="M947 664h128v-664h-128v354h-243v-354h-128v354h-243v-354h-128v354h-162v120h162v31q0 81 70 127q70 47 179 47q113 0 184 -53q70 53 187 53q67 0 122 -20v5zM576 474v31v3q-32 51 -119 51q-59 0 -90 -22q-32 -22 -34 -63h243zM947 474v33q-11 23 -42 38q-33 14 -77 14
q-59 0 -90 -22q-32 -22 -34 -63h243z" />
    <glyph glyph-name=".notdef" horiz-adv-x="820" 
d="M50 690h720v-716h-720v716zM685 638h-551l276 -274zM440 333l280 -280v560zM379 333l-279 279v-558zM134 26h551l-275 276z" />
    <glyph glyph-name=".null" horiz-adv-x="0" 
 />
    <glyph glyph-name="nonmarkingreturn" horiz-adv-x="333" 
 />
    <glyph glyph-name="space" unicode=" " horiz-adv-x="380" 
 />
    <glyph glyph-name="exclam" unicode="!" horiz-adv-x="326" 
d="M114 186l-33 478h164l-33 -478h-98zM163 -11q-43 0 -74 20q-30 19 -30 50q0 32 30 53t74 21q41 0 73 -21q30 -21 30 -53q0 -31 -30 -50q-32 -20 -73 -20z" />
    <glyph glyph-name="quotedbl" unicode="&#x22;" horiz-adv-x="550" 
d="M49 441v51q93 0 134 44q-45 -10 -90 9t-45 57q0 32 30 53t74 21q42 0 73 -23q30 -24 30 -66q0 -67 -56 -106q-55 -40 -150 -40zM296 441v51q93 0 134 44q-45 -10 -90 9t-45 57q0 32 30 53t74 21q42 0 73 -23q30 -24 30 -66q0 -67 -56 -106q-55 -40 -150 -40z" />
    <glyph glyph-name="numbersign" unicode="#" horiz-adv-x="858" 
d="M767 393h-144l-12 -122h143l-12 -122h-144l-16 -149h-131l16 149h-113l-16 -149h-131l16 149h-145l12 122h146l12 122h-145l13 122h145l16 149h131l-16 -149h113l16 149h131l-16 -149h144zM480 271l12 122h-113l-12 -122h113z" />
    <glyph glyph-name="dollar" unicode="$" horiz-adv-x="1061" 
d="M622 395q204 -23 294 -66q89 -44 89 -138q0 -204 -455 -204h-11l-26 -129h-133l28 137q-132 17 -219 60q-88 43 -115 110l122 59q26 -86 237 -108l35 172q-200 24 -284 67q-86 42 -86 133q0 68 58 111q55 42 153 62q96 18 230 18h8l19 92h133l-20 -100q124 -15 201 -58
q78 -44 101 -112l-123 -60q-11 91 -204 110zM235 486q0 -31 57 -46q53 -16 200 -31l30 147q-287 -3 -287 -70zM564 110q303 2 303 80q0 34 -55 50t-214 33z" />
    <glyph glyph-name="percent" unicode="%" horiz-adv-x="1305" 
d="M315 291q-115 0 -197 56q-82 55 -82 136q0 83 81 138q82 56 198 56q115 0 197 -56q81 -55 81 -138q0 -80 -81 -136q-82 -56 -197 -56zM406 0l380 664h113l-380 -664h-113zM315 400q67 0 111 25q44 26 44 58q0 34 -44 60q-44 25 -111 25t-110 -25q-45 -25 -45 -60
q0 -31 45 -57q46 -26 110 -26zM990 -13q-115 0 -197 56q-82 55 -82 136q0 83 81 138q82 56 198 56q115 0 197 -56q81 -55 81 -138q0 -80 -81 -136q-82 -56 -197 -56zM990 96q67 0 111 25q44 26 44 58q0 34 -44 60q-44 25 -111 25q-68 0 -111 -25q-44 -26 -44 -60
q0 -31 45 -57q46 -26 110 -26z" />
    <glyph glyph-name="ampersand" unicode="&#x26;" horiz-adv-x="1077" 
d="M1040 92v-118q-134 0 -320 82q-153 -67 -333 -67q-161 0 -255 49q-96 50 -96 132q0 126 228 202q-58 70 -58 125q0 82 95 132t239 50q136 0 212 -43q77 -44 77 -113q0 -38 -26 -70q-25 -32 -75 -58q-55 -28 -99 -43q-39 -14 -118 -37q97 -66 209 -121q118 64 220 175
l94 -87q-84 -87 -173 -147q98 -34 179 -43zM340 483q0 -25 52 -74q1 0 6 1.5t8 2.5q9 2 27.5 6.5t25.5 6.5q9 2 26 6t24 6q5 1 19.5 4.5t24.5 5.5q5 1 41 11q30 9 33 10q13 3 28 10q10 4 20 10q8 4 13 11q4 4 4 11q0 21 -49 33q-52 11 -119 11q-80 0 -132 -21t-52 -51z
M387 112q95 0 179 22q-124 73 -206 142q-91 -24 -139 -47t-48 -50q0 -29 58 -48q56 -19 156 -19z" />
    <glyph glyph-name="quotesingle" unicode="'" horiz-adv-x="303" 
d="M49 441v51q93 0 134 44q-45 -10 -90 9t-45 57q0 32 30 53t74 21q42 0 73 -23q30 -24 30 -66q0 -67 -56 -106q-55 -40 -150 -40z" />
    <glyph glyph-name="parenleft" unicode="(" horiz-adv-x="400" 
d="M295 -100q-249 168 -249 439q0 270 252 425l69 -104q-190 -115 -190 -321q0 -209 192 -337z" />
    <glyph glyph-name="parenright" unicode=")" horiz-adv-x="400" 
d="M105 -100l-74 102q193 127 193 337q0 206 -190 321l69 104q252 -155 252 -425q0 -133 -64 -245q-64 -111 -186 -194z" />
    <glyph glyph-name="asterisk" unicode="*" horiz-adv-x="628" 
d="M563 563l-149 -49l134 -183l-80 -59l-91 125l-134 -185l-79 60l89 123l-214 70l30 97l149 -48v227h98v-154l217 71z" />
    <glyph glyph-name="plus" unicode="+" horiz-adv-x="664" 
d="M593 322v-122h-198v-200h-125v200h-199v122h199v200h125v-200h198z" />
    <glyph glyph-name="comma" unicode="," horiz-adv-x="326" 
d="M60 -102v51q93 0 134 44q-45 -11 -90 9t-45 57q0 32 30 53t74 21q42 0 73 -23q30 -24 30 -66q0 -67 -56 -106q-55 -40 -150 -40z" />
    <glyph glyph-name="hyphen" unicode="-" horiz-adv-x="478" 
d="M71 199v123h336v-123h-336z" />
    <glyph glyph-name="period" unicode="." horiz-adv-x="326" 
d="M163 -11q-43 0 -74 20q-30 19 -30 50q0 32 30 53t74 21q41 0 73 -21q30 -21 30 -53q0 -31 -30 -50q-32 -20 -73 -20z" />
    <glyph glyph-name="slash" unicode="/" horiz-adv-x="437" 
d="M180 -142h-132l209 913h132z" />
    <glyph glyph-name="zero" unicode="0" horiz-adv-x="1147" 
d="M574 -13q-92 0 -186 23q-95 23 -169 64q-78 43 -124 110q-48 68 -48 149q0 79 47 147q46 67 122 110q77 42 169 66q95 23 189 23q130 0 249 -39q118 -39 197 -120q80 -82 80 -187q0 -81 -47 -149q-49 -69 -124 -110q-74 -41 -169 -64q-94 -23 -186 -23zM574 110
q95 0 182 23q84 22 146 75q60 52 60 125q0 71 -59 124q-59 52 -146 76q-87 23 -183 23q-97 0 -184 -23q-88 -25 -145 -76q-60 -53 -60 -124q0 -73 61 -125q60 -52 146 -75q87 -23 182 -23z" />
    <glyph glyph-name="one" unicode="1" horiz-adv-x="724" 
d="M501 664h131v-664h-131v418q-141 -156 -426 -198l-63 126q202 15 333 99q131 83 156 213v6z" />
    <glyph glyph-name="two" unicode="2" horiz-adv-x="1047" 
d="M998 438q0 -189 -490 -315h470v-123h-881l-24 123q215 43 372 90q158 45 245 85t130 75q41 35 41 65q0 50 -90 85q-91 33 -227 33q-145 0 -253 -48q-109 -49 -109 -109q0 -36 57 -75l-74 -99q-120 72 -120 174q0 79 69 144q68 65 183 101q116 35 247 35q188 0 321 -67
t133 -174z" />
    <glyph glyph-name="three" unicode="3" horiz-adv-x="1069" 
d="M814 350q106 -25 156 -67q48 -41 48 -98q0 -52 -39 -91q-40 -40 -106 -62q-72 -24 -150 -34q-86 -11 -176 -11q-83 0 -156 9q-69 7 -150 28q-76 20 -128 60q-54 42 -70 96l133 37q16 -51 116 -79q97 -28 255 -28q146 0 239 25q94 24 94 59q0 36 -112 63t-266 27h-122
l-35 118h94q167 0 279 25q114 24 114 59q0 31 -77 51q-75 19 -210 19q-148 0 -244 -26q-95 -27 -109 -74l-123 66q41 81 172 119q132 38 304 38q91 0 161 -10q74 -11 134 -31q61 -21 95 -58t34 -88q0 -97 -155 -142z" />
    <glyph glyph-name="four" unicode="4" horiz-adv-x="1084" 
d="M1056 227v-123h-257v-104h-131v104h-641v123q111 5 208 71q100 69 157 173q58 107 57 219l123 -64q-5 -122 -71 -224q-67 -104 -177 -175h344v255h131v-255h257z" />
    <glyph glyph-name="five" unicode="5" horiz-adv-x="1080" 
d="M583 466q202 0 323 -61t121 -168q0 -111 -136 -180q-136 -70 -352 -70q-145 0 -278 34q-136 33 -210 85l76 103q58 -42 175 -71q112 -28 237 -28q155 0 253 37q98 38 98 90q0 49 -87 83t-215 34q-257 0 -379 -107l-123 42l90 375h811v-123h-707l-36 -151q139 76 339 76z
" />
    <glyph glyph-name="six" unicode="6" horiz-adv-x="1076" 
d="M626 419q77 0 151 -11q72 -11 130 -33q60 -23 93 -59q34 -37 34 -86q0 -99 -134 -171q-135 -72 -331 -72q-141 0 -258 40q-118 40 -191 119t-73 181q0 103 74 186q74 81 190 123q117 42 252 42q255 0 408 -102l-79 -102q-122 81 -334 81q-150 0 -262 -62
q-111 -63 -111 -166q0 -23 4 -36q182 128 437 128zM572 110q134 0 230 33q95 33 95 78q0 40 -82 61q-83 21 -201 21q-232 0 -374 -96q50 -47 138 -72q87 -25 194 -25z" />
    <glyph glyph-name="seven" unicode="7" horiz-adv-x="1027" 
d="M21 664h985v-123q-85 0 -175 -17q-85 -17 -173 -59q-84 -41 -148 -102t-100 -155q-36 -96 -29 -208h-140q-1 183 87 321q87 138 241 220h-548v123z" />
    <glyph glyph-name="eight" unicode="8" horiz-adv-x="1095" 
d="M859 361q191 -59 191 -171q0 -59 -68 -106q-67 -46 -182 -72q-112 -25 -252 -25t-252 25q-116 26 -183 72q-68 47 -68 106q0 113 190 171q-138 51 -138 142q0 53 61 93q58 39 162 62q102 21 228 21t229 -21q104 -23 163 -62q60 -40 60 -93q0 -90 -141 -142zM548 556
q-141 0 -229 -17q-85 -18 -85 -53q0 -31 90 -49q88 -18 224 -18q135 0 225 18t90 49q0 35 -85 53q-88 17 -230 17zM548 110q157 0 260 25q105 25 105 66q0 45 -106 72q-109 26 -259 26t-259 -26q-107 -27 -107 -72q0 -41 106 -66q103 -25 260 -25z" />
    <glyph glyph-name="nine" unicode="9" horiz-adv-x="1079" 
d="M512 679q141 0 258 -40t191 -120q72 -79 72 -181q0 -107 -69 -188t-185 -122q-118 -41 -262 -41q-253 0 -407 102l105 88q115 -67 308 -67q165 0 269 60t104 168q0 21 -4 36q-179 -128 -443 -128q-107 0 -193 19q-88 18 -148 63q-61 43 -61 107q0 66 61 121q60 56 168 90
q106 33 236 33zM185 444q0 -40 82 -61t200 -21q233 0 374 96q-51 48 -137 73q-87 25 -195 25q-135 0 -229 -33q-95 -35 -95 -79z" />
    <glyph glyph-name="colon" unicode=":" horiz-adv-x="351" 
d="M176 341q-43 0 -74 20q-30 20 -30 50q0 32 30 53t74 21q42 0 73 -21q30 -21 30 -53q0 -30 -30 -50q-32 -20 -73 -20zM176 -11q-43 0 -74 20q-30 19 -30 50q0 32 30 53t74 21q42 0 73 -21q30 -21 30 -53q0 -31 -30 -50q-32 -20 -73 -20z" />
    <glyph glyph-name="semicolon" unicode=";" horiz-adv-x="351" 
d="M176 341q-43 0 -74 20q-30 20 -30 50q0 32 30 53t74 21q42 0 73 -21q30 -21 30 -53q0 -30 -30 -50q-32 -20 -73 -20zM73 -102v51q93 0 134 44q-45 -11 -90 9t-45 57q0 32 30 53t74 21q42 0 73 -23q30 -24 30 -66q0 -67 -56 -106q-55 -40 -150 -40z" />
    <glyph glyph-name="less" unicode="&#x3c;" horiz-adv-x="665" 
d="M587 -1l-555 262l555 261v-138l-268 -123l268 -123v-139z" />
    <glyph glyph-name="equal" unicode="=" horiz-adv-x="664" 
d="M71 297v124h522v-124h-522zM71 101v124h522v-124h-522z" />
    <glyph glyph-name="greater" unicode="&#x3e;" horiz-adv-x="665" 
d="M78 522l555 -262l-555 -261v138l268 123l-268 123v139z" />
    <glyph glyph-name="question" unicode="?" horiz-adv-x="610" 
d="M82 664q501 0 501 -181q0 -83 -95 -136q-98 -54 -268 -67l-7 -94h-98l-14 194q154 2 247 26q98 24 98 59t-96 58q-97 21 -257 18zM163 133q41 0 73 -21q30 -21 30 -53q0 -31 -30 -50q-32 -20 -73 -20q-43 0 -74 20q-30 19 -30 50q0 32 30 53t74 21z" />
    <glyph glyph-name="at" unicode="@" horiz-adv-x="1438" 
d="M719 679q122 0 243 -29q115 -28 216 -82q96 -52 155 -136q59 -83 59 -183q0 -64 -26 -124q-24 -56 -65 -95q-39 -36 -84 -58q-43 -21 -82 -21q-72 0 -106 37q-36 36 -42 89q-55 -43 -139 -66q-84 -24 -175 -24q-101 0 -187 27q-84 25 -141 85q-56 59 -56 138t54 137
q52 57 140 86q85 27 190 27q92 0 173 -22q83 -23 140 -66v75h127v-363q0 -101 54 -101q59 0 118 77q57 77 57 162q0 106 -82 192q-83 88 -225 137q-144 50 -316 50t-316 -50q-143 -50 -224 -137q-82 -88 -82 -193q0 -107 81 -194q78 -87 223 -137q144 -50 318 -50
q151 0 289 45l16 -48q-144 -48 -305 -48q-123 0 -238 28q-120 27 -216 79q-99 54 -158 137q-61 83 -61 188q0 99 59 184q60 84 156 136q101 54 216 82q121 29 242 29zM704 107q124 0 203 36t79 94q0 57 -78 94q-80 36 -204 36q-126 0 -204 -36q-78 -38 -77 -94q0 -58 79 -94
q80 -36 202 -36z" />
    <glyph glyph-name="A" unicode="A" horiz-adv-x="1093" 
d="M932 0l-88 127h-594l-88 -127h-156l459 664h163l459 -664h-155zM335 250h424l-212 307z" />
    <glyph glyph-name="B" unicode="B" horiz-adv-x="1106" 
d="M916 347q132 -47 132 -163q0 -189 -320 -189l-636 5v664q219 6 608 6q151 0 233 -46q81 -46 81 -133q0 -94 -98 -144zM722 547q-311 0 -499 -4v-136h507q70 0 108 19q39 18 39 52q0 30 -39 50q-38 19 -116 19zM743 118q83 0 126 23q42 23 42 58t-44 61q-45 24 -122 24
h-522v-162q193 -4 520 -4z" />
    <glyph glyph-name="C" unicode="C" horiz-adv-x="1053" 
d="M576 -13q-92 0 -186 23q-96 23 -170 64q-77 40 -126 109q-48 67 -48 150q0 80 47 148q46 67 122 110q79 43 169 65q95 23 190 23q128 0 243 -36q112 -36 181 -101l-73 -110q-54 61 -146 93q-92 31 -205 31q-167 0 -279 -64t-112 -159q0 -94 112 -158q113 -65 281 -65
q103 0 201 29q95 29 150 75l91 -92q-75 -64 -198 -99q-123 -36 -244 -36z" />
    <glyph glyph-name="D" unicode="D" horiz-adv-x="1080" 
d="M457 670q119 0 219 -18q99 -18 183 -56q83 -38 129 -105t46 -158q0 -64 -22 -114q-23 -53 -62 -88q-38 -35 -94 -64q-52 -27 -119 -42q-59 -15 -135 -23q-74 -8 -145 -8q-89 0 -211 2q-23 0 -52 0.5t-45 1t-25 0.5l-32 2v664q98 6 365 6zM457 117q439 0 439 216
q0 214 -439 214q-88 0 -234 -2v-426q146 -2 234 -2z" />
    <glyph glyph-name="E" unicode="E" horiz-adv-x="981" 
d="M925 541h-702v-134h612v-123h-612v-161h702v-123h-833v664h833v-123z" />
    <glyph glyph-name="F" unicode="F" horiz-adv-x="956" 
d="M925 541h-702v-134h612v-123h-612v-284h-131v664h833v-123z" />
    <glyph glyph-name="G" unicode="G" horiz-adv-x="1150" 
d="M455 372h617v-372h-131v123q-139 -136 -385 -136q-89 0 -179 23q-92 23 -163 64q-74 41 -121 110q-47 68 -47 149q0 80 47 148q46 67 122 110q79 43 169 65q95 23 190 23q128 0 243 -36q112 -36 181 -101l-73 -110q-54 61 -146 93q-92 31 -205 31q-167 0 -279 -64
t-112 -159q0 -72 59 -125q58 -52 144 -75t180 -23q119 0 224 37q105 36 153 102h-488v123z" />
    <glyph glyph-name="H" unicode="H" horiz-adv-x="1112" 
d="M889 664h131v-664h-131v284h-666v-284h-131v664h131v-257h666v257z" />
    <glyph glyph-name="I" unicode="I" horiz-adv-x="315" 
d="M92 0v664h131v-664h-131z" />
    <glyph glyph-name="J" unicode="J" horiz-adv-x="1007" 
d="M441 -13q-128 0 -242 36q-113 34 -182 100l74 110q44 -59 140 -91t210 -32q152 0 255 67q103 66 103 183v304h131v-331q0 -109 -69 -189q-72 -81 -179 -118q-110 -39 -241 -39z" />
    <glyph glyph-name="K" unicode="K" horiz-adv-x="1007" 
d="M820 0l-344 303l-253 -177v-126h-131v664h131v-385l554 385h219l-415 -288l429 -376h-190z" />
    <glyph glyph-name="L" unicode="L" horiz-adv-x="935" 
d="M223 123h689v-123h-820v664h131v-541z" />
    <glyph glyph-name="M" unicode="M" horiz-adv-x="1344" 
d="M1100 664h152v-664h-131v476l-365 -476h-175l-358 475v-475h-131v664h153l424 -569z" />
    <glyph glyph-name="N" unicode="N" horiz-adv-x="1182" 
d="M959 664h131v-664h-163l-704 530v-530h-131v664h163l704 -530v530z" />
    <glyph glyph-name="O" unicode="O" horiz-adv-x="1144" 
d="M572 -13q-92 0 -186 23q-93 23 -168 64q-78 43 -124 110q-48 68 -48 149q0 105 80 187q80 81 198 120q117 39 248 39q130 0 249 -39q118 -39 197 -120q80 -82 80 -187q0 -81 -47 -149q-49 -69 -124 -110q-74 -41 -169 -64q-94 -23 -186 -23zM572 110q95 0 182 23
q84 22 147 76q60 53 60 124q0 70 -59 123q-59 52 -146 76t-184 24q-98 0 -183 -24q-89 -24 -146 -76q-60 -52 -60 -123q0 -72 61 -124q63 -54 147 -76q87 -23 181 -23z" />
    <glyph glyph-name="P" unicode="P" horiz-adv-x="1040" 
d="M607 670q211 0 309 -50q97 -51 97 -169q0 -112 -98 -163q-98 -52 -308 -53h-150q-57 -1 -141 -1q-37 -1 -93 -1v-233h-131v664q169 6 515 6zM632 358q134 2 189 24q56 23 56 69q0 49 -55 73q-57 23 -190 23q-201 -1 -409 -4v-186q77 0 168 1h241z" />
    <glyph glyph-name="Q" unicode="Q" horiz-adv-x="1145" 
d="M1145 0l-71 -103l-212 146q-136 -56 -290 -56q-92 0 -186 23q-93 23 -168 64q-78 43 -124 110q-48 68 -48 149q0 105 80 187q80 81 198 120q117 39 248 39q130 0 249 -39q118 -39 197 -120q80 -82 80 -187q0 -129 -116 -222zM572 110q88 0 163 19l-194 133l70 103
l262 -179q88 60 88 147q0 70 -59 123q-59 52 -146 76t-184 24q-98 0 -183 -24q-89 -24 -146 -76q-60 -52 -60 -123q0 -72 61 -124q63 -54 147 -76q87 -23 181 -23z" />
    <glyph glyph-name="R" unicode="R" horiz-adv-x="1069" 
d="M837 0l-264 235q-87 0 -171 -0.5t-126 -1t-53 -0.5v-233h-131v664q169 6 515 6q211 0 309 -50q97 -51 97 -169q0 -91 -64 -140q-65 -52 -198 -68l275 -243h-189zM223 543v-186q77 0 168 1h241q134 2 189 24q56 23 56 69q0 49 -55 73q-57 23 -190 23q-201 -1 -409 -4z" />
    <glyph glyph-name="S" unicode="S" horiz-adv-x="1066" 
d="M550 -13q-186 0 -314 48q-127 46 -162 130l122 59q16 -54 111 -84t249 -30q311 0 311 80q0 36 -63 52t-252 36q-50 5 -140 17q-52 7 -112 20q-56 12 -90 27q-37 16 -61 36q-27 21 -39 48t-12 62q0 68 58 111q55 42 153 62q96 18 230 18q184 0 298 -46q115 -47 144 -132
l-123 -60q-12 115 -313 115q-310 0 -310 -70q0 -34 69 -49q69 -16 263 -36q51 -5 133 -16q50 -7 108 -20q52 -12 87 -27q33 -14 60 -35q27 -22 38 -49q12 -28 12 -63q0 -204 -455 -204z" />
    <glyph glyph-name="T" unicode="T" horiz-adv-x="978" 
d="M957 664v-123h-402v-541h-131v541h-403v123h936z" />
    <glyph glyph-name="U" unicode="U" horiz-adv-x="1133" 
d="M567 -13q-131 0 -241 39q-109 37 -179 118q-70 79 -70 189v331h131v-304q0 -117 104 -183q103 -67 255 -67t255 67q103 66 103 183v304h131v-331q0 -109 -69 -189q-72 -81 -179 -118q-110 -39 -241 -39z" />
    <glyph glyph-name="V" unicode="V" horiz-adv-x="1092" 
d="M931 664h155l-458 -664h-163l-459 664h155l385 -557z" />
    <glyph glyph-name="W" unicode="W" horiz-adv-x="1409" 
d="M1260 664h141l-279 -664h-191l-227 541l-227 -541h-190l-279 664h141l234 -557l237 557h169l238 -555z" />
    <glyph glyph-name="X" unicode="X" horiz-adv-x="1045" 
d="M1060 0h-197l-341 279l-340 -279h-197l438 359l-373 305h197l275 -226l276 226h197l-373 -305z" />
    <glyph glyph-name="Y" unicode="Y" horiz-adv-x="1200" 
d="M1187 664l-521 -450v-214h-131v213l-522 451h192l395 -340l395 340h192z" />
    <glyph glyph-name="Z" unicode="Z" horiz-adv-x="956" 
d="M902 664v-123l-624 -418h620v-123h-844v123l626 418h-625v123h847z" />
    <glyph glyph-name="bracketleft" unicode="[" horiz-adv-x="444" 
d="M401 636h-178v-608h178v-123h-309v854h309v-123z" />
    <glyph glyph-name="backslash" unicode="\" horiz-adv-x="437" 
d="M257 -142l-209 913h132l209 -913h-132z" />
    <glyph glyph-name="bracketright" unicode="]" horiz-adv-x="443" 
d="M351 759v-854h-308v123h177v608h-177v123h308z" />
    <glyph glyph-name="asciicircum" unicode="^" horiz-adv-x="798" 
d="M139 133l-107 72l367 485l367 -485l-107 -72l-260 340z" />
    <glyph glyph-name="underscore" unicode="_" horiz-adv-x="500" 
d="M0 -123v123h500v-123h-500z" />
    <glyph glyph-name="grave" unicode="`" horiz-adv-x="127" 
d="M129 711h-131l-162 144h180z" />
    <glyph glyph-name="a" unicode="a" horiz-adv-x="943" 
d="M738 474h128v-474h-128v76q-116 -89 -313 -89q-101 0 -187 27q-84 25 -141 85q-56 59 -56 138t54 137q52 57 140 86q86 27 190 27q92 0 173 -22q83 -23 140 -66v75zM456 107q124 0 203 36t79 94q0 57 -78 94q-80 36 -204 36q-126 0 -204 -36q-78 -38 -77 -94
q0 -58 79 -94q80 -36 202 -36z" />
    <glyph glyph-name="b" unicode="b" horiz-adv-x="943" 
d="M518 487q104 0 190 -27q88 -29 140 -86q54 -58 54 -137t-56 -138q-57 -60 -141 -85q-85 -27 -187 -27q-89 0 -173 23q-86 23 -139 65v-75h-128v664h128v-265q57 43 140 66q81 22 172 22zM768 237q1 56 -77 94q-78 36 -204 36q-117 0 -195 -32q-77 -33 -86 -86v-24
q9 -54 87 -85q76 -33 194 -33q123 0 202 36t79 94z" />
    <glyph glyph-name="c" unicode="c" horiz-adv-x="825" 
d="M458 -13q-101 0 -194 27t-158 86t-65 137q0 77 63 136q62 57 157 86q91 28 197 28q96 0 189 -26q92 -26 152 -75l-78 -101q-29 38 -104 61q-75 21 -159 21q-110 0 -197 -35q-88 -36 -86 -95q0 -61 87 -95q88 -35 196 -35q73 0 138 16q68 17 105 44l93 -82
q-60 -47 -150 -72q-93 -26 -186 -26z" />
    <glyph glyph-name="d" unicode="d" horiz-adv-x="943" 
d="M737 664h128v-664h-128v75q-54 -42 -138 -65t-174 -23q-101 0 -187 27q-84 25 -141 85q-56 59 -56 138t54 137q52 57 140 86q86 27 190 27q91 0 172 -22q83 -23 140 -66v265zM456 107q117 0 195 33q77 32 86 85v24q-9 53 -86 86q-78 32 -195 32q-126 0 -204 -36
q-78 -38 -77 -94q0 -58 79 -94q80 -36 202 -36z" />
    <glyph glyph-name="e" unicode="e" horiz-adv-x="917" 
d="M458 487q84 0 161 -19q75 -18 142 -55q63 -37 94 -92q31 -56 16 -124h-684q28 -45 103 -70q78 -26 168 -26q148 0 243 55l93 -82q-61 -40 -152 -63q-92 -24 -184 -24q-101 0 -194 27t-158 86t-65 137q0 77 63 136q62 57 157 86q91 28 197 28zM458 373q-87 0 -162 -23
q-73 -24 -103 -64h530q-30 40 -103 64q-75 23 -162 23z" />
    <glyph glyph-name="f" unicode="f" horiz-adv-x="614" 
d="M333 489v-15h234v-120h-234v-354h-128v354h-162v120h162v36q0 76 63 123q61 46 159 46q123 0 185 -72l-94 -83q-23 35 -91 35q-43 0 -68 -19q-26 -20 -26 -51z" />
    <glyph glyph-name="g" unicode="g" horiz-adv-x="943" 
d="M738 474h127v-397q0 -73 -37 -128q-37 -54 -100 -86q-64 -32 -137 -47q-73 -16 -160 -16q-106 0 -201 23q-92 22 -148 64l93 84q34 -24 106 -41q68 -16 153 -16q78 0 145 15q66 15 114 47q45 31 45 76v24q-116 -89 -313 -89q-101 0 -187 27q-84 25 -141 85
q-56 59 -56 138t54 137q52 57 140 86q86 27 190 27q92 0 173 -22q83 -23 140 -66v75zM456 107q124 0 203 36t79 94q0 57 -78 94q-80 36 -204 36q-126 0 -204 -36q-78 -38 -77 -94q0 -58 79 -94q80 -36 202 -36z" />
    <glyph glyph-name="h" unicode="h" horiz-adv-x="956" 
d="M544 487q148 0 246 -56q97 -55 97 -155v-276h-128v234q0 134 -242 134q-67 0 -138 -23q-69 -24 -121 -76t-52 -122v-147h-128v664h128v-301q61 59 150 92q91 32 188 32z" />
    <glyph glyph-name="i" unicode="i" horiz-adv-x="284" 
d="M143 515q-43 0 -74 20q-30 19 -30 50q0 32 30 53t74 21q41 0 73 -21q30 -21 30 -53q0 -31 -30 -50q-32 -20 -73 -20zM78 0v474h128v-474h-128z" />
    <glyph glyph-name="j" unicode="j" horiz-adv-x="284" 
d="M143 515q-43 0 -74 20q-30 19 -30 50q0 32 30 53t74 21q41 0 73 -21q30 -21 30 -53q0 -31 -30 -50q-32 -20 -73 -20zM-16 -200q-124 0 -185 72l94 83q23 -35 91 -35q44 0 69 19t25 51v484h128v-505q0 -75 -62 -122q-64 -47 -160 -47z" />
    <glyph glyph-name="k" unicode="k" horiz-adv-x="897" 
d="M704 0l-289 219l-209 -114v-105h-128v664h128v-422l429 232h252l-355 -191l371 -283h-199z" />
    <glyph glyph-name="l" unicode="l" horiz-adv-x="284" 
d="M78 0v664h128v-664h-128z" />
    <glyph glyph-name="m" unicode="m" horiz-adv-x="1360" 
d="M1018 487q126 0 200 -57q73 -57 73 -165v-265h-128v234q0 64 -44 99t-124 35q-101 0 -173 -57q-73 -57 -73 -137v-174h-128v234q0 64 -44 99t-124 35q-100 -2 -172 -59q-75 -59 -75 -140v-169h-128v474h128v-110q48 57 122 90t156 33q88 0 151 -31q63 -32 92 -91
q48 57 127 90q79 32 164 32z" />
    <glyph glyph-name="n" unicode="n" horiz-adv-x="956" 
d="M544 487q148 0 246 -56q97 -55 97 -155v-276h-128v234q0 134 -242 134q-67 0 -138 -23q-69 -24 -121 -76t-52 -122v-147h-128v474h128v-111q61 59 150 92q91 32 188 32z" />
    <glyph glyph-name="o" unicode="o" horiz-adv-x="916" 
d="M458 -13q-101 0 -194 27t-158 86t-65 137q0 77 63 136q62 57 157 86q91 28 197 28q103 0 196 -27q91 -27 157 -86q64 -58 64 -137q0 -78 -64 -136q-66 -59 -157 -86q-93 -28 -196 -28zM458 107q70 0 133 15q64 14 107 45q43 30 43 70q0 31 -25 56q-24 24 -66 41
q-37 15 -91 25q-53 8 -101 8q-110 0 -197 -35q-88 -36 -86 -95q0 -61 87 -95q88 -35 196 -35z" />
    <glyph glyph-name="p" unicode="p" horiz-adv-x="943" 
d="M518 487q104 0 190 -27q88 -29 140 -86q54 -58 54 -137t-56 -138q-57 -60 -141 -85q-85 -27 -187 -27q-89 0 -173 23q-86 23 -139 65v-260h-128v659h128v-75q57 43 140 66q81 22 172 22zM768 237q1 56 -77 94q-78 36 -204 36q-117 0 -195 -32q-77 -33 -86 -86v-24
q9 -54 87 -85q76 -33 194 -33q123 0 202 36t79 94z" />
    <glyph glyph-name="q" unicode="q" horiz-adv-x="943" 
d="M737 474h128v-659h-128v260q-54 -42 -138 -65t-174 -23q-101 0 -187 27q-84 25 -141 85q-56 59 -56 138t54 137q52 57 140 86q86 27 190 27q91 0 172 -22q83 -23 140 -66v75zM456 107q117 0 195 33q77 32 86 85v24q-9 53 -86 86q-78 32 -195 32q-126 0 -204 -36
q-78 -38 -77 -94q0 -58 79 -94q80 -36 202 -36z" />
    <glyph glyph-name="r" unicode="r" horiz-adv-x="881" 
d="M536 487q142 0 227 -48q85 -49 91 -141l-122 -63q0 132 -225 132q-66 0 -130 -16q-66 -17 -118 -55q-53 -39 -53 -92v-204h-128v474h128v-92q58 51 147 78t183 27z" />
    <glyph glyph-name="s" unicode="s" horiz-adv-x="840" 
d="M421 -13q-150 0 -253 34q-105 33 -137 93l114 51q9 -24 95 -47q87 -23 193 -23q238 0 238 48q0 15 -50 23q-49 7 -203 18q-70 4 -131 11q-47 4 -100 16q-48 11 -75 27q-28 17 -42 40q-16 23 -16 57q0 78 98 116q98 36 263 36q137 0 236 -32q96 -33 123 -93l-114 -53
q-1 25 -77 48q-73 22 -180 22q-95 0 -159 -11q-62 -11 -62 -29q0 -15 50 -20q48 -6 241 -18q186 -12 256 -42q70 -31 70 -114q0 -85 -98 -121q-98 -37 -280 -37z" />
    <glyph glyph-name="t" unicode="t" horiz-adv-x="614" 
d="M518 142l94 -83q-62 -72 -185 -72q-97 0 -159 47q-63 46 -63 122v198h-162v120h162v88l128 71v-159h234v-120h-234v-177q0 -31 26 -51q25 -19 68 -19q68 0 91 35z" />
    <glyph glyph-name="u" unicode="u" horiz-adv-x="956" 
d="M750 474h128v-474h-128v92q-60 -51 -150 -78q-92 -27 -189 -27q-153 0 -248 68q-94 67 -94 193v226h128v-218q0 -74 71 -112q70 -37 183 -37q71 0 135 16q67 17 115 55q49 39 49 92v204z" />
    <glyph glyph-name="v" unicode="v" horiz-adv-x="873" 
d="M721 474h152l-343 -474h-186l-344 474h152l285 -390z" />
    <glyph glyph-name="w" unicode="w" horiz-adv-x="1465" 
d="M1316 476l151 -2l-318 -474h-165l-251 377l-252 -377h-166l-317 474h150l250 -375l249 375h170l250 -375z" />
    <glyph glyph-name="x" unicode="x" horiz-adv-x="919" 
d="M924 0h-212l-252 173l-253 -173h-212l359 246l-332 228h212l226 -155l225 155h212l-331 -228z" />
    <glyph glyph-name="y" unicode="y" horiz-adv-x="889" 
d="M733 474h156l-499 -659h-155l139 185l-374 474h157l295 -371z" />
    <glyph glyph-name="z" unicode="z" horiz-adv-x="803" 
d="M752 474v-120l-456 -234h455v-120h-701v120l457 234h-454v120h699z" />
    <glyph glyph-name="braceleft" unicode="{" horiz-adv-x="470" 
d="M424 -100q-147 0 -226 35q-78 34 -79 112q-1 39 34 102q34 61 34 83q0 54 -116 54v128q112 0 112 48q0 19 -31 68q-30 48 -32 93q-1 81 73 111q73 30 231 30v-123q-86 0 -127 -11q-39 -10 -39 -45q0 -20 41 -73t41 -87q0 -32 -28 -45q-29 -14 -65 -15v-26q34 -2 65 -25
q32 -24 32 -59q0 -32 -22 -64q-24 -35 -43 -61q-22 -28 -22 -48q2 -35 41 -47q38 -13 126 -13v-122z" />
    <glyph glyph-name="bar" unicode="|" horiz-adv-x="315" 
d="M92 -142v832h131v-832h-131z" />
    <glyph glyph-name="braceright" unicode="}" horiz-adv-x="480" 
d="M56 -100v122q88 0 127 13q38 12 40 47q0 20 -21 48q-18 22 -44 61q-22 32 -22 64q0 35 32 59q31 23 65 25v26q-36 1 -65 15q-28 13 -28 45q0 34 41 87t41 73q0 35 -39 45q-41 11 -127 11v123q158 0 232 -30t72 -111q-2 -45 -32 -93q-31 -49 -31 -68q0 -48 112 -48v-128
q-116 0 -116 -54q0 -21 35 -83q34 -61 33 -102q-1 -78 -79 -112q-79 -35 -226 -35z" />
    <glyph glyph-name="asciitilde" unicode="~" horiz-adv-x="806" 
d="M563 124q-40 0 -76 15q-35 14 -65 36q-38 28 -55 43q-24 20 -55 36q-30 15 -59 15q-32 0 -55 -16q-24 -17 -24 -42h-103q0 80 49 133q50 54 124 54q49 0 94 -22t75 -50q26 -25 68 -49q38 -23 73 -23q31 0 56 17q23 17 23 42h102q0 -81 -48 -135t-124 -54z" />
    <glyph glyph-name="uni00A0" unicode="&#xa0;" horiz-adv-x="380" 
 />
    <glyph glyph-name="exclamdown" unicode="&#xa1;" horiz-adv-x="351" 
d="M176 485q41 0 73 -20q30 -19 30 -50q0 -32 -30 -53q-31 -21 -73 -21q-44 0 -74 21t-30 53q0 31 30 50q31 20 74 20zM127 288h98l33 -478h-164z" />
    <glyph glyph-name="cent" unicode="&#xa2;" horiz-adv-x="1053" 
d="M1018 122q-75 -64 -198 -99q-123 -36 -244 -36q-29 0 -38 1l-26 -130h-133l30 146q-99 21 -179 63t-132 112q-52 68 -52 154q0 103 75 183q74 78 187 119q113 40 238 44l19 92h133l-20 -98q210 -25 320 -131l-73 -110q-87 100 -272 120l-90 -442h13q103 0 201 29
q95 29 150 75zM183 333q0 -72 69 -128q67 -57 181 -81l88 430q-149 -10 -243 -72q-95 -63 -95 -149z" />
    <glyph glyph-name="sterling" unicode="&#xa3;" horiz-adv-x="999" 
d="M345 197q0 -33 -11 -74h610v-123h-875v123h128q17 42 17 74q0 45 -28 88h-180v94h105q-40 49 -40 96q0 91 123 147q120 55 310 55q130 0 250 -35q116 -36 193 -102l-86 -93q-124 107 -357 107q-131 0 -199 -28q-69 -28 -69 -72q0 -22 35 -75h414v-94h-358q18 -44 18 -88z
" />
    <glyph glyph-name="currency" unicode="&#xa4;" horiz-adv-x="917" 
d="M815 480q61 -64 61 -148q0 -82 -60 -147l60 -34l-46 -79l-94 53q-119 -67 -278 -67t-277 67l-94 -53l-46 79l60 34q-60 65 -60 147q0 83 61 148l-61 34l46 80l95 -54q120 66 276 66q158 0 277 -66l95 54l46 -80zM175 332q0 -50 45 -86q42 -35 107 -52q60 -16 131 -16
q72 0 133 16q65 17 107 53q44 36 44 85q0 50 -44 86q-42 35 -106 52q-61 16 -134 16q-113 0 -197 -40q-86 -41 -86 -114z" />
    <glyph glyph-name="yen" unicode="&#xa5;" horiz-adv-x="1200" 
d="M1187 664l-443 -383h235v-94h-313v-41h313v-94h-313v-52h-131v52h-314v94h314v41h-314v94h235l-443 383h192l395 -340l395 340h192z" />
    <glyph glyph-name="brokenbar" unicode="&#xa6;" horiz-adv-x="315" 
d="M92 360v330h131v-330h-131zM92 -142v330h131v-330h-131z" />
    <glyph glyph-name="section" unicode="&#xa7;" horiz-adv-x="1065" 
d="M898 132q83 -47 83 -130q0 -95 -119 -142q-120 -47 -323 -47q-186 0 -300 46q-115 46 -142 133l120 61q-1 -53 79 -85q81 -32 238 -32q145 0 230 19q86 18 86 49q0 30 -77 48q-73 17 -261 37q-231 24 -335 69q-103 45 -103 141q0 93 107 147q-83 44 -83 129q0 95 119 142
q120 47 322 47q186 0 300 -46q115 -46 143 -133l-120 -61q0 55 -79 86q-78 31 -238 31q-143 0 -229 -18q-87 -19 -87 -50q0 -30 77 -48q73 -17 261 -37q230 -24 334 -69q103 -45 103 -141q0 -95 -106 -146zM205 300q0 -30 71 -50q65 -18 252 -38l100 -12q114 4 180 27
q65 21 65 50q0 30 -71 50q-64 18 -251 38l-101 12q-113 -4 -179 -26q-66 -23 -66 -51z" />
    <glyph glyph-name="dieresis" unicode="&#xa8;" horiz-adv-x="581" 
d="M163 698q-43 0 -74 20q-30 20 -30 50q0 32 30 53t74 21q41 0 73 -21q30 -21 30 -53q0 -30 -30 -50q-32 -20 -73 -20zM418 698q-43 0 -74 20q-30 20 -30 50q0 32 30 53t74 21q42 0 73 -21q30 -21 30 -53q0 -30 -30 -50q-32 -20 -73 -20z" />
    <glyph glyph-name="copyright" unicode="&#xa9;" 
d="M569 -13q-94 0 -185 24q-92 23 -168 66q-78 44 -123 110q-47 68 -47 146q0 103 79 183q78 81 197 122q117 40 247 40q131 0 248 -40q116 -40 197 -122q78 -81 78 -183q0 -78 -47 -146q-45 -66 -123 -110q-76 -43 -168 -66q-92 -24 -185 -24zM569 39q116 0 221 34
q105 33 179 102q73 69 73 158q0 87 -71 156q-72 69 -178 103q-105 34 -224 34q-118 0 -223 -34q-106 -34 -178 -103q-71 -69 -71 -156q0 -89 73 -158q74 -69 179 -102q105 -34 220 -34zM580 117q-79 0 -154 23q-73 22 -126 74q-52 51 -52 119q0 67 51 118q50 50 124 74
q73 24 156 24t153 -22q71 -23 113 -63l-47 -70q-30 39 -87 58q-58 19 -132 19q-101 0 -171 -36q-72 -37 -72 -102q0 -67 74 -102q74 -36 170 -36q67 0 127 16q61 17 92 47l58 -56q-47 -40 -123 -63q-75 -22 -154 -22z" />
    <glyph glyph-name="ordfeminine" unicode="&#xaa;" horiz-adv-x="748" 
d="M573 669h97v-398h-97v68q-43 -37 -108 -57q-65 -21 -135 -21q-121 0 -204 55q-85 54 -85 154q-2 98 83 154q82 55 206 55q67 0 133 -20q66 -22 110 -58v68zM342 352q88 0 160 33q71 33 71 85q0 53 -72 86q-73 32 -159 32q-88 0 -143 -31q-56 -32 -56 -87q0 -57 57 -87
q56 -31 142 -31z" />
    <glyph glyph-name="guillemotleft" unicode="&#xab;" horiz-adv-x="725" 
d="M282 -13l-250 250l250 250l93 -87l-166 -163l166 -163zM579 -13l-250 250l250 250l93 -87l-166 -163l166 -163z" />
    <glyph glyph-name="logicalnot" unicode="&#xac;" horiz-adv-x="671" 
d="M71 323h522v-323h-125v199h-397v124z" />
    <glyph glyph-name="uni00AD" unicode="&#xad;" horiz-adv-x="478" 
d="M71 199v123h336v-123h-336z" />
    <glyph glyph-name="registered" unicode="&#xae;" 
d="M569 -13q-94 0 -185 24q-92 23 -168 66q-78 44 -123 110q-47 68 -47 146q0 103 79 183q78 81 197 122q120 41 247 41q128 0 248 -41q116 -40 197 -122q78 -81 78 -183q0 -78 -47 -146q-45 -66 -123 -110q-76 -43 -168 -66q-92 -24 -185 -24zM569 39q116 0 221 34
q105 33 179 102q73 69 73 158q0 87 -71 156t-178 104q-105 34 -224 34q-118 0 -223 -34q-107 -35 -178 -104q-72 -69 -72 -156q0 -89 73 -158t180 -102q105 -34 220 -34zM292 123v415q79 4 305 4q134 0 203 -32q68 -32 68 -105q0 -110 -178 -129l178 -153h-118l-165 146h-44
q-51 -1 -166 -1v-145h-83zM375 347q181 0 246 1q161 0 161 57q0 59 -161 59q-118 0 -246 -2v-115z" />
    <glyph glyph-name="macron" unicode="&#xaf;" horiz-adv-x="392" 
d="M0 711v111h392v-111h-392z" />
    <glyph glyph-name="degree" unicode="&#xb0;" horiz-adv-x="546" 
d="M273 247q-91 0 -155 63q-65 63 -65 152q0 87 65 152q64 63 155 63t155 -63q65 -65 65 -152q0 -89 -65 -152q-64 -63 -155 -63zM273 343q42 0 72 35q30 34 30 84t-30 84q-32 35 -72 35q-41 0 -71 -35q-30 -34 -30 -84t30 -84q30 -35 71 -35z" />
    <glyph glyph-name="plusminus" unicode="&#xb1;" horiz-adv-x="623" 
d="M375 492h197v-123h-197v-171h-127v171h-198v123h198v172h127v-172zM50 0v123h522v-123h-522z" />
    <glyph glyph-name="uni00B2" unicode="&#xb2;" horiz-adv-x="827" 
d="M786 628q0 -147 -383 -248h367v-97h-693l-19 97q160 33 292 71q116 32 194 67q71 33 102 59q32 27 32 51q0 40 -71 66q-72 26 -178 26q-112 0 -199 -38q-86 -38 -86 -85q0 -27 45 -59l-58 -78q-95 57 -95 137q0 94 116 157q115 63 277 63q146 0 252 -53q105 -52 105 -136
z" />
    <glyph glyph-name="uni00B3" unicode="&#xb3;" horiz-adv-x="847" 
d="M647 555q84 -19 123 -52q38 -33 38 -79q0 -54 -54 -90q-56 -36 -136 -51q-81 -15 -183 -15q-68 0 -123 7q-63 6 -118 22q-60 15 -101 47q-43 32 -56 76l105 30q13 -40 92 -62q80 -23 201 -23q112 0 189 20q75 19 75 46q0 28 -89 51q-88 21 -210 21h-97l-27 93h74
q129 0 221 20q90 20 90 46q0 25 -60 41q-61 15 -167 15q-117 0 -192 -21q-77 -21 -87 -58l-97 52q31 64 136 94q104 30 240 30q65 0 127 -8q58 -7 106 -24q47 -16 75 -46q27 -30 27 -70q0 -77 -122 -112z" />
    <glyph glyph-name="acute" unicode="&#xb4;" horiz-adv-x="127" 
d="M-2 711l113 144h180l-162 -144h-131z" />
    <glyph glyph-name="uni00B5" unicode="&#xb5;" horiz-adv-x="955" 
d="M750 474h128v-474h-128v92q-60 -51 -150 -78q-92 -27 -189 -27q-129 0 -214 46v-205h-128v646h128v-218q0 -74 71 -112q70 -37 183 -37q71 0 135 16q67 17 115 55q49 39 49 92v204z" />
    <glyph glyph-name="paragraph" unicode="&#xb6;" horiz-adv-x="676" 
d="M280 677q43 0 73 -13h50v-664h-50v283q-35 -13 -73 -13q-84 0 -142 60q-60 58 -60 142q0 85 60 145q59 60 142 60zM465 664h119v-664h-119v664z" />
    <glyph glyph-name="periodcentered" unicode="&#xb7;" horiz-adv-x="342" 
d="M172 211q-43 0 -74 20q-30 19 -30 50q0 32 30 53t74 21q41 0 73 -21q30 -21 30 -53q0 -31 -30 -50q-32 -20 -73 -20z" />
    <glyph glyph-name="cedilla" unicode="&#xb8;" horiz-adv-x="371" 
d="M26 -182l-24 66q181 0 181 21q0 19 -115 19l46 76h76l-27 -33q97 0 142 -16q46 -16 46 -54q0 -79 -325 -79z" />
    <glyph glyph-name="uni00B9" unicode="&#xb9;" horiz-adv-x="834" 
d="M522 375h291v-97h-664l-19 97h289v231q-110 -122 -335 -155l-50 99q159 12 262 78q103 64 123 167v5h103v-425z" />
    <glyph glyph-name="ordmasculine" unicode="&#xba;" horiz-adv-x="719" 
d="M359 261q-75 0 -147 23q-73 23 -121 71q-50 50 -50 115q0 64 48 113q47 49 120 73q72 23 150 23q81 0 150 -22q71 -23 120 -72t49 -115q0 -65 -49 -114q-49 -50 -120 -72q-72 -23 -150 -23zM359 352q86 0 151 31q65 32 65 87t-65 87q-65 31 -151 31q-54 0 -102 -12
q-49 -14 -81 -40q-33 -28 -33 -66q0 -56 66 -87q65 -31 150 -31z" />
    <glyph glyph-name="guillemotright" unicode="&#xbb;" horiz-adv-x="725" 
d="M146 -13l-93 87l166 163l-166 163l93 87l250 -250zM443 -13l-93 87l166 163l-166 163l93 87l250 -250z" />
    <glyph glyph-name="onequarter" unicode="&#xbc;" horiz-adv-x="2016" 
d="M813 239v-97h-664l-19 97h289v231q-110 -122 -335 -155l-50 99q159 12 262 78q103 64 123 167v5h103v-425h291zM1164 664h112l-380 -664h-112zM1992 179v-97h-203v-82h-104v82h-507v97q87 3 165 57q77 52 124 137q47 84 45 173l97 -51q-3 -95 -57 -178t-141 -138h274v202
h104v-202h203z" />
    <glyph glyph-name="onehalf" unicode="&#xbd;" horiz-adv-x="2053" 
d="M813 239v-97h-664l-19 97h289v231q-110 -122 -335 -155l-50 99q159 12 262 78q103 64 123 167v5h103v-425h291zM1164 664h112l-380 -664h-112zM2012 346q0 -147 -383 -248h367v-97h-693l-19 97q160 33 292 71q116 32 194 67q71 33 102 59q32 27 32 51q0 40 -71 66
q-72 26 -178 26q-112 0 -199 -38q-86 -38 -86 -85q0 -27 45 -59l-58 -78q-95 57 -95 137q0 94 116 157t277 63q146 0 252 -53q105 -52 105 -136z" />
    <glyph glyph-name="threequarters" unicode="&#xbe;" horiz-adv-x="2029" 
d="M647 419q84 -19 123 -52q38 -33 38 -79q0 -54 -54 -90q-56 -36 -136 -51q-81 -15 -183 -15q-68 0 -123 7q-63 6 -118 22q-60 15 -101 47q-43 32 -56 76l105 30q13 -40 92 -62q80 -23 201 -23q112 0 189 20q75 19 75 46q0 28 -89 51q-88 21 -210 21h-97l-27 93h74
q129 0 221 20q90 20 90 46q0 24 -60 41q-61 15 -167 15q-117 0 -192 -21q-77 -21 -87 -58l-97 52q31 64 136 94q104 30 240 30q65 0 127 -8q58 -7 106 -24q47 -16 75 -46q27 -30 27 -70q0 -77 -122 -112zM1177 664h112l-380 -664h-112zM2005 179v-97h-203v-82h-104v82h-507
v97q87 3 165 57q77 52 124 137q47 84 45 173l97 -51q-3 -95 -57 -178t-141 -138h274v202h104v-202h203z" />
    <glyph glyph-name="questiondown" unicode="&#xbf;" horiz-adv-x="623" 
d="M447 485q43 0 74 -20q30 -19 30 -50q0 -32 -30 -53t-74 -21q-42 0 -72 21q-31 21 -31 53q0 31 31 50q31 20 72 20zM164 9q0 -36 97 -57q94 -22 256 -19l11 -123q-501 0 -501 181q0 83 96 136q97 54 267 67l7 94h98l14 -194q-152 -2 -247 -25q-98 -26 -98 -60z" />
    <glyph glyph-name="Agrave" unicode="&#xc0;" horiz-adv-x="1093" 
d="M610 711h-131l-162 144h180zM932 0l-88 127h-594l-88 -127h-156l459 664h163l459 -664h-155zM335 250h424l-212 307z" />
    <glyph glyph-name="Aacute" unicode="&#xc1;" horiz-adv-x="1093" 
d="M773 855l-162 -144h-131l113 144h180zM932 0l-88 127h-594l-88 -127h-156l459 664h163l459 -664h-155zM335 250h424l-212 307z" />
    <glyph glyph-name="Acircumflex" unicode="&#xc2;" horiz-adv-x="1093" 
d="M546 792l-64 -81h-169l162 144h141l162 -144h-169zM932 0l-88 127h-594l-88 -127h-156l459 664h163l459 -664h-155zM335 250h424l-212 307z" />
    <glyph glyph-name="Atilde" unicode="&#xc3;" horiz-adv-x="1093" 
d="M467 771q-16 10 -19 -15l-2 -45h-131q0 66 41 110q40 42 106 42q11 0 29 -2q5 -1 13.5 -2.5t10.5 -1.5q5 -1 22 -7q5 -2 11 -4.5t8 -3.5t18 -11q4 -2 7 -4.5t5.5 -4t3.5 -2.5q1 0 6.5 -4t10.5 -8q11 -10 16 -13q16 -10 19 15q2 18 2 45h132q0 -66 -41 -109
q-42 -42 -107 -42q-13 0 -31 2q-16 2 -29 6q-12 4 -22 8q-7 1 -22 11l-18 12q-4 1 -20 14q-4 3 -9 6.5t-7 5.5t-3 2zM932 0l-88 127h-594l-88 -127h-156l459 664h163l459 -664h-155zM335 250h424l-212 307z" />
    <glyph glyph-name="Adieresis" unicode="&#xc4;" horiz-adv-x="1093" 
d="M408 698q-43 0 -74 20q-30 20 -30 50q0 32 30 53t74 21q41 0 73 -21q30 -21 30 -53q0 -30 -30 -50q-32 -20 -73 -20zM663 698q-43 0 -74 20q-30 20 -30 50q0 32 30 53t74 21q41 0 73 -21q30 -21 30 -53q0 -30 -30 -50q-32 -20 -73 -20zM932 0l-88 127h-594l-88 -127h-156
l459 664h163l459 -664h-155zM335 250h424l-212 307z" />
    <glyph glyph-name="Aring" unicode="&#xc5;" horiz-adv-x="1093" 
d="M545 707q-85 0 -148 22q-64 22 -64 54q0 31 64 53q63 22 148 22q87 0 150 -22t63 -53t-63 -54q-62 -22 -150 -22zM545 821q-27 0 -47 -11q-20 -12 -20 -27q0 -16 20 -28t47 -12q31 0 50 12q18 12 18 28q0 15 -18 27q-20 11 -50 11zM932 0l-88 127h-594l-88 -127h-156
l459 664h163l459 -664h-155zM335 250h424l-212 307z" />
    <glyph glyph-name="AE" unicode="&#xc6;" horiz-adv-x="1817" 
d="M1761 541h-1052l93 -134h869v-123h-784l111 -161h763v-123h-833l-88 127h-594l-88 -127h-156l459 664h1300v-123zM331 250h424l-212 307z" />
    <glyph glyph-name="Ccedilla" unicode="&#xc7;" horiz-adv-x="1053" 
d="M578 -33q97 0 142 -16q46 -16 46 -54q0 -79 -325 -79l-24 66q181 0 181 21q0 19 -115 19l39 65q-92 6 -172 31q-85 26 -152 67q-70 41 -110 105q-42 64 -42 141q0 80 47 148q46 67 122 110q79 43 169 65q95 23 190 23q128 0 243 -36q112 -36 181 -101l-73 -110
q-54 61 -146 93q-92 31 -205 31q-167 0 -279 -64t-112 -159q0 -94 112 -158q113 -65 281 -65q103 0 201 29q95 29 150 75l91 -92q-72 -61 -188 -96q-117 -36 -235 -39z" />
    <glyph glyph-name="Egrave" unicode="&#xc8;" horiz-adv-x="981" 
d="M574 711h-131l-162 144h180zM925 541h-702v-134h612v-123h-612v-161h702v-123h-833v664h833v-123z" />
    <glyph glyph-name="Eacute" unicode="&#xc9;" horiz-adv-x="981" 
d="M737 855l-162 -144h-131l113 144h180zM925 541h-702v-134h612v-123h-612v-161h702v-123h-833v664h833v-123z" />
    <glyph glyph-name="Ecircumflex" unicode="&#xca;" horiz-adv-x="981" 
d="M510 792l-64 -81h-169l162 144h141l162 -144h-169zM925 541h-702v-134h612v-123h-612v-161h702v-123h-833v664h833v-123z" />
    <glyph glyph-name="Edieresis" unicode="&#xcb;" horiz-adv-x="981" 
d="M372 698q-43 0 -74 20q-30 20 -30 50q0 32 30 53t74 21q41 0 73 -21q30 -21 30 -53q0 -30 -30 -50q-32 -20 -73 -20zM627 698q-43 0 -74 20q-30 20 -30 50q0 32 30 53t74 21q41 0 73 -21q30 -21 30 -53q0 -30 -30 -50q-32 -20 -73 -20zM925 541h-702v-134h612v-123h-612
v-161h702v-123h-833v664h833v-123z" />
    <glyph glyph-name="Igrave" unicode="&#xcc;" horiz-adv-x="315" 
d="M223 711h-131l-162 144h180zM92 0v664h131v-664h-131z" />
    <glyph glyph-name="Iacute" unicode="&#xcd;" horiz-adv-x="315" 
d="M93 711l113 144h180l-162 -144h-131zM92 0v664h131v-664h-131z" />
    <glyph glyph-name="Icircumflex" unicode="&#xce;" horiz-adv-x="315" 
d="M159 792l-64 -81h-169l162 144h141l162 -144h-169zM92 0v664h131v-664h-131z" />
    <glyph glyph-name="Idieresis" unicode="&#xcf;" horiz-adv-x="315" 
d="M21 698q-43 0 -74 20q-30 20 -30 50q0 32 30 53t74 21q41 0 73 -21q30 -21 30 -53q0 -30 -30 -50q-32 -20 -73 -20zM276 698q-43 0 -74 20q-30 20 -30 50q0 32 30 53t74 21q42 0 73 -21q30 -21 30 -53q0 -30 -30 -50q-32 -20 -73 -20zM92 0v664h131v-664h-131z" />
    <glyph glyph-name="Eth" unicode="&#xd0;" horiz-adv-x="1080" 
d="M457 670q119 0 219 -18q99 -18 183 -56q83 -38 129 -105t46 -158q0 -64 -22 -114q-23 -53 -62 -88q-38 -35 -94 -64q-52 -27 -119 -42q-59 -15 -135 -23q-74 -8 -145 -8q-89 0 -211 2q-23 0 -52 0.5t-45 1t-25 0.5l-32 2v299h-92v92h92v273q98 6 365 6zM457 117
q439 0 439 216q0 214 -439 214q-88 0 -234 -2v-154h147v-92h-147v-180q146 -2 234 -2z" />
    <glyph glyph-name="Ntilde" unicode="&#xd1;" horiz-adv-x="1182" 
d="M513 771q-16 10 -19 -15l-2 -45h-131q0 66 41 110q40 42 106 42q11 0 29 -2q5 -1 13.5 -2.5t10.5 -1.5q5 -1 22 -7q5 -2 11.5 -4.5t7.5 -3.5q2 -1 18 -11q5 -3 10 -7l6 -4q1 0 6.5 -4t10.5 -8q11 -10 16 -13q16 -10 19 15q2 18 2 45h132q0 -66 -41 -109q-42 -42 -107 -42
q-13 0 -31 2q-16 2 -29 6q-12 4 -22 8q-7 1 -22 11l-18 12q-4 1 -20 14q-4 3 -9 6.5t-7 5.5t-3 2zM959 664h131v-664h-163l-704 530v-530h-131v664h163l704 -530v530z" />
    <glyph glyph-name="Ograve" unicode="&#xd2;" horiz-adv-x="1144" 
d="M637 711h-131l-162 144h180zM572 -13q-92 0 -186 23q-93 23 -168 64q-78 43 -124 110q-48 68 -48 149q0 105 80 187q80 81 198 120q117 39 248 39q130 0 249 -39q118 -39 197 -120q80 -82 80 -187q0 -81 -47 -149q-49 -69 -124 -110q-74 -41 -169 -64q-94 -23 -186 -23z
M572 110q95 0 182 23q84 22 147 76q60 53 60 124q0 70 -59 123q-59 52 -146 76t-184 24q-98 0 -183 -24q-89 -24 -146 -76q-60 -52 -60 -123q0 -72 61 -124q63 -54 147 -76q87 -23 181 -23z" />
    <glyph glyph-name="Oacute" unicode="&#xd3;" horiz-adv-x="1144" 
d="M507 711l113 144h180l-162 -144h-131zM572 -13q-92 0 -186 23q-93 23 -168 64q-78 43 -124 110q-48 68 -48 149q0 105 80 187q80 81 198 120q117 39 248 39q130 0 249 -39q118 -39 197 -120q80 -82 80 -187q0 -81 -47 -149q-49 -69 -124 -110q-74 -41 -169 -64
q-94 -23 -186 -23zM572 110q95 0 182 23q84 22 147 76q60 53 60 124q0 70 -59 123q-59 52 -146 76t-184 24q-98 0 -183 -24q-89 -24 -146 -76q-60 -52 -60 -123q0 -72 61 -124q63 -54 147 -76q87 -23 181 -23z" />
    <glyph glyph-name="Ocircumflex" unicode="&#xd4;" horiz-adv-x="1144" 
d="M573 792l-64 -81h-169l162 144h141l162 -144h-169zM572 679q130 0 249 -39q118 -39 197 -120q80 -82 80 -187q0 -81 -47 -149q-49 -69 -124 -110q-74 -41 -169 -64q-94 -23 -186 -23t-186 23q-93 23 -168 64q-78 43 -124 110q-48 68 -48 149q0 105 80 187q80 81 198 120
q117 39 248 39zM572 110q95 0 182 23q84 22 147 76q60 53 60 124q0 70 -59 123q-59 52 -146 76t-184 24q-98 0 -183 -24q-89 -24 -146 -76q-60 -52 -60 -123q0 -72 61 -124q63 -54 147 -76q87 -23 181 -23z" />
    <glyph glyph-name="Otilde" unicode="&#xd5;" horiz-adv-x="1144" 
d="M655 704q-13 0 -31 2q-16 2 -29 6q-12 4 -22 8q-7 1 -22 11l-18 12q-4 1 -20 14q-4 3 -9 6.5t-7 5.5t-3 2q-16 10 -19 -15l-2 -45h-131q0 66 41 110q41 42 106 42q11 0 29 -2q5 -1 13.5 -2.5t10.5 -1.5q5 -1 22 -7q5 -2 11 -4.5t8 -3.5t18 -11q4 -2 7 -4.5t5.5 -4
t3.5 -2.5q1 0 6.5 -4t10.5 -8q11 -10 16 -13q16 -10 19 15q2 18 2 45h132q0 -66 -41 -109q-42 -42 -107 -42zM572 -13q-92 0 -186 23q-93 23 -168 64q-78 43 -124 110q-48 68 -48 149q0 105 80 187q80 81 198 120q117 39 248 39q130 0 249 -39q118 -39 197 -120
q80 -82 80 -187q0 -81 -47 -149q-49 -69 -124 -110q-74 -41 -169 -64q-94 -23 -186 -23zM572 110q95 0 182 23q84 22 147 76q60 53 60 124q0 70 -59 123q-59 52 -146 76t-184 24q-98 0 -183 -24q-89 -24 -146 -76q-60 -52 -60 -123q0 -72 61 -124q63 -54 147 -76
q87 -23 181 -23z" />
    <glyph glyph-name="Odieresis" unicode="&#xd6;" horiz-adv-x="1144" 
d="M435 698q-43 0 -74 20q-30 20 -30 50q0 32 30 53t74 21q41 0 73 -21q30 -21 30 -53q0 -30 -30 -50q-32 -20 -73 -20zM690 698q-43 0 -74 20q-30 20 -30 50q0 32 30 53t74 21q42 0 73 -21q30 -21 30 -53q0 -30 -30 -50q-32 -20 -73 -20zM572 -13q-92 0 -186 23
q-93 23 -168 64q-78 43 -124 110q-48 68 -48 149q0 105 80 187q80 81 198 120q117 39 248 39q130 0 249 -39q118 -39 197 -120q80 -82 80 -187q0 -81 -47 -149q-49 -69 -124 -110q-74 -41 -169 -64q-94 -23 -186 -23zM572 110q95 0 182 23q84 22 147 76q60 53 60 124
q0 70 -59 123q-59 52 -146 76t-184 24q-98 0 -183 -24q-89 -24 -146 -76q-60 -52 -60 -123q0 -72 61 -124q63 -54 147 -76q87 -23 181 -23z" />
    <glyph glyph-name="multiply" unicode="&#xd7;" horiz-adv-x="664" 
d="M586 400l-165 -163l165 -163l-93 -87l-161 159l-161 -159l-93 87l165 163l-165 163l93 87l161 -159l161 159z" />
    <glyph glyph-name="Oslash" unicode="&#xd8;" horiz-adv-x="1144" 
d="M1006 533q92 -87 92 -200q0 -81 -47 -149q-49 -69 -124 -110q-74 -41 -169 -64q-94 -23 -186 -23q-200 0 -352 86l-124 -72l-50 79l91 53q-91 85 -91 200q0 105 80 187q80 81 198 120q117 39 248 39q200 0 352 -87l125 73l49 -79zM183 333q0 -77 69 -133l544 318
q-103 38 -224 38q-98 0 -183 -24q-89 -24 -146 -76q-60 -52 -60 -123zM572 110q95 0 182 23q84 22 147 76q60 53 60 124q0 77 -70 132l-543 -317q100 -38 224 -38z" />
    <glyph glyph-name="Ugrave" unicode="&#xd9;" horiz-adv-x="1133" 
d="M632 711h-131l-162 144h180zM567 -13q-131 0 -241 39q-109 37 -179 118q-70 79 -70 189v331h131v-304q0 -117 104 -183q103 -67 255 -67t255 67q103 66 103 183v304h131v-331q0 -109 -69 -189q-72 -81 -179 -118q-110 -39 -241 -39z" />
    <glyph glyph-name="Uacute" unicode="&#xda;" horiz-adv-x="1133" 
d="M502 711l113 144h180l-162 -144h-131zM567 -13q-131 0 -241 39q-109 37 -179 118q-70 79 -70 189v331h131v-304q0 -117 104 -183q103 -67 255 -67t255 67q103 66 103 183v304h131v-331q0 -109 -69 -189q-72 -81 -179 -118q-110 -39 -241 -39z" />
    <glyph glyph-name="Ucircumflex" unicode="&#xdb;" horiz-adv-x="1133" 
d="M568 792l-64 -81h-169l162 144h141l162 -144h-169zM925 664h131v-331q0 -109 -69 -189q-72 -81 -179 -118q-110 -39 -241 -39t-241 39q-109 37 -179 118q-70 79 -70 189v331h131v-304q0 -117 104 -183q103 -67 255 -67t255 67q103 66 103 183v304z" />
    <glyph glyph-name="Udieresis" unicode="&#xdc;" horiz-adv-x="1133" 
d="M430 698q-43 0 -74 20q-30 20 -30 50q0 32 30 53t74 21q42 0 73 -21q30 -21 30 -53q0 -30 -30 -50q-32 -20 -73 -20zM685 698q-43 0 -74 20q-30 20 -30 50q0 32 30 53t74 21q41 0 73 -21q30 -21 30 -53q0 -30 -30 -50q-32 -20 -73 -20zM567 -13q-131 0 -241 39
q-109 37 -179 118q-70 79 -70 189v331h131v-304q0 -117 104 -183q103 -67 255 -67t255 67q103 66 103 183v304h131v-331q0 -109 -69 -189q-72 -81 -179 -118q-110 -39 -241 -39z" />
    <glyph glyph-name="Yacute" unicode="&#xdd;" horiz-adv-x="1200" 
d="M828 855l-162 -144h-131l113 144h180zM1187 664l-521 -450v-214h-131v213l-522 451h192l395 -340l395 340h192z" />
    <glyph glyph-name="Thorn" unicode="&#xde;" horiz-adv-x="1054" 
d="M607 535q211 0 309 -50q97 -51 97 -169q0 -112 -98 -163q-98 -52 -308 -53h-150q-57 -1 -141 -1q-37 -1 -93 -1v-98h-131v664h131v-132q127 3 384 3zM632 223q134 1 189 24q56 23 56 69q0 49 -55 73q-57 23 -190 23q-201 -1 -409 -4v-186q77 0 168 1h241z" />
    <glyph glyph-name="germandbls" unicode="&#xdf;" horiz-adv-x="1009" 
d="M757 351q108 -27 160 -68q51 -40 51 -97q0 -52 -39 -91q-38 -39 -106 -62q-73 -24 -149 -34q-82 -12 -176 -12q-102 0 -128 3l-55 130q115 -11 183 -11q148 0 240 22q94 21 94 55q0 37 -114 68t-265 31h-81v117h17q167 0 280 25q115 25 115 59q0 31 -70 52t-194 21
q-80 0 -147 -16q-69 -16 -118 -53t-49 -86v-404h-128v404q0 86 67 150q66 63 166 95q99 30 209 30q86 0 152 -10q71 -11 127 -31q58 -21 89 -58q32 -38 32 -88q0 -95 -163 -141z" />
    <glyph glyph-name="agrave" unicode="&#xe0;" horiz-adv-x="943" 
d="M500 520h-131l-162 144h180zM738 474h128v-474h-128v76q-116 -89 -313 -89q-101 0 -187 27q-84 25 -141 85q-56 59 -56 138t54 137q52 57 140 86q86 27 190 27q92 0 173 -22q83 -23 140 -66v75zM456 107q124 0 203 36t79 94q0 57 -78 94q-80 36 -204 36q-126 0 -204 -36
q-78 -38 -77 -94q0 -58 79 -94q80 -36 202 -36z" />
    <glyph glyph-name="aacute" unicode="&#xe1;" horiz-adv-x="943" 
d="M662 664l-162 -144h-131l113 144h180zM738 474h128v-474h-128v76q-116 -89 -313 -89q-101 0 -187 27q-84 25 -141 85q-56 59 -56 138t54 137q52 57 140 86q86 27 190 27q92 0 173 -22q83 -23 140 -66v75zM456 107q124 0 203 36t79 94q0 57 -78 94q-80 36 -204 36
q-126 0 -204 -36q-78 -38 -77 -94q0 -58 79 -94q80 -36 202 -36z" />
    <glyph glyph-name="acircumflex" unicode="&#xe2;" horiz-adv-x="943" 
d="M435 601l-64 -81h-169l162 144h141l162 -144h-169zM738 474h128v-474h-128v76q-116 -89 -313 -89q-101 0 -187 27q-84 25 -141 85q-56 59 -56 138t54 137q52 57 140 86q86 27 190 27q92 0 173 -22q83 -23 140 -66v75zM456 107q124 0 203 36t79 94q0 57 -78 94
q-80 36 -204 36q-126 0 -204 -36q-78 -38 -77 -94q0 -58 79 -94q80 -36 202 -36z" />
    <glyph glyph-name="atilde" unicode="&#xe3;" horiz-adv-x="943" 
d="M356 580q-16 10 -19 -15l-2 -45h-131q0 66 41 110q40 42 106 42q11 0 29 -2q5 -1 13.5 -2.5t10.5 -1.5q5 -1 22 -7q5 -2 11.5 -4.5t7.5 -3.5q2 -1 18 -11q4 -2 7 -4.5t5.5 -4t3.5 -2.5t6.5 -5t10.5 -7q11 -10 16 -13q16 -10 19 15q2 18 2 45h132q0 -66 -41 -109
q-42 -42 -107 -42q-13 0 -31 2q-16 2 -29 6q-12 4 -22 8q-7 1 -22 11l-18 12q-4 1 -20 14q-4 3 -9 6.5t-7 5.5t-3 2zM738 474h128v-474h-128v76q-116 -89 -313 -89q-101 0 -187 27q-84 25 -141 85q-56 59 -56 138t54 137q52 57 140 86q86 27 190 27q92 0 173 -22
q83 -23 140 -66v75zM456 107q124 0 203 36t79 94q0 57 -78 94q-80 36 -204 36q-126 0 -204 -36q-78 -38 -77 -94q0 -58 79 -94q80 -36 202 -36z" />
    <glyph glyph-name="adieresis" unicode="&#xe4;" horiz-adv-x="943" 
d="M308 515q-43 0 -74 20q-30 19 -30 50q0 32 30 53t74 21q42 0 73 -21q30 -21 30 -53q0 -31 -30 -50q-32 -20 -73 -20zM563 515q-43 0 -74 20q-30 19 -30 50q0 32 30 53t74 21q41 0 73 -21q30 -21 30 -53q0 -31 -30 -50q-32 -20 -73 -20zM738 474h128v-474h-128v76
q-116 -89 -313 -89q-101 0 -187 27q-84 25 -141 85q-56 59 -56 138t54 137q52 57 140 86q86 27 190 27q92 0 173 -22q83 -23 140 -66v75zM456 107q124 0 203 36t79 94q0 57 -78 94q-80 36 -204 36q-126 0 -204 -36q-78 -38 -77 -94q0 -58 79 -94q80 -36 202 -36z" />
    <glyph glyph-name="aring" unicode="&#xe5;" horiz-adv-x="943" 
d="M435 516q-85 0 -148 22q-64 22 -64 54q0 31 64 53q63 22 148 22q87 0 150 -22q63 -23 63 -53q0 -32 -63 -54q-62 -22 -150 -22zM435 630q-27 0 -47 -11q-20 -12 -20 -27q0 -16 20 -28q19 -12 47 -12q30 0 50 12q18 12 18 28q0 15 -18 27q-20 11 -50 11zM738 474h128v-474
h-128v76q-116 -89 -313 -89q-101 0 -187 27q-84 25 -141 85q-56 59 -56 138t54 137q52 57 140 86q86 27 190 27q92 0 173 -22q83 -23 140 -66v75zM456 107q124 0 203 36t79 94q0 57 -78 94q-80 36 -204 36q-126 0 -204 -36q-78 -38 -77 -94q0 -58 79 -94q80 -36 202 -36z
" />
    <glyph glyph-name="ae" unicode="&#xe6;" horiz-adv-x="1643" 
d="M1184 487q84 0 161 -19q75 -18 142 -55q63 -37 94 -92q31 -56 16 -124h-684q28 -45 103 -70q78 -26 168 -26q148 0 243 55l93 -82q-61 -40 -152 -63q-92 -24 -184 -24q-88 0 -172 22q-86 23 -146 63v-72h-128v76q-116 -89 -313 -89q-101 0 -187 27q-84 25 -141 85
q-56 59 -56 138t54 137q52 57 140 86q86 27 190 27q92 0 173 -22q83 -23 140 -66v75h128v-72q60 41 145 63q82 22 173 22zM1184 373q-87 0 -162 -23q-73 -24 -103 -64h530q-30 40 -103 64q-75 23 -162 23zM456 107q124 0 203 36t79 94q0 57 -78 94q-80 36 -204 36
q-126 0 -204 -36q-78 -38 -77 -94q0 -58 79 -94q80 -36 202 -36z" />
    <glyph glyph-name="ccedilla" unicode="&#xe7;" horiz-adv-x="825" 
d="M794 85q-110 -86 -299 -97l-17 -21q97 0 142 -16q46 -16 46 -54q0 -79 -325 -79l-24 66q181 0 181 21q0 19 -115 19l39 64q-94 4 -181 34q-84 29 -142 85q-58 55 -58 130q0 77 63 136q62 57 157 86q91 28 197 28q96 0 189 -26q92 -26 152 -75l-78 -101q-29 38 -104 61
q-75 21 -159 21q-110 0 -197 -35q-88 -36 -86 -95q0 -61 87 -95q88 -35 196 -35q73 0 138 16q68 17 105 44z" />
    <glyph glyph-name="egrave" unicode="&#xe8;" horiz-adv-x="917" 
d="M523 520h-131l-162 144h180zM458 487q84 0 161 -19q75 -18 142 -55q63 -37 94 -92q31 -56 16 -124h-684q28 -45 103 -70q78 -26 168 -26q148 0 243 55l93 -82q-61 -40 -152 -63q-92 -24 -184 -24q-101 0 -194 27t-158 86t-65 137q0 77 63 136q62 57 157 86q91 28 197 28z
M458 373q-87 0 -162 -23q-73 -24 -103 -64h530q-30 40 -103 64q-75 23 -162 23z" />
    <glyph glyph-name="eacute" unicode="&#xe9;" horiz-adv-x="917" 
d="M685 664l-162 -144h-131l113 144h180zM458 487q84 0 161 -19q75 -18 142 -55q63 -37 94 -92q31 -56 16 -124h-684q28 -45 103 -70q78 -26 168 -26q148 0 243 55l93 -82q-61 -40 -152 -63q-92 -24 -184 -24q-101 0 -194 27t-158 86t-65 137q0 77 63 136q62 57 157 86
q91 28 197 28zM458 373q-87 0 -162 -23q-73 -24 -103 -64h530q-30 40 -103 64q-75 23 -162 23z" />
    <glyph glyph-name="ecircumflex" unicode="&#xea;" horiz-adv-x="917" 
d="M458 601l-64 -81h-169l162 144h141l162 -144h-169zM458 487q84 0 161 -19q75 -18 142 -55q63 -37 94 -92q31 -56 16 -124h-684q28 -45 103 -70q78 -26 168 -26q148 0 243 55l93 -82q-61 -40 -152 -63q-92 -24 -184 -24q-101 0 -194 27t-158 86t-65 137q0 77 63 136
q62 57 157 86q91 28 197 28zM458 373q-87 0 -162 -23q-73 -24 -103 -64h530q-30 40 -103 64q-75 23 -162 23z" />
    <glyph glyph-name="edieresis" unicode="&#xeb;" horiz-adv-x="917" 
d="M331 515q-43 0 -74 20q-30 19 -30 50q0 32 30 53t74 21q41 0 73 -21q30 -21 30 -53q0 -31 -30 -50q-32 -20 -73 -20zM586 515q-43 0 -74 20q-30 19 -30 50q0 32 30 53t74 21q42 0 73 -21q30 -21 30 -53q0 -31 -30 -50q-32 -20 -73 -20zM458 487q84 0 161 -19
q75 -18 142 -55q63 -37 94 -92q31 -56 16 -124h-684q28 -45 103 -70q78 -26 168 -26q148 0 243 55l93 -82q-61 -40 -152 -63q-92 -24 -184 -24q-101 0 -194 27t-158 86t-65 137q0 77 63 136q62 57 157 86q91 28 197 28zM458 373q-87 0 -162 -23q-73 -24 -103 -64h530
q-30 40 -103 64q-75 23 -162 23z" />
    <glyph glyph-name="igrave" unicode="&#xec;" horiz-adv-x="284" 
d="M207 520h-131l-162 144h180zM78 0v474h128v-474h-128z" />
    <glyph glyph-name="iacute" unicode="&#xed;" horiz-adv-x="284" 
d="M76 520l113 144h180l-162 -144h-131zM78 0v474h128v-474h-128z" />
    <glyph glyph-name="icircumflex" unicode="&#xee;" horiz-adv-x="284" 
d="M142 601l-64 -81h-169l162 144h141l162 -144h-169zM78 0v474h128v-474h-128z" />
    <glyph glyph-name="idieresis" unicode="&#xef;" horiz-adv-x="284" 
d="M15 515q-43 0 -74 20q-30 19 -30 50q0 32 30 53t74 21q41 0 73 -21q30 -21 30 -53q0 -31 -30 -50q-32 -20 -73 -20zM270 515q-43 0 -74 20q-30 19 -30 50q0 32 30 53t74 21q42 0 73 -21q30 -21 30 -53q0 -31 -30 -50q-32 -20 -73 -20zM78 0v474h128v-474h-128z" />
    <glyph glyph-name="eth" unicode="&#xf0;" horiz-adv-x="916" 
d="M875 239v-2q0 -78 -64 -136q-66 -59 -157 -86q-93 -28 -196 -28q-101 0 -194 27t-158 86t-65 137q0 77 63 136q62 57 157 86q91 28 197 28q108 0 209 -32q-119 87 -307 129l-289 -97l-30 89l112 37q-44 4 -112 4v94q161 0 310 -32l194 65l196 -33l-229 -77
q166 -60 264 -159q98 -101 99 -236zM741 237q0 31 -25 56q-24 24 -66 41q-37 15 -91 25q-53 8 -101 8q-110 0 -197 -35q-88 -36 -86 -95q0 -61 87 -95q88 -35 196 -35q70 0 133 15q64 14 107 45q43 30 43 70z" />
    <glyph glyph-name="ntilde" unicode="&#xf1;" horiz-adv-x="956" 
d="M466 589q-16 10 -19 -15l-2 -45h-131q0 66 41 110q41 42 106 42q11 0 29 -2q5 -1 13.5 -2.5t10.5 -1.5q5 -1 22 -7q5 -2 11.5 -4.5t7.5 -3.5q2 -1 18 -11q4 -2 7 -4.5t5.5 -4t3.5 -2.5q1 0 6.5 -4t10.5 -8q11 -10 16 -13q16 -10 19 15q2 18 2 45h132q0 -66 -41 -109
q-42 -42 -107 -42q-13 0 -31 2q-16 2 -29 6q-12 4 -22 8q-7 1 -22 11l-18 12q-4 1 -20 14q-4 3 -9 6.5t-7 5.5t-3 2zM544 487q148 0 246 -56q97 -55 97 -155v-276h-128v234q0 134 -242 134q-67 0 -138 -23q-69 -24 -121 -76t-52 -122v-147h-128v474h128v-111q61 59 150 92
q91 32 188 32z" />
    <glyph glyph-name="ograve" unicode="&#xf2;" horiz-adv-x="916" 
d="M523 520h-131l-162 144h180zM458 -13q-101 0 -194 27t-158 86t-65 137q0 77 63 136q62 57 157 86q91 28 197 28q103 0 196 -27q91 -27 157 -86q64 -58 64 -137q0 -78 -64 -136q-66 -59 -157 -86q-93 -28 -196 -28zM458 107q70 0 133 15q64 14 107 45q43 30 43 70
q0 31 -25 56q-24 24 -66 41q-37 15 -91 25q-53 8 -101 8q-110 0 -197 -35q-88 -36 -86 -95q0 -61 87 -95q88 -35 196 -35z" />
    <glyph glyph-name="oacute" unicode="&#xf3;" horiz-adv-x="916" 
d="M392 520l113 144h180l-162 -144h-131zM458 -13q-101 0 -194 27t-158 86t-65 137q0 77 63 136q62 57 157 86q91 28 197 28q103 0 196 -27q91 -27 157 -86q64 -58 64 -137q0 -78 -64 -136q-66 -59 -157 -86q-93 -28 -196 -28zM458 107q70 0 133 15q64 14 107 45
q43 30 43 70q0 31 -25 56q-24 24 -66 41q-37 15 -91 25q-53 8 -101 8q-110 0 -197 -35q-88 -36 -86 -95q0 -61 87 -95q88 -35 196 -35z" />
    <glyph glyph-name="ocircumflex" unicode="&#xf4;" horiz-adv-x="916" 
d="M458 601l-64 -81h-169l162 144h141l162 -144h-169zM458 487q103 0 196 -27q91 -27 157 -86q64 -58 64 -137q0 -78 -64 -136q-66 -59 -157 -86q-93 -28 -196 -28q-101 0 -194 27t-158 86t-65 137q0 77 63 136q62 57 157 86q91 28 197 28zM741 237q0 31 -25 56
q-24 24 -66 41q-37 15 -91 25q-53 8 -101 8q-110 0 -197 -35q-88 -36 -86 -95q0 -61 87 -95q88 -35 196 -35q70 0 133 15q64 14 107 45q43 30 43 70z" />
    <glyph glyph-name="otilde" unicode="&#xf5;" horiz-adv-x="916" 
d="M540 513q-13 0 -31 2q-16 2 -29 6q-12 4 -22 8q-7 1 -22 11l-18 12q-4 1 -20 14q-4 3 -9 6.5t-7 5.5t-3 2q-16 10 -19 -15l-2 -45h-131q0 66 41 110q40 42 106 42q11 0 29 -2q5 -1 13.5 -2.5t10.5 -1.5q5 -1 22 -7q5 -2 11 -4.5t8 -3.5t18 -11q5 -3 10 -7l6 -4
q1 -1 6.5 -5t10.5 -7q11 -10 16 -13q16 -10 19 15q2 18 2 45h132q0 -66 -41 -109q-42 -42 -107 -42zM458 -13q-101 0 -194 27t-158 86t-65 137q0 77 63 136q62 57 157 86q91 28 197 28q103 0 196 -27q91 -27 157 -86q64 -58 64 -137q0 -78 -64 -136q-66 -59 -157 -86
q-93 -28 -196 -28zM458 107q70 0 133 15q64 14 107 45q43 30 43 70q0 31 -25 56q-24 24 -66 41q-37 15 -91 25q-53 8 -101 8q-110 0 -197 -35q-88 -36 -86 -95q0 -61 87 -95q88 -35 196 -35z" />
    <glyph glyph-name="odieresis" unicode="&#xf6;" horiz-adv-x="916" 
d="M331 515q-43 0 -74 20q-30 19 -30 50q0 32 30 53t74 21q41 0 73 -21q30 -21 30 -53q0 -31 -30 -50q-32 -20 -73 -20zM586 515q-43 0 -74 20q-30 19 -30 50q0 32 30 53t74 21q42 0 73 -21q30 -21 30 -53q0 -31 -30 -50q-32 -20 -73 -20zM458 -13q-101 0 -194 27t-158 86
t-65 137q0 77 63 136q62 57 157 86q91 28 197 28q103 0 196 -27q91 -27 157 -86q64 -58 64 -137q0 -78 -64 -136q-66 -59 -157 -86q-93 -28 -196 -28zM458 107q70 0 133 15q64 14 107 45q43 30 43 70q0 31 -25 56q-24 24 -66 41q-37 15 -91 25q-53 8 -101 8q-110 0 -197 -35
q-88 -36 -86 -95q0 -61 87 -95q88 -35 196 -35z" />
    <glyph glyph-name="divide" unicode="&#xf7;" horiz-adv-x="664" 
d="M332 341q-42 0 -73 20q-30 20 -30 50q0 32 30 53t73 21q42 0 74 -21q30 -21 30 -53q0 -30 -30 -50q-32 -20 -74 -20zM71 200v73h522v-73h-522zM332 -11q-42 0 -73 20q-30 20 -30 50q0 32 30 53t73 21q42 0 74 -21q30 -21 30 -53q0 -31 -30 -50q-32 -20 -74 -20z" />
    <glyph glyph-name="oslash" unicode="&#xf8;" horiz-adv-x="916" 
d="M814 372q61 -58 61 -135q0 -78 -64 -136q-66 -59 -157 -86q-93 -28 -196 -28q-143 0 -257 51l-118 -64l-45 80l73 40q-70 61 -70 143q0 77 63 136q62 57 157 86q91 28 197 28q153 0 270 -57l105 57l45 -80zM175 237q0 -45 55 -79l357 195q-67 14 -129 14q-110 0 -197 -35
q-88 -36 -86 -95zM741 237q0 41 -43 72l-352 -192q50 -10 112 -10q70 0 133 15q64 14 107 45q43 30 43 70z" />
    <glyph glyph-name="ugrave" unicode="&#xf9;" horiz-adv-x="956" 
d="M539 520h-131l-162 144h180zM750 474h128v-474h-128v92q-60 -51 -150 -78q-92 -27 -189 -27q-153 0 -248 68q-94 67 -94 193v226h128v-218q0 -74 71 -112q70 -37 183 -37q71 0 135 16q67 17 115 55q49 39 49 92v204z" />
    <glyph glyph-name="uacute" unicode="&#xfa;" horiz-adv-x="956" 
d="M701 664l-162 -144h-131l113 144h180zM750 474h128v-474h-128v92q-60 -51 -150 -78q-92 -27 -189 -27q-153 0 -248 68q-94 67 -94 193v226h128v-218q0 -74 71 -112q70 -37 183 -37q71 0 135 16q67 17 115 55q49 39 49 92v204z" />
    <glyph glyph-name="ucircumflex" unicode="&#xfb;" horiz-adv-x="956" 
d="M474 601l-64 -81h-169l162 144h141l162 -144h-169zM750 474h128v-474h-128v92q-60 -51 -150 -78q-92 -27 -189 -27q-153 0 -248 68q-94 67 -94 193v226h128v-218q0 -74 71 -112q70 -37 183 -37q71 0 135 16q67 17 115 55q49 39 49 92v204z" />
    <glyph glyph-name="udieresis" unicode="&#xfc;" horiz-adv-x="956" 
d="M347 515q-43 0 -74 20q-30 19 -30 50q0 32 30 53t74 21q41 0 73 -21q30 -21 30 -53q0 -31 -30 -50q-32 -20 -73 -20zM602 515q-43 0 -74 20q-30 19 -30 50q0 32 30 53t74 21q42 0 73 -21q30 -21 30 -53q0 -31 -30 -50q-32 -20 -73 -20zM750 474h128v-474h-128v92
q-60 -51 -150 -78q-92 -27 -189 -27q-153 0 -248 68q-94 67 -94 193v226h128v-218q0 -74 71 -112q70 -37 183 -37q71 0 135 16q67 17 115 55q49 39 49 92v204z" />
    <glyph glyph-name="yacute" unicode="&#xfd;" horiz-adv-x="889" 
d="M671 664l-162 -144h-131l113 144h180zM733 474h156l-499 -659h-155l139 185l-374 474h157l295 -371z" />
    <glyph glyph-name="thorn" unicode="&#xfe;" horiz-adv-x="943" 
d="M518 487q104 0 190 -27q88 -29 140 -86q54 -58 54 -137t-56 -138q-57 -60 -141 -85q-85 -27 -187 -27q-89 0 -173 23q-86 23 -139 65v-260h-128v849h128v-265q57 43 140 66q81 22 172 22zM768 237q1 56 -77 94q-78 36 -204 36q-117 0 -195 -32q-77 -33 -86 -86v-24
q9 -54 87 -85q76 -33 194 -33q123 0 202 36t79 94z" />
    <glyph glyph-name="ydieresis" unicode="&#xff;" horiz-adv-x="889" 
d="M317 515q-43 0 -74 20q-30 19 -30 50q0 32 30 53t74 21q41 0 73 -21q30 -21 30 -53q0 -31 -30 -50q-32 -20 -73 -20zM572 515q-43 0 -74 20q-30 19 -30 50q0 32 30 53t74 21q42 0 73 -21q30 -21 30 -53q0 -31 -30 -50q-32 -20 -73 -20zM733 474h156l-499 -659h-155
l139 185l-374 474h157l295 -371z" />
    <glyph glyph-name="Amacron" unicode="&#x100;" horiz-adv-x="1093" 
d="M741 822v-111h-392v111h392zM932 0l-88 127h-594l-88 -127h-156l459 664h163l459 -664h-155zM335 250h424l-212 307z" />
    <glyph glyph-name="amacron" unicode="&#x101;" horiz-adv-x="943" 
d="M631 631v-111h-392v111h392zM738 474h128v-474h-128v76q-116 -89 -313 -89q-101 0 -187 27q-84 25 -141 85q-56 59 -56 138t54 137q52 57 140 86q86 27 190 27q92 0 173 -22q83 -23 140 -66v75zM456 107q124 0 203 36t79 94q0 57 -78 94q-80 36 -204 36q-126 0 -204 -36
q-78 -38 -77 -94q0 -58 79 -94q80 -36 202 -36z" />
    <glyph glyph-name="Abreve" unicode="&#x102;" horiz-adv-x="1093" 
d="M545 705q-91 0 -153 43q-64 43 -64 107h141q0 -33 23 -54q22 -21 53 -21q30 0 54 21q23 21 23 54h140q0 -63 -63 -107q-64 -43 -154 -43zM932 0l-88 127h-594l-88 -127h-156l459 664h163l459 -664h-155zM335 250h424l-212 307z" />
    <glyph glyph-name="abreve" unicode="&#x103;" horiz-adv-x="943" 
d="M435 514q-91 0 -153 43q-64 43 -64 107h141q0 -33 23 -54q22 -21 53 -21q30 0 54 21q23 21 23 54h140q0 -64 -63 -107q-64 -43 -154 -43zM738 474h128v-474h-128v76q-116 -89 -313 -89q-101 0 -187 27q-84 25 -141 85q-56 59 -56 138t54 137q52 57 140 86q86 27 190 27
q92 0 173 -22q83 -23 140 -66v75zM456 107q124 0 203 36t79 94q0 57 -78 94q-80 36 -204 36q-126 0 -204 -36q-78 -38 -77 -94q0 -58 79 -94q80 -36 202 -36z" />
    <glyph glyph-name="Aogonek" unicode="&#x104;" horiz-adv-x="1093" 
d="M937 -90q0 -23 28 -30q29 -8 101 -8l-18 -54q-141 0 -211 17q-69 17 -69 56q0 72 160 115l-84 121h-594l-88 -127h-156l459 664h163l459 -664q-61 -10 -105 -36q-45 -26 -45 -54zM335 250h424l-212 307z" />
    <glyph glyph-name="aogonek" unicode="&#x105;" horiz-adv-x="943" 
d="M738 474h128v-474h-1q-61 -11 -104 -36q-45 -26 -45 -54q0 -22 27 -30q29 -8 101 -8l-18 -54q-141 0 -211 17q-69 17 -69 56q0 76 192 121v64q-116 -89 -313 -89q-101 0 -187 27q-84 25 -141 85q-56 59 -56 138t54 137q52 57 140 86q86 27 190 27q92 0 173 -22
q83 -23 140 -66v75zM456 107q124 0 203 36t79 94q0 57 -78 94q-80 36 -204 36q-126 0 -204 -36q-78 -38 -77 -94q0 -58 79 -94q80 -36 202 -36z" />
    <glyph glyph-name="Cacute" unicode="&#x106;" horiz-adv-x="1053" 
d="M509 711l113 144h180l-162 -144h-131zM576 -13q-92 0 -186 23q-96 23 -170 64q-77 40 -126 109q-48 67 -48 150q0 80 47 148q46 67 122 110q79 43 169 65q95 23 190 23q128 0 243 -36q112 -36 181 -101l-73 -110q-54 61 -146 93q-92 31 -205 31q-167 0 -279 -64
t-112 -159q0 -94 112 -158q113 -65 281 -65q103 0 201 29q95 29 150 75l91 -92q-75 -64 -198 -99q-123 -36 -244 -36z" />
    <glyph glyph-name="cacute" unicode="&#x107;" horiz-adv-x="825" 
d="M392 520l113 144h180l-162 -144h-131zM458 -13q-101 0 -194 27t-158 86t-65 137q0 77 63 136q62 57 157 86q91 28 197 28q96 0 189 -26q92 -26 152 -75l-78 -101q-29 38 -104 61q-75 21 -159 21q-110 0 -197 -35q-88 -36 -86 -95q0 -61 87 -95q88 -35 196 -35
q73 0 138 16q68 17 105 44l93 -82q-60 -47 -150 -72q-93 -26 -186 -26z" />
    <glyph glyph-name="Ccircumflex" unicode="&#x108;" horiz-adv-x="1053" 
d="M575 792l-64 -81h-169l162 144h141l162 -144h-169zM927 214l91 -92q-75 -64 -198 -99q-123 -36 -244 -36q-92 0 -186 23q-96 23 -170 64q-77 40 -126 109q-48 67 -48 150q0 80 47 148q46 67 122 110q79 43 169 65q95 23 190 23q128 0 243 -36q112 -36 181 -101l-73 -110
q-54 61 -146 93q-92 31 -205 31q-167 0 -279 -64t-112 -159q0 -94 112 -158q113 -65 281 -65q103 0 201 29q95 29 150 75z" />
    <glyph glyph-name="ccircumflex" unicode="&#x109;" horiz-adv-x="825" 
d="M458 601l-64 -81h-169l162 144h141l162 -144h-169zM458 107q73 0 138 16q68 17 105 44l93 -82q-60 -47 -150 -72q-93 -26 -186 -26q-101 0 -194 27t-158 86t-65 137q0 77 63 136q62 57 157 86q91 28 197 28q96 0 189 -26q92 -26 152 -75l-78 -101q-29 38 -104 61
q-75 21 -159 21q-110 0 -197 -35q-88 -36 -86 -95q0 -61 87 -95q88 -35 196 -35z" />
    <glyph glyph-name="Cdotaccent" unicode="&#x10a;" horiz-adv-x="1053" 
d="M575 695q-43 0 -74 20q-30 19 -30 50q0 32 30 53t74 21q41 0 73 -21q30 -21 30 -53q0 -31 -30 -50q-32 -20 -73 -20zM576 -13q-92 0 -186 23q-96 23 -170 64q-77 40 -126 109q-48 67 -48 150q0 80 47 148q46 67 122 110q79 43 169 65q95 23 190 23q128 0 243 -36
q112 -36 181 -101l-73 -110q-54 61 -146 93q-92 31 -205 31q-167 0 -279 -64t-112 -159q0 -94 112 -158q113 -65 281 -65q103 0 201 29q95 29 150 75l91 -92q-75 -64 -198 -99q-123 -36 -244 -36z" />
    <glyph glyph-name="cdotaccent" unicode="&#x10b;" horiz-adv-x="825" 
d="M459 515q-43 0 -74 20q-30 19 -30 50q0 32 30 53t74 21q41 0 73 -21q30 -21 30 -53q0 -31 -30 -50q-32 -20 -73 -20zM458 -13q-101 0 -194 27t-158 86t-65 137q0 77 63 136q62 57 157 86q91 28 197 28q96 0 189 -26q92 -26 152 -75l-78 -101q-29 38 -104 61
q-75 21 -159 21q-110 0 -197 -35q-88 -36 -86 -95q0 -61 87 -95q88 -35 196 -35q73 0 138 16q68 17 105 44l93 -82q-60 -47 -150 -72q-93 -26 -186 -26z" />
    <glyph glyph-name="Ccaron" unicode="&#x10c;" horiz-adv-x="1053" 
d="M644 702h-141l-162 144h169l64 -81l63 81h169zM927 214l91 -92q-75 -64 -198 -99q-123 -36 -244 -36q-92 0 -186 23q-96 23 -170 64q-77 40 -126 109q-48 67 -48 150q0 80 47 148q46 67 122 110q79 43 169 65q95 23 190 23q128 0 243 -36q112 -36 181 -101l-73 -110
q-54 61 -146 93q-92 31 -205 31q-167 0 -279 -64t-112 -159q0 -94 112 -158q113 -65 281 -65q103 0 201 29q95 29 150 75z" />
    <glyph glyph-name="ccaron" unicode="&#x10d;" horiz-adv-x="825" 
d="M528 520h-141l-162 144h169l64 -81l63 81h169zM458 107q73 0 138 16q68 17 105 44l93 -82q-60 -47 -150 -72q-93 -26 -186 -26q-101 0 -194 27t-158 86t-65 137q0 77 63 136q62 57 157 86q91 28 197 28q96 0 189 -26q92 -26 152 -75l-78 -101q-29 38 -104 61
q-75 21 -159 21q-110 0 -197 -35q-88 -36 -86 -95q0 -61 87 -95q88 -35 196 -35z" />
    <glyph glyph-name="Dcaron" unicode="&#x10e;" horiz-adv-x="1080" 
d="M541 702h-141l-162 144h169l64 -81l63 81h169zM457 670q119 0 219 -18q99 -18 183 -56q83 -38 129 -105t46 -158q0 -64 -22 -114q-23 -53 -62 -88q-38 -35 -94 -64q-52 -27 -119 -42q-59 -15 -135 -23q-74 -8 -145 -8q-89 0 -211 2q-23 0 -52 0.5t-45 1t-25 0.5l-32 2
v664q98 6 365 6zM457 117q439 0 439 216q0 214 -439 214q-88 0 -234 -2v-426q146 -2 234 -2z" />
    <glyph glyph-name="dcaron" unicode="&#x10f;" horiz-adv-x="1246" 
d="M1095 676q42 0 73 -23q30 -24 30 -66q0 -67 -56 -106q-55 -40 -150 -40v51q93 0 134 44q-45 -10 -90 9t-45 57q0 32 30 53t74 21zM737 399v265h128v-664h-128v75q-54 -42 -138 -65t-174 -23q-101 0 -187 27q-84 25 -141 85q-56 59 -56 138t54 137q52 57 140 86
q86 27 190 27q91 0 172 -22q83 -23 140 -66zM456 107q117 0 195 33q77 32 86 85v24q-9 53 -86 86q-78 32 -195 32q-126 0 -204 -36q-78 -38 -77 -94q0 -58 79 -94q80 -36 202 -36z" />
    <glyph glyph-name="Dcroat" unicode="&#x110;" horiz-adv-x="1080" 
d="M457 670q119 0 219 -18q99 -18 183 -56q83 -38 129 -105t46 -158q0 -64 -22 -114q-23 -53 -62 -88q-38 -35 -94 -64q-52 -27 -119 -42q-59 -15 -135 -23q-74 -8 -145 -8q-89 0 -211 2q-23 0 -52 0.5t-45 1t-25 0.5l-32 2v299h-92v92h92v273q98 6 365 6zM457 117
q439 0 439 216q0 214 -439 214q-88 0 -234 -2v-154h147v-92h-147v-180q146 -2 234 -2z" />
    <glyph glyph-name="dcroat" unicode="&#x111;" horiz-adv-x="943" 
d="M943 622v-92h-78v-530h-128v75q-54 -42 -138 -65t-174 -23q-101 0 -187 27q-84 25 -141 85q-56 59 -56 138t54 137q52 57 140 86q86 27 190 27q91 0 172 -22q83 -23 140 -66v131h-164v92h164v42h128v-42h78zM456 107q117 0 195 33q77 32 86 85v24q-9 53 -86 86
q-78 32 -195 32q-126 0 -204 -36q-78 -38 -77 -94q0 -58 79 -94q80 -36 202 -36z" />
    <glyph glyph-name="Emacron" unicode="&#x112;" horiz-adv-x="981" 
d="M705 822v-111h-392v111h392zM925 541h-702v-134h612v-123h-612v-161h702v-123h-833v664h833v-123z" />
    <glyph glyph-name="emacron" unicode="&#x113;" horiz-adv-x="917" 
d="M654 631v-111h-392v111h392zM458 487q84 0 161 -19q75 -18 142 -55q63 -37 94 -92q31 -56 16 -124h-684q28 -45 103 -70q78 -26 168 -26q148 0 243 55l93 -82q-61 -40 -152 -63q-92 -24 -184 -24q-101 0 -194 27t-158 86t-65 137q0 77 63 136q62 57 157 86q91 28 197 28z
M458 373q-87 0 -162 -23q-73 -24 -103 -64h530q-30 40 -103 64q-75 23 -162 23z" />
    <glyph glyph-name="Ebreve" unicode="&#x114;" horiz-adv-x="981" 
d="M509 705q-91 0 -153 43q-64 43 -64 107h141q0 -33 23 -54q22 -21 53 -21q30 0 54 21q23 21 23 54h140q0 -63 -63 -107q-64 -43 -154 -43zM925 541h-702v-134h612v-123h-612v-161h702v-123h-833v664h833v-123z" />
    <glyph glyph-name="ebreve" unicode="&#x115;" horiz-adv-x="917" 
d="M458 514q-91 0 -153 43q-64 43 -64 107h141q0 -33 23 -54t53 -21t54 21q23 21 23 54h140q0 -64 -63 -107q-64 -43 -154 -43zM458 487q84 0 161 -19q75 -18 142 -55q63 -37 94 -92q31 -56 16 -124h-684q28 -45 103 -70q78 -26 168 -26q148 0 243 55l93 -82
q-61 -40 -152 -63q-92 -24 -184 -24q-101 0 -194 27t-158 86t-65 137q0 77 63 136q62 57 157 86q91 28 197 28zM458 373q-87 0 -162 -23q-73 -24 -103 -64h530q-30 40 -103 64q-75 23 -162 23z" />
    <glyph glyph-name="Edotaccent" unicode="&#x116;" horiz-adv-x="981" 
d="M510 695q-43 0 -74 20q-30 19 -30 50q0 32 30 53t74 21q42 0 73 -21q30 -21 30 -53q0 -31 -30 -50q-32 -20 -73 -20zM925 541h-702v-134h612v-123h-612v-161h702v-123h-833v664h833v-123z" />
    <glyph glyph-name="edotaccent" unicode="&#x117;" horiz-adv-x="917" 
d="M459 515q-43 0 -74 20q-30 19 -30 50q0 32 30 53t74 21q41 0 73 -21q30 -21 30 -53q0 -31 -30 -50q-32 -20 -73 -20zM458 487q84 0 161 -19q75 -18 142 -55q63 -37 94 -92q31 -56 16 -124h-684q28 -45 103 -70q78 -26 168 -26q148 0 243 55l93 -82q-61 -40 -152 -63
q-92 -24 -184 -24q-101 0 -194 27t-158 86t-65 137q0 77 63 136q62 57 157 86q91 28 197 28zM458 373q-87 0 -162 -23q-73 -24 -103 -64h530q-30 40 -103 64q-75 23 -162 23z" />
    <glyph glyph-name="Eogonek" unicode="&#x118;" horiz-adv-x="981" 
d="M925 541h-702v-134h612v-123h-612v-161h702v-123q-49 -10 -90 -36q-41 -27 -41 -54q0 -22 27 -30q29 -8 101 -8l-18 -54q-141 0 -211 17q-69 17 -69 56q0 66 139 109h-671v664h833v-123z" />
    <glyph glyph-name="eogonek" unicode="&#x119;" horiz-adv-x="916" 
d="M458 487q84 0 161 -19q75 -18 142 -55q63 -37 94 -92q31 -56 16 -124h-684q28 -45 103 -70q78 -26 168 -26q148 0 243 55l93 -82q-81 -53 -210 -76q-50 -15 -84 -39q-35 -26 -35 -49t28 -30q29 -8 101 -8l-18 -54q-141 0 -211 17q-69 17 -69 56q0 57 107 98
q-94 8 -173 36t-134 85q-55 55 -55 127q0 77 63 136q62 57 157 86q91 28 197 28zM458 373q-87 0 -162 -23q-73 -24 -103 -64h530q-30 40 -103 64q-75 23 -162 23z" />
    <glyph glyph-name="Ecaron" unicode="&#x11a;" horiz-adv-x="981" 
d="M579 702h-141l-162 144h169l64 -81l63 81h169zM925 541h-702v-134h612v-123h-612v-161h702v-123h-833v664h833v-123z" />
    <glyph glyph-name="ecaron" unicode="&#x11b;" horiz-adv-x="917" 
d="M528 520h-141l-162 144h169l64 -81l63 81h169zM458 487q84 0 161 -19q75 -18 142 -55q63 -37 94 -92q31 -56 16 -124h-684q28 -45 103 -70q78 -26 168 -26q148 0 243 55l93 -82q-61 -40 -152 -63q-92 -24 -184 -24q-101 0 -194 27t-158 86t-65 137q0 77 63 136
q62 57 157 86q91 28 197 28zM458 373q-87 0 -162 -23q-73 -24 -103 -64h530q-30 40 -103 64q-75 23 -162 23z" />
    <glyph glyph-name="Gcircumflex" unicode="&#x11c;" horiz-adv-x="1150" 
d="M575 792l-64 -81h-169l162 144h141l162 -144h-169zM455 372h617v-372h-131v123q-139 -136 -385 -136q-89 0 -179 23q-92 23 -163 64q-74 41 -121 110q-47 68 -47 149q0 80 47 148q46 67 122 110q79 43 169 65q95 23 190 23q128 0 243 -36q112 -36 181 -101l-73 -110
q-54 61 -146 93q-92 31 -205 31q-167 0 -279 -64t-112 -159q0 -72 59 -125q58 -52 144 -75t180 -23q119 0 224 37q105 36 153 102h-488v123z" />
    <glyph glyph-name="gcircumflex" unicode="&#x11d;" horiz-adv-x="943" 
d="M425 601l-64 -81h-169l162 144h141l162 -144h-169zM738 474h127v-397q0 -73 -37 -128q-37 -54 -100 -86q-64 -32 -137 -47q-73 -16 -160 -16q-106 0 -201 23q-92 22 -148 64l93 84q34 -24 106 -41q68 -16 153 -16q78 0 145 15q66 15 114 47q45 31 45 76v24
q-116 -89 -313 -89q-101 0 -187 27q-84 25 -141 85q-56 59 -56 138t54 137q52 57 140 86q86 27 190 27q92 0 173 -22q83 -23 140 -66v75zM456 107q124 0 203 36t79 94q0 57 -78 94q-80 36 -204 36q-126 0 -204 -36q-78 -38 -77 -94q0 -58 79 -94q80 -36 202 -36z" />
    <glyph glyph-name="Gbreve" unicode="&#x11e;" horiz-adv-x="1150" 
d="M574 705q-91 0 -153 43q-64 43 -64 107h141q0 -33 23 -54t53 -21t54 21q23 21 23 54h140q0 -63 -63 -107q-64 -43 -154 -43zM455 372h617v-372h-131v123q-139 -136 -385 -136q-89 0 -179 23q-92 23 -163 64q-74 41 -121 110q-47 68 -47 149q0 80 47 148q46 67 122 110
q79 43 169 65q95 23 190 23q128 0 243 -36q112 -36 181 -101l-73 -110q-54 61 -146 93q-92 31 -205 31q-167 0 -279 -64t-112 -159q0 -72 59 -125q58 -52 144 -75t180 -23q119 0 224 37q105 36 153 102h-488v123z" />
    <glyph glyph-name="gbreve" unicode="&#x11f;" horiz-adv-x="943" 
d="M425 514q-91 0 -153 43q-64 43 -64 107h141q0 -33 23 -54t53 -21t54 21q23 21 23 54h140q0 -64 -63 -107q-64 -43 -154 -43zM738 474h127v-397q0 -73 -37 -128q-37 -54 -100 -86q-64 -32 -137 -47q-73 -16 -160 -16q-106 0 -201 23q-92 22 -148 64l93 84q34 -24 106 -41
q68 -16 153 -16q78 0 145 15q66 15 114 47q45 31 45 76v24q-116 -89 -313 -89q-101 0 -187 27q-84 25 -141 85q-56 59 -56 138t54 137q52 57 140 86q86 27 190 27q92 0 173 -22q83 -23 140 -66v75zM456 107q124 0 203 36t79 94q0 57 -78 94q-80 36 -204 36q-126 0 -204 -36
q-78 -38 -77 -94q0 -58 79 -94q80 -36 202 -36z" />
    <glyph glyph-name="Gdotaccent" unicode="&#x120;" horiz-adv-x="1150" 
d="M575 695q-43 0 -74 20q-30 19 -30 50q0 32 30 53t74 21q41 0 73 -21q30 -21 30 -53q0 -31 -30 -50q-32 -20 -73 -20zM455 372h617v-372h-131v123q-139 -136 -385 -136q-89 0 -179 23q-92 23 -163 64q-74 41 -121 110q-47 68 -47 149q0 80 47 148q46 67 122 110
q79 43 169 65q95 23 190 23q128 0 243 -36q112 -36 181 -101l-73 -110q-54 61 -146 93q-92 31 -205 31q-167 0 -279 -64t-112 -159q0 -72 59 -125q58 -52 144 -75t180 -23q119 0 224 37q105 36 153 102h-488v123z" />
    <glyph glyph-name="gdotaccent" unicode="&#x121;" horiz-adv-x="943" 
d="M426 515q-43 0 -74 20q-30 19 -30 50q0 32 30 53t74 21q41 0 73 -21q30 -21 30 -53q0 -31 -30 -50q-32 -20 -73 -20zM738 474h127v-397q0 -73 -37 -128q-37 -54 -100 -86q-64 -32 -137 -47q-73 -16 -160 -16q-106 0 -201 23q-92 22 -148 64l93 84q34 -24 106 -41
q68 -16 153 -16q78 0 145 15q66 15 114 47q45 31 45 76v24q-116 -89 -313 -89q-101 0 -187 27q-84 25 -141 85q-56 59 -56 138t54 137q52 57 140 86q86 27 190 27q92 0 173 -22q83 -23 140 -66v75zM456 107q124 0 203 36t79 94q0 57 -78 94q-80 36 -204 36q-126 0 -204 -36
q-78 -38 -77 -94q0 -58 79 -94q80 -36 202 -36z" />
    <glyph glyph-name="Gcommaaccent" unicode="&#x122;" horiz-adv-x="1150" 
d="M455 372h617v-372h-131v123q-139 -136 -385 -136q-89 0 -179 23q-92 23 -163 64q-74 41 -121 110q-47 68 -47 149q0 80 47 148q46 67 122 110q79 43 169 65q95 23 190 23q128 0 243 -36q112 -36 181 -101l-73 -110q-54 61 -146 93q-92 31 -205 31q-167 0 -279 -64
t-112 -159q0 -72 59 -125q58 -52 144 -75t180 -23q119 0 224 37q105 36 153 102h-488v123zM555 -34q42 0 73 -23q30 -24 30 -66q0 -67 -56 -106q-55 -40 -150 -40v51q93 0 134 44q-45 -10 -90 9t-45 57q0 32 30 53t74 21z" />
    <glyph glyph-name="gcommaaccent" unicode="&#x123;" horiz-adv-x="943" 
d="M428 516q-43 0 -73 24q-30 22 -30 65q0 66 56 107q55 39 150 39v-51q-93 0 -134 -44q45 10 90 -9t45 -57q0 -32 -30 -53t-74 -21zM738 474h127v-397q0 -73 -37 -128q-37 -54 -100 -86q-64 -32 -137 -47q-73 -16 -160 -16q-106 0 -201 23q-92 22 -148 64l93 84
q34 -24 106 -41q68 -16 153 -16q78 0 145 15q66 15 114 47q45 31 45 76v24q-116 -89 -313 -89q-101 0 -187 27q-84 25 -141 85q-56 59 -56 138t54 137q52 57 140 86q86 27 190 27q92 0 173 -22q83 -23 140 -66v75zM456 107q124 0 203 36t79 94q0 57 -78 94q-80 36 -204 36
q-126 0 -204 -36q-78 -38 -77 -94q0 -58 79 -94q80 -36 202 -36z" />
    <glyph glyph-name="Hcircumflex" unicode="&#x124;" horiz-adv-x="1112" 
d="M557 792l-64 -81h-169l162 144h141l162 -144h-169zM889 664h131v-664h-131v284h-666v-284h-131v664h131v-257h666v257z" />
    <glyph glyph-name="hcircumflex" unicode="&#x125;" horiz-adv-x="955" 
d="M155 792l-64 -81h-169l162 144h141l162 -144h-169zM544 487q148 0 246 -56q97 -55 97 -155v-276h-128v234q0 134 -242 134q-67 0 -138 -23q-69 -24 -121 -76t-52 -122v-147h-128v664h128v-301q61 59 150 92q91 32 188 32z" />
    <glyph glyph-name="Hbar" unicode="&#x126;" horiz-adv-x="1112" 
d="M1112 568v-92h-92v-476h-131v284h-666v-284h-131v476h-92v92h92v96h131v-96h666v96h131v-96h92zM889 407v69h-666v-69h666z" />
    <glyph glyph-name="hbar" unicode="&#x127;" horiz-adv-x="955" 
d="M544 487q148 0 246 -56q97 -55 97 -155v-276h-128v234q0 134 -242 134q-67 0 -138 -23q-69 -24 -121 -76t-52 -122v-147h-128v530h-78v92h78v42h128v-42h164v-92h-164v-167q61 59 150 92q91 32 188 32z" />
    <glyph glyph-name="Itilde" unicode="&#x128;" horiz-adv-x="315" 
d="M241 704q-13 0 -31 2q-16 2 -29 6q-12 4 -22 8q-7 1 -22 11l-18 12q-4 1 -20 14q-4 3 -9 6.5t-7 5.5t-3 2q-16 10 -19 -15l-2 -45h-131q0 66 41 110q40 42 106 42q11 0 29 -2q5 -1 13.5 -2.5t10.5 -1.5q5 -1 22 -7q5 -2 11 -4.5t8 -3.5t18 -11q4 -2 7 -4.5t5.5 -4
t3.5 -2.5q1 0 6.5 -4t10.5 -8q11 -10 16 -13q16 -10 19 15l2 45h132q0 -66 -41 -109q-42 -42 -107 -42zM92 0v664h131v-664h-131z" />
    <glyph glyph-name="itilde" unicode="&#x129;" horiz-adv-x="284" 
d="M224 513q-13 0 -31 2q-16 2 -29 6q-12 4 -22 8q-7 1 -22 11l-18 12q-4 1 -20 14q-4 3 -9 6.5t-7 5.5t-3 2q-16 10 -19 -15l-2 -45h-131q0 66 41 110q40 42 106 42q11 0 29 -2q5 -1 13.5 -2.5t10.5 -1.5q5 -1 22 -7q5 -2 11.5 -4.5t7.5 -3.5q2 -1 18 -11q5 -3 10 -7l6 -4
q1 -1 6.5 -5t10.5 -7q11 -10 16 -13q16 -10 19 15q2 18 2 45h132q0 -66 -41 -109q-42 -42 -107 -42zM78 0v474h128v-474h-128z" />
    <glyph glyph-name="Imacron" unicode="&#x12a;" horiz-adv-x="315" 
d="M-38 711v111h392v-111h-392zM92 0v664h131v-664h-131z" />
    <glyph glyph-name="imacron" unicode="&#x12b;" horiz-adv-x="284" 
d="M-54 520v111h392v-111h-392zM78 0v474h128v-474h-128z" />
    <glyph glyph-name="Ibreve" unicode="&#x12c;" horiz-adv-x="315" 
d="M158 705q-91 0 -153 43q-64 43 -64 107h141q0 -33 23 -54t53 -21t54 21q23 21 23 54h140q0 -63 -63 -107q-64 -43 -154 -43zM92 0v664h131v-664h-131z" />
    <glyph glyph-name="ibreve" unicode="&#x12d;" horiz-adv-x="284" 
d="M142 514q-91 0 -153 43q-64 43 -64 107h141q0 -33 23 -54q22 -21 53 -21q30 0 54 21q23 21 23 54h140q0 -64 -63 -107q-64 -43 -154 -43zM78 0v474h128v-474h-128z" />
    <glyph glyph-name="Iogonek" unicode="&#x12e;" horiz-adv-x="315" 
d="M223 0q-61 -11 -104 -36q-45 -26 -45 -54q0 -22 27 -30q29 -8 101 -8l-18 -54q-141 0 -211 17q-69 17 -69 56q0 41 54 73q52 30 134 49v651h131v-664z" />
    <glyph glyph-name="iogonek" unicode="&#x12f;" horiz-adv-x="284" 
d="M143 659q41 0 73 -21q30 -21 30 -53q0 -31 -30 -50q-32 -20 -73 -20q-43 0 -74 20q-30 19 -30 50q0 32 30 53t74 21zM78 14v460h128v-474q-62 -10 -105 -36q-45 -26 -45 -54q0 -23 28 -30q29 -8 101 -8l-18 -54q-141 0 -211 17q-69 17 -69 56q0 42 56 74q54 31 135 49z
" />
    <glyph glyph-name="Idot" unicode="&#x130;" horiz-adv-x="315" 
d="M159 695q-43 0 -74 20q-30 19 -30 50q0 32 30 53t74 21q41 0 73 -21q30 -21 30 -53q0 -31 -30 -50q-32 -20 -73 -20zM92 0v664h131v-664h-131z" />
    <glyph glyph-name="dotlessi" unicode="&#x131;" horiz-adv-x="284" 
d="M78 0v474h128v-474h-128z" />
    <glyph glyph-name="IJ" unicode="&#x132;" horiz-adv-x="1322" 
d="M92 0v664h131v-664h-131zM756 -13q-128 0 -242 36q-113 34 -182 100l74 110q44 -59 140 -91t210 -32q152 0 255 67q103 66 103 183v304h131v-331q0 -109 -69 -189q-72 -81 -179 -118q-109 -39 -241 -39z" />
    <glyph glyph-name="ij" unicode="&#x133;" horiz-adv-x="568" 
d="M143 515q-43 0 -74 20q-30 19 -30 50q0 32 30 53t74 21q41 0 73 -21q30 -21 30 -53q0 -31 -30 -50q-32 -20 -73 -20zM426 515q-43 0 -73 21q-30 20 -30 50q0 32 30 53q31 20 73 20t73 -20q30 -21 30 -53q0 -30 -30 -50q-32 -21 -73 -21zM78 0v474h128v-474h-128z
M268 -200q-23 0 -56 5l56 115q44 0 69 19t25 51v484h128v-505q0 -75 -62 -122q-64 -47 -160 -47z" />
    <glyph glyph-name="Jcircumflex" unicode="&#x134;" horiz-adv-x="1007" 
d="M866 792l-64 -81h-169l162 144h141l162 -144h-169zM799 360v304h131v-331q0 -109 -69 -189q-72 -81 -179 -118q-110 -39 -241 -39q-128 0 -242 36q-113 34 -182 100l74 110q44 -59 140 -91t210 -32q152 0 255 67q103 66 103 183z" />
    <glyph glyph-name="jcircumflex" unicode="&#x135;" horiz-adv-x="284" 
d="M142 601l-64 -81h-169l162 144h141l162 -144h-169zM78 -10v484h128v-505q0 -75 -62 -122q-64 -47 -160 -47q-124 0 -185 72l94 83q23 -35 91 -35q44 0 69 19t25 51z" />
    <glyph glyph-name="Kcommaaccent" unicode="&#x136;" horiz-adv-x="1007" 
d="M581 376l429 -376h-190l-344 303l-253 -177v-126h-131v664h131v-385l554 385h219zM522 -34q42 0 73 -23q30 -24 30 -66q0 -67 -56 -106q-55 -40 -150 -40v51q93 0 134 44q-45 -10 -90 9t-45 57q0 32 30 53t74 21z" />
    <glyph glyph-name="kcommaaccent" unicode="&#x137;" horiz-adv-x="897" 
d="M532 283l371 -283h-199l-289 219l-209 -114v-105h-128v664h128v-422l429 232h252zM461 -34q42 0 73 -23q30 -24 30 -66q0 -67 -56 -106q-55 -40 -150 -40v51q93 0 134 44q-45 -10 -90 9t-45 57q0 32 30 53t74 21z" />
    <glyph glyph-name="kgreenlandic" unicode="&#x138;" horiz-adv-x="897" 
d="M704 0l-289 219l-209 -114v-105h-128v474h128v-232l429 232h252l-355 -191l371 -283h-199z" />
    <glyph glyph-name="Lacute" unicode="&#x139;" horiz-adv-x="935" 
d="M386 855l-162 -144h-131l113 144h180zM223 123h689v-123h-820v664h131v-541z" />
    <glyph glyph-name="lacute" unicode="&#x13a;" horiz-adv-x="284" 
d="M77 711l113 144h180l-162 -144h-131zM78 0v664h128v-664h-128z" />
    <glyph glyph-name="Lcommaaccent" unicode="&#x13b;" horiz-adv-x="935" 
d="M223 123h689v-123h-820v664h131v-541zM502 -34q42 0 73 -23q30 -24 30 -66q0 -67 -56 -106q-55 -40 -150 -40v51q93 0 134 44q-45 -10 -90 9t-45 57q0 32 30 53t74 21z" />
    <glyph glyph-name="lcommaaccent" unicode="&#x13c;" horiz-adv-x="284" 
d="M78 0v664h128v-664h-128zM39 -269v51q93 0 134 44q-45 -10 -90 9t-45 57q0 32 30 53t74 21q42 0 73 -23q30 -24 30 -66q0 -67 -56 -106q-55 -40 -150 -40z" />
    <glyph glyph-name="Lcaron" unicode="&#x13d;" horiz-adv-x="935" 
d="M390 846l-162 -144h-141l-162 144h169l64 -81l63 81h169zM223 123h689v-123h-820v664h131v-541z" />
    <glyph glyph-name="lcaron" unicode="&#x13e;" horiz-adv-x="587" 
d="M333 441v51q93 0 134 44q-45 -10 -90 9t-45 57q0 32 30 53t74 21q42 0 73 -23q30 -24 30 -66q0 -67 -56 -106q-55 -40 -150 -40zM78 0v664h128v-664h-128z" />
    <glyph glyph-name="Ldot" unicode="&#x13f;" horiz-adv-x="952" 
d="M223 123h689v-123h-820v664h131v-541zM634 211q-43 0 -74 20q-30 20 -30 50q0 32 30 53t74 21q42 0 73 -21q30 -21 30 -53q0 -31 -30 -50q-32 -20 -73 -20z" />
    <glyph glyph-name="ldot" unicode="&#x140;" horiz-adv-x="626" 
d="M78 0v664h128v-664h-128zM456 340q-43 0 -74 20q-30 20 -30 50q0 32 30 53t74 21q41 0 73 -21q30 -21 30 -53q0 -30 -30 -50q-32 -20 -73 -20z" />
    <glyph glyph-name="Lslash" unicode="&#x141;" horiz-adv-x="935" 
d="M223 123h689v-123h-820v264l-92 -46v105l92 46v295h131v-230l204 101v-105l-204 -101v-206z" />
    <glyph glyph-name="lslash" unicode="&#x142;" horiz-adv-x="454" 
d="M427 487v-104l-221 -110v-273h-128v210l-78 -39v104l78 39v350h128v-287z" />
    <glyph glyph-name="Nacute" unicode="&#x143;" horiz-adv-x="1182" 
d="M819 855l-162 -144h-131l113 144h180zM959 664h131v-664h-163l-704 530v-530h-131v664h163l704 -530v530z" />
    <glyph glyph-name="nacute" unicode="&#x144;" horiz-adv-x="956" 
d="M772 664l-162 -144h-131l113 144h180zM544 487q148 0 246 -56q97 -55 97 -155v-276h-128v234q0 134 -242 134q-67 0 -138 -23q-69 -24 -121 -76t-52 -122v-147h-128v474h128v-111q61 59 150 92q91 32 188 32z" />
    <glyph glyph-name="Ncommaaccent" unicode="&#x145;" horiz-adv-x="1182" 
d="M959 664h131v-664h-163l-704 530v-530h-131v664h163l704 -530v530zM591 -34q42 0 73 -23q30 -24 30 -66q0 -67 -56 -106q-55 -40 -150 -40v51q93 0 134 44q-45 -10 -90 9t-45 57q0 32 30 53t74 21z" />
    <glyph glyph-name="ncommaaccent" unicode="&#x146;" horiz-adv-x="956" 
d="M544 487q148 0 246 -56q97 -55 97 -155v-276h-128v234q0 134 -242 134q-67 0 -138 -23q-69 -24 -121 -76t-52 -122v-147h-128v474h128v-111q61 59 150 92q91 32 188 32zM483 -34q42 0 73 -23q30 -24 30 -66q0 -67 -56 -106q-55 -40 -150 -40v51q93 0 134 44
q-45 -10 -90 9t-45 57q0 32 30 53t74 21z" />
    <glyph glyph-name="Ncaron" unicode="&#x147;" horiz-adv-x="1182" 
d="M661 702h-141l-162 144h169l64 -81l63 81h169zM959 664h131v-664h-163l-704 530v-530h-131v664h163l704 -530v530z" />
    <glyph glyph-name="ncaron" unicode="&#x148;" horiz-adv-x="956" 
d="M615 520h-141l-162 144h169l64 -81l63 81h169zM544 487q148 0 246 -56q97 -55 97 -155v-276h-128v234q0 134 -242 134q-67 0 -138 -23q-69 -24 -121 -76t-52 -122v-147h-128v474h128v-111q61 59 150 92q91 32 188 32z" />
    <glyph glyph-name="napostrophe" unicode="&#x149;" horiz-adv-x="1228" 
d="M152 676q42 0 73 -23q30 -24 30 -66q0 -67 -56 -106q-55 -40 -150 -40v51q93 0 134 44q-45 -10 -90 9t-45 57q0 32 30 53t74 21zM816 487q148 0 246 -56q97 -55 97 -155v-276h-128v234q0 134 -242 134q-67 0 -138 -23q-69 -24 -121 -76t-52 -122v-147h-128v474h128v-111
q61 59 150 92q91 32 188 32z" />
    <glyph glyph-name="Eng" unicode="&#x14a;" horiz-adv-x="1182" 
d="M959 664h131v-695q0 -75 -62 -122q-64 -47 -160 -47q-23 0 -56 5l56 115q44 0 69 19t25 51v10h-35l-704 530v-530h-131v664h163l704 -530v530z" />
    <glyph glyph-name="eng" unicode="&#x14b;" horiz-adv-x="956" 
d="M544 487q148 0 246 -56q97 -55 97 -155v-307q0 -75 -63 -122q-64 -47 -160 -47q-22 0 -55 5l55 115q45 0 70 19t25 51v244q0 134 -242 134q-67 0 -138 -23q-69 -24 -121 -76t-52 -122v-147h-128v474h128v-111q61 61 150 92q90 32 188 32z" />
    <glyph glyph-name="Omacron" unicode="&#x14c;" horiz-adv-x="1144" 
d="M376 711v111h392v-111h-392zM572 -13q-92 0 -186 23q-93 23 -168 64q-78 43 -124 110q-48 68 -48 149q0 105 80 187q80 81 198 120q117 39 248 39q130 0 249 -39q118 -39 197 -120q80 -82 80 -187q0 -81 -47 -149q-49 -69 -124 -110q-74 -41 -169 -64q-94 -23 -186 -23z
M572 110q95 0 182 23q84 22 147 76q60 53 60 124q0 70 -59 123q-59 52 -146 76t-184 24q-98 0 -183 -24q-89 -24 -146 -76q-60 -52 -60 -123q0 -72 61 -124q63 -54 147 -76q87 -23 181 -23z" />
    <glyph glyph-name="omacron" unicode="&#x14d;" horiz-adv-x="916" 
d="M262 520v111h392v-111h-392zM458 -13q-101 0 -194 27t-158 86t-65 137q0 77 63 136q62 57 157 86q91 28 197 28q103 0 196 -27q91 -27 157 -86q64 -58 64 -137q0 -78 -64 -136q-66 -59 -157 -86q-93 -28 -196 -28zM458 107q70 0 133 15q64 14 107 45q43 30 43 70
q0 31 -25 56q-24 24 -66 41q-37 15 -91 25q-53 8 -101 8q-110 0 -197 -35q-88 -36 -86 -95q0 -61 87 -95q88 -35 196 -35z" />
    <glyph glyph-name="Obreve" unicode="&#x14e;" horiz-adv-x="1144" 
d="M572 705q-91 0 -153 43q-64 43 -64 107h141q0 -33 23 -54t53 -21t54 21q23 21 23 54h140q0 -63 -63 -107q-64 -43 -154 -43zM572 -13q-92 0 -186 23q-93 23 -168 64q-78 43 -124 110q-48 68 -48 149q0 105 80 187q80 81 198 120q117 39 248 39q130 0 249 -39
q118 -39 197 -120q80 -82 80 -187q0 -81 -47 -149q-49 -69 -124 -110q-74 -41 -169 -64q-94 -23 -186 -23zM572 110q95 0 182 23q84 22 147 76q60 53 60 124q0 70 -59 123q-59 52 -146 76t-184 24q-98 0 -183 -24q-89 -24 -146 -76q-60 -52 -60 -123q0 -72 61 -124
q63 -54 147 -76q87 -23 181 -23z" />
    <glyph glyph-name="obreve" unicode="&#x14f;" horiz-adv-x="916" 
d="M458 514q-91 0 -153 43q-64 43 -64 107h141q0 -33 23 -54t53 -21t54 21q23 21 23 54h140q0 -64 -63 -107q-64 -43 -154 -43zM458 -13q-101 0 -194 27t-158 86t-65 137q0 77 63 136q62 57 157 86q91 28 197 28q103 0 196 -27q91 -27 157 -86q64 -58 64 -137
q0 -78 -64 -136q-66 -59 -157 -86q-93 -28 -196 -28zM458 107q70 0 133 15q64 14 107 45q43 30 43 70q0 31 -25 56q-24 24 -66 41q-37 15 -91 25q-53 8 -101 8q-110 0 -197 -35q-88 -36 -86 -95q0 -61 87 -95q88 -35 196 -35z" />
    <glyph glyph-name="Ohungarumlaut" unicode="&#x150;" horiz-adv-x="1144" 
d="M411 711l116 135h158l-162 -135h-112zM622 711l115 135h158l-162 -135h-111zM572 -13q-92 0 -186 23q-93 23 -168 64q-78 43 -124 110q-48 68 -48 149q0 105 80 187q80 81 198 120q117 39 248 39q130 0 249 -39q118 -39 197 -120q80 -82 80 -187q0 -81 -47 -149
q-49 -69 -124 -110q-74 -41 -169 -64q-94 -23 -186 -23zM572 110q95 0 182 23q84 22 147 76q60 53 60 124q0 70 -59 123q-59 52 -146 76t-184 24q-98 0 -183 -24q-89 -24 -146 -76q-60 -52 -60 -123q0 -72 61 -124q63 -54 147 -76q87 -23 181 -23z" />
    <glyph glyph-name="ohungarumlaut" unicode="&#x151;" horiz-adv-x="916" 
d="M297 529l116 135h158l-162 -135h-112zM508 529l115 135h158l-162 -135h-111zM458 -13q-101 0 -194 27t-158 86t-65 137q0 77 63 136q62 57 157 86q91 28 197 28q103 0 196 -27q91 -27 157 -86q64 -58 64 -137q0 -78 -64 -136q-66 -59 -157 -86q-93 -28 -196 -28zM458 107
q70 0 133 15q64 14 107 45q43 30 43 70q0 31 -25 56q-24 24 -66 41q-37 15 -91 25q-53 8 -101 8q-110 0 -197 -35q-88 -36 -86 -95q0 -61 87 -95q88 -35 196 -35z" />
    <glyph glyph-name="OE" unicode="&#x152;" horiz-adv-x="1852" 
d="M1796 664v-123h-799q69 -62 90 -134h619v-123h-613q-16 -91 -97 -161h800v-123h-1081q-66 -13 -143 -13q-92 0 -186 23q-93 23 -168 64q-78 43 -124 110q-48 68 -48 149q0 105 80 187q80 81 198 120q117 39 248 39q78 0 154 -15h1070zM183 333q0 -72 61 -124
q63 -54 147 -76q87 -23 181 -23q95 0 182 23q84 22 147 76q60 53 60 124q0 70 -59 123q-59 52 -146 76t-184 24q-98 0 -183 -24q-89 -24 -146 -76q-60 -52 -60 -123z" />
    <glyph glyph-name="oe" unicode="&#x153;" horiz-adv-x="1617" 
d="M1158 487q84 0 161 -19q75 -18 142 -55q63 -37 94 -92q31 -56 16 -124h-684q28 -45 103 -70q78 -26 168 -26q148 0 243 55l93 -82q-61 -40 -152 -63q-92 -24 -184 -24q-99 0 -195 29q-97 29 -155 81q-58 -52 -154 -81t-196 -29q-101 0 -194 27t-158 86t-65 137
q0 77 63 136q62 57 157 86q91 28 197 28q103 0 197 -28q95 -29 153 -81q58 52 153 81q93 28 197 28zM1158 373q-87 0 -162 -23q-73 -24 -103 -64h530q-30 40 -103 64q-75 23 -162 23zM458 107q70 0 133 15q64 14 107 45q43 30 43 70v2q-2 60 -87 94q-86 34 -196 34t-197 -35
q-88 -36 -86 -95q0 -61 87 -95q88 -35 196 -35z" />
    <glyph glyph-name="Racute" unicode="&#x154;" horiz-adv-x="1069" 
d="M756 855l-162 -144h-131l113 144h180zM837 0l-264 235q-87 0 -171 -0.5t-126 -1t-53 -0.5v-233h-131v664q169 6 515 6q211 0 309 -50q97 -51 97 -169q0 -91 -64 -140q-65 -52 -198 -68l275 -243h-189zM223 543v-186q77 0 168 1h241q134 2 189 24q56 23 56 69q0 49 -55 73
q-57 23 -190 23q-201 -1 -409 -4z" />
    <glyph glyph-name="racute" unicode="&#x155;" horiz-adv-x="881" 
d="M756 664l-162 -144h-131l113 144h180zM536 487q142 0 227 -48q85 -49 91 -141l-122 -63q0 132 -225 132q-66 0 -130 -16q-66 -17 -118 -55q-53 -39 -53 -92v-204h-128v474h128v-92q58 51 147 78t183 27z" />
    <glyph glyph-name="Rcommaaccent" unicode="&#x156;" horiz-adv-x="1069" 
d="M751 243l275 -243h-189l-264 235q-87 0 -171 -0.5t-126 -1t-53 -0.5v-233h-131v664q169 6 515 6q211 0 309 -50q97 -51 97 -169q0 -91 -64 -140q-65 -52 -198 -68zM223 543v-186q77 0 168 1h241q134 2 189 24q56 23 56 69q0 49 -55 73q-57 23 -190 23q-201 -1 -409 -4z
M531 -34q42 0 73 -23q30 -24 30 -66q0 -67 -56 -106q-55 -40 -150 -40v51q93 0 134 44q-45 -10 -90 9t-45 57q0 32 30 53t74 21z" />
    <glyph glyph-name="rcommaaccent" unicode="&#x157;" horiz-adv-x="881" 
d="M536 487q142 0 227 -48q85 -49 91 -141l-122 -63q0 132 -225 132q-66 0 -130 -16q-66 -17 -118 -55q-53 -39 -53 -92v-204h-128v474h128v-92q58 51 147 78t183 27zM469 -34q42 0 73 -23q30 -24 30 -66q0 -67 -56 -106q-55 -40 -150 -40v51q93 0 134 44q-45 -10 -90 9
t-45 57q0 32 30 53t74 21z" />
    <glyph glyph-name="Rcaron" unicode="&#x158;" horiz-adv-x="1069" 
d="M598 702h-141l-162 144h169l64 -81l63 81h169zM837 0l-264 235q-87 0 -171 -0.5t-126 -1t-53 -0.5v-233h-131v664q169 6 515 6q211 0 309 -50q97 -51 97 -169q0 -91 -64 -140q-65 -52 -198 -68l275 -243h-189zM223 543v-186q77 0 168 1h241q134 2 189 24q56 23 56 69
q0 49 -55 73q-57 23 -190 23q-201 -1 -409 -4z" />
    <glyph glyph-name="rcaron" unicode="&#x159;" horiz-adv-x="881" 
d="M599 520h-141l-162 144h169l64 -81l63 81h169zM536 487q142 0 227 -48q85 -49 91 -141l-122 -63q0 132 -225 132q-66 0 -130 -16q-66 -17 -118 -55q-53 -39 -53 -92v-204h-128v474h128v-92q58 51 147 78t183 27z" />
    <glyph glyph-name="Sacute" unicode="&#x15a;" horiz-adv-x="1066" 
d="M474 711l113 144h180l-162 -144h-131zM550 -13q-186 0 -314 48q-127 46 -162 130l122 59q16 -54 111 -84t249 -30q311 0 311 80q0 36 -63 52t-252 36q-50 5 -140 17q-52 7 -112 20q-56 12 -90 27q-37 16 -61 36q-27 21 -39 48t-12 62q0 68 58 111q55 42 153 62
q96 18 230 18q184 0 298 -46q115 -47 144 -132l-123 -60q-12 115 -313 115q-310 0 -310 -70q0 -34 69 -49q69 -16 263 -36q51 -5 133 -16q50 -7 108 -20q52 -12 87 -27q33 -14 60 -35q27 -22 38 -49q12 -28 12 -63q0 -204 -455 -204z" />
    <glyph glyph-name="sacute" unicode="&#x15b;" horiz-adv-x="840" 
d="M349 520l113 144h180l-162 -144h-131zM421 -13q-150 0 -253 34q-105 33 -137 93l114 51q9 -24 95 -47q87 -23 193 -23q238 0 238 48q0 15 -50 23q-49 7 -203 18q-70 4 -131 11q-47 4 -100 16q-48 11 -75 27q-28 17 -42 40q-16 23 -16 57q0 78 98 116q98 36 263 36
q137 0 236 -32q96 -33 123 -93l-114 -53q-1 25 -77 48q-73 22 -180 22q-95 0 -159 -11q-62 -11 -62 -29q0 -15 50 -20q48 -6 241 -18q186 -12 256 -42q70 -31 70 -114q0 -85 -98 -121q-98 -37 -280 -37z" />
    <glyph glyph-name="Scircumflex" unicode="&#x15c;" horiz-adv-x="1066" 
d="M540 792l-64 -81h-169l162 144h141l162 -144h-169zM567 401q51 -5 133 -16q50 -7 108 -20q52 -12 87 -27q33 -14 60 -35q27 -22 38 -49q12 -28 12 -63q0 -204 -455 -204q-186 0 -314 48q-127 46 -162 130l122 59q16 -54 111 -84t249 -30q311 0 311 80q0 36 -63 52
t-252 36q-50 5 -140 17q-52 7 -112 20q-56 12 -90 27q-37 16 -61 36q-27 21 -39 48t-12 62q0 68 58 111q55 42 153 62q96 18 230 18q184 0 298 -46q115 -47 144 -132l-123 -60q-12 115 -313 115q-310 0 -310 -70q0 -34 69 -49q69 -16 263 -36z" />
    <glyph glyph-name="scircumflex" unicode="&#x15d;" horiz-adv-x="840" 
d="M415 601l-64 -81h-169l162 144h141l162 -144h-169zM473 301q186 -12 256 -42q70 -31 70 -114q0 -85 -98 -121q-98 -37 -280 -37q-150 0 -253 34q-105 33 -137 93l114 51q9 -24 95 -47q87 -23 193 -23q238 0 238 48q0 15 -50 23q-49 7 -203 18q-70 4 -131 11
q-47 4 -100 16q-48 11 -75 27q-28 17 -42 40q-16 23 -16 57q0 78 98 116q98 36 263 36q137 0 236 -32q96 -33 123 -93l-114 -53q-1 25 -77 48q-73 22 -180 22q-95 0 -159 -11q-62 -11 -62 -29q0 -15 50 -20q48 -6 241 -18z" />
    <glyph glyph-name="Scedilla" unicode="&#x15e;" horiz-adv-x="1066" 
d="M1005 191q0 -196 -419 -204l-17 -20q97 0 142 -16q46 -16 46 -54q0 -79 -325 -79l-24 66q181 0 181 21q0 19 -115 19l38 64q-169 4 -289 52q-118 47 -149 125l122 59q16 -54 111 -84t249 -30q311 0 311 80q0 36 -63 52t-252 36q-50 5 -140 17q-52 7 -112 20
q-56 12 -90 27q-37 16 -61 36q-27 21 -39 48t-12 62q0 68 58 111q55 42 153 62q96 18 230 18q184 0 298 -46q115 -47 144 -132l-123 -60q-12 115 -313 115q-310 0 -310 -70q0 -34 69 -49q69 -16 263 -36q51 -5 133 -16q50 -7 108 -20q52 -12 87 -27q33 -14 60 -35
q27 -22 38 -49q12 -28 12 -63z" />
    <glyph glyph-name="scedilla" unicode="&#x15f;" horiz-adv-x="840" 
d="M799 145q0 -151 -346 -158l-17 -20q97 0 142 -16q46 -16 46 -54q0 -79 -325 -79l-24 66q181 0 181 21q0 19 -115 19l39 64q-131 4 -226 38q-94 31 -123 88l114 51q9 -24 95 -47q87 -23 193 -23q238 0 238 48q0 15 -50 23q-49 7 -203 18q-70 4 -131 11q-47 4 -100 16
q-48 11 -75 27q-28 17 -42 40q-16 23 -16 57q0 78 98 116q98 36 263 36q137 0 236 -32q96 -33 123 -93l-114 -53q-1 25 -77 48q-73 22 -180 22q-95 0 -159 -11q-62 -11 -62 -29q0 -15 50 -20q48 -6 241 -18q186 -12 256 -42q70 -31 70 -114z" />
    <glyph glyph-name="Scaron" unicode="&#x160;" horiz-adv-x="1066" 
d="M609 702h-141l-162 144h169l64 -81l63 81h169zM567 401q51 -5 133 -16q50 -7 108 -20q52 -12 87 -27q33 -14 60 -35q27 -22 38 -49q12 -28 12 -63q0 -204 -455 -204q-186 0 -314 48q-127 46 -162 130l122 59q16 -54 111 -84t249 -30q311 0 311 80q0 36 -63 52t-252 36
q-50 5 -140 17q-52 7 -112 20q-56 12 -90 27q-37 16 -61 36q-27 21 -39 48t-12 62q0 68 58 111q55 42 153 62q96 18 230 18q184 0 298 -46q115 -47 144 -132l-123 -60q-12 115 -313 115q-310 0 -310 -70q0 -34 69 -49q69 -16 263 -36z" />
    <glyph glyph-name="scaron" unicode="&#x161;" horiz-adv-x="840" 
d="M485 520h-141l-162 144h169l64 -81l63 81h169zM473 301q186 -12 256 -42q70 -31 70 -114q0 -85 -98 -121q-98 -37 -280 -37q-150 0 -253 34q-105 33 -137 93l114 51q9 -24 95 -47q87 -23 193 -23q238 0 238 48q0 15 -50 23q-49 7 -203 18q-70 4 -131 11q-47 4 -100 16
q-48 11 -75 27q-28 17 -42 40q-16 23 -16 57q0 78 98 116q98 36 263 36q137 0 236 -32q96 -33 123 -93l-114 -53q-1 25 -77 48q-73 22 -180 22q-95 0 -159 -11q-62 -11 -62 -29q0 -15 50 -20q48 -6 241 -18z" />
    <glyph glyph-name="uni0162" unicode="&#x162;" horiz-adv-x="978" 
d="M555 0h-19l-27 -33q97 0 142 -16q46 -16 46 -54q0 -79 -325 -79l-24 66q181 0 181 21q0 19 -115 19l46 76h-36v541h-403v123h936v-123h-402v-541z" />
    <glyph glyph-name="uni0163" unicode="&#x163;" horiz-adv-x="614" 
d="M447 -33q97 0 142 -16q46 -16 46 -54q0 -79 -325 -79l-24 66q181 0 181 21q0 19 -115 19l39 65q-82 7 -134 53q-52 45 -52 114v198h-162v120h162v88l128 71v-159h234v-120h-234v-177q0 -31 26 -51q25 -19 68 -19q68 0 91 35l94 -83q-52 -59 -147 -70z" />
    <glyph glyph-name="Tcaron" unicode="&#x164;" horiz-adv-x="978" 
d="M559 702h-141l-162 144h169l64 -81l63 81h169zM957 664v-123h-402v-541h-131v541h-403v123h936z" />
    <glyph glyph-name="tcaron" unicode="&#x165;" horiz-adv-x="917" 
d="M766 676q42 0 73 -23q30 -24 30 -66q0 -67 -56 -106q-55 -40 -150 -40v51q93 0 134 44q-45 -10 -90 9t-45 57q0 32 30 53t74 21zM427 107q68 0 91 35l94 -83q-62 -72 -185 -72q-97 0 -159 47q-63 46 -63 122v198h-162v120h162v88l128 71v-159h234v-120h-234v-177
q0 -31 26 -51q25 -19 68 -19z" />
    <glyph glyph-name="Tbar" unicode="&#x166;" horiz-adv-x="978" 
d="M957 541h-402v-145h119v-92h-119v-304h-131v304h-120v92h120v145h-403v123h936v-123z" />
    <glyph glyph-name="tbar" unicode="&#x167;" horiz-adv-x="614" 
d="M518 142l94 -83q-62 -72 -185 -72q-97 0 -159 47q-63 46 -63 122v69h-83v92h83v37h-162v120h162v88l128 71v-159h234v-120h-234v-37h159v-92h-159v-48q0 -31 26 -51q25 -19 68 -19q68 0 91 35z" />
    <glyph glyph-name="Utilde" unicode="&#x168;" horiz-adv-x="1133" 
d="M650 704q-13 0 -31 2q-16 2 -29 6q-12 4 -22 8q-7 1 -22 11l-18 12q-4 1 -20 14q-4 3 -9 6.5t-7 5.5t-3 2q-16 10 -19 -15l-2 -45h-131q0 66 41 110q40 42 106 42q11 0 29 -2q5 -1 13.5 -2.5t10.5 -1.5q5 -1 22 -7q5 -2 11 -4.5t8 -3.5t18 -11q4 -2 7 -4.5t5.5 -4
t3.5 -2.5q1 0 6.5 -4t10.5 -8q11 -10 16 -13q16 -10 19 15q2 18 2 45h132q0 -66 -41 -109q-42 -42 -107 -42zM567 -13q-131 0 -241 39q-109 37 -179 118q-70 79 -70 189v331h131v-304q0 -117 104 -183q103 -67 255 -67t255 67q103 66 103 183v304h131v-331q0 -109 -69 -189
q-72 -81 -179 -118q-110 -39 -241 -39z" />
    <glyph glyph-name="utilde" unicode="&#x169;" horiz-adv-x="956" 
d="M395 580q-16 10 -19 -15l-2 -45h-131q0 66 41 110q40 42 106 42q11 0 29 -2q5 -1 13.5 -2.5t10.5 -1.5q5 -1 22 -7q5 -2 11 -4.5t8 -3.5t18 -11q4 -2 7 -4.5t5.5 -4t3.5 -2.5t6.5 -5t10.5 -7q11 -10 16 -13q16 -10 19 15q2 18 2 45h132q0 -66 -41 -109q-42 -42 -107 -42
q-13 0 -31 2q-16 2 -29 6q-12 4 -22 8q-7 1 -22 11l-18 12q-4 1 -20 14q-4 3 -9 6.5t-7 5.5t-3 2zM750 474h128v-474h-128v92q-60 -51 -150 -78q-92 -27 -189 -27q-153 0 -248 68q-94 67 -94 193v226h128v-218q0 -74 71 -112q70 -37 183 -37q71 0 135 16q67 17 115 55
q49 39 49 92v204z" />
    <glyph glyph-name="Umacron" unicode="&#x16a;" horiz-adv-x="1133" 
d="M371 711v111h392v-111h-392zM567 -13q-131 0 -241 39q-109 37 -179 118q-70 79 -70 189v331h131v-304q0 -117 104 -183q103 -67 255 -67t255 67q103 66 103 183v304h131v-331q0 -109 -69 -189q-72 -81 -179 -118q-110 -39 -241 -39z" />
    <glyph glyph-name="umacron" unicode="&#x16b;" horiz-adv-x="956" 
d="M670 631v-111h-392v111h392zM750 474h128v-474h-128v92q-60 -51 -150 -78q-92 -27 -189 -27q-153 0 -248 68q-94 67 -94 193v226h128v-218q0 -74 71 -112q70 -37 183 -37q71 0 135 16q67 17 115 55q49 39 49 92v204z" />
    <glyph glyph-name="Ubreve" unicode="&#x16c;" horiz-adv-x="1133" 
d="M567 705q-91 0 -153 43q-64 43 -64 107h141q0 -33 23 -54q22 -21 53 -21q30 0 54 21q23 21 23 54h140q0 -63 -63 -107q-64 -43 -154 -43zM567 -13q-131 0 -241 39q-109 37 -179 118q-70 79 -70 189v331h131v-304q0 -117 104 -183q103 -67 255 -67t255 67q103 66 103 183
v304h131v-331q0 -109 -69 -189q-72 -81 -179 -118q-110 -39 -241 -39z" />
    <glyph glyph-name="ubreve" unicode="&#x16d;" horiz-adv-x="956" 
d="M474 514q-91 0 -153 43q-64 43 -64 107h141q0 -33 23 -54t53 -21t54 21q23 21 23 54h140q0 -64 -63 -107q-64 -43 -154 -43zM750 474h128v-474h-128v92q-60 -51 -150 -78q-92 -27 -189 -27q-153 0 -248 68q-94 67 -94 193v226h128v-218q0 -74 71 -112q70 -37 183 -37
q71 0 135 16q67 17 115 55q49 39 49 92v204z" />
    <glyph glyph-name="Uring" unicode="&#x16e;" horiz-adv-x="1133" 
d="M567 707q-85 0 -148 22q-64 22 -64 54q0 31 64 53q63 22 148 22q87 0 150 -22t63 -53t-63 -54q-62 -22 -150 -22zM567 743q31 0 50 12q18 12 18 28q0 15 -18 27q-20 11 -50 11q-27 0 -47 -11q-20 -12 -20 -27q0 -16 20 -28t47 -12zM567 -13q-131 0 -241 39
q-109 37 -179 118q-70 79 -70 189v331h131v-304q0 -117 104 -183q103 -67 255 -67t255 67q103 66 103 183v304h131v-331q0 -109 -69 -189q-72 -81 -179 -118q-110 -39 -241 -39z" />
    <glyph glyph-name="uring" unicode="&#x16f;" horiz-adv-x="956" 
d="M474 516q-85 0 -148 22q-64 22 -64 54q0 31 64 53q63 22 148 22q87 0 150 -22q63 -23 63 -53q0 -32 -63 -54q-62 -22 -150 -22zM474 630q-27 0 -47 -11q-20 -12 -20 -27q0 -16 20 -28q19 -12 47 -12q30 0 50 12q18 12 18 28q0 15 -18 27q-20 11 -50 11zM750 474h128v-474
h-128v92q-60 -51 -150 -78q-92 -27 -189 -27q-153 0 -248 68q-94 67 -94 193v226h128v-218q0 -74 71 -112q70 -37 183 -37q71 0 135 16q67 17 115 55q49 39 49 92v204z" />
    <glyph glyph-name="Uhungarumlaut" unicode="&#x170;" horiz-adv-x="1133" 
d="M406 711l116 135h158l-162 -135h-112zM617 711l115 135h158l-162 -135h-111zM567 -13q-131 0 -241 39q-109 37 -179 118q-70 79 -70 189v331h131v-304q0 -117 104 -183q103 -67 255 -67t255 67q103 66 103 183v304h131v-331q0 -109 -69 -189q-72 -81 -179 -118
q-110 -39 -241 -39z" />
    <glyph glyph-name="uhungarumlaut" unicode="&#x171;" horiz-adv-x="956" 
d="M587 664l-162 -135h-112l116 135h158zM635 529h-111l115 135h158zM750 474h128v-474h-128v92q-60 -51 -150 -78q-92 -27 -189 -27q-153 0 -248 68q-94 67 -94 193v226h128v-218q0 -74 71 -112q70 -37 183 -37q71 0 135 16q67 17 115 55q49 39 49 92v204z" />
    <glyph glyph-name="Uogonek" unicode="&#x172;" horiz-adv-x="1133" 
d="M925 664h131v-331q0 -127 -91 -212t-237 -117q-60 -16 -101 -42t-41 -52q0 -22 27 -30q29 -8 101 -8l-18 -54q-141 0 -211 17q-69 17 -69 56q0 57 105 97q-122 8 -221 48q-100 41 -161 118q-62 77 -62 179v331h131v-304q0 -117 104 -183q103 -67 255 -67t255 67
q103 66 103 183v304z" />
    <glyph glyph-name="uogonek" unicode="&#x173;" horiz-adv-x="955" 
d="M878 0q-62 -10 -105 -36q-45 -26 -45 -54q0 -22 27 -30q29 -8 101 -8l-18 -54q-141 0 -211 17q-69 17 -69 56q0 76 192 121v80q-60 -51 -150 -78q-92 -27 -189 -27q-153 0 -248 68q-94 67 -94 193v226h128v-218q0 -74 71 -112q70 -37 183 -37q71 0 135 16q67 17 115 55
q49 39 49 92v204h128v-474z" />
    <glyph glyph-name="Wcircumflex" unicode="&#x174;" horiz-adv-x="1409" 
d="M706 792l-64 -81h-169l162 144h141l162 -144h-169zM1260 664h141l-279 -664h-191l-227 541l-227 -541h-190l-279 664h141l234 -557l237 557h169l238 -555z" />
    <glyph glyph-name="wcircumflex" unicode="&#x175;" horiz-adv-x="1465" 
d="M732 601l-64 -81h-169l162 144h141l162 -144h-169zM1316 476l151 -2l-318 -474h-165l-251 377l-252 -377h-166l-317 474h150l250 -375l249 375h170l250 -375z" />
    <glyph glyph-name="Ycircumflex" unicode="&#x176;" horiz-adv-x="1200" 
d="M601 792l-64 -81h-169l162 144h141l162 -144h-169zM1187 664l-521 -450v-214h-131v213l-522 451h192l395 -340l395 340h192z" />
    <glyph glyph-name="ycircumflex" unicode="&#x177;" horiz-adv-x="889" 
d="M444 601l-64 -81h-169l162 144h141l162 -144h-169zM733 474h156l-499 -659h-155l139 185l-374 474h157l295 -371z" />
    <glyph glyph-name="Ydieresis" unicode="&#x178;" horiz-adv-x="1200" 
d="M463 698q-43 0 -74 20q-30 20 -30 50q0 32 30 53t74 21q41 0 73 -21q30 -21 30 -53q0 -30 -30 -50q-32 -20 -73 -20zM718 698q-43 0 -74 20q-30 20 -30 50q0 32 30 53t74 21q41 0 73 -21q30 -21 30 -53q0 -30 -30 -50q-32 -20 -73 -20zM1187 664l-521 -450v-214h-131v213
l-522 451h192l395 -340l395 340h192z" />
    <glyph glyph-name="Zacute" unicode="&#x179;" horiz-adv-x="956" 
d="M707 855l-162 -144h-131l113 144h180zM902 664v-123l-624 -418h620v-123h-844v123l626 418h-625v123h847z" />
    <glyph glyph-name="zacute" unicode="&#x17a;" horiz-adv-x="803" 
d="M629 664l-162 -144h-131l113 144h180zM752 474v-120l-456 -234h455v-120h-701v120l457 234h-454v120h699z" />
    <glyph glyph-name="Zdotaccent" unicode="&#x17b;" horiz-adv-x="956" 
d="M480 695q-43 0 -74 20q-30 19 -30 50q0 32 30 53t74 21q42 0 73 -21q30 -21 30 -53q0 -31 -30 -50q-32 -20 -73 -20zM902 664v-123l-624 -418h620v-123h-844v123l626 418h-625v123h847z" />
    <glyph glyph-name="zdotaccent" unicode="&#x17c;" horiz-adv-x="803" 
d="M403 515q-43 0 -74 20q-30 19 -30 50q0 32 30 53t74 21q41 0 73 -21q30 -21 30 -53q0 -31 -30 -50q-32 -20 -73 -20zM752 474v-120l-456 -234h455v-120h-701v120l457 234h-454v120h699z" />
    <glyph glyph-name="Zcaron" unicode="&#x17d;" horiz-adv-x="956" 
d="M549 702h-141l-162 144h169l64 -81l63 81h169zM902 664v-123l-624 -418h620v-123h-844v123l626 418h-625v123h847z" />
    <glyph glyph-name="zcaron" unicode="&#x17e;" horiz-adv-x="803" 
d="M472 520h-141l-162 144h169l64 -81l63 81h169zM752 474v-120l-456 -234h455v-120h-701v120l457 234h-454v120h699z" />
    <glyph glyph-name="longs" unicode="&#x17f;" horiz-adv-x="610" 
d="M423 679q121 0 185 -72l-95 -83q-21 35 -90 35q-43 0 -68 -19q-26 -20 -26 -51v-489h-128v354h-158v120h158v36q0 76 63 123q61 46 159 46z" />
    <glyph glyph-name="uni018F" unicode="&#x18f;" horiz-adv-x="1144" 
d="M572 678q94 0 189 -23q90 -22 169 -65q77 -45 122 -110q46 -67 46 -147q0 -81 -47 -149q-49 -69 -124 -110q-74 -41 -169 -64q-94 -23 -186 -23t-186 23q-93 23 -168 64q-78 43 -124 110q-48 68 -48 149q0 45 13 71h885q-37 73 -142 112t-230 39q-104 0 -200 -25
q-99 -26 -144 -71l-98 84q74 64 199 100q125 35 243 35zM572 110q131 0 242 44q109 43 138 127h-760q29 -83 139 -127q111 -44 241 -44z" />
    <glyph glyph-name="florin" unicode="&#x192;" horiz-adv-x="868" 
d="M799 551q-117 0 -196 -42q-81 -42 -90 -122l-1 -9h222v-92h-232l-16 -155q-13 -127 -142 -206q-129 -78 -288 -78l13 126q116 0 197 42t89 122l6 58l10 91h-237v92h246l2 15q13 127 142 206q128 78 288 78z" />
    <glyph glyph-name="uni019D" unicode="&#x19d;" horiz-adv-x="1167" 
d="M944 664h131v-664h-163l-703 529v-560q0 -75 -63 -122q-65 -47 -162 -47q-23 0 -56 5l56 115q44 0 69 19t25 51v674h162l704 -529v529z" />
    <glyph glyph-name="uni01CD" unicode="&#x1cd;" horiz-adv-x="1093" 
d="M615 702h-141l-162 144h169l64 -81l63 81h169zM932 0l-88 127h-594l-88 -127h-156l459 664h163l459 -664h-155zM335 250h424l-212 307z" />
    <glyph glyph-name="uni01CE" unicode="&#x1ce;" horiz-adv-x="943" 
d="M505 520h-141l-162 144h169l64 -81l63 81h169zM738 474h128v-474h-128v76q-116 -89 -313 -89q-101 0 -187 27q-84 25 -141 85q-56 59 -56 138t54 137q52 57 140 86q86 27 190 27q92 0 173 -22q83 -23 140 -66v75zM456 107q124 0 203 36t79 94q0 57 -78 94q-80 36 -204 36
q-126 0 -204 -36q-78 -38 -77 -94q0 -58 79 -94q80 -36 202 -36z" />
    <glyph glyph-name="uni01CF" unicode="&#x1cf;" horiz-adv-x="315" 
d="M221 846h169l-162 -144h-141l-162 144h169l64 -81zM92 0v664h131v-664h-131z" />
    <glyph glyph-name="uni01D0" unicode="&#x1d0;" horiz-adv-x="284" 
d="M205 664h169l-162 -144h-141l-162 144h169l64 -81zM78 0v474h128v-474h-128z" />
    <glyph glyph-name="uni01D1" unicode="&#x1d1;" horiz-adv-x="1144" 
d="M642 702h-141l-162 144h169l64 -81l63 81h169zM572 679q130 0 249 -39q118 -39 197 -120q80 -82 80 -187q0 -81 -47 -149q-49 -69 -124 -110q-74 -41 -169 -64q-94 -23 -186 -23t-186 23q-93 23 -168 64q-78 43 -124 110q-48 68 -48 149q0 105 80 187q80 81 198 120
q117 39 248 39zM572 110q95 0 182 23q84 22 147 76q60 53 60 124q0 70 -59 123q-59 52 -146 76t-184 24q-98 0 -183 -24q-89 -24 -146 -76q-60 -52 -60 -123q0 -72 61 -124q63 -54 147 -76q87 -23 181 -23z" />
    <glyph glyph-name="uni01D2" unicode="&#x1d2;" horiz-adv-x="916" 
d="M528 520h-141l-162 144h169l64 -81l63 81h169zM458 487q103 0 196 -27q91 -27 157 -86q64 -58 64 -137q0 -78 -64 -136q-66 -59 -157 -86q-93 -28 -196 -28q-101 0 -194 27t-158 86t-65 137q0 77 63 136q62 57 157 86q91 28 197 28zM741 237q0 31 -25 56q-24 24 -66 41
q-37 15 -91 25q-53 8 -101 8q-110 0 -197 -35q-88 -36 -86 -95q0 -61 87 -95q88 -35 196 -35q70 0 133 15q64 14 107 45q43 30 43 70z" />
    <glyph glyph-name="uni01D3" unicode="&#x1d3;" horiz-adv-x="1133" 
d="M637 702h-141l-162 144h169l64 -81l63 81h169zM925 664h131v-331q0 -109 -69 -189q-72 -81 -179 -118q-110 -39 -241 -39t-241 39q-109 37 -179 118q-70 79 -70 189v331h131v-304q0 -117 104 -183q103 -67 255 -67t255 67q103 66 103 183v304z" />
    <glyph glyph-name="uni01D4" unicode="&#x1d4;" horiz-adv-x="956" 
d="M544 520h-141l-162 144h169l64 -81l63 81h169zM750 474h128v-474h-128v92q-60 -51 -150 -78q-92 -27 -189 -27q-153 0 -248 68q-94 67 -94 193v226h128v-218q0 -74 71 -112q70 -37 183 -37q71 0 135 16q67 17 115 55q49 39 49 92v204z" />
    <glyph glyph-name="uni01E2" unicode="&#x1e2;" horiz-adv-x="1817" 
d="M1346 822v-111h-392v111h392zM1761 541h-1052l93 -134h869v-123h-784l111 -161h763v-123h-833l-88 127h-594l-88 -127h-156l459 664h1300v-123zM331 250h424l-212 307z" />
    <glyph glyph-name="uni01E3" unicode="&#x1e3;" horiz-adv-x="1643" 
d="M1000 631v-111h-392v111h392zM1184 487q84 0 161 -19q75 -18 142 -55q63 -37 94 -92q31 -56 16 -124h-684q28 -45 103 -70q78 -26 168 -26q148 0 243 55l93 -82q-61 -40 -152 -63q-92 -24 -184 -24q-88 0 -172 22q-86 23 -146 63v-72h-128v76q-116 -89 -313 -89
q-101 0 -187 27q-84 25 -141 85q-56 59 -56 138t54 137q52 57 140 86q86 27 190 27q92 0 173 -22q83 -23 140 -66v75h128v-72q60 41 145 63q82 22 173 22zM1184 373q-87 0 -162 -23q-73 -24 -103 -64h530q-30 40 -103 64q-75 23 -162 23zM456 107q124 0 203 36t79 94
q0 57 -78 94q-80 36 -204 36q-126 0 -204 -36q-78 -38 -77 -94q0 -58 79 -94q80 -36 202 -36z" />
    <glyph glyph-name="Gcaron" unicode="&#x1e6;" horiz-adv-x="1150" 
d="M644 702h-141l-162 144h169l64 -81l63 81h169zM455 372h617v-372h-131v123q-139 -136 -385 -136q-89 0 -179 23q-92 23 -163 64q-74 41 -121 110q-47 68 -47 149q0 80 47 148q46 67 122 110q79 43 169 65q95 23 190 23q128 0 243 -36q112 -36 181 -101l-73 -110
q-54 61 -146 93q-92 31 -205 31q-167 0 -279 -64t-112 -159q0 -72 59 -125q58 -52 144 -75t180 -23q119 0 224 37q105 36 153 102h-488v123z" />
    <glyph glyph-name="gcaron" unicode="&#x1e7;" horiz-adv-x="943" 
d="M495 520h-141l-162 144h169l64 -81l63 81h169zM738 474h127v-397q0 -73 -37 -128q-37 -54 -100 -86q-64 -32 -137 -47q-73 -16 -160 -16q-106 0 -201 23q-92 22 -148 64l93 84q34 -24 106 -41q68 -16 153 -16q78 0 145 15q66 15 114 47q45 31 45 76v24q-116 -89 -313 -89
q-101 0 -187 27q-84 25 -141 85q-56 59 -56 138t54 137q52 57 140 86q86 27 190 27q92 0 173 -22q83 -23 140 -66v75zM456 107q124 0 203 36t79 94q0 57 -78 94q-80 36 -204 36q-126 0 -204 -36q-78 -38 -77 -94q0 -58 79 -94q80 -36 202 -36z" />
    <glyph glyph-name="uni01EA" unicode="&#x1ea;" horiz-adv-x="1144" 
d="M733 4q-60 -16 -101 -42q-40 -25 -40 -52q0 -22 27 -30q29 -8 101 -8l-18 -54q-141 0 -211 17q-69 17 -69 56q0 57 105 97q-90 4 -174 30q-86 26 -153 67q-69 41 -112 107q-42 64 -42 141q0 105 80 187q80 81 198 120q117 39 248 39q130 0 249 -39q118 -39 197 -120
q80 -82 80 -187q0 -87 -52 -155q-52 -70 -132 -112t-181 -62zM183 333q0 -72 61 -124q63 -54 147 -76q87 -23 181 -23q95 0 182 23q84 22 147 76q60 53 60 124q0 70 -59 123q-59 52 -146 76t-184 24q-98 0 -183 -24q-89 -24 -146 -76q-60 -52 -60 -123z" />
    <glyph glyph-name="uni01EB" unicode="&#x1eb;" horiz-adv-x="916" 
d="M458 487q103 0 196 -27q91 -27 157 -86q64 -58 64 -137q0 -91 -83 -153q-84 -63 -208 -85q-51 -15 -84 -40q-35 -26 -35 -49t28 -30q29 -8 101 -8l-18 -54q-141 0 -211 17q-69 17 -69 56q0 57 107 98q-94 8 -173 36t-134 85q-55 55 -55 127q0 77 63 136q62 57 157 86
q91 28 197 28zM741 237q0 31 -25 56q-24 24 -66 41q-37 15 -91 25q-53 8 -101 8q-110 0 -197 -35q-88 -36 -86 -95q0 -61 87 -95q88 -35 196 -35q70 0 133 15q64 14 107 45q43 30 43 70z" />
    <glyph glyph-name="Aringacute" unicode="&#x1fa;" horiz-adv-x="1093" 
d="M545 707q-85 0 -148 22q-64 22 -64 54q0 31 64 53q63 22 148 22h23l44 55h179l-89 -80q56 -21 56 -50q0 -31 -63 -54q-62 -22 -150 -22zM545 821q-27 0 -47 -11q-20 -12 -20 -27q0 -16 20 -28t47 -12q31 0 50 12q18 12 18 28q0 15 -18 27q-20 11 -50 11zM932 0l-88 127
h-594l-88 -127h-156l459 664h163l459 -664h-155zM335 250h424l-212 307z" />
    <glyph glyph-name="aringacute" unicode="&#x1fb;" horiz-adv-x="943" 
d="M435 516q-85 0 -148 22q-64 22 -64 54q0 31 64 53q63 22 148 22h23l44 55h179l-89 -80q56 -21 56 -50q0 -32 -63 -54q-62 -22 -150 -22zM435 630q-27 0 -47 -11q-20 -12 -20 -27q0 -16 20 -28q19 -12 47 -12q30 0 50 12q18 12 18 28q0 15 -18 27q-20 11 -50 11zM738 474
h128v-474h-128v76q-116 -89 -313 -89q-101 0 -187 27q-84 25 -141 85q-56 59 -56 138t54 137q52 57 140 86q86 27 190 27q92 0 173 -22q83 -23 140 -66v75zM456 107q124 0 203 36t79 94q0 57 -78 94q-80 36 -204 36q-126 0 -204 -36q-78 -38 -77 -94q0 -58 79 -94
q80 -36 202 -36z" />
    <glyph glyph-name="AEacute" unicode="&#x1fc;" horiz-adv-x="1817" 
d="M1378 855l-162 -144h-131l113 144h180zM1761 541h-1052l93 -134h869v-123h-784l111 -161h763v-123h-833l-88 127h-594l-88 -127h-156l459 664h1300v-123zM331 250h424l-212 307z" />
    <glyph glyph-name="aeacute" unicode="&#x1fd;" horiz-adv-x="1643" 
d="M1411 664l-162 -144h-131l113 144h180zM1184 487q84 0 161 -19q75 -18 142 -55q63 -37 94 -92q31 -56 16 -124h-684q28 -45 103 -70q78 -26 168 -26q148 0 243 55l93 -82q-61 -40 -152 -63q-92 -24 -184 -24q-88 0 -172 22q-86 23 -146 63v-72h-128v76q-116 -89 -313 -89
q-101 0 -187 27q-84 25 -141 85q-56 59 -56 138t54 137q52 57 140 86q86 27 190 27q92 0 173 -22q83 -23 140 -66v75h128v-72q60 41 145 63q82 22 173 22zM1184 373q-87 0 -162 -23q-73 -24 -103 -64h530q-30 40 -103 64q-75 23 -162 23zM456 107q124 0 203 36t79 94
q0 57 -78 94q-80 36 -204 36q-126 0 -204 -36q-78 -38 -77 -94q0 -58 79 -94q80 -36 202 -36z" />
    <glyph glyph-name="Oslashacute" unicode="&#x1fe;" horiz-adv-x="1144" 
d="M805 855l-162 -144h-131l113 144h180zM1006 533q92 -87 92 -200q0 -81 -47 -149q-49 -69 -124 -110q-74 -41 -169 -64q-94 -23 -186 -23q-200 0 -352 86l-124 -72l-50 79l91 53q-91 85 -91 200q0 105 80 187q80 81 198 120q117 39 248 39q200 0 352 -87l125 73l49 -79z
M183 333q0 -77 69 -133l544 318q-103 38 -224 38q-98 0 -183 -24q-89 -24 -146 -76q-60 -52 -60 -123zM572 110q95 0 182 23q84 22 147 76q60 53 60 124q0 77 -70 132l-543 -317q100 -38 224 -38z" />
    <glyph glyph-name="oslashacute" unicode="&#x1ff;" horiz-adv-x="916" 
d="M692 664l-162 -144h-131l113 144h180zM814 372q61 -58 61 -135q0 -78 -64 -136q-66 -59 -157 -86q-93 -28 -196 -28q-143 0 -257 51l-118 -64l-45 80l73 40q-70 61 -70 143q0 77 63 136q62 57 157 86q91 28 197 28q153 0 270 -57l105 57l45 -80zM175 237q0 -45 55 -79
l357 195q-67 14 -129 14q-110 0 -197 -35q-88 -36 -86 -95zM741 237q0 41 -43 72l-352 -192q50 -10 112 -10q70 0 133 15q64 14 107 45q43 30 43 70z" />
    <glyph glyph-name="Scommaaccent" unicode="&#x218;" horiz-adv-x="1066" 
d="M550 -13q-186 0 -314 48q-127 46 -162 130l122 59q16 -54 111 -84t249 -30q311 0 311 80q0 36 -63 52t-252 36q-50 5 -140 17q-52 7 -112 20q-56 12 -90 27q-37 16 -61 36q-27 21 -39 48t-12 62q0 68 58 111q55 42 153 62q96 18 230 18q184 0 298 -46q115 -47 144 -132
l-123 -60q-12 115 -313 115q-310 0 -310 -70q0 -34 69 -49q69 -16 263 -36q51 -5 133 -16q50 -7 108 -20q52 -12 87 -27q33 -14 60 -35q27 -22 38 -49q12 -28 12 -63q0 -204 -455 -204zM446 -269v51q93 0 134 44q-45 -10 -90 9t-45 57q0 32 30 53t74 21q42 0 73 -23
q30 -24 30 -66q0 -67 -56 -106q-55 -40 -150 -40z" />
    <glyph glyph-name="scommaaccent" unicode="&#x219;" horiz-adv-x="840" 
d="M421 -13q-150 0 -253 34q-105 33 -137 93l114 51q9 -24 95 -47q87 -23 193 -23q238 0 238 48q0 15 -50 23q-49 7 -203 18q-70 4 -131 11q-47 4 -100 16q-48 11 -75 27q-28 17 -42 40q-16 23 -16 57q0 78 98 116q98 36 263 36q137 0 236 -32q96 -33 123 -93l-114 -53
q-1 25 -77 48q-73 22 -180 22q-95 0 -159 -11q-62 -11 -62 -29q0 -15 50 -20q48 -6 241 -18q186 -12 256 -42q70 -31 70 -114q0 -85 -98 -121q-98 -37 -280 -37zM313 -269v51q93 0 134 44q-45 -10 -90 9t-45 57q0 32 30 53t74 21q42 0 73 -23q30 -24 30 -66q0 -67 -56 -106
q-55 -40 -150 -40z" />
    <glyph glyph-name="uni021A" unicode="&#x21a;" horiz-adv-x="978" 
d="M21 664h936v-123h-402v-541h-131v541h-403v123zM489 -34q42 0 73 -23q30 -24 30 -66q0 -67 -56 -106q-55 -40 -150 -40v51q93 0 134 44q-45 -10 -90 9t-45 57q0 32 30 53t74 21z" />
    <glyph glyph-name="uni021B" unicode="&#x21b;" horiz-adv-x="614" 
d="M518 142l94 -83q-62 -72 -185 -72q-97 0 -159 47q-63 46 -63 122v198h-162v120h162v88l128 71v-159h234v-120h-234v-177q0 -31 26 -51q25 -19 68 -19q68 0 91 35zM427 -34q42 0 73 -23q30 -24 30 -66q0 -67 -56 -106q-55 -40 -150 -40v51q93 0 134 44q-45 -10 -90 9
t-45 57q0 32 30 53t74 21z" />
    <glyph glyph-name="uni0232" unicode="&#x232;" horiz-adv-x="1200" 
d="M796 822v-111h-392v111h392zM1187 664l-521 -450v-214h-131v213l-522 451h192l395 -340l395 340h192z" />
    <glyph glyph-name="uni0233" unicode="&#x233;" horiz-adv-x="889" 
d="M640 631v-111h-392v111h392zM733 474h156l-499 -659h-155l139 185l-374 474h157l295 -371z" />
    <glyph glyph-name="uni0237" unicode="&#x237;" horiz-adv-x="284" 
d="M-16 -200q-124 0 -185 72l94 83q23 -35 91 -35q44 0 69 19t25 51v484h128v-505q0 -75 -62 -122q-64 -47 -160 -47z" />
    <glyph glyph-name="uni0259" unicode="&#x259;" horiz-adv-x="917" 
d="M876 237q0 -77 -63 -135t-156 -87q-93 -28 -198 -28q-79 0 -161 20q-81 20 -141 55q-62 34 -94 92q-32 56 -17 123h684q-28 45 -103 70q-78 26 -168 26q-148 0 -243 -55l-93 82q60 40 153 64q92 23 183 23q101 0 194 -27q95 -27 158 -85q65 -59 65 -138zM459 101
q89 0 162 24q73 22 103 63h-530q30 -40 104 -63q74 -24 161 -24z" />
    <glyph glyph-name="uni0272" unicode="&#x272;" horiz-adv-x="956" 
d="M544 487q148 0 246 -56q97 -55 97 -155v-276h-128v234q0 134 -242 134q-67 0 -138 -23q-69 -24 -121 -76t-52 -122v-178q0 -75 -62 -122q-64 -47 -160 -47q-23 0 -56 5l56 115q44 0 69 19t25 51v484h128v-111q61 59 150 92q91 32 188 32z" />
    <glyph glyph-name="circumflex" unicode="&#x2c6;" horiz-adv-x="451" 
d="M458 711h-169l-63 81l-64 -81h-169l162 144h141z" />
    <glyph glyph-name="caron" unicode="&#x2c7;" horiz-adv-x="594" 
d="M360 855h169l-162 -144h-141l-162 144h169l64 -81z" />
    <glyph glyph-name="uni02C9" unicode="&#x2c9;" horiz-adv-x="392" 
d="M0 709v111h392v-111h-392z" />
    <glyph glyph-name="breve" unicode="&#x2d8;" horiz-adv-x="506" 
d="M253 705q-91 0 -153 43q-64 43 -64 107h141q0 -33 23 -54q22 -21 53 -21q30 0 54 21q23 21 23 54h140q0 -63 -63 -107q-64 -43 -154 -43z" />
    <glyph glyph-name="dotaccent" unicode="&#x2d9;" horiz-adv-x="253" 
d="M127 698q-43 0 -74 20q-30 20 -30 50q0 32 30 53t74 21q41 0 73 -21q30 -21 30 -53q0 -30 -30 -50q-32 -20 -73 -20z" />
    <glyph glyph-name="ring" unicode="&#x2da;" horiz-adv-x="542" 
d="M271 707q-85 0 -148 22q-64 22 -64 54q0 31 64 53q63 22 148 22q87 0 150 -22t63 -53t-63 -54q-62 -22 -150 -22zM271 743q31 0 50 12q18 12 18 28q0 15 -18 27q-20 11 -50 11q-27 0 -47 -11q-20 -12 -20 -27q0 -16 20 -28q19 -12 47 -12z" />
    <glyph glyph-name="ogonek" unicode="&#x2db;" horiz-adv-x="371" 
d="M291 -182q-141 0 -211 17q-69 17 -69 56q0 36 45 66q44 29 100 46q57 15 116 24l40 -27q-50 -10 -90 -36q-41 -27 -41 -54q0 -22 27 -30q29 -8 101 -8z" />
    <glyph glyph-name="tilde" unicode="&#x2dc;" horiz-adv-x="505" 
d="M335 704q-13 0 -31 2q-16 2 -29 6q-12 4 -22 8q-7 1 -22 11l-18 12q-4 1 -20 14q-4 3 -9 6.5t-7 5.5t-3 2q-16 10 -19 -15l-2 -45h-131q0 66 41 110q41 42 106 42q11 0 29 -2q5 -1 13.5 -2.5t10.5 -1.5q5 -1 22 -7q5 -2 11 -4.5t8 -3.5t18 -11q4 -2 7 -4.5t5.5 -4
t3.5 -2.5q1 0 6.5 -4t10.5 -8q11 -10 16 -13q16 -10 19 15l2 45h132q0 -66 -41 -109q-42 -42 -107 -42z" />
    <glyph glyph-name="hungarumlaut" unicode="&#x2dd;" horiz-adv-x="322" 
d="M0 711l116 135h158l-162 -135h-112zM211 711l115 135h158l-162 -135h-111z" />
    <glyph glyph-name="gravecomb" unicode="&#x300;" horiz-adv-x="0" 
d="M1 702h-131l-162 144h180z" />
    <glyph glyph-name="acutecomb" unicode="&#x301;" horiz-adv-x="0" 
d="M-130 702l113 144h180l-162 -144h-131z" />
    <glyph glyph-name="uni0302" unicode="&#x302;" horiz-adv-x="0" 
d="M6 702h-169l-63 81l-64 -81h-169l162 144h141z" />
    <glyph glyph-name="tildecomb" unicode="&#x303;" horiz-adv-x="0" 
d="M-170 695q-13 0 -31 2q-16 2 -29 6q-12 4 -22 8q-7 1 -22 11l-18 12q-4 1 -20 14q-4 3 -9 6.5t-7 5.5t-3 2q-16 10 -19 -15l-2 -45h-131q0 66 41 110q40 42 106 42q11 0 29 -2q5 -1 13.5 -2.5t10.5 -1.5q5 -1 22 -7q5 -2 11 -4.5t8 -3.5t18 -11q5 -3 10 -7l6 -4
q1 -1 6.5 -5t10.5 -7q11 -10 16 -13q16 -10 19 15q2 18 2 45h132q0 -66 -41 -109q-42 -42 -107 -42z" />
    <glyph glyph-name="uni0304" unicode="&#x304;" horiz-adv-x="0" 
d="M-392 702v111h392v-111h-392z" />
    <glyph glyph-name="uni0306" unicode="&#x306;" horiz-adv-x="0" 
d="M-252 696q-91 0 -153 43q-64 43 -64 107h141q0 -33 23 -54t53 -21t54 21q23 21 23 54h140q0 -64 -63 -107q-64 -43 -154 -43z" />
    <glyph glyph-name="uni0307" unicode="&#x307;" horiz-adv-x="0" 
d="M-126 697q-43 0 -74 20q-30 19 -30 50q0 32 30 53t74 21q42 0 73 -21q30 -21 30 -53q0 -31 -30 -50q-32 -20 -73 -20z" />
    <glyph glyph-name="uni0308" unicode="&#x308;" horiz-adv-x="0" 
d="M-418 697q-43 0 -74 20q-30 19 -30 50q0 32 30 53t74 21q42 0 73 -21q30 -21 30 -53q0 -31 -30 -50q-32 -20 -73 -20zM-163 697q-43 0 -74 20q-30 19 -30 50q0 32 30 53t74 21q41 0 73 -21q30 -21 30 -53q0 -31 -30 -50q-32 -20 -73 -20z" />
    <glyph glyph-name="uni030A" unicode="&#x30a;" horiz-adv-x="0" 
d="M-271 698q-85 0 -148 22q-64 22 -64 54q0 31 64 53q63 22 148 22q87 0 150 -22q63 -23 63 -53q0 -32 -63 -54q-62 -22 -150 -22zM-271 734q31 0 50 12q18 12 18 28q0 15 -18 27q-20 11 -50 11q-27 0 -47 -11q-20 -12 -20 -27q0 -16 20 -28q19 -12 47 -12z" />
    <glyph glyph-name="uni030B" unicode="&#x30b;" horiz-adv-x="0" 
d="M-322 711l116 135h158l-162 -135h-112zM-111 711l115 135h158l-162 -135h-111z" />
    <glyph glyph-name="uni030C" unicode="&#x30c;" horiz-adv-x="0" 
d="M-232 846h169l-162 -144h-141l-162 144h169l64 -81z" />
    <glyph glyph-name="uni0312" unicode="&#x312;" horiz-adv-x="0" 
d="M-20 924v-51q-93 0 -134 -44q45 11 90 -9t45 -57q0 -32 -30 -53t-74 -21q-43 0 -73 24q-30 23 -30 65q0 66 56 107q56 39 150 39z" />
    <glyph glyph-name="dotbelowcomb" unicode="&#x323;" horiz-adv-x="0" 
d="M-132 -182q-43 0 -74 20q-30 19 -30 50q0 32 30 53t74 21q42 0 73 -21q30 -21 30 -53q0 -30 -30 -50q-32 -20 -73 -20z" />
    <glyph glyph-name="uni0326" unicode="&#x326;" horiz-adv-x="0" 
d="M-231 -269v51q93 0 134 44q-45 -10 -90 9t-45 57q0 32 30 53t74 21q42 0 73 -23q30 -24 30 -66q0 -67 -56 -106q-55 -40 -150 -40z" />
    <glyph glyph-name="uni0327" unicode="&#x327;" horiz-adv-x="0" 
d="M-345 -182l-24 66q181 0 181 21q0 19 -115 19l46 76h76l-27 -33q97 0 142 -16q46 -16 46 -54q0 -79 -325 -79z" />
    <glyph glyph-name="uni0328" unicode="&#x328;" horiz-adv-x="0" 
d="M-80 -182q-141 0 -211 17q-69 17 -69 56q0 36 45 66q44 29 100 46q57 15 116 24l40 -27q-49 -10 -90 -36q-41 -27 -41 -54q0 -22 27 -30q29 -8 101 -8z" />
    <glyph glyph-name="uni0335" unicode="&#x335;" horiz-adv-x="0" 
d="M-420 546v92h370v-92h-370z" />
    <glyph glyph-name="uni0336" unicode="&#x336;" horiz-adv-x="0" 
d="M-382 408h370v-52h-370v52z" />
    <glyph glyph-name="uni0337" unicode="&#x337;" horiz-adv-x="0" 
d="M-743 -26l-45 80l795 433l45 -80z" />
    <glyph glyph-name="uni0338" unicode="&#x338;" horiz-adv-x="0" 
d="M-963 0l-50 79l1003 585l49 -79z" />
    <glyph glyph-name="uni03BC" unicode="&#x3bc;" horiz-adv-x="955" 
d="M750 474h128v-474h-128v92q-60 -51 -150 -78q-92 -27 -189 -27q-129 0 -214 46v-205h-128v646h128v-218q0 -74 71 -112q70 -37 183 -37q71 0 135 16q67 17 115 55q49 39 49 92v204z" />
    <glyph glyph-name="pi" unicode="&#x3c0;" horiz-adv-x="965" 
d="M914 351h-263v-122q0 -129 263 -129v-123q-62 0 -111 7q-57 8 -106 25q-56 19 -91 46q-38 28 -62 72q-24 45 -24 102v122h-130v-351h-131v351h-209v123h864v-123z" />
    <glyph glyph-name="Wgrave" unicode="&#x1e80;" horiz-adv-x="1409" 
d="M770 711h-131l-162 144h180zM1260 664h141l-279 -664h-191l-227 541l-227 -541h-190l-279 664h141l234 -557l237 557h169l238 -555z" />
    <glyph glyph-name="wgrave" unicode="&#x1e81;" horiz-adv-x="1465" 
d="M797 520h-131l-162 144h180zM1316 476l151 -2l-318 -474h-165l-251 377l-252 -377h-166l-317 474h150l250 -375l249 375h170l250 -375z" />
    <glyph glyph-name="Wacute" unicode="&#x1e82;" horiz-adv-x="1409" 
d="M933 855l-162 -144h-131l113 144h180zM1260 664h141l-279 -664h-191l-227 541l-227 -541h-190l-279 664h141l234 -557l237 557h169l238 -555z" />
    <glyph glyph-name="wacute" unicode="&#x1e83;" horiz-adv-x="1465" 
d="M959 664l-162 -144h-131l113 144h180zM1316 476l151 -2l-318 -474h-165l-251 377l-252 -377h-166l-317 474h150l250 -375l249 375h170l250 -375z" />
    <glyph glyph-name="Wdieresis" unicode="&#x1e84;" horiz-adv-x="1409" 
d="M568 698q-43 0 -74 20q-30 20 -30 50q0 32 30 53t74 21q42 0 73 -21q30 -21 30 -53q0 -30 -30 -50q-32 -20 -73 -20zM823 698q-43 0 -74 20q-30 20 -30 50q0 32 30 53t74 21q41 0 73 -21q30 -21 30 -53q0 -30 -30 -50q-32 -20 -73 -20zM1260 664h141l-279 -664h-191
l-227 541l-227 -541h-190l-279 664h141l234 -557l237 557h169l238 -555z" />
    <glyph glyph-name="wdieresis" unicode="&#x1e85;" horiz-adv-x="1465" 
d="M605 515q-43 0 -74 20q-30 19 -30 50q0 32 30 53t74 21q41 0 73 -21q30 -21 30 -53q0 -31 -30 -50q-32 -20 -73 -20zM860 515q-43 0 -74 20q-30 19 -30 50q0 32 30 53t74 21q42 0 73 -21q30 -21 30 -53q0 -31 -30 -50q-32 -20 -73 -20zM1316 476l151 -2l-318 -474h-165
l-251 377l-252 -377h-166l-317 474h150l250 -375l249 375h170l250 -375z" />
    <glyph glyph-name="uni1E8A" unicode="&#x1e8a;" horiz-adv-x="1045" 
d="M523 695q-43 0 -74 20q-30 19 -30 50q0 32 30 53t74 21q41 0 73 -21q30 -21 30 -53q0 -31 -30 -50q-32 -20 -73 -20zM1060 0h-197l-341 279l-340 -279h-197l438 359l-373 305h197l275 -226l276 226h197l-373 -305z" />
    <glyph glyph-name="uni1E8B" unicode="&#x1e8b;" horiz-adv-x="919" 
d="M461 515q-43 0 -74 20q-30 19 -30 50q0 32 30 53t74 21q41 0 73 -21q30 -21 30 -53q0 -31 -30 -50q-32 -20 -73 -20zM924 0h-212l-252 173l-253 -173h-212l359 246l-332 228h212l226 -155l225 155h212l-331 -228z" />
    <glyph glyph-name="uni1E9E" unicode="&#x1e9e;" horiz-adv-x="1314" 
d="M946 399q152 -5 231 -57t79 -133q0 -73 -64 -124q-65 -52 -168 -74q-104 -24 -237 -24q-144 0 -267 34q-124 35 -204 96l88 95q134 -102 383 -102q152 0 242 30q90 28 90 69q0 67 -234 67h-231l-54 124l185 -1l130 142h-350q-164 0 -253 -50t-89 -140v-354h-131v384
q0 87 61 152q60 65 158 98t214 33h666z" />
    <glyph glyph-name="uni1EA0" unicode="&#x1ea0;" horiz-adv-x="1093" 
d="M1087 0h-155l-88 127h-594l-88 -127h-156l459 664h163zM335 250h424l-212 307zM546 -38q42 0 73 -21q30 -21 30 -53q0 -30 -30 -50q-32 -20 -73 -20q-43 0 -74 20q-30 20 -30 50q0 32 30 53t74 21z" />
    <glyph glyph-name="uni1EA1" unicode="&#x1ea1;" horiz-adv-x="943" 
d="M738 474h128v-474h-128v76q-116 -89 -313 -89q-101 0 -187 27q-84 25 -141 85q-56 59 -56 138t54 137q52 57 140 86q86 27 190 27q92 0 173 -22q83 -23 140 -66v75zM456 107q124 0 203 36t79 94q0 57 -78 94q-80 36 -204 36q-126 0 -204 -36q-78 -38 -77 -94
q0 -58 79 -94q80 -36 202 -36zM426 -38q41 0 73 -21q30 -21 30 -53q0 -30 -30 -50q-32 -20 -73 -20q-43 0 -74 20q-30 20 -30 50q0 32 30 53t74 21z" />
    <glyph glyph-name="uni1EB8" unicode="&#x1eb8;" horiz-adv-x="981" 
d="M925 541h-702v-134h612v-123h-612v-161h702v-123h-833v664h833v-123zM510 -38q42 0 73 -21q30 -21 30 -53q0 -30 -30 -50q-32 -20 -73 -20q-43 0 -74 20q-30 20 -30 50q0 32 30 53t74 21z" />
    <glyph glyph-name="uni1EB9" unicode="&#x1eb9;" horiz-adv-x="917" 
d="M458 487q84 0 161 -19q75 -18 142 -55q63 -37 94 -92q31 -56 16 -124h-684q28 -45 103 -70q78 -26 168 -26q148 0 243 55l93 -82q-61 -40 -152 -63q-92 -24 -184 -24q-101 0 -194 27t-158 86t-65 137q0 77 63 136q62 57 157 86q91 28 197 28zM458 373q-87 0 -162 -23
q-73 -24 -103 -64h530q-30 40 -103 64q-75 23 -162 23zM459 -38q41 0 73 -21q30 -21 30 -53q0 -30 -30 -50q-32 -20 -73 -20q-43 0 -74 20q-30 20 -30 50q0 32 30 53t74 21z" />
    <glyph glyph-name="uni1EBC" unicode="&#x1ebc;" horiz-adv-x="981" 
d="M431 771q-16 10 -19 -15l-2 -45h-131q0 66 41 110q40 42 106 42q11 0 29 -2q5 -1 13.5 -2.5t10.5 -1.5q5 -1 22 -7q5 -2 11.5 -4.5t7.5 -3.5q2 -1 18 -11q4 -2 7 -4.5t5.5 -4t3.5 -2.5q1 0 6.5 -4t10.5 -8q11 -10 16 -13q16 -10 19 15q2 18 2 45h132q0 -66 -41 -109
q-42 -42 -107 -42q-13 0 -31 2q-16 2 -29 6q-12 4 -22 8q-7 1 -22 11l-18 12q-4 1 -20 14q-4 3 -9 6.5t-7 5.5t-3 2zM925 541h-702v-134h612v-123h-612v-161h702v-123h-833v664h833v-123z" />
    <glyph glyph-name="uni1EBD" unicode="&#x1ebd;" horiz-adv-x="917" 
d="M379 580q-16 10 -19 -15l-2 -45h-131q0 66 41 110q40 42 106 42q11 0 29 -2q5 -1 13.5 -2.5t10.5 -1.5q5 -1 22 -7q5 -2 11 -4.5t8 -3.5t18 -11q5 -3 10 -7l6 -4q1 -1 6.5 -5t10.5 -7q11 -10 16 -13q16 -10 19 15q2 18 2 45h132q0 -66 -41 -109q-42 -42 -107 -42
q-13 0 -31 2q-16 2 -29 6q-12 4 -22 8q-7 1 -22 11l-18 12q-4 1 -20 14q-4 3 -9 6.5t-7 5.5t-3 2zM458 487q84 0 161 -19q75 -18 142 -55q63 -37 94 -92q31 -56 16 -124h-684q28 -45 103 -70q78 -26 168 -26q148 0 243 55l93 -82q-61 -40 -152 -63q-92 -24 -184 -24
q-101 0 -194 27t-158 86t-65 137q0 77 63 136q62 57 157 86q91 28 197 28zM458 373q-87 0 -162 -23q-73 -24 -103 -64h530q-30 40 -103 64q-75 23 -162 23z" />
    <glyph glyph-name="uni1ECA" unicode="&#x1eca;" horiz-adv-x="315" 
d="M92 0v664h131v-664h-131zM159 -182q-43 0 -74 20q-30 20 -30 50q0 32 30 53t74 21q41 0 73 -21q30 -21 30 -53q0 -30 -30 -50q-32 -20 -73 -20z" />
    <glyph glyph-name="uni1ECB" unicode="&#x1ecb;" horiz-adv-x="284" 
d="M143 515q-43 0 -74 20q-30 19 -30 50q0 32 30 53t74 21q41 0 73 -21q30 -21 30 -53q0 -31 -30 -50q-32 -20 -73 -20zM78 0v474h128v-474h-128zM143 -182q-43 0 -74 20q-30 20 -30 50q0 32 30 53t74 21q41 0 73 -21q30 -21 30 -53q0 -30 -30 -50q-32 -20 -73 -20z" />
    <glyph glyph-name="uni1ECC" unicode="&#x1ecc;" horiz-adv-x="1144" 
d="M572 -13q-92 0 -186 23q-93 23 -168 64q-78 43 -124 110q-48 68 -48 149q0 105 80 187q80 81 198 120q117 39 248 39q130 0 249 -39q118 -39 197 -120q80 -82 80 -187q0 -81 -47 -149q-49 -69 -124 -110q-74 -41 -169 -64q-94 -23 -186 -23zM572 110q95 0 182 23
q84 22 147 76q60 53 60 124q0 70 -59 123q-59 52 -146 76t-184 24q-98 0 -183 -24q-89 -24 -146 -76q-60 -52 -60 -123q0 -72 61 -124q63 -54 147 -76q87 -23 181 -23zM573 -182q-43 0 -74 20q-30 20 -30 50q0 32 30 53t74 21q41 0 73 -21q30 -21 30 -53q0 -30 -30 -50
q-32 -20 -73 -20z" />
    <glyph glyph-name="uni1ECD" unicode="&#x1ecd;" horiz-adv-x="916" 
d="M458 -13q-101 0 -194 27t-158 86t-65 137q0 77 63 136q62 57 157 86q91 28 197 28q103 0 196 -27q91 -27 157 -86q64 -58 64 -137q0 -78 -64 -136q-66 -59 -157 -86q-93 -28 -196 -28zM458 107q70 0 133 15q64 14 107 45q43 30 43 70q0 31 -25 56q-24 24 -66 41
q-37 15 -91 25q-53 8 -101 8q-110 0 -197 -35q-88 -36 -86 -95q0 -61 87 -95q88 -35 196 -35zM459 -182q-43 0 -74 20q-30 20 -30 50q0 32 30 53t74 21q41 0 73 -21q30 -21 30 -53q0 -30 -30 -50q-32 -20 -73 -20z" />
    <glyph glyph-name="uni1EE4" unicode="&#x1ee4;" horiz-adv-x="1133" 
d="M567 -13q-131 0 -241 39q-109 37 -179 118q-70 79 -70 189v331h131v-304q0 -117 104 -183q103 -67 255 -67t255 67q103 66 103 183v304h131v-331q0 -109 -69 -189q-72 -81 -179 -118q-110 -39 -241 -39zM568 -182q-43 0 -74 20q-30 20 -30 50q0 32 30 53t74 21
q42 0 73 -21q30 -21 30 -53q0 -30 -30 -50q-32 -20 -73 -20z" />
    <glyph glyph-name="uni1EE5" unicode="&#x1ee5;" horiz-adv-x="956" 
d="M750 474h128v-474h-128v92q-60 -51 -150 -78q-92 -27 -189 -27q-153 0 -248 68q-94 67 -94 193v226h128v-218q0 -74 71 -112q70 -37 183 -37q71 0 135 16q67 17 115 55q49 39 49 92v204zM459 -38q41 0 73 -21q30 -21 30 -53q0 -30 -30 -50q-32 -20 -73 -20q-43 0 -74 20
q-30 20 -30 50q0 32 30 53t74 21z" />
    <glyph glyph-name="Ygrave" unicode="&#x1ef2;" horiz-adv-x="1200" 
d="M665 711h-131l-162 144h180zM1187 664l-521 -450v-214h-131v213l-522 451h192l395 -340l395 340h192z" />
    <glyph glyph-name="ygrave" unicode="&#x1ef3;" horiz-adv-x="889" 
d="M509 520h-131l-162 144h180zM733 474h156l-499 -659h-155l139 185l-374 474h157l295 -371z" />
    <glyph glyph-name="uni1EF8" unicode="&#x1ef8;" horiz-adv-x="1200" 
d="M522 771q-16 10 -19 -15l-2 -45h-131q0 66 41 110q41 42 106 42q11 0 29 -2q5 -1 13.5 -2.5t10.5 -1.5q5 -1 22 -7q5 -2 11 -4.5t8 -3.5t18 -11q5 -3 11 -7l5 -4q1 0 6.5 -4t10.5 -8q11 -10 16 -13q16 -10 19 15q2 18 2 45h132q0 -66 -41 -109q-42 -42 -107 -42
q-13 0 -31 2q-16 2 -29 6q-12 4 -22 8q-7 1 -22 11l-18 12q-4 1 -20 14q-4 3 -9 6.5t-7 5.5t-3 2zM1187 664l-521 -450v-214h-131v213l-522 451h192l395 -340l395 340h192z" />
    <glyph glyph-name="uni1EF9" unicode="&#x1ef9;" horiz-adv-x="889" 
d="M365 580q-16 10 -19 -15l-2 -45h-131q0 66 41 110q40 42 106 42q11 0 29 -2q5 -1 13.5 -2.5t10.5 -1.5q5 -1 22 -7q5 -2 11 -4.5t8 -3.5t18 -11q4 -2 7 -4.5t5.5 -4t3.5 -2.5t6.5 -5t10.5 -7q11 -10 16 -13q16 -10 19 15q2 18 2 45h132q0 -66 -41 -109q-42 -42 -107 -42
q-13 0 -31 2q-16 2 -29 6q-12 4 -22 8q-7 1 -22 11l-18 12q-4 1 -20 14q-4 3 -9 6.5t-7 5.5t-3 2zM733 474h156l-499 -659h-155l139 185l-374 474h157l295 -371z" />
    <glyph glyph-name="endash" unicode="&#x2013;" horiz-adv-x="642" 
d="M71 199v123h500v-123h-500z" />
    <glyph glyph-name="emdash" unicode="&#x2014;" horiz-adv-x="1078" 
d="M71 199v123h936v-123h-936z" />
    <glyph glyph-name="quoteleft" unicode="&#x2018;" horiz-adv-x="303" 
d="M254 675v-51q-93 0 -134 -44q45 10 90 -9t45 -57q0 -32 -30 -53t-74 -21q-43 0 -73 24q-30 22 -30 65q0 66 56 107q56 39 150 39z" />
    <glyph glyph-name="quoteright" unicode="&#x2019;" horiz-adv-x="303" 
d="M49 441v51q93 0 134 44q-45 -10 -90 9t-45 57q0 32 30 53t74 21q42 0 73 -23q30 -24 30 -66q0 -67 -56 -106q-55 -40 -150 -40z" />
    <glyph glyph-name="quotesinglbase" unicode="&#x201a;" horiz-adv-x="326" 
d="M60 -102v51q93 0 134 44q-45 -11 -90 9t-45 57q0 32 30 53t74 21q42 0 73 -23q30 -24 30 -66q0 -67 -56 -106q-55 -40 -150 -40z" />
    <glyph glyph-name="quotereversed" unicode="&#x201b;" horiz-adv-x="303" 
d="M254 441q-95 0 -150 40q-56 39 -56 106q0 42 30 66q31 23 73 23q44 0 74 -21t30 -53q0 -38 -45 -57t-90 -9q41 -44 134 -44v-51z" />
    <glyph glyph-name="quotedblleft" unicode="&#x201c;" horiz-adv-x="550" 
d="M254 676v-51q-93 0 -134 -44q45 11 90 -9t45 -57q0 -32 -30 -53t-74 -21q-43 0 -73 24q-30 23 -30 65q0 66 56 107q56 39 150 39zM501 676v-51q-93 0 -134 -44q45 11 90 -9t45 -57q0 -32 -30 -53t-74 -21q-43 0 -73 24q-30 23 -30 65q0 66 56 107q55 39 150 39z" />
    <glyph glyph-name="quotedblright" unicode="&#x201d;" horiz-adv-x="550" 
d="M49 441v51q93 0 134 44q-45 -10 -90 9t-45 57q0 32 30 53t74 21q42 0 73 -23q30 -24 30 -66q0 -67 -56 -106q-55 -40 -150 -40zM296 441v51q93 0 134 44q-45 -10 -90 9t-45 57q0 32 30 53t74 21q42 0 73 -23q30 -24 30 -66q0 -67 -56 -106q-55 -40 -150 -40z" />
    <glyph glyph-name="quotedblbase" unicode="&#x201e;" horiz-adv-x="573" 
d="M60 -102v51q93 0 134 44q-45 -11 -90 9t-45 57q0 32 30 53t74 21q42 0 73 -23q30 -24 30 -66q0 -67 -56 -106q-55 -40 -150 -40zM307 -102v51q93 0 134 44q-45 -11 -90 9t-45 57q0 32 30 53t74 21q42 0 73 -23q30 -24 30 -66q0 -67 -56 -106q-55 -40 -150 -40z" />
    <glyph glyph-name="uni201F" unicode="&#x201f;" horiz-adv-x="550" 
d="M254 441q-95 0 -150 40q-56 39 -56 106q0 42 30 66q31 23 73 23q44 0 74 -21t30 -53q0 -38 -45 -57t-90 -9q41 -44 134 -44v-51zM501 441q-95 0 -150 40q-56 39 -56 106q0 42 30 66q31 23 73 23q44 0 74 -21t30 -53q0 -38 -45 -57t-90 -9q41 -44 134 -44v-51z" />
    <glyph glyph-name="dagger" unicode="&#x2020;" horiz-adv-x="857" 
d="M796 507v-124l-316 8l15 -391h-131l14 391l-317 -8v124l317 -8l-15 165h132l-15 -165z" />
    <glyph glyph-name="daggerdbl" unicode="&#x2021;" horiz-adv-x="857" 
d="M363 0l15 165l-317 -8v124l317 -8v118l-317 -8v124l317 -8l-15 165h132l-15 -165l316 8v-124l-316 8v-118l316 8v-124l-316 8l15 -165h-132z" />
    <glyph glyph-name="bullet" unicode="&#x2022;" horiz-adv-x="582" 
d="M289 -13q-102 0 -175 73t-73 175q0 106 73 179t175 73q106 0 179 -73t73 -179q0 -102 -73 -175t-179 -73z" />
    <glyph glyph-name="ellipsis" unicode="&#x2026;" horiz-adv-x="978" 
d="M163 -11q-43 0 -74 20q-30 19 -30 50q0 32 30 53t74 21q41 0 73 -21q30 -21 30 -53q0 -31 -30 -50q-32 -20 -73 -20zM489 -11q-43 0 -74 20q-30 20 -30 50q0 32 30 53t74 21q41 0 73 -21q30 -21 30 -53q0 -31 -30 -50q-32 -20 -73 -20zM815 -11q-43 0 -74 20
q-30 19 -30 50q0 32 30 53t74 21q41 0 73 -21q30 -21 30 -53q0 -31 -30 -50q-32 -20 -73 -20z" />
    <glyph glyph-name="perthousand" unicode="&#x2030;" horiz-adv-x="1913" 
d="M315 291q-115 0 -197 56q-82 55 -82 136q0 83 81 138q82 56 198 56q115 0 197 -56q81 -55 81 -138q0 -80 -81 -136q-82 -56 -197 -56zM406 0l380 664h113l-380 -664h-113zM315 400q67 0 111 25q44 26 44 58q0 34 -44 60q-44 25 -111 25t-110 -25q-45 -25 -45 -60
q0 -31 45 -57q46 -26 110 -26zM990 -13q-115 0 -197 56q-82 55 -82 136q0 83 81 138q82 56 198 56q115 0 197 -56q81 -55 81 -138q0 -80 -81 -136q-82 -56 -197 -56zM1598 -13q-115 0 -197 56q-82 55 -82 136q0 83 81 138q82 56 198 56q115 0 197 -56q81 -55 81 -138
q0 -80 -81 -136q-82 -56 -197 -56zM990 96q67 0 111 25q44 26 44 58q0 34 -44 60q-44 25 -111 25q-68 0 -111 -25q-44 -26 -44 -60q0 -31 45 -57q46 -26 110 -26zM1598 96q67 0 111 25q44 26 44 58q0 34 -44 60q-44 25 -111 25q-68 0 -111 -25q-44 -26 -44 -60q0 -31 45 -57
q46 -26 110 -26z" />
    <glyph glyph-name="minute" unicode="&#x2032;" horiz-adv-x="244" 
d="M49 338l-1 326h148l-19 -326h-128z" />
    <glyph glyph-name="second" unicode="&#x2033;" horiz-adv-x="488" 
d="M49 338l-1 326h148l-19 -326h-128zM293 338l-1 326h148l-19 -326h-128z" />
    <glyph glyph-name="uni2034" unicode="&#x2034;" horiz-adv-x="732" 
d="M49 338l-1 326h148l-19 -326h-128zM293 338l-1 326h148l-19 -326h-128zM537 338l-1 326h148l-19 -326h-128z" />
    <glyph glyph-name="guilsinglleft" unicode="&#x2039;" horiz-adv-x="427" 
d="M282 -13l-250 250l250 250l93 -87l-166 -163l166 -163z" />
    <glyph glyph-name="guilsinglright" unicode="&#x203a;" horiz-adv-x="427" 
d="M145 -13l-93 87l166 163l-166 163l93 87l250 -250z" />
    <glyph glyph-name="fraction" unicode="&#x2044;" horiz-adv-x="392" 
d="M330 664h112l-380 -664h-112z" />
    <glyph glyph-name="Euro" unicode="&#x20ac;" horiz-adv-x="1067" 
d="M927 214l91 -92q-75 -64 -198 -99q-123 -36 -244 -36q-102 0 -199 24q-96 24 -180 77q-84 54 -121 124h-76v94h47q-1 6 -1 27q0 20 1 25h-47v94h75q39 73 118 124q79 52 178 78q96 25 203 25q128 0 243 -36q112 -36 181 -101l-73 -110q-54 61 -146 93q-92 31 -205 31
q-109 0 -194 -28q-89 -29 -139 -76h433v-94h-489q-2 -22 -2 -25q0 -13 3 -27h488v-94h-431q54 -48 139 -74q85 -28 194 -28q103 0 201 29q95 29 150 75z" />
    <glyph glyph-name="uni20BA" unicode="&#x20ba;" horiz-adv-x="795" 
d="M612 346h137q0 -81 -47 -149q-49 -69 -124 -110q-74 -41 -169 -64q-94 -23 -186 -23h-131v251l-92 -46v105l92 46v36l-91 -45v105l91 45v167h131v-102l205 102v-105l-205 -102v-36l204 101v-105l-204 -101v-193q95 0 182 23q85 22 147 75q60 53 60 125z" />
    <glyph glyph-name="uni20BD" unicode="&#x20bd;" horiz-adv-x="1059" 
d="M225 233h-2v-36h535v-94h-535v-103h-131v103h-92v94h92v36h-92v123h92v308q169 6 515 6q211 0 309 -50q97 -51 97 -169q0 -112 -98 -163q-98 -52 -308 -53h-199q-34 0 -77 -0.5t-67.5 -1t-38.5 -0.5zM223 543v-186q77 0 168 1h241q134 2 189 24q56 23 56 69q0 49 -55 73
q-57 23 -190 23q-201 -1 -409 -4z" />
    <glyph glyph-name="uni2116" unicode="&#x2116;" horiz-adv-x="2103" 
d="M1640 679q103 0 196 -27q91 -27 157 -86q64 -58 64 -137q0 -78 -64 -136q-66 -59 -157 -86q-93 -28 -196 -28q-101 0 -194 27t-158 86t-65 137q0 77 63 136q62 57 157 86q91 28 197 28zM959 134v530h131v-664h-163l-704 530v-530h-131v664h163zM1923 429q0 31 -25 56
q-24 24 -66 41q-37 15 -91 25q-53 8 -101 8q-110 0 -197 -35q-88 -36 -86 -95q0 -61 87 -95q88 -35 196 -35q70 0 133 15q64 14 107 45q43 30 43 70zM1640 133q42 0 73 -21q30 -21 30 -53q0 -31 -30 -50q-32 -20 -73 -20q-43 0 -74 20q-30 19 -30 50q0 32 30 53t74 21z" />
    <glyph glyph-name="trademark" unicode="&#x2122;" horiz-adv-x="1503" 
d="M21 574v90h585v-90h-244v-325h-98v325h-243zM1300 664h111v-415h-97v276l-213 -276h-109l-207 274v-274h-98v415h111l249 -335z" />
    <glyph glyph-name="Omega" unicode="&#x2126;" 
d="M1092 364q0 -75 -53 -137t-142 -104h142v-123h-381v123q123 14 208 71q86 59 86 143q0 68 -59 119q-60 51 -145 75t-179 24q-91 0 -177 -24q-87 -24 -145 -75q-60 -51 -60 -119q0 -83 87 -142t207 -72v-123h-382v123h143q-90 42 -143 104t-53 137q0 96 79 169t197 109
q117 36 247 36q129 0 248 -36q117 -36 196 -109t79 -169z" />
    <glyph glyph-name="estimated" unicode="&#x212e;" horiz-adv-x="848" 
d="M424 -13q-169 0 -273 94q-105 95 -105 251q0 155 106 251q106 95 272 95q170 0 271 -92q99 -92 107 -264h-601q-8 0 -11 -3q-4 -3 -4 -14v-169q0 -34 71 -81q71 -48 167 -48q76 0 142 31q67 31 98 86h70q-69 -77 -137 -107q-69 -30 -173 -30zM201 342h444q11 0 14 4
q3 3 3 12v168q0 40 -80 87q-80 45 -159 45q-47 0 -93 -15q-47 -15 -77 -36q-29 -20 -48 -41q-19 -20 -19 -33v-182q0 -9 15 -9z" />
    <glyph glyph-name="uni2153" unicode="&#x2153;" horiz-adv-x="2073" 
d="M813 239v-97h-664l-19 97h289v231q-110 -122 -335 -155l-50 99q159 12 262 78q103 64 123 167v5h103v-425h291zM1164 664h112l-380 -664h-112zM1873 274q84 -19 123 -52q38 -33 38 -79q0 -54 -54 -90q-56 -36 -136 -51q-81 -15 -183 -15q-68 0 -123 7q-63 6 -118 22
q-60 15 -101 47q-43 32 -56 76l105 30q13 -40 92 -62q80 -23 201 -23q112 0 189 20q75 20 75 46q0 28 -89 51q-88 21 -210 21h-97l-27 93h74q129 0 221 20q90 19 90 46q0 25 -60 41q-61 15 -167 15q-117 0 -192 -21q-77 -21 -87 -58l-97 52q31 64 136 94q104 30 240 30
q65 0 127 -8q58 -7 106 -24q47 -16 75 -46q27 -30 27 -70q0 -77 -122 -112z" />
    <glyph glyph-name="uni2154" unicode="&#x2154;" horiz-adv-x="2066" 
d="M786 490q0 -147 -383 -248h367v-97h-693l-19 97q160 33 292 71q116 32 194 67q71 33 102 59q32 27 32 51q0 40 -71 66q-72 26 -178 26q-112 0 -199 -38q-86 -38 -86 -85q0 -27 45 -59l-58 -78q-95 57 -95 137q0 94 116 157q115 63 277 63q146 0 252 -53q105 -52 105 -136
zM1157 664h112l-380 -664h-112zM1866 274q84 -19 123 -52q38 -33 38 -79q0 -54 -54 -90q-56 -36 -136 -51q-81 -15 -183 -15q-68 0 -123 7q-63 6 -118 22q-60 15 -101 47q-43 32 -56 76l105 30q13 -40 92 -62q80 -23 201 -23q112 0 189 20q75 20 75 46q0 28 -89 51
q-89 21 -210 21h-97l-27 93h74q129 0 221 20q90 19 90 46q0 25 -61 41q-61 15 -166 15q-117 0 -192 -21q-77 -21 -87 -58l-97 52q31 64 136 94q103 30 240 30q65 0 127 -8q58 -7 106 -24q47 -16 75 -46q27 -30 27 -70q0 -77 -122 -112z" />
    <glyph glyph-name="oneeighth" unicode="&#x215b;" horiz-adv-x="2094" 
d="M813 239v-97h-664l-19 97h289v231q-110 -122 -335 -155l-50 99q159 12 262 78q103 64 123 167v5h103v-425h291zM1164 664h112l-380 -664h-112zM1905 282q151 -46 151 -135q0 -46 -53 -84q-52 -36 -144 -56t-199 -20t-199 20t-144 56q-54 37 -54 84q0 87 150 136
q-109 39 -109 111q0 62 102 101q103 38 254 38q150 0 255 -38q102 -39 102 -101q0 -73 -112 -112zM1660 436q-248 0 -248 -55q0 -24 71 -38q71 -15 177 -15t178 15q71 14 71 38q0 55 -249 55zM1660 84q120 0 205 20q83 20 83 52q0 36 -84 57q-86 20 -204 20q-119 0 -205 -20
q-84 -21 -84 -57q0 -32 84 -52q85 -20 205 -20z" />
    <glyph glyph-name="threeeighths" unicode="&#x215c;" horiz-adv-x="2107" 
d="M647 419q84 -19 123 -52q38 -33 38 -79q0 -54 -54 -90q-56 -36 -136 -51q-81 -15 -183 -15q-68 0 -123 7q-63 6 -118 22q-60 15 -101 47q-43 32 -56 76l105 30q13 -40 92 -62q80 -23 201 -23q112 0 189 20q75 19 75 46q0 28 -89 51q-88 21 -210 21h-97l-27 93h74
q129 0 221 20q90 20 90 46q0 24 -60 41q-61 15 -167 15q-117 0 -192 -21q-77 -21 -87 -58l-97 52q31 64 136 94q104 30 240 30q65 0 127 -8q58 -7 106 -24q47 -16 75 -46q27 -30 27 -70q0 -77 -122 -112zM1177 664h112l-380 -664h-112zM1918 282q151 -46 151 -135
q0 -46 -53 -84q-52 -36 -144 -56t-199 -20t-199 20t-144 56q-54 37 -54 84q0 87 150 136q-109 39 -109 111q0 62 102 101q103 38 254 38q150 0 255 -38q102 -39 102 -101q0 -73 -112 -112zM1673 436q-248 0 -248 -55q0 -24 71 -38q70 -15 177 -15q106 0 178 15q71 14 71 38
q0 55 -249 55zM1673 84q120 0 205 20q83 20 83 52q0 36 -84 57q-86 20 -204 20q-119 0 -205 -20q-84 -21 -84 -57q0 -32 84 -52q85 -20 205 -20z" />
    <glyph glyph-name="fiveeighths" unicode="&#x215d;" horiz-adv-x="2101" 
d="M451 507q160 0 256 -48q95 -50 95 -133q0 -86 -108 -142q-107 -55 -278 -55q-112 0 -219 27q-105 25 -167 67l60 81q46 -33 139 -56q88 -22 187 -22q121 0 200 29q77 29 77 71q0 39 -69 66t-169 27q-205 0 -300 -85l-97 33l71 297h641v-97h-558l-30 -120q111 60 269 60z
M1171 664h112l-380 -664h-112zM1912 282q151 -46 151 -135q0 -46 -53 -84q-52 -36 -144 -56t-199 -20t-199 20t-144 56q-54 37 -54 84q0 87 150 136q-109 39 -109 111q0 62 102 101q103 38 254 38q150 0 255 -38q102 -39 102 -101q0 -73 -112 -112zM1667 436
q-248 0 -248 -55q0 -24 71 -38q70 -15 177 -15q106 0 178 15q71 14 71 38q0 55 -249 55zM1667 84q120 0 205 20q83 20 83 52q0 36 -84 57q-86 20 -204 20q-119 0 -205 -20q-84 -21 -84 -57q0 -32 84 -52q85 -20 205 -20z" />
    <glyph glyph-name="seveneighths" unicode="&#x215e;" horiz-adv-x="1926" 
d="M799 567q-66 0 -138 -14q-64 -13 -136 -46q-64 -31 -116 -80q-50 -48 -78 -121q-28 -71 -23 -164h-111q-1 143 68 253q69 108 190 172h-430v97h774v-97zM996 664h112l-380 -664h-112zM1737 282q151 -46 151 -135q0 -46 -53 -84q-52 -36 -144 -56t-199 -20t-199 20
t-144 56q-54 37 -54 84q0 87 150 136q-109 39 -109 111q0 62 102 101q103 38 254 38q150 0 255 -38q102 -39 102 -101q0 -73 -112 -112zM1492 436q-248 0 -248 -55q0 -24 71 -38q71 -15 177 -15t178 15q71 14 71 38q0 55 -249 55zM1492 84q120 0 205 20q83 20 83 52
q0 36 -84 57q-86 20 -204 20q-119 0 -205 -20q-84 -21 -84 -57q0 -32 84 -52q85 -20 205 -20z" />
    <glyph glyph-name="uni2170" unicode="&#x2170;" horiz-adv-x="789" 
d="M727 541h-280v-418h280v-123h-664v123h253v418h-253v123h664v-123z" />
    <glyph glyph-name="uni2171" unicode="&#x2171;" horiz-adv-x="1078" 
d="M1015 541h-280v-418h280v-123h-952v123h253v418h-253v123h952v-123zM604 541h-157v-418h157v418z" />
    <glyph glyph-name="uni2172" unicode="&#x2172;" horiz-adv-x="1366" 
d="M1303 541h-279v-418h279v-123h-1240v123h253v418h-253v123h1240v-123zM604 541h-157v-418h157v418zM893 541h-158v-418h158v418z" />
    <glyph glyph-name="uni2173" unicode="&#x2173;" horiz-adv-x="1774" 
d="M1720 541h-222l-296 -418h518v-123h-1666v123h253v418h-253v123h1666v-123zM879 123l-296 418h-145v-418h441zM1337 541h-593l297 -422z" />
    <glyph glyph-name="uni2174" unicode="&#x2174;" horiz-adv-x="1490" 
d="M1427 541h-233l-295 -418h528v-123h-1364v123h523l-296 418h-227v123h1364v-123zM1039 541h-593l296 -421z" />
    <glyph glyph-name="uni2175" unicode="&#x2175;" horiz-adv-x="1792" 
d="M1729 541h-253v-418h253v-123h-1666v123h523l-296 418h-227v123h1666v-123zM1039 541h-593l296 -421zM1345 541h-151l-295 -418h446v418z" />
    <glyph glyph-name="uni2176" unicode="&#x2176;" horiz-adv-x="2080" 
d="M2017 541h-253v-418h253v-123h-1954v123h523l-296 418h-227v123h1954v-123zM1039 541h-593l296 -421zM1345 541h-151l-295 -418h446v418zM1633 541h-157v-418h157v418z" />
    <glyph glyph-name="uni2177" unicode="&#x2177;" horiz-adv-x="2368" 
d="M2306 541h-253v-418h253v-123h-2243v123h523l-296 418h-227v123h2243v-123zM1039 541h-593l296 -421zM1345 541h-151l-295 -418h446v418zM1633 541h-157v-418h157v418zM1922 541h-158v-418h158v418z" />
    <glyph glyph-name="uni2178" unicode="&#x2178;" horiz-adv-x="1752" 
d="M1504 541l-305 -190l367 -228h123v-123h-1626v123h253v418h-253v123h1626v-123h-185zM933 351l-319 190h-167v-418h104zM1059 416l205 125h-411zM1059 286l-268 -163h536z" />
    <glyph glyph-name="uni2179" unicode="&#x2179;" horiz-adv-x="1386" 
d="M1138 541l-305 -190l367 -228h123v-123h-1260v123h122l382 228l-319 190h-185v123h1260v-123h-185zM693 416l205 125h-411zM693 287l-268 -164h536z" />
    <glyph glyph-name="uni217A" unicode="&#x217a;" horiz-adv-x="1752" 
d="M1689 541h-253v-418h253v-123h-1626v123h123l367 228l-305 190h-185v123h1626v-123zM694 416l205 125h-411zM1305 541h-167l-319 -190l382 -228h104v418zM693 286l-268 -163h536z" />
    <glyph glyph-name="uni217B" unicode="&#x217b;" horiz-adv-x="2040" 
d="M63 0v123h123l381 228l-317 190h-187v123h1914v-123h-253v-418h253v-123h-1914zM693 416l206 125h-412zM1202 123h103v418h-166l-307 -190zM1436 123h157v418h-157v-418zM424 123h538l-269 163z" />
    <glyph glyph-name="arrowleft" unicode="&#x2190;" horiz-adv-x="1074" 
d="M1003 393v-122h-644q67 -46 105 -113q37 -65 37 -144h-141q0 105 -79 181t-210 76v122q131 0 210 76t79 181h141q0 -78 -37 -143q-37 -67 -104 -114h643z" />
    <glyph glyph-name="arrowup" unicode="&#x2191;" horiz-adv-x="794" 
d="M462 664q0 -130 75 -209q73 -79 179 -79v-139q-154 0 -254 132v-369h-131v367q-100 -130 -253 -130v139q106 0 179 79q74 80 74 209h131z" />
    <glyph glyph-name="arrowright" unicode="&#x2192;" horiz-adv-x="1074" 
d="M714 650q0 -104 80 -181q79 -76 209 -76v-122q-130 0 -209 -76q-80 -77 -80 -181h-141q0 77 38 144q39 68 104 113h-644v122h643q-65 46 -103 114q-38 67 -38 143h141z" />
    <glyph glyph-name="arrowdown" unicode="&#x2193;" horiz-adv-x="794" 
d="M462 295q100 132 254 132v-139q-106 0 -179 -79q-75 -79 -75 -209h-131q0 129 -74 209q-73 79 -179 79v139q153 0 253 -130v367h131v-369z" />
    <glyph glyph-name="arrowboth" unicode="&#x2194;" horiz-adv-x="1437" 
d="M1077 650q0 -103 80 -180t209 -77v-122q-130 0 -209 -76q-80 -77 -80 -181h-141q0 167 154 257h-742q154 -91 154 -257h-141q0 105 -79 181t-211 76v122q131 0 211 77q79 76 79 180h141q0 -166 -154 -257h742q-154 90 -154 257h141z" />
    <glyph glyph-name="uni2196" unicode="&#x2196;" horiz-adv-x="844" 
d="M766 81l-89 -91l-394 394q13 -78 -8 -151t-76 -126l-96 98q50 48 66 112t-6 137q-22 70 -85 133l28 29l61 63q60 -60 135 -83q72 -23 137 -6q64 16 113 64l96 -98q-109 -109 -272 -85z" />
    <glyph glyph-name="uni2197" unicode="&#x2197;" horiz-adv-x="844" 
d="M766 587q-62 -62 -84 -133q-22 -73 -6 -137q17 -65 65 -112l-96 -98q-55 53 -76 126t-8 151l-394 -394l-89 91l390 390q-163 -24 -272 85l96 98q49 -47 114 -64q64 -16 137 6q74 23 134 83l61 -63z" />
    <glyph glyph-name="uni2198" unicode="&#x2198;" horiz-adv-x="844" 
d="M766 91l-28 -29l-61 -63q-60 60 -134 83q-73 22 -137 6q-65 -17 -114 -64l-96 98q109 109 272 85l-390 390l89 91l394 -394q-13 78 8 151t76 126l96 -98q-48 -47 -65 -112q-16 -64 6 -136t84 -134z" />
    <glyph glyph-name="uni2199" unicode="&#x2199;" horiz-adv-x="844" 
d="M376 207q163 24 272 -85l-96 -98q-49 48 -113 64q-65 17 -137 -6q-75 -23 -135 -83l-61 63l-28 29q63 63 85 134q22 72 6 136t-66 112l96 98q55 -53 76 -126t8 -151l394 394l89 -91z" />
    <glyph glyph-name="uni21B3" unicode="&#x21b3;" horiz-adv-x="1095" 
d="M735 650q0 -104 80 -181q79 -76 209 -76v-122q-130 0 -209 -76q-80 -77 -80 -181h-141q0 77 38 144q39 68 104 113h-644v379h131v-257h512q-65 46 -103 114q-38 67 -38 143h141z" />
    <glyph glyph-name="partialdiff" unicode="&#x2202;" horiz-adv-x="1102" 
d="M598 678q135 0 245 -42q109 -42 168 -123q59 -83 41 -186q-18 -101 -105 -181q-85 -78 -212 -119q-123 -40 -265 -40q-196 0 -318 72t-104 171q7 48 49 86q38 36 104 59q61 23 135 33q77 11 153 11q256 0 414 -128q8 20 11 36q18 103 -82 166q-101 62 -251 62
q-211 0 -348 -81l-61 102q171 102 426 102zM183 221q-4 -23 16.5 -42.5t65.5 -35.5q88 -33 223 -33q108 0 198 25q93 26 151 72q-125 96 -357 96q-118 0 -204 -21t-93 -61z" />
    <glyph glyph-name="emptyset" unicode="&#x2205;" horiz-adv-x="932" 
d="M822 465q61 -58 61 -135q0 -78 -64 -136q-66 -59 -157 -86q-93 -28 -196 -28q-143 0 -257 51l-118 -64l-45 80l73 40q-70 61 -70 143q0 78 63 136q62 57 157 86q91 28 197 28q153 0 270 -57l105 57l45 -80zM183 330q0 -45 55 -79l357 195q-67 14 -129 14q-110 0 -197 -35
q-88 -36 -86 -95zM749 330q0 41 -43 72l-352 -192q50 -10 112 -10q70 0 133 15q64 14 107 45q43 30 43 70z" />
    <glyph glyph-name="Delta" unicode="&#x2206;" horiz-adv-x="676" 
d="M6 0l332 664l332 -664h-664zM89 51h500l-251 498z" />
    <glyph glyph-name="product" unicode="&#x220f;" horiz-adv-x="932" 
d="M898 664v-118h-208v-688h-131v688h-185v-688h-131v688h-209v118h864z" />
    <glyph glyph-name="summation" unicode="&#x2211;" horiz-adv-x="709" 
d="M654 -22v-120l-621 4l319 400l-309 402h611v-120h-362l222 -283l-229 -281z" />
    <glyph glyph-name="minus" unicode="&#x2212;" horiz-adv-x="664" 
d="M71 199v124h522v-124h-522z" />
    <glyph glyph-name="uni2215" unicode="&#x2215;" horiz-adv-x="321" 
d="M123 -142h-132l209 913h132z" />
    <glyph glyph-name="uni2219" unicode="&#x2219;" horiz-adv-x="582" 
d="M289 -13q-102 0 -175 73t-73 175q0 106 73 179t175 73q106 0 179 -73t73 -179q0 -102 -73 -175t-179 -73z" />
    <glyph glyph-name="radical" unicode="&#x221a;" horiz-adv-x="781" 
d="M786 759v-123h-290l-88 -777h-175l-44 425h-118v122h216l33 -381l64 734h402z" />
    <glyph glyph-name="infinity" unicode="&#x221e;" horiz-adv-x="1056" 
d="M774 424q88 0 149 -46q62 -47 62 -117q0 -69 -63 -115q-64 -48 -148 -48q-119 0 -246 88q-63 -43 -119 -65q-58 -23 -128 -23q-84 0 -147 48q-63 46 -63 115q0 70 62 117q61 46 148 46q120 0 247 -88q127 88 246 88zM288 221q62 0 129 40q-67 40 -129 40q-37 0 -58 -12
q-22 -13 -22 -28t22 -27q20 -13 58 -13zM768 221q37 0 59 13q21 12 21 27t-21 28q-23 12 -59 12q-62 0 -129 -40q67 -40 129 -40z" />
    <glyph glyph-name="integral" unicode="&#x222b;" horiz-adv-x="664" 
d="M267 393q0 85 59 152q59 66 148 99q90 33 193 33v-126q-115 0 -192 -42t-77 -122v-256q0 -85 -59 -152q-58 -66 -149 -99q-90 -33 -192 -33v126q117 0 193 42t76 122v256z" />
    <glyph glyph-name="approxequal" unicode="&#x2248;" horiz-adv-x="806" 
d="M563 218q-46 0 -94 23q-45 22 -75 50q-31 28 -68 50q-38 23 -73 23q-30 0 -55 -17q-24 -17 -24 -42h-103q0 79 49 134q49 54 124 54q49 0 94 -22t75 -50q26 -25 68 -49q38 -23 73 -23q33 0 56 16q23 17 23 43h102q0 -81 -48 -135q-48 -55 -124 -55zM563 29q-40 0 -76 15
q-35 14 -65 36q-38 28 -55 43q-24 20 -55 36q-30 15 -59 15q-32 0 -55 -16q-24 -16 -24 -42h-103q0 79 49 134q50 54 124 54q40 0 77 -15q35 -15 64 -36q19 -14 55 -42q24 -21 56 -37q28 -15 58 -15q31 0 56 17q23 17 23 43h102q0 -81 -48 -135q-48 -55 -124 -55z" />
    <glyph glyph-name="notequal" unicode="&#x2260;" horiz-adv-x="664" 
d="M593 297h-173l-34 -72h207v-124h-266l-72 -153l-117 52l48 101h-115v124h174l34 72h-208v124h266l73 153l116 -52l-48 -101h115v-124z" />
    <glyph glyph-name="lessequal" unicode="&#x2264;" horiz-adv-x="653" 
d="M599 156l-549 267l549 267v-139l-263 -128l263 -129v-138zM77 0v123h522v-123h-522z" />
    <glyph glyph-name="greaterequal" unicode="&#x2265;" horiz-adv-x="654" 
d="M54 156v138l263 129l-263 128v139l549 -267zM576 0h-522v123h522v-123z" />
    <glyph glyph-name="circleplus" unicode="&#x2295;" horiz-adv-x="784" 
d="M392 679q142 0 245 -101q101 -103 101 -245q0 -143 -101 -244q-102 -102 -245 -102q-144 0 -244 102q-102 101 -102 244t102 245q101 101 244 101zM392 38q123 0 210 87q86 86 86 208q0 121 -86 209q-88 86 -210 86t-208 -86q-87 -87 -87 -209q0 -123 87 -208
q85 -87 208 -87zM418 359h199v-52h-199v-197h-51v197h-199v52h199v197h51v-197z" />
    <glyph glyph-name="uni2296" unicode="&#x2296;" horiz-adv-x="784" 
d="M392 -13q-144 0 -244 102q-102 101 -102 244t102 245q101 101 244 101q142 0 245 -101q101 -103 101 -245q0 -143 -101 -244q-102 -102 -245 -102zM392 38q123 0 210 87q86 86 86 208q0 121 -86 209q-88 86 -210 86t-208 -86q-87 -87 -87 -209q0 -123 87 -208
q85 -87 208 -87zM168 307v52h449v-52h-449z" />
    <glyph glyph-name="circlemultiply" unicode="&#x2297;" horiz-adv-x="784" 
d="M392 679q142 0 245 -101q101 -103 101 -245q0 -143 -101 -244q-102 -102 -245 -102q-144 0 -244 102q-102 101 -102 244t102 245q101 101 244 101zM392 38q123 0 210 87q86 86 86 208q0 121 -86 209q-88 86 -210 86t-208 -86q-87 -87 -87 -209q0 -123 87 -208
q85 -87 208 -87zM534 509l35 -36l-141 -140l141 -140l-35 -36l-141 141l-142 -141l-35 36l141 140l-141 140l35 36l142 -141z" />
    <glyph glyph-name="uni24FF" unicode="&#x24ff;" 
d="M569 -13q-94 0 -185 24q-92 23 -168 66q-78 44 -123 110q-47 68 -47 146q0 103 79 183q78 81 197 122q120 41 247 41q128 0 248 -41q116 -40 197 -122q78 -81 78 -183q0 -78 -47 -146q-45 -66 -123 -110q-76 -43 -168 -66q-92 -24 -185 -24zM569 124q76 0 148 23t121 72
t49 114q0 63 -48 113q-47 48 -119 73q-74 23 -151 23q-78 0 -150 -23q-72 -25 -119 -73q-48 -50 -48 -113q0 -65 49 -114t120 -72q72 -23 148 -23zM569 199q-56 0 -109 14q-51 13 -89 45q-37 31 -37 75q0 64 71 100q72 35 164 35t164 -35q71 -36 71 -100q0 -43 -36 -75
q-38 -32 -89 -45q-54 -14 -110 -14z" />
    <glyph glyph-name="filledbox" unicode="&#x25a0;" horiz-adv-x="748" 
d="M92 50v564h564v-564h-564z" />
    <glyph glyph-name="uni25A1" unicode="&#x25a1;" horiz-adv-x="748" 
d="M92 50v564h564v-564h-564zM143 101h463v462h-463v-462z" />
    <glyph glyph-name="triagup" unicode="&#x25b2;" horiz-adv-x="676" 
d="M6 0l332 664l332 -664h-664z" />
    <glyph glyph-name="uni25B3" unicode="&#x25b3;" horiz-adv-x="676" 
d="M6 0l332 664l332 -664h-664zM89 51h500l-251 498z" />
    <glyph glyph-name="uni25B6" unicode="&#x25b6;" horiz-adv-x="788" 
d="M92 664l664 -332l-664 -332v664z" />
    <glyph glyph-name="uni25B7" unicode="&#x25b7;" horiz-adv-x="788" 
d="M92 0v664l664 -332zM143 84l500 248l-500 249v-497z" />
    <glyph glyph-name="triagdn" unicode="&#x25bc;" horiz-adv-x="676" 
d="M6 664h664l-332 -664z" />
    <glyph glyph-name="uni25BD" unicode="&#x25bd;" horiz-adv-x="676" 
d="M338 0l-332 664h664zM338 115l250 498h-500z" />
    <glyph glyph-name="uni25C0" unicode="&#x25c0;" horiz-adv-x="788" 
d="M696 664v-664l-664 332z" />
    <glyph glyph-name="uni25C1" unicode="&#x25c1;" horiz-adv-x="788" 
d="M696 0l-664 332l664 332v-664zM646 84v497l-501 -249z" />
    <glyph glyph-name="uni25C6" unicode="&#x25c6;" horiz-adv-x="779" 
d="M747 332l-359 -357l-356 357l357 358z" />
    <glyph glyph-name="uni25C7" unicode="&#x25c7;" horiz-adv-x="779" 
d="M388 -25l-356 357l357 358l358 -358zM388 48l287 284l-286 285l-286 -285z" />
    <glyph glyph-name="lozenge" unicode="&#x25ca;" horiz-adv-x="637" 
d="M293 -26l-261 359l261 357h51l261 -357l-261 -359h-51zM319 25l223 308l-223 306l-225 -306z" />
    <glyph glyph-name="circle" unicode="&#x25cb;" horiz-adv-x="782" 
d="M389 -13q-141 0 -242 101t-101 242q0 143 101 246q101 101 242 101q145 0 246 -101q101 -103 101 -246q0 -141 -101 -242q-103 -101 -246 -101zM389 38q125 0 211 85q86 86 86 207q0 122 -86 210q-88 86 -211 86q-121 0 -206 -87q-86 -88 -86 -209q0 -120 86 -206
t206 -86z" />
    <glyph glyph-name="uni25CF" unicode="&#x25cf;" horiz-adv-x="782" 
d="M389 -13q-141 0 -242 101t-101 242q0 143 101 246q101 101 242 101q145 0 246 -101q101 -103 101 -246q0 -141 -101 -242q-103 -101 -246 -101z" />
    <glyph glyph-name="uni2609" unicode="&#x2609;" horiz-adv-x="784" 
d="M738 359v-52h-252l218 -125l-25 -44l-218 125l126 -217l-43 -26l-126 218v-251h-51v251l-126 -218l-43 26l126 218l-219 -126l-25 44l218 125h-252v52h252l-218 125l25 44l219 -126l-126 218l43 26l126 -218v251h51v-251l126 218l43 -26l-126 -217l218 125l25 -44
l-218 -125h252z" />
    <glyph glyph-name="uni2610" unicode="&#x2610;" horiz-adv-x="967" 
d="M92 0v664h62v26h721v-638h-119v-52h-664zM147 52h559v560h-559v-560z" />
    <glyph glyph-name="uni2611" unicode="&#x2611;" horiz-adv-x="967" 
d="M92 0v664h71v26h712v-639h-119v-51h-664zM143 51h563v562h-563v-562zM347 95l-163 204l39 32l123 -152l283 370l40 -31z" />
    <glyph glyph-name="uni2612" unicode="&#x2612;" horiz-adv-x="967" 
d="M92 0v664h71v26h712v-639h-119v-51h-664zM424 368l247 245h-493zM143 87l246 245l-246 245v-490zM706 87v490l-246 -245zM178 51h493l-247 245z" />
    <glyph glyph-name="smileface" unicode="&#x263a;" horiz-adv-x="792" 
d="M394 677q145 0 249 -101q103 -102 103 -246q0 -142 -103 -242q-104 -101 -249 -101q-141 0 -245 101q-103 100 -103 242q0 143 103 245t245 102zM394 26q125 0 216 89q89 89 89 215q0 127 -89 218q-90 90 -216 90q-122 0 -211 -90q-89 -92 -89 -218q0 -125 89 -214
q89 -90 211 -90zM317 333q-20 0 -34 29q-14 30 -14 70q0 39 14 69q13 28 34 28q20 0 35 -28q14 -30 14 -69q0 -40 -14 -70q-15 -29 -35 -29zM470 333q-20 0 -34 29q-14 30 -14 70q0 39 14 69q13 28 34 28q20 0 35 -28q14 -30 14 -69q0 -40 -14 -70q-15 -29 -35 -29zM587 299
q12 -7 19 -16q6 -9 3 -14q-5 -9 -28 0q-25 -67 -75 -108t-112 -41t-112 41t-75 108q-23 -9 -28 0q-3 5 4 14q5 8 18 16q12 7 24 9t14 -4q6 -11 -16 -26q20 -53 68 -81q48 -30 103 -30q54 0 104 30q47 28 67 81q-22 15 -16 26q2 6 14 4t24 -9z" />
    <glyph glyph-name="invsmileface" unicode="&#x263b;" horiz-adv-x="792" 
d="M394 -13q-141 0 -245 101q-103 100 -103 242q0 143 103 245t245 102q145 0 249 -101q103 -102 103 -246q0 -142 -103 -242q-104 -101 -249 -101zM317 333q20 0 35 29q14 30 14 70q0 39 -14 69q-15 28 -35 28q-21 0 -34 -28q-14 -30 -14 -69q0 -40 14 -70q14 -29 34 -29z
M470 333q20 0 35 29q14 30 14 70q0 39 -14 69q-15 28 -35 28q-21 0 -34 -28q-14 -30 -14 -69q0 -40 14 -70q14 -29 34 -29zM394 120q62 0 112 41t75 108q8 -4 18 -4q11 0 11 7q0 9 -17 23q-17 13 -33 13q-12 0 -12 -8q0 -11 17 -22q-20 -53 -67 -81q-50 -30 -104 -30
q-55 0 -103 30q-48 28 -68 81q17 12 17 22q0 8 -12 8q-17 0 -33 -13q-17 -14 -17 -23q0 -7 11 -7q10 0 18 4q25 -67 75 -108t112 -41z" />
    <glyph glyph-name="sun" unicode="&#x263c;" horiz-adv-x="784" 
d="M738 306h-151q-6 -50 -39 -94l107 -107l-36 -35l-106 106q-42 -33 -95 -39v-152h-51v152q-51 6 -95 39l-106 -106l-36 35l106 106q-33 42 -39 95h-151v51h151q6 52 40 95l-107 107l36 35l106 -106q42 33 95 39v150h51v-150q50 -6 95 -39l106 106l36 -35l-107 -107
q33 -42 39 -95h151v-51zM539 331q0 61 -43 104t-104 43q-60 0 -103 -43t-43 -104q0 -60 43 -102q42 -43 103 -43t104 43q43 42 43 102z" />
    <glyph glyph-name="uni263D" unicode="&#x263d;" horiz-adv-x="563" 
d="M166 -13q-59 0 -112 18q102 34 165 125q62 91 62 203t-62 203q-64 90 -165 124q54 19 112 19q144 0 248 -101q103 -102 103 -245q0 -144 -103 -244q-104 -102 -248 -102zM200 38q114 18 191 102q75 82 75 193q0 110 -75 194q-78 84 -190 100q131 -120 131 -294
q0 -175 -132 -295z" />
    <glyph glyph-name="uni2709" unicode="&#x2709;" horiz-adv-x="1152" 
d="M92 0v664h968v-664h-968zM576 254l394 359h-787zM143 86l265 253l-265 241v-494zM1010 86v494l-265 -241zM180 51h793l-266 253l-131 -120l-131 120z" />
    <glyph glyph-name="uni270F" unicode="&#x270f;" horiz-adv-x="825" 
d="M54 -26l49 210l507 506l161 -161l-506 -506zM121 42l119 28l459 459l-89 88l-461 -458z" />
    <glyph glyph-name="uni2713" unicode="&#x2713;" horiz-adv-x="1114" 
d="M378 -14l-286 300l37 35l250 -261l608 619l35 -36z" />
    <glyph glyph-name="uni2715" unicode="&#x2715;" horiz-adv-x="882" 
d="M790 643l-313 -310l313 -310l-36 -36l-313 310l-313 -310l-36 36l313 310l-313 310l36 36l313 -310l313 310z" />
    <glyph glyph-name="uni2776" unicode="&#x2776;" 
d="M384 11q-92 23 -168 66q-78 44 -123 110q-47 68 -47 146q0 103 79 183q78 81 197 122q120 41 247 41q128 0 248 -41q116 -40 197 -122q78 -81 78 -183q0 -78 -47 -146q-45 -66 -123 -110q-76 -43 -168 -66q-92 -24 -185 -24q-94 0 -185 24zM360 134h506v74h-221v325h-79
q-14 -81 -92 -131q-80 -51 -202 -60l6 -74q191 13 288 113v-173h-221z" />
    <glyph glyph-name="uni2777" unicode="&#x2777;" 
d="M384 11q-92 23 -168 66q-78 44 -123 110q-47 68 -47 146q0 103 79 183q78 81 197 122q120 41 247 41q128 0 248 -41q116 -40 197 -122q78 -81 78 -183q0 -78 -47 -146q-45 -66 -123 -110q-76 -43 -168 -66q-92 -24 -185 -24q-94 0 -185 24zM855 398q0 63 -80 104
q-79 40 -192 40q-123 0 -211 -48q-89 -48 -89 -120q0 -62 72 -105l45 60q-34 22 -34 45q0 37 65 66q63 28 152 28q83 0 136 -19q54 -19 54 -51q0 -24 -42 -53q-43 -29 -152 -65q-109 -38 -279 -72l14 -74h529v74h-281q293 77 293 190z" />
    <glyph glyph-name="uni2778" unicode="&#x2778;" 
d="M384 11q-92 23 -168 66q-78 44 -123 110q-47 68 -47 146q0 103 79 183q78 81 197 122q120 41 247 41q128 0 248 -41q116 -40 197 -122q78 -81 78 -183q0 -78 -47 -146q-45 -66 -123 -110q-76 -43 -168 -66q-92 -24 -185 -24q-94 0 -185 24zM738 343q96 29 96 86
q0 41 -37 66q-40 27 -92 37q-53 10 -127 10q-102 0 -183 -23q-78 -22 -104 -72l74 -40q9 29 66 45q57 15 147 15q80 0 127 -12q46 -12 46 -30q0 -21 -69 -36t-168 -15h-57l22 -71h73q96 0 161 -16q68 -17 68 -38t-57 -36t-144 -15q-92 0 -154 17q-59 16 -70 48l-81 -22
q37 -117 305 -117q78 0 139 12q61 10 103 39q41 29 41 69q0 70 -125 99z" />
    <glyph glyph-name="uni2779" unicode="&#x2779;" 
d="M384 11q-92 23 -168 66q-78 44 -123 110q-47 68 -47 146q0 103 79 183q78 81 197 122q120 41 247 41q128 0 248 -41q116 -40 197 -122q78 -81 78 -183q0 -78 -47 -146q-45 -66 -123 -110q-76 -43 -168 -66q-92 -24 -185 -24q-94 0 -185 24zM880 271h-155v154h-79v-154
h-207q67 45 106 106q42 63 43 135l-74 38q1 -102 -76 -189q-78 -85 -179 -90v-74h387v-63h79v63h155v74z" />
    <glyph glyph-name="uni277A" unicode="&#x277a;" 
d="M384 11q-92 23 -168 66q-78 44 -123 110q-47 68 -47 146q0 103 79 183q78 81 197 122q120 41 247 41q128 0 248 -41q116 -40 197 -122q78 -81 78 -183q0 -78 -47 -146q-45 -66 -123 -110q-76 -43 -168 -66q-92 -24 -185 -24q-94 0 -185 24zM596 413q-123 0 -205 -46
l23 91h426v75h-490l-54 -227l74 -25q76 65 229 65q77 0 130 -21q52 -21 52 -50q0 -31 -59 -54q-61 -23 -153 -23q-72 0 -143 17q-67 16 -105 43l-46 -62q45 -32 127 -51q81 -21 167 -21q131 0 213 42t82 109q0 64 -73 101t-195 37z" />
    <glyph glyph-name="uni277B" unicode="&#x277b;" 
d="M384 11q-92 23 -168 66q-78 44 -123 110q-47 68 -47 146q0 103 79 183q78 81 197 122q120 41 247 41q128 0 248 -41q116 -40 197 -122q78 -81 78 -183q0 -78 -47 -146q-45 -66 -123 -110q-76 -43 -168 -66q-92 -24 -185 -24q-94 0 -185 24zM621 385q-154 0 -264 -77
q-3 10 -3 22q0 64 67 101t159 37q128 0 202 -49l48 61q-95 62 -247 62q-127 0 -219 -59q-93 -59 -93 -153q0 -93 92 -149q92 -57 224 -57q117 0 200 44q81 44 81 103q0 57 -72 85q-73 29 -175 29zM588 199q-138 0 -200 58q85 58 226 58q72 0 122 -12q49 -13 49 -38
q0 -27 -58 -46q-60 -20 -139 -20z" />
    <glyph glyph-name="uni277C" unicode="&#x277c;" 
d="M384 11q-92 23 -168 66q-78 44 -123 110q-47 68 -47 146q0 103 79 183q78 81 197 122q120 41 247 41q128 0 248 -41q116 -40 197 -122q78 -81 78 -183q0 -78 -47 -146q-45 -66 -123 -110q-76 -43 -168 -66q-92 -24 -185 -24q-94 0 -185 24zM274 533v-74h331
q-94 -50 -146 -132q-55 -83 -53 -193h84q-5 69 18 125q21 55 59 93q36 34 89 61q51 25 104 36q50 10 105 10v74h-591z" />
    <glyph glyph-name="uni277D" unicode="&#x277d;" 
d="M384 11q-92 23 -168 66q-78 44 -123 110q-47 68 -47 146q0 103 79 183q78 81 197 122q120 41 247 41q128 0 248 -41q116 -40 197 -122q78 -81 78 -183q0 -78 -47 -146q-45 -66 -123 -110q-76 -43 -168 -66q-92 -24 -185 -24q-94 0 -185 24zM756 350q86 32 86 85
q0 49 -78 77q-79 29 -195 29q-115 0 -194 -29q-78 -28 -78 -77q0 -53 86 -85q-117 -34 -117 -103q0 -54 88 -88q90 -35 215 -35q126 0 216 35q87 35 87 88q0 68 -116 103zM569 467q190 0 190 -42q0 -19 -54 -29q-57 -11 -136 -11q-78 0 -135 11q-54 10 -54 29q0 42 189 42z
M569 198q-93 0 -156 15q-64 15 -64 40q0 27 64 43q63 16 156 16q94 0 157 -16q64 -16 64 -43q0 -25 -63 -40q-65 -15 -158 -15z" />
    <glyph glyph-name="uni277E" unicode="&#x277e;" 
d="M384 11q-92 23 -168 66q-78 44 -123 110q-47 68 -47 146q0 103 79 183q78 81 197 122q120 41 247 41q128 0 248 -41q116 -40 197 -122q78 -81 78 -183q0 -78 -47 -146q-45 -66 -123 -110q-76 -43 -168 -66q-92 -24 -185 -24q-94 0 -185 24zM552 542q-119 0 -199 -43
q-81 -43 -81 -104q0 -56 71 -85q72 -29 171 -29q160 0 267 77q3 -11 3 -22q0 -65 -62 -101q-63 -36 -163 -36q-118 0 -186 40l-64 -53q95 -62 247 -62q135 0 223 58q88 57 88 154q0 93 -92 150q-92 56 -223 56zM354 400q0 27 58 48q60 20 138 20q136 0 201 -59
q-85 -58 -226 -58q-73 0 -121 13q-50 12 -50 36z" />
    <glyph glyph-name="uniE132" unicode="&#xe132;" horiz-adv-x="583" 
d="M76 520l113 144h180l-162 -144h-131zM375 520l113 144h180l-162 -144h-131zM78 0v474h128v-474h-128zM283 -200q-23 0 -56 5l56 115q44 0 69 19t25 51v484h128v-505q0 -75 -62 -122q-64 -47 -160 -47z" />
    <glyph glyph-name="uniE133" unicode="&#xe133;" horiz-adv-x="1322" 
d="M93 711l113 144h180l-162 -144h-131zM1115 711l113 144h180l-162 -144h-131zM92 0v664h131v-664h-131zM756 -13q-128 0 -242 36q-113 34 -182 100l74 110q44 -59 140 -91t210 -32q152 0 255 67q103 66 103 183v304h131v-331q0 -109 -69 -189q-72 -81 -179 -118
q-109 -39 -241 -39z" />
    <glyph glyph-name="u1F50D" unicode="&#x1f50d;" horiz-adv-x="751" 
d="M751 10l-35 -36l-138 138q-92 -77 -210 -77q-133 0 -228 95q-94 94 -94 227q0 134 94 228t228 94t228 -94t94 -228q0 -118 -77 -209zM368 86q114 0 193 79t79 192t-79 192t-193 79q-112 0 -191 -79q-80 -80 -80 -192t80 -192q79 -79 191 -79z" />
    <glyph glyph-name="u1F5B9" unicode="&#x1f5b9;" horiz-adv-x="676" 
d="M410 664l174 -174v-490h-492v664h318zM143 51h391v393h-169v169h-222v-562zM416 590v-94h95zM196 361v20h285v-20h-285zM196 279v20h285v-20h-285zM196 197v20h285v-20h-285zM196 114v20h285v-20h-285z" />
    <glyph glyph-name="u1F5CE" unicode="&#x1f5ce;" horiz-adv-x="676" 
d="M410 664l174 -174v-490h-492v664h318zM143 51h391v393h-169v169h-222v-562zM416 590v-94h95z" />
    <glyph glyph-name="CR" horiz-adv-x="380" 
 />
    <glyph glyph-name="A.ss10" horiz-adv-x="1084" 
d="M920 0l-89 113h-578l-89 -113h-162l540 690l540 -690h-162zM349 236h386l-193 246z" />
    <glyph glyph-name="Aacute.ss10" horiz-adv-x="1084" 
d="M770 855l-162 -144h-131l113 144h180zM920 0l-89 113h-578l-89 -113h-162l540 690l540 -690h-162zM349 236h386l-193 246z" />
    <glyph glyph-name="Abreve.ss10" horiz-adv-x="1084" 
d="M542 705q-91 0 -153 43q-64 43 -64 107h141q0 -33 23 -54t53 -21t54 21q23 21 23 54h140q0 -63 -63 -107q-64 -43 -154 -43zM920 0l-89 113h-578l-89 -113h-162l540 690l540 -690h-162zM349 236h386l-193 246z" />
    <glyph glyph-name="uni01CD.ss10" horiz-adv-x="1084" 
d="M612 702h-141l-162 144h169l64 -81l63 81h169zM920 0l-89 113h-578l-89 -113h-162l540 690l540 -690h-162zM349 236h386l-193 246z" />
    <glyph glyph-name="Acircumflex.ss10" horiz-adv-x="1084" 
d="M543 792l-64 -81h-169l162 144h141l162 -144h-169zM920 0l-89 113h-578l-89 -113h-162l540 690l540 -690h-162zM349 236h386l-193 246z" />
    <glyph glyph-name="Adieresis.ss10" horiz-adv-x="1084" 
d="M405 698q-43 0 -74 20q-30 20 -30 50q0 32 30 53t74 21q41 0 73 -21q30 -21 30 -53q0 -30 -30 -50q-32 -20 -73 -20zM660 698q-43 0 -74 20q-30 20 -30 50q0 32 30 53t74 21q42 0 73 -21q30 -21 30 -53q0 -30 -30 -50q-32 -20 -73 -20zM920 0l-89 113h-578l-89 -113h-162
l540 690l540 -690h-162zM349 236h386l-193 246z" />
    <glyph glyph-name="Adieresis.ss10.ss20" horiz-adv-x="1084" 
d="M507 841v-130h-184v130h184zM762 841v-130h-184v130h184zM920 0l-89 113h-578l-89 -113h-162l540 690l540 -690h-162zM349 236h386l-193 246z" />
    <glyph glyph-name="Adieresis.ss20" horiz-adv-x="1093" 
d="M510 841v-130h-184v130h184zM765 841v-130h-184v130h184zM932 0l-88 127h-594l-88 -127h-156l459 664h163l459 -664h-155zM335 250h424l-212 307z" />
    <glyph glyph-name="uni1EA0.ss10" horiz-adv-x="1084" 
d="M1082 0h-162l-89 113h-578l-89 -113h-162l540 690zM349 236h386l-193 246zM543 -38q41 0 73 -21q30 -21 30 -53q0 -30 -30 -50q-32 -20 -73 -20q-43 0 -74 20q-30 20 -30 50q0 32 30 53t74 21z" />
    <glyph glyph-name="uni1EA0.ss10.ss20" horiz-adv-x="1084" 
d="M1082 0h-162l-89 113h-578l-89 -113h-162l540 690zM349 236h386l-193 246zM451 -171v130h184v-130h-184z" />
    <glyph glyph-name="uni1EA0.ss20" horiz-adv-x="1093" 
d="M1087 0h-155l-88 127h-594l-88 -127h-156l459 664h163zM335 250h424l-212 307zM454 -171v130h184v-130h-184z" />
    <glyph glyph-name="Agrave.ss10" horiz-adv-x="1084" 
d="M607 711h-131l-162 144h180zM920 0l-89 113h-578l-89 -113h-162l540 690l540 -690h-162zM349 236h386l-193 246z" />
    <glyph glyph-name="Amacron.ss10" horiz-adv-x="1084" 
d="M738 822v-111h-392v111h392zM920 0l-89 113h-578l-89 -113h-162l540 690l540 -690h-162zM349 236h386l-193 246z" />
    <glyph glyph-name="Aogonek.ss10" horiz-adv-x="1084" 
d="M933 -90q0 -22 27 -30q29 -8 101 -8l-18 -54q-141 0 -211 17q-69 17 -69 56q0 70 154 113l-86 109h-578l-89 -113h-162l540 690l540 -690q-62 -10 -105 -36q-44 -26 -44 -54zM349 236h386l-193 246z" />
    <glyph glyph-name="Aring.ss10" horiz-adv-x="1084" 
d="M542 707q-85 0 -148 22q-64 22 -64 54q0 31 64 53q63 22 148 22q87 0 150 -22t63 -53t-63 -54q-62 -22 -150 -22zM542 821q-27 0 -47 -11q-20 -12 -20 -27q0 -16 20 -28t47 -12q30 0 50 12q18 12 18 28q0 15 -18 27q-20 11 -50 11zM920 0l-89 113h-578l-89 -113h-162
l540 690l540 -690h-162zM349 236h386l-193 246z" />
    <glyph glyph-name="Aringacute.ss10" horiz-adv-x="1084" 
d="M542 707q-85 0 -148 22q-64 22 -64 54q0 31 64 53q63 22 148 22h23l44 55h179l-89 -80q56 -21 56 -50q0 -31 -63 -54q-62 -22 -150 -22zM542 821q-27 0 -47 -11q-20 -12 -20 -27q0 -16 20 -28t47 -12q30 0 50 12q18 12 18 28q0 15 -18 27q-20 11 -50 11zM920 0l-89 113
h-578l-89 -113h-162l540 690l540 -690h-162zM349 236h386l-193 246z" />
    <glyph glyph-name="Atilde.ss10" horiz-adv-x="1084" 
d="M464 771q-16 10 -19 -15l-2 -45h-131q0 66 41 110q41 42 106 42q11 0 29 -2q5 -1 13.5 -2.5t10.5 -1.5q5 -1 22 -7q5 -2 11 -4.5t8 -3.5t18 -11q4 -2 7 -4.5t5.5 -4t3.5 -2.5q1 0 6.5 -4t10.5 -8q11 -10 16 -13q16 -10 19 15q2 18 2 45h132q0 -66 -41 -109
q-42 -42 -107 -42q-13 0 -31 2q-16 2 -29 6q-12 4 -22 8q-7 1 -22 11l-18 12q-4 1 -20 14q-4 3 -9 6.5t-7 5.5t-3 2zM920 0l-89 113h-578l-89 -113h-162l540 690l540 -690h-162zM349 236h386l-193 246z" />
    <glyph glyph-name="Cdotaccent.ss20" horiz-adv-x="1053" 
d="M666 841v-130h-184v130h184zM576 -13q-92 0 -186 23q-96 23 -170 64q-77 40 -126 109q-48 67 -48 150q0 80 47 148q46 67 122 110q79 43 169 65q95 23 190 23q128 0 243 -36q112 -36 181 -101l-73 -110q-54 61 -146 93q-92 31 -205 31q-167 0 -279 -64t-112 -159
q0 -94 112 -158q113 -65 281 -65q103 0 201 29q95 29 150 75l91 -92q-75 -64 -198 -99q-123 -36 -244 -36z" />
    <glyph glyph-name="Edieresis.ss20" horiz-adv-x="981" 
d="M474 841v-130h-184v130h184zM729 841v-130h-184v130h184zM925 541h-702v-134h612v-123h-612v-161h702v-123h-833v664h833v-123z" />
    <glyph glyph-name="Edotaccent.ss20" horiz-adv-x="981" 
d="M601 841v-130h-184v130h184zM925 541h-702v-134h612v-123h-612v-161h702v-123h-833v664h833v-123z" />
    <glyph glyph-name="uni1EB8.ss20" horiz-adv-x="981" 
d="M925 541h-702v-134h612v-123h-612v-161h702v-123h-833v664h833v-123zM418 -171v130h184v-130h-184z" />
    <glyph glyph-name="Gcommaaccent.ss20" horiz-adv-x="1150" 
d="M455 372h617v-372h-131v123q-139 -136 -385 -136q-89 0 -179 23q-92 23 -163 64q-74 41 -121 110q-47 68 -47 149q0 80 47 148q46 67 122 110q79 43 169 65q95 23 190 23q128 0 243 -36q112 -36 181 -101l-73 -110q-54 61 -146 93q-92 31 -205 31q-167 0 -279 -64
t-112 -159q0 -72 59 -125q58 -52 144 -75t180 -23q119 0 224 37q105 36 153 102h-488v123zM465 -273v232h192l-152 -232h-40z" />
    <glyph glyph-name="Gdotaccent.ss20" horiz-adv-x="1150" 
d="M666 841v-130h-184v130h184zM455 372h617v-372h-131v123q-139 -136 -385 -136q-89 0 -179 23q-92 23 -163 64q-74 41 -121 110q-47 68 -47 149q0 80 47 148q46 67 122 110q79 43 169 65q95 23 190 23q128 0 243 -36q112 -36 181 -101l-73 -110q-54 61 -146 93
q-92 31 -205 31q-167 0 -279 -64t-112 -159q0 -72 59 -125q58 -52 144 -75t180 -23q119 0 224 37q105 36 153 102h-488v123z" />
    <glyph glyph-name="I.ss04" horiz-adv-x="772" 
d="M718 541h-267v-418h267v-123h-664v123h266v418h-266v123h664v-123z" />
    <glyph glyph-name="IJ.ss01" horiz-adv-x="898" 
d="M92 0v664h131v-664h-131zM364 -13l-32 123q150 0 254 63t104 167v324h131v-351q0 -98 -68 -175q-66 -75 -171 -113t-218 -38z" />
    <glyph glyph-name="Iacute.ss04" horiz-adv-x="772" 
d="M321 711l113 144h180l-162 -144h-131zM718 541h-267v-418h267v-123h-664v123h266v418h-266v123h664v-123z" />
    <glyph glyph-name="Ibreve.ss04" horiz-adv-x="772" 
d="M386 705q-91 0 -153 43q-64 43 -64 107h141q0 -33 23 -54q22 -21 53 -21q30 0 54 21q23 21 23 54h140q0 -63 -63 -107q-64 -43 -154 -43zM718 541h-267v-418h267v-123h-664v123h266v418h-266v123h664v-123z" />
    <glyph glyph-name="uni01CF.ss04" horiz-adv-x="772" 
d="M456 702h-141l-162 144h169l64 -81l63 81h169zM718 541h-267v-418h267v-123h-664v123h266v418h-266v123h664v-123z" />
    <glyph glyph-name="Icircumflex.ss04" horiz-adv-x="772" 
d="M387 792l-64 -81h-169l162 144h141l162 -144h-169zM718 541h-267v-418h267v-123h-664v123h266v418h-266v123h664v-123z" />
    <glyph glyph-name="Idieresis.ss04" horiz-adv-x="772" 
d="M249 698q-43 0 -74 20q-30 20 -30 50q0 32 30 53t74 21q41 0 73 -21q30 -21 30 -53q0 -30 -30 -50q-32 -20 -73 -20zM504 698q-43 0 -74 20q-30 20 -30 50q0 32 30 53t74 21q42 0 73 -21q30 -21 30 -53q0 -30 -30 -50q-32 -20 -73 -20zM718 541h-267v-418h267v-123h-664
v123h266v418h-266v123h664v-123z" />
    <glyph glyph-name="Idieresis.ss04.ss20" horiz-adv-x="772" 
d="M167 711v130h184v-130h-184zM422 711v130h184v-130h-184zM718 541h-267v-418h267v-123h-664v123h266v418h-266v123h664v-123z" />
    <glyph glyph-name="Idieresis.ss20" horiz-adv-x="315" 
d="M-61 711v130h184v-130h-184zM194 711v130h184v-130h-184zM92 0v664h131v-664h-131z" />
    <glyph glyph-name="Idotaccent.ss04" horiz-adv-x="772" 
d="M387 695q-43 0 -74 20q-30 19 -30 50q0 32 30 53t74 21q41 0 73 -21q30 -21 30 -53q0 -31 -30 -50q-32 -20 -73 -20zM718 541h-267v-418h267v-123h-664v123h266v418h-266v123h664v-123z" />
    <glyph glyph-name="Idotaccent.ss04.ss20" horiz-adv-x="772" 
d="M478 841v-130h-184v130h184zM718 541h-267v-418h267v-123h-664v123h266v418h-266v123h664v-123z" />
    <glyph glyph-name="Idotaccent.ss20" horiz-adv-x="315" 
d="M250 841v-130h-184v130h184zM92 0v664h131v-664h-131z" />
    <glyph glyph-name="uni1ECA.ss04" horiz-adv-x="772" 
d="M718 541h-267v-418h267v-123h-664v123h266v418h-266v123h664v-123zM387 -182q-43 0 -74 20q-30 20 -30 50q0 32 30 53t74 21q41 0 73 -21q30 -21 30 -53q0 -30 -30 -50q-32 -20 -73 -20z" />
    <glyph glyph-name="uni1ECA.ss04.ss20" horiz-adv-x="772" 
d="M718 541h-267v-418h267v-123h-664v123h266v418h-266v123h664v-123zM295 -171v130h184v-130h-184z" />
    <glyph glyph-name="uni1ECA.ss20" horiz-adv-x="315" 
d="M92 0v664h131v-664h-131zM67 -171v130h184v-130h-184z" />
    <glyph glyph-name="Igrave.ss04" horiz-adv-x="772" 
d="M451 711h-131l-162 144h180zM718 541h-267v-418h267v-123h-664v123h266v418h-266v123h664v-123z" />
    <glyph glyph-name="Imacron.ss04" horiz-adv-x="772" 
d="M190 711v111h392v-111h-392zM718 541h-267v-418h267v-123h-664v123h266v418h-266v123h664v-123z" />
    <glyph glyph-name="Iogonek.ss04" horiz-adv-x="771" 
d="M718 541h-267v-418h267v-123q-50 -10 -90 -36q-41 -27 -41 -54q0 -22 27 -30q29 -8 101 -8l-18 -54q-141 0 -211 17q-69 17 -69 56q0 66 139 109h-502v123h266v418h-266v123h664v-123z" />
    <glyph glyph-name="Itilde.ss04" horiz-adv-x="772" 
d="M469 704q-13 0 -31 2q-16 2 -29 6q-12 4 -22 8q-7 1 -22 11l-18 12q-4 1 -20 14q-4 3 -9 6.5t-7 5.5t-3 2q-16 10 -19 -15l-2 -45h-131q0 66 41 110q41 42 106 42q11 0 29 -2q5 -1 13.5 -2.5t10.5 -1.5q5 -1 22 -7q5 -2 11.5 -4.5t7.5 -3.5q2 -1 18 -11q4 -2 7 -4.5
t5.5 -4t3.5 -2.5q1 0 6.5 -4t10.5 -8q11 -10 16 -13q16 -10 19 15l2 45h132q0 -66 -41 -109q-42 -42 -107 -42zM718 541h-267v-418h267v-123h-664v123h266v418h-266v123h664v-123z" />
    <glyph glyph-name="J.ss01" horiz-adv-x="583" 
d="M49 -13l-32 123q151 0 254 63q104 63 104 167v324h131v-351q0 -98 -68 -175q-66 -75 -171 -113t-218 -38z" />
    <glyph glyph-name="uni00A40301" horiz-adv-x="1007" 
d="M800 711l113 144h180l-162 -144h-131zM441 -13q-128 0 -242 36q-113 34 -182 100l74 110q44 -59 140 -91t210 -32q152 0 255 67q103 66 103 183v304h131v-331q0 -109 -69 -189q-72 -81 -179 -118q-110 -39 -241 -39z" />
    <glyph glyph-name="uni00A40301.ss01" horiz-adv-x="583" 
d="M376 711l113 144h180l-162 -144h-131zM49 -13l-32 123q151 0 254 63q104 63 104 167v324h131v-351q0 -98 -68 -175q-66 -75 -171 -113t-218 -38z" />
    <glyph glyph-name="Jcircumflex.ss01" horiz-adv-x="583" 
d="M442 792l-64 -81h-169l162 144h141l162 -144h-169zM375 340v324h131v-351q0 -98 -68 -175q-66 -75 -171 -113t-218 -38l-32 123q151 0 254 63q104 63 104 167z" />
    <glyph glyph-name="Kcommaaccent.ss20" horiz-adv-x="1007" 
d="M581 376l429 -376h-190l-344 303l-253 -177v-126h-131v664h131v-385l554 385h219zM432 -273v232h192l-152 -232h-40z" />
    <glyph glyph-name="Lcommaaccent.ss20" horiz-adv-x="935" 
d="M223 123h689v-123h-820v664h131v-541zM412 -273v232h192l-152 -232h-40z" />
    <glyph glyph-name="Ldot.ss20" horiz-adv-x="952" 
d="M223 123h689v-123h-820v664h131v-541zM739 348v-130h-184v130h184z" />
    <glyph glyph-name="M.ss10" horiz-adv-x="1344" 
d="M672 146l580 544v-690h-131v394l-449 -420l-449 420v-394h-131v690z" />
    <glyph glyph-name="M.ss11" horiz-adv-x="1344" 
d="M672 300l580 390v-690h-131v451l-449 -301l-449 301v-451h-131v690z" />
    <glyph glyph-name="N.ss10" horiz-adv-x="1182" 
d="M1090 664v-690l-867 496v-470h-131v690l867 -497v471h131z" />
    <glyph glyph-name="Nacute.ss10" horiz-adv-x="1182" 
d="M819 855l-162 -144h-131l113 144h180zM1090 664v-690l-867 496v-470h-131v690l867 -497v471h131z" />
    <glyph glyph-name="Ncaron.ss10" horiz-adv-x="1182" 
d="M661 702h-141l-162 144h169l64 -81l63 81h169zM1090 664v-690l-867 496v-470h-131v690l867 -497v471h131z" />
    <glyph glyph-name="Ncommaaccent.ss10" horiz-adv-x="1182" 
d="M959 664h131v-690l-867 496v-470h-131v690l867 -497v471zM591 -34q42 0 73 -23q30 -24 30 -66q0 -67 -56 -106q-55 -40 -150 -40v51q93 0 134 44q-45 -10 -90 9t-45 57q0 32 30 53t74 21z" />
    <glyph glyph-name="Ncommaaccent.ss10.ss20" horiz-adv-x="1182" 
d="M959 664h131v-690l-867 496v-470h-131v690l867 -497v471zM501 -273v232h192l-152 -232h-40z" />
    <glyph glyph-name="Ncommaaccent.ss20" horiz-adv-x="1182" 
d="M959 664h131v-664h-163l-704 530v-530h-131v664h163l704 -530v530zM501 -273v232h192l-152 -232h-40z" />
    <glyph glyph-name="Eng.ss10" horiz-adv-x="1182" 
d="M959 664h131v-695q0 -75 -62 -122q-64 -47 -160 -47q-23 0 -56 5l56 115q44 0 69 19t25 51v57l-739 423v-470h-131v690l867 -497v471z" />
    <glyph glyph-name="uni019D.ss10" horiz-adv-x="1167" 
d="M1075 664v-690l-866 496v-501q0 -75 -63 -122q-65 -47 -162 -47q-23 0 -56 5l56 115q44 0 69 19t25 51v700l866 -496v470h131z" />
    <glyph glyph-name="Ntilde.ss10" horiz-adv-x="1182" 
d="M513 771q-16 10 -19 -15l-2 -45h-131q0 66 41 110q40 42 106 42q11 0 29 -2q5 -1 13.5 -2.5t10.5 -1.5q5 -1 22 -7q5 -2 11.5 -4.5t7.5 -3.5q2 -1 18 -11q5 -3 10 -7l6 -4q1 0 6.5 -4t10.5 -8q11 -10 16 -13q16 -10 19 15q2 18 2 45h132q0 -66 -41 -109q-42 -42 -107 -42
q-13 0 -31 2q-16 2 -29 6q-12 4 -22 8q-7 1 -22 11l-18 12q-4 1 -20 14q-4 3 -9 6.5t-7 5.5t-3 2zM1090 664v-690l-867 496v-470h-131v690l867 -497v471h131z" />
    <glyph glyph-name="Odieresis.ss20" horiz-adv-x="1144" 
d="M353 711v130h184v-130h-184zM608 711v130h184v-130h-184zM572 -13q-92 0 -186 23q-93 23 -168 64q-78 43 -124 110q-48 68 -48 149q0 105 80 187q80 81 198 120q117 39 248 39q130 0 249 -39q118 -39 197 -120q80 -82 80 -187q0 -81 -47 -149q-49 -69 -124 -110
q-74 -41 -169 -64q-94 -23 -186 -23zM572 110q95 0 182 23q84 22 147 76q60 53 60 124q0 70 -59 123q-59 52 -146 76t-184 24q-98 0 -183 -24q-89 -24 -146 -76q-60 -52 -60 -123q0 -72 61 -124q63 -54 147 -76q87 -23 181 -23z" />
    <glyph glyph-name="uni1ECC.ss20" horiz-adv-x="1144" 
d="M572 -13q-92 0 -186 23q-93 23 -168 64q-78 43 -124 110q-48 68 -48 149q0 105 80 187q80 81 198 120q117 39 248 39q130 0 249 -39q118 -39 197 -120q80 -82 80 -187q0 -81 -47 -149q-49 -69 -124 -110q-74 -41 -169 -64q-94 -23 -186 -23zM572 110q95 0 182 23
q84 22 147 76q60 53 60 124q0 70 -59 123q-59 52 -146 76t-184 24q-98 0 -183 -24q-89 -24 -146 -76q-60 -52 -60 -123q0 -72 61 -124q63 -54 147 -76q87 -23 181 -23zM481 -171v130h184v-130h-184z" />
    <glyph glyph-name="Q.ss07" horiz-adv-x="1145" 
d="M1145 0l-48 -81l-221 130q-141 -62 -304 -62q-92 0 -186 23q-93 23 -168 64q-78 43 -124 110q-48 68 -48 149q0 105 80 187q80 81 198 120q117 39 248 39q130 0 249 -39q118 -39 197 -120q80 -82 80 -187q0 -137 -128 -230zM572 110q81 0 166 20l-207 122l48 81l272 -160
q110 62 110 160q0 70 -59 123q-59 52 -146 76t-184 24q-98 0 -183 -24q-89 -24 -146 -76q-60 -52 -60 -123q0 -72 61 -124q63 -54 147 -76q87 -23 181 -23z" />
    <glyph glyph-name="Q.ss13" horiz-adv-x="1144" 
d="M1098 333q0 -93 -59 -166q-60 -72 -160 -117q84 -65 135 -146l-114 -62q-72 102 -177 160q-75 -15 -151 -15q-78 0 -144 13q-106 20 -188 61q-83 41 -139 113q-55 70 -55 159q0 105 80 187q80 81 198 120q117 39 248 39q130 0 249 -39q118 -39 197 -120q80 -82 80 -187z
M743 131q98 26 158 77t60 125q0 70 -59 123q-59 52 -146 76t-184 24q-98 0 -183 -24q-89 -24 -146 -76q-60 -52 -60 -123q0 -73 59 -123q60 -52 152 -77q74 42 164 41q88 -1 185 -43z" />
    <glyph glyph-name="Q.ss15" horiz-adv-x="1144" 
d="M1098 333q0 -120 -95 -203q-94 -82 -241 -120l148 -11l-10 -123l-565 42l8 103q-131 40 -214 120t-83 192q0 105 80 187q80 81 198 120q117 39 248 39q130 0 249 -39q118 -39 197 -120q80 -82 80 -187zM572 110q95 0 182 23q84 22 147 76q60 53 60 124q0 70 -59 123
q-59 52 -146 76t-184 24q-98 0 -183 -24q-89 -24 -146 -76q-60 -52 -60 -123q0 -72 61 -124q63 -54 147 -76q87 -23 181 -23z" />
    <glyph glyph-name="R.ss03" horiz-adv-x="1073" 
d="M765 245q36 -56 105 -89t157 -33v-123q-129 0 -245 63q-114 61 -158 172h-17h-150q-57 -1 -141 -1q-37 -1 -93 -1v-233h-131v664q169 6 515 6q211 0 309 -50q97 -51 97 -169q0 -89 -60 -138q-62 -52 -188 -68zM223 543v-186q77 0 168 1h241q134 2 189 24q56 23 56 69
q0 49 -55 73q-57 23 -190 23q-201 -1 -409 -4z" />
    <glyph glyph-name="R.ss05" horiz-adv-x="1069" 
d="M1013 451q0 -100 -78 -151q-80 -52 -245 -62l317 -128v-136l-605 260h-99q-40 -1 -80 -1v-233h-131v664q169 6 515 6q211 0 309 -50q97 -51 97 -169zM223 543v-186q77 0 168 1h241q134 2 189 24q56 23 56 69q0 49 -55 73q-57 23 -190 23q-201 -1 -409 -4z" />
    <glyph glyph-name="R.ss08" horiz-adv-x="1065" 
d="M807 252q163 -89 215 -252h-149q-41 107 -130 168q-91 62 -228 66h-167q-65 -1 -125 -1v-233h-131v664q169 6 515 6q211 0 309 -50q97 -51 97 -169q0 -81 -50 -129q-50 -49 -156 -70zM223 543v-186q77 0 168 1h241q134 2 189 24q56 23 56 69q0 49 -55 73q-57 23 -190 23
q-201 -1 -409 -4z" />
    <glyph glyph-name="Racute.ss03" horiz-adv-x="1073" 
d="M756 855l-162 -144h-131l113 144h180zM765 245q36 -56 105 -89t157 -33v-123q-129 0 -245 63q-114 61 -158 172h-17h-150q-57 -1 -141 -1q-37 -1 -93 -1v-233h-131v664q169 6 515 6q211 0 309 -50q97 -51 97 -169q0 -89 -60 -138q-62 -52 -188 -68zM223 543v-186
q77 0 168 1h241q134 2 189 24q56 23 56 69q0 49 -55 73q-57 23 -190 23q-201 -1 -409 -4z" />
    <glyph glyph-name="Racute.ss05" horiz-adv-x="1069" 
d="M756 855l-162 -144h-131l113 144h180zM1013 451q0 -100 -78 -151q-80 -52 -245 -62l317 -128v-136l-605 260h-99q-40 -1 -80 -1v-233h-131v664q169 6 515 6q211 0 309 -50q97 -51 97 -169zM223 543v-186q77 0 168 1h241q134 2 189 24q56 23 56 69q0 49 -55 73
q-57 23 -190 23q-201 -1 -409 -4z" />
    <glyph glyph-name="Racute.ss08" horiz-adv-x="1065" 
d="M756 855l-162 -144h-131l113 144h180zM807 252q163 -89 215 -252h-149q-41 107 -130 168q-91 62 -228 66h-167q-65 -1 -125 -1v-233h-131v664q169 6 515 6q211 0 309 -50q97 -51 97 -169q0 -81 -50 -129q-50 -49 -156 -70zM223 543v-186q77 0 168 1h241q134 2 189 24
q56 23 56 69q0 49 -55 73q-57 23 -190 23q-201 -1 -409 -4z" />
    <glyph glyph-name="Rcaron.ss03" horiz-adv-x="1073" 
d="M598 702h-141l-162 144h169l64 -81l63 81h169zM765 245q36 -56 105 -89t157 -33v-123q-129 0 -245 63q-114 61 -158 172h-17h-150q-57 -1 -141 -1q-37 -1 -93 -1v-233h-131v664q169 6 515 6q211 0 309 -50q97 -51 97 -169q0 -89 -60 -138q-62 -52 -188 -68zM223 543v-186
q77 0 168 1h241q134 2 189 24q56 23 56 69q0 49 -55 73q-57 23 -190 23q-201 -1 -409 -4z" />
    <glyph glyph-name="Rcaron.ss05" horiz-adv-x="1069" 
d="M598 702h-141l-162 144h169l64 -81l63 81h169zM1013 451q0 -100 -78 -151q-80 -52 -245 -62l317 -128v-136l-605 260h-99q-40 -1 -80 -1v-233h-131v664q169 6 515 6q211 0 309 -50q97 -51 97 -169zM223 543v-186q77 0 168 1h241q134 2 189 24q56 23 56 69q0 49 -55 73
q-57 23 -190 23q-201 -1 -409 -4z" />
    <glyph glyph-name="Rcaron.ss08" horiz-adv-x="1065" 
d="M598 702h-141l-162 144h169l64 -81l63 81h169zM807 252q163 -89 215 -252h-149q-41 107 -130 168q-91 62 -228 66h-167q-65 -1 -125 -1v-233h-131v664q169 6 515 6q211 0 309 -50q97 -51 97 -169q0 -81 -50 -129q-50 -49 -156 -70zM223 543v-186q77 0 168 1h241
q134 2 189 24q56 23 56 69q0 49 -55 73q-57 23 -190 23q-201 -1 -409 -4z" />
    <glyph glyph-name="Rcommaaccent.ss03" horiz-adv-x="1073" 
d="M765 245q36 -56 105 -89t157 -33v-123q-129 0 -245 63q-114 61 -158 172h-17h-150q-57 -1 -141 -1q-37 -1 -93 -1v-233h-131v664q169 6 515 6q211 0 309 -50q97 -51 97 -169q0 -89 -60 -138q-62 -52 -188 -68zM223 543v-186q77 0 168 1h241q134 2 189 24q56 23 56 69
q0 49 -55 73q-57 23 -190 23q-201 -1 -409 -4zM528 -34q42 0 73 -23q30 -24 30 -66q0 -67 -56 -106q-55 -40 -150 -40v51q93 0 134 44q-45 -10 -90 9t-45 57q0 32 30 53t74 21z" />
    <glyph glyph-name="Rcommaaccent.ss03.ss20" horiz-adv-x="1073" 
d="M765 245q36 -56 105 -89t157 -33v-123q-129 0 -245 63q-114 61 -158 172h-17h-150q-57 -1 -141 -1q-37 -1 -93 -1v-233h-131v664q169 6 515 6q211 0 309 -50q97 -51 97 -169q0 -89 -60 -138q-62 -52 -188 -68zM223 543v-186q77 0 168 1h241q134 2 189 24q56 23 56 69
q0 49 -55 73q-57 23 -190 23q-201 -1 -409 -4zM438 -273v232h192l-152 -232h-40z" />
    <glyph glyph-name="Rcommaaccent.ss05" horiz-adv-x="1069" 
d="M1013 451q0 -100 -78 -151q-80 -52 -245 -62l317 -128v-136l-605 260h-99q-40 -1 -80 -1v-233h-131v664q169 6 515 6q211 0 309 -50q97 -51 97 -169zM223 543v-186q77 0 168 1h241q134 2 189 24q56 23 56 69q0 49 -55 73q-57 23 -190 23q-201 -1 -409 -4zM531 -34
q42 0 73 -23q30 -24 30 -66q0 -67 -56 -106q-55 -40 -150 -40v51q93 0 134 44q-45 -10 -90 9t-45 57q0 32 30 53t74 21z" />
    <glyph glyph-name="Rcommaaccent.ss05.ss20" horiz-adv-x="1069" 
d="M1013 451q0 -100 -78 -151q-80 -52 -245 -62l317 -128v-136l-605 260h-99q-40 -1 -80 -1v-233h-131v664q169 6 515 6q211 0 309 -50q97 -51 97 -169zM223 543v-186q77 0 168 1h241q134 2 189 24q56 23 56 69q0 49 -55 73q-57 23 -190 23q-201 -1 -409 -4zM441 -273v232
h192l-152 -232h-40z" />
    <glyph glyph-name="Rcommaaccent.ss08" horiz-adv-x="1065" 
d="M807 252q163 -89 215 -252h-149q-41 107 -130 168q-91 62 -228 66h-167q-65 -1 -125 -1v-233h-131v664q169 6 515 6q211 0 309 -50q97 -51 97 -169q0 -81 -50 -129q-50 -49 -156 -70zM223 543v-186q77 0 168 1h241q134 2 189 24q56 23 56 69q0 49 -55 73q-57 23 -190 23
q-201 -1 -409 -4zM531 -34q42 0 73 -23q30 -24 30 -66q0 -67 -56 -106q-55 -40 -150 -40v51q93 0 134 44q-45 -10 -90 9t-45 57q0 32 30 53t74 21z" />
    <glyph glyph-name="Rcommaaccent.ss08.ss20" horiz-adv-x="1065" 
d="M807 252q163 -89 215 -252h-149q-41 107 -130 168q-91 62 -228 66h-167q-65 -1 -125 -1v-233h-131v664q169 6 515 6q211 0 309 -50q97 -51 97 -169q0 -81 -50 -129q-50 -49 -156 -70zM223 543v-186q77 0 168 1h241q134 2 189 24q56 23 56 69q0 49 -55 73q-57 23 -190 23
q-201 -1 -409 -4zM441 -273v232h192l-152 -232h-40z" />
    <glyph glyph-name="Rcommaaccent.ss20" horiz-adv-x="1069" 
d="M751 243l275 -243h-189l-264 235q-87 0 -171 -0.5t-126 -1t-53 -0.5v-233h-131v664q169 6 515 6q211 0 309 -50q97 -51 97 -169q0 -91 -64 -140q-65 -52 -198 -68zM223 543v-186q77 0 168 1h241q134 2 189 24q56 23 56 69q0 49 -55 73q-57 23 -190 23q-201 -1 -409 -4z
M441 -273v232h192l-152 -232h-40z" />
    <glyph glyph-name="Scommaaccent.ss20" horiz-adv-x="1066" 
d="M550 -13q-186 0 -314 48q-127 46 -162 130l122 59q16 -54 111 -84t249 -30q311 0 311 80q0 36 -63 52t-252 36q-50 5 -140 17q-52 7 -112 20q-56 12 -90 27q-37 16 -61 36q-27 21 -39 48t-12 62q0 68 58 111q55 42 153 62q96 18 230 18q184 0 298 -46q115 -47 144 -132
l-123 -60q-12 115 -313 115q-310 0 -310 -70q0 -34 69 -49q69 -16 263 -36q51 -5 133 -16q50 -7 108 -20q52 -12 87 -27q33 -14 60 -35q27 -22 38 -49q12 -28 12 -63q0 -204 -455 -204zM459 -273v232h192l-152 -232h-40z" />
    <glyph glyph-name="uni021A.ss20" horiz-adv-x="978" 
d="M21 664h936v-123h-402v-541h-131v541h-403v123zM399 -273v232h192l-152 -232h-40z" />
    <glyph glyph-name="Udieresis.ss20" horiz-adv-x="1133" 
d="M348 711v130h184v-130h-184zM603 711v130h184v-130h-184zM567 -13q-131 0 -241 39q-109 37 -179 118q-70 79 -70 189v331h131v-304q0 -117 104 -183q103 -67 255 -67t255 67q103 66 103 183v304h131v-331q0 -109 -69 -189q-72 -81 -179 -118q-110 -39 -241 -39z" />
    <glyph glyph-name="uni1EE4.ss20" horiz-adv-x="1133" 
d="M567 -13q-131 0 -241 39q-109 37 -179 118q-70 79 -70 189v331h131v-304q0 -117 104 -183q103 -67 255 -67t255 67q103 66 103 183v304h131v-331q0 -109 -69 -189q-72 -81 -179 -118q-110 -39 -241 -39zM476 -171v130h184v-130h-184z" />
    <glyph glyph-name="V.ss10" horiz-adv-x="1084" 
d="M920 664h162l-540 -690l-540 690h162l378 -482z" />
    <glyph glyph-name="W.ss07" horiz-adv-x="1555" 
d="M1394 664h155l-458 -664h-163l-150 217l-150 -217h-163l-459 664h155l385 -557l154 223l-231 334h155l154 -222l153 222h155l-231 -335l154 -222z" />
    <glyph glyph-name="W.ss07.ss10" horiz-adv-x="1541" 
d="M1539 664l-540 -690l-228 292l-229 -292l-540 690h164l376 -484l147 190l-230 294h164l148 -190l147 190h164l-230 -294l147 -190l376 484h164z" />
    <glyph glyph-name="W.ss10" horiz-adv-x="1402" 
d="M1397 664l-421 -690l-275 465l-275 -465l-421 690h150l269 -440l277 466l277 -466l269 440h150z" />
    <glyph glyph-name="Wacute.ss07" horiz-adv-x="1555" 
d="M1006 854l-162 -144h-131l113 144h180zM1394 664h155l-458 -664h-163l-150 217l-150 -217h-163l-459 664h155l385 -557l154 223l-231 334h155l154 -222l153 222h155l-231 -335l154 -222z" />
    <glyph glyph-name="Wacute.ss07.ss10" horiz-adv-x="1541" 
d="M999 855l-162 -144h-131l113 144h180zM1539 664l-540 -690l-228 292l-229 -292l-540 690h164l376 -484l147 190l-230 294h164l148 -190l147 190h164l-230 -294l147 -190l376 484h164z" />
    <glyph glyph-name="Wacute.ss10" horiz-adv-x="1402" 
d="M929 855l-162 -144h-131l113 144h180zM1397 664l-421 -690l-275 465l-275 -465l-421 690h150l269 -440l277 466l277 -466l269 440h150z" />
    <glyph glyph-name="Wcircumflex.ss07" horiz-adv-x="1555" 
d="M779 791l-64 -81h-169l162 144h141l162 -144h-169zM1394 664h155l-458 -664h-163l-150 217l-150 -217h-163l-459 664h155l385 -557l154 223l-231 334h155l154 -222l153 222h155l-231 -335l154 -222z" />
    <glyph glyph-name="Wcircumflex.ss07.ss10" horiz-adv-x="1541" 
d="M772 792l-64 -81h-169l162 144h141l162 -144h-169zM1539 664l-540 -690l-228 292l-229 -292l-540 690h164l376 -484l147 190l-230 294h164l148 -190l147 190h164l-230 -294l147 -190l376 484h164z" />
    <glyph glyph-name="Wcircumflex.ss10" horiz-adv-x="1402" 
d="M702 792l-64 -81h-169l162 144h141l162 -144h-169zM1397 664l-421 -690l-275 465l-275 -465l-421 690h150l269 -440l277 466l277 -466l269 440h150z" />
    <glyph glyph-name="Wdieresis.ss07" horiz-adv-x="1555" 
d="M641 697q-43 0 -74 20q-30 19 -30 50q0 32 30 53t74 21q41 0 73 -21q30 -21 30 -53q0 -31 -30 -50q-32 -20 -73 -20zM896 697q-43 0 -74 20q-30 19 -30 50q0 32 30 53t74 21q42 0 73 -21q30 -21 30 -53q0 -31 -30 -50q-32 -20 -73 -20zM1394 664h155l-458 -664h-163
l-150 217l-150 -217h-163l-459 664h155l385 -557l154 223l-231 334h155l154 -222l153 222h155l-231 -335l154 -222z" />
    <glyph glyph-name="Wdieresis.ss07.ss10" horiz-adv-x="1541" 
d="M634 698q-43 0 -74 20q-30 20 -30 50q0 32 30 53t74 21q42 0 73 -21q30 -21 30 -53q0 -30 -30 -50q-32 -20 -73 -20zM889 698q-43 0 -74 20q-30 20 -30 50q0 32 30 53t74 21q41 0 73 -21q30 -21 30 -53q0 -30 -30 -50q-32 -20 -73 -20zM1539 664l-540 -690l-228 292
l-229 -292l-540 690h164l376 -484l147 190l-230 294h164l148 -190l147 190h164l-230 -294l147 -190l376 484h164z" />
    <glyph glyph-name="Wdieresis.ss07.ss10.ss20" horiz-adv-x="1541" 
d="M736 841v-130h-184v130h184zM991 841v-130h-184v130h184zM1539 664l-540 -690l-228 292l-229 -292l-540 690h164l376 -484l147 190l-230 294h164l148 -190l147 190h164l-230 -294l147 -190l376 484h164z" />
    <glyph glyph-name="Wdieresis.ss07.ss20" horiz-adv-x="1555" 
d="M743 840v-130h-184v130h184zM998 840v-130h-184v130h184zM1394 664h155l-458 -664h-163l-150 217l-150 -217h-163l-459 664h155l385 -557l154 223l-231 334h155l154 -222l153 222h155l-231 -335l154 -222z" />
    <glyph glyph-name="Wdieresis.ss10" horiz-adv-x="1402" 
d="M564 698q-43 0 -74 20q-30 20 -30 50q0 32 30 53t74 21q42 0 73 -21q30 -21 30 -53q0 -30 -30 -50q-32 -20 -73 -20zM819 698q-43 0 -74 20q-30 20 -30 50q0 32 30 53t74 21q41 0 73 -21q30 -21 30 -53q0 -30 -30 -50q-32 -20 -73 -20zM1397 664l-421 -690l-275 465
l-275 -465l-421 690h150l269 -440l277 466l277 -466l269 440h150z" />
    <glyph glyph-name="Wdieresis.ss10.ss20" horiz-adv-x="1402" 
d="M666 841v-130h-184v130h184zM921 841v-130h-184v130h184zM1397 664l-421 -690l-275 465l-275 -465l-421 690h150l269 -440l277 466l277 -466l269 440h150z" />
    <glyph glyph-name="Wdieresis.ss20" horiz-adv-x="1409" 
d="M670 841v-130h-184v130h184zM925 841v-130h-184v130h184zM1260 664h141l-279 -664h-191l-227 541l-227 -541h-190l-279 664h141l234 -557l237 557h169l238 -555z" />
    <glyph glyph-name="Wgrave.ss07" horiz-adv-x="1555" 
d="M843 710h-131l-162 144h180zM1394 664h155l-458 -664h-163l-150 217l-150 -217h-163l-459 664h155l385 -557l154 223l-231 334h155l154 -222l153 222h155l-231 -335l154 -222z" />
    <glyph glyph-name="Wgrave.ss07.ss10" horiz-adv-x="1541" 
d="M836 711h-131l-162 144h180zM1539 664l-540 -690l-228 292l-229 -292l-540 690h164l376 -484l147 190l-230 294h164l148 -190l147 190h164l-230 -294l147 -190l376 484h164z" />
    <glyph glyph-name="Wgrave.ss10" horiz-adv-x="1402" 
d="M766 711h-131l-162 144h180zM1397 664l-421 -690l-275 465l-275 -465l-421 690h150l269 -440l277 466l277 -466l269 440h150z" />
    <glyph glyph-name="uni1E8A.ss20" horiz-adv-x="1045" 
d="M614 841v-130h-184v130h184zM1060 0h-197l-341 279l-340 -279h-197l438 359l-373 305h197l275 -226l276 226h197l-373 -305z" />
    <glyph glyph-name="Y.ss03" horiz-adv-x="1142" 
d="M934 664h131v-331q0 -109 -69 -189q-72 -81 -179 -118q-109 -39 -241 -39q-128 0 -242 36q-113 34 -182 100l74 110q44 -59 140 -91t210 -32q152 0 255 67q103 66 103 183v22q-66 -69 -174 -105q-110 -36 -237 -36q-138 0 -243 37q-108 36 -172 109q-64 71 -64 171
q0 65 32 121l129 -39q-24 -42 -24 -90q0 -81 98 -134q97 -52 257 -52q108 0 195 25q87 24 146 78q57 53 57 126v71z" />
    <glyph glyph-name="Yacute.ss03" horiz-adv-x="1142" 
d="M801 855l-162 -144h-131l113 144h180zM934 664h131v-331q0 -109 -69 -189q-72 -81 -179 -118q-109 -39 -241 -39q-128 0 -242 36q-113 34 -182 100l74 110q44 -59 140 -91t210 -32q152 0 255 67q103 66 103 183v22q-66 -69 -174 -105q-110 -36 -237 -36q-138 0 -243 37
q-108 36 -172 109q-64 71 -64 171q0 65 32 121l129 -39q-24 -42 -24 -90q0 -81 98 -134q97 -52 257 -52q108 0 195 25q87 24 146 78q57 53 57 126v71z" />
    <glyph glyph-name="Ycircumflex.ss03" horiz-adv-x="1142" 
d="M574 792l-64 -81h-169l162 144h141l162 -144h-169zM934 664h131v-331q0 -109 -69 -189q-72 -81 -179 -118q-109 -39 -241 -39q-128 0 -242 36q-113 34 -182 100l74 110q44 -59 140 -91t210 -32q152 0 255 67q103 66 103 183v22q-66 -69 -174 -105q-110 -36 -237 -36
q-138 0 -243 37q-108 36 -172 109q-64 71 -64 171q0 65 32 121l129 -39q-24 -42 -24 -90q0 -81 98 -134q97 -52 257 -52q108 0 195 25q87 24 146 78q57 53 57 126v71z" />
    <glyph glyph-name="Ydieresis.ss03" horiz-adv-x="1142" 
d="M436 698q-43 0 -74 20q-30 20 -30 50q0 32 30 53t74 21q42 0 73 -21q30 -21 30 -53q0 -30 -30 -50q-32 -20 -73 -20zM691 698q-43 0 -74 20q-30 20 -30 50q0 32 30 53t74 21q41 0 73 -21q30 -21 30 -53q0 -30 -30 -50q-32 -20 -73 -20zM934 664h131v-331q0 -109 -69 -189
q-72 -81 -179 -118q-109 -39 -241 -39q-128 0 -242 36q-113 34 -182 100l74 110q44 -59 140 -91t210 -32q152 0 255 67q103 66 103 183v22q-66 -69 -174 -105q-110 -36 -237 -36q-138 0 -243 37q-108 36 -172 109q-64 71 -64 171q0 65 32 121l129 -39q-24 -42 -24 -90
q0 -81 98 -134q97 -52 257 -52q108 0 195 25q87 24 146 78q57 53 57 126v71z" />
    <glyph glyph-name="Ydieresis.ss03.ss20" horiz-adv-x="1142" 
d="M538 841v-130h-184v130h184zM793 841v-130h-184v130h184zM934 664h131v-331q0 -109 -69 -189q-72 -81 -179 -118q-109 -39 -241 -39q-128 0 -242 36q-113 34 -182 100l74 110q44 -59 140 -91t210 -32q152 0 255 67q103 66 103 183v22q-66 -69 -174 -105
q-110 -36 -237 -36q-138 0 -243 37q-108 36 -172 109q-64 71 -64 171q0 65 32 121l129 -39q-24 -42 -24 -90q0 -81 98 -134q97 -52 257 -52q108 0 195 25q87 24 146 78q57 53 57 126v71z" />
    <glyph glyph-name="Ydieresis.ss20" horiz-adv-x="1200" 
d="M565 841v-130h-184v130h184zM820 841v-130h-184v130h184zM1187 664l-521 -450v-214h-131v213l-522 451h192l395 -340l395 340h192z" />
    <glyph glyph-name="Ygrave.ss03" horiz-adv-x="1142" 
d="M638 711h-131l-162 144h180zM934 664h131v-331q0 -109 -69 -189q-72 -81 -179 -118q-109 -39 -241 -39q-128 0 -242 36q-113 34 -182 100l74 110q44 -59 140 -91t210 -32q152 0 255 67q103 66 103 183v22q-66 -69 -174 -105q-110 -36 -237 -36q-138 0 -243 37
q-108 36 -172 109q-64 71 -64 171q0 65 32 121l129 -39q-24 -42 -24 -90q0 -81 98 -134q97 -52 257 -52q108 0 195 25q87 24 146 78q57 53 57 126v71z" />
    <glyph glyph-name="uni0232.ss03" horiz-adv-x="1142" 
d="M769 822v-111h-392v111h392zM934 664h131v-331q0 -109 -69 -189q-72 -81 -179 -118q-109 -39 -241 -39q-128 0 -242 36q-113 34 -182 100l74 110q44 -59 140 -91t210 -32q152 0 255 67q103 66 103 183v22q-66 -69 -174 -105q-110 -36 -237 -36q-138 0 -243 37
q-108 36 -172 109q-64 71 -64 171q0 65 32 121l129 -39q-24 -42 -24 -90q0 -81 98 -134q97 -52 257 -52q108 0 195 25q87 24 146 78q57 53 57 126v71z" />
    <glyph glyph-name="uni1EF8.ss03" horiz-adv-x="1142" 
d="M495 771q-16 10 -19 -15l-2 -45h-131q0 66 41 110q40 42 106 42q11 0 29 -2q5 -1 13.5 -2.5t10.5 -1.5q5 -1 22 -7q5 -2 11.5 -4.5t7.5 -3.5q2 -1 18 -11q4 -2 7 -4.5t5.5 -4t3.5 -2.5q1 0 6.5 -4t10.5 -8q11 -10 16 -13q16 -10 19 15q2 18 2 45h132q0 -66 -41 -109
q-42 -42 -107 -42q-13 0 -31 2q-16 2 -29 6q-12 4 -22 8q-7 1 -22 11l-18 12q-4 1 -20 14q-4 3 -9 6.5t-7 5.5t-3 2zM934 664h131v-331q0 -109 -69 -189q-72 -81 -179 -118q-109 -39 -241 -39q-128 0 -242 36q-113 34 -182 100l74 110q44 -59 140 -91t210 -32q152 0 255 67
q103 66 103 183v22q-66 -69 -174 -105q-110 -36 -237 -36q-138 0 -243 37q-108 36 -172 109q-64 71 -64 171q0 65 32 121l129 -39q-24 -42 -24 -90q0 -81 98 -134q97 -52 257 -52q108 0 195 25q87 24 146 78q57 53 57 126v71z" />
    <glyph glyph-name="Z.ss10" horiz-adv-x="950" 
d="M934 664l-599 -541h556v-123h-872l599 541h-570v123h886z" />
    <glyph glyph-name="Zacute.ss10" horiz-adv-x="950" 
d="M705 855l-162 -144h-131l113 144h180zM934 664l-599 -541h556v-123h-872l599 541h-570v123h886z" />
    <glyph glyph-name="Zcaron.ss10" horiz-adv-x="950" 
d="M547 702h-141l-162 144h169l64 -81l63 81h169zM934 664l-599 -541h556v-123h-872l599 541h-570v123h886z" />
    <glyph glyph-name="Zdotaccent.ss10" horiz-adv-x="950" 
d="M478 695q-43 0 -74 20q-30 19 -30 50q0 32 30 53t74 21q42 0 73 -21q30 -21 30 -53q0 -31 -30 -50q-32 -20 -73 -20zM934 664l-599 -541h556v-123h-872l599 541h-570v123h886z" />
    </font>
</defs>
</svg>
