<?xml version="1.0" standalone="no"?>
<!DOCTYPE svg PUBLIC "-//W3C//DTD SVG 1.1//EN" "http://www.w3.org/Graphics/SVG/1.1/DTD/svg11.dtd" >
<svg xmlns="http://www.w3.org/2000/svg" xmlns:xlink="http://www.w3.org/1999/xlink" version="1.1">
<metadata>
Created by FontForge 20190801 at Thu Sep  5 00:00:00 2019
 By www-data
Copyright (c) 2019 by schoener. All rights reserved.
</metadata>
<defs>
<font id="ZoomProBrutalMedium" horiz-adv-x="1520" >
  <font-face 
    font-family="ZoomProBrutalMedium"
    font-weight="500"
    font-stretch="extra-expanded"
    units-per-em="1000"
    panose-1="2 0 6 7 0 0 0 0 0 0"
    ascent="800"
    descent="-200"
    x-height="474"
    cap-height="664"
    bbox="-1341 -286 3498 935"
    underline-thickness="50"
    underline-position="-200"
    unicode-range="U+0020-1F5CE"
  />
<missing-glyph horiz-adv-x="820" 
d="M50 690h720v-716h-720v716zM684 637h-549l275 -273zM440 333l280 -279v558zM379 333l-279 278v-556zM135 27h549l-274 275z" />
    <glyph glyph-name="fi" unicode="fi" horiz-adv-x="879" 
d="M789 474v-474h-143v349h-272v-349h-143v349h-181v125h181v30q0 80 73 128q74 47 187 47q123 0 196 -55l-88 -101q-32 31 -108 31q-53 0 -84 -19q-33 -19 -33 -53v-8h415z" />
    <glyph glyph-name="fl" unicode="fl" horiz-adv-x="879" 
d="M646 664h143v-664h-143v349h-272v-349h-143v349h-181v125h181v18q0 84 79 136q79 51 203 51q69 0 133 -18v3zM374 474h272v25q-36 55 -130 55q-62 0 -102 -22t-40 -56v-2z" />
    <glyph glyph-name="f_f" unicode="ff" horiz-adv-x="1106" 
d="M788 474h280v-125h-280v-349h-143v349h-271v-349h-143v349h-181v125h181v18q0 84 79 136q79 51 203 51q121 0 203 -49q70 49 189 49q123 0 196 -55l-88 -101q-32 31 -108 31q-53 0 -84 -19q-33 -19 -33 -53v-8zM645 474v27q-39 53 -129 53q-62 0 -102 -22t-40 -56v-2h271
z" />
    <glyph glyph-name="f_f_i" unicode="ffi" horiz-adv-x="1293" 
d="M1203 474v-474h-143v349h-272v-349h-143v349h-271v-349h-143v349h-181v125h181v18q0 84 79 136q79 51 203 51q121 0 203 -49q70 49 189 49q123 0 196 -55l-88 -101q-32 31 -108 31q-53 0 -84 -19q-33 -19 -33 -53v-8h415zM645 474v27q-39 53 -129 53q-62 0 -102 -22
t-40 -56v-2h271z" />
    <glyph glyph-name="f_f_l" unicode="ffl" horiz-adv-x="1293" 
d="M1060 664h143v-664h-143v349h-272v-349h-143v349h-271v-349h-143v349h-181v125h181v18q0 84 79 136q79 51 203 51q129 0 209 -53q79 53 205 53q69 0 133 -18v3zM645 474v18v9q-39 53 -129 53q-62 0 -102 -22t-40 -56v-2h271zM1060 474v25q-36 55 -130 55q-62 0 -102 -22
t-40 -56v-2h272z" />
    <glyph glyph-name=".notdef" horiz-adv-x="820" 
d="M50 690h720v-716h-720v716zM684 637h-549l275 -273zM440 333l280 -279v558zM379 333l-279 278v-556zM135 27h549l-274 275z" />
    <glyph glyph-name=".null" horiz-adv-x="0" 
 />
    <glyph glyph-name="nonmarkingreturn" horiz-adv-x="333" 
 />
    <glyph glyph-name="space" unicode=" " horiz-adv-x="513" 
 />
    <glyph glyph-name="exclam" unicode="!" horiz-adv-x="376" 
d="M131 189l-32 475h178l-32 -475h-114zM188 -11q-50 0 -84 20q-34 19 -34 54q0 34 34 55q34 20 84 20q49 0 84 -20q34 -21 34 -55q0 -35 -34 -54q-35 -20 -84 -20z" />
    <glyph glyph-name="quotedbl" unicode="&#x22;" horiz-adv-x="638" 
d="M63 435v53q99 0 152 44q-53 -12 -105 8q-51 20 -51 62q0 34 34 55q34 20 84 20q51 0 85 -23q33 -24 33 -68q0 -70 -63 -110q-64 -41 -169 -41zM348 435v53q99 0 152 44q-53 -12 -105 8q-51 20 -51 62q0 34 34 55q34 20 84 20q51 0 85 -23q33 -24 33 -68q0 -70 -63 -110
q-64 -41 -169 -41z" />
    <glyph glyph-name="numbersign" unicode="#" horiz-adv-x="883" 
d="M780 389h-138l-12 -114h137l-13 -130h-138l-15 -145h-146l15 145h-98l-15 -145h-146l15 145h-136l13 130h137l12 114h-136l13 130h137l15 145h146l-15 -145h98l15 145h146l-15 -145h137zM484 275l12 114h-98l-12 -114h98z" />
    <glyph glyph-name="dollar" unicode="$" horiz-adv-x="1362" 
d="M777 401q89 -4 167 -11q73 -7 133 -16q70 -11 105 -23q37 -12 72 -34q33 -22 46 -49t13 -66q0 -63 -40 -104q-41 -42 -123 -66q-80 -23 -191 -34q-115 -11 -262 -11h-33l-36 -129h-151l37 135q-379 27 -455 160l127 68q27 -36 120 -63q91 -27 244 -36l43 158
q-93 5 -179 14q-76 8 -137 22q-63 13 -102 35q-38 21 -59 53t-21 75q0 110 147 155q146 45 439 45h22l25 92h151l-27 -98q347 -26 414 -158l-129 -70q-34 84 -320 101zM247 479q0 -30 81 -45q85 -16 300 -26l39 141q-420 -1 -420 -70zM713 117q448 0 448 81q0 34 -81 47
t-338 27l-43 -155h14z" />
    <glyph glyph-name="percent" unicode="%" horiz-adv-x="1729" 
d="M417 291q-156 0 -266 56t-110 136q0 83 109 138q110 56 267 56q156 0 266 -56q109 -55 109 -138q0 -81 -109 -136q-110 -56 -266 -56zM538 0l518 664h135l-518 -664h-135zM417 403q100 0 171 23q69 22 69 57t-69 59q-71 23 -171 23q-103 0 -172 -23q-69 -24 -69 -59
t70 -57q72 -23 171 -23zM1313 -13q-156 0 -266 56t-110 136q0 83 109 138q110 56 267 56q156 0 266 -56q109 -55 109 -138q0 -81 -109 -136q-110 -56 -266 -56zM1313 99q100 0 171 23q69 22 69 57t-69 59q-71 23 -171 23q-102 0 -173 -23q-69 -24 -69 -59q0 -34 71 -57
q72 -23 171 -23z" />
    <glyph glyph-name="ampersand" unicode="&#x26;" horiz-adv-x="1431" 
d="M1386 96v-122q-190 0 -439 80q-207 -65 -444 -65q-215 0 -338 49q-124 48 -124 132q0 38 24 69q21 29 68 56q41 22 98 43q50 17 124 36q-74 72 -74 131q0 77 120 126q119 48 310 48q178 0 277 -44q97 -43 97 -113q0 -29 -15 -53q-16 -24 -49 -44q-39 -23 -67 -34
q-37 -16 -90 -29q-69 -17 -97 -23q-42 -9 -108 -21q125 -62 293 -121q184 71 353 208l71 -120q-112 -88 -228 -148q130 -33 238 -41zM433 484q0 -28 71 -78l26 5q56 11 115 20q60 9 112 18q64 11 88 16q45 9 66 19q22 10 22 21q0 22 -71 33q-67 10 -164 10q-115 0 -191 -17
q-74 -18 -74 -47zM503 119q117 0 229 18q-154 70 -264 145q-275 -54 -275 -102q0 -26 86 -43q85 -18 224 -18z" />
    <glyph glyph-name="quotesingle" unicode="'" horiz-adv-x="353" 
d="M63 435v53q99 0 152 44q-53 -12 -105 8q-51 20 -51 62q0 34 34 55q34 20 84 20q51 0 85 -23q33 -24 33 -68q0 -70 -63 -110q-64 -41 -169 -41z" />
    <glyph glyph-name="parenleft" unicode="(" horiz-adv-x="479" 
d="M376 -100q-323 161 -323 439q0 276 326 425l61 -115q-241 -108 -241 -310q0 -208 243 -325z" />
    <glyph glyph-name="parenright" unicode=")" horiz-adv-x="479" 
d="M103 -100l-66 114q243 117 243 325q0 202 -242 310l62 115q326 -150 326 -425q0 -277 -323 -439z" />
    <glyph glyph-name="asterisk" unicode="*" horiz-adv-x="642" 
d="M568 563l-147 -48l132 -181l-79 -61l-91 124l-135 -186l-79 62l88 121l-213 68l31 100l148 -48v227h98v-150l218 71z" />
    <glyph glyph-name="plus" unicode="+" horiz-adv-x="684" 
d="M603 325v-128h-198v-197h-125v197h-199v128h199v197h125v-197h198z" />
    <glyph glyph-name="comma" unicode="," horiz-adv-x="376" 
d="M74 -104v53q99 0 152 44q-53 -12 -105 8q-51 19 -51 62q0 34 34 55q34 20 84 20q51 0 85 -23q33 -24 33 -68q0 -69 -63 -110q-64 -41 -169 -41z" />
    <glyph glyph-name="hyphen" unicode="-" horiz-adv-x="498" 
d="M81 196v130h336v-130h-336z" />
    <glyph glyph-name="period" unicode="." horiz-adv-x="376" 
d="M188 -11q-50 0 -84 20q-34 19 -34 54q0 34 34 55q34 20 84 20q49 0 84 -20q34 -21 34 -55q0 -35 -34 -54q-35 -20 -84 -20z" />
    <glyph glyph-name="slash" unicode="/" horiz-adv-x="535" 
d="M57 -142l282 913h140l-282 -913h-140z" />
    <glyph glyph-name="zero" unicode="0" 
d="M760 -13q-132 0 -255 21q-121 21 -225 62q-101 39 -164 109q-62 68 -62 154q0 85 61 152q59 66 161 109q100 40 225 63q122 22 259 22q138 0 260 -22q124 -23 225 -63q100 -42 161 -109q60 -67 60 -152q0 -87 -61 -154q-63 -69 -164 -109q-106 -42 -226 -62
q-123 -21 -255 -21zM760 117q106 0 200 12t177 36q80 24 129 68q48 43 48 100q0 55 -47 99q-45 41 -127 67q-74 24 -176 38q-96 12 -204 12t-204 -12q-102 -14 -176 -38q-82 -26 -127 -67q-47 -44 -47 -99q0 -57 48 -100q49 -44 130 -68t176 -36t200 -12z" />
    <glyph glyph-name="one" unicode="1" horiz-adv-x="841" 
d="M589 664h146v-664h-146v416q-79 -85 -209 -143q-131 -59 -296 -81l-67 140q236 15 390 104q152 89 182 228z" />
    <glyph glyph-name="two" unicode="2" horiz-adv-x="1358" 
d="M1302 430q0 -95 -148 -165q-149 -71 -482 -135h609v-130h-1154l-24 130q341 56 598 118q246 60 346 103q103 43 103 79q0 45 -127 82q-126 37 -313 37q-140 0 -254 -22q-116 -22 -184 -59q-67 -36 -67 -75q0 -17 15 -31q16 -16 51 -32l-72 -107q-146 62 -146 167
q0 82 89 150q88 65 238 103q150 36 330 36q162 0 298 -29q133 -30 214 -87q80 -59 80 -133z" />
    <glyph glyph-name="three" unicode="3" horiz-adv-x="1417" 
d="M1117 350q241 -51 241 -171q0 -51 -52 -88q-53 -38 -143 -60q-91 -23 -207 -33q-121 -11 -251 -11q-563 0 -655 186l144 47q25 -48 155 -75q127 -28 356 -28q208 0 356 26q145 25 145 60t-137 58q-138 21 -364 21h-156l-43 121h122q149 0 273 11q119 10 180 27
q61 16 61 37q0 20 -52 36q-48 15 -155 26q-102 9 -234 9q-426 0 -486 -89l-115 87q128 132 601 132q128 0 232 -9q107 -11 186 -31q83 -21 129 -57q46 -37 46 -86q0 -98 -177 -146z" />
    <glyph glyph-name="four" unicode="4" horiz-adv-x="1453" 
d="M1420 230v-130h-362v-100h-146v100h-881v130q151 5 286 70q138 67 221 172q84 106 83 218l133 -70q-2 -118 -85 -218q-86 -102 -224 -172h467v252h146v-252h362z" />
    <glyph glyph-name="five" unicode="5" horiz-adv-x="1427" 
d="M795 466q265 0 421 -61q157 -61 157 -167q0 -73 -81 -130q-84 -58 -232 -89q-152 -32 -345 -32q-194 0 -361 28q-170 27 -276 72l70 114q89 -38 241 -61q155 -23 326 -23q215 0 361 36q145 36 145 85q0 47 -128 80q-129 33 -311 33q-394 0 -548 -98l-141 35l131 376h1108
v-130h-1001l-52 -150q206 82 516 82z" />
    <glyph glyph-name="six" unicode="6" horiz-adv-x="1410" 
d="M817 419q106 0 205 -11q95 -11 173 -33q79 -23 122 -59q44 -38 44 -86q0 -64 -78 -120q-81 -57 -221 -89q-140 -34 -316 -34q-187 0 -345 41q-159 41 -252 119q-95 78 -95 180q0 103 96 185q95 80 253 124q156 42 340 42q162 0 302 -28q143 -29 241 -82l-68 -113
q-162 93 -459 93q-148 0 -270 -25t-203 -77q-80 -53 -80 -119q0 -25 10 -44q250 136 601 136zM750 117q185 0 321 31q137 32 137 73q0 38 -120 59q-125 20 -284 20q-311 0 -506 -97q75 -41 195 -63q121 -23 257 -23z" />
    <glyph glyph-name="seven" unicode="7" horiz-adv-x="1348" 
d="M24 664h1300v-130q-96 0 -190 -12q-103 -15 -192 -38q-103 -27 -181 -68q-81 -42 -148 -101q-65 -58 -101 -138q-36 -81 -33 -177h-157q0 178 111 315q109 137 303 219h-712v130z" />
    <glyph glyph-name="eight" unicode="8" horiz-adv-x="1422" 
d="M1124 361q247 -61 247 -174q0 -62 -91 -108q-92 -47 -239 -69q-152 -23 -330 -23q-177 0 -329 23q-148 22 -240 69q-91 46 -91 108q0 113 247 174q-179 51 -179 137t168 134q170 47 424 47t424 -47q168 -48 168 -134t-179 -137zM271 481q0 -17 48 -31q51 -15 149 -22
q102 -9 243 -9t243 9q96 7 149 22q47 14 47 31q0 68 -439 68q-440 0 -440 -68zM711 117q217 0 363 24q144 23 144 65q0 41 -140 67q-144 26 -367 26q-225 0 -367 -26q-141 -25 -141 -67t146 -65q145 -24 362 -24z" />
    <glyph glyph-name="nine" unicode="9" horiz-adv-x="1416" 
d="M669 679q187 0 346 -41q157 -40 252 -119q95 -80 95 -181q0 -106 -92 -186q-91 -81 -247 -123t-350 -42q-160 0 -300 28q-145 29 -242 82l93 99q159 -79 433 -79q157 0 279 25q124 26 198 76q75 51 75 120q0 25 -10 44q-247 -136 -605 -136q-103 0 -202 11
q-94 11 -171 33q-78 23 -121 60q-45 38 -45 85q0 66 79 121q78 56 220 90q142 33 315 33zM207 444q0 -38 120 -58t285 -21q310 0 505 97q-74 42 -193 65q-117 22 -258 22q-185 0 -321 -31q-138 -32 -138 -74z" />
    <glyph glyph-name="colon" unicode=":" horiz-adv-x="400" 
d="M200 336q-50 0 -84 20q-34 19 -34 54q0 34 34 55q34 20 84 20q49 0 84 -20q34 -21 34 -55q0 -35 -34 -54q-35 -20 -84 -20zM200 -11q-50 0 -84 20q-34 19 -34 54q0 34 34 55q34 20 84 20q49 0 84 -20q34 -21 34 -55q0 -35 -34 -54q-35 -20 -84 -20z" />
    <glyph glyph-name="semicolon" unicode=";" horiz-adv-x="400" 
d="M200 336q-50 0 -84 20q-34 19 -34 54q0 34 34 55q34 20 84 20q49 0 84 -20q34 -21 34 -55q0 -35 -34 -54q-35 -20 -84 -20zM86 -104v53q99 0 152 44q-53 -12 -105 8q-51 19 -51 62q0 34 34 55q34 20 84 20q51 0 85 -23q33 -24 33 -68q0 -69 -63 -110q-64 -41 -169 -41z
" />
    <glyph glyph-name="less" unicode="&#x3c;" horiz-adv-x="685" 
d="M595 -13l-555 274l555 273v-146l-261 -127l261 -128v-146z" />
    <glyph glyph-name="equal" unicode="=" horiz-adv-x="684" 
d="M81 296v128h522v-128h-522zM81 98v128h522v-128h-522z" />
    <glyph glyph-name="greater" unicode="&#x3e;" horiz-adv-x="685" 
d="M90 534l555 -274l-555 -273v146l261 127l-261 128v146z" />
    <glyph glyph-name="question" unicode="?" horiz-adv-x="762" 
d="M100 664q315 0 472 -43q158 -44 158 -138q0 -85 -123 -138q-125 -53 -354 -66l-7 -90h-113l-14 196q192 2 325 24q134 23 134 56q0 21 -59 39q-63 17 -169 26q-105 9 -240 4zM188 138q49 0 84 -20q34 -21 34 -55q0 -35 -34 -54q-35 -20 -84 -20q-50 0 -84 20
q-34 19 -34 54q0 34 34 55q34 20 84 20z" />
    <glyph glyph-name="at" unicode="@" horiz-adv-x="1909" 
d="M953 679q131 0 262 -18q130 -18 245 -54q116 -37 204 -87q87 -50 140 -121q51 -71 51 -151q0 -86 -55 -156q-56 -71 -130 -107q-75 -36 -143 -36q-94 0 -138 41q-44 40 -49 99q-72 -50 -195 -76q-124 -26 -262 -26t-245 25q-111 26 -183 83q-74 59 -74 142q0 81 71 140
t181 84q113 26 250 26q142 0 261 -25q123 -26 195 -76v88h143v-333q0 -65 21 -96q20 -32 66 -32q78 0 158 74q78 73 78 161q0 103 -113 190q-112 87 -309 138t-430 51t-428 -51t-308 -138q-112 -87 -112 -191q0 -105 111 -192q112 -88 306 -137q195 -50 431 -50
q212 0 398 47l12 -51q-193 -48 -410 -48q-125 0 -255 17q-125 16 -243 53q-114 34 -206 85q-91 51 -142 121q-53 71 -53 155q0 101 79 184q81 85 208 137q133 54 288 82q160 29 324 29zM934 112q183 0 294 33q110 33 110 92t-109 92t-295 33q-184 0 -294 -33t-110 -92
t111 -92t293 -33z" />
    <glyph glyph-name="A" unicode="A" horiz-adv-x="1472" 
d="M1277 0l-119 124h-843l-119 -124h-189l639 664h181l638 -664h-188zM441 254h591l-295 307z" />
    <glyph glyph-name="B" unicode="B" horiz-adv-x="1453" 
d="M1268 345q129 -45 129 -155q0 -195 -364 -195q-392 0 -546 1q-306 2 -307 2l-74 2v664q238 6 919 6q164 0 250 -49q87 -49 87 -145q0 -85 -94 -131zM1066 540q-559 0 -814 -4v-127h814q144 0 144 63q0 30 -36 49q-37 19 -108 19zM1084 125q161 0 161 78q0 31 -41 54
q-40 22 -120 22h-832v-151q429 -3 832 -3z" />
    <glyph glyph-name="C" unicode="C" horiz-adv-x="1410" 
d="M763 -13q-132 0 -255 21q-120 20 -227 62q-102 40 -165 109q-62 68 -62 154q0 85 61 152q59 66 161 109q100 40 226 63q122 22 259 22q182 0 340 -37q160 -37 249 -107l-71 -123q-67 68 -207 102q-142 35 -311 35q-247 0 -401 -62q-154 -61 -154 -154t156 -154
q157 -62 401 -62q167 0 301 31q136 31 212 85l91 -103q-94 -69 -260 -106q-164 -37 -344 -37z" />
    <glyph glyph-name="D" unicode="D" horiz-adv-x="1468" 
d="M630 670q784 0 784 -337q0 -339 -784 -339q-136 0 -310 2q-171 2 -172 2l-42 2v664q121 6 524 6zM630 124q325 0 479 53q152 53 152 156q0 207 -631 207q-160 0 -378 -2v-412q218 -2 378 -2z" />
    <glyph glyph-name="E" unicode="E" horiz-adv-x="1295" 
d="M1230 534h-978v-125h857v-130h-857v-149h978v-130h-1124v664h1124v-130z" />
    <glyph glyph-name="F" unicode="F" horiz-adv-x="1266" 
d="M1230 534h-978v-125h857v-130h-857v-279h-146v664h1124v-130z" />
    <glyph glyph-name="G" unicode="G" horiz-adv-x="1518" 
d="M606 375h822v-375h-146v142q-202 -155 -545 -155q-125 0 -244 21q-117 21 -218 62q-98 40 -160 109q-61 67 -61 154q0 85 61 152q59 66 161 109q100 40 226 63q122 22 259 22q182 0 340 -37q160 -37 249 -107l-71 -123q-67 68 -207 102q-142 35 -311 35q-247 0 -401 -62
q-154 -61 -154 -154q0 -56 47 -100q46 -43 125 -67q76 -25 169 -37q91 -12 190 -12q168 0 306 35q135 34 213 92h-650v131z" />
    <glyph glyph-name="H" unicode="H" horiz-adv-x="1434" 
d="M1182 664h146v-664h-146v279h-930v-279h-146v664h146v-255h930v255z" />
    <glyph glyph-name="I" unicode="I" horiz-adv-x="358" 
d="M106 0v664h146v-664h-146z" />
    <glyph glyph-name="J" unicode="J" horiz-adv-x="1325" 
d="M609 -13q-182 0 -340 37q-161 38 -249 106l72 128q135 -141 517 -141q226 0 354 67q128 66 128 188v292h146v-315q0 -119 -85 -201q-87 -84 -224 -122q-139 -39 -319 -39z" />
    <glyph glyph-name="K" unicode="K" horiz-adv-x="1340" 
d="M1101 0l-473 306l-376 -195v-111h-146v664h146v-402l788 402h283l-561 -287l579 -377h-240z" />
    <glyph glyph-name="L" unicode="L" horiz-adv-x="1239" 
d="M252 130h960v-130h-1106v664h146v-534z" />
    <glyph glyph-name="M" unicode="M" horiz-adv-x="1608" 
d="M1325 664h177v-664h-146v493l-463 -493h-178l-463 493v-493h-146v664h177l521 -559z" />
    <glyph glyph-name="N" unicode="N" horiz-adv-x="1456" 
d="M1204 664h146v-664h-174l-924 525v-525h-146v664h174l924 -526v526z" />
    <glyph glyph-name="O" unicode="O" 
d="M760 -13q-132 0 -255 21q-121 21 -225 62q-101 39 -164 109q-62 68 -62 154q0 85 61 152q59 66 161 109q100 40 225 63q122 22 259 22q138 0 260 -22q124 -23 225 -63q100 -42 161 -109q60 -67 60 -152q0 -87 -61 -154q-63 -69 -164 -109q-106 -42 -226 -62
q-123 -21 -255 -21zM760 117q105 0 201 12q98 12 176 37q83 26 129 68q48 44 48 99q0 54 -47 98q-47 42 -127 68q-74 24 -176 38q-98 12 -204 12q-107 0 -203 -12q-101 -14 -176 -38q-80 -26 -127 -68q-48 -43 -48 -98t48 -99q47 -42 130 -68q78 -25 176 -37q95 -12 200 -12
z" />
    <glyph glyph-name="P" unicode="P" horiz-adv-x="1381" 
d="M934 670q215 0 315 -52t100 -170q0 -111 -101 -164q-103 -53 -314 -53h-682v-231h-146v664q232 6 828 6zM955 361q137 0 189 21q53 20 53 66q0 48 -52 70q-51 22 -190 22q-472 0 -703 -4v-175h703z" />
    <glyph glyph-name="Q" unicode="Q" horiz-adv-x="1518" 
d="M1518 0l-62 -118l-295 160q-178 -55 -401 -55q-132 0 -255 21q-121 21 -225 62q-101 39 -164 109q-62 68 -62 154q0 85 61 152q59 66 161 109q100 40 225 63q122 22 259 22q138 0 260 -22q124 -23 225 -63q100 -42 161 -109q60 -67 60 -152q0 -134 -149 -224zM760 117
q128 0 231 16l-264 143l63 118l391 -211q133 55 133 150q0 54 -47 98q-47 42 -127 68q-74 24 -176 38q-98 12 -204 12q-107 0 -203 -12q-101 -14 -176 -38q-80 -26 -127 -68q-48 -43 -48 -98t48 -99q47 -42 130 -68q78 -25 176 -37q95 -12 200 -12z" />
    <glyph glyph-name="R" unicode="R" horiz-adv-x="1414" 
d="M1118 0l-349 231h-517v-231h-146v664q232 6 828 6q215 0 315 -52t100 -170q0 -103 -84 -155q-86 -53 -260 -60l354 -233h-241zM252 536v-175h703q137 0 189 21q53 20 53 66q0 48 -52 70q-51 22 -190 22q-472 0 -703 -4z" />
    <glyph glyph-name="S" unicode="S" horiz-adv-x="1372" 
d="M697 -13q-255 0 -422 42q-167 40 -216 124l127 68q35 -46 168 -74q134 -30 359 -30q448 0 448 81q0 18 -18 29q-19 11 -74 20t-136 15q-86 5 -229 12q-98 5 -160 9q-91 6 -135 11q-77 8 -113 17q-50 12 -86 25q-42 15 -65 35q-22 19 -36 47t-14 61q0 110 147 155
q146 45 439 45q502 0 585 -164l-129 -70q-42 104 -451 104q-439 0 -439 -70q0 -33 97 -48q96 -15 368 -27q100 -5 163 -9q89 -6 134 -11q63 -7 112 -17q44 -11 83 -24q42 -16 62 -34q19 -18 34 -46q13 -26 13 -61q0 -63 -40 -104q-41 -42 -123 -66q-80 -23 -191 -34
q-115 -11 -262 -11z" />
    <glyph glyph-name="T" unicode="T" horiz-adv-x="1310" 
d="M1286 664v-130h-558v-534h-146v534h-558v130h1262z" />
    <glyph glyph-name="U" unicode="U" horiz-adv-x="1432" 
d="M716 -13q-178 0 -318 39q-137 38 -224 122q-86 83 -86 201v315h146v-289q0 -123 129 -190q130 -68 353 -68t353 68q129 68 129 190v289h146v-315q0 -119 -85 -201q-86 -83 -225 -122q-140 -39 -318 -39z" />
    <glyph glyph-name="V" unicode="V" horiz-adv-x="1473" 
d="M1277 664h188l-638 -664h-181l-638 664h188l541 -561z" />
    <glyph glyph-name="W" unicode="W" horiz-adv-x="1861" 
d="M1686 664h165l-396 -664h-194l-330 557l-330 -557h-195l-396 664h164l330 -552l332 552h189l332 -551z" />
    <glyph glyph-name="X" unicode="X" horiz-adv-x="1414" 
d="M1433 0h-254l-472 283l-472 -283h-254l599 359l-511 305h254l384 -230l383 230h255l-511 -305z" />
    <glyph glyph-name="Y" unicode="Y" horiz-adv-x="1614" 
d="M1599 664l-719 -460v-204h-146v203l-719 461h242l550 -348l549 348h243z" />
    <glyph glyph-name="Z" unicode="Z" horiz-adv-x="1273" 
d="M1210 664v-130l-845 -404h841v-130h-1143v130l850 404h-848v130h1145z" />
    <glyph glyph-name="bracketleft" unicode="[" horiz-adv-x="545" 
d="M499 632h-247v-600h247v-127h-393v854h393v-127z" />
    <glyph glyph-name="backslash" unicode="\" horiz-adv-x="535" 
d="M478 -142h-140l-282 913h140z" />
    <glyph glyph-name="bracketright" unicode="]" horiz-adv-x="546" 
d="M440 759v-854h-394v127h248v600h-248v127h394z" />
    <glyph glyph-name="asciicircum" unicode="^" horiz-adv-x="814" 
d="M160 130l-120 75l367 485l367 -485l-119 -75l-248 321z" />
    <glyph glyph-name="underscore" unicode="_" horiz-adv-x="500" 
d="M0 -129v130h500v-130h-500z" />
    <glyph glyph-name="grave" unicode="`" horiz-adv-x="143" 
d="M144 711h-145l-216 145h217z" />
    <glyph glyph-name="a" unicode="a" horiz-adv-x="1237" 
d="M1004 474h143v-474h-143v88q-74 -50 -194 -75q-124 -26 -261 -26q-138 0 -245 25q-111 26 -183 83q-74 59 -74 142q0 81 71 140t181 84q113 26 250 26q141 0 260 -25q123 -26 195 -76v88zM600 112q183 0 294 33q110 33 110 92t-109 92t-295 33q-184 0 -294 -33t-110 -92
t111 -92t293 -33z" />
    <glyph glyph-name="b" unicode="b" horiz-adv-x="1237" 
d="M688 487q137 0 250 -26q112 -26 182 -84t70 -140q0 -84 -73 -142q-71 -57 -184 -83q-107 -25 -245 -25q-137 0 -261 26q-120 25 -194 75v-88h-143v664h143v-278q72 50 196 76q119 25 259 25zM637 112q182 0 293 33t111 92t-109 92q-110 33 -295 33t-295 -33
q-109 -33 -109 -92t111 -92q110 -33 293 -33z" />
    <glyph glyph-name="c" unicode="c" horiz-adv-x="1110" 
d="M612 -13q-101 0 -199 15q-95 15 -180 44q-82 28 -135 79q-51 49 -51 112q0 61 50 111q49 49 131 79q83 29 181 45q97 15 203 15q134 0 264 -26q124 -27 205 -77l-79 -106q-39 40 -149 63q-111 21 -241 21q-165 0 -291 -32q-125 -33 -125 -93q0 -61 127 -92
q126 -33 289 -33q114 0 211 16q102 17 154 47l98 -88q-77 -48 -204 -74t-259 -26z" />
    <glyph glyph-name="d" unicode="d" horiz-adv-x="1237" 
d="M1004 664h143v-664h-143v88q-74 -50 -194 -75q-124 -26 -261 -26q-138 0 -245 25q-111 26 -183 83q-74 59 -74 142q0 81 71 140t181 84q113 26 250 26q141 0 260 -25q123 -26 195 -76v278zM600 112q183 0 294 33q110 33 110 92t-109 92t-295 33q-184 0 -294 -33t-110 -92
t111 -92t293 -33z" />
    <glyph glyph-name="e" unicode="e" horiz-adv-x="1223" 
d="M612 487q100 0 207 -17q103 -18 193 -51q91 -35 135 -92q45 -59 21 -132h-951q41 -42 151 -65q109 -24 244 -24q250 0 365 57l98 -89q-84 -42 -207 -64q-129 -23 -256 -23q-101 0 -199 15q-95 15 -180 44q-82 28 -135 79q-51 49 -51 112q0 61 50 111q49 49 131 79
q83 29 181 45q97 15 203 15zM1001 285q-44 38 -151 61q-104 22 -238 22q-135 0 -239 -22q-109 -23 -151 -61h779z" />
    <glyph glyph-name="f" unicode="f" horiz-adv-x="692" 
d="M374 482v-8h280v-125h-280v-349h-143v349h-181v125h181v30q0 80 73 128q74 47 187 47q123 0 196 -55l-88 -101q-32 31 -108 31q-53 0 -84 -19q-33 -19 -33 -53z" />
    <glyph glyph-name="g" unicode="g" horiz-adv-x="1238" 
d="M1005 474h143v-394q0 -75 -49 -130q-50 -56 -133 -87q-87 -32 -184 -47q-97 -16 -217 -16q-119 0 -256 20t-218 70l94 92q55 -33 166 -48q106 -16 218 -16q88 0 161 10q78 9 139 28q61 20 99 51q37 31 37 73v9q-73 -51 -194 -76q-124 -26 -262 -26t-245 25
q-111 26 -183 83q-74 59 -74 142q0 81 71 140t181 84q113 26 250 26q142 0 261 -25q123 -26 195 -76v88zM600 112q183 0 294 33q110 33 110 92t-109 92t-295 33q-184 0 -294 -33t-110 -92t111 -92t293 -33z" />
    <glyph glyph-name="h" unicode="h" horiz-adv-x="1250" 
d="M713 487q127 0 230 -27t165 -82q63 -56 63 -132v-246h-143v205q0 79 -89 118q-90 39 -252 39q-75 0 -154 -14q-76 -13 -145 -41q-69 -27 -112 -73t-43 -105v-129h-143v664h143v-326q77 74 204 111q129 38 276 38z" />
    <glyph glyph-name="i" unicode="i" horiz-adv-x="323" 
d="M161 514q-50 0 -84 20q-34 19 -34 54q0 34 34 55q34 20 84 20q49 0 84 -20q34 -21 34 -55q0 -35 -34 -54q-35 -20 -84 -20zM90 0v474h143v-474h-143z" />
    <glyph glyph-name="j" unicode="j" horiz-adv-x="322" 
d="M161 514q-50 0 -84 20q-34 19 -34 54q0 34 34 55q34 20 84 20q49 0 84 -20q34 -21 34 -55q0 -35 -34 -54q-35 -20 -84 -20zM-27 -200q-123 0 -196 55l88 101q32 -31 108 -31q50 0 84 20q32 20 32 52v477h143v-499q0 -81 -72 -127q-73 -48 -187 -48z" />
    <glyph glyph-name="k" unicode="k" horiz-adv-x="1137" 
d="M900 0l-354 224l-313 -136v-88h-143v664h143v-435l572 245h317l-430 -186l451 -288h-243z" />
    <glyph glyph-name="l" unicode="l" horiz-adv-x="323" 
d="M90 0v664h143v-664h-143z" />
    <glyph glyph-name="m" unicode="m" horiz-adv-x="1748" 
d="M1327 487q342 0 342 -255v-232h-143v200q0 164 -231 162q-90 -2 -165 -26q-79 -25 -129 -74q-50 -48 -50 -107v-155h-143v200q0 164 -230 162q-90 -2 -165 -26q-79 -25 -129 -74q-51 -48 -51 -107v-155h-143v474h143v-116q65 60 163 94q102 35 214 35q238 0 311 -132
q66 60 175 96q110 36 231 36z" />
    <glyph glyph-name="n" unicode="n" horiz-adv-x="1250" 
d="M713 487q127 0 230 -27t165 -82q63 -56 63 -132v-246h-143v205q0 79 -89 118q-90 39 -252 39q-75 0 -154 -14q-76 -13 -145 -41q-69 -27 -112 -73t-43 -105v-129h-143v474h143v-136q77 74 204 111q129 38 276 38z" />
    <glyph glyph-name="o" unicode="o" horiz-adv-x="1222" 
d="M612 -13q-101 0 -199 15q-95 15 -180 44q-82 28 -135 79q-51 49 -51 112q0 61 50 111q49 49 131 79q83 29 181 45q97 15 203 15q104 0 201 -15q95 -15 180 -44q83 -30 132 -79q50 -50 50 -112q0 -81 -87 -140t-211 -84q-127 -26 -265 -26zM612 112q163 0 289 33
q125 32 125 92q0 41 -64 71q-65 29 -155 42q-91 12 -195 12q-165 0 -291 -32q-125 -33 -125 -93q0 -61 127 -92q126 -33 289 -33z" />
    <glyph glyph-name="p" unicode="p" horiz-adv-x="1237" 
d="M688 487q137 0 250 -26q112 -26 182 -84t70 -140q0 -84 -73 -142q-71 -57 -184 -83q-107 -25 -245 -25q-137 0 -261 26q-120 25 -194 75v-273h-143v659h143v-88q72 50 196 76q119 25 259 25zM637 112q182 0 293 33t111 92t-109 92q-110 33 -295 33t-295 -33
q-109 -33 -109 -92t111 -92q110 -33 293 -33z" />
    <glyph glyph-name="q" unicode="q" horiz-adv-x="1237" 
d="M1004 474h143v-659h-143v273q-74 -50 -194 -75q-124 -26 -261 -26q-138 0 -245 25q-111 26 -183 83q-74 59 -74 142q0 81 71 140t181 84q113 26 250 26q141 0 260 -25q123 -26 195 -76v88zM600 112q183 0 294 33q110 33 110 92t-109 92t-295 33q-184 0 -294 -33t-110 -92
t111 -92t293 -33z" />
    <glyph glyph-name="r" unicode="r" horiz-adv-x="1154" 
d="M726 487q157 0 265 -52q109 -53 126 -150l-133 -73q-3 71 -84 112q-82 39 -227 39q-68 0 -145 -11q-67 -10 -141 -31q-67 -21 -111 -57q-43 -36 -43 -81v-183h-143v474h143v-115q77 63 206 96q133 32 287 32z" />
    <glyph glyph-name="s" unicode="s" horiz-adv-x="1108" 
d="M557 -13q-194 0 -337 32q-141 31 -185 92l123 57q20 -22 144 -45q126 -23 272 -23q343 0 343 44q0 16 -70 23q-59 6 -280 11q-79 1 -164 5q-72 3 -128 10q-63 8 -100 18q-35 9 -67 28q-29 17 -41 41q-13 22 -13 55q0 152 500 152q189 0 314 -31q127 -31 166 -91l-124 -59
q-10 25 -118 47q-110 21 -256 21q-338 0 -338 -39q0 -14 60 -19q60 -4 273 -12q63 -1 100 -3q88 -3 142 -6q74 -6 109 -11q56 -8 83 -17q30 -11 54 -27q23 -17 32 -40q9 -22 9 -55q0 -47 -35 -79q-36 -33 -105 -49q-74 -17 -156 -23q-80 -7 -207 -7z" />
    <glyph glyph-name="t" unicode="t" horiz-adv-x="692" 
d="M599 143l88 -101q-73 -55 -196 -55q-113 0 -187 48q-73 46 -73 127v187h-181v125h181v88l143 74v-162h280v-125h-280v-165q0 -32 33 -52q32 -20 84 -20q76 0 108 31z" />
    <glyph glyph-name="u" unicode="u" horiz-adv-x="1250" 
d="M1017 474h143v-474h-143v115q-77 -64 -207 -95q-130 -33 -285 -33q-131 0 -225 25q-97 26 -158 87q-62 62 -62 157v218h143v-210q0 -152 340 -152q77 0 159 11q81 11 145 31q68 20 109 56q41 35 41 81v183z" />
    <glyph glyph-name="v" unicode="v" horiz-adv-x="1184" 
d="M986 474h196l-488 -474h-205l-487 474h195l395 -381z" />
    <glyph glyph-name="w" unicode="w" horiz-adv-x="1845" 
d="M1662 474h183l-405 -474h-204l-313 382l-314 -382h-204l-405 474h183l324 -380l311 380h209l311 -380z" />
    <glyph glyph-name="x" unicode="x" horiz-adv-x="1246" 
d="M1249 0h-283l-343 174l-344 -174h-282l485 246l-450 228h282l309 -157l309 157h282l-450 -228z" />
    <glyph glyph-name="y" unicode="y" horiz-adv-x="1154" 
d="M963 474h189l-648 -659h-189l181 186l-494 473h196l394 -374z" />
    <glyph glyph-name="z" unicode="z" horiz-adv-x="1063" 
d="M1005 474v-125l-618 -224h617v-125h-946v125l619 224h-615v125h943z" />
    <glyph glyph-name="braceleft" unicode="{" horiz-adv-x="535" 
d="M484 -100q-168 0 -258 35q-88 34 -91 113q-1 40 36 101q36 60 36 81q0 54 -126 54v131q7 0 21.5 0.5t20.5 1.5q16 1 37 6q22 5 32 15t10 26q0 17 -32 66q-32 48 -33 93q-1 82 82 112q84 29 265 29v-127q-108 0 -157 -11q-47 -11 -47 -47q0 -23 41 -73q41 -52 41 -80
q0 -61 -95 -61v-27q37 -2 68 -24q32 -24 32 -60q0 -21 -14 -46q-12 -23 -31 -42q-16 -18 -30 -39q-14 -23 -14 -39q1 -37 49 -49q46 -13 157 -13v-126z" />
    <glyph glyph-name="bar" unicode="|" horiz-adv-x="358" 
d="M106 -142v832h146v-832h-146z" />
    <glyph glyph-name="braceright" unicode="}" horiz-adv-x="535" 
d="M51 -100v126q111 0 157 13q48 12 49 49q0 17 -13 39q-11 17 -31 39q-19 19 -31 42q-14 25 -14 46q0 36 32 60q31 22 68 24v27q-95 0 -95 61q0 28 41 80q41 50 41 73q0 37 -46 47q-49 11 -158 11v127q182 0 266 -29q82 -30 81 -112q-2 -45 -33 -93q-32 -49 -32 -66
q0 -15 11 -26t31 -15q21 -5 37 -6q6 -1 20.5 -1.5t21.5 -0.5v-131q-126 0 -126 -54q0 -22 37 -81q36 -62 35 -101q-3 -79 -91 -113q-90 -35 -258 -35z" />
    <glyph glyph-name="asciitilde" unicode="~" horiz-adv-x="826" 
d="M573 122q-40 0 -76 15q-35 14 -65 36q-38 28 -55 43q-24 20 -55 36q-30 15 -59 15q-32 0 -55 -16q-25 -16 -25 -41h-102q0 81 49 136q48 54 124 54q49 0 94 -22t75 -50q26 -25 68 -49q38 -23 73 -23q33 0 56 16q23 17 23 42h102q0 -82 -48 -137t-124 -55z" />
    <glyph glyph-name="uni00A0" unicode="&#xa0;" horiz-adv-x="513" 
 />
    <glyph glyph-name="exclamdown" unicode="&#xa1;" horiz-adv-x="400" 
d="M200 485q49 0 84 -20q34 -19 34 -54t-34 -54q-34 -21 -84 -21q-51 0 -84 21q-34 19 -34 54t34 54q34 20 84 20zM143 285h114l32 -475h-178z" />
    <glyph glyph-name="cent" unicode="&#xa2;" horiz-adv-x="1410" 
d="M1367 130q-94 -69 -260 -106q-164 -37 -344 -37q-48 0 -61 1l-36 -130h-150l39 143q-99 13 -191 41q-85 24 -159 67q-72 41 -111 98q-40 56 -40 126q0 81 59 149q58 67 156 109q102 42 219 64q122 23 254 24l25 92h150l-27 -97q143 -12 267 -47q120 -34 193 -92l-71 -123
q-116 114 -424 134l-118 -429h26q167 0 301 31q136 31 212 85zM206 333q0 -75 105 -130q105 -58 279 -77l116 422q-229 -8 -363 -68q-137 -62 -137 -147z" />
    <glyph glyph-name="sterling" unicode="&#xa3;" horiz-adv-x="1297" 
d="M397 128h845v-128h-1183v128h182q23 38 23 70q0 42 -32 85h-224v98h126q-47 50 -47 94q0 91 155 147q153 55 404 55q179 2 335 -36q157 -38 256 -107l-86 -104q-173 122 -504 120q-177 0 -274 -27q-98 -27 -100 -71q0 -22 45 -71h584v-98h-512q20 -43 20 -85
q0 -38 -13 -70z" />
    <glyph glyph-name="currency" unicode="&#xa4;" horiz-adv-x="1222" 
d="M1175 332q0 -83 -73 -144l73 -29l-41 -88l-135 55q-162 -68 -387 -68q-228 0 -388 69l-136 -56l-41 88l73 29q-73 61 -73 144q0 82 72 144l-72 29l41 88l136 -55q162 68 388 68q230 0 387 -68l135 55l41 -88l-72 -29q72 -62 72 -144zM196 332q0 -39 38 -69q37 -29 99 -46
q67 -18 133 -25q71 -9 146 -9q77 0 148 9q64 7 132 25q59 16 98 47q36 28 36 68q0 39 -36 69q-39 31 -98 47q-68 18 -132 25q-75 8 -148 8t-150 -8q-69 -9 -132 -26q-60 -16 -97 -47q-37 -30 -37 -68z" />
    <glyph glyph-name="yen" unicode="&#xa5;" horiz-adv-x="1614" 
d="M1599 664l-608 -389h287v-97h-398v-40h398v-97h-398v-41h-146v41h-398v97h398v40h-398v97h286l-607 389h242l550 -348l549 348h243z" />
    <glyph glyph-name="brokenbar" unicode="&#xa6;" horiz-adv-x="358" 
d="M106 360v330h146v-330h-146zM106 -142v330h146v-330h-146z" />
    <glyph glyph-name="section" unicode="&#xa7;" horiz-adv-x="1372" 
d="M1193 137q83 -44 83 -126q0 -107 -147 -152q-147 -46 -439 -46q-511 0 -587 166l129 71q0 -50 116 -80t335 -30q222 0 333 19q114 20 114 52q0 31 -105 48q-111 17 -366 29q-99 4 -187 11q-74 4 -148 15q-75 11 -118 24q-47 14 -81 34q-36 21 -51 50q-15 28 -15 66
q0 100 120 153q-83 42 -83 125q0 55 39 94q40 39 116 61t182 33q100 10 248 10q511 0 587 -166l-128 -71q0 50 -115 80t-336 30q-147 0 -248 -9q-102 -9 -150 -24q-49 -16 -49 -38q0 -32 106 -48q110 -17 364 -29q61 -2 187 -10q84 -7 149 -16q79 -11 118 -23q41 -12 81 -34
q34 -21 51 -50q15 -28 15 -67q0 -99 -120 -152zM205 293q0 -33 96 -49q88 -15 366 -29q87 -3 175 -10q115 5 186 16q77 12 107 28q32 17 32 35q0 32 -96 49q-88 15 -367 29q-77 3 -176 10q-112 -5 -185 -15q-76 -12 -106 -28q-32 -17 -32 -36z" />
    <glyph glyph-name="dieresis" unicode="&#xa8;" horiz-adv-x="680" 
d="M188 697q-50 0 -84 20q-34 19 -34 54q0 34 34 55q34 20 84 20q49 0 84 -20q34 -21 34 -55q0 -35 -34 -54q-35 -20 -84 -20zM492 697q-50 0 -84 20q-34 19 -34 54q0 34 34 55q34 20 84 20q49 0 84 -20q34 -21 34 -55q0 -35 -34 -54q-35 -20 -84 -20z" />
    <glyph glyph-name="copyright" unicode="&#xa9;" 
d="M760 -13q-126 0 -250 24q-124 22 -226 66q-104 44 -166 110q-64 67 -64 146q0 102 106 183q108 82 266 122q157 40 334 40q175 0 334 -40t266 -122q106 -81 106 -183q0 -79 -63 -146q-63 -66 -166 -110q-104 -44 -227 -66q-124 -24 -250 -24zM760 40q161 0 307 34
q148 33 248 102q101 68 101 157q0 87 -99 155q-101 69 -247 103t-310 34t-310 -34t-247 -103q-99 -68 -99 -155q0 -90 102 -157q100 -69 248 -102q145 -34 306 -34zM772 117q-115 0 -210 22q-100 23 -166 73q-68 50 -68 121q0 69 66 120q68 51 164 73q100 23 212 23
q111 0 214 -23q101 -24 156 -67l-46 -80q-37 46 -124 68t-200 22q-143 0 -245 -35q-100 -34 -100 -101q0 -66 101 -101q102 -35 246 -35q102 0 191 18q88 18 128 53l60 -61q-60 -45 -162 -67q-107 -23 -217 -23z" />
    <glyph glyph-name="ordfeminine" unicode="&#xaa;" horiz-adv-x="977" 
d="M778 669h109v-398h-109v84q-58 -43 -156 -69q-96 -25 -204 -25q-79 0 -141 13q-67 12 -118 37q-51 23 -82 65q-30 40 -30 94q0 102 104 156q104 53 267 53q104 0 202 -24q99 -26 158 -70v84zM440 356q130 0 235 32q103 31 103 82q0 35 -52 62q-53 26 -128 39
q-77 12 -158 12q-127 0 -202 -28q-77 -29 -77 -85q0 -57 79 -85q79 -29 200 -29z" />
    <glyph glyph-name="guillemotleft" unicode="&#xab;" horiz-adv-x="767" 
d="M290 -13l-250 250l250 250l104 -89l-166 -161l166 -160zM604 -13l-250 250l250 250l104 -89l-166 -161l166 -160z" />
    <glyph glyph-name="logicalnot" unicode="&#xac;" horiz-adv-x="693" 
d="M603 325v-325h-125l1 197h-398v128h522z" />
    <glyph glyph-name="uni00AD" unicode="&#xad;" horiz-adv-x="498" 
d="M81 196v130h336v-130h-336z" />
    <glyph glyph-name="registered" unicode="&#xae;" 
d="M760 -13q-126 0 -250 24q-124 22 -226 66q-104 44 -166 110q-64 67 -64 146q0 102 106 183q108 82 266 122q161 41 334 41q129 0 255 -24q131 -27 226 -68q101 -44 163 -110q62 -68 62 -144q0 -105 -109 -186t-267 -120q-157 -40 -330 -40zM760 40q160 0 306 34
q148 33 248 102q101 68 101 157q0 87 -99 156q-101 69 -247 103t-309 34q-164 0 -310 -34q-148 -34 -247 -103t-99 -156q0 -89 101 -157q101 -69 249 -102q145 -34 306 -34zM373 123v415q100 4 484 4q295 0 295 -139q0 -110 -215 -130l236 -150h-145l-224 145h-339v-145h-92
zM465 347h411q83 0 131 15q47 14 47 41t-47 44q-48 15 -131 15q-227 0 -411 -2v-113z" />
    <glyph glyph-name="macron" unicode="&#xaf;" horiz-adv-x="407" 
d="M0 711v115h407v-115h-407z" />
    <glyph glyph-name="degree" unicode="&#xb0;" horiz-adv-x="566" 
d="M283 247q-91 0 -155 63q-65 63 -65 152q0 87 65 152q64 63 155 63t155 -63q65 -65 65 -152q0 -89 -65 -152q-64 -63 -155 -63zM283 346q41 0 71 34t30 82t-30 82t-71 34t-71 -34t-30 -82t30 -82t71 -34z" />
    <glyph glyph-name="plusminus" unicode="&#xb1;" horiz-adv-x="638" 
d="M385 496h195v-128h-195v-169h-131v169h-196v128h196v168h131v-168zM58 0v128h522v-128h-522z" />
    <glyph glyph-name="uni00B2" unicode="&#xb2;" horiz-adv-x="1073" 
d="M1025 620q0 -74 -117 -130q-120 -57 -380 -106h481v-102h-908l-19 102q281 47 470 93q190 47 273 81q81 34 81 62q0 35 -100 65q-102 29 -246 29q-165 0 -280 -37q-118 -37 -118 -86q0 -13 12 -24q11 -12 40 -25l-56 -85q-115 48 -115 132q0 66 70 118q69 53 187 81
q116 28 260 28q198 0 332 -54q133 -54 133 -142z" />
    <glyph glyph-name="uni00B3" unicode="&#xb3;" horiz-adv-x="1122" 
d="M887 555q191 -39 191 -134q0 -54 -73 -88q-77 -36 -185 -49q-113 -15 -259 -15q-447 0 -517 147l113 37q19 -36 123 -59q100 -22 281 -22q164 0 282 20q114 20 114 47q0 28 -108 46q-113 17 -288 17h-123l-34 96h97q115 0 216 8q89 7 142 22q48 14 48 29t-42 29
q-44 13 -122 20q-74 7 -185 7q-336 0 -384 -70l-91 68q102 105 475 105q214 0 341 -34q128 -35 128 -111q0 -78 -140 -116z" />
    <glyph glyph-name="acute" unicode="&#xb4;" horiz-adv-x="143" 
d="M-1 711l144 145h217l-216 -145h-145z" />
    <glyph glyph-name="uni00B5" unicode="&#xb5;" horiz-adv-x="1249" 
d="M1017 474h143v-474h-143v115q-77 -64 -207 -95q-130 -33 -285 -33q-191 0 -302 55v-214h-143v646h143v-210q0 -152 340 -152q77 0 159 11q81 11 145 31q68 20 109 56q41 35 41 81v183z" />
    <glyph glyph-name="paragraph" unicode="&#xb6;" horiz-adv-x="701" 
d="M292 677q43 0 73 -13h50v-664h-50v283q-35 -13 -73 -13q-84 0 -142 60q-60 58 -60 142q0 85 60 145q58 60 142 60zM477 664h118v-664h-118v664z" />
    <glyph glyph-name="periodcentered" unicode="&#xb7;" horiz-adv-x="396" 
d="M198 211q-50 0 -84 20q-34 19 -34 54q0 34 34 55q34 20 84 20q49 0 84 -20q34 -21 34 -55q0 -35 -34 -54q-35 -20 -84 -20z" />
    <glyph glyph-name="cedilla" unicode="&#xb8;" horiz-adv-x="501" 
d="M40 -183l-34 68q251 0 251 20t-153 20l56 75h92l-34 -33q132 0 195 -16q63 -17 63 -54q0 -80 -436 -80z" />
    <glyph glyph-name="uni00B9" unicode="&#xb9;" horiz-adv-x="1015" 
d="M607 380h384v-102h-851l-27 102h379v225q-126 -138 -397 -176l-53 110q188 12 307 82q120 69 143 179h115v-420z" />
    <glyph glyph-name="ordmasculine" unicode="&#xba;" horiz-adv-x="955" 
d="M478 261q-80 0 -151 13q-73 12 -138 36q-64 24 -103 66q-39 40 -39 94q0 68 66 117q64 48 161 71q94 21 204 21q79 0 154 -12q77 -14 137 -37q64 -26 101 -66q38 -43 38 -94q0 -52 -38 -93t-101 -65q-58 -24 -137 -38q-72 -13 -154 -13zM478 356q77 0 149 11
q67 10 118 38q49 25 49 65q0 56 -93 85q-93 28 -223 28t-223 -28q-94 -28 -94 -85q0 -40 51 -66q48 -26 119 -37t147 -11z" />
    <glyph glyph-name="guillemotright" unicode="&#xbb;" horiz-adv-x="767" 
d="M163 -13l-104 90l166 160l-166 161l104 89l250 -250zM477 -13l-104 90l166 160l-166 161l104 89l250 -250z" />
    <glyph glyph-name="onequarter" unicode="&#xbc;" horiz-adv-x="2628" 
d="M991 244v-102h-851l-27 102h379v225q-126 -138 -397 -176l-53 110q188 12 307 82q120 69 143 179h115v-420h384zM1483 664h134l-518 -664h-134zM2601 182v-103h-286v-79h-116v79h-696v103q180 4 324 117q143 112 142 247l105 -56q-2 -93 -67 -172q-69 -81 -177 -136h369
v199h116v-199h286z" />
    <glyph glyph-name="onehalf" unicode="&#xbd;" horiz-adv-x="2640" 
d="M991 244v-102h-851l-27 102h379v225q-126 -138 -397 -176l-53 110q188 12 307 82q120 69 143 179h115v-420h384zM1483 664h134l-518 -664h-134zM2592 339q0 -75 -117 -130q-120 -57 -380 -106h481v-102h-908l-19 102q281 47 470 93q191 46 273 81q81 34 81 62
q0 35 -100 65q-102 29 -246 29q-165 0 -280 -37q-118 -37 -118 -86q0 -14 12 -24q11 -12 40 -25l-56 -85q-115 48 -115 132q0 66 70 118q69 53 187 81q116 28 260 28q199 0 332 -54t133 -142z" />
    <glyph glyph-name="threequarters" unicode="&#xbe;" horiz-adv-x="2735" 
d="M887 418q191 -39 191 -134q0 -54 -73 -88q-77 -36 -185 -49q-112 -15 -259 -15q-447 0 -517 147l113 37q19 -36 123 -59q100 -22 281 -22q164 0 282 20q114 19 114 47t-108 46q-113 17 -288 17h-123l-34 96h97q115 0 216 8q89 7 142 22q48 13 48 29t-42 29
q-44 13 -122 20q-74 7 -185 7q-336 0 -384 -70l-91 68q102 105 475 105q214 0 341 -34q128 -35 128 -111q0 -78 -140 -116zM1590 664h134l-518 -664h-134zM2708 182v-103h-286v-79h-116v79h-696v103q180 4 324 117q143 112 142 247l105 -56q-2 -93 -67 -172
q-69 -81 -177 -136h369v199h116v-199h286z" />
    <glyph glyph-name="questiondown" unicode="&#xbf;" horiz-adv-x="774" 
d="M574 485q50 0 85 -20q33 -19 33 -54t-33 -54q-35 -21 -85 -21t-84 21q-34 19 -34 54t34 54q35 20 84 20zM184 9q0 -21 60 -38q58 -18 169 -27q105 -9 239 -4l10 -130q-312 0 -471 44t-159 137q0 86 124 138q123 52 353 66l7 90h113l14 -196q-192 -2 -325 -24
q-134 -23 -134 -56z" />
    <glyph glyph-name="Agrave" unicode="&#xc0;" horiz-adv-x="1472" 
d="M809 711h-145l-216 145h217zM1277 0l-119 124h-843l-119 -124h-189l639 664h181l638 -664h-188zM441 254h591l-295 307z" />
    <glyph glyph-name="Aacute" unicode="&#xc1;" horiz-adv-x="1472" 
d="M1025 856l-216 -145h-145l144 145h217zM1277 0l-119 124h-843l-119 -124h-189l639 664h181l638 -664h-188zM441 254h591l-295 307z" />
    <glyph glyph-name="Acircumflex" unicode="&#xc2;" horiz-adv-x="1472" 
d="M736 797l-85 -86h-206l216 145h151l215 -145h-206zM1277 0l-119 124h-843l-119 -124h-189l639 664h181l638 -664h-188zM441 254h591l-295 307z" />
    <glyph glyph-name="Atilde" unicode="&#xc3;" horiz-adv-x="1472" 
d="M636 772q-22 13 -27 -22q-2 -20 -2 -39h-152q0 70 44 111t132 41q26 0 50 -3q21 -4 37 -6q14 -2 35 -12q20 -10 26 -12q1 -1 5 -3t10.5 -6.5t13.5 -8.5q6 -4 13 -8.5t10 -6.5t4 -2q22 -13 27 25q2 18 2 36h154q0 -68 -47 -110t-131 -42q-34 0 -59 3q-26 3 -47 12
q-20 7 -33 14q-5 2 -33 19q-8 5 -18.5 11.5t-13.5 8.5zM1277 0l-119 124h-843l-119 -124h-189l639 664h181l638 -664h-188zM441 254h591l-295 307z" />
    <glyph glyph-name="Adieresis" unicode="&#xc4;" horiz-adv-x="1472" 
d="M574 697q-50 0 -84 20q-34 19 -34 54q0 34 34 55q34 20 84 20q49 0 84 -20q34 -21 34 -55q0 -35 -34 -54q-35 -20 -84 -20zM878 697q-50 0 -84 20q-34 19 -34 54q0 34 34 55q34 20 84 20q49 0 84 -20q34 -21 34 -55q0 -35 -34 -54q-35 -20 -84 -20zM1277 0l-119 124h-843
l-119 -124h-189l639 664h181l638 -664h-188zM441 254h591l-295 307z" />
    <glyph glyph-name="Aring" unicode="&#xc5;" horiz-adv-x="1472" 
d="M736 708q-107 0 -185 22q-80 23 -80 54q0 30 80 53q78 22 185 22q109 0 187 -22q78 -23 78 -53q0 -32 -78 -54t-187 -22zM736 823q-34 0 -58 -12t-24 -26q0 -16 24 -28q22 -13 58 -13q38 0 60 12q23 12 23 29q0 14 -23 26q-24 12 -60 12zM1277 0l-119 124h-843l-119 -124
h-189l639 664h181l638 -664h-188zM441 254h591l-295 307z" />
    <glyph glyph-name="AE" unicode="&#xc6;" horiz-adv-x="2462" 
d="M2397 534h-1449l120 -125h1208v-130h-1083l143 -149h1061v-130h-1124l-119 124h-843l-119 -124h-189l639 664h1755v-130zM437 254h591l-295 307z" />
    <glyph glyph-name="Ccedilla" unicode="&#xc7;" horiz-adv-x="1410" 
d="M755 -33q132 0 195 -16q63 -17 63 -54q0 -80 -436 -80l-34 68q251 0 251 20t-153 20l48 64q-120 4 -234 29q-108 23 -202 65q-89 40 -145 106q-54 65 -54 144q0 85 61 152q59 66 161 109q100 40 226 63q122 22 259 22q182 0 340 -37q160 -37 249 -107l-71 -123
q-67 68 -207 102q-142 35 -311 35q-247 0 -401 -62q-154 -61 -154 -154t156 -154q157 -62 401 -62q167 0 301 31q136 31 212 85l91 -103q-92 -68 -254 -104q-164 -38 -337 -39z" />
    <glyph glyph-name="Egrave" unicode="&#xc8;" horiz-adv-x="1295" 
d="M741 711h-145l-216 145h217zM1230 534h-978v-125h857v-130h-857v-149h978v-130h-1124v664h1124v-130z" />
    <glyph glyph-name="Eacute" unicode="&#xc9;" horiz-adv-x="1295" 
d="M957 856l-216 -145h-145l144 145h217zM1230 534h-978v-125h857v-130h-857v-149h978v-130h-1124v664h1124v-130z" />
    <glyph glyph-name="Ecircumflex" unicode="&#xca;" horiz-adv-x="1295" 
d="M668 797l-85 -86h-206l216 145h151l215 -145h-206zM1230 534h-978v-125h857v-130h-857v-149h978v-130h-1124v664h1124v-130z" />
    <glyph glyph-name="Edieresis" unicode="&#xcb;" horiz-adv-x="1295" 
d="M506 697q-50 0 -84 20q-34 19 -34 54q0 34 34 55q34 20 84 20q49 0 84 -20q34 -21 34 -55q0 -35 -34 -54q-35 -20 -84 -20zM810 697q-50 0 -84 20q-34 19 -34 54q0 34 34 55q34 20 84 20q49 0 84 -20q34 -21 34 -55q0 -35 -34 -54q-35 -20 -84 -20zM1230 534h-978v-125
h857v-130h-857v-149h978v-130h-1124v664h1124v-130z" />
    <glyph glyph-name="Igrave" unicode="&#xcc;" horiz-adv-x="358" 
d="M252 711h-145l-216 145h217zM106 0v664h146v-664h-146z" />
    <glyph glyph-name="Iacute" unicode="&#xcd;" horiz-adv-x="358" 
d="M107 711l144 145h217l-216 -145h-145zM106 0v664h146v-664h-146z" />
    <glyph glyph-name="Icircumflex" unicode="&#xce;" horiz-adv-x="358" 
d="M255 856l215 -145h-206l-85 86l-85 -86h-206l216 145h151zM106 0v664h146v-664h-146z" />
    <glyph glyph-name="Idieresis" unicode="&#xcf;" horiz-adv-x="358" 
d="M17 697q-50 0 -84 20q-34 19 -34 54q0 34 34 55q34 20 84 20q49 0 84 -20q34 -21 34 -55q0 -35 -34 -54q-35 -20 -84 -20zM321 697q-50 0 -84 20q-34 19 -34 54q0 34 34 55q34 20 84 20q49 0 84 -20q34 -21 34 -55q0 -35 -34 -54q-35 -20 -84 -20zM106 0v664h146v-664
h-146z" />
    <glyph glyph-name="Eth" unicode="&#xd0;" horiz-adv-x="1468" 
d="M630 670q784 0 784 -337q0 -339 -784 -339q-136 0 -310 2q-171 2 -172 2l-42 2v297h-106v97h106v270q121 6 524 6zM630 124q325 0 479 53q152 53 152 156q0 207 -631 207q-160 0 -378 -2v-144h247v-97h-247v-171q218 -2 378 -2z" />
    <glyph glyph-name="Ntilde" unicode="&#xd1;" horiz-adv-x="1456" 
d="M628 772q-22 13 -27 -22q-2 -20 -2 -39h-152q0 70 44 111t132 41q26 0 50 -3q21 -4 37 -6q14 -2 35 -12q20 -10 26 -12q1 -1 5 -3t10.5 -6.5t13.5 -8.5q6 -4 13 -8.5t10 -6.5t4 -2q22 -13 27 25q2 18 2 36h154q0 -68 -47 -110t-131 -42q-34 0 -59 3q-26 3 -47 12
q-20 7 -33 14q-5 2 -33 19q-8 5 -18.5 11.5t-13.5 8.5zM1204 664h146v-664h-174l-924 525v-525h-146v664h174l924 -526v526z" />
    <glyph glyph-name="Ograve" unicode="&#xd2;" 
d="M833 711h-145l-216 145h217zM760 -13q-132 0 -255 21q-121 21 -225 62q-101 39 -164 109q-62 68 -62 154q0 85 61 152q59 66 161 109q100 40 225 63q122 22 259 22q138 0 260 -22q124 -23 225 -63q100 -42 161 -109q60 -67 60 -152q0 -87 -61 -154q-63 -69 -164 -109
q-106 -42 -226 -62q-123 -21 -255 -21zM760 117q105 0 201 12q98 12 176 37q83 26 129 68q48 44 48 99q0 54 -47 98q-47 42 -127 68q-74 24 -176 38q-98 12 -204 12q-107 0 -203 -12q-101 -14 -176 -38q-80 -26 -127 -68q-48 -43 -48 -98t48 -99q47 -42 130 -68
q78 -25 176 -37q95 -12 200 -12z" />
    <glyph glyph-name="Oacute" unicode="&#xd3;" 
d="M688 711l144 145h217l-216 -145h-145zM760 -13q-132 0 -255 21q-121 21 -225 62q-101 39 -164 109q-62 68 -62 154q0 85 61 152q59 66 161 109q100 40 225 63q122 22 259 22q138 0 260 -22q124 -23 225 -63q100 -42 161 -109q60 -67 60 -152q0 -87 -61 -154
q-63 -69 -164 -109q-106 -42 -226 -62q-123 -21 -255 -21zM760 117q105 0 201 12q98 12 176 37q83 26 129 68q48 44 48 99q0 54 -47 98q-47 42 -127 68q-74 24 -176 38q-98 12 -204 12q-107 0 -203 -12q-101 -14 -176 -38q-80 -26 -127 -68q-48 -43 -48 -98t48 -99
q47 -42 130 -68q78 -25 176 -37q95 -12 200 -12z" />
    <glyph glyph-name="Ocircumflex" unicode="&#xd4;" 
d="M760 797l-85 -86h-206l216 145h151l215 -145h-206zM760 679q138 0 260 -22q124 -23 225 -63q100 -42 161 -109q60 -67 60 -152q0 -87 -61 -154q-63 -69 -164 -109q-106 -42 -226 -62q-123 -21 -255 -21t-255 21q-121 21 -225 62q-101 39 -164 109q-62 68 -62 154
q0 85 61 152q59 66 161 109q100 40 225 63q122 22 259 22zM760 117q105 0 201 12q98 12 176 37q83 26 129 68q48 44 48 99q0 54 -47 98q-47 42 -127 68q-74 24 -176 38q-98 12 -204 12q-107 0 -203 -12q-101 -14 -176 -38q-80 -26 -127 -68q-48 -43 -48 -98t48 -99
q47 -42 130 -68q78 -25 176 -37q95 -12 200 -12z" />
    <glyph glyph-name="Otilde" unicode="&#xd5;" 
d="M864 704q-34 0 -59 3q-26 3 -47 12q-20 7 -33 14q-5 2 -33 19q-8 5 -18.5 11.5t-13.5 8.5q-22 13 -27 -22q-2 -20 -2 -39h-152q0 70 44 111t132 41q26 0 50 -3q21 -4 37 -6q14 -2 35 -12q20 -10 26 -12q1 -1 5 -3t10.5 -6.5t13.5 -8.5q6 -4 13 -8.5t10 -6.5t4 -2
q22 -13 27 25q2 18 2 36h154q0 -68 -47 -110t-131 -42zM760 -13q-132 0 -255 21q-121 21 -225 62q-101 39 -164 109q-62 68 -62 154q0 85 61 152q59 66 161 109q100 40 225 63q122 22 259 22q138 0 260 -22q124 -23 225 -63q100 -42 161 -109q60 -67 60 -152q0 -87 -61 -154
q-63 -69 -164 -109q-106 -42 -226 -62q-123 -21 -255 -21zM760 117q105 0 201 12q98 12 176 37q83 26 129 68q48 44 48 99q0 54 -47 98q-47 42 -127 68q-74 24 -176 38q-98 12 -204 12q-107 0 -203 -12q-101 -14 -176 -38q-80 -26 -127 -68q-48 -43 -48 -98t48 -99
q47 -42 130 -68q78 -25 176 -37q95 -12 200 -12z" />
    <glyph glyph-name="Odieresis" unicode="&#xd6;" 
d="M598 697q-50 0 -84 20q-34 19 -34 54q0 34 34 55q34 20 84 20q49 0 84 -20q34 -21 34 -55q0 -35 -34 -54q-35 -20 -84 -20zM902 697q-50 0 -84 20q-34 19 -34 54q0 34 34 55q34 20 84 20q49 0 84 -20q34 -21 34 -55q0 -35 -34 -54q-35 -20 -84 -20zM760 -13
q-132 0 -255 21q-121 21 -225 62q-101 39 -164 109q-62 68 -62 154q0 85 61 152q59 66 161 109q100 40 225 63q122 22 259 22q138 0 260 -22q124 -23 225 -63q100 -42 161 -109q60 -67 60 -152q0 -87 -61 -154q-63 -69 -164 -109q-106 -42 -226 -62q-123 -21 -255 -21z
M760 117q105 0 201 12q98 12 176 37q83 26 129 68q48 44 48 99q0 54 -47 98q-47 42 -127 68q-74 24 -176 38q-98 12 -204 12q-107 0 -203 -12q-101 -14 -176 -38q-80 -26 -127 -68q-48 -43 -48 -98t48 -99q47 -42 130 -68q78 -25 176 -37q95 -12 200 -12z" />
    <glyph glyph-name="multiply" unicode="&#xd7;" horiz-adv-x="705" 
d="M615 397l-167 -164l167 -164l-103 -90l-159 155l-160 -155l-103 90l168 164l-168 164l103 90l160 -155l159 155z" />
    <glyph glyph-name="Oslash" unicode="&#xd8;" 
d="M1355 530q111 -84 111 -197q0 -87 -61 -154q-63 -69 -164 -109q-106 -42 -226 -62q-123 -21 -255 -21q-293 0 -490 88l-175 -74l-41 88l110 46q-110 84 -110 198q0 85 61 152q59 66 161 109q100 40 225 63q122 22 259 22q293 0 490 -88l176 74l40 -88zM206 333
q0 -82 104 -136l763 320q-137 32 -313 32q-107 0 -203 -12q-101 -14 -176 -38q-80 -26 -127 -68q-48 -43 -48 -98zM760 117q105 0 201 12q98 12 176 37q83 26 129 68q48 44 48 99q0 83 -105 136l-762 -320q139 -32 313 -32z" />
    <glyph glyph-name="Ugrave" unicode="&#xd9;" horiz-adv-x="1432" 
d="M789 711h-145l-216 145h217zM716 -13q-178 0 -318 39q-137 38 -224 122q-86 83 -86 201v315h146v-289q0 -123 129 -190q130 -68 353 -68t353 68q129 68 129 190v289h146v-315q0 -119 -85 -201q-86 -83 -225 -122q-140 -39 -318 -39z" />
    <glyph glyph-name="Uacute" unicode="&#xda;" horiz-adv-x="1432" 
d="M644 711l144 145h217l-216 -145h-145zM716 -13q-178 0 -318 39q-137 38 -224 122q-86 83 -86 201v315h146v-289q0 -123 129 -190q130 -68 353 -68t353 68q129 68 129 190v289h146v-315q0 -119 -85 -201q-86 -83 -225 -122q-140 -39 -318 -39z" />
    <glyph glyph-name="Ucircumflex" unicode="&#xdb;" horiz-adv-x="1432" 
d="M716 797l-85 -86h-206l216 145h151l215 -145h-206zM1198 664h146v-315q0 -119 -85 -201q-86 -83 -225 -122q-140 -39 -318 -39t-318 39q-137 38 -224 122q-86 83 -86 201v315h146v-289q0 -123 129 -190q130 -68 353 -68t353 68q129 68 129 190v289z" />
    <glyph glyph-name="Udieresis" unicode="&#xdc;" horiz-adv-x="1432" 
d="M554 697q-50 0 -84 20q-34 19 -34 54q0 34 34 55q34 20 84 20q49 0 84 -20q34 -21 34 -55q0 -35 -34 -54q-35 -20 -84 -20zM858 697q-50 0 -84 20q-34 19 -34 54q0 34 34 55q34 20 84 20q49 0 84 -20q34 -21 34 -55q0 -35 -34 -54q-35 -20 -84 -20zM716 -13
q-178 0 -318 39q-137 38 -224 122q-86 83 -86 201v315h146v-289q0 -123 129 -190q130 -68 353 -68t353 68q129 68 129 190v289h146v-315q0 -119 -85 -201q-86 -83 -225 -122q-140 -39 -318 -39z" />
    <glyph glyph-name="Yacute" unicode="&#xdd;" horiz-adv-x="1614" 
d="M1096 856l-216 -145h-145l144 145h217zM1599 664l-719 -460v-204h-146v203l-719 461h242l550 -348l549 348h243z" />
    <glyph glyph-name="Thorn" unicode="&#xde;" horiz-adv-x="1396" 
d="M934 535q215 0 315 -52t100 -170q0 -111 -101 -164q-103 -53 -314 -53h-682v-96h-146v664h146v-133q229 4 682 4zM955 226q137 0 189 21q53 20 53 66q0 48 -52 70q-51 22 -190 22q-472 0 -703 -4v-175h703z" />
    <glyph glyph-name="germandbls" unicode="&#xdf;" horiz-adv-x="1326" 
d="M1006 349q273 -54 273 -171q0 -50 -51 -87q-53 -38 -140 -60q-95 -24 -197 -34q-115 -11 -233 -11q-126 0 -177 3l-98 134q137 -11 275 -11q189 0 332 23q138 23 138 56q0 37 -137 64q-141 26 -342 26h-161v121h84q137 0 257 14q115 13 175 33q59 20 59 39q0 28 -101 48
q-101 18 -265 18q-81 0 -166 -8q-78 -9 -148 -26q-69 -18 -109 -48q-41 -30 -41 -68v-404h-143v403q0 67 53 122q52 53 142 87q94 34 194 49q108 17 218 17q111 0 197 -10q91 -11 164 -30q73 -21 115 -57q41 -38 41 -86q0 -94 -208 -146z" />
    <glyph glyph-name="agrave" unicode="&#xe0;" horiz-adv-x="1237" 
d="M631 519h-145l-216 145h217zM1004 474h143v-474h-143v88q-74 -50 -194 -75q-124 -26 -261 -26q-138 0 -245 25q-111 26 -183 83q-74 59 -74 142q0 81 71 140t181 84q113 26 250 26q141 0 260 -25q123 -26 195 -76v88zM600 112q183 0 294 33q110 33 110 92t-109 92
t-295 33q-184 0 -294 -33t-110 -92t111 -92t293 -33z" />
    <glyph glyph-name="aacute" unicode="&#xe1;" horiz-adv-x="1237" 
d="M848 664l-216 -145h-145l144 145h217zM1004 474h143v-474h-143v88q-74 -50 -194 -75q-124 -26 -261 -26q-138 0 -245 25q-111 26 -183 83q-74 59 -74 142q0 81 71 140t181 84q113 26 250 26q141 0 260 -25q123 -26 195 -76v88zM600 112q183 0 294 33q110 33 110 92
t-109 92t-295 33q-184 0 -294 -33t-110 -92t111 -92t293 -33z" />
    <glyph glyph-name="acircumflex" unicode="&#xe2;" horiz-adv-x="1237" 
d="M559 605l-85 -86h-206l216 145h151l215 -145h-206zM1004 474h143v-474h-143v88q-74 -50 -194 -75q-124 -26 -261 -26q-138 0 -245 25q-111 26 -183 83q-74 59 -74 142q0 81 71 140t181 84q113 26 250 26q141 0 260 -25q123 -26 195 -76v88zM600 112q183 0 294 33
q110 33 110 92t-109 92t-295 33q-184 0 -294 -33t-110 -92t111 -92t293 -33z" />
    <glyph glyph-name="atilde" unicode="&#xe3;" horiz-adv-x="1237" 
d="M459 580q-22 13 -27 -22l-2 -39h-152q0 70 44 111t132 41q26 0 50 -3q21 -4 37 -6q14 -2 35 -12q20 -10 26 -12q1 -1 5 -3t10.5 -6.5t13.5 -8.5q6 -4 13 -8.5t10 -6.5t4 -2q22 -13 27 25q2 18 2 36h154q0 -68 -47 -110q-46 -42 -131 -42q-33 0 -59 3t-47 12q-20 7 -33 14
q-5 2 -33 19q-8 5 -18.5 11.5t-13.5 8.5zM1004 474h143v-474h-143v88q-74 -50 -194 -75q-124 -26 -261 -26q-138 0 -245 25q-111 26 -183 83q-74 59 -74 142q0 81 71 140t181 84q113 26 250 26q141 0 260 -25q123 -26 195 -76v88zM600 112q183 0 294 33q110 33 110 92
t-109 92t-295 33q-184 0 -294 -33t-110 -92t111 -92t293 -33z" />
    <glyph glyph-name="adieresis" unicode="&#xe4;" horiz-adv-x="1237" 
d="M407 514q-50 0 -84 20q-34 19 -34 54q0 34 34 55q34 20 84 20q49 0 84 -20q34 -21 34 -55q0 -35 -34 -54q-35 -20 -84 -20zM711 514q-50 0 -84 20q-34 19 -34 54q0 34 34 55q34 20 84 20q49 0 84 -20q34 -21 34 -55q0 -35 -34 -54q-35 -20 -84 -20zM1004 474h143v-474
h-143v88q-74 -50 -194 -75q-124 -26 -261 -26q-138 0 -245 25q-111 26 -183 83q-74 59 -74 142q0 81 71 140t181 84q113 26 250 26q141 0 260 -25q123 -26 195 -76v88zM600 112q183 0 294 33q110 33 110 92t-109 92t-295 33q-184 0 -294 -33t-110 -92t111 -92t293 -33z" />
    <glyph glyph-name="aring" unicode="&#xe5;" horiz-adv-x="1237" 
d="M559 517q-107 0 -185 22q-80 23 -80 54q0 30 80 53q78 22 185 22q109 0 187 -22t78 -53t-78 -54q-78 -22 -187 -22zM559 632q-35 0 -58 -12q-24 -12 -24 -26q0 -16 24 -28q22 -13 58 -13q37 0 60 12t23 29q0 14 -23 26q-24 12 -60 12zM1004 474h143v-474h-143v88
q-74 -50 -194 -75q-124 -26 -261 -26q-138 0 -245 25q-111 26 -183 83q-74 59 -74 142q0 81 71 140t181 84q113 26 250 26q141 0 260 -25q123 -26 195 -76v88zM600 112q183 0 294 33q110 33 110 92t-109 92t-295 33q-184 0 -294 -33t-110 -92t111 -92t293 -33z" />
    <glyph glyph-name="ae" unicode="&#xe6;" horiz-adv-x="2222" 
d="M1611 487q100 0 207 -17q103 -18 193 -51q91 -35 135 -92q45 -59 21 -132h-951q41 -42 151 -65q110 -24 244 -24q249 0 365 57l98 -89q-84 -42 -207 -64q-129 -23 -256 -23q-135 0 -259 25q-128 26 -205 74v-86h-143v88q-74 -50 -194 -75q-124 -26 -261 -26
q-138 0 -245 25q-111 26 -183 83q-74 59 -74 142q0 81 71 140t181 84q113 26 250 26q141 0 260 -25q123 -26 195 -76v88h143v-87q79 49 204 75q122 25 260 25zM2000 285q-44 38 -151 61q-104 22 -238 22q-135 0 -239 -22q-109 -23 -151 -61h779zM600 112q183 0 294 33
q110 33 110 92t-109 92t-295 33q-184 0 -294 -33t-110 -92t111 -92t293 -33z" />
    <glyph glyph-name="ccedilla" unicode="&#xe7;" horiz-adv-x="1110" 
d="M1075 87q-149 -92 -422 -99l-21 -21q132 0 195 -16q63 -17 63 -54q0 -80 -436 -80l-34 68q251 0 251 20t-153 20l47 63q-94 3 -186 20q-90 16 -165 45q-75 28 -121 77q-46 47 -46 107q0 61 50 111q49 49 131 79q83 29 181 45q97 15 203 15q134 0 264 -26q124 -27 205 -77
l-79 -106q-39 40 -149 63q-111 21 -241 21q-165 0 -291 -32q-125 -33 -125 -93q0 -61 127 -92q126 -33 289 -33q114 0 211 16q102 17 154 47z" />
    <glyph glyph-name="egrave" unicode="&#xe8;" horiz-adv-x="1223" 
d="M684 519h-145l-216 145h217zM612 487q100 0 207 -17q103 -18 193 -51q91 -35 135 -92q45 -59 21 -132h-951q41 -42 151 -65q109 -24 244 -24q250 0 365 57l98 -89q-84 -42 -207 -64q-129 -23 -256 -23q-101 0 -199 15q-95 15 -180 44q-82 28 -135 79q-51 49 -51 112
q0 61 50 111q49 49 131 79q83 29 181 45q97 15 203 15zM1001 285q-44 38 -151 61q-104 22 -238 22q-135 0 -239 -22q-109 -23 -151 -61h779z" />
    <glyph glyph-name="eacute" unicode="&#xe9;" horiz-adv-x="1223" 
d="M901 664l-216 -145h-145l144 145h217zM612 487q100 0 207 -17q103 -18 193 -51q91 -35 135 -92q45 -59 21 -132h-951q41 -42 151 -65q109 -24 244 -24q250 0 365 57l98 -89q-84 -42 -207 -64q-129 -23 -256 -23q-101 0 -199 15q-95 15 -180 44q-82 28 -135 79
q-51 49 -51 112q0 61 50 111q49 49 131 79q83 29 181 45q97 15 203 15zM1001 285q-44 38 -151 61q-104 22 -238 22q-135 0 -239 -22q-109 -23 -151 -61h779z" />
    <glyph glyph-name="ecircumflex" unicode="&#xea;" horiz-adv-x="1223" 
d="M612 605l-85 -86h-206l216 145h151l215 -145h-206zM612 487q100 0 207 -17q103 -18 193 -51q91 -35 135 -92q45 -59 21 -132h-951q41 -42 151 -65q109 -24 244 -24q250 0 365 57l98 -89q-84 -42 -207 -64q-129 -23 -256 -23q-101 0 -199 15q-95 15 -180 44
q-82 28 -135 79q-51 49 -51 112q0 61 50 111q49 49 131 79q83 29 181 45q97 15 203 15zM1001 285q-44 38 -151 61q-104 22 -238 22q-135 0 -239 -22q-109 -23 -151 -61h779z" />
    <glyph glyph-name="edieresis" unicode="&#xeb;" horiz-adv-x="1223" 
d="M460 514q-50 0 -84 20q-34 19 -34 54q0 34 34 55q34 20 84 20q49 0 84 -20q34 -21 34 -55q0 -35 -34 -54q-35 -20 -84 -20zM764 514q-50 0 -84 20q-34 19 -34 54q0 34 34 55q34 20 84 20q49 0 84 -20q34 -21 34 -55q0 -35 -34 -54q-35 -20 -84 -20zM612 487
q100 0 207 -17q103 -18 193 -51q91 -35 135 -92q45 -59 21 -132h-951q41 -42 151 -65q109 -24 244 -24q250 0 365 57l98 -89q-84 -42 -207 -64q-129 -23 -256 -23q-101 0 -199 15q-95 15 -180 44q-82 28 -135 79q-51 49 -51 112q0 61 50 111q49 49 131 79q83 29 181 45
q97 15 203 15zM1001 285q-44 38 -151 61q-104 22 -238 22q-135 0 -239 -22q-109 -23 -151 -61h779z" />
    <glyph glyph-name="igrave" unicode="&#xec;" horiz-adv-x="323" 
d="M233 519h-145l-216 145h217zM90 0v474h143v-474h-143z" />
    <glyph glyph-name="iacute" unicode="&#xed;" horiz-adv-x="323" 
d="M89 519l144 145h217l-216 -145h-145zM90 0v474h143v-474h-143z" />
    <glyph glyph-name="icircumflex" unicode="&#xee;" horiz-adv-x="323" 
d="M237 664l215 -145h-206l-85 86l-85 -86h-206l216 145h151zM90 0v474h143v-474h-143z" />
    <glyph glyph-name="idieresis" unicode="&#xef;" horiz-adv-x="323" 
d="M9 514q-50 0 -84 20q-34 19 -34 54q0 34 34 55q34 20 84 20q49 0 84 -20q34 -21 34 -55q0 -35 -34 -54q-35 -20 -84 -20zM313 514q-50 0 -84 20q-34 19 -34 54q0 34 34 55q34 20 84 20q49 0 84 -20q34 -21 34 -55q0 -35 -34 -54q-35 -20 -84 -20zM90 0v474h143v-474h-143
z" />
    <glyph glyph-name="eth" unicode="&#xf0;" horiz-adv-x="1222" 
d="M702 631q218 -60 345 -159q128 -101 128 -235q0 -81 -87 -140t-211 -84q-127 -26 -265 -26q-101 0 -199 15q-95 15 -180 44q-82 28 -135 79q-51 49 -51 112q0 61 50 111q49 49 131 79q83 29 181 45q97 15 203 15q158 0 294 -33q-158 83 -418 126l-417 -99l-24 95l146 35
q-72 3 -146 3v97q222 0 432 -33l283 67l277 -34zM612 112q163 0 289 33q125 32 125 92q0 41 -64 71q-65 29 -155 42q-91 12 -195 12q-165 0 -291 -32q-125 -33 -125 -93q0 -61 127 -92q126 -33 289 -33z" />
    <glyph glyph-name="ntilde" unicode="&#xf1;" horiz-adv-x="1250" 
d="M625 590q-22 13 -27 -22q-2 -20 -2 -39h-152q0 70 44 111t132 41q26 0 50 -3q21 -4 37 -6q14 -2 35 -12q20 -10 26 -12q1 -1 5 -3t10.5 -6.5t13.5 -8.5q6 -4 13 -8.5t10 -6.5t4 -2q22 -13 27 25q2 18 2 36h154q0 -68 -47 -110q-46 -42 -131 -42q-33 0 -59 3t-47 12
q-20 7 -33 14q-5 2 -33 19q-8 5 -18.5 11.5t-13.5 8.5zM713 487q127 0 230 -27t165 -82q63 -56 63 -132v-246h-143v205q0 79 -89 118q-90 39 -252 39q-75 0 -154 -14q-76 -13 -145 -41q-69 -27 -112 -73t-43 -105v-129h-143v474h143v-136q77 74 204 111q129 38 276 38z" />
    <glyph glyph-name="ograve" unicode="&#xf2;" horiz-adv-x="1222" 
d="M683 519h-145l-216 145h217zM612 -13q-101 0 -199 15q-95 15 -180 44q-82 28 -135 79q-51 49 -51 112q0 61 50 111q49 49 131 79q83 29 181 45q97 15 203 15q104 0 201 -15q95 -15 180 -44q83 -30 132 -79q50 -50 50 -112q0 -81 -87 -140t-211 -84q-127 -26 -265 -26z
M612 112q163 0 289 33q125 32 125 92q0 41 -64 71q-65 29 -155 42q-91 12 -195 12q-165 0 -291 -32q-125 -33 -125 -93q0 -61 127 -92q126 -33 289 -33z" />
    <glyph glyph-name="oacute" unicode="&#xf3;" horiz-adv-x="1222" 
d="M539 519l144 145h217l-216 -145h-145zM612 -13q-101 0 -199 15q-95 15 -180 44q-82 28 -135 79q-51 49 -51 112q0 61 50 111q49 49 131 79q83 29 181 45q97 15 203 15q104 0 201 -15q95 -15 180 -44q83 -30 132 -79q50 -50 50 -112q0 -81 -87 -140t-211 -84
q-127 -26 -265 -26zM612 112q163 0 289 33q125 32 125 92q0 41 -64 71q-65 29 -155 42q-91 12 -195 12q-165 0 -291 -32q-125 -33 -125 -93q0 -61 127 -92q126 -33 289 -33z" />
    <glyph glyph-name="ocircumflex" unicode="&#xf4;" horiz-adv-x="1222" 
d="M611 605l-85 -86h-206l216 145h151l215 -145h-206zM612 487q104 0 201 -15q95 -15 180 -44q83 -30 132 -79q50 -50 50 -112q0 -81 -87 -140t-211 -84q-127 -26 -265 -26q-101 0 -199 15q-95 15 -180 44q-82 28 -135 79q-51 49 -51 112q0 61 50 111q49 49 131 79
q83 29 181 45q97 15 203 15zM612 112q163 0 289 33q125 32 125 92q0 41 -64 71q-65 29 -155 42q-91 12 -195 12q-165 0 -291 -32q-125 -33 -125 -93q0 -61 127 -92q126 -33 289 -33z" />
    <glyph glyph-name="otilde" unicode="&#xf5;" horiz-adv-x="1222" 
d="M715 512q-33 0 -59 3t-47 12q-20 7 -33 14q-5 2 -33 19q-8 5 -18.5 11.5t-13.5 8.5q-22 13 -27 -22l-2 -39h-152q0 70 44 111t132 41q26 0 50 -3q21 -4 37 -6q14 -2 35 -12q20 -10 26 -12q1 -1 5 -3t10.5 -6.5t13.5 -8.5q6 -4 13 -8.5t10 -6.5t4 -2q22 -13 27 25
q2 18 2 36h154q0 -68 -47 -110q-46 -42 -131 -42zM612 -13q-101 0 -199 15q-95 15 -180 44q-82 28 -135 79q-51 49 -51 112q0 61 50 111q49 49 131 79q83 29 181 45q97 15 203 15q104 0 201 -15q95 -15 180 -44q83 -30 132 -79q50 -50 50 -112q0 -81 -87 -140t-211 -84
q-127 -26 -265 -26zM612 112q163 0 289 33q125 32 125 92q0 41 -64 71q-65 29 -155 42q-91 12 -195 12q-165 0 -291 -32q-125 -33 -125 -93q0 -61 127 -92q126 -33 289 -33z" />
    <glyph glyph-name="odieresis" unicode="&#xf6;" horiz-adv-x="1222" 
d="M459 514q-50 0 -84 20q-34 19 -34 54q0 34 34 55q34 20 84 20q49 0 84 -20q34 -21 34 -55q0 -35 -34 -54q-35 -20 -84 -20zM763 514q-50 0 -84 20q-34 19 -34 54q0 34 34 55q34 20 84 20q49 0 84 -20q34 -21 34 -55q0 -35 -34 -54q-35 -20 -84 -20zM612 -13
q-101 0 -199 15q-95 15 -180 44q-82 28 -135 79q-51 49 -51 112q0 61 50 111q49 49 131 79q83 29 181 45q97 15 203 15q104 0 201 -15q95 -15 180 -44q83 -30 132 -79q50 -50 50 -112q0 -81 -87 -140t-211 -84q-127 -26 -265 -26zM612 112q163 0 289 33q125 32 125 92
q0 41 -64 71q-65 29 -155 42q-91 12 -195 12q-165 0 -291 -32q-125 -33 -125 -93q0 -61 127 -92q126 -33 289 -33z" />
    <glyph glyph-name="divide" unicode="&#xf7;" horiz-adv-x="684" 
d="M342 328q-51 0 -84 21q-34 19 -34 54t34 54q34 20 84 20q49 0 84 -20q34 -19 34 -54t-34 -54q-34 -21 -84 -21zM81 196v73h522v-73h-522zM342 -11q-50 0 -84 20q-34 19 -34 54q0 34 34 55q34 20 84 20q49 0 84 -20q34 -21 34 -55q0 -35 -34 -54q-35 -20 -84 -20z" />
    <glyph glyph-name="oslash" unicode="&#xf8;" horiz-adv-x="1222" 
d="M1101 370q74 -59 74 -133q0 -81 -87 -140t-211 -84q-127 -26 -265 -26q-204 0 -360 52l-167 -65l-39 88l87 34q-86 60 -86 141q0 61 50 111q49 49 131 79q83 29 181 45q97 15 203 15q223 0 376 -58l148 58l40 -88zM196 237q0 -48 90 -81l502 195q-80 11 -176 11
q-165 0 -291 -32q-125 -33 -125 -93zM612 112q163 0 289 33q125 32 125 92q0 44 -73 75l-493 -192q85 -8 152 -8z" />
    <glyph glyph-name="ugrave" unicode="&#xf9;" horiz-adv-x="1250" 
d="M691 519h-145l-216 145h217zM1017 474h143v-474h-143v115q-77 -64 -207 -95q-130 -33 -285 -33q-131 0 -225 25q-97 26 -158 87q-62 62 -62 157v218h143v-210q0 -152 340 -152q77 0 159 11q81 11 145 31q68 20 109 56q41 35 41 81v183z" />
    <glyph glyph-name="uacute" unicode="&#xfa;" horiz-adv-x="1250" 
d="M908 664l-216 -145h-145l144 145h217zM1017 474h143v-474h-143v115q-77 -64 -207 -95q-130 -33 -285 -33q-131 0 -225 25q-97 26 -158 87q-62 62 -62 157v218h143v-210q0 -152 340 -152q77 0 159 11q81 11 145 31q68 20 109 56q41 35 41 81v183z" />
    <glyph glyph-name="ucircumflex" unicode="&#xfb;" horiz-adv-x="1250" 
d="M619 605l-85 -86h-206l216 145h151l215 -145h-206zM1017 474h143v-474h-143v115q-77 -64 -207 -95q-130 -33 -285 -33q-131 0 -225 25q-97 26 -158 87q-62 62 -62 157v218h143v-210q0 -152 340 -152q77 0 159 11q81 11 145 31q68 20 109 56q41 35 41 81v183z" />
    <glyph glyph-name="udieresis" unicode="&#xfc;" horiz-adv-x="1250" 
d="M467 514q-50 0 -84 20q-34 19 -34 54q0 34 34 55q34 20 84 20q49 0 84 -20q34 -21 34 -55q0 -35 -34 -54q-35 -20 -84 -20zM771 514q-50 0 -84 20q-34 19 -34 54q0 34 34 55q34 20 84 20q49 0 84 -20q34 -21 34 -55q0 -35 -34 -54q-35 -20 -84 -20zM1017 474h143v-474
h-143v115q-77 -64 -207 -95q-130 -33 -285 -33q-131 0 -225 25q-97 26 -158 87q-62 62 -62 157v218h143v-210q0 -152 340 -152q77 0 159 11q81 11 145 31q68 20 109 56q41 35 41 81v183z" />
    <glyph glyph-name="yacute" unicode="&#xfd;" horiz-adv-x="1154" 
d="M866 664l-216 -145h-145l144 145h217zM963 474h189l-648 -659h-189l181 186l-494 473h196l394 -374z" />
    <glyph glyph-name="thorn" unicode="&#xfe;" horiz-adv-x="1237" 
d="M688 487q137 0 250 -26q112 -26 182 -84t70 -140q0 -84 -73 -142q-71 -57 -184 -83q-107 -25 -245 -25q-137 0 -261 26q-120 25 -194 75v-273h-143v849h143v-278q72 50 196 76q119 25 259 25zM637 112q182 0 293 33t111 92t-109 92q-110 33 -295 33t-295 -33
q-109 -33 -109 -92t111 -92q110 -33 293 -33z" />
    <glyph glyph-name="ydieresis" unicode="&#xff;" horiz-adv-x="1154" 
d="M425 514q-50 0 -84 20q-34 19 -34 54q0 34 34 55q34 20 84 20q49 0 84 -20q34 -21 34 -55q0 -35 -34 -54q-35 -20 -84 -20zM729 514q-50 0 -84 20q-34 19 -34 54q0 34 34 55q34 20 84 20q49 0 84 -20q34 -21 34 -55q0 -35 -34 -54q-35 -20 -84 -20zM963 474h189
l-648 -659h-189l181 186l-494 473h196l394 -374z" />
    <glyph glyph-name="Amacron" unicode="&#x100;" horiz-adv-x="1472" 
d="M939 826v-115h-407v115h407zM1277 0l-119 124h-843l-119 -124h-189l639 664h181l638 -664h-188zM441 254h591l-295 307z" />
    <glyph glyph-name="amacron" unicode="&#x101;" horiz-adv-x="1237" 
d="M762 634v-115h-407v115h407zM1004 474h143v-474h-143v88q-74 -50 -194 -75q-124 -26 -261 -26q-138 0 -245 25q-111 26 -183 83q-74 59 -74 142q0 81 71 140t181 84q113 26 250 26q141 0 260 -25q123 -26 195 -76v88zM600 112q183 0 294 33q110 33 110 92t-109 92
t-295 33q-184 0 -294 -33t-110 -92t111 -92t293 -33z" />
    <glyph glyph-name="Abreve" unicode="&#x102;" horiz-adv-x="1472" 
d="M735 705q-120 0 -203 43q-85 43 -85 108h177q0 -34 34 -55q33 -21 77 -21q43 0 78 21q34 21 34 55h176q0 -64 -84 -108q-85 -43 -204 -43zM1277 0l-119 124h-843l-119 -124h-189l639 664h181l638 -664h-188zM441 254h591l-295 307z" />
    <glyph glyph-name="abreve" unicode="&#x103;" horiz-adv-x="1237" 
d="M558 513q-120 0 -203 43q-85 43 -85 108h177q0 -34 34 -55q33 -21 77 -21t78 21t34 55h176q0 -64 -84 -108q-85 -43 -204 -43zM1004 474h143v-474h-143v88q-74 -50 -194 -75q-124 -26 -261 -26q-138 0 -245 25q-111 26 -183 83q-74 59 -74 142q0 81 71 140t181 84
q113 26 250 26q141 0 260 -25q123 -26 195 -76v88zM600 112q183 0 294 33q110 33 110 92t-109 92t-295 33q-184 0 -294 -33t-110 -92t111 -92t293 -33z" />
    <glyph glyph-name="Aogonek" unicode="&#x104;" horiz-adv-x="1472" 
d="M1464 0q-76 -11 -125 -34q-51 -24 -51 -53q0 -23 37 -30q40 -8 139 -8l-24 -58q-191 0 -285 17q-93 16 -93 57q0 74 206 119l-110 114h-843l-119 -124h-189l639 664h181l638 -664h-1zM441 254h591l-295 307z" />
    <glyph glyph-name="aogonek" unicode="&#x105;" horiz-adv-x="1237" 
d="M1147 0q-76 -11 -125 -34q-51 -24 -51 -53q0 -23 37 -30q40 -8 139 -8l-24 -58q-191 0 -285 17q-93 16 -93 57q0 81 259 127v70q-74 -50 -194 -75q-124 -26 -261 -26q-138 0 -245 25q-111 26 -183 83q-74 59 -74 142q0 81 71 140t181 84q113 26 250 26q141 0 260 -25
q123 -26 195 -76v88h143v-474zM600 112q183 0 294 33q110 33 110 92t-109 92t-295 33q-184 0 -294 -33t-110 -92t111 -92t293 -33z" />
    <glyph glyph-name="Cacute" unicode="&#x106;" horiz-adv-x="1410" 
d="M689 711l144 145h217l-216 -145h-145zM763 -13q-132 0 -255 21q-120 20 -227 62q-102 40 -165 109q-62 68 -62 154q0 85 61 152q59 66 161 109q100 40 226 63q122 22 259 22q182 0 340 -37q160 -37 249 -107l-71 -123q-67 68 -207 102q-142 35 -311 35q-247 0 -401 -62
q-154 -61 -154 -154t156 -154q157 -62 401 -62q167 0 301 31q136 31 212 85l91 -103q-94 -69 -260 -106q-164 -37 -344 -37z" />
    <glyph glyph-name="cacute" unicode="&#x107;" horiz-adv-x="1110" 
d="M540 519l144 145h217l-216 -145h-145zM612 -13q-101 0 -199 15q-95 15 -180 44q-82 28 -135 79q-51 49 -51 112q0 61 50 111q49 49 131 79q83 29 181 45q97 15 203 15q134 0 264 -26q124 -27 205 -77l-79 -106q-39 40 -149 63q-111 21 -241 21q-165 0 -291 -32
q-125 -33 -125 -93q0 -61 127 -92q126 -33 289 -33q114 0 211 16q102 17 154 47l98 -88q-77 -48 -204 -74t-259 -26z" />
    <glyph glyph-name="Ccircumflex" unicode="&#x108;" horiz-adv-x="1410" 
d="M761 797l-85 -86h-206l216 145h151l215 -145h-206zM1276 233l91 -103q-94 -69 -260 -106q-164 -37 -344 -37q-132 0 -255 21q-120 20 -227 62q-102 40 -165 109q-62 68 -62 154q0 85 61 152q59 66 161 109q100 40 226 63q122 22 259 22q182 0 340 -37q160 -37 249 -107
l-71 -123q-67 68 -207 102q-142 35 -311 35q-247 0 -401 -62q-154 -61 -154 -154t156 -154q157 -62 401 -62q167 0 301 31q136 31 212 85z" />
    <glyph glyph-name="ccircumflex" unicode="&#x109;" horiz-adv-x="1110" 
d="M612 605l-85 -86h-206l216 145h151l215 -145h-206zM612 112q114 0 211 16q102 17 154 47l98 -88q-77 -48 -204 -74t-259 -26q-101 0 -199 15q-95 15 -180 44q-82 28 -135 79q-51 49 -51 112q0 61 50 111q49 49 131 79q83 29 181 45q97 15 203 15q134 0 264 -26
q124 -27 205 -77l-79 -106q-39 40 -149 63q-111 21 -241 21q-165 0 -291 -32q-125 -33 -125 -93q0 -61 127 -92q126 -33 289 -33z" />
    <glyph glyph-name="Cdotaccent" unicode="&#x10a;" horiz-adv-x="1410" 
d="M761 697q-50 0 -84 20q-34 19 -34 54q0 34 34 55q34 20 84 20q49 0 84 -20q34 -21 34 -55q0 -35 -34 -54q-35 -20 -84 -20zM763 -13q-132 0 -255 21q-120 20 -227 62q-102 40 -165 109q-62 68 -62 154q0 85 61 152q59 66 161 109q100 40 226 63q122 22 259 22
q182 0 340 -37q160 -37 249 -107l-71 -123q-67 68 -207 102q-142 35 -311 35q-247 0 -401 -62q-154 -61 -154 -154t156 -154q157 -62 401 -62q167 0 301 31q136 31 212 85l91 -103q-94 -69 -260 -106q-164 -37 -344 -37z" />
    <glyph glyph-name="cdotaccent" unicode="&#x10b;" horiz-adv-x="1110" 
d="M612 514q-50 0 -84 20q-34 19 -34 54q0 34 34 55q34 20 84 20q49 0 84 -20q34 -21 34 -55q0 -35 -34 -54q-35 -20 -84 -20zM612 -13q-101 0 -199 15q-95 15 -180 44q-82 28 -135 79q-51 49 -51 112q0 61 50 111q49 49 131 79q83 29 181 45q97 15 203 15q134 0 264 -26
q124 -27 205 -77l-79 -106q-39 40 -149 63q-111 21 -241 21q-165 0 -291 -32q-125 -33 -125 -93q0 -61 127 -92q126 -33 289 -33q114 0 211 16q102 17 154 47l98 -88q-77 -48 -204 -74t-259 -26z" />
    <glyph glyph-name="Ccaron" unicode="&#x10c;" horiz-adv-x="1410" 
d="M836 701h-151l-216 145h206l85 -86l85 86h206zM1276 233l91 -103q-94 -69 -260 -106q-164 -37 -344 -37q-132 0 -255 21q-120 20 -227 62q-102 40 -165 109q-62 68 -62 154q0 85 61 152q59 66 161 109q100 40 226 63q122 22 259 22q182 0 340 -37q160 -37 249 -107
l-71 -123q-67 68 -207 102q-142 35 -311 35q-247 0 -401 -62q-154 -61 -154 -154t156 -154q157 -62 401 -62q167 0 301 31q136 31 212 85z" />
    <glyph glyph-name="ccaron" unicode="&#x10d;" horiz-adv-x="1110" 
d="M689 519h-151l-216 145h206l85 -86l85 86h206zM612 112q114 0 211 16q102 17 154 47l98 -88q-77 -48 -204 -74t-259 -26q-101 0 -199 15q-95 15 -180 44q-82 28 -135 79q-51 49 -51 112q0 61 50 111q49 49 131 79q83 29 181 45q97 15 203 15q134 0 264 -26
q124 -27 205 -77l-79 -106q-39 40 -149 63q-111 21 -241 21q-165 0 -291 -32q-125 -33 -125 -93q0 -61 127 -92q126 -33 289 -33z" />
    <glyph glyph-name="Dcaron" unicode="&#x10e;" horiz-adv-x="1468" 
d="M705 701h-151l-216 145h206l85 -86l85 86h206zM630 670q784 0 784 -337q0 -339 -784 -339q-136 0 -310 2q-171 2 -172 2l-42 2v664q121 6 524 6zM630 124q325 0 479 53q152 53 152 156q0 207 -631 207q-160 0 -378 -2v-412q218 -2 378 -2z" />
    <glyph glyph-name="dcaron" unicode="&#x10f;" horiz-adv-x="1590" 
d="M1414 677q51 0 85 -23q33 -24 33 -68q0 -70 -63 -110q-64 -41 -169 -41v53q99 0 152 44q-53 -12 -105 8q-51 20 -51 62q0 34 34 55q34 20 84 20zM1004 386v278h143v-664h-143v88q-74 -50 -194 -75q-124 -26 -261 -26q-138 0 -245 25q-111 26 -183 83q-74 59 -74 142
q0 81 71 140t181 84q113 26 250 26q141 0 260 -25q123 -26 195 -76zM600 112q183 0 294 33q110 33 110 92t-109 92t-295 33q-184 0 -294 -33t-110 -92t111 -92t293 -33z" />
    <glyph glyph-name="Dcroat" unicode="&#x110;" horiz-adv-x="1468" 
d="M630 670q784 0 784 -337q0 -339 -784 -339q-136 0 -310 2q-171 2 -172 2l-42 2v297h-106v97h106v270q121 6 524 6zM630 124q325 0 479 53q152 53 152 156q0 207 -631 207q-160 0 -378 -2v-144h247v-97h-247v-171q218 -2 378 -2z" />
    <glyph glyph-name="dcroat" unicode="&#x111;" horiz-adv-x="1237" 
d="M1237 625v-97h-90v-528h-143v88q-74 -50 -194 -75q-124 -26 -261 -26q-138 0 -245 25q-111 26 -183 83q-74 59 -74 142q0 81 71 140t181 84q113 26 250 26q141 0 260 -25q123 -26 195 -76v142h-266v97h266v39h143v-39h90zM600 112q183 0 294 33q110 33 110 92t-109 92
t-295 33q-184 0 -294 -33t-110 -92t111 -92t293 -33z" />
    <glyph glyph-name="Emacron" unicode="&#x112;" horiz-adv-x="1295" 
d="M871 826v-115h-407v115h407zM1230 534h-978v-125h857v-130h-857v-149h978v-130h-1124v664h1124v-130z" />
    <glyph glyph-name="emacron" unicode="&#x113;" horiz-adv-x="1223" 
d="M815 634v-115h-407v115h407zM612 487q100 0 207 -17q103 -18 193 -51q91 -35 135 -92q45 -59 21 -132h-951q41 -42 151 -65q109 -24 244 -24q250 0 365 57l98 -89q-84 -42 -207 -64q-129 -23 -256 -23q-101 0 -199 15q-95 15 -180 44q-82 28 -135 79q-51 49 -51 112
q0 61 50 111q49 49 131 79q83 29 181 45q97 15 203 15zM1001 285q-44 38 -151 61q-104 22 -238 22q-135 0 -239 -22q-109 -23 -151 -61h779z" />
    <glyph glyph-name="Ebreve" unicode="&#x114;" horiz-adv-x="1295" 
d="M667 705q-120 0 -203 43q-85 43 -85 108h177q0 -34 34 -55q33 -21 77 -21q43 0 78 21q34 21 34 55h176q0 -64 -84 -108q-85 -43 -204 -43zM1230 534h-978v-125h857v-130h-857v-149h978v-130h-1124v664h1124v-130z" />
    <glyph glyph-name="ebreve" unicode="&#x115;" horiz-adv-x="1223" 
d="M611 513q-120 0 -203 43q-85 43 -85 108h177q0 -34 34 -55q33 -21 77 -21q43 0 78 21q34 21 34 55h176q0 -64 -84 -108q-85 -43 -204 -43zM612 487q100 0 207 -17q103 -18 193 -51q91 -35 135 -92q45 -59 21 -132h-951q41 -42 151 -65q109 -24 244 -24q250 0 365 57
l98 -89q-84 -42 -207 -64q-129 -23 -256 -23q-101 0 -199 15q-95 15 -180 44q-82 28 -135 79q-51 49 -51 112q0 61 50 111q49 49 131 79q83 29 181 45q97 15 203 15zM1001 285q-44 38 -151 61q-104 22 -238 22q-135 0 -239 -22q-109 -23 -151 -61h779z" />
    <glyph glyph-name="Edotaccent" unicode="&#x116;" horiz-adv-x="1295" 
d="M668 697q-50 0 -84 20q-34 19 -34 54q0 34 34 55q34 20 84 20q49 0 84 -20q34 -21 34 -55q0 -35 -34 -54q-35 -20 -84 -20zM1230 534h-978v-125h857v-130h-857v-149h978v-130h-1124v664h1124v-130z" />
    <glyph glyph-name="edotaccent" unicode="&#x117;" horiz-adv-x="1223" 
d="M612 514q-50 0 -84 20q-34 19 -34 54q0 34 34 55q34 20 84 20q49 0 84 -20q34 -21 34 -55q0 -35 -34 -54q-35 -20 -84 -20zM612 487q100 0 207 -17q103 -18 193 -51q91 -35 135 -92q45 -59 21 -132h-951q41 -42 151 -65q109 -24 244 -24q250 0 365 57l98 -89
q-84 -42 -207 -64q-129 -23 -256 -23q-101 0 -199 15q-95 15 -180 44q-82 28 -135 79q-51 49 -51 112q0 61 50 111q49 49 131 79q83 29 181 45q97 15 203 15zM1001 285q-44 38 -151 61q-104 22 -238 22q-135 0 -239 -22q-109 -23 -151 -61h779z" />
    <glyph glyph-name="Eogonek" unicode="&#x118;" horiz-adv-x="1295" 
d="M1093 -87q0 -23 37 -30q40 -8 139 -8l-24 -58q-191 0 -285 17q-93 16 -93 57q0 35 46 63q44 26 118 46h-925v664h1124v-130h-978v-125h857v-130h-857v-149h978v-130q-48 -11 -94 -35q-43 -24 -43 -52z" />
    <glyph glyph-name="eogonek" unicode="&#x119;" horiz-adv-x="1221" 
d="M612 487q100 0 207 -17q103 -18 193 -51q91 -35 135 -92q45 -59 21 -132h-951q41 -42 151 -65q109 -24 244 -24q250 0 365 57l98 -89q-113 -58 -310 -79q-67 -13 -107 -34q-40 -22 -40 -48q0 -23 37 -30q40 -8 139 -8l-24 -58q-190 0 -286 17q-93 16 -93 57q0 59 130 99
q-125 9 -228 36q-104 27 -174 82q-72 56 -72 129q0 61 50 111q49 49 131 79q83 29 181 45q97 15 203 15zM1001 285q-44 38 -151 61q-104 22 -238 22q-135 0 -239 -22q-109 -23 -151 -61h779z" />
    <glyph glyph-name="Ecaron" unicode="&#x11a;" horiz-adv-x="1295" 
d="M743 701h-151l-216 145h206l85 -86l85 86h206zM1230 534h-978v-125h857v-130h-857v-149h978v-130h-1124v664h1124v-130z" />
    <glyph glyph-name="ecaron" unicode="&#x11b;" horiz-adv-x="1223" 
d="M689 519h-151l-216 145h206l85 -86l85 86h206zM612 487q100 0 207 -17q103 -18 193 -51q91 -35 135 -92q45 -59 21 -132h-951q41 -42 151 -65q109 -24 244 -24q250 0 365 57l98 -89q-84 -42 -207 -64q-129 -23 -256 -23q-101 0 -199 15q-95 15 -180 44q-82 28 -135 79
q-51 49 -51 112q0 61 50 111q49 49 131 79q83 29 181 45q97 15 203 15zM1001 285q-44 38 -151 61q-104 22 -238 22q-135 0 -239 -22q-109 -23 -151 -61h779z" />
    <glyph glyph-name="Gcircumflex" unicode="&#x11c;" horiz-adv-x="1518" 
d="M760 797l-85 -86h-206l216 145h151l215 -145h-206zM606 375h822v-375h-146v142q-202 -155 -545 -155q-125 0 -244 21q-117 21 -218 62q-98 40 -160 109q-61 67 -61 154q0 85 61 152q59 66 161 109q100 40 226 63q122 22 259 22q182 0 340 -37q160 -37 249 -107l-71 -123
q-67 68 -207 102q-142 35 -311 35q-247 0 -401 -62q-154 -61 -154 -154q0 -56 47 -100q46 -43 125 -67q76 -25 169 -37q91 -12 190 -12q168 0 306 35q135 34 213 92h-650v131z" />
    <glyph glyph-name="gcircumflex" unicode="&#x11d;" horiz-adv-x="1238" 
d="M549 605l-85 -86h-206l216 145h151l215 -145h-206zM1005 474h143v-394q0 -75 -49 -130q-50 -56 -133 -87q-87 -32 -184 -47q-97 -16 -217 -16q-119 0 -256 20t-218 70l94 92q55 -33 166 -48q106 -16 218 -16q88 0 161 10q78 9 139 28q61 20 99 51q37 31 37 73v9
q-73 -51 -194 -76q-124 -26 -262 -26t-245 25q-111 26 -183 83q-74 59 -74 142q0 81 71 140t181 84q113 26 250 26q142 0 261 -25q123 -26 195 -76v88zM600 112q183 0 294 33q110 33 110 92t-109 92t-295 33q-184 0 -294 -33t-110 -92t111 -92t293 -33z" />
    <glyph glyph-name="Gbreve" unicode="&#x11e;" horiz-adv-x="1518" 
d="M759 705q-120 0 -203 43q-85 43 -85 108h177q0 -34 34 -55q33 -21 77 -21q43 0 78 21q34 21 34 55h176q0 -64 -84 -108q-85 -43 -204 -43zM606 375h822v-375h-146v142q-202 -155 -545 -155q-125 0 -244 21q-117 21 -218 62q-98 40 -160 109q-61 67 -61 154q0 85 61 152
q59 66 161 109q100 40 226 63q122 22 259 22q182 0 340 -37q160 -37 249 -107l-71 -123q-67 68 -207 102q-142 35 -311 35q-247 0 -401 -62q-154 -61 -154 -154q0 -56 47 -100q46 -43 125 -67q76 -25 169 -37q91 -12 190 -12q168 0 306 35q135 34 213 92h-650v131z" />
    <glyph glyph-name="gbreve" unicode="&#x11f;" horiz-adv-x="1238" 
d="M548 513q-120 0 -203 43q-85 43 -85 108h177q0 -34 34 -55q33 -21 77 -21t78 21t34 55h176q0 -64 -84 -108q-85 -43 -204 -43zM1005 474h143v-394q0 -75 -49 -130q-50 -56 -133 -87q-87 -32 -184 -47q-97 -16 -217 -16q-119 0 -256 20t-218 70l94 92q55 -33 166 -48
q106 -16 218 -16q88 0 161 10q78 9 139 28q61 20 99 51q37 31 37 73v9q-73 -51 -194 -76q-124 -26 -262 -26t-245 25q-111 26 -183 83q-74 59 -74 142q0 81 71 140t181 84q113 26 250 26q142 0 261 -25q123 -26 195 -76v88zM600 112q183 0 294 33q110 33 110 92t-109 92
t-295 33q-184 0 -294 -33t-110 -92t111 -92t293 -33z" />
    <glyph glyph-name="Gdotaccent" unicode="&#x120;" horiz-adv-x="1518" 
d="M760 697q-50 0 -84 20q-34 19 -34 54q0 34 34 55q34 20 84 20q49 0 84 -20q34 -21 34 -55q0 -35 -34 -54q-35 -20 -84 -20zM606 375h822v-375h-146v142q-202 -155 -545 -155q-125 0 -244 21q-117 21 -218 62q-98 40 -160 109q-61 67 -61 154q0 85 61 152q59 66 161 109
q100 40 226 63q122 22 259 22q182 0 340 -37q160 -37 249 -107l-71 -123q-67 68 -207 102q-142 35 -311 35q-247 0 -401 -62q-154 -61 -154 -154q0 -56 47 -100q46 -43 125 -67q76 -25 169 -37q91 -12 190 -12q168 0 306 35q135 34 213 92h-650v131z" />
    <glyph glyph-name="gdotaccent" unicode="&#x121;" horiz-adv-x="1238" 
d="M549 514q-50 0 -84 20q-34 19 -34 54q0 34 34 55q34 20 84 20q49 0 84 -20q34 -21 34 -55q0 -35 -34 -54q-35 -20 -84 -20zM1005 474h143v-394q0 -75 -49 -130q-50 -56 -133 -87q-87 -32 -184 -47q-97 -16 -217 -16q-119 0 -256 20t-218 70l94 92q55 -33 166 -48
q106 -16 218 -16q88 0 161 10q78 9 139 28q61 20 99 51q37 31 37 73v9q-73 -51 -194 -76q-124 -26 -262 -26t-245 25q-111 26 -183 83q-74 59 -74 142q0 81 71 140t181 84q113 26 250 26q142 0 261 -25q123 -26 195 -76v88zM600 112q183 0 294 33q110 33 110 92t-109 92
t-295 33q-184 0 -294 -33t-110 -92t111 -92t293 -33z" />
    <glyph glyph-name="Gcommaaccent" unicode="&#x122;" horiz-adv-x="1518" 
d="M606 375h822v-375h-146v142q-202 -155 -545 -155q-125 0 -244 21q-117 21 -218 62q-98 40 -160 109q-61 67 -61 154q0 85 61 152q59 66 161 109q100 40 226 63q122 22 259 22q182 0 340 -37q160 -37 249 -107l-71 -123q-67 68 -207 102q-142 35 -311 35q-247 0 -401 -62
q-154 -61 -154 -154q0 -56 47 -100q46 -43 125 -67q76 -25 169 -37q91 -12 190 -12q168 0 306 35q135 34 213 92h-650v131zM737 -30q51 0 85 -23q33 -24 33 -68q0 -69 -63 -110q-64 -41 -169 -41v53q99 0 152 44q-53 -12 -105 8q-51 19 -51 62q0 34 34 55q34 20 84 20z" />
    <glyph glyph-name="gcommaaccent" unicode="&#x123;" horiz-adv-x="1238" 
d="M554 513q-52 0 -85 24q-33 23 -33 67q0 70 63 110q64 41 169 41v-53q-99 0 -152 -44q55 12 105 -7q51 -19 51 -63q0 -34 -33 -54q-35 -21 -85 -21zM1005 474h143v-394q0 -75 -49 -130q-50 -56 -133 -87q-87 -32 -184 -47q-97 -16 -217 -16q-119 0 -256 20t-218 70l94 92
q55 -33 166 -48q106 -16 218 -16q88 0 161 10q78 9 139 28q61 20 99 51q37 31 37 73v9q-73 -51 -194 -76q-124 -26 -262 -26t-245 25q-111 26 -183 83q-74 59 -74 142q0 81 71 140t181 84q113 26 250 26q142 0 261 -25q123 -26 195 -76v88zM600 112q183 0 294 33
q110 33 110 92t-109 92t-295 33q-184 0 -294 -33t-110 -92t111 -92t293 -33z" />
    <glyph glyph-name="Hcircumflex" unicode="&#x124;" horiz-adv-x="1434" 
d="M717 797l-85 -86h-206l216 145h151l215 -145h-206zM1182 664h146v-664h-146v279h-930v-279h-146v664h146v-255h930v255z" />
    <glyph glyph-name="hcircumflex" unicode="&#x125;" horiz-adv-x="1250" 
d="M246 711l-85 86l-85 -86h-206l216 145h151l215 -145h-206zM713 487q127 0 230 -27t165 -82q63 -56 63 -132v-246h-143v205q0 79 -89 118q-90 39 -252 39q-75 0 -154 -14q-76 -13 -145 -41q-69 -27 -112 -73t-43 -105v-129h-143v664h143v-326q77 74 204 111q129 38 276 38
z" />
    <glyph glyph-name="Hbar" unicode="&#x126;" horiz-adv-x="1433" 
d="M1433 570v-96h-105v-474h-146v279h-930v-279h-146v474h-106v96h106v94h146v-94h930v94h146v-94h105zM1182 409v65h-930v-65h930z" />
    <glyph glyph-name="hbar" unicode="&#x127;" horiz-adv-x="1250" 
d="M713 487q127 0 230 -27t165 -82q63 -56 63 -132v-246h-143v205q0 79 -89 118q-90 39 -252 39q-75 0 -154 -14q-76 -13 -145 -41q-69 -27 -112 -73t-43 -105v-129h-143v528h-90v97h90v39h143v-39h266v-97h-266v-190q77 74 204 111q129 38 276 38z" />
    <glyph glyph-name="Itilde" unicode="&#x128;" horiz-adv-x="358" 
d="M283 704q-33 0 -59 3t-47 12q-20 7 -33 14q-5 2 -33 19q-8 5 -18.5 11.5t-13.5 8.5q-22 13 -27 -22q-2 -20 -2 -39h-152q0 70 44 111t132 41q26 0 50 -3q21 -4 37 -6q14 -2 35 -12q20 -10 26 -12q1 -1 5 -3t10.5 -6.5t13.5 -8.5q6 -4 13 -8.5t10 -6.5t4 -2q22 -13 27 25
q2 18 2 36h154q0 -68 -47 -110q-46 -42 -131 -42zM106 0v664h146v-664h-146z" />
    <glyph glyph-name="itilde" unicode="&#x129;" horiz-adv-x="323" 
d="M265 512q-33 0 -59 3t-47 12q-20 7 -33 14q-5 2 -33 19q-8 5 -18.5 11.5t-13.5 8.5q-22 13 -27 -22q-2 -20 -2 -39h-152q0 70 44 111t132 41q26 0 50 -3q21 -4 37 -6q14 -2 35 -12q20 -10 26 -12q1 -1 5 -3t10.5 -6.5t13.5 -8.5q6 -4 13 -8.5t10 -6.5t4 -2q22 -13 27 25
q2 18 2 36h154q0 -68 -47 -110q-46 -42 -131 -42zM90 0v474h143v-474h-143z" />
    <glyph glyph-name="Imacron" unicode="&#x12a;" horiz-adv-x="358" 
d="M-25 711v115h407v-115h-407zM106 0v664h146v-664h-146z" />
    <glyph glyph-name="imacron" unicode="&#x12b;" horiz-adv-x="323" 
d="M-43 519v115h407v-115h-407zM90 0v474h143v-474h-143z" />
    <glyph glyph-name="Ibreve" unicode="&#x12c;" horiz-adv-x="358" 
d="M178 705q-120 0 -203 43q-85 43 -85 108h177q0 -34 34 -55q33 -21 77 -21t78 21t34 55h176q0 -64 -84 -108q-85 -43 -204 -43zM106 0v664h146v-664h-146z" />
    <glyph glyph-name="ibreve" unicode="&#x12d;" horiz-adv-x="323" 
d="M160 513q-120 0 -203 43q-85 43 -85 108h177q0 -34 34 -55q33 -21 77 -21t78 21t34 55h176q0 -64 -84 -108q-85 -43 -204 -43zM90 0v474h143v-474h-143z" />
    <glyph glyph-name="Iogonek" unicode="&#x12e;" horiz-adv-x="358" 
d="M252 0q-76 -11 -125 -34q-51 -24 -51 -53q0 -23 37 -30q40 -8 139 -8l-24 -58q-190 0 -286 17q-93 16 -93 57q0 31 40 58q43 28 95 44q50 15 122 26v645h146v-664z" />
    <glyph glyph-name="iogonek" unicode="&#x12f;" horiz-adv-x="322" 
d="M161 663q49 0 84 -20q34 -21 34 -55q0 -35 -34 -54q-35 -20 -84 -20q-50 0 -84 20q-34 19 -34 54q0 34 34 55q34 20 84 20zM90 20v454h143v-474q-76 -11 -125 -34q-51 -24 -51 -53q0 -23 37 -30q38 -8 139 -8l-24 -58q-190 0 -286 17q-93 16 -93 57q0 46 76 79
q79 34 184 50z" />
    <glyph glyph-name="Idot" unicode="&#x130;" horiz-adv-x="358" 
d="M179 697q-50 0 -84 20q-34 19 -34 54q0 34 34 55q34 20 84 20q49 0 84 -20q34 -21 34 -55q0 -35 -34 -54q-35 -20 -84 -20zM106 0v664h146v-664h-146z" />
    <glyph glyph-name="dotlessi" unicode="&#x131;" horiz-adv-x="323" 
d="M90 0v474h143v-474h-143z" />
    <glyph glyph-name="IJ" unicode="&#x132;" horiz-adv-x="1683" 
d="M106 0v664h146v-664h-146zM967 -13q-182 0 -340 37q-161 38 -249 106l72 128q135 -141 517 -141q226 0 354 67q128 66 128 188v292h146v-315q0 -119 -85 -201q-87 -84 -224 -122q-140 -39 -319 -39z" />
    <glyph glyph-name="ij" unicode="&#x133;" horiz-adv-x="645" 
d="M161 514q-50 0 -84 20q-34 19 -34 54q0 34 34 55q34 20 84 20q49 0 84 -20q34 -21 34 -55q0 -35 -34 -54q-35 -20 -84 -20zM484 514q-50 0 -84 20q-34 19 -34 54q0 34 34 55q34 20 84 20q49 0 84 -20q34 -21 34 -55q0 -35 -34 -54q-35 -20 -84 -20zM90 0v474h143v-474
h-143zM296 -200q-30 0 -68 5l68 120q50 0 84 20q32 20 32 52v477h143v-499q0 -81 -72 -127q-74 -48 -187 -48z" />
    <glyph glyph-name="Jcircumflex" unicode="&#x134;" horiz-adv-x="1325" 
d="M1240 856l215 -145h-206l-85 86l-85 -86h-206l216 145h151zM1091 372v292h146v-315q0 -119 -85 -201q-87 -84 -224 -122q-139 -39 -319 -39q-182 0 -340 37q-161 38 -249 106l72 128q135 -141 517 -141q226 0 354 67q128 66 128 188z" />
    <glyph glyph-name="jcircumflex" unicode="&#x135;" horiz-adv-x="322" 
d="M237 664l215 -145h-206l-85 86l-85 -86h-206l216 145h151zM89 -3v477h143v-499q0 -81 -72 -127q-73 -48 -187 -48q-123 0 -196 55l88 101q32 -31 108 -31q50 0 84 20q32 20 32 52z" />
    <glyph glyph-name="Kcommaaccent" unicode="&#x136;" horiz-adv-x="1340" 
d="M762 377l579 -377h-240l-473 306l-376 -195v-111h-146v664h146v-402l788 402h283zM677 -38q51 0 85 -23q33 -24 33 -68q0 -69 -63 -110q-64 -41 -169 -41v53q99 0 152 44q-53 -12 -105 8q-51 19 -51 62q0 34 34 55q34 20 84 20z" />
    <glyph glyph-name="kcommaaccent" unicode="&#x137;" horiz-adv-x="1137" 
d="M692 288l451 -288h-243l-354 224l-313 -136v-88h-143v664h143v-435l572 245h317zM572 -30q51 0 85 -23q33 -24 33 -68q0 -69 -63 -110q-64 -41 -169 -41v53q99 0 152 44q-53 -12 -105 8q-51 19 -51 62q0 34 34 55q34 20 84 20z" />
    <glyph glyph-name="kgreenlandic" unicode="&#x138;" horiz-adv-x="1138" 
d="M900 0l-354 224l-313 -136v-88h-143v474h143v-245l572 245h317l-430 -186l451 -288h-243z" />
    <glyph glyph-name="Lacute" unicode="&#x139;" horiz-adv-x="1239" 
d="M468 856l-216 -145h-145l144 145h217zM252 130h960v-130h-1106v664h146v-534z" />
    <glyph glyph-name="lacute" unicode="&#x13a;" horiz-adv-x="323" 
d="M89 711l144 145h217l-216 -145h-145zM90 0v664h143v-664h-143z" />
    <glyph glyph-name="Lcommaaccent" unicode="&#x13b;" horiz-adv-x="1239" 
d="M252 130h960v-130h-1106v664h146v-534zM659 -30q51 0 85 -23q33 -24 33 -68q0 -69 -63 -110q-64 -41 -169 -41v53q99 0 152 44q-53 -12 -105 8q-51 19 -51 62q0 34 34 55q34 20 84 20z" />
    <glyph glyph-name="lcommaaccent" unicode="&#x13c;" horiz-adv-x="323" 
d="M90 0v664h143v-664h-143zM47 -272v53q99 0 152 44q-53 -12 -105 8q-51 19 -51 62q0 34 34 55q34 20 84 20q51 0 85 -23q33 -24 33 -68q0 -69 -63 -110q-64 -41 -169 -41z" />
    <glyph glyph-name="Lcaron" unicode="&#x13d;" horiz-adv-x="1239" 
d="M469 846l-215 -145h-151l-216 145h206l85 -86l85 86h206zM252 130h960v-130h-1106v664h146v-534z" />
    <glyph glyph-name="lcaron" unicode="&#x13e;" horiz-adv-x="676" 
d="M386 435v53q99 0 152 44q-53 -12 -105 8q-51 20 -51 62q0 34 34 55q34 20 84 20q51 0 85 -23q33 -24 33 -68q0 -70 -63 -110q-64 -41 -169 -41zM90 0v664h143v-664h-143z" />
    <glyph glyph-name="Ldot" unicode="&#x13f;" horiz-adv-x="1239" 
d="M252 130h960v-130h-1106v664h146v-534zM801 211q-50 0 -84 20q-34 19 -34 54q0 34 34 55q34 20 84 20q49 0 84 -20q34 -21 34 -55q0 -35 -34 -54q-35 -20 -84 -20z" />
    <glyph glyph-name="ldot" unicode="&#x140;" horiz-adv-x="718" 
d="M90 0v664h143v-664h-143zM520 337q-50 0 -84 20q-34 19 -34 54q0 34 34 55q34 20 84 20q49 0 84 -20q34 -21 34 -55q0 -35 -34 -54q-35 -20 -84 -20z" />
    <glyph glyph-name="Lslash" unicode="&#x141;" horiz-adv-x="1239" 
d="M252 130h960v-130h-1106v250l-106 -42v104l106 42v310h146v-253l315 124v-104l-315 -124v-177z" />
    <glyph glyph-name="lslash" unicode="&#x142;" horiz-adv-x="604" 
d="M567 487v-104l-334 -131v-252h-143v195l-90 -35v104l90 35v365h143v-308z" />
    <glyph glyph-name="Nacute" unicode="&#x143;" horiz-adv-x="1456" 
d="M1017 856l-216 -145h-145l144 145h217zM1204 664h146v-664h-174l-924 525v-525h-146v664h174l924 -526v526z" />
    <glyph glyph-name="nacute" unicode="&#x144;" horiz-adv-x="1250" 
d="M1014 664l-216 -145h-145l144 145h217zM713 487q127 0 230 -27t165 -82q63 -56 63 -132v-246h-143v205q0 79 -89 118q-90 39 -252 39q-75 0 -154 -14q-76 -13 -145 -41q-69 -27 -112 -73t-43 -105v-129h-143v474h143v-136q77 74 204 111q129 38 276 38z" />
    <glyph glyph-name="Ncommaaccent" unicode="&#x145;" horiz-adv-x="1456" 
d="M1204 664h146v-664h-174l-924 525v-525h-146v664h174l924 -526v526zM728 -30q51 0 85 -23q33 -24 33 -68q0 -69 -63 -110q-64 -41 -169 -41v53q99 0 152 44q-53 -12 -105 8q-51 19 -51 62q0 34 34 55q34 20 84 20z" />
    <glyph glyph-name="ncommaaccent" unicode="&#x146;" horiz-adv-x="1250" 
d="M713 487q127 0 230 -27t165 -82q63 -56 63 -132v-246h-143v205q0 79 -89 118q-90 39 -252 39q-75 0 -154 -14q-76 -13 -145 -41q-69 -27 -112 -73t-43 -105v-129h-143v474h143v-136q77 74 204 111q129 38 276 38zM634 -30q51 0 85 -23q33 -24 33 -68q0 -69 -63 -110
q-64 -41 -169 -41v53q99 0 152 44q-53 -12 -105 8q-51 19 -51 62q0 34 34 55q34 20 84 20z" />
    <glyph glyph-name="Ncaron" unicode="&#x147;" horiz-adv-x="1456" 
d="M803 701h-151l-216 145h206l85 -86l85 86h206zM1204 664h146v-664h-174l-924 525v-525h-146v664h174l924 -526v526z" />
    <glyph glyph-name="ncaron" unicode="&#x148;" horiz-adv-x="1250" 
d="M802 519h-151l-216 145h206l85 -86l85 86h206zM713 487q127 0 230 -27t165 -82q63 -56 63 -132v-246h-143v205q0 79 -89 118q-90 39 -252 39q-75 0 -154 -14q-76 -13 -145 -41q-69 -27 -112 -73t-43 -105v-129h-143v474h143v-136q77 74 204 111q129 38 276 38z" />
    <glyph glyph-name="napostrophe" unicode="&#x149;" horiz-adv-x="1564" 
d="M177 677q51 0 85 -23q33 -24 33 -68q0 -70 -63 -110q-64 -41 -169 -41v53q99 0 152 44q-53 -12 -105 8q-51 20 -51 62q0 34 34 55q34 20 84 20zM1027 487q127 0 230 -27t165 -82q63 -56 63 -132v-246h-143v205q0 79 -89 118q-90 39 -252 39q-75 0 -154 -14
q-76 -13 -145 -41q-69 -27 -112 -73t-43 -105v-129h-143v474h143v-136q77 74 204 111q129 38 276 38z" />
    <glyph glyph-name="Eng" unicode="&#x14a;" horiz-adv-x="1456" 
d="M1204 664h146v-689q0 -81 -72 -127q-74 -48 -187 -48q-30 0 -68 5l68 120q50 0 84 20q32 20 32 52v3h-31l-924 525v-525h-146v664h174l924 -526v526z" />
    <glyph glyph-name="eng" unicode="&#x14b;" horiz-adv-x="1249" 
d="M713 487q127 0 229 -27q103 -27 165 -82q63 -56 63 -132v-271q0 -81 -73 -127q-74 -48 -187 -48q-29 0 -67 5l67 120q51 0 85 20q32 20 32 52v208q0 79 -89 118q-90 39 -251 39q-75 0 -154 -14q-77 -13 -146 -41q-70 -27 -111 -73q-43 -46 -43 -105v-129h-143v474h143
v-135q77 73 204 110q129 38 276 38z" />
    <glyph glyph-name="Omacron" unicode="&#x14c;" 
d="M556 711v115h407v-115h-407zM760 -13q-132 0 -255 21q-121 21 -225 62q-101 39 -164 109q-62 68 -62 154q0 85 61 152q59 66 161 109q100 40 225 63q122 22 259 22q138 0 260 -22q124 -23 225 -63q100 -42 161 -109q60 -67 60 -152q0 -87 -61 -154q-63 -69 -164 -109
q-106 -42 -226 -62q-123 -21 -255 -21zM760 117q105 0 201 12q98 12 176 37q83 26 129 68q48 44 48 99q0 54 -47 98q-47 42 -127 68q-74 24 -176 38q-98 12 -204 12q-107 0 -203 -12q-101 -14 -176 -38q-80 -26 -127 -68q-48 -43 -48 -98t48 -99q47 -42 130 -68
q78 -25 176 -37q95 -12 200 -12z" />
    <glyph glyph-name="omacron" unicode="&#x14d;" horiz-adv-x="1222" 
d="M407 519v115h407v-115h-407zM612 -13q-101 0 -199 15q-95 15 -180 44q-82 28 -135 79q-51 49 -51 112q0 61 50 111q49 49 131 79q83 29 181 45q97 15 203 15q104 0 201 -15q95 -15 180 -44q83 -30 132 -79q50 -50 50 -112q0 -81 -87 -140t-211 -84q-127 -26 -265 -26z
M612 112q163 0 289 33q125 32 125 92q0 41 -64 71q-65 29 -155 42q-91 12 -195 12q-165 0 -291 -32q-125 -33 -125 -93q0 -61 127 -92q126 -33 289 -33z" />
    <glyph glyph-name="Obreve" unicode="&#x14e;" 
d="M759 705q-120 0 -203 43q-85 43 -85 108h177q0 -34 34 -55q33 -21 77 -21q43 0 78 21q34 21 34 55h176q0 -64 -84 -108q-85 -43 -204 -43zM760 -13q-132 0 -255 21q-121 21 -225 62q-101 39 -164 109q-62 68 -62 154q0 85 61 152q59 66 161 109q100 40 225 63
q122 22 259 22q138 0 260 -22q124 -23 225 -63q100 -42 161 -109q60 -67 60 -152q0 -87 -61 -154q-63 -69 -164 -109q-106 -42 -226 -62q-123 -21 -255 -21zM760 117q105 0 201 12q98 12 176 37q83 26 129 68q48 44 48 99q0 54 -47 98q-47 42 -127 68q-74 24 -176 38
q-98 12 -204 12q-107 0 -203 -12q-101 -14 -176 -38q-80 -26 -127 -68q-48 -43 -48 -98t48 -99q47 -42 130 -68q78 -25 176 -37q95 -12 200 -12z" />
    <glyph glyph-name="obreve" unicode="&#x14f;" horiz-adv-x="1222" 
d="M610 513q-120 0 -203 43q-85 43 -85 108h177q0 -34 34 -55q33 -21 77 -21t78 21t34 55h176q0 -64 -84 -108q-85 -43 -204 -43zM612 -13q-101 0 -199 15q-95 15 -180 44q-82 28 -135 79q-51 49 -51 112q0 61 50 111q49 49 131 79q83 29 181 45q97 15 203 15q104 0 201 -15
q95 -15 180 -44q83 -30 132 -79q50 -50 50 -112q0 -81 -87 -140t-211 -84q-127 -26 -265 -26zM612 112q163 0 289 33q125 32 125 92q0 41 -64 71q-65 29 -155 42q-91 12 -195 12q-165 0 -291 -32q-125 -33 -125 -93q0 -61 127 -92q126 -33 289 -33z" />
    <glyph glyph-name="Ohungarumlaut" unicode="&#x150;" 
d="M575 711l150 135h189l-212 -135h-127zM818 711l151 135h188l-212 -135h-127zM760 -13q-132 0 -255 21q-121 21 -225 62q-101 39 -164 109q-62 68 -62 154q0 85 61 152q59 66 161 109q100 40 225 63q122 22 259 22q138 0 260 -22q124 -23 225 -63q100 -42 161 -109
q60 -67 60 -152q0 -87 -61 -154q-63 -69 -164 -109q-106 -42 -226 -62q-123 -21 -255 -21zM760 117q105 0 201 12q98 12 176 37q83 26 129 68q48 44 48 99q0 54 -47 98q-47 42 -127 68q-74 24 -176 38q-98 12 -204 12q-107 0 -203 -12q-101 -14 -176 -38q-80 -26 -127 -68
q-48 -43 -48 -98t48 -99q47 -42 130 -68q78 -25 176 -37q95 -12 200 -12z" />
    <glyph glyph-name="ohungarumlaut" unicode="&#x151;" horiz-adv-x="1222" 
d="M426 529l150 135h189l-212 -135h-127zM669 529l151 135h188l-212 -135h-127zM612 -13q-101 0 -199 15q-95 15 -180 44q-82 28 -135 79q-51 49 -51 112q0 61 50 111q49 49 131 79q83 29 181 45q97 15 203 15q104 0 201 -15q95 -15 180 -44q83 -30 132 -79q50 -50 50 -112
q0 -81 -87 -140t-211 -84q-127 -26 -265 -26zM612 112q163 0 289 33q125 32 125 92q0 41 -64 71q-65 29 -155 42q-91 12 -195 12q-165 0 -291 -32q-125 -33 -125 -93q0 -61 127 -92q126 -33 289 -33z" />
    <glyph glyph-name="OE" unicode="&#x152;" horiz-adv-x="2503" 
d="M2438 664v-130h-1088q75 -54 102 -125h865v-130h-858q-21 -84 -110 -149h1089v-130h-1475q-91 -13 -203 -13q-132 0 -255 21q-121 21 -225 62q-101 39 -164 109q-62 68 -62 154q0 85 61 152q59 66 161 109q100 40 225 63q122 22 259 22q112 0 218 -15h1460zM206 333
q0 -55 48 -99q47 -42 130 -68q78 -25 176 -37q95 -12 200 -12t201 12q98 12 176 37q83 26 129 68q48 44 48 99q0 54 -47 98q-47 42 -127 68q-74 24 -176 38q-98 12 -204 12q-107 0 -203 -12q-101 -14 -176 -38q-80 -26 -127 -68q-48 -43 -48 -98z" />
    <glyph glyph-name="oe" unicode="&#x153;" horiz-adv-x="2201" 
d="M1590 487q100 0 207 -17q103 -18 193 -51q91 -35 135 -92q45 -59 21 -132h-951q41 -42 151 -65q110 -24 244 -24q250 0 365 57l98 -89q-84 -42 -207 -64q-129 -23 -256 -23q-146 0 -280 30q-134 29 -210 87q-75 -57 -208 -87q-134 -30 -280 -30q-101 0 -199 15
q-95 15 -180 44q-82 28 -135 79q-51 49 -51 112q0 61 50 111q49 49 131 79q83 29 181 45q97 15 203 15q148 0 281 -30t208 -87q75 57 208 87t281 30zM1979 285q-44 38 -151 61q-104 22 -238 22q-135 0 -239 -22q-109 -23 -151 -61h779zM612 112q157 0 280 30q122 30 133 86
v18q-11 57 -132 87q-125 29 -281 29q-165 0 -291 -32q-125 -33 -125 -93q0 -61 127 -92q126 -33 289 -33z" />
    <glyph glyph-name="Racute" unicode="&#x154;" horiz-adv-x="1414" 
d="M979 856l-216 -145h-145l144 145h217zM1118 0l-349 231h-517v-231h-146v664q232 6 828 6q215 0 315 -52t100 -170q0 -103 -84 -155q-86 -53 -260 -60l354 -233h-241zM252 536v-175h703q137 0 189 21q53 20 53 66q0 48 -52 70q-51 22 -190 22q-472 0 -703 -4z" />
    <glyph glyph-name="racute" unicode="&#x155;" horiz-adv-x="1154" 
d="M992 664l-216 -145h-145l144 145h217zM726 487q157 0 265 -52q109 -53 126 -150l-133 -73q-3 71 -84 112q-82 39 -227 39q-68 0 -145 -11q-67 -10 -141 -31q-67 -21 -111 -57q-43 -36 -43 -81v-183h-143v474h143v-115q77 63 206 96q133 32 287 32z" />
    <glyph glyph-name="Rcommaaccent" unicode="&#x156;" horiz-adv-x="1414" 
d="M1005 233l354 -233h-241l-349 231h-517v-231h-146v664q232 6 828 6q215 0 315 -52t100 -170q0 -103 -84 -155q-86 -53 -260 -60zM252 536v-175h703q137 0 189 21q53 20 53 66q0 48 -52 70q-51 22 -190 22q-472 0 -703 -4zM685 -30q51 0 85 -23q33 -24 33 -68
q0 -69 -63 -110q-64 -41 -169 -41v53q99 0 152 44q-53 -12 -105 8q-51 19 -51 62q0 34 34 55q34 20 84 20z" />
    <glyph glyph-name="rcommaaccent" unicode="&#x157;" horiz-adv-x="1154" 
d="M726 487q157 0 265 -52q109 -53 126 -150l-133 -73q-3 71 -84 112q-82 39 -227 39q-68 0 -145 -11q-67 -10 -141 -31q-67 -21 -111 -57q-43 -36 -43 -81v-183h-143v474h143v-115q77 63 206 96q133 32 287 32zM608 -30q51 0 85 -23q33 -24 33 -68q0 -69 -63 -110
q-64 -41 -169 -41v53q99 0 152 44q-53 -12 -105 8q-51 19 -51 62q0 34 34 55q34 20 84 20z" />
    <glyph glyph-name="Rcaron" unicode="&#x158;" horiz-adv-x="1414" 
d="M765 701h-151l-216 145h206l85 -86l85 86h206zM1118 0l-349 231h-517v-231h-146v664q232 6 828 6q215 0 315 -52t100 -170q0 -103 -84 -155q-86 -53 -260 -60l354 -233h-241zM252 536v-175h703q137 0 189 21q53 20 53 66q0 48 -52 70q-51 22 -190 22q-472 0 -703 -4z" />
    <glyph glyph-name="rcaron" unicode="&#x159;" horiz-adv-x="1154" 
d="M780 519h-151l-216 145h206l85 -86l85 86h206zM726 487q157 0 265 -52q109 -53 126 -150l-133 -73q-3 71 -84 112q-82 39 -227 39q-68 0 -145 -11q-67 -10 -141 -31q-67 -21 -111 -57q-43 -36 -43 -81v-183h-143v474h143v-115q77 63 206 96q133 32 287 32z" />
    <glyph glyph-name="Sacute" unicode="&#x15a;" horiz-adv-x="1372" 
d="M609 709l144 145h217l-216 -145h-145zM697 -13q-255 0 -422 42q-167 40 -216 124l127 68q35 -46 168 -74q134 -30 359 -30q448 0 448 81q0 18 -18 29q-19 11 -74 20t-136 15q-86 5 -229 12q-98 5 -160 9q-91 6 -135 11q-77 8 -113 17q-50 12 -86 25q-42 15 -65 35
q-22 19 -36 47t-14 61q0 110 147 155q146 45 439 45q502 0 585 -164l-129 -70q-42 104 -451 104q-439 0 -439 -70q0 -33 97 -48q96 -15 368 -27q100 -5 163 -9q89 -6 134 -11q63 -7 112 -17q44 -11 83 -24q42 -16 62 -34q19 -18 34 -46q13 -26 13 -61q0 -63 -40 -104
q-41 -42 -123 -66q-80 -23 -191 -34q-115 -11 -262 -11z" />
    <glyph glyph-name="sacute" unicode="&#x15b;" horiz-adv-x="1108" 
d="M482 519l144 145h217l-216 -145h-145zM557 -13q-194 0 -337 32q-141 31 -185 92l123 57q20 -22 144 -45q126 -23 272 -23q343 0 343 44q0 16 -70 23q-59 6 -280 11q-79 1 -164 5q-72 3 -128 10q-63 8 -100 18q-35 9 -67 28q-29 17 -41 41q-13 22 -13 55q0 152 500 152
q189 0 314 -31q127 -31 166 -91l-124 -59q-10 25 -118 47q-110 21 -256 21q-338 0 -338 -39q0 -14 60 -19q60 -4 273 -12q63 -1 100 -3q88 -3 142 -6q74 -6 109 -11q56 -8 83 -17q30 -11 54 -27q23 -17 32 -40q9 -22 9 -55q0 -47 -35 -79q-36 -33 -105 -49q-74 -17 -156 -23
q-80 -7 -207 -7z" />
    <glyph glyph-name="Scircumflex" unicode="&#x15c;" horiz-adv-x="1372" 
d="M681 795l-85 -86h-206l216 145h151l215 -145h-206zM712 404q100 -5 163 -9q89 -6 134 -11q63 -7 112 -17q44 -11 83 -24q42 -16 62 -34q19 -18 34 -46q13 -26 13 -61q0 -63 -40 -104q-41 -42 -123 -66q-80 -23 -191 -34q-115 -11 -262 -11q-255 0 -422 42
q-167 40 -216 124l127 68q35 -46 168 -74q134 -30 359 -30q448 0 448 81q0 18 -18 29q-19 11 -74 20t-136 15q-86 5 -229 12q-98 5 -160 9q-91 6 -135 11q-77 8 -113 17q-50 12 -86 25q-42 15 -65 35q-22 19 -36 47t-14 61q0 110 147 155q146 45 439 45q502 0 585 -164
l-129 -70q-42 104 -451 104q-439 0 -439 -70q0 -33 97 -48q96 -15 368 -27z" />
    <glyph glyph-name="scircumflex" unicode="&#x15d;" horiz-adv-x="1108" 
d="M554 605l-85 -86h-206l216 145h151l215 -145h-206zM631 301q88 -3 142 -6q74 -6 109 -11q56 -8 83 -17q30 -11 54 -27q23 -17 32 -40q9 -22 9 -55q0 -47 -35 -79q-36 -33 -105 -49q-74 -17 -156 -23q-80 -7 -207 -7q-194 0 -337 32q-141 31 -185 92l123 57
q20 -22 144 -45q126 -23 272 -23q343 0 343 44q0 16 -70 23q-59 6 -280 11q-79 1 -164 5q-72 3 -128 10q-63 8 -100 18q-35 9 -67 28q-29 17 -41 41q-13 22 -13 55q0 152 500 152q189 0 314 -31q127 -31 166 -91l-124 -59q-10 25 -118 47q-110 21 -256 21q-338 0 -338 -39
q0 -14 60 -19q60 -4 273 -12q63 -1 100 -3z" />
    <glyph glyph-name="Scedilla" unicode="&#x15e;" horiz-adv-x="1372" 
d="M1313 202q0 -60 -37 -100q-38 -42 -114 -66q-76 -25 -179 -36q-113 -12 -245 -13l-21 -20q132 0 195 -16q63 -17 63 -54q0 -80 -436 -80l-34 68q251 0 251 20t-153 20l47 62q-238 5 -391 46q-153 40 -200 120l127 68q35 -46 168 -74q134 -30 359 -30q448 0 448 81
q0 18 -18 29q-19 11 -74 20t-136 15q-86 5 -229 12q-98 5 -160 9q-91 6 -135 11q-77 8 -113 17q-50 12 -86 25q-42 15 -65 35q-22 19 -36 47t-14 61q0 110 147 155q146 45 439 45q502 0 585 -164l-129 -70q-42 104 -451 104q-439 0 -439 -70q0 -33 97 -48q96 -15 368 -27
q100 -5 163 -9q89 -6 134 -11q63 -7 112 -17q44 -11 83 -24q42 -16 62 -34q19 -18 34 -46q13 -26 13 -61z" />
    <glyph glyph-name="scedilla" unicode="&#x15f;" horiz-adv-x="1108" 
d="M1060 145q0 -87 -119 -122q-120 -35 -352 -36l-21 -20q132 0 195 -16q63 -17 63 -54q0 -80 -436 -80l-34 68q251 0 251 20t-153 20l47 63q-172 4 -301 37q-125 32 -165 86l123 57q20 -22 144 -45q126 -23 272 -23q343 0 343 44q0 16 -70 23q-59 6 -280 11q-79 1 -164 5
q-72 3 -128 10q-63 8 -100 18q-35 9 -67 28q-29 17 -41 41q-13 22 -13 55q0 152 500 152q189 0 314 -31q127 -31 166 -91l-124 -59q-10 25 -118 47q-110 21 -256 21q-338 0 -338 -39q0 -14 60 -19q60 -4 273 -12q63 -1 100 -3q88 -3 142 -6q74 -6 109 -11q56 -8 83 -17
q30 -11 54 -27q23 -17 32 -40q9 -22 9 -55z" />
    <glyph glyph-name="Scaron" unicode="&#x160;" horiz-adv-x="1372" 
d="M756 699h-151l-216 145h206l85 -86l85 86h206zM712 404q100 -5 163 -9q89 -6 134 -11q63 -7 112 -17q44 -11 83 -24q42 -16 62 -34q19 -18 34 -46q13 -26 13 -61q0 -63 -40 -104q-41 -42 -123 -66q-80 -23 -191 -34q-115 -11 -262 -11q-255 0 -422 42q-167 40 -216 124
l127 68q35 -46 168 -74q134 -30 359 -30q448 0 448 81q0 18 -18 29q-19 11 -74 20t-136 15q-86 5 -229 12q-98 5 -160 9q-91 6 -135 11q-77 8 -113 17q-50 12 -86 25q-42 15 -65 35q-22 19 -36 47t-14 61q0 110 147 155q146 45 439 45q502 0 585 -164l-129 -70
q-42 104 -451 104q-439 0 -439 -70q0 -33 97 -48q96 -15 368 -27z" />
    <glyph glyph-name="scaron" unicode="&#x161;" horiz-adv-x="1108" 
d="M631 519h-151l-216 145h206l85 -86l85 86h206zM631 301q88 -3 142 -6q74 -6 109 -11q56 -8 83 -17q30 -11 54 -27q23 -17 32 -40q9 -22 9 -55q0 -47 -35 -79q-36 -33 -105 -49q-74 -17 -156 -23q-80 -7 -207 -7q-194 0 -337 32q-141 31 -185 92l123 57q20 -22 144 -45
q126 -23 272 -23q343 0 343 44q0 16 -70 23q-59 6 -280 11q-79 1 -164 5q-72 3 -128 10q-63 8 -100 18q-35 9 -67 28q-29 17 -41 41q-13 22 -13 55q0 152 500 152q189 0 314 -31q127 -31 166 -91l-124 -59q-10 25 -118 47q-110 21 -256 21q-338 0 -338 -39q0 -14 60 -19
q60 -4 273 -12q63 -1 100 -3z" />
    <glyph glyph-name="uni0162" unicode="&#x162;" horiz-adv-x="1310" 
d="M728 0h-19l-34 -33q132 0 195 -16q63 -17 63 -54q0 -80 -436 -80l-34 68q251 0 251 20t-153 20l56 75h-35v534h-558v130h1262v-130h-558v-534z" />
    <glyph glyph-name="uni0163" unicode="&#x163;" horiz-adv-x="692" 
d="M511 -33q132 0 195 -16q63 -17 63 -54q0 -80 -436 -80l-34 68q251 0 251 20t-153 20l48 64q-98 11 -155 56q-59 47 -59 117v187h-181v125h181v88l143 74v-162h280v-125h-280v-165q0 -32 33 -52q32 -20 84 -20q76 0 108 31l88 -101q-59 -44 -153 -53z" />
    <glyph glyph-name="Tcaron" unicode="&#x164;" horiz-adv-x="1310" 
d="M730 701h-151l-216 145h206l85 -86l85 86h206zM1286 664v-130h-558v-534h-146v534h-558v130h1262z" />
    <glyph glyph-name="tcaron" unicode="&#x165;" horiz-adv-x="1045" 
d="M869 677q51 0 85 -23q33 -24 33 -68q0 -70 -63 -110q-64 -41 -169 -41v53q99 0 152 44q-53 -12 -105 8q-51 20 -51 62q0 34 34 55q34 20 84 20zM491 112q76 0 108 31l88 -101q-73 -55 -196 -55q-113 0 -187 48q-73 46 -73 127v187h-181v125h181v88l143 74v-162h280v-125
h-280v-165q0 -32 33 -52q32 -20 84 -20z" />
    <glyph glyph-name="Tbar" unicode="&#x166;" horiz-adv-x="1310" 
d="M1286 534h-558v-135h177v-97h-177v-302h-146v302h-176v97h176v135h-558v130h1262v-130z" />
    <glyph glyph-name="tbar" unicode="&#x167;" horiz-adv-x="692" 
d="M599 143l88 -101q-73 -55 -196 -55q-113 0 -187 48q-73 46 -73 127v58h-127v97h127v32h-181v125h181v88l143 74v-162h280v-125h-280v-32h229v-97h-229v-36q0 -32 33 -52q32 -20 84 -20q76 0 108 31z" />
    <glyph glyph-name="Utilde" unicode="&#x168;" horiz-adv-x="1432" 
d="M820 704q-34 0 -59 3q-26 3 -47 12q-20 7 -33 14q-5 2 -33 19q-8 5 -18.5 11.5t-13.5 8.5q-22 13 -27 -22q-2 -20 -2 -39h-152q0 70 44 111t132 41q26 0 50 -3q21 -4 37 -6q14 -2 35 -12q20 -10 26 -12q1 -1 5 -3t10.5 -6.5t13.5 -8.5q6 -4 13 -8.5t10 -6.5t4 -2
q22 -13 27 25q2 18 2 36h154q0 -68 -47 -110q-46 -42 -131 -42zM716 -13q-178 0 -318 39q-137 38 -224 122q-86 83 -86 201v315h146v-289q0 -123 129 -190q130 -68 353 -68t353 68q129 68 129 190v289h146v-315q0 -119 -85 -201q-86 -83 -225 -122q-140 -39 -318 -39z" />
    <glyph glyph-name="utilde" unicode="&#x169;" horiz-adv-x="1250" 
d="M519 580q-22 13 -27 -22l-2 -39h-152q0 70 44 111t132 41q26 0 50 -3q21 -4 37 -6q14 -2 35 -12q20 -10 26 -12q1 -1 5 -3t10.5 -6.5t13.5 -8.5q6 -4 13 -8.5t10 -6.5t4 -2q22 -13 27 25q2 18 2 36h154q0 -68 -47 -110q-46 -42 -131 -42q-33 0 -59 3t-47 12q-20 7 -33 14
q-5 2 -33 19q-8 5 -18.5 11.5t-13.5 8.5zM1017 474h143v-474h-143v115q-77 -64 -207 -95q-130 -33 -285 -33q-131 0 -225 25q-97 26 -158 87q-62 62 -62 157v218h143v-210q0 -152 340 -152q77 0 159 11q81 11 145 31q68 20 109 56q41 35 41 81v183z" />
    <glyph glyph-name="Umacron" unicode="&#x16a;" horiz-adv-x="1432" 
d="M512 711v115h407v-115h-407zM716 -13q-178 0 -318 39q-137 38 -224 122q-86 83 -86 201v315h146v-289q0 -123 129 -190q130 -68 353 -68t353 68q129 68 129 190v289h146v-315q0 -119 -85 -201q-86 -83 -225 -122q-140 -39 -318 -39z" />
    <glyph glyph-name="umacron" unicode="&#x16b;" horiz-adv-x="1250" 
d="M822 634v-115h-407v115h407zM1017 474h143v-474h-143v115q-77 -64 -207 -95q-130 -33 -285 -33q-131 0 -225 25q-97 26 -158 87q-62 62 -62 157v218h143v-210q0 -152 340 -152q77 0 159 11q81 11 145 31q68 20 109 56q41 35 41 81v183z" />
    <glyph glyph-name="Ubreve" unicode="&#x16c;" horiz-adv-x="1432" 
d="M715 705q-120 0 -203 43q-85 43 -85 108h177q0 -34 34 -55q33 -21 77 -21q43 0 78 21q34 21 34 55h176q0 -64 -84 -108q-85 -43 -204 -43zM716 -13q-178 0 -318 39q-137 38 -224 122q-86 83 -86 201v315h146v-289q0 -123 129 -190q130 -68 353 -68t353 68q129 68 129 190
v289h146v-315q0 -119 -85 -201q-86 -83 -225 -122q-140 -39 -318 -39z" />
    <glyph glyph-name="ubreve" unicode="&#x16d;" horiz-adv-x="1250" 
d="M618 513q-120 0 -203 43q-85 43 -85 108h177q0 -34 34 -55q33 -21 77 -21t78 21t34 55h176q0 -64 -84 -108q-85 -43 -204 -43zM1017 474h143v-474h-143v115q-77 -64 -207 -95q-130 -33 -285 -33q-131 0 -225 25q-97 26 -158 87q-62 62 -62 157v218h143v-210
q0 -152 340 -152q77 0 159 11q81 11 145 31q68 20 109 56q41 35 41 81v183z" />
    <glyph glyph-name="Uring" unicode="&#x16e;" horiz-adv-x="1432" 
d="M716 708q-107 0 -185 22q-80 23 -80 54q0 30 80 53q78 22 185 22q109 0 187 -22q78 -23 78 -53q0 -32 -78 -54t-187 -22zM716 744q38 0 60 12q23 12 23 29q0 14 -23 26q-24 12 -60 12q-34 0 -58 -12t-24 -26q0 -16 24 -28q22 -13 58 -13zM716 -13q-178 0 -318 39
q-137 38 -224 122q-86 83 -86 201v315h146v-289q0 -123 129 -190q130 -68 353 -68t353 68q129 68 129 190v289h146v-315q0 -119 -85 -201q-86 -83 -225 -122q-140 -39 -318 -39z" />
    <glyph glyph-name="uring" unicode="&#x16f;" horiz-adv-x="1250" 
d="M619 517q-107 0 -185 22q-80 23 -80 54q0 30 80 53q78 22 185 22q109 0 187 -22t78 -53t-78 -54q-78 -22 -187 -22zM619 632q-35 0 -58 -12q-24 -12 -24 -26q0 -16 24 -28q22 -13 58 -13q37 0 60 12t23 29q0 14 -23 26q-24 12 -60 12zM1017 474h143v-474h-143v115
q-77 -64 -207 -95q-130 -33 -285 -33q-131 0 -225 25q-97 26 -158 87q-62 62 -62 157v218h143v-210q0 -152 340 -152q77 0 159 11q81 11 145 31q68 20 109 56q41 35 41 81v183z" />
    <glyph glyph-name="Uhungarumlaut" unicode="&#x170;" horiz-adv-x="1432" 
d="M531 711l150 135h189l-212 -135h-127zM774 711l151 135h188l-212 -135h-127zM716 -13q-178 0 -318 39q-137 38 -224 122q-86 83 -86 201v315h146v-289q0 -123 129 -190q130 -68 353 -68t353 68q129 68 129 190v289h146v-315q0 -119 -85 -201q-86 -83 -225 -122
q-140 -39 -318 -39z" />
    <glyph glyph-name="uhungarumlaut" unicode="&#x171;" horiz-adv-x="1250" 
d="M773 664l-212 -135h-127l150 135h189zM804 529h-127l151 135h188zM1017 474h143v-474h-143v115q-77 -64 -207 -95q-130 -33 -285 -33q-131 0 -225 25q-97 26 -158 87q-62 62 -62 157v218h143v-210q0 -152 340 -152q77 0 159 11q81 11 145 31q68 20 109 56q41 35 41 81
v183z" />
    <glyph glyph-name="Uogonek" unicode="&#x172;" horiz-adv-x="1431" 
d="M1198 664h146v-315q0 -147 -124 -235q-124 -90 -333 -117q-161 -32 -161 -84q0 -23 37 -30q40 -8 139 -8l-24 -58q-191 0 -285 17q-93 16 -93 57q0 55 128 99q-241 13 -390 107q-150 91 -150 252v315h146v-289q0 -123 129 -190q130 -68 353 -68t353 68q129 68 129 190
v289z" />
    <glyph glyph-name="uogonek" unicode="&#x173;" horiz-adv-x="1249" 
d="M1160 0q-76 -11 -125 -34q-51 -24 -51 -53q0 -23 37 -30q40 -8 139 -8l-24 -58q-190 0 -286 17q-93 16 -93 57q0 80 260 127v97q-77 -64 -207 -95q-130 -33 -285 -33q-131 0 -225 25q-97 26 -158 87q-62 62 -62 157v218h143v-210q0 -152 340 -152q77 0 159 11
q81 11 145 31q68 20 109 56q41 35 41 81v183h143v-474z" />
    <glyph glyph-name="Wcircumflex" unicode="&#x174;" horiz-adv-x="1861" 
d="M931 797l-85 -86h-206l216 145h151l215 -145h-206zM1686 664h165l-396 -664h-194l-330 557l-330 -557h-195l-396 664h164l330 -552l332 552h189l332 -551z" />
    <glyph glyph-name="wcircumflex" unicode="&#x175;" horiz-adv-x="1845" 
d="M922 605l-85 -86h-206l216 145h151l215 -145h-206zM1662 474h183l-405 -474h-204l-313 382l-314 -382h-204l-405 474h183l324 -380l311 380h209l311 -380z" />
    <glyph glyph-name="Ycircumflex" unicode="&#x176;" horiz-adv-x="1614" 
d="M807 797l-85 -86h-206l216 145h151l215 -145h-206zM1599 664l-719 -460v-204h-146v203l-719 461h242l550 -348l549 348h243z" />
    <glyph glyph-name="ycircumflex" unicode="&#x177;" horiz-adv-x="1154" 
d="M577 605l-85 -86h-206l216 145h151l215 -145h-206zM963 474h189l-648 -659h-189l181 186l-494 473h196l394 -374z" />
    <glyph glyph-name="Ydieresis" unicode="&#x178;" horiz-adv-x="1614" 
d="M645 697q-50 0 -84 20q-34 19 -34 54q0 34 34 55q34 20 84 20q49 0 84 -20q34 -21 34 -55q0 -35 -34 -54q-35 -20 -84 -20zM949 697q-50 0 -84 20q-34 19 -34 54q0 34 34 55q34 20 84 20q49 0 84 -20q34 -21 34 -55q0 -35 -34 -54q-35 -20 -84 -20zM1599 664l-719 -460
v-204h-146v203l-719 461h242l550 -348l549 348h243z" />
    <glyph glyph-name="Zacute" unicode="&#x179;" horiz-adv-x="1273" 
d="M926 856l-216 -145h-145l144 145h217zM1210 664v-130l-845 -404h841v-130h-1143v130l850 404h-848v130h1145z" />
    <glyph glyph-name="zacute" unicode="&#x17a;" horiz-adv-x="1063" 
d="M821 664l-216 -145h-145l144 145h217zM1005 474v-125l-618 -224h617v-125h-946v125l619 224h-615v125h943z" />
    <glyph glyph-name="Zdotaccent" unicode="&#x17b;" horiz-adv-x="1273" 
d="M637 697q-50 0 -84 20q-34 19 -34 54q0 34 34 55q34 20 84 20q49 0 84 -20q34 -21 34 -55q0 -35 -34 -54q-35 -20 -84 -20zM1210 664v-130l-845 -404h841v-130h-1143v130l850 404h-848v130h1145z" />
    <glyph glyph-name="zdotaccent" unicode="&#x17c;" horiz-adv-x="1063" 
d="M532 514q-50 0 -84 20q-34 19 -34 54q0 34 34 55q34 20 84 20q49 0 84 -20q34 -21 34 -55q0 -35 -34 -54q-35 -20 -84 -20zM1005 474v-125l-618 -224h617v-125h-946v125l619 224h-615v125h943z" />
    <glyph glyph-name="Zcaron" unicode="&#x17d;" horiz-adv-x="1273" 
d="M712 701h-151l-216 145h206l85 -86l85 86h206zM1210 664v-130l-845 -404h841v-130h-1143v130l850 404h-848v130h1145z" />
    <glyph glyph-name="zcaron" unicode="&#x17e;" horiz-adv-x="1063" 
d="M609 519h-151l-216 145h206l85 -86l85 86h206zM1005 474v-125l-618 -224h617v-125h-946v125l619 224h-615v125h943z" />
    <glyph glyph-name="longs" unicode="&#x17f;" horiz-adv-x="690" 
d="M489 679q123 0 196 -55l-88 -101q-32 31 -108 31q-53 0 -84 -19q-33 -19 -33 -53v-482h-143v349h-179v125h179v30q0 80 73 128q74 47 187 47z" />
    <glyph glyph-name="uni018F" unicode="&#x18f;" 
d="M760 678q138 0 260 -22q124 -22 225 -63q99 -40 161 -108q60 -67 60 -152q0 -87 -61 -154q-63 -69 -164 -109q-106 -42 -226 -62q-123 -21 -255 -21t-255 21q-121 21 -225 62q-101 39 -164 109q-62 68 -62 154q0 47 15 74l1219 1q-53 71 -199 107q-145 36 -329 36
q-144 0 -280 -23q-135 -24 -206 -70l-118 77q94 68 261 106q164 37 343 37zM760 114q192 0 347 41q154 41 194 123h-1082q40 -82 194 -123q155 -41 347 -41z" />
    <glyph glyph-name="florin" unicode="&#x192;" horiz-adv-x="1133" 
d="M508 399q9 87 93 151q86 66 206 97t261 31l-14 -131q-78 3 -142 -4q-70 -8 -125 -24q-56 -16 -93 -47q-36 -31 -40 -71l-2 -21h315v-96h-325l-5 -46l-12 -112q-9 -87 -93 -151t-206 -96q-123 -32 -260 -32l14 131q100 -4 187 9q87 14 146 49q60 34 66 88l17 160h-329v96
h339z" />
    <glyph glyph-name="uni019D" unicode="&#x19d;" horiz-adv-x="1440" 
d="M1188 664h146v-664h-174l-924 525v-550q0 -79 -74 -127q-75 -48 -189 -48q-30 0 -68 5l68 120q50 0 84 20q32 20 32 52v477h1v190h174l924 -526v526z" />
    <glyph glyph-name="uni01CD" unicode="&#x1cd;" horiz-adv-x="1472" 
d="M811 701h-151l-216 145h206l85 -86l85 86h206zM1277 0l-119 124h-843l-119 -124h-189l639 664h181l638 -664h-188zM441 254h591l-295 307z" />
    <glyph glyph-name="uni01CE" unicode="&#x1ce;" horiz-adv-x="1237" 
d="M636 519h-151l-216 145h206l85 -86l85 86h206zM1004 474h143v-474h-143v88q-74 -50 -194 -75q-124 -26 -261 -26q-138 0 -245 25q-111 26 -183 83q-74 59 -74 142q0 81 71 140t181 84q113 26 250 26q141 0 260 -25q123 -26 195 -76v88zM600 112q183 0 294 33
q110 33 110 92t-109 92t-295 33q-184 0 -294 -33t-110 -92t111 -92t293 -33z" />
    <glyph glyph-name="uni01CF" unicode="&#x1cf;" horiz-adv-x="358" 
d="M263 846h206l-215 -145h-151l-216 145h206l85 -86zM106 0v664h146v-664h-146z" />
    <glyph glyph-name="uni01D0" unicode="&#x1d0;" horiz-adv-x="323" 
d="M247 664h206l-215 -145h-151l-216 145h206l85 -86zM90 0v474h143v-474h-143z" />
    <glyph glyph-name="uni01D1" unicode="&#x1d1;" 
d="M835 701h-151l-216 145h206l85 -86l85 86h206zM760 679q138 0 260 -22q124 -23 225 -63q100 -42 161 -109q60 -67 60 -152q0 -87 -61 -154q-63 -69 -164 -109q-106 -42 -226 -62q-123 -21 -255 -21t-255 21q-121 21 -225 62q-101 39 -164 109q-62 68 -62 154q0 85 61 152
q59 66 161 109q100 40 225 63q122 22 259 22zM760 117q105 0 201 12q98 12 176 37q83 26 129 68q48 44 48 99q0 54 -47 98q-47 42 -127 68q-74 24 -176 38q-98 12 -204 12q-107 0 -203 -12q-101 -14 -176 -38q-80 -26 -127 -68q-48 -43 -48 -98t48 -99q47 -42 130 -68
q78 -25 176 -37q95 -12 200 -12z" />
    <glyph glyph-name="uni01D2" unicode="&#x1d2;" horiz-adv-x="1222" 
d="M688 519h-151l-216 145h206l85 -86l85 86h206zM612 487q104 0 201 -15q95 -15 180 -44q83 -30 132 -79q50 -50 50 -112q0 -81 -87 -140t-211 -84q-127 -26 -265 -26q-101 0 -199 15q-95 15 -180 44q-82 28 -135 79q-51 49 -51 112q0 61 50 111q49 49 131 79q83 29 181 45
q97 15 203 15zM612 112q163 0 289 33q125 32 125 92q0 41 -64 71q-65 29 -155 42q-91 12 -195 12q-165 0 -291 -32q-125 -33 -125 -93q0 -61 127 -92q126 -33 289 -33z" />
    <glyph glyph-name="uni01D3" unicode="&#x1d3;" horiz-adv-x="1432" 
d="M791 701h-151l-216 145h206l85 -86l85 86h206zM1198 664h146v-315q0 -119 -85 -201q-86 -83 -225 -122q-140 -39 -318 -39t-318 39q-137 38 -224 122q-86 83 -86 201v315h146v-289q0 -123 129 -190q130 -68 353 -68t353 68q129 68 129 190v289z" />
    <glyph glyph-name="uni01D4" unicode="&#x1d4;" horiz-adv-x="1250" 
d="M696 519h-151l-216 145h206l85 -86l85 86h206zM1017 474h143v-474h-143v115q-77 -64 -207 -95q-130 -33 -285 -33q-131 0 -225 25q-97 26 -158 87q-62 62 -62 157v218h143v-210q0 -152 340 -152q77 0 159 11q81 11 145 31q68 20 109 56q41 35 41 81v183z" />
    <glyph glyph-name="uni01E2" unicode="&#x1e2;" horiz-adv-x="2462" 
d="M1746 826v-115h-407v115h407zM2397 534h-1449l120 -125h1208v-130h-1083l143 -149h1061v-130h-1124l-119 124h-843l-119 -124h-189l639 664h1755v-130zM437 254h591l-295 307z" />
    <glyph glyph-name="uni01E3" unicode="&#x1e3;" horiz-adv-x="2222" 
d="M1280 634v-115h-407v115h407zM1611 487q100 0 207 -17q103 -18 193 -51q91 -35 135 -92q45 -59 21 -132h-951q41 -42 151 -65q110 -24 244 -24q249 0 365 57l98 -89q-84 -42 -207 -64q-129 -23 -256 -23q-135 0 -259 25q-128 26 -205 74v-86h-143v88q-74 -50 -194 -75
q-124 -26 -261 -26q-138 0 -245 25q-111 26 -183 83q-74 59 -74 142q0 81 71 140t181 84q113 26 250 26q141 0 260 -25q123 -26 195 -76v88h143v-87q79 49 204 75q122 25 260 25zM2000 285q-44 38 -151 61q-104 22 -238 22q-135 0 -239 -22q-109 -23 -151 -61h779zM600 112
q183 0 294 33q110 33 110 92t-109 92t-295 33q-184 0 -294 -33t-110 -92t111 -92t293 -33z" />
    <glyph glyph-name="Gcaron" unicode="&#x1e6;" horiz-adv-x="1518" 
d="M835 701h-151l-216 145h206l85 -86l85 86h206zM606 375h822v-375h-146v142q-202 -155 -545 -155q-125 0 -244 21q-117 21 -218 62q-98 40 -160 109q-61 67 -61 154q0 85 61 152q59 66 161 109q100 40 226 63q122 22 259 22q182 0 340 -37q160 -37 249 -107l-71 -123
q-67 68 -207 102q-142 35 -311 35q-247 0 -401 -62q-154 -61 -154 -154q0 -56 47 -100q46 -43 125 -67q76 -25 169 -37q91 -12 190 -12q168 0 306 35q135 34 213 92h-650v131z" />
    <glyph glyph-name="gcaron" unicode="&#x1e7;" horiz-adv-x="1238" 
d="M626 519h-151l-216 145h206l85 -86l85 86h206zM1005 474h143v-394q0 -75 -49 -130q-50 -56 -133 -87q-87 -32 -184 -47q-97 -16 -217 -16q-119 0 -256 20t-218 70l94 92q55 -33 166 -48q106 -16 218 -16q88 0 161 10q78 9 139 28q61 20 99 51q37 31 37 73v9
q-73 -51 -194 -76q-124 -26 -262 -26t-245 25q-111 26 -183 83q-74 59 -74 142q0 81 71 140t181 84q113 26 250 26q142 0 261 -25q123 -26 195 -76v88zM600 112q183 0 294 33q110 33 110 92t-109 92t-295 33q-184 0 -294 -33t-110 -92t111 -92t293 -33z" />
    <glyph glyph-name="uni01EA" unicode="&#x1ea;" 
d="M951 -2q-166 -31 -166 -85q0 -23 37 -30q38 -8 139 -8l-24 -58q-190 0 -286 17q-93 16 -93 57q0 57 126 98q-124 6 -233 30q-108 24 -200 65q-90 40 -144 106q-53 65 -53 143q0 85 61 152q59 66 161 109q100 40 225 63q122 22 259 22q138 0 260 -22q124 -23 225 -63
q100 -42 161 -109q60 -67 60 -152q0 -93 -73 -165q-73 -71 -186 -112q-111 -40 -256 -58zM206 333q0 -55 48 -99q47 -42 130 -68q78 -25 176 -37q95 -12 200 -12t201 12q98 12 176 37q83 26 129 68q48 44 48 99q0 54 -47 98q-47 42 -127 68q-74 24 -176 38q-98 12 -204 12
q-107 0 -203 -12q-101 -14 -176 -38q-80 -26 -127 -68q-48 -43 -48 -98z" />
    <glyph glyph-name="uni01EB" unicode="&#x1eb;" horiz-adv-x="1221" 
d="M761 -5q-146 -32 -146 -82q0 -23 37 -30q38 -8 139 -8l-24 -58q-190 0 -286 17q-93 16 -93 57q0 59 130 99q-91 6 -172 24q-82 18 -150 48q-67 28 -109 74q-40 44 -40 101q0 61 50 111q49 49 131 79q83 29 181 45q97 15 203 15q104 0 201 -15q95 -15 180 -44
q83 -30 132 -79q50 -50 50 -112q0 -66 -59 -119q-60 -52 -150 -81q-92 -29 -205 -42zM196 237q0 -61 127 -92q126 -33 289 -33t289 33q125 32 125 92q0 41 -64 71q-65 29 -155 42q-91 12 -195 12q-165 0 -291 -32q-125 -33 -125 -93z" />
    <glyph glyph-name="Aringacute" unicode="&#x1fa;" horiz-adv-x="1472" 
d="M735 708q-108 0 -186 22q-79 21 -79 53q0 30 80 53q78 22 185 22h25l56 56h217l-116 -77q83 -21 83 -54q0 -32 -78 -53q-76 -22 -187 -22zM735 822q-34 0 -58 -11q-24 -12 -24 -27q0 -16 24 -28q22 -12 58 -12q37 0 60 12t23 28q0 15 -23 27q-24 11 -60 11zM1277 0
l-119 124h-843l-119 -124h-189l639 664h181l638 -664h-188zM441 254h591l-295 307z" />
    <glyph glyph-name="aringacute" unicode="&#x1fb;" horiz-adv-x="1237" 
d="M559 516q-108 0 -186 22q-79 21 -79 53q0 30 80 53q78 22 185 22h25l56 56h217l-116 -77q83 -21 83 -54q0 -32 -78 -53q-76 -22 -187 -22zM559 630q-34 0 -58 -11q-24 -12 -24 -27q0 -16 24 -28q23 -12 58 -12q37 0 60 12t23 28q0 15 -23 27q-24 11 -60 11zM1004 474h143
v-474h-143v88q-74 -50 -194 -75q-124 -26 -261 -26q-138 0 -245 25q-111 26 -183 83q-74 59 -74 142q0 81 71 140t181 84q113 26 250 26q141 0 260 -25q123 -26 195 -76v88zM600 112q183 0 294 33q110 33 110 92t-109 92t-295 33q-184 0 -294 -33t-110 -92t111 -92t293 -33z
" />
    <glyph glyph-name="AEacute" unicode="&#x1fc;" horiz-adv-x="2462" 
d="M1832 856l-216 -145h-145l144 145h217zM2397 534h-1449l120 -125h1208v-130h-1083l143 -149h1061v-130h-1124l-119 124h-843l-119 -124h-189l639 664h1755v-130zM437 254h591l-295 307z" />
    <glyph glyph-name="aeacute" unicode="&#x1fd;" horiz-adv-x="2222" 
d="M1900 664l-216 -145h-145l144 145h217zM1611 487q100 0 207 -17q103 -18 193 -51q91 -35 135 -92q45 -59 21 -132h-951q41 -42 151 -65q110 -24 244 -24q249 0 365 57l98 -89q-84 -42 -207 -64q-129 -23 -256 -23q-135 0 -259 25q-128 26 -205 74v-86h-143v88
q-74 -50 -194 -75q-124 -26 -261 -26q-138 0 -245 25q-111 26 -183 83q-74 59 -74 142q0 81 71 140t181 84q113 26 250 26q141 0 260 -25q123 -26 195 -76v88h143v-87q79 49 204 75q122 25 260 25zM2000 285q-44 38 -151 61q-104 22 -238 22q-135 0 -239 -22
q-109 -23 -151 -61h779zM600 112q183 0 294 33q110 33 110 92t-109 92t-295 33q-184 0 -294 -33t-110 -92t111 -92t293 -33z" />
    <glyph glyph-name="Oslashacute" unicode="&#x1fe;" 
d="M1068 856l-216 -145h-145l144 145h217zM1355 530q111 -84 111 -197q0 -87 -61 -154q-63 -69 -164 -109q-106 -42 -226 -62q-123 -21 -255 -21q-293 0 -490 88l-175 -74l-41 88l110 46q-110 84 -110 198q0 85 61 152q59 66 161 109q100 40 225 63q122 22 259 22
q293 0 490 -88l176 74l40 -88zM206 333q0 -82 104 -136l763 320q-137 32 -313 32q-107 0 -203 -12q-101 -14 -176 -38q-80 -26 -127 -68q-48 -43 -48 -98zM760 117q105 0 201 12q98 12 176 37q83 26 129 68q48 44 48 99q0 83 -105 136l-762 -320q139 -32 313 -32z" />
    <glyph glyph-name="oslashacute" unicode="&#x1ff;" horiz-adv-x="1222" 
d="M901 664l-216 -145h-145l144 145h217zM1101 370q74 -59 74 -133q0 -81 -87 -140t-211 -84q-127 -26 -265 -26q-204 0 -360 52l-167 -65l-39 88l87 34q-86 60 -86 141q0 61 50 111q49 49 131 79q83 29 181 45q97 15 203 15q223 0 376 -58l148 58l40 -88zM196 237
q0 -48 90 -81l502 195q-80 11 -176 11q-165 0 -291 -32q-125 -33 -125 -93zM612 112q163 0 289 33q125 32 125 92q0 44 -73 75l-493 -192q85 -8 152 -8z" />
    <glyph glyph-name="Scommaaccent" unicode="&#x218;" horiz-adv-x="1372" 
d="M697 -13q-255 0 -422 42q-167 40 -216 124l127 68q35 -46 168 -74q134 -30 359 -30q448 0 448 81q0 18 -18 29q-19 11 -74 20t-136 15q-86 5 -229 12q-98 5 -160 9q-91 6 -135 11q-77 8 -113 17q-50 12 -86 25q-42 15 -65 35q-22 19 -36 47t-14 61q0 110 147 155
q146 45 439 45q502 0 585 -164l-129 -70q-42 104 -451 104q-439 0 -439 -70q0 -33 97 -48q96 -15 368 -27q100 -5 163 -9q89 -6 134 -11q63 -7 112 -17q44 -11 83 -24q42 -16 62 -34q19 -18 34 -46q13 -26 13 -61q0 -63 -40 -104q-41 -42 -123 -66q-80 -23 -191 -34
q-115 -11 -262 -11zM583 -272v53q99 0 152 44q-53 -12 -105 8q-51 19 -51 62q0 34 34 55q34 20 84 20q51 0 85 -23q33 -24 33 -68q0 -69 -63 -110q-64 -41 -169 -41z" />
    <glyph glyph-name="scommaaccent" unicode="&#x219;" horiz-adv-x="1108" 
d="M557 -13q-194 0 -337 32q-141 31 -185 92l123 57q20 -22 144 -45q126 -23 272 -23q343 0 343 44q0 16 -70 23q-59 6 -280 11q-79 1 -164 5q-72 3 -128 10q-63 8 -100 18q-35 9 -67 28q-29 17 -41 41q-13 22 -13 55q0 152 500 152q189 0 314 -31q127 -31 166 -91l-124 -59
q-10 25 -118 47q-110 21 -256 21q-338 0 -338 -39q0 -14 60 -19q60 -4 273 -12q63 -1 100 -3q88 -3 142 -6q74 -6 109 -11q56 -8 83 -17q30 -11 54 -27q23 -17 32 -40q9 -22 9 -55q0 -47 -35 -79q-36 -33 -105 -49q-74 -17 -156 -23q-80 -7 -207 -7zM434 -272v53
q99 0 152 44q-53 -12 -105 8q-51 19 -51 62q0 34 34 55q34 20 84 20q51 0 85 -23q33 -24 33 -68q0 -69 -63 -110q-64 -41 -169 -41z" />
    <glyph glyph-name="uni021A" unicode="&#x21a;" horiz-adv-x="1310" 
d="M24 664h1262v-130h-558v-534h-146v534h-558v130zM655 -30q51 0 85 -23q33 -24 33 -68q0 -69 -63 -110q-64 -41 -169 -41v53q99 0 152 44q-53 -12 -105 8q-51 19 -51 62q0 34 34 55q34 20 84 20z" />
    <glyph glyph-name="uni021B" unicode="&#x21b;" horiz-adv-x="692" 
d="M687 42q-73 -55 -196 -55q-113 0 -187 48q-73 46 -73 127v187h-181v125h181v88l143 74v-162h280v-125h-280v-165q0 -32 33 -52q32 -20 84 -20q76 0 108 31zM491 -30q51 0 85 -23q33 -24 33 -68q0 -69 -63 -110q-64 -41 -169 -41v53q99 0 152 44q-53 -12 -105 8
q-51 19 -51 62q0 34 34 55q34 20 84 20z" />
    <glyph glyph-name="uni0232" unicode="&#x232;" horiz-adv-x="1614" 
d="M1010 826v-115h-407v115h407zM1599 664l-719 -460v-204h-146v203l-719 461h242l550 -348l549 348h243z" />
    <glyph glyph-name="uni0233" unicode="&#x233;" horiz-adv-x="1154" 
d="M780 634v-115h-407v115h407zM963 474h189l-648 -659h-189l181 186l-494 473h196l394 -374z" />
    <glyph glyph-name="uni0237" unicode="&#x237;" horiz-adv-x="322" 
d="M-27 -200q-123 0 -196 55l88 101q32 -31 108 -31q50 0 84 20q32 20 32 52v477h143v-499q0 -81 -72 -127q-73 -48 -187 -48z" />
    <glyph glyph-name="uni0259" unicode="&#x259;" horiz-adv-x="1223" 
d="M611 487q101 0 199 -15q94 -14 181 -44q83 -29 134 -78q51 -50 51 -113q0 -62 -49 -111q-49 -50 -132 -78q-83 -30 -180 -45q-96 -16 -204 -16q-102 0 -206 18q-104 17 -194 51q-89 33 -135 92q-45 58 -21 131h951q-40 42 -151 66q-112 23 -244 23q-249 0 -365 -57
l-98 89q84 42 207 64q129 23 256 23zM222 189q44 -38 152 -61q104 -22 237 -22q136 0 240 22q107 23 150 61h-779z" />
    <glyph glyph-name="uni0272" unicode="&#x272;" horiz-adv-x="1249" 
d="M712 487q126 0 230 -27q103 -27 165 -82q63 -56 63 -132v-246h-143v205q0 79 -89 118q-90 39 -252 39q-75 0 -154 -14q-76 -13 -145 -41q-69 -27 -112 -73t-43 -105v-154q0 -81 -72 -127q-73 -48 -187 -48q-30 0 -68 5l68 120q50 0 84 20q32 20 32 52v477h143v-136
q76 74 204 111q129 38 276 38z" />
    <glyph glyph-name="circumflex" unicode="&#x2c6;" horiz-adv-x="784" 
d="M683 711h-206l-85 86l-85 -86h-206l216 145h151z" />
    <glyph glyph-name="caron" unicode="&#x2c7;" horiz-adv-x="800" 
d="M485 856h206l-215 -145h-151l-216 145h206l85 -86z" />
    <glyph glyph-name="uni02C9" unicode="&#x2c9;" horiz-adv-x="407" 
d="M0 707v115h407v-115h-407z" />
    <glyph glyph-name="breve" unicode="&#x2d8;" horiz-adv-x="682" 
d="M341 705q-120 0 -203 43q-85 43 -85 108h177q0 -34 34 -55q33 -21 77 -21q43 0 78 21q34 21 34 55h176q0 -64 -84 -108q-85 -43 -204 -43z" />
    <glyph glyph-name="dotaccent" unicode="&#x2d9;" horiz-adv-x="359" 
d="M179 697q-50 0 -84 20q-34 19 -34 54q0 34 34 55q34 20 84 20q49 0 84 -20q34 -21 34 -55q0 -35 -34 -54q-35 -20 -84 -20z" />
    <glyph glyph-name="ring" unicode="&#x2da;" horiz-adv-x="672" 
d="M336 708q-107 0 -185 22q-80 23 -80 54q0 30 80 53q78 22 185 22q109 0 187 -22q78 -23 78 -53q0 -32 -78 -54t-187 -22zM336 744q38 0 60 12q23 12 23 29q0 14 -23 26q-24 12 -60 12q-34 0 -58 -12t-24 -26q0 -16 24 -28q22 -13 58 -13z" />
    <glyph glyph-name="ogonek" unicode="&#x2db;" horiz-adv-x="501" 
d="M431 -183q-191 0 -285 17q-93 16 -93 57q0 52 98 88q98 35 217 48l48 -27q-48 -11 -94 -35q-43 -24 -43 -52q0 -23 37 -30q40 -8 139 -8z" />
    <glyph glyph-name="tilde" unicode="&#x2dc;" horiz-adv-x="682" 
d="M445 704q-33 0 -59 3t-47 12q-20 7 -33 14q-5 2 -33 19q-8 5 -18.5 11.5t-13.5 8.5q-22 13 -27 -22q-2 -20 -2 -39h-152q0 70 44 111t132 41q26 0 50 -3q21 -4 37 -6q14 -2 35 -12q20 -10 26 -12q1 -1 5 -3t10.5 -6.5t13.5 -8.5q6 -4 13 -8.5t10 -6.5t4 -2q22 -13 27 25
q2 18 2 36h154q0 -68 -47 -110q-46 -42 -131 -42z" />
    <glyph glyph-name="hungarumlaut" unicode="&#x2dd;" horiz-adv-x="370" 
d="M0 711l150 135h189l-212 -135h-127zM243 711l151 135h188l-212 -135h-127z" />
    <glyph glyph-name="gravecomb" unicode="&#x300;" horiz-adv-x="0" 
d="M0 701h-145l-216 145h217z" />
    <glyph glyph-name="acutecomb" unicode="&#x301;" horiz-adv-x="0" 
d="M-144 701l144 145h217l-216 -145h-145z" />
    <glyph glyph-name="uni0302" unicode="&#x302;" horiz-adv-x="0" 
d="M-101 701h-206l-85 86l-85 -86h-206l216 145h151z" />
    <glyph glyph-name="tildecomb" unicode="&#x303;" horiz-adv-x="0" 
d="M-237 694q-33 0 -59 3t-47 12q-20 7 -33 14q-5 2 -33 19q-8 5 -18.5 11.5t-13.5 8.5q-22 13 -27 -22l-2 -39h-152q0 70 44 111t132 41q26 0 50 -3q21 -4 37 -6q14 -2 35 -12q20 -10 26 -12q1 -1 5 -3t10.5 -6.5t13.5 -8.5q6 -4 13 -8.5t10 -6.5t4 -2q22 -13 27 25
q2 18 2 36h154q0 -68 -47 -110q-46 -42 -131 -42z" />
    <glyph glyph-name="uni0304" unicode="&#x304;" horiz-adv-x="0" 
d="M-407 701v115h407v-115h-407z" />
    <glyph glyph-name="uni0306" unicode="&#x306;" horiz-adv-x="0" 
d="M-341 695q-120 0 -203 43q-85 43 -85 108h177q0 -34 34 -55q33 -21 77 -21q43 0 78 21q34 21 34 55h176q0 -64 -84 -108q-85 -43 -204 -43z" />
    <glyph glyph-name="uni0307" unicode="&#x307;" horiz-adv-x="0" 
d="M-180 696q-50 0 -84 20q-34 19 -34 54q0 34 34 55q34 20 84 20q49 0 84 -20q34 -21 34 -55q0 -35 -34 -54q-35 -20 -84 -20z" />
    <glyph glyph-name="uni0308" unicode="&#x308;" horiz-adv-x="0" 
d="M-492 696q-50 0 -84 20q-34 19 -34 54q0 34 34 55q34 20 84 20q49 0 84 -20q34 -21 34 -55q0 -35 -34 -54q-35 -20 -84 -20zM-188 696q-50 0 -84 20q-34 19 -34 54q0 34 34 55q34 20 84 20q49 0 84 -20q34 -21 34 -55q0 -35 -34 -54q-35 -20 -84 -20z" />
    <glyph glyph-name="uni030A" unicode="&#x30a;" horiz-adv-x="0" 
d="M-337 699q-107 0 -185 22q-80 23 -80 54q0 30 80 53q78 22 185 22q109 0 187 -22t78 -53t-78 -54q-78 -22 -187 -22zM-337 735q37 0 60 12t23 29q0 14 -23 26q-24 12 -60 12q-35 0 -58 -12q-24 -12 -24 -26q0 -16 24 -28q22 -13 58 -13z" />
    <glyph glyph-name="uni030B" unicode="&#x30b;" horiz-adv-x="0" 
d="M-370 711l150 135h189l-212 -135h-127zM-127 711l151 135h188l-212 -135h-127z" />
    <glyph glyph-name="uni030C" unicode="&#x30c;" horiz-adv-x="0" 
d="M-313 846h206l-215 -145h-151l-216 145h206l85 -86z" />
    <glyph glyph-name="uni0312" unicode="&#x312;" horiz-adv-x="0" 
d="M-64 930v-53q-99 0 -152 -44q55 12 105 -7q51 -20 51 -63q0 -35 -33 -54q-34 -21 -85 -21q-52 0 -85 24q-33 22 -33 67q0 69 63 110q64 41 169 41z" />
    <glyph glyph-name="dotbelowcomb" unicode="&#x323;" horiz-adv-x="0" 
d="M-180 -184q-50 0 -84 20q-34 19 -34 54q0 34 34 55q34 20 84 20q49 0 84 -20q34 -21 34 -55q0 -35 -34 -54q-35 -20 -84 -20z" />
    <glyph glyph-name="uni0326" unicode="&#x326;" horiz-adv-x="0" 
d="M-287 -272v53q99 0 152 44q-53 -12 -105 8q-51 20 -51 62q0 34 34 55q34 20 84 20q51 0 85 -23q33 -24 33 -68q0 -69 -63 -110q-64 -41 -169 -41z" />
    <glyph glyph-name="uni0327" unicode="&#x327;" horiz-adv-x="0" 
d="M-461 -183l-34 68q251 0 251 20t-153 20l56 75h92l-34 -33q132 0 195 -16q63 -17 63 -54q0 -80 -436 -80z" />
    <glyph glyph-name="uni0328" unicode="&#x328;" horiz-adv-x="0" 
d="M-69 -183q-191 0 -285 17q-93 16 -93 57q0 52 98 88q98 35 217 48l48 -27q-48 -11 -94 -35q-43 -24 -43 -52q0 -23 37 -30q40 -8 139 -8z" />
    <glyph glyph-name="uni0335" unicode="&#x335;" horiz-adv-x="0" 
d="M-567 554v97h499v-97h-499z" />
    <glyph glyph-name="uni0336" unicode="&#x336;" horiz-adv-x="0" 
d="M-516 408h500v-52h-500v52z" />
    <glyph glyph-name="uni0337" unicode="&#x337;" horiz-adv-x="0" 
d="M-1004 -26l-39 88l1090 425l40 -88z" />
    <glyph glyph-name="uni0338" unicode="&#x338;" horiz-adv-x="0" 
d="M-1300 0l-41 88l1372 576l40 -88z" />
    <glyph glyph-name="uni03BC" unicode="&#x3bc;" horiz-adv-x="1249" 
d="M1017 474h143v-474h-143v115q-77 -64 -207 -95q-130 -33 -285 -33q-191 0 -302 55v-214h-143v646h143v-210q0 -152 340 -152q77 0 159 11q81 11 145 31q68 20 109 56q41 35 41 81v183z" />
    <glyph glyph-name="pi" unicode="&#x3c0;" horiz-adv-x="1282" 
d="M1224 344h-398v-66q0 -94 91 -134q91 -41 277 -41v-127q-76 0 -151 8q-71 8 -138 30q-69 21 -117 54q-50 33 -78 87q-30 54 -30 123v66h-177v-344h-146v344h-299v130h1166v-130z" />
    <glyph glyph-name="Wgrave" unicode="&#x1e80;" horiz-adv-x="1861" 
d="M1004 711h-145l-216 145h217zM1686 664h165l-396 -664h-194l-330 557l-330 -557h-195l-396 664h164l330 -552l332 552h189l332 -551z" />
    <glyph glyph-name="wgrave" unicode="&#x1e81;" horiz-adv-x="1845" 
d="M994 519h-145l-216 145h217zM1662 474h183l-405 -474h-204l-313 382l-314 -382h-204l-405 474h183l324 -380l311 380h209l311 -380z" />
    <glyph glyph-name="Wacute" unicode="&#x1e82;" horiz-adv-x="1861" 
d="M1220 856l-216 -145h-145l144 145h217zM1686 664h165l-396 -664h-194l-330 557l-330 -557h-195l-396 664h164l330 -552l332 552h189l332 -551z" />
    <glyph glyph-name="wacute" unicode="&#x1e83;" horiz-adv-x="1845" 
d="M1211 664l-216 -145h-145l144 145h217zM1662 474h183l-405 -474h-204l-313 382l-314 -382h-204l-405 474h183l324 -380l311 380h209l311 -380z" />
    <glyph glyph-name="Wdieresis" unicode="&#x1e84;" horiz-adv-x="1861" 
d="M769 697q-50 0 -84 20q-34 19 -34 54q0 34 34 55q34 20 84 20q49 0 84 -20q34 -21 34 -55q0 -35 -34 -54q-35 -20 -84 -20zM1073 697q-50 0 -84 20q-34 19 -34 54q0 34 34 55q34 20 84 20q49 0 84 -20q34 -21 34 -55q0 -35 -34 -54q-35 -20 -84 -20zM1686 664h165
l-396 -664h-194l-330 557l-330 -557h-195l-396 664h164l330 -552l332 552h189l332 -551z" />
    <glyph glyph-name="wdieresis" unicode="&#x1e85;" horiz-adv-x="1845" 
d="M770 514q-50 0 -84 20q-34 19 -34 54q0 34 34 55q34 20 84 20q49 0 84 -20q34 -21 34 -55q0 -35 -34 -54q-35 -20 -84 -20zM1074 514q-50 0 -84 20q-34 19 -34 54q0 34 34 55q34 20 84 20q49 0 84 -20q34 -21 34 -55q0 -35 -34 -54q-35 -20 -84 -20zM1662 474h183
l-405 -474h-204l-313 382l-314 -382h-204l-405 474h183l324 -380l311 380h209l311 -380z" />
    <glyph glyph-name="uni1E8A" unicode="&#x1e8a;" horiz-adv-x="1414" 
d="M707 697q-50 0 -84 20q-34 19 -34 54q0 34 34 55q34 20 84 20q49 0 84 -20q34 -21 34 -55q0 -35 -34 -54q-35 -20 -84 -20zM1433 0h-254l-472 283l-472 -283h-254l599 359l-511 305h254l384 -230l383 230h255l-511 -305z" />
    <glyph glyph-name="uni1E8B" unicode="&#x1e8b;" horiz-adv-x="1246" 
d="M623 514q-50 0 -84 20q-34 19 -34 54q0 34 34 55q34 20 84 20q49 0 84 -20q34 -21 34 -55q0 -35 -34 -54q-35 -20 -84 -20zM1249 0h-283l-343 174l-344 -174h-282l485 246l-450 228h282l309 -157l309 157h282l-450 -228z" />
    <glyph glyph-name="uni1E9E" unicode="&#x1e9e;" horiz-adv-x="1712" 
d="M1267 401q201 -3 295 -55t94 -137q0 -108 -174 -165t-472 -57q-168 0 -326 39q-158 38 -257 108l88 103q173 -120 495 -120q226 0 362 26q132 25 132 69q0 62 -299 62h-357l-61 127h291l159 133h-513q-226 0 -348 -49q-124 -49 -124 -134v-353h-146v382q0 87 78 153
q79 65 206 98q128 33 285 33h898z" />
    <glyph glyph-name="uni1EA0" unicode="&#x1ea0;" horiz-adv-x="1472" 
d="M1465 0h-188l-119 124h-843l-119 -124h-189l639 664h181zM441 254h591l-295 307zM736 -35q49 0 84 -20q34 -21 34 -55q0 -35 -34 -54q-35 -20 -84 -20q-50 0 -84 20q-34 19 -34 54q0 34 34 55q34 20 84 20z" />
    <glyph glyph-name="uni1EA1" unicode="&#x1ea1;" horiz-adv-x="1237" 
d="M1004 474h143v-474h-143v88q-74 -50 -194 -75q-124 -26 -261 -26q-138 0 -245 25q-111 26 -183 83q-74 59 -74 142q0 81 71 140t181 84q113 26 250 26q141 0 260 -25q123 -26 195 -76v88zM600 112q183 0 294 33q110 33 110 92t-109 92t-295 33q-184 0 -294 -33t-110 -92
t111 -92t293 -33zM549 -35q49 0 84 -20q34 -21 34 -55q0 -35 -34 -54q-35 -20 -84 -20q-50 0 -84 20q-34 19 -34 54q0 34 34 55q34 20 84 20z" />
    <glyph glyph-name="uni1EB8" unicode="&#x1eb8;" horiz-adv-x="1295" 
d="M1230 534h-978v-125h857v-130h-857v-149h978v-130h-1124v664h1124v-130zM668 -35q49 0 84 -20q34 -21 34 -55q0 -35 -34 -54q-35 -20 -84 -20q-50 0 -84 20q-34 19 -34 54q0 34 34 55q34 20 84 20z" />
    <glyph glyph-name="uni1EB9" unicode="&#x1eb9;" horiz-adv-x="1223" 
d="M612 487q100 0 207 -17q103 -18 193 -51q91 -35 135 -92q45 -59 21 -132h-951q41 -42 151 -65q109 -24 244 -24q250 0 365 57l98 -89q-84 -42 -207 -64q-129 -23 -256 -23q-101 0 -199 15q-95 15 -180 44q-82 28 -135 79q-51 49 -51 112q0 61 50 111q49 49 131 79
q83 29 181 45q97 15 203 15zM1001 285q-44 38 -151 61q-104 22 -238 22q-135 0 -239 -22q-109 -23 -151 -61h779zM612 -35q49 0 84 -20q34 -21 34 -55q0 -35 -34 -54q-35 -20 -84 -20q-50 0 -84 20q-34 19 -34 54q0 34 34 55q34 20 84 20z" />
    <glyph glyph-name="uni1EBC" unicode="&#x1ebc;" horiz-adv-x="1295" 
d="M568 772q-22 13 -27 -22q-2 -20 -2 -39h-152q0 70 44 111t132 41q26 0 50 -3q21 -4 37 -6q14 -2 35 -12q20 -10 26 -12q1 -1 5 -3t10.5 -6.5t13.5 -8.5q6 -4 13 -8.5t10 -6.5t4 -2q22 -13 27 25q2 18 2 36h154q0 -68 -47 -110t-131 -42q-34 0 -59 3q-26 3 -47 12
q-20 7 -33 14q-5 2 -33 19q-8 5 -18.5 11.5t-13.5 8.5zM1230 534h-978v-125h857v-130h-857v-149h978v-130h-1124v664h1124v-130z" />
    <glyph glyph-name="uni1EBD" unicode="&#x1ebd;" horiz-adv-x="1223" 
d="M512 580q-22 13 -27 -22l-2 -39h-152q0 70 44 111t132 41q26 0 50 -3q21 -4 37 -6q14 -2 35 -12q20 -10 26 -12q1 -1 5 -3t10.5 -6.5t13.5 -8.5q6 -4 13 -8.5t10 -6.5t4 -2q22 -13 27 25q2 18 2 36h154q0 -68 -47 -110t-131 -42q-34 0 -59 3q-26 3 -47 12q-20 7 -33 14
q-5 2 -33 19q-8 5 -18.5 11.5t-13.5 8.5zM612 487q100 0 207 -17q103 -18 193 -51q91 -35 135 -92q45 -59 21 -132h-951q41 -42 151 -65q109 -24 244 -24q250 0 365 57l98 -89q-84 -42 -207 -64q-129 -23 -256 -23q-101 0 -199 15q-95 15 -180 44q-82 28 -135 79
q-51 49 -51 112q0 61 50 111q49 49 131 79q83 29 181 45q97 15 203 15zM1001 285q-44 38 -151 61q-104 22 -238 22q-135 0 -239 -22q-109 -23 -151 -61h779z" />
    <glyph glyph-name="uni1ECA" unicode="&#x1eca;" horiz-adv-x="358" 
d="M106 0v664h146v-664h-146zM179 -184q-50 0 -84 20q-34 19 -34 54q0 34 34 55q34 20 84 20q49 0 84 -20q34 -21 34 -55q0 -35 -34 -54q-35 -20 -84 -20z" />
    <glyph glyph-name="uni1ECB" unicode="&#x1ecb;" horiz-adv-x="323" 
d="M161 514q-50 0 -84 20q-34 19 -34 54q0 34 34 55q34 20 84 20q49 0 84 -20q34 -21 34 -55q0 -35 -34 -54q-35 -20 -84 -20zM90 0v474h143v-474h-143zM161 -184q-50 0 -84 20q-34 19 -34 54q0 34 34 55q34 20 84 20q49 0 84 -20q34 -21 34 -55q0 -35 -34 -54
q-35 -20 -84 -20z" />
    <glyph glyph-name="uni1ECC" unicode="&#x1ecc;" 
d="M760 -13q-132 0 -255 21q-121 21 -225 62q-101 39 -164 109q-62 68 -62 154q0 85 61 152q59 66 161 109q100 40 225 63q122 22 259 22q138 0 260 -22q124 -23 225 -63q100 -42 161 -109q60 -67 60 -152q0 -87 -61 -154q-63 -69 -164 -109q-106 -42 -226 -62
q-123 -21 -255 -21zM760 117q105 0 201 12q98 12 176 37q83 26 129 68q48 44 48 99q0 54 -47 98q-47 42 -127 68q-74 24 -176 38q-98 12 -204 12q-107 0 -203 -12q-101 -14 -176 -38q-80 -26 -127 -68q-48 -43 -48 -98t48 -99q47 -42 130 -68q78 -25 176 -37q95 -12 200 -12
zM760 -184q-50 0 -84 20q-34 19 -34 54q0 34 34 55q34 20 84 20q49 0 84 -20q34 -21 34 -55q0 -35 -34 -54q-35 -20 -84 -20z" />
    <glyph glyph-name="uni1ECD" unicode="&#x1ecd;" horiz-adv-x="1222" 
d="M612 -13q-101 0 -199 15q-95 15 -180 44q-82 28 -135 79q-51 49 -51 112q0 61 50 111q49 49 131 79q83 29 181 45q97 15 203 15q104 0 201 -15q95 -15 180 -44q83 -30 132 -79q50 -50 50 -112q0 -81 -87 -140t-211 -84q-127 -26 -265 -26zM612 112q163 0 289 33
q125 32 125 92q0 41 -64 71q-65 29 -155 42q-91 12 -195 12q-165 0 -291 -32q-125 -33 -125 -93q0 -61 127 -92q126 -33 289 -33zM611 -184q-50 0 -84 20q-34 19 -34 54q0 34 34 55q34 20 84 20q49 0 84 -20q34 -21 34 -55q0 -35 -34 -54q-35 -20 -84 -20z" />
    <glyph glyph-name="uni1EE4" unicode="&#x1ee4;" horiz-adv-x="1432" 
d="M716 -13q-178 0 -318 39q-137 38 -224 122q-86 83 -86 201v315h146v-289q0 -123 129 -190q130 -68 353 -68t353 68q129 68 129 190v289h146v-315q0 -119 -85 -201q-86 -83 -225 -122q-140 -39 -318 -39zM716 -184q-50 0 -84 20q-34 19 -34 54q0 34 34 55q34 20 84 20
q49 0 84 -20q34 -21 34 -55q0 -35 -34 -54q-35 -20 -84 -20z" />
    <glyph glyph-name="uni1EE5" unicode="&#x1ee5;" horiz-adv-x="1250" 
d="M1017 474h143v-474h-143v115q-77 -64 -207 -95q-130 -33 -285 -33q-131 0 -225 25q-97 26 -158 87q-62 62 -62 157v218h143v-210q0 -152 340 -152q77 0 159 11q81 11 145 31q68 20 109 56q41 35 41 81v183zM607 -35q49 0 84 -20q34 -21 34 -55q0 -35 -34 -54
q-35 -20 -84 -20q-50 0 -84 20q-34 19 -34 54q0 34 34 55q34 20 84 20z" />
    <glyph glyph-name="Ygrave" unicode="&#x1ef2;" horiz-adv-x="1614" 
d="M880 711h-145l-216 145h217zM1599 664l-719 -460v-204h-146v203l-719 461h242l550 -348l549 348h243z" />
    <glyph glyph-name="ygrave" unicode="&#x1ef3;" horiz-adv-x="1154" 
d="M649 519h-145l-216 145h217zM963 474h189l-648 -659h-189l181 186l-494 473h196l394 -374z" />
    <glyph glyph-name="uni1EF8" unicode="&#x1ef8;" horiz-adv-x="1614" 
d="M707 772q-22 13 -27 -22q-2 -20 -2 -39h-152q0 70 44 111t132 41q26 0 50 -3q21 -4 37 -6q14 -2 35 -12q20 -10 26 -12q1 -1 5 -3t10.5 -6.5t13.5 -8.5q6 -4 13 -8.5t10 -6.5t4 -2q22 -13 27 25q2 18 2 36h154q0 -68 -47 -110q-46 -42 -131 -42q-33 0 -59 3t-47 12
q-20 7 -33 14q-5 2 -33 19q-8 5 -18.5 11.5t-13.5 8.5zM1599 664l-719 -460v-204h-146v203l-719 461h242l550 -348l549 348h243z" />
    <glyph glyph-name="uni1EF9" unicode="&#x1ef9;" horiz-adv-x="1154" 
d="M477 580q-22 13 -27 -22l-2 -39h-152q0 70 44 111t132 41q26 0 50 -3q21 -4 37 -6q14 -2 35 -12q20 -10 26 -12q1 -1 5 -3t10.5 -6.5t13.5 -8.5q6 -4 13 -8.5t10 -6.5t4 -2q22 -13 27 25q2 18 2 36h154q0 -68 -47 -110q-46 -42 -131 -42q-33 0 -59 3t-47 12q-20 7 -33 14
q-5 2 -33 19q-8 5 -18.5 11.5t-13.5 8.5zM963 474h189l-648 -659h-189l181 186l-494 473h196l394 -374z" />
    <glyph glyph-name="endash" unicode="&#x2013;" horiz-adv-x="662" 
d="M81 196v130h500v-130h-500z" />
    <glyph glyph-name="emdash" unicode="&#x2014;" horiz-adv-x="1098" 
d="M81 196v130h936v-130h-936z" />
    <glyph glyph-name="quoteleft" unicode="&#x2018;" horiz-adv-x="353" 
d="M291 676v-53q-99 0 -152 -44q55 12 105 -7q51 -20 51 -63q0 -35 -33 -54q-34 -21 -85 -21q-52 0 -85 24q-33 22 -33 67q0 69 63 110q64 41 169 41z" />
    <glyph glyph-name="quoteright" unicode="&#x2019;" horiz-adv-x="353" 
d="M63 435v53q99 0 152 44q-53 -12 -105 8q-51 20 -51 62q0 34 34 55q34 20 84 20q51 0 85 -23q33 -24 33 -68q0 -70 -63 -110q-64 -41 -169 -41z" />
    <glyph glyph-name="quotesinglbase" unicode="&#x201a;" horiz-adv-x="376" 
d="M74 -104v53q99 0 152 44q-53 -12 -105 8q-51 19 -51 62q0 34 34 55q34 20 84 20q51 0 85 -23q33 -24 33 -68q0 -69 -63 -110q-64 -41 -169 -41z" />
    <glyph glyph-name="quotereversed" unicode="&#x201b;" horiz-adv-x="353" 
d="M291 435q-105 0 -169 41q-63 40 -63 110q0 44 33 68q34 23 85 23q50 0 85 -20q33 -21 33 -55q0 -42 -51 -62q-52 -20 -105 -8q53 -44 152 -44v-53z" />
    <glyph glyph-name="quotedblleft" unicode="&#x201c;" horiz-adv-x="638" 
d="M291 676v-53q-99 0 -152 -44q55 12 105 -7q51 -20 51 -63q0 -35 -33 -54q-34 -21 -85 -21q-52 0 -85 24q-33 22 -33 67q0 69 63 110q64 41 169 41zM576 676v-53q-99 0 -152 -44q55 12 105 -7q51 -20 51 -63q0 -35 -33 -54q-35 -21 -85 -21q-52 0 -85 24q-33 22 -33 67
q0 69 63 110q64 41 169 41z" />
    <glyph glyph-name="quotedblright" unicode="&#x201d;" horiz-adv-x="638" 
d="M63 435v53q99 0 152 44q-53 -12 -105 8q-51 20 -51 62q0 34 34 55q34 20 84 20q51 0 85 -23q33 -24 33 -68q0 -70 -63 -110q-64 -41 -169 -41zM348 435v53q99 0 152 44q-53 -12 -105 8q-51 20 -51 62q0 34 34 55q34 20 84 20q51 0 85 -23q33 -24 33 -68q0 -70 -63 -110
q-64 -41 -169 -41z" />
    <glyph glyph-name="quotedblbase" unicode="&#x201e;" horiz-adv-x="661" 
d="M74 -104v53q99 0 152 44q-53 -12 -105 8q-51 19 -51 62q0 34 34 55q34 20 84 20q51 0 85 -23q33 -24 33 -68q0 -69 -63 -110q-64 -41 -169 -41zM359 -104v53q99 0 152 44q-53 -12 -105 8q-51 20 -51 62q0 34 34 55q34 20 84 20q51 0 85 -23q33 -24 33 -68q0 -69 -63 -110
q-64 -41 -169 -41z" />
    <glyph glyph-name="uni201F" unicode="&#x201f;" horiz-adv-x="638" 
d="M291 435q-105 0 -169 41q-63 40 -63 110q0 44 33 68q34 23 85 23q50 0 85 -20q33 -21 33 -55q0 -42 -51 -62q-52 -20 -105 -8q53 -44 152 -44v-53zM576 435q-105 0 -169 41q-63 40 -63 110q0 44 33 68q34 23 85 23q50 0 85 -20q33 -21 33 -55q0 -42 -51 -62
q-52 -20 -105 -8q53 -44 152 -44v-53z" />
    <glyph glyph-name="dagger" unicode="&#x2020;" horiz-adv-x="1132" 
d="M1062 509v-128l-439 9l16 -390h-146l17 390l-440 -9v128l440 -9l-17 164h146l-16 -164z" />
    <glyph glyph-name="daggerdbl" unicode="&#x2021;" horiz-adv-x="1132" 
d="M493 0l17 164l-440 -9v128l440 -9v116l-440 -9v128l440 -9l-17 164h146l-16 -164l439 9v-128l-439 9v-116l439 9v-128l-439 9l16 -164h-146z" />
    <glyph glyph-name="bullet" unicode="&#x2022;" horiz-adv-x="594" 
d="M295 -13q-102 0 -175 73t-73 175q0 106 73 179t175 73q106 0 179 -73t73 -179q0 -102 -73 -175t-179 -73z" />
    <glyph glyph-name="ellipsis" unicode="&#x2026;" horiz-adv-x="1128" 
d="M188 -11q-50 0 -84 20q-34 19 -34 54q0 34 34 55q34 20 84 20q49 0 84 -20q34 -21 34 -55q0 -35 -34 -54q-35 -20 -84 -20zM564 -11q-50 0 -84 20q-34 19 -34 54q0 34 34 55q34 20 84 20q49 0 84 -20q34 -21 34 -55q0 -35 -34 -54q-35 -20 -84 -20zM940 -11q-50 0 -84 20
q-34 19 -34 54q0 34 34 55q34 20 84 20q49 0 84 -20q34 -21 34 -55q0 -35 -34 -54q-35 -20 -84 -20z" />
    <glyph glyph-name="perthousand" unicode="&#x2030;" horiz-adv-x="2550" 
d="M417 291q-156 0 -266 56t-110 136q0 83 109 138q110 56 267 56q156 0 266 -56q109 -55 109 -138q0 -81 -109 -136q-110 -56 -266 -56zM538 0l518 664h135l-518 -664h-135zM417 403q100 0 171 23q69 22 69 57t-69 59q-71 23 -171 23q-103 0 -172 -23q-69 -24 -69 -59
t70 -57q72 -23 171 -23zM1313 -13q-156 0 -266 56t-110 136q0 83 109 138q110 56 267 56q156 0 266 -56q109 -55 109 -138q0 -81 -109 -136q-110 -56 -266 -56zM2134 -13q-156 0 -266 56t-110 136q0 83 109 138q110 56 267 56q155 0 265 -56q109 -55 109 -138
q0 -81 -108 -136q-110 -56 -266 -56zM1313 99q100 0 171 23q69 22 69 57t-69 59q-71 23 -171 23q-102 0 -173 -23q-69 -24 -69 -59q0 -34 71 -57q72 -23 171 -23zM2134 99q100 0 171 23q69 22 69 57t-69 59q-71 23 -171 23q-102 0 -173 -23q-69 -24 -69 -59q0 -34 71 -57
q72 -23 171 -23z" />
    <glyph glyph-name="minute" unicode="&#x2032;" horiz-adv-x="281" 
d="M68 338l-9 326h164l-27 -326h-128z" />
    <glyph glyph-name="second" unicode="&#x2033;" horiz-adv-x="562" 
d="M68 338l-9 326h164l-27 -326h-128zM349 338l-9 326h164l-27 -326h-128z" />
    <glyph glyph-name="uni2034" unicode="&#x2034;" horiz-adv-x="841" 
d="M68 338l-9 326h164l-27 -326h-128zM348 338l-9 326h164l-27 -326h-128zM629 338l-9 326h164l-27 -326h-128z" />
    <glyph glyph-name="guilsinglleft" unicode="&#x2039;" horiz-adv-x="453" 
d="M290 -13l-250 250l250 250l104 -89l-166 -161l166 -160z" />
    <glyph glyph-name="guilsinglright" unicode="&#x203a;" horiz-adv-x="453" 
d="M163 -13l-104 90l166 160l-166 161l104 89l250 -250z" />
    <glyph glyph-name="fraction" unicode="&#x2044;" horiz-adv-x="552" 
d="M468 664h134l-518 -664h-134z" />
    <glyph glyph-name="Euro" unicode="&#x20ac;" horiz-adv-x="1409" 
d="M1276 233l91 -103q-94 -69 -260 -106q-164 -37 -344 -37q-221 0 -409 57t-261 165h-93v97h56q-2 24 -2 27q0 20 1 25h-55v97h92q72 107 258 166q184 58 411 58q182 0 340 -37q160 -37 249 -107l-71 -123q-67 68 -207 102q-142 35 -311 35q-313 0 -467 -94h615v-97h-700
q-3 -12 -3 -25q0 -16 4 -27h699v-97h-610q158 -92 464 -92q167 0 301 31q136 31 212 85z" />
    <glyph glyph-name="uni20BA" unicode="&#x20ba;" horiz-adv-x="1012" 
d="M806 346h152q0 -87 -61 -154q-63 -69 -164 -109q-106 -42 -226 -62q-123 -21 -255 -21h-146v236l-106 -42v104l106 42v39l-106 -42v104l106 42v181h146v-124l315 124v-104l-315 -124v-39l315 124v-104l-315 -124v-166q109 0 200 13q97 12 177 37q80 24 129 68
q48 43 48 101z" />
    <glyph glyph-name="uni20BD" unicode="&#x20bd;" horiz-adv-x="1381" 
d="M252 231v-35h690v-97h-690v-99h-146v99h-106v97h106v35h-106v127h106v306q232 6 828 6q215 0 315 -52t100 -170q0 -111 -101 -164q-103 -53 -314 -53h-682zM252 536v-175h703q137 0 189 21q53 20 53 66q0 48 -52 70q-51 22 -190 22q-472 0 -703 -4z" />
    <glyph glyph-name="uni2116" unicode="&#x2116;" horiz-adv-x="2685" 
d="M2068 679q104 0 201 -15q95 -15 180 -44q83 -30 132 -79q50 -50 50 -112q0 -81 -87 -140t-211 -84q-127 -26 -265 -26q-102 0 -199 15q-95 15 -180 44q-82 28 -135 79q-51 49 -51 112q0 61 50 111q49 49 131 79q83 29 181 45q98 15 203 15zM1204 138v526h146v-664h-174
l-924 525v-525h-146v664h174zM2068 304q163 0 289 33q125 32 125 92q0 41 -64 71q-65 29 -155 42q-91 12 -195 12q-165 0 -291 -32q-125 -33 -125 -93q0 -61 127 -92q126 -33 289 -33zM2067 138q49 0 84 -20q34 -21 34 -55q0 -35 -34 -54q-35 -20 -84 -20q-50 0 -84 20
q-34 19 -34 54q0 34 34 55q34 20 84 20z" />
    <glyph glyph-name="trademark" unicode="&#x2122;" horiz-adv-x="1873" 
d="M24 572v92h788v-92h-340v-323h-108v323h-340zM1640 664h127v-415h-109v289l-272 -289h-112l-272 290v-290h-108v415h128l308 -330z" />
    <glyph glyph-name="Omega" unicode="&#x2126;" horiz-adv-x="1482" 
d="M1428 364q0 -72 -64 -132q-64 -62 -174 -102h186v-130h-515v130q105 9 199 35q95 27 154 71q62 45 62 101q0 50 -49 92q-52 42 -129 67q-80 26 -171 39q-90 13 -186 13t-184 -13q-92 -13 -172 -39q-77 -25 -129 -67q-50 -42 -50 -92q0 -55 63 -100q62 -46 155 -71
q91 -27 199 -36v-130h-516v130h186q-109 40 -175 101q-64 60 -64 133q0 71 59 133q58 59 157 99q96 38 220 61q121 21 251 21q175 0 330 -36t256 -109q101 -74 101 -169z" />
    <glyph glyph-name="estimated" unicode="&#x212e;" horiz-adv-x="864" 
d="M432 -13q-169 0 -273 94q-105 95 -105 251q0 155 106 251q106 95 272 95q170 0 271 -92q99 -92 107 -264h-601q-8 0 -11 -3q-4 -3 -4 -14v-169q0 -34 71 -81q71 -48 167 -48q76 0 142 31q67 31 98 86h70q-69 -77 -137 -107q-69 -30 -173 -30zM209 342h444q11 0 14 4
q3 3 3 12v168q0 40 -80 87q-80 45 -159 45q-47 0 -93 -15q-47 -15 -77 -36q-29 -20 -48 -41q-19 -20 -19 -33v-182q0 -9 15 -9z" />
    <glyph glyph-name="uni2153" unicode="&#x2153;" horiz-adv-x="2689" 
d="M991 244v-102h-851l-27 102h379v225q-126 -138 -397 -176l-53 110q188 12 307 82q120 69 143 179h115v-420h384zM1483 664h134l-518 -664h-134zM2454 273q191 -39 191 -134q0 -54 -73 -88q-77 -36 -185 -49q-113 -15 -259 -15q-446 0 -517 147l113 37q19 -36 123 -59
q100 -22 281 -22q164 0 282 20q114 20 114 47q0 28 -108 46q-113 17 -288 17h-123l-34 96h97q115 0 216 8q89 7 142 22q48 14 48 29t-42 29q-44 13 -122 20q-74 7 -185 7q-336 0 -384 -70l-91 68q102 105 475 105q214 0 341 -34q128 -35 128 -111q0 -78 -140 -116z" />
    <glyph glyph-name="uni2154" unicode="&#x2154;" horiz-adv-x="2747" 
d="M1025 483q0 -75 -117 -130q-120 -57 -380 -106h481v-102h-908l-19 102q281 47 470 93q190 46 273 81q81 35 81 62q0 35 -100 65q-102 29 -246 29q-165 0 -280 -37q-118 -37 -118 -86q0 -14 12 -24q11 -12 40 -25l-56 -85q-115 48 -115 132q0 66 70 118q69 53 187 81
q116 28 260 28q198 0 332 -54q133 -54 133 -142zM1541 664h134l-518 -664h-134zM2512 273q191 -39 191 -134q0 -54 -73 -88q-77 -36 -185 -49q-113 -15 -259 -15q-446 0 -517 147l113 37q19 -36 123 -59q100 -22 281 -22q164 0 282 20q114 20 114 47q0 28 -108 46
q-113 17 -288 17h-123l-34 96h97q115 0 216 8q89 7 142 22q48 14 48 29t-42 29q-44 13 -122 20q-74 7 -185 7q-336 0 -384 -70l-91 68q102 105 475 105q214 0 341 -34q128 -35 128 -111q0 -78 -140 -116z" />
    <glyph glyph-name="oneeighth" unicode="&#x215b;" horiz-adv-x="2694" 
d="M991 244v-102h-851l-27 102h379v225q-126 -138 -397 -176l-53 110q188 12 307 82q120 69 143 179h115v-420h384zM1483 664h134l-518 -664h-134zM2458 282q195 -49 195 -137q0 -73 -150 -115q-148 -43 -371 -43q-224 0 -372 43q-150 42 -150 115q0 89 195 137
q-141 40 -141 108q0 69 133 106q132 37 335 37t335 -37q132 -38 132 -106t-141 -108zM1784 377q0 -13 38 -24t118 -18q74 -7 192 -7q117 0 191 7q81 8 118 18t37 24q0 54 -346 54q-348 0 -348 -54zM2132 89q175 0 286 19q114 18 114 52q0 32 -111 53q-114 20 -289 20
q-176 0 -290 -20q-112 -21 -112 -53q0 -34 115 -52q113 -19 287 -19z" />
    <glyph glyph-name="threeeighths" unicode="&#x215c;" horiz-adv-x="2801" 
d="M887 418q191 -39 191 -134q0 -54 -73 -88q-77 -36 -185 -49q-112 -15 -259 -15q-447 0 -517 147l113 37q19 -36 123 -59q100 -22 281 -22q164 0 282 20q114 19 114 47t-108 46q-113 17 -288 17h-123l-34 96h97q115 0 216 8q89 7 142 22q48 13 48 29t-42 29
q-44 13 -122 20q-74 7 -185 7q-336 0 -384 -70l-91 68q102 105 475 105q214 0 341 -34q128 -35 128 -111q0 -78 -140 -116zM1590 664h134l-518 -664h-134zM2565 282q195 -49 195 -137q0 -73 -150 -115q-148 -43 -371 -43q-224 0 -372 43q-150 42 -150 115q0 89 195 137
q-141 40 -141 108q0 69 133 106q132 37 335 37t335 -37q132 -38 132 -106t-141 -108zM1891 377q0 -13 38 -24t118 -18q74 -7 192 -7q117 0 191 7q81 8 118 18t37 24q0 54 -346 54q-348 0 -348 -54zM2239 89q175 0 286 19q114 18 114 52q0 32 -111 53q-114 20 -289 20
q-176 0 -290 -20q-112 -21 -112 -53q0 -34 115 -52q113 -19 287 -19z" />
    <glyph glyph-name="fiveeighths" unicode="&#x215d;" horiz-adv-x="2784" 
d="M601 507q209 0 334 -48q123 -48 123 -132q0 -87 -143 -143q-141 -55 -377 -55q-154 0 -285 22q-136 23 -218 57l55 90q70 -31 192 -49q119 -18 256 -18q168 0 286 29q114 28 114 67q0 37 -101 63q-104 26 -246 26q-312 0 -433 -77l-112 28l104 297h876v-103h-791
l-41 -118q162 64 407 64zM1573 664h134l-518 -664h-134zM2548 282q195 -49 195 -137q0 -73 -150 -115q-148 -43 -371 -43q-224 0 -372 43q-150 42 -150 115q0 89 195 137q-141 40 -141 108q0 69 133 106q132 37 335 37t335 -37q132 -38 132 -106t-141 -108zM1874 377
q0 -13 38 -24t118 -18q74 -7 192 -7q117 0 191 7q81 8 118 18t37 24q0 54 -346 54q-348 0 -348 -54zM2222 89q175 0 286 19q114 18 114 52q0 32 -111 53q-114 20 -289 20q-176 0 -290 -20q-112 -21 -112 -53q0 -34 115 -52q113 -19 287 -19z" />
    <glyph glyph-name="seveneighths" unicode="&#x215e;" horiz-adv-x="2538" 
d="M1050 562q-93 0 -180 -13q-91 -14 -179 -45q-86 -30 -157 -79q-69 -48 -109 -120q-42 -73 -39 -163h-124q0 142 88 248q86 105 239 172h-561v102h1022v-102zM1327 664h134l-518 -664h-134zM2302 282q195 -49 195 -137q0 -73 -150 -115q-148 -43 -371 -43q-224 0 -372 43
q-150 42 -150 115q0 89 195 137q-141 40 -141 108q0 69 133 106q132 37 335 37t335 -37q132 -38 132 -106t-141 -108zM1628 377q0 -13 38 -24t118 -18q74 -7 192 -7q117 0 191 7q81 8 118 18t37 24q0 54 -346 54q-348 0 -348 -54zM1976 89q175 0 286 19q114 18 114 52
q0 32 -111 53q-114 20 -289 20q-176 0 -290 -20q-112 -21 -112 -53q0 -34 115 -52q113 -19 287 -19z" />
    <glyph glyph-name="uni2170" unicode="&#x2170;" horiz-adv-x="1022" 
d="M959 534h-375v-404h375v-130h-896v130h375v404h-375v130h896v-130z" />
    <glyph glyph-name="uni2171" unicode="&#x2171;" horiz-adv-x="1410" 
d="M1348 534h-375v-404h375v-130h-1285v130h375v404h-375v130h1285v-130zM827 534h-243v-404h243v404z" />
    <glyph glyph-name="uni2172" unicode="&#x2172;" horiz-adv-x="1800" 
d="M1737 534h-375v-404h375v-130h-1674v130h375v404h-375v130h1674v-130zM827 534h-243v-404h243v404zM1216 534h-243v-404h243v404z" />
    <glyph glyph-name="uni2173" unicode="&#x2173;" horiz-adv-x="2375" 
d="M2312 534h-323l-400 -404h723v-130h-2249v130h375v404h-375v130h2249v-130zM1201 130l-399 404h-218v-404h617zM1800 534h-810l405 -409z" />
    <glyph glyph-name="uni2174" unicode="&#x2174;" horiz-adv-x="1968" 
d="M1905 534h-332l-400 -404h732v-130h-1842v130h722l-399 404h-323v130h1842v-130zM1384 534h-810l405 -409z" />
    <glyph glyph-name="uni2175" unicode="&#x2175;" horiz-adv-x="2374" 
d="M2312 534h-376v-404h376v-130h-2249v130h722l-399 404h-323v130h2249v-130zM1384 534h-810l405 -409zM1790 534h-217l-400 -404h617v404z" />
    <glyph glyph-name="uni2176" unicode="&#x2176;" horiz-adv-x="2764" 
d="M2701 534h-376v-404h376v-130h-2638v130h722l-399 404h-323v130h2638v-130zM1384 534h-810l405 -409zM1790 534h-217l-400 -404h617v404zM2179 534h-243v-404h243v404z" />
    <glyph glyph-name="uni2177" unicode="&#x2177;" horiz-adv-x="3153" 
d="M3090 534h-375v-404h375v-130h-3027v130h722l-399 404h-323v130h3027v-130zM1384 534h-810l405 -409zM1790 534h-217l-400 -404h617v404zM2179 534h-243v-404h243v404zM2569 534h-244v-404h244v404z" />
    <glyph glyph-name="uni2178" unicode="&#x2178;" horiz-adv-x="2320" 
d="M2002 534l-425 -182l514 -222h167v-130h-2195v130h375v404h-375v130h2195v-130h-256zM1240 352l-425 182h-231v-404h142zM1408 413l282 121h-564zM1409 292l-369 -162h737z" />
    <glyph glyph-name="uni2179" unicode="&#x2179;" horiz-adv-x="1827" 
d="M1509 534l-424 -183l511 -221h168v-130h-1701v130h168l510 221l-424 183h-254v130h1701v-130h-255zM913 413l282 121h-564zM914 290l-368 -160h735z" />
    <glyph glyph-name="uni217A" unicode="&#x217a;" horiz-adv-x="2320" 
d="M2257 534h-375v-404h375v-130h-2195v130h167l514 222l-425 182h-256v130h2195v-130zM912 413l282 121h-564zM1736 534h-231l-425 -182l514 -222h142v404zM912 292l-369 -162h737z" />
    <glyph glyph-name="uni217B" unicode="&#x217b;" horiz-adv-x="2710" 
d="M63 0v130h164l518 222l-429 182h-253v130h2583v-130h-375v-404h375v-130h-2583zM912 414l284 120h-568zM1597 130h139v404h-229l-428 -182zM1882 130h243v404h-243v-404zM542 130h740l-370 160z" />
    <glyph glyph-name="arrowleft" unicode="&#x2190;" horiz-adv-x="1094" 
d="M1013 396v-128h-626q66 -47 104 -114q37 -65 37 -140h-160q0 104 -79 179t-208 75v128q129 0 208 75t79 179h160q0 -75 -37 -140q-38 -67 -104 -114h626z" />
    <glyph glyph-name="arrowup" unicode="&#x2191;" horiz-adv-x="817" 
d="M482 664q0 -130 70 -206q71 -77 175 -77v-146q-144 0 -245 122v-357h-146v358q-99 -123 -246 -123v146q105 0 176 77q70 76 70 206h146z" />
    <glyph glyph-name="arrowright" unicode="&#x2192;" horiz-adv-x="1094" 
d="M726 650q0 -104 79 -179t208 -75v-128q-129 0 -208 -75t-79 -179h-160q0 75 37 140q38 67 104 114h-626v128h626q-66 47 -104 114q-37 65 -37 140h160z" />
    <glyph glyph-name="arrowdown" unicode="&#x2193;" horiz-adv-x="817" 
d="M482 307q101 122 245 122v-146q-104 0 -175 -77q-70 -76 -70 -206h-146q0 130 -70 206q-71 77 -176 77v146q147 0 246 -123v358h146v-357z" />
    <glyph glyph-name="arrowboth" unicode="&#x2194;" horiz-adv-x="1457" 
d="M1088 650q0 -103 79 -178q77 -76 209 -76v-128q-131 0 -209 -75q-79 -76 -79 -179h-154q0 161 153 254h-717q153 -91 153 -254h-153q0 103 -79 179q-79 75 -210 75v128q131 0 210 76q79 75 79 178h153q0 -162 -153 -254h717q-153 93 -153 254h154z" />
    <glyph glyph-name="uni2196" unicode="&#x2196;" horiz-adv-x="876" 
d="M786 90l-94 -101l-387 388q18 -159 -88 -265l-98 103q47 46 64 110q15 61 -8 132q-22 67 -85 130l26 28l36 38l8 8l26 27q13 -13 17 -16l1 1l10 -10q94 -72 187 -71q95 2 163 68l98 -103q-103 -101 -254 -88z" />
    <glyph glyph-name="uni2197" unicode="&#x2197;" horiz-adv-x="876" 
d="M786 587q-63 -63 -85 -130q-23 -72 -7 -132q15 -64 63 -110l-98 -103q-106 106 -88 265l-387 -388l-94 101l378 379q-151 -13 -254 88l98 103q68 -66 163 -68q93 -1 187 71l10 10l1 -1q4 3 17 16l26 -27l8 -8l36 -38z" />
    <glyph glyph-name="uni2198" unicode="&#x2198;" horiz-adv-x="876" 
d="M760 63l-36 -38l-8 -8l-26 -27q-13 13 -17 16l-1 -1l-10 10q-94 72 -187 71q-95 -2 -163 -68l-98 103q103 101 254 88l-378 379l94 101l387 -388q-18 159 88 265l98 -103q-48 -46 -63 -109q-16 -61 7 -132q22 -68 85 -131z" />
    <glyph glyph-name="uni2199" unicode="&#x2199;" horiz-adv-x="876" 
d="M408 209q151 13 254 -88l-98 -103q-68 66 -163 68q-93 1 -187 -71l-10 -10l-1 1q-4 -3 -17 -16l-26 27l-8 8l-36 38l-26 28q63 63 85 131q23 70 8 132q-17 64 -64 109l98 103q106 -106 88 -265l387 388l94 -101z" />
    <glyph glyph-name="uni21B3" unicode="&#x21b3;" horiz-adv-x="1119" 
d="M751 650q0 -104 79 -179q80 -75 208 -75v-128q-128 0 -208 -75q-79 -75 -79 -179h-160q0 75 37 140q38 67 104 114h-626v128h1v254h146v-254h479q-66 47 -104 114q-37 65 -37 140h160z" />
    <glyph glyph-name="partialdiff" unicode="&#x2202;" horiz-adv-x="1437" 
d="M753 678q185 0 333 -42q149 -44 231 -124q81 -82 63 -185q-18 -102 -127 -180q-108 -78 -272 -119q-166 -41 -353 -41q-175 0 -310 34q-137 33 -205 89q-69 56 -57 120q7 48 60 86q49 36 132 59q81 23 178 33q102 11 207 11q353 0 577 -137q14 21 18 45q12 67 -58 119
q-71 51 -190 77q-118 25 -266 25q-298 0 -476 -93l-48 113q108 53 257 82q144 28 306 28zM207 221q-4 -21 27.5 -39t97.5 -34q130 -31 315 -31q135 0 262 23q122 22 205 63q-178 97 -489 97q-159 0 -287 -20q-125 -21 -131 -59z" />
    <glyph glyph-name="emptyset" unicode="&#x2205;" horiz-adv-x="1238" 
d="M1109 463q74 -59 74 -133q0 -81 -87 -140t-211 -84q-127 -26 -265 -26q-204 0 -360 52l-167 -65l-39 88l87 34q-86 60 -86 141q0 61 50 111q49 49 131 79q83 29 181 45q98 15 203 15q223 0 376 -58l148 58l40 -88zM204 330q0 -48 90 -81l502 195q-80 11 -176 11
q-165 0 -291 -32q-125 -33 -125 -93zM620 205q163 0 289 33q125 32 125 92q0 44 -73 75l-493 -192q85 -8 152 -8z" />
    <glyph glyph-name="Delta" unicode="&#x2206;" horiz-adv-x="678" 
d="M7 0l332 664l332 -664h-664zM90 52h500l-251 495z" />
    <glyph glyph-name="product" unicode="&#x220f;" horiz-adv-x="1242" 
d="M1204 664v-122h-296v-684h-146v684h-281v-684h-146v684h-297v122h1166z" />
    <glyph glyph-name="summation" unicode="&#x2211;" horiz-adv-x="940" 
d="M877 -8l-1 -134l-839 4l452 400l-438 402h825v-134h-493l300 -270l-308 -266z" />
    <glyph glyph-name="minus" unicode="&#x2212;" horiz-adv-x="684" 
d="M81 197v128h522v-128h-522z" />
    <glyph glyph-name="uni2215" unicode="&#x2215;" horiz-adv-x="407" 
d="M-4 -142l282 913h140l-282 -913h-140z" />
    <glyph glyph-name="uni2219" unicode="&#x2219;" horiz-adv-x="594" 
d="M295 -13q-102 0 -175 73t-73 175q0 106 73 179t175 73q106 0 179 -73t73 -179q0 -102 -73 -175t-179 -73z" />
    <glyph glyph-name="radical" unicode="&#x221a;" horiz-adv-x="993" 
d="M998 759v-127h-493l-88 -773h-173l-45 422h-118v127h216l33 -382l64 733h604z" />
    <glyph glyph-name="infinity" unicode="&#x221e;" horiz-adv-x="1075" 
d="M784 427q87 0 149 -47q61 -46 61 -119q0 -70 -63 -118t-147 -48q-118 0 -246 89q-64 -44 -118 -65q-58 -24 -129 -24q-84 0 -147 48t-63 118q0 72 62 119t148 47q69 0 129 -23q56 -23 118 -66q128 89 246 89zM298 222q60 0 126 39q-66 39 -126 39q-37 0 -58 -12
q-22 -12 -22 -27t22 -27q21 -12 58 -12zM777 222q37 0 59 12q21 12 21 27t-21 27q-22 12 -59 12q-60 0 -126 -39q66 -39 126 -39z" />
    <glyph glyph-name="integral" unicode="&#x222b;" horiz-adv-x="903" 
d="M378 399q0 86 77 151q78 66 196 97q117 31 258 31v-131q-158 8 -271 -30q-114 -37 -114 -116v-275q0 -86 -77 -151q-76 -64 -196 -96t-257 -32v131q100 -4 186 9q86 14 142 49t56 88v275z" />
    <glyph glyph-name="approxequal" unicode="&#x2248;" horiz-adv-x="826" 
d="M573 218q-46 0 -94 23q-45 22 -75 50q-31 28 -68 50q-38 23 -73 23q-32 0 -55 -16q-25 -16 -25 -41h-102q0 80 49 135t124 55q40 0 77 -15q35 -15 64 -36q19 -15 55 -43q25 -20 56 -36q28 -15 58 -15q33 0 56 16q23 17 23 42h102q0 -82 -48 -137t-124 -55zM573 25
q-46 0 -94 23q-45 22 -75 50q-31 28 -68 50q-38 23 -73 23q-32 0 -55 -16q-25 -16 -25 -41h-102q0 80 49 135t124 55q40 0 77 -15q35 -15 64 -36q19 -14 55 -42q24 -21 56 -37q28 -15 58 -15q33 0 56 16q23 17 23 43h102q0 -82 -48 -137q-48 -56 -124 -56z" />
    <glyph glyph-name="notequal" unicode="&#x2260;" horiz-adv-x="684" 
d="M603 296h-167l-33 -70h200v-128h-260l-72 -152l-130 54l46 98h-106v128h167l33 70h-200v128h260l72 152l130 -54l-46 -98h106v-128z" />
    <glyph glyph-name="lessequal" unicode="&#x2264;" horiz-adv-x="670" 
d="M607 158l-549 266l549 266v-147l-256 -119l256 -119v-147zM85 0v127h522v-127h-522z" />
    <glyph glyph-name="greaterequal" unicode="&#x2265;" horiz-adv-x="670" 
d="M63 158v147l256 119l-256 119v147l549 -266zM585 0h-522v127h522v-127z" />
    <glyph glyph-name="circleplus" unicode="&#x2295;" horiz-adv-x="800" 
d="M400 679q142 0 245 -101q101 -103 101 -245q0 -143 -101 -244q-102 -102 -245 -102q-144 0 -244 102q-102 101 -102 244t102 245q101 101 244 101zM400 39q122 0 210 86q86 86 86 208t-86 208q-88 86 -210 86t-208 -86q-87 -85 -87 -208t87 -208q86 -86 208 -86zM426 359
h199v-52h-199v-196h-51v196h-199v52h199v196h51v-196z" />
    <glyph glyph-name="uni2296" unicode="&#x2296;" horiz-adv-x="800" 
d="M400 -13q-144 0 -244 102q-102 101 -102 244t102 245q101 101 244 101q142 0 245 -101q101 -103 101 -245q0 -143 -101 -244q-102 -102 -245 -102zM400 39q122 0 210 86q86 86 86 208t-86 208q-88 86 -210 86t-208 -86q-87 -85 -87 -208t87 -208q86 -86 208 -86zM176 307
v52h449v-52h-449z" />
    <glyph glyph-name="circlemultiply" unicode="&#x2297;" horiz-adv-x="800" 
d="M400 679q142 0 245 -101q101 -103 101 -245q0 -143 -101 -244q-102 -102 -245 -102q-144 0 -244 102q-102 101 -102 244t102 245q101 101 244 101zM400 39q122 0 210 86q86 86 86 208t-86 208q-88 86 -210 86t-208 -86q-87 -85 -87 -208t87 -208q86 -86 208 -86zM542 508
l35 -36l-141 -139l141 -139l-35 -36l-141 140l-142 -140l-35 36l141 139l-141 139l35 36l142 -140z" />
    <glyph glyph-name="uni24FF" unicode="&#x24ff;" 
d="M760 -13q-126 0 -250 24q-124 22 -226 66q-104 44 -166 110q-64 67 -64 146q0 102 106 183q108 82 266 122q161 41 334 41q129 0 255 -24q131 -27 226 -68q101 -44 163 -110q62 -68 62 -144q0 -79 -63 -146q-63 -66 -166 -110q-104 -44 -227 -66q-124 -24 -250 -24z
M760 124q83 0 154 13q80 15 136 38q62 24 100 65q37 40 37 93q0 67 -63 116q-66 49 -158 71t-206 22q-112 0 -204 -22q-94 -22 -158 -71t-64 -116q0 -53 37 -93q38 -41 99 -65q56 -23 136 -38q71 -13 154 -13zM760 203q-68 0 -121 7q-59 8 -106 22q-49 13 -78 41
q-29 26 -29 60q0 65 98 98t236 33q140 0 237 -33q98 -33 98 -98q0 -35 -29 -61q-30 -27 -78 -40q-46 -14 -107 -22q-53 -7 -121 -7z" />
    <glyph glyph-name="filledbox" unicode="&#x25a0;" horiz-adv-x="776" 
d="M106 50v564h564v-564h-564z" />
    <glyph glyph-name="uni25A1" unicode="&#x25a1;" horiz-adv-x="776" 
d="M106 50v564h564v-564h-564zM156 102h463v460h-463v-460z" />
    <glyph glyph-name="triagup" unicode="&#x25b2;" horiz-adv-x="678" 
d="M7 0l332 664l332 -664h-664z" />
    <glyph glyph-name="uni25B3" unicode="&#x25b3;" horiz-adv-x="678" 
d="M7 0l332 664l332 -664h-664zM90 52h500l-251 495z" />
    <glyph glyph-name="uni25B6" unicode="&#x25b6;" horiz-adv-x="810" 
d="M106 664l664 -332l-664 -332v664z" />
    <glyph glyph-name="uni25B7" unicode="&#x25b7;" horiz-adv-x="810" 
d="M106 0v664l664 -332zM156 85l500 247l-500 248v-495z" />
    <glyph glyph-name="triagdn" unicode="&#x25bc;" horiz-adv-x="680" 
d="M8 664h664l-332 -664z" />
    <glyph glyph-name="uni25BD" unicode="&#x25bd;" horiz-adv-x="680" 
d="M340 0l-332 664h664zM340 117l250 495h-500z" />
    <glyph glyph-name="uni25C0" unicode="&#x25c0;" horiz-adv-x="810" 
d="M704 664v-664l-664 332z" />
    <glyph glyph-name="uni25C1" unicode="&#x25c1;" horiz-adv-x="810" 
d="M704 0l-664 332l664 332v-664zM654 85v495l-500 -248z" />
    <glyph glyph-name="uni25C6" unicode="&#x25c6;" horiz-adv-x="795" 
d="M755 332l-359 -357l-356 357l357 358z" />
    <glyph glyph-name="uni25C7" unicode="&#x25c7;" horiz-adv-x="795" 
d="M396 -25l-356 357l357 358l358 -358zM396 49l288 283l-287 284l-285 -284z" />
    <glyph glyph-name="lozenge" unicode="&#x25ca;" horiz-adv-x="653" 
d="M301 -26l-261 359l261 357h52l260 -357l-260 -359h-52zM327 26l224 307l-224 305l-224 -305z" />
    <glyph glyph-name="circle" unicode="&#x25cb;" horiz-adv-x="798" 
d="M397 -13q-141 0 -242 101t-101 242q0 143 101 246q101 101 242 101q145 0 246 -101q101 -103 101 -246q0 -141 -101 -242q-103 -101 -246 -101zM397 39q125 0 211 85q86 86 86 206q0 121 -86 209q-88 86 -211 86q-120 0 -206 -86q-86 -88 -86 -209q0 -119 86 -205
t206 -86z" />
    <glyph glyph-name="uni25CF" unicode="&#x25cf;" horiz-adv-x="798" 
d="M397 -13q-141 0 -242 101t-101 242q0 143 101 246q101 101 242 101q145 0 246 -101q101 -103 101 -246q0 -141 -101 -242q-103 -101 -246 -101z" />
    <glyph glyph-name="uni2609" unicode="&#x2609;" horiz-adv-x="800" 
d="M746 359v-52h-252l218 -125l-25 -44l-218 124l126 -216l-43 -26l-126 216v-249h-51v249l-126 -216l-43 26l126 216l-219 -124l-25 44l218 125h-252v52h252l-218 125l25 44l219 -124l-126 216l43 26l126 -216v249h51v-249l126 216l43 -26l-126 -216l218 124l25 -44
l-218 -125h252z" />
    <glyph glyph-name="uni2610" unicode="&#x2610;" horiz-adv-x="1025" 
d="M106 0v664h62v26h751v-637h-149v-53h-664zM161 53h558v558h-558v-558z" />
    <glyph glyph-name="uni2611" unicode="&#x2611;" horiz-adv-x="1025" 
d="M106 0v664h70v26h743v-638h-149v-52h-664zM156 52h563v560h-563v-560zM361 95l-163 204l39 32l123 -151l282 369l41 -31z" />
    <glyph glyph-name="uni2612" unicode="&#x2612;" horiz-adv-x="1025" 
d="M106 0v664h70v26h743v-638h-149v-52h-664zM438 369l246 243h-492zM156 89l246 243l-246 243v-486zM719 89v486l-246 -243zM192 52h492l-246 244z" />
    <glyph glyph-name="smileface" unicode="&#x263a;" horiz-adv-x="808" 
d="M402 677q145 0 249 -101q103 -102 103 -246q0 -142 -103 -242q-104 -101 -249 -101q-141 0 -245 101q-103 100 -103 242q0 143 103 245t245 102zM402 27q124 0 215 89q90 89 90 214q0 126 -89 217q-90 90 -216 90q-122 0 -211 -90q-90 -90 -90 -217q0 -125 90 -214
q89 -89 211 -89zM325 333q-20 0 -34 29q-14 30 -14 70q0 39 14 69q13 28 34 28q20 0 35 -28q14 -30 14 -69q0 -40 -14 -70q-15 -29 -35 -29zM478 333q-20 0 -34 29q-14 30 -14 70q0 39 14 69q13 28 34 28q20 0 35 -28q14 -30 14 -69q0 -40 -14 -70q-15 -29 -35 -29zM595 299
q12 -7 19 -16q6 -9 3 -14q-5 -9 -28 0q-25 -67 -75 -108t-112 -41t-112 41t-75 108q-23 -9 -28 0q-3 5 4 14q5 8 18 16q12 7 24 9t14 -4q6 -11 -16 -26q20 -53 68 -81q48 -30 103 -30q54 0 104 30q47 28 67 81q-22 15 -16 26q2 6 14 4t24 -9z" />
    <glyph glyph-name="invsmileface" unicode="&#x263b;" horiz-adv-x="808" 
d="M402 -13q-141 0 -245 101q-103 100 -103 242q0 143 103 245t245 102q145 0 249 -101q103 -102 103 -246q0 -142 -103 -242q-104 -101 -249 -101zM325 333q20 0 35 29q14 30 14 70q0 39 -14 69q-15 28 -35 28q-21 0 -34 -28q-14 -30 -14 -69q0 -40 14 -70q14 -29 34 -29z
M478 333q20 0 35 29q14 30 14 70q0 39 -14 69q-15 28 -35 28q-21 0 -34 -28q-14 -30 -14 -69q0 -40 14 -70q14 -29 34 -29zM402 120q62 0 112 41t75 108q8 -4 18 -4q11 0 11 7q0 9 -17 23q-17 13 -33 13q-12 0 -12 -8q0 -11 17 -22q-20 -53 -67 -81q-50 -30 -104 -30
q-55 0 -103 30q-48 28 -68 81q17 12 17 22q0 8 -12 8q-17 0 -33 -13q-17 -14 -17 -23q0 -7 11 -7q10 0 18 4q25 -67 75 -108t112 -41z" />
    <glyph glyph-name="sun" unicode="&#x263c;" horiz-adv-x="800" 
d="M746 307h-151q-6 -50 -38 -94l106 -106l-36 -37l-107 107q-44 -33 -94 -39v-151h-51v151q-50 6 -95 38l-106 -106l-36 37l106 106q-33 44 -39 94h-151v52h151q6 50 39 94l-106 106l36 37l106 -106q42 33 95 39v150h51v-150q50 -6 95 -39l106 106l36 -37l-106 -106
q32 -44 38 -94h151v-52zM547 333q0 60 -43 103t-104 43q-60 0 -103 -43t-43 -103t43 -102q42 -43 103 -43q62 0 105 42q42 42 42 103z" />
    <glyph glyph-name="uni263D" unicode="&#x263d;" horiz-adv-x="580" 
d="M175 -13q-59 0 -112 18q102 36 165 126q63 89 63 202q0 112 -63 202q-63 89 -165 125q54 19 112 19q144 0 248 -101q103 -102 103 -245q0 -144 -103 -244q-103 -102 -248 -102zM209 40q114 19 191 102q76 82 76 191q0 110 -76 192q-75 81 -190 101q131 -122 131 -293
q0 -173 -132 -293z" />
    <glyph glyph-name="uni2709" unicode="&#x2709;" horiz-adv-x="1180" 
d="M106 0v664h968v-664h-968zM590 254l393 358h-787zM156 88l265 251l-265 240v-491zM1023 88v491l-264 -240zM194 52h792l-265 252l-131 -120l-131 120z" />
    <glyph glyph-name="uni270F" unicode="&#x270f;" horiz-adv-x="843" 
d="M63 -26l49 210l507 506l161 -162l-506 -506zM130 42l119 28l459 458l-89 88l-461 -458z" />
    <glyph glyph-name="uni2713" unicode="&#x2713;" horiz-adv-x="1142" 
d="M392 -14l-286 299l36 36l250 -260l608 618l36 -36z" />
    <glyph glyph-name="uni2715" unicode="&#x2715;" horiz-adv-x="909" 
d="M803 642l-313 -309l313 -310l-35 -36l-313 310l-314 -310l-35 36l313 310l-313 309l35 37l314 -311l313 311z" />
    <glyph glyph-name="uni2776" unicode="&#x2776;" 
d="M510 11q-124 22 -226 66q-104 44 -166 110q-64 67 -64 146q0 102 106 183q108 82 266 122q161 41 334 41q129 0 255 -24q131 -27 226 -68q101 -44 163 -110q62 -68 62 -144q0 -79 -63 -146q-63 -66 -166 -110q-104 -44 -227 -66q-124 -24 -250 -24t-250 24zM473 134h650
v78h-294v321h-88q-18 -85 -109 -137q-92 -54 -234 -63l6 -78q225 13 337 122v-165h-289z" />
    <glyph glyph-name="uni2777" unicode="&#x2777;" 
d="M510 11q-124 22 -226 66q-104 44 -166 110q-64 67 -64 146q0 102 106 183q108 82 266 122q161 41 334 41q129 0 255 -24q131 -27 226 -68q101 -44 163 -110q62 -68 62 -144q0 -79 -63 -146q-63 -66 -166 -110q-104 -44 -227 -66q-124 -24 -250 -24t-250 24zM1136 392
q0 68 -102 109q-105 41 -254 41q-167 0 -280 -49q-115 -49 -115 -125q0 -63 88 -100l44 65q-40 16 -40 37q0 38 90 66q87 28 213 28q113 0 188 -22q76 -22 76 -50q0 -20 -62 -47q-64 -28 -207 -62q-152 -36 -359 -71l14 -78h693v78h-367q200 38 290 81t90 99z" />
    <glyph glyph-name="uni2778" unicode="&#x2778;" 
d="M510 11q-124 22 -226 66q-104 44 -166 110q-64 67 -64 146q0 102 106 183q108 82 266 122q161 41 334 41q129 0 255 -24q131 -27 226 -68q101 -44 163 -110q62 -68 62 -144q0 -79 -63 -146q-63 -66 -166 -110q-104 -44 -227 -66q-124 -24 -250 -24t-250 24zM1007 343
q109 28 109 88q0 58 -98 85q-99 26 -260 26q-283 0 -363 -80l70 -52q38 53 293 53q73 0 141 -5q61 -6 93 -15q32 -11 32 -22q0 -13 -36 -23q-35 -10 -108 -16q-67 -7 -166 -7h-73l26 -73h94q140 0 219 -13q83 -14 83 -35t-87 -36q-88 -15 -215 -15q-274 0 -309 62l-86 -29
q54 -112 395 -112q170 0 283 29q111 29 111 87q0 72 -148 103z" />
    <glyph glyph-name="uni2779" unicode="&#x2779;" 
d="M510 11q-124 22 -226 66q-104 44 -166 110q-64 67 -64 146q0 102 106 183q108 82 266 122q161 41 334 41q129 0 255 -24q131 -27 226 -68q101 -44 163 -110q62 -68 62 -144q0 -79 -63 -146q-63 -66 -166 -110q-104 -44 -227 -66q-124 -24 -250 -24t-250 24zM1180 273
h-219v152h-88v-152h-281q83 42 135 104q50 62 51 131l-81 42q2 -104 -108 -188q-108 -84 -248 -89v-78h532v-61h88v61h219v78z" />
    <glyph glyph-name="uni277A" unicode="&#x277a;" 
d="M510 11q-124 22 -226 66q-104 44 -166 110q-64 67 -64 146q0 102 106 183q108 82 266 122q161 41 334 41q129 0 255 -24q131 -27 226 -68q101 -44 163 -110q62 -68 62 -144q0 -79 -63 -146q-63 -66 -166 -110q-104 -44 -227 -66q-124 -24 -250 -24t-250 24zM803 413
q-188 0 -313 -49l33 90h603v79h-668l-79 -227l85 -21q91 58 330 58q112 0 188 -19q77 -20 77 -48q0 -30 -87 -51q-85 -22 -218 -22q-221 0 -342 50l-42 -69q63 -26 168 -43t216 -17q178 0 288 42q109 42 109 110q0 63 -94 100q-93 37 -254 37z" />
    <glyph glyph-name="uni277B" unicode="&#x277b;" 
d="M510 11q-124 22 -226 66q-104 44 -166 110q-64 67 -64 146q0 102 106 183q108 82 266 122q161 41 334 41q129 0 255 -24q131 -27 226 -68q101 -44 163 -110q62 -68 62 -144q0 -79 -63 -146q-63 -66 -166 -110q-104 -44 -227 -66q-124 -24 -250 -24t-250 24zM827 386
q-210 0 -364 -83q-6 12 -6 27q0 59 99 97q99 36 236 36q178 0 278 -56l40 69q-121 66 -328 66q-171 0 -294 -59t-123 -153q0 -63 58 -109q57 -48 152 -72q93 -25 209 -25q158 0 266 44q106 43 106 103q0 58 -94 86q-96 29 -235 29zM786 203q-181 0 -273 52q116 58 306 58
q99 0 172 -12q73 -13 73 -35q0 -26 -83 -44q-80 -19 -195 -19z" />
    <glyph glyph-name="uni277C" unicode="&#x277c;" 
d="M510 11q-124 22 -226 66q-104 44 -166 110q-64 67 -64 146q0 102 106 183q108 82 266 122q161 41 334 41q129 0 255 -24q131 -27 226 -68q101 -44 163 -110q62 -68 62 -144q0 -79 -63 -146q-63 -66 -166 -110q-104 -44 -227 -66q-124 -24 -250 -24t-250 24zM370 533v-79
h434q-119 -50 -186 -130q-68 -83 -68 -190h93q-2 69 30 125t83 91q53 35 121 60q64 23 136 34q64 10 137 10v79h-780z" />
    <glyph glyph-name="uni277D" unicode="&#x277d;" 
d="M510 11q-124 22 -226 66q-104 44 -166 110q-64 67 -64 146q0 102 106 183q108 82 266 122q161 41 334 41q129 0 255 -24q131 -27 226 -68q101 -44 163 -110q62 -68 62 -144q0 -79 -63 -146q-63 -66 -166 -110q-104 -44 -227 -66q-124 -24 -250 -24t-250 24zM1007 350
q110 30 110 82t-101 81q-99 28 -256 28t-256 -28q-101 -29 -101 -81t111 -82q-152 -38 -152 -105q0 -57 115 -88q114 -33 283 -33q168 0 284 33q114 31 114 88q0 68 -151 105zM760 463q266 0 266 -41q0 -10 -29 -18q-31 -10 -90 -14q-68 -5 -147 -5q-78 0 -146 5
q-59 4 -90 14q-29 8 -29 18q0 41 265 41zM542 217q-88 13 -88 39q0 24 85 40q83 16 221 16q139 0 222 -16q85 -16 85 -40q0 -26 -88 -39q-92 -14 -219 -14q-128 0 -218 14z" />
    <glyph glyph-name="uni277E" unicode="&#x277e;" 
d="M510 11q-124 22 -226 66q-104 44 -166 110q-64 67 -64 146q0 102 106 183q108 82 266 122q161 41 334 41q129 0 255 -24q131 -27 226 -68q101 -44 163 -110q62 -68 62 -144q0 -79 -63 -146q-63 -66 -166 -110q-104 -44 -227 -66q-124 -24 -250 -24t-250 24zM737 542
q-160 0 -265 -43q-107 -44 -107 -104q0 -58 94 -86q96 -29 232 -29q217 0 366 83q6 -13 6 -27q0 -62 -95 -97q-94 -36 -239 -36q-165 0 -261 47l-56 -60q122 -66 327 -66q181 0 298 58q118 58 118 154q0 92 -121 149q-122 57 -297 57zM457 400q0 26 84 45q80 19 194 19
q178 0 273 -53q-116 -58 -306 -58q-100 0 -171 13q-74 12 -74 34z" />
    <glyph glyph-name="uniE132" unicode="&#xe132;" horiz-adv-x="659" 
d="M89 519l144 145h217l-216 -145h-145zM426 519l144 145h217l-216 -145h-145zM90 0v474h143v-474h-143zM310 -200q-30 0 -68 5l68 120q50 0 84 20q32 20 32 52v477h143v-499q0 -81 -72 -127q-73 -48 -187 -48z" />
    <glyph glyph-name="uniE133" unicode="&#xe133;" horiz-adv-x="1683" 
d="M107 711l144 145h217l-216 -145h-145zM1450 711l144 145h217l-216 -145h-145zM106 0v664h146v-664h-146zM967 -13q-182 0 -340 37q-161 38 -249 106l72 128q135 -141 517 -141q226 0 354 67q128 66 128 188v292h146v-315q0 -119 -85 -201q-87 -84 -224 -122
q-140 -39 -319 -39z" />
    <glyph glyph-name="u1F50D" unicode="&#x1f50d;" horiz-adv-x="759" 
d="M759 11l-35 -37l-138 138q-92 -77 -210 -77q-133 0 -228 95q-94 94 -94 227q0 134 94 228t228 94t228 -94t94 -228q0 -118 -76 -209zM376 87q114 0 193 79t79 191t-79 191t-193 79q-112 0 -191 -79q-80 -80 -80 -191t80 -191q79 -79 191 -79z" />
    <glyph glyph-name="u1F5B9" unicode="&#x1f5b9;" horiz-adv-x="704" 
d="M424 664l174 -174v-490h-492v664h318zM156 52h391v392h-168v168h-223v-560zM429 590v-94h95zM209 361v20h285v-20h-285zM209 279v20h285v-20h-285zM209 197v20h285v-20h-285zM209 115v20h285v-20h-285z" />
    <glyph glyph-name="u1F5CE" unicode="&#x1f5ce;" horiz-adv-x="704" 
d="M424 664l174 -174v-490h-492v664h318zM156 52h391v392h-168v168h-223v-560zM429 590v-94h95z" />
    <glyph glyph-name="CR" horiz-adv-x="513" 
 />
    <glyph glyph-name="A.ss10" horiz-adv-x="1465" 
d="M1265 0l-115 108h-835l-115 -108h-197l730 690l729 -690h-197zM455 239h555l-277 260z" />
    <glyph glyph-name="Aacute.ss10" horiz-adv-x="1465" 
d="M1022 856l-216 -145h-145l144 145h217zM1265 0l-115 108h-835l-115 -108h-197l730 690l729 -690h-197zM455 239h555l-277 260z" />
    <glyph glyph-name="Abreve.ss10" horiz-adv-x="1465" 
d="M732 705q-120 0 -203 43q-85 43 -85 108h177q0 -34 34 -55q33 -21 77 -21t78 21t34 55h176q0 -64 -84 -108q-85 -43 -204 -43zM1265 0l-115 108h-835l-115 -108h-197l730 690l729 -690h-197zM455 239h555l-277 260z" />
    <glyph glyph-name="uni01CD.ss10" horiz-adv-x="1465" 
d="M808 701h-151l-216 145h206l85 -86l85 86h206zM1265 0l-115 108h-835l-115 -108h-197l730 690l729 -690h-197zM455 239h555l-277 260z" />
    <glyph glyph-name="Acircumflex.ss10" horiz-adv-x="1465" 
d="M733 797l-85 -86h-206l216 145h151l215 -145h-206zM1265 0l-115 108h-835l-115 -108h-197l730 690l729 -690h-197zM455 239h555l-277 260z" />
    <glyph glyph-name="Adieresis.ss10" horiz-adv-x="1465" 
d="M571 697q-50 0 -84 20q-34 19 -34 54q0 34 34 55q34 20 84 20q49 0 84 -20q34 -21 34 -55q0 -35 -34 -54q-35 -20 -84 -20zM875 697q-50 0 -84 20q-34 19 -34 54q0 34 34 55q34 20 84 20q49 0 84 -20q34 -21 34 -55q0 -35 -34 -54q-35 -20 -84 -20zM1265 0l-115 108h-835
l-115 -108h-197l730 690l729 -690h-197zM455 239h555l-277 260z" />
    <glyph glyph-name="Adieresis.ss10.ss20" horiz-adv-x="1465" 
d="M686 844v-133h-217v133h217zM997 844v-133h-217v133h217zM1265 0l-115 108h-835l-115 -108h-197l730 690l729 -690h-197zM455 239h555l-277 260z" />
    <glyph glyph-name="Adieresis.ss20" horiz-adv-x="1472" 
d="M689 844v-133h-217v133h217zM1000 844v-133h-217v133h217zM1277 0l-119 124h-843l-119 -124h-189l639 664h181l638 -664h-188zM441 254h591l-295 307z" />
    <glyph glyph-name="uni1EA0.ss10" horiz-adv-x="1465" 
d="M1462 0h-197l-115 108h-835l-115 -108h-197l730 690zM455 239h555l-277 260zM733 -35q49 0 84 -20q34 -21 34 -55q0 -35 -34 -54q-35 -20 -84 -20q-50 0 -84 20q-34 19 -34 54q0 34 34 55q34 20 84 20z" />
    <glyph glyph-name="uni1EA0.ss10.ss20" horiz-adv-x="1465" 
d="M1462 0h-197l-115 108h-835l-115 -108h-197l730 690zM455 239h555l-277 260zM625 -174v133h217v-133h-217z" />
    <glyph glyph-name="uni1EA0.ss20" horiz-adv-x="1472" 
d="M1465 0h-188l-119 124h-843l-119 -124h-189l639 664h181zM441 254h591l-295 307zM628 -174v133h217v-133h-217z" />
    <glyph glyph-name="Agrave.ss10" horiz-adv-x="1465" 
d="M806 711h-145l-216 145h217zM1265 0l-115 108h-835l-115 -108h-197l730 690l729 -690h-197zM455 239h555l-277 260z" />
    <glyph glyph-name="Amacron.ss10" horiz-adv-x="1465" 
d="M936 826v-115h-407v115h407zM1265 0l-115 108h-835l-115 -108h-197l730 690l729 -690h-197zM455 239h555l-277 260z" />
    <glyph glyph-name="Aogonek.ss10" horiz-adv-x="1465" 
d="M1286 -87q0 -23 37 -30q40 -8 139 -8l-24 -58q-190 0 -286 17q-93 16 -93 57q0 38 56 68q54 29 141 49l-106 100h-835l-115 -108h-197l730 690l729 -690q-76 -11 -125 -34q-51 -24 -51 -53zM455 239h555l-277 260z" />
    <glyph glyph-name="Aring.ss10" horiz-adv-x="1465" 
d="M733 708q-107 0 -185 22q-80 23 -80 54q0 30 80 53q78 22 185 22q109 0 187 -22q78 -23 78 -53q0 -32 -78 -54t-187 -22zM733 823q-35 0 -58 -12q-24 -12 -24 -26q0 -16 24 -28q22 -13 58 -13q37 0 60 12t23 29q0 14 -23 26q-24 12 -60 12zM1265 0l-115 108h-835
l-115 -108h-197l730 690l729 -690h-197zM455 239h555l-277 260z" />
    <glyph glyph-name="Aringacute.ss10" horiz-adv-x="1465" 
d="M732 708q-108 0 -186 22q-79 21 -79 53q0 30 80 53q78 22 185 22h25l56 56h217l-116 -77q83 -21 83 -54q0 -32 -78 -53q-76 -22 -187 -22zM732 822q-34 0 -58 -11q-24 -12 -24 -27q0 -16 24 -28q23 -12 58 -12q38 0 60 12q23 12 23 28q0 15 -23 27q-24 11 -60 11zM1265 0
l-115 108h-835l-115 -108h-197l730 690l729 -690h-197zM455 239h555l-277 260z" />
    <glyph glyph-name="Atilde.ss10" horiz-adv-x="1465" 
d="M633 772q-22 13 -27 -22q-2 -20 -2 -39h-152q0 70 44 111t132 41q26 0 50 -3q21 -4 37 -6q14 -2 35 -12q20 -10 26 -12q1 -1 5 -3t10.5 -6.5t13.5 -8.5q6 -4 13 -8.5t10 -6.5t4 -2q22 -13 27 25q2 18 2 36h154q0 -68 -47 -110q-46 -42 -131 -42q-33 0 -59 3t-47 12
q-20 7 -33 14q-5 2 -33 19q-8 5 -18.5 11.5t-13.5 8.5zM1265 0l-115 108h-835l-115 -108h-197l730 690l729 -690h-197zM455 239h555l-277 260z" />
    <glyph glyph-name="Cdotaccent.ss20" horiz-adv-x="1410" 
d="M870 844v-133h-217v133h217zM763 -13q-132 0 -255 21q-120 20 -227 62q-102 40 -165 109q-62 68 -62 154q0 85 61 152q59 66 161 109q100 40 226 63q122 22 259 22q182 0 340 -37q160 -37 249 -107l-71 -123q-67 68 -207 102q-142 35 -311 35q-247 0 -401 -62
q-154 -61 -154 -154t156 -154q157 -62 401 -62q167 0 301 31q136 31 212 85l91 -103q-94 -69 -260 -106q-164 -37 -344 -37z" />
    <glyph glyph-name="Edieresis.ss20" horiz-adv-x="1295" 
d="M621 844v-133h-217v133h217zM932 844v-133h-217v133h217zM1230 534h-978v-125h857v-130h-857v-149h978v-130h-1124v664h1124v-130z" />
    <glyph glyph-name="Edotaccent.ss20" horiz-adv-x="1295" 
d="M777 844v-133h-217v133h217zM1230 534h-978v-125h857v-130h-857v-149h978v-130h-1124v664h1124v-130z" />
    <glyph glyph-name="uni1EB8.ss20" horiz-adv-x="1295" 
d="M1230 534h-978v-125h857v-130h-857v-149h978v-130h-1124v664h1124v-130zM560 -174v133h217v-133h-217z" />
    <glyph glyph-name="Gcommaaccent.ss20" horiz-adv-x="1518" 
d="M606 375h822v-375h-146v142q-202 -155 -545 -155q-125 0 -244 21q-117 21 -218 62q-98 40 -160 109q-61 67 -61 154q0 85 61 152q59 66 161 109q100 40 226 63q122 22 259 22q182 0 340 -37q160 -37 249 -107l-71 -123q-67 68 -207 102q-142 35 -311 35q-247 0 -401 -62
q-154 -61 -154 -154q0 -56 47 -100q46 -43 125 -67q76 -25 169 -37q91 -12 190 -12q168 0 306 35q135 34 213 92h-650v131zM630 -278v237h226l-186 -237h-40z" />
    <glyph glyph-name="Gdotaccent.ss20" horiz-adv-x="1518" 
d="M869 844v-133h-217v133h217zM606 375h822v-375h-146v142q-202 -155 -545 -155q-125 0 -244 21q-117 21 -218 62q-98 40 -160 109q-61 67 -61 154q0 85 61 152q59 66 161 109q100 40 226 63q122 22 259 22q182 0 340 -37q160 -37 249 -107l-71 -123q-67 68 -207 102
q-142 35 -311 35q-247 0 -401 -62q-154 -61 -154 -154q0 -56 47 -100q46 -43 125 -67q76 -25 169 -37q91 -12 190 -12q168 0 306 35q135 34 213 92h-650v131z" />
    <glyph glyph-name="I.ss04" horiz-adv-x="1022" 
d="M959 534h-375v-404h375v-130h-896v130h375v404h-375v130h896v-130z" />
    <glyph glyph-name="IJ.ss01" horiz-adv-x="1094" 
d="M106 0v664h146v-664h-146zM410 -13l-32 130q222 0 352 63t130 172v312h146v-335q0 -107 -83 -187q-84 -80 -217 -117q-135 -38 -296 -38z" />
    <glyph glyph-name="Iacute.ss04" horiz-adv-x="1022" 
d="M439 711l144 145h217l-216 -145h-145zM959 534h-375v-404h375v-130h-896v130h375v404h-375v130h896v-130z" />
    <glyph glyph-name="Ibreve.ss04" horiz-adv-x="1022" 
d="M510 705q-120 0 -203 43q-85 43 -85 108h177q0 -34 34 -55q33 -21 77 -21t78 21t34 55h176q0 -64 -84 -108q-85 -43 -204 -43zM959 534h-375v-404h375v-130h-896v130h375v404h-375v130h896v-130z" />
    <glyph glyph-name="uni01CF.ss04" horiz-adv-x="1022" 
d="M586 701h-151l-216 145h206l85 -86l85 86h206zM959 534h-375v-404h375v-130h-896v130h375v404h-375v130h896v-130z" />
    <glyph glyph-name="Icircumflex.ss04" horiz-adv-x="1022" 
d="M511 797l-85 -86h-206l216 145h151l215 -145h-206zM959 534h-375v-404h375v-130h-896v130h375v404h-375v130h896v-130z" />
    <glyph glyph-name="Idieresis.ss04" horiz-adv-x="1022" 
d="M349 697q-50 0 -84 20q-34 19 -34 54q0 34 34 55q34 20 84 20q49 0 84 -20q34 -21 34 -55q0 -35 -34 -54q-35 -20 -84 -20zM653 697q-50 0 -84 20q-34 19 -34 54q0 34 34 55q34 20 84 20q49 0 84 -20q34 -21 34 -55q0 -35 -34 -54q-35 -20 -84 -20zM959 534h-375v-404
h375v-130h-896v130h375v404h-375v130h896v-130z" />
    <glyph glyph-name="Idieresis.ss04.ss20" horiz-adv-x="1022" 
d="M247 711v133h217v-133h-217zM558 711v133h217v-133h-217zM959 534h-375v-404h375v-130h-896v130h375v404h-375v130h896v-130z" />
    <glyph glyph-name="Idieresis.ss20" horiz-adv-x="358" 
d="M-85 711v133h217v-133h-217zM226 711v133h217v-133h-217zM106 0v664h146v-664h-146z" />
    <glyph glyph-name="Idotaccent.ss04" horiz-adv-x="1022" 
d="M511 697q-50 0 -84 20q-34 19 -34 54q0 34 34 55q34 20 84 20q49 0 84 -20q34 -21 34 -55q0 -35 -34 -54q-35 -20 -84 -20zM959 534h-375v-404h375v-130h-896v130h375v404h-375v130h896v-130z" />
    <glyph glyph-name="Idotaccent.ss04.ss20" horiz-adv-x="1022" 
d="M620 844v-133h-217v133h217zM959 534h-375v-404h375v-130h-896v130h375v404h-375v130h896v-130z" />
    <glyph glyph-name="Idotaccent.ss20" horiz-adv-x="358" 
d="M288 844v-133h-217v133h217zM106 0v664h146v-664h-146z" />
    <glyph glyph-name="uni1ECA.ss04" horiz-adv-x="1022" 
d="M959 534h-375v-404h375v-130h-896v130h375v404h-375v130h896v-130zM511 -184q-50 0 -84 20q-34 19 -34 54q0 34 34 55q34 20 84 20q49 0 84 -20q34 -21 34 -55q0 -35 -34 -54q-35 -20 -84 -20z" />
    <glyph glyph-name="uni1ECA.ss04.ss20" horiz-adv-x="1022" 
d="M959 534h-375v-404h375v-130h-896v130h375v404h-375v130h896v-130zM403 -174v133h217v-133h-217z" />
    <glyph glyph-name="uni1ECA.ss20" horiz-adv-x="358" 
d="M106 0v664h146v-664h-146zM71 -174v133h217v-133h-217z" />
    <glyph glyph-name="Igrave.ss04" horiz-adv-x="1022" 
d="M584 711h-145l-216 145h217zM959 534h-375v-404h375v-130h-896v130h375v404h-375v130h896v-130z" />
    <glyph glyph-name="Imacron.ss04" horiz-adv-x="1022" 
d="M307 711v115h407v-115h-407zM959 534h-375v-404h375v-130h-896v130h375v404h-375v130h896v-130z" />
    <glyph glyph-name="Iogonek.ss04" horiz-adv-x="1022" 
d="M822 -87q0 -23 37 -30q40 -8 139 -8l-24 -58q-191 0 -285 17q-93 16 -93 57q0 35 46 63q44 26 118 46h-697v130h375v404h-375v130h896v-130h-375v-404h375v-130q-48 -11 -94 -35q-43 -24 -43 -52z" />
    <glyph glyph-name="Itilde.ss04" horiz-adv-x="1022" 
d="M615 704q-33 0 -59 3t-47 12q-20 7 -33 14q-5 2 -33 19q-8 5 -18.5 11.5t-13.5 8.5q-22 13 -27 -22l-2 -39h-152q0 70 44 111t132 41q26 0 50 -3q21 -4 37 -6q14 -2 35 -12q20 -10 26 -12q1 -1 5 -3t10.5 -6.5t13.5 -8.5q6 -4 13 -8.5t10 -6.5t4 -2q22 -13 27 25
q2 18 2 36h154q0 -68 -47 -110q-46 -42 -131 -42zM959 534h-375v-404h375v-130h-896v130h375v404h-375v130h896v-130z" />
    <glyph glyph-name="J.ss01" horiz-adv-x="736" 
d="M52 -13l-32 130q222 0 352 63t130 172v312h146v-335q0 -107 -83 -187q-84 -80 -217 -117q-135 -38 -296 -38z" />
    <glyph glyph-name="uni00A40301" horiz-adv-x="1325" 
d="M1092 711l144 145h217l-216 -145h-145zM609 -13q-182 0 -340 37q-161 38 -249 106l72 128q135 -141 517 -141q226 0 354 67q128 66 128 188v292h146v-315q0 -119 -85 -201q-87 -84 -224 -122q-139 -39 -319 -39z" />
    <glyph glyph-name="uni00A40301.ss01" horiz-adv-x="736" 
d="M503 711l144 145h217l-216 -145h-145zM52 -13l-32 130q222 0 352 63t130 172v312h146v-335q0 -107 -83 -187q-84 -80 -217 -117q-135 -38 -296 -38z" />
    <glyph glyph-name="Jcircumflex.ss01" horiz-adv-x="736" 
d="M651 856l215 -145h-206l-85 86l-85 -86h-206l216 145h151zM502 352v312h146v-335q0 -107 -83 -187q-84 -80 -217 -117q-135 -38 -296 -38l-32 130q222 0 352 63t130 172z" />
    <glyph glyph-name="Kcommaaccent.ss20" horiz-adv-x="1340" 
d="M762 377l579 -377h-240l-473 306l-376 -195v-111h-146v664h146v-402l788 402h283zM570 -286v237h226l-186 -237h-40z" />
    <glyph glyph-name="Lcommaaccent.ss20" horiz-adv-x="1239" 
d="M252 130h960v-130h-1106v664h146v-534zM552 -278v237h226l-186 -237h-40z" />
    <glyph glyph-name="Ldot.ss20" horiz-adv-x="1239" 
d="M252 130h960v-130h-1106v664h146v-534zM922 349v-133h-217v133h217z" />
    <glyph glyph-name="M.ss10" horiz-adv-x="1608" 
d="M804 147l698 543v-690h-146v401l-552 -427l-552 427v-401h-146v690z" />
    <glyph glyph-name="M.ss11" horiz-adv-x="1608" 
d="M804 302l698 388v-690h-146v454l-552 -304l-552 304v-454h-146v690z" />
    <glyph glyph-name="N.ss10" horiz-adv-x="1456" 
d="M1350 664v-690l-1098 501v-475h-146v690l1098 -502v476h146z" />
    <glyph glyph-name="Nacute.ss10" horiz-adv-x="1456" 
d="M1017 856l-216 -145h-145l144 145h217zM1350 664v-690l-1098 501v-475h-146v690l1098 -502v476h146z" />
    <glyph glyph-name="Ncaron.ss10" horiz-adv-x="1456" 
d="M803 701h-151l-216 145h206l85 -86l85 86h206zM1350 664v-690l-1098 501v-475h-146v690l1098 -502v476h146z" />
    <glyph glyph-name="Ncommaaccent.ss10" horiz-adv-x="1456" 
d="M1204 664h146v-690l-1098 501v-475h-146v690l1098 -502v476zM728 -30q51 0 85 -23q33 -24 33 -68q0 -69 -63 -110q-64 -41 -169 -41v53q99 0 152 44q-53 -12 -105 8q-51 19 -51 62q0 34 34 55q34 20 84 20z" />
    <glyph glyph-name="Ncommaaccent.ss10.ss20" horiz-adv-x="1456" 
d="M1204 664h146v-690l-1098 501v-475h-146v690l1098 -502v476zM621 -278v237h226l-186 -237h-40z" />
    <glyph glyph-name="Ncommaaccent.ss20" horiz-adv-x="1456" 
d="M1204 664h146v-664h-174l-924 525v-525h-146v664h174l924 -526v526zM621 -278v237h226l-186 -237h-40z" />
    <glyph glyph-name="Eng.ss10" horiz-adv-x="1456" 
d="M1204 664h146v-690q-2 -80 -73 -126q-73 -48 -186 -48q-30 0 -68 5l68 120q50 0 84 20q32 20 32 52v42l-955 436v-475h-146v690l1098 -502v476z" />
    <glyph glyph-name="uni019D.ss10" horiz-adv-x="1440" 
d="M1334 664v-690l-1099 501v-500q0 -80 -74 -127q-74 -48 -188 -48q-30 0 -68 5l68 120q50 0 84 20q32 20 32 52v693l1099 -502v476h146z" />
    <glyph glyph-name="Ntilde.ss10" horiz-adv-x="1456" 
d="M628 772q-22 13 -27 -22q-2 -20 -2 -39h-152q0 70 44 111t132 41q26 0 50 -3q21 -4 37 -6q14 -2 35 -12q20 -10 26 -12q1 -1 5 -3t10.5 -6.5t13.5 -8.5q6 -4 13 -8.5t10 -6.5t4 -2q22 -13 27 25q2 18 2 36h154q0 -68 -47 -110t-131 -42q-34 0 -59 3q-26 3 -47 12
q-20 7 -33 14q-5 2 -33 19q-8 5 -18.5 11.5t-13.5 8.5zM1350 664v-690l-1098 501v-475h-146v690l1098 -502v476h146z" />
    <glyph glyph-name="Odieresis.ss20" 
d="M496 711v133h217v-133h-217zM807 711v133h217v-133h-217zM760 -13q-132 0 -255 21q-121 21 -225 62q-101 39 -164 109q-62 68 -62 154q0 85 61 152q59 66 161 109q100 40 225 63q122 22 259 22q138 0 260 -22q124 -23 225 -63q100 -42 161 -109q60 -67 60 -152
q0 -87 -61 -154q-63 -69 -164 -109q-106 -42 -226 -62q-123 -21 -255 -21zM760 117q105 0 201 12q98 12 176 37q83 26 129 68q48 44 48 99q0 54 -47 98q-47 42 -127 68q-74 24 -176 38q-98 12 -204 12q-107 0 -203 -12q-101 -14 -176 -38q-80 -26 -127 -68q-48 -43 -48 -98
t48 -99q47 -42 130 -68q78 -25 176 -37q95 -12 200 -12z" />
    <glyph glyph-name="uni1ECC.ss20" 
d="M760 -13q-132 0 -255 21q-121 21 -225 62q-101 39 -164 109q-62 68 -62 154q0 85 61 152q59 66 161 109q100 40 225 63q122 22 259 22q138 0 260 -22q124 -23 225 -63q100 -42 161 -109q60 -67 60 -152q0 -87 -61 -154q-63 -69 -164 -109q-106 -42 -226 -62
q-123 -21 -255 -21zM760 117q105 0 201 12q98 12 176 37q83 26 129 68q48 44 48 99q0 54 -47 98q-47 42 -127 68q-74 24 -176 38q-98 12 -204 12q-107 0 -203 -12q-101 -14 -176 -38q-80 -26 -127 -68q-48 -43 -48 -98t48 -99q47 -42 130 -68q78 -25 176 -37q95 -12 200 -12
zM652 -174v133h217v-133h-217z" />
    <glyph glyph-name="Q.ss07" horiz-adv-x="1518" 
d="M1518 0l-40 -88l-305 134q-183 -59 -413 -59q-132 0 -255 21q-121 21 -225 62q-101 39 -164 109q-62 68 -62 154q0 85 61 152q59 66 161 109q100 40 225 63q122 22 259 22q138 0 260 -22q124 -23 225 -63q100 -42 161 -109q60 -67 60 -152q0 -144 -170 -236zM760 117
q117 0 218 14l-260 114l40 88l380 -166q176 57 176 166q0 54 -47 98q-47 42 -127 68q-74 24 -176 38q-98 12 -204 12q-107 0 -203 -12q-101 -14 -176 -38q-80 -26 -127 -68q-48 -43 -48 -98t48 -99q47 -42 130 -68q78 -25 176 -37q95 -12 200 -12z" />
    <glyph glyph-name="Q.ss13" 
d="M1466 333q0 -107 -93 -184q-92 -76 -248 -118q101 -70 183 -154l-128 -69q-119 119 -249 188q-84 -9 -171 -9q-132 0 -255 21q-121 21 -225 62q-101 39 -164 109q-62 68 -62 154q0 85 61 152q59 66 161 109q100 40 225 63q122 22 259 22q138 0 260 -22q124 -23 225 -63
q100 -42 161 -109q60 -67 60 -152zM957 128q158 19 258 71q99 51 99 134q0 54 -47 98q-47 42 -127 68q-74 24 -176 38q-98 12 -204 12q-107 0 -203 -12q-101 -14 -176 -38q-80 -26 -127 -68q-48 -43 -48 -98q0 -77 85 -126q84 -49 224 -72q170 118 442 -7z" />
    <glyph glyph-name="Q.ss15" 
d="M1466 333q0 -51 -23 -97t-63 -81t-97 -64q-61 -31 -122 -49q-64 -19 -140 -33l174 -10l-9 -127l-762 42l7 109q-170 39 -273 118q-104 78 -104 192q0 85 61 152q59 66 161 109q100 40 225 63q122 22 259 22q138 0 260 -22q124 -23 225 -63q100 -42 161 -109
q60 -67 60 -152zM760 117q105 0 201 12q98 12 176 37q83 26 129 68q48 44 48 99q0 54 -47 98q-47 42 -127 68q-74 24 -176 38q-98 12 -204 12q-107 0 -203 -12q-101 -14 -176 -38q-80 -26 -127 -68q-48 -43 -48 -98t48 -99q47 -42 130 -68q78 -25 176 -37q95 -12 200 -12z
" />
    <glyph glyph-name="R.ss03" horiz-adv-x="1409" 
d="M1036 234q45 -48 129 -77t184 -29v-128q-153 0 -291 62q-137 62 -189 169h-617v-231h-146v664q232 6 828 6q215 0 315 -52t100 -170q0 -97 -77 -150q-76 -52 -236 -64zM252 536v-175h703q137 0 189 21q53 20 53 66q0 48 -52 70q-51 22 -190 22q-472 0 -703 -4z" />
    <glyph glyph-name="R.ss05" horiz-adv-x="1414" 
d="M934 231h-3l408 -120v-137l-812 257h-275v-231h-146v664q232 6 828 6q215 0 315 -52t100 -170q0 -111 -101 -164q-103 -53 -314 -53zM252 536v-175h703q137 0 189 21q53 20 53 66q0 48 -52 70q-51 22 -190 22q-472 0 -703 -4z" />
    <glyph glyph-name="R.ss08" horiz-adv-x="1412" 
d="M1107 242q190 -89 251 -242h-172q-55 108 -183 170q-126 61 -327 61h-424v-231h-146v664q232 6 828 6q215 0 315 -52t100 -170q0 -87 -59 -137q-60 -49 -183 -69zM252 361h703q137 0 189 21q53 20 53 66q0 48 -52 70q-51 22 -190 22q-472 0 -703 -4v-175z" />
    <glyph glyph-name="Racute.ss03" horiz-adv-x="1409" 
d="M979 856l-216 -145h-145l144 145h217zM1036 234q45 -48 129 -77t184 -29v-128q-153 0 -291 62q-137 62 -189 169h-617v-231h-146v664q232 6 828 6q215 0 315 -52t100 -170q0 -97 -77 -150q-76 -52 -236 -64zM252 536v-175h703q137 0 189 21q53 20 53 66q0 48 -52 70
q-51 22 -190 22q-472 0 -703 -4z" />
    <glyph glyph-name="Racute.ss05" horiz-adv-x="1414" 
d="M979 856l-216 -145h-145l144 145h217zM934 231h-3l408 -120v-137l-812 257h-275v-231h-146v664q232 6 828 6q215 0 315 -52t100 -170q0 -111 -101 -164q-103 -53 -314 -53zM252 536v-175h703q137 0 189 21q53 20 53 66q0 48 -52 70q-51 22 -190 22q-472 0 -703 -4z" />
    <glyph glyph-name="Racute.ss08" horiz-adv-x="1412" 
d="M979 856l-216 -145h-145l144 145h217zM1107 242q190 -89 251 -242h-172q-55 108 -183 170q-126 61 -327 61h-424v-231h-146v664q232 6 828 6q215 0 315 -52t100 -170q0 -87 -59 -137q-60 -49 -183 -69zM252 361h703q137 0 189 21q53 20 53 66q0 48 -52 70q-51 22 -190 22
q-472 0 -703 -4v-175z" />
    <glyph glyph-name="Rcaron.ss03" horiz-adv-x="1409" 
d="M765 701h-151l-216 145h206l85 -86l85 86h206zM1036 234q45 -48 129 -77t184 -29v-128q-153 0 -291 62q-137 62 -189 169h-617v-231h-146v664q232 6 828 6q215 0 315 -52t100 -170q0 -97 -77 -150q-76 -52 -236 -64zM252 536v-175h703q137 0 189 21q53 20 53 66
q0 48 -52 70q-51 22 -190 22q-472 0 -703 -4z" />
    <glyph glyph-name="Rcaron.ss05" horiz-adv-x="1414" 
d="M765 701h-151l-216 145h206l85 -86l85 86h206zM934 231h-3l408 -120v-137l-812 257h-275v-231h-146v664q232 6 828 6q215 0 315 -52t100 -170q0 -111 -101 -164q-103 -53 -314 -53zM252 536v-175h703q137 0 189 21q53 20 53 66q0 48 -52 70q-51 22 -190 22
q-472 0 -703 -4z" />
    <glyph glyph-name="Rcaron.ss08" horiz-adv-x="1412" 
d="M765 701h-151l-216 145h206l85 -86l85 86h206zM1107 242q190 -89 251 -242h-172q-55 108 -183 170q-126 61 -327 61h-424v-231h-146v664q232 6 828 6q215 0 315 -52t100 -170q0 -87 -59 -137q-60 -49 -183 -69zM252 361h703q137 0 189 21q53 20 53 66q0 48 -52 70
q-51 22 -190 22q-472 0 -703 -4v-175z" />
    <glyph glyph-name="Rcommaaccent.ss03" horiz-adv-x="1409" 
d="M1036 234q45 -48 129 -77t184 -29v-128q-153 0 -291 62q-137 62 -189 169h-617v-231h-146v664q232 6 828 6q215 0 315 -52t100 -170q0 -97 -77 -150q-76 -52 -236 -64zM252 536v-175h703q137 0 189 21q53 20 53 66q0 48 -52 70q-51 22 -190 22q-472 0 -703 -4zM690 -30
q51 0 85 -23q33 -24 33 -68q0 -69 -63 -110q-64 -41 -169 -41v53q99 0 152 44q-53 -12 -105 8q-51 19 -51 62q0 34 34 55q34 20 84 20z" />
    <glyph glyph-name="Rcommaaccent.ss03.ss20" horiz-adv-x="1409" 
d="M1036 234q45 -48 129 -77t184 -29v-128q-153 0 -291 62q-137 62 -189 169h-617v-231h-146v664q232 6 828 6q215 0 315 -52t100 -170q0 -97 -77 -150q-76 -52 -236 -64zM252 536v-175h703q137 0 189 21q53 20 53 66q0 48 -52 70q-51 22 -190 22q-472 0 -703 -4zM583 -278
v237h226l-186 -237h-40z" />
    <glyph glyph-name="Rcommaaccent.ss05" horiz-adv-x="1414" 
d="M934 231h-3l408 -120v-137l-812 257h-275v-231h-146v664q232 6 828 6q215 0 315 -52t100 -170q0 -111 -101 -164q-103 -53 -314 -53zM252 536v-175h703q137 0 189 21q53 20 53 66q0 48 -52 70q-51 22 -190 22q-472 0 -703 -4zM685 -30q51 0 85 -23q33 -24 33 -68
q0 -69 -63 -110q-64 -41 -169 -41v53q99 0 152 44q-53 -12 -105 8q-51 19 -51 62q0 34 34 55q34 20 84 20z" />
    <glyph glyph-name="Rcommaaccent.ss05.ss20" horiz-adv-x="1414" 
d="M934 231h-3l408 -120v-137l-812 257h-275v-231h-146v664q232 6 828 6q215 0 315 -52t100 -170q0 -111 -101 -164q-103 -53 -314 -53zM252 536v-175h703q137 0 189 21q53 20 53 66q0 48 -52 70q-51 22 -190 22q-472 0 -703 -4zM578 -278v237h226l-186 -237h-40z" />
    <glyph glyph-name="Rcommaaccent.ss08" horiz-adv-x="1412" 
d="M1107 242q190 -89 251 -242h-172q-55 108 -183 170q-126 61 -327 61h-424v-231h-146v664q232 6 828 6q215 0 315 -52t100 -170q0 -87 -59 -137q-60 -49 -183 -69zM252 361h703q137 0 189 21q53 20 53 66q0 48 -52 70q-51 22 -190 22q-472 0 -703 -4v-175zM685 -30
q51 0 85 -23q33 -24 33 -68q0 -69 -63 -110q-64 -41 -169 -41v53q99 0 152 44q-53 -12 -105 8q-51 19 -51 62q0 34 34 55q34 20 84 20z" />
    <glyph glyph-name="Rcommaaccent.ss08.ss20" horiz-adv-x="1412" 
d="M1107 242q190 -89 251 -242h-172q-55 108 -183 170q-126 61 -327 61h-424v-231h-146v664q232 6 828 6q215 0 315 -52t100 -170q0 -87 -59 -137q-60 -49 -183 -69zM252 361h703q137 0 189 21q53 20 53 66q0 48 -52 70q-51 22 -190 22q-472 0 -703 -4v-175zM578 -278v237
h226l-186 -237h-40z" />
    <glyph glyph-name="Rcommaaccent.ss20" horiz-adv-x="1414" 
d="M1005 233l354 -233h-241l-349 231h-517v-231h-146v664q232 6 828 6q215 0 315 -52t100 -170q0 -103 -84 -155q-86 -53 -260 -60zM252 536v-175h703q137 0 189 21q53 20 53 66q0 48 -52 70q-51 22 -190 22q-472 0 -703 -4zM578 -278v237h226l-186 -237h-40z" />
    <glyph glyph-name="Scommaaccent.ss20" horiz-adv-x="1372" 
d="M697 -13q-255 0 -422 42q-167 40 -216 124l127 68q35 -46 168 -74q134 -30 359 -30q448 0 448 81q0 18 -18 29q-19 11 -74 20t-136 15q-86 5 -229 12q-98 5 -160 9q-91 6 -135 11q-77 8 -113 17q-50 12 -86 25q-42 15 -65 35q-22 19 -36 47t-14 61q0 110 147 155
q146 45 439 45q502 0 585 -164l-129 -70q-42 104 -451 104q-439 0 -439 -70q0 -33 97 -48q96 -15 368 -27q100 -5 163 -9q89 -6 134 -11q63 -7 112 -17q44 -11 83 -24q42 -16 62 -34q19 -18 34 -46q13 -26 13 -61q0 -63 -40 -104q-41 -42 -123 -66q-80 -23 -191 -34
q-115 -11 -262 -11zM590 -278v237h226l-186 -237h-40z" />
    <glyph glyph-name="uni021A.ss20" horiz-adv-x="1310" 
d="M24 664h1262v-130h-558v-534h-146v534h-558v130zM548 -278v237h226l-186 -237h-40z" />
    <glyph glyph-name="Udieresis.ss20" horiz-adv-x="1432" 
d="M452 711v133h217v-133h-217zM763 711v133h217v-133h-217zM716 -13q-178 0 -318 39q-137 38 -224 122q-86 83 -86 201v315h146v-289q0 -123 129 -190q130 -68 353 -68t353 68q129 68 129 190v289h146v-315q0 -119 -85 -201q-86 -83 -225 -122q-140 -39 -318 -39z" />
    <glyph glyph-name="uni1EE4.ss20" horiz-adv-x="1431" 
d="M716 -13q-178 0 -318 39q-137 38 -224 122q-86 83 -86 201v315h146v-289q0 -123 129 -190q130 -68 353 -68t353 68q129 68 129 190v289h146v-315q0 -119 -85 -201q-86 -83 -225 -122q-140 -39 -318 -39zM608 -174v133h217v-133h-217z" />
    <glyph glyph-name="V.ss10" horiz-adv-x="1465" 
d="M1265 664h197l-729 -690l-730 690h197l533 -499z" />
    <glyph glyph-name="W.ss07" horiz-adv-x="2109" 
d="M1913 664h188l-638 -664h-181l-227 237l-228 -237h-181l-638 664h188l541 -562l223 233l-316 329h188l223 -231l222 231h188l-316 -329l224 -233z" />
    <glyph glyph-name="W.ss07.ss10" horiz-adv-x="2097" 
d="M2094 664l-729 -690l-316 299l-316 -299l-730 690h197l533 -499l216 203l-314 296h197l217 -203l216 203h197l-313 -297l216 -202l532 499h197z" />
    <glyph glyph-name="W.ss10" horiz-adv-x="1855" 
d="M1848 664l-558 -690l-362 479l-363 -479l-558 690h178l376 -462l366 488l366 -489l376 463h179z" />
    <glyph glyph-name="Wacute.ss07" horiz-adv-x="2109" 
d="M1344 856l-216 -145h-145l144 145h217zM1913 664h188l-638 -664h-181l-227 237l-228 -237h-181l-638 664h188l541 -562l223 233l-316 329h188l223 -231l222 231h188l-316 -329l224 -233z" />
    <glyph glyph-name="Wacute.ss07.ss10" horiz-adv-x="2097" 
d="M1338 856l-216 -145h-145l144 145h217zM2094 664l-729 -690l-316 299l-316 -299l-730 690h197l533 -499l216 203l-314 296h197l217 -203l216 203h197l-313 -297l216 -202l532 499h197z" />
    <glyph glyph-name="Wacute.ss10" horiz-adv-x="1855" 
d="M1216 856l-216 -145h-145l144 145h217zM1848 664l-558 -690l-362 479l-363 -479l-558 690h178l376 -462l366 488l366 -489l376 463h179z" />
    <glyph glyph-name="Wcircumflex.ss07" horiz-adv-x="2109" 
d="M1055 797l-85 -86h-206l216 145h151l215 -145h-206zM1913 664h188l-638 -664h-181l-227 237l-228 -237h-181l-638 664h188l541 -562l223 233l-316 329h188l223 -231l222 231h188l-316 -329l224 -233z" />
    <glyph glyph-name="Wcircumflex.ss07.ss10" horiz-adv-x="2097" 
d="M1049 797l-85 -86h-206l216 145h151l215 -145h-206zM2094 664l-729 -690l-316 299l-316 -299l-730 690h197l533 -499l216 203l-314 296h197l217 -203l216 203h197l-313 -297l216 -202l532 499h197z" />
    <glyph glyph-name="Wcircumflex.ss10" horiz-adv-x="1855" 
d="M927 797l-85 -86h-206l216 145h151l215 -145h-206zM1848 664l-558 -690l-362 479l-363 -479l-558 690h178l376 -462l366 488l366 -489l376 463h179z" />
    <glyph glyph-name="Wdieresis.ss07" horiz-adv-x="2109" 
d="M893 697q-50 0 -84 20q-34 19 -34 54q0 34 34 55q34 20 84 20q49 0 84 -20q34 -21 34 -55q0 -35 -34 -54q-35 -20 -84 -20zM1197 697q-50 0 -84 20q-34 19 -34 54q0 34 34 55q34 20 84 20q49 0 84 -20q34 -21 34 -55q0 -35 -34 -54q-35 -20 -84 -20zM1913 664h188
l-638 -664h-181l-227 237l-228 -237h-181l-638 664h188l541 -562l223 233l-316 329h188l223 -231l222 231h188l-316 -329l224 -233z" />
    <glyph glyph-name="Wdieresis.ss07.ss10" horiz-adv-x="2097" 
d="M887 697q-50 0 -84 20q-34 19 -34 54q0 34 34 55q34 20 84 20q49 0 84 -20q34 -21 34 -55q0 -35 -34 -54q-35 -20 -84 -20zM1191 697q-50 0 -84 20q-34 19 -34 54q0 34 34 55q34 20 84 20q49 0 84 -20q34 -21 34 -55q0 -35 -34 -54q-35 -20 -84 -20zM2094 664l-729 -690
l-316 299l-316 -299l-730 690h197l533 -499l216 203l-314 296h197l217 -203l216 203h197l-313 -297l216 -202l532 499h197z" />
    <glyph glyph-name="Wdieresis.ss07.ss10.ss20" horiz-adv-x="2097" 
d="M1002 844v-133h-217v133h217zM1313 844v-133h-217v133h217zM2094 664l-729 -690l-316 299l-316 -299l-730 690h197l533 -499l216 203l-314 296h197l217 -203l216 203h197l-313 -297l216 -202l532 499h197z" />
    <glyph glyph-name="Wdieresis.ss07.ss20" horiz-adv-x="2109" 
d="M1008 844v-133h-217v133h217zM1319 844v-133h-217v133h217zM1913 664h188l-638 -664h-181l-227 237l-228 -237h-181l-638 664h188l541 -562l223 233l-316 329h188l223 -231l222 231h188l-316 -329l224 -233z" />
    <glyph glyph-name="Wdieresis.ss10" horiz-adv-x="1855" 
d="M765 697q-50 0 -84 20q-34 19 -34 54q0 34 34 55q34 20 84 20q49 0 84 -20q34 -21 34 -55q0 -35 -34 -54q-35 -20 -84 -20zM1069 697q-50 0 -84 20q-34 19 -34 54q0 34 34 55q34 20 84 20q49 0 84 -20q34 -21 34 -55q0 -35 -34 -54q-35 -20 -84 -20zM1848 664l-558 -690
l-362 479l-363 -479l-558 690h178l376 -462l366 488l366 -489l376 463h179z" />
    <glyph glyph-name="Wdieresis.ss10.ss20" horiz-adv-x="1855" 
d="M880 844v-133h-217v133h217zM1191 844v-133h-217v133h217zM1848 664l-558 -690l-362 479l-363 -479l-558 690h178l376 -462l366 488l366 -489l376 463h179z" />
    <glyph glyph-name="Wdieresis.ss20" horiz-adv-x="1861" 
d="M884 844v-133h-217v133h217zM1195 844v-133h-217v133h217zM1686 664h165l-396 -664h-194l-330 557l-330 -557h-195l-396 664h164l330 -552l332 552h189l332 -551z" />
    </font>
</defs>
</svg>
